M48
; DRILL file {KiCad 8.0.0} date 2024-05-05T17:30:59+0800
; FORMAT={-:-/ absolute / inch / decimal}
; #@! TF.CreationDate,2024-05-05T17:30:59+08:00
; #@! TF.GenerationSoftware,Kicad,Pcbnew,8.0.0
; #@! TF.FileFunction,Plated,1,2,PTH
FMAT,2
INCH
; #@! TA.AperFunction,Plated,PTH,ViaDrill
T1C0.0118
; #@! TA.AperFunction,Plated,PTH,ComponentDrill
T2C0.0197
; #@! TA.AperFunction,Plated,PTH,ComponentDrill
T3C0.0276
; #@! TA.AperFunction,Plated,PTH,ComponentDrill
T4C0.0300
; #@! TA.AperFunction,Plated,PTH,ComponentDrill
T5C0.0315
; #@! TA.AperFunction,Plated,PTH,ComponentDrill
T6C0.0394
; #@! TA.AperFunction,Plated,PTH,ComponentDrill
T7C0.0689
%
G90
G05
T1
X2.9488Y-6.0906
X2.9567Y-3.1378
X2.9961Y-3.1457
X3.0039Y-6.1969
X3.0512Y-2.8504
X3.0551Y-5.2835
X3.0591Y-5.8346
X3.063Y-5.1929
X3.1063Y-2.126
X3.1063Y-2.2323
X3.1535Y-2.8228
X3.1614Y-1.8346
X3.1614Y-1.9213
X3.1614Y-2.0354
X3.1614Y-2.1969
X3.181Y-2.5591
X3.185Y-2.4606
X3.2008Y-2.2047
X3.2046Y-2.378
X3.2047Y-2.0591
X3.2559Y-2.5512
X3.2717Y-5.9764
X3.2835Y-2.7717
X3.2835Y-2.9764
X3.2874Y-2.1102
X3.3031Y-2.8701
X3.3071Y-3.0433
X3.315Y-2.2913
X3.315Y-2.5512
X3.3228Y-1.8031
X3.3661Y-5.1969
X3.3701Y-2.8701
X3.374Y-5.8268
X3.3858Y-1.8622
X3.4331Y-2.2913
X3.4449Y-5.9213
X3.4606Y-5.9803
X3.4685Y-1.6535
X3.5039Y-5.685
X3.5433Y-5.4173
X3.563Y-1.878
X3.5709Y-5.8071
X3.6063Y-2.1378
X3.6457Y-1.7126
X3.689Y-2.2756
X3.6929Y-5.315
X3.7283Y-2.2913
X3.7598Y-1.5039
X3.7638Y-1.5669
X3.7638Y-2.3071
X3.7795Y-1.9764
X3.7953Y-2.3268
X3.8071Y-2.0039
X3.8307Y-2.3425
X3.8386Y-2.0276
X3.8622Y-2.315
X3.8661Y-2.0512
X3.8976Y-2.0709
X3.8976Y-2.2835
X3.9567Y-2.2835
X3.9882Y-1.4606
X4.0039Y-1.2756
X4.0315Y-1.4488
X4.0394Y-5.6339
X4.0551Y-1.2677
X4.248Y-2.0315
X4.252Y-2.1496
X4.252Y-2.2677
X4.252Y-2.5039
X4.252Y-2.7402
X4.252Y-2.8583
X4.2559Y-2.3858
X4.2598Y-2.622
X4.2756Y-2.126
X4.3031Y-2.0551
X4.3031Y-2.1732
X4.3031Y-2.2913
X4.3031Y-2.4094
X4.3031Y-2.5276
X4.3031Y-2.6457
X4.3031Y-2.7638
X4.3031Y-2.8819
X4.3268Y-5.0197
X4.3425Y-2.8583
X4.3858Y-5.0669
X4.3937Y-2.2441
X4.4134Y-4.9843
X4.4213Y-2.0551
X4.4213Y-2.1732
X4.4213Y-2.2913
X4.4213Y-2.4094
X4.4213Y-2.5276
X4.4213Y-2.6457
X4.4213Y-2.7638
X4.4213Y-2.8819
X4.4252Y-5.4252
X4.4528Y-5.4685
X4.4606Y-2.7402
X4.4724Y-5.5157
X4.4803Y-5.563
X4.4882Y-5.1575
X4.5118Y-2.3622
X4.5157Y-1.9685
X4.5394Y-2.0551
X4.5394Y-2.1732
X4.5394Y-2.2913
X4.5394Y-2.4094
X4.5394Y-2.5276
X4.5394Y-2.6457
X4.5394Y-2.7638
X4.5394Y-2.8819
X4.5512Y-5.8465
X4.5787Y-2.622
X4.5866Y-5.9724
X4.622Y-5.7795
X4.626Y-4.9114
X4.626Y-5.8386
X4.6299Y-2.4803
X4.6535Y-1.9685
X4.6575Y-2.0551
X4.6575Y-2.1732
X4.6575Y-2.2913
X4.6575Y-2.4094
X4.6575Y-2.5276
X4.6575Y-2.6457
X4.6575Y-2.7638
X4.6575Y-2.8819
X4.6969Y-2.5039
X4.748Y-2.5984
X4.7756Y-2.0551
X4.7756Y-2.1732
X4.7756Y-2.2913
X4.7756Y-2.4094
X4.7756Y-2.5276
X4.7756Y-2.6457
X4.7756Y-2.7638
X4.7756Y-2.8819
X4.7913Y-1.9685
X4.815Y-2.3858
X4.8661Y-2.7165
X4.8937Y-2.0551
X4.8937Y-2.1732
X4.8937Y-2.2913
X4.8937Y-2.4094
X4.8937Y-2.5276
X4.8937Y-2.6457
X4.8937Y-2.7638
X4.8937Y-2.8819
X4.9173Y-1.4094
X4.9291Y-1.9685
X4.9331Y-2.2677
X4.9606Y-6.1024
X4.9843Y-2.8346
X5.0118Y-2.0551
X5.0118Y-2.1732
X5.0118Y-2.2913
X5.0118Y-2.4094
X5.0118Y-2.5276
X5.0118Y-2.6457
X5.0118Y-2.7638
X5.0118Y-2.8819
X5.0118Y-5.9449
X5.0276Y-1.4055
X5.0512Y-2.1496
X5.0669Y-1.9685
X5.0984Y-1.4134
X5.0984Y-1.5394
X5.1024Y-2.9528
X5.1063Y-1.3465
X5.1299Y-2.0551
X5.1299Y-2.1732
X5.1299Y-2.2913
X5.1299Y-2.4094
X5.1299Y-2.5276
X5.1299Y-2.6457
X5.1299Y-2.7638
X5.1299Y-2.8819
X5.1693Y-2.0315
X5.185Y-1.5866
X5.2047Y-1.9409
X5.2205Y-2.126
X5.248Y-2.0551
X5.248Y-2.1732
X5.248Y-2.2913
X5.248Y-2.4094
X5.248Y-2.5276
X5.248Y-2.6457
X5.248Y-2.7638
X5.248Y-2.8819
X5.2795Y-1.5709
X5.3346Y-1.4685
X5.3386Y-2.2441
X5.3425Y-1.9409
X5.3661Y-2.0551
X5.3661Y-2.1732
X5.3661Y-2.2913
X5.3661Y-2.4094
X5.3661Y-2.5276
X5.3661Y-2.6457
X5.3661Y-2.7638
X5.3661Y-2.8819
X5.3937Y-1.437
X5.4567Y-2.3622
X5.4724Y-5.1772
X5.4803Y-1.9409
X5.4843Y-2.0551
X5.4843Y-2.1732
X5.4843Y-2.2913
X5.4843Y-2.4094
X5.4843Y-2.5276
X5.4843Y-2.6457
X5.4843Y-2.7638
X5.4843Y-2.8819
X5.5Y-1.378
X5.5748Y-2.4803
X5.6024Y-2.0551
X5.6024Y-2.1732
X5.6024Y-2.2913
X5.6024Y-2.4094
X5.6024Y-2.5276
X5.6024Y-2.6457
X5.6024Y-2.7638
X5.6024Y-2.8819
X5.6024Y-5.1772
X5.6181Y-1.9409
X5.6575Y-1.2717
X5.6929Y-2.5984
X5.7047Y-1.6929
X5.7205Y-2.0551
X5.7205Y-2.1732
X5.7205Y-2.2913
X5.7205Y-2.4094
X5.7205Y-2.5276
X5.7205Y-2.6457
X5.7205Y-2.7638
X5.7205Y-2.8819
X5.7559Y-1.937
X5.7992Y-4.8701
X5.811Y-2.7165
X5.815Y-5.0354
X5.8386Y-2.0551
X5.8386Y-2.1732
X5.8386Y-2.2913
X5.8386Y-2.4094
X5.8386Y-2.5276
X5.8386Y-2.6457
X5.8386Y-2.7638
X5.8386Y-2.8819
X5.8937Y-1.937
X5.9094Y-5.185
X5.9291Y-2.8346
X5.9291Y-5.3465
X5.9567Y-2.0551
X5.9567Y-2.1732
X5.9567Y-2.2913
X5.9567Y-2.4094
X5.9567Y-2.5276
X5.9567Y-2.6457
X5.9567Y-2.7638
X5.9567Y-2.8819
X6.0039Y-4.937
X6.0118Y-5.0354
X6.0236Y-5.2096
X6.0276Y-1.7441
X6.0472Y-1.6063
X6.0472Y-2.9528
X6.0591Y-1.4724
X6.0669Y-1.3386
X6.0748Y-1.2126
X6.0748Y-2.1732
X6.0748Y-2.2913
X6.0748Y-2.4094
X6.0748Y-2.5276
X6.0748Y-2.6457
X6.0748Y-2.7638
X6.0748Y-2.8819
X6.0787Y-2.0551
X6.0827Y-5.2559
X6.0866Y-5.7087
X6.0906Y-4.7087
X6.1063Y-3.1772
T3
X3.0945Y-2.3888
X3.0945Y-2.5797
T4
X4.012Y-6.1048
X4.112Y-6.1048
X4.212Y-6.1048
T6
X2.9921Y-1.9291
X2.9921Y-2.0291
X2.9921Y-2.1291
X2.9921Y-2.2291
X3.6014Y-1.2598
X3.7014Y-1.2598
X3.8014Y-1.2598
X4.7244Y-1.5358
X4.7244Y-1.6358
X5.2549Y-1.2598
X5.3549Y-1.2598
X5.4549Y-1.2598
T7
X5.6594Y-5.7517
X5.6594Y-5.9044
T2
G00X3.0059Y-2.3425
M15
G01X2.9744Y-2.3425
M16
G05
G00X3.0059Y-2.626
M15
G01X2.9744Y-2.626
M16
G05
T5
G00X3.0229Y-2.7056
M15
G01X3.0466Y-2.7056
M16
G05
G00X3.0229Y-3.0466
M15
G01X3.0466Y-3.0466
M16
G05
G00X3.1836Y-2.7056
M15
G01X3.2151Y-2.7056
M16
G05
G00X3.1836Y-3.0466
M15
G01X3.2151Y-3.0466
M16
G05
M30
