%TF.GenerationSoftware,KiCad,Pcbnew,8.0.0*%
%TF.CreationDate,2024-05-06T00:15:53+08:00*%
%TF.ProjectId,pcb_badge,7063625f-6261-4646-9765-2e6b69636164,rev?*%
%TF.SameCoordinates,Original*%
%TF.FileFunction,Legend,Top*%
%TF.FilePolarity,Positive*%
%FSLAX46Y46*%
G04 Gerber Fmt 4.6, Leading zero omitted, Abs format (unit mm)*
G04 Created by KiCad (PCBNEW 8.0.0) date 2024-05-06 00:15:53*
%MOMM*%
%LPD*%
G01*
G04 APERTURE LIST*
G04 Aperture macros list*
%AMRoundRect*
0 Rectangle with rounded corners*
0 $1 Rounding radius*
0 $2 $3 $4 $5 $6 $7 $8 $9 X,Y pos of 4 corners*
0 Add a 4 corners polygon primitive as box body*
4,1,4,$2,$3,$4,$5,$6,$7,$8,$9,$2,$3,0*
0 Add four circle primitives for the rounded corners*
1,1,$1+$1,$2,$3*
1,1,$1+$1,$4,$5*
1,1,$1+$1,$6,$7*
1,1,$1+$1,$8,$9*
0 Add four rect primitives between the rounded corners*
20,1,$1+$1,$2,$3,$4,$5,0*
20,1,$1+$1,$4,$5,$6,$7,0*
20,1,$1+$1,$6,$7,$8,$9,0*
20,1,$1+$1,$8,$9,$2,$3,0*%
G04 Aperture macros list end*
%ADD10C,0.150000*%
%ADD11C,0.120000*%
%ADD12C,0.100000*%
%ADD13C,0.152400*%
%ADD14R,1.700000X1.700000*%
%ADD15O,1.700000X1.700000*%
%ADD16RoundRect,0.160000X-0.222500X-0.160000X0.222500X-0.160000X0.222500X0.160000X-0.222500X0.160000X0*%
%ADD17R,2.200000X2.500000*%
%ADD18R,2.200000X1.550000*%
%ADD19R,1.524000X0.762000*%
%ADD20R,0.700000X1.400000*%
%ADD21RoundRect,0.237500X-0.237500X0.300000X-0.237500X-0.300000X0.237500X-0.300000X0.237500X0.300000X0*%
%ADD22R,3.000000X3.000000*%
%ADD23C,3.000000*%
%ADD24RoundRect,0.237500X-0.237500X0.287500X-0.237500X-0.287500X0.237500X-0.287500X0.237500X0.287500X0*%
%ADD25RoundRect,0.160000X0.160000X-0.197500X0.160000X0.197500X-0.160000X0.197500X-0.160000X-0.197500X0*%
%ADD26RoundRect,0.160000X-0.160000X0.197500X-0.160000X-0.197500X0.160000X-0.197500X0.160000X0.197500X0*%
%ADD27C,0.750000*%
%ADD28O,2.000000X1.200000*%
%ADD29O,1.800000X1.200000*%
%ADD30O,2.344000X1.274000*%
%ADD31C,1.504000*%
G04 APERTURE END LIST*
D10*
X133466668Y-34054819D02*
X133466668Y-34769104D01*
X133466668Y-34769104D02*
X133419049Y-34911961D01*
X133419049Y-34911961D02*
X133323811Y-35007200D01*
X133323811Y-35007200D02*
X133180954Y-35054819D01*
X133180954Y-35054819D02*
X133085716Y-35054819D01*
X134419049Y-34054819D02*
X133942859Y-34054819D01*
X133942859Y-34054819D02*
X133895240Y-34531009D01*
X133895240Y-34531009D02*
X133942859Y-34483390D01*
X133942859Y-34483390D02*
X134038097Y-34435771D01*
X134038097Y-34435771D02*
X134276192Y-34435771D01*
X134276192Y-34435771D02*
X134371430Y-34483390D01*
X134371430Y-34483390D02*
X134419049Y-34531009D01*
X134419049Y-34531009D02*
X134466668Y-34626247D01*
X134466668Y-34626247D02*
X134466668Y-34864342D01*
X134466668Y-34864342D02*
X134419049Y-34959580D01*
X134419049Y-34959580D02*
X134371430Y-35007200D01*
X134371430Y-35007200D02*
X134276192Y-35054819D01*
X134276192Y-35054819D02*
X134038097Y-35054819D01*
X134038097Y-35054819D02*
X133942859Y-35007200D01*
X133942859Y-35007200D02*
X133895240Y-34959580D01*
X78659524Y-118404819D02*
X78659524Y-117404819D01*
X78659524Y-117404819D02*
X78897619Y-117404819D01*
X78897619Y-117404819D02*
X79040476Y-117452438D01*
X79040476Y-117452438D02*
X79135714Y-117547676D01*
X79135714Y-117547676D02*
X79183333Y-117642914D01*
X79183333Y-117642914D02*
X79230952Y-117833390D01*
X79230952Y-117833390D02*
X79230952Y-117976247D01*
X79230952Y-117976247D02*
X79183333Y-118166723D01*
X79183333Y-118166723D02*
X79135714Y-118261961D01*
X79135714Y-118261961D02*
X79040476Y-118357200D01*
X79040476Y-118357200D02*
X78897619Y-118404819D01*
X78897619Y-118404819D02*
X78659524Y-118404819D01*
X80183333Y-118404819D02*
X79611905Y-118404819D01*
X79897619Y-118404819D02*
X79897619Y-117404819D01*
X79897619Y-117404819D02*
X79802381Y-117547676D01*
X79802381Y-117547676D02*
X79707143Y-117642914D01*
X79707143Y-117642914D02*
X79611905Y-117690533D01*
X81040476Y-117404819D02*
X80850000Y-117404819D01*
X80850000Y-117404819D02*
X80754762Y-117452438D01*
X80754762Y-117452438D02*
X80707143Y-117500057D01*
X80707143Y-117500057D02*
X80611905Y-117642914D01*
X80611905Y-117642914D02*
X80564286Y-117833390D01*
X80564286Y-117833390D02*
X80564286Y-118214342D01*
X80564286Y-118214342D02*
X80611905Y-118309580D01*
X80611905Y-118309580D02*
X80659524Y-118357200D01*
X80659524Y-118357200D02*
X80754762Y-118404819D01*
X80754762Y-118404819D02*
X80945238Y-118404819D01*
X80945238Y-118404819D02*
X81040476Y-118357200D01*
X81040476Y-118357200D02*
X81088095Y-118309580D01*
X81088095Y-118309580D02*
X81135714Y-118214342D01*
X81135714Y-118214342D02*
X81135714Y-117976247D01*
X81135714Y-117976247D02*
X81088095Y-117881009D01*
X81088095Y-117881009D02*
X81040476Y-117833390D01*
X81040476Y-117833390D02*
X80945238Y-117785771D01*
X80945238Y-117785771D02*
X80754762Y-117785771D01*
X80754762Y-117785771D02*
X80659524Y-117833390D01*
X80659524Y-117833390D02*
X80611905Y-117881009D01*
X80611905Y-117881009D02*
X80564286Y-117976247D01*
X81754762Y-117404819D02*
X81850000Y-117404819D01*
X81850000Y-117404819D02*
X81945238Y-117452438D01*
X81945238Y-117452438D02*
X81992857Y-117500057D01*
X81992857Y-117500057D02*
X82040476Y-117595295D01*
X82040476Y-117595295D02*
X82088095Y-117785771D01*
X82088095Y-117785771D02*
X82088095Y-118023866D01*
X82088095Y-118023866D02*
X82040476Y-118214342D01*
X82040476Y-118214342D02*
X81992857Y-118309580D01*
X81992857Y-118309580D02*
X81945238Y-118357200D01*
X81945238Y-118357200D02*
X81850000Y-118404819D01*
X81850000Y-118404819D02*
X81754762Y-118404819D01*
X81754762Y-118404819D02*
X81659524Y-118357200D01*
X81659524Y-118357200D02*
X81611905Y-118309580D01*
X81611905Y-118309580D02*
X81564286Y-118214342D01*
X81564286Y-118214342D02*
X81516667Y-118023866D01*
X81516667Y-118023866D02*
X81516667Y-117785771D01*
X81516667Y-117785771D02*
X81564286Y-117595295D01*
X81564286Y-117595295D02*
X81611905Y-117500057D01*
X81611905Y-117500057D02*
X81659524Y-117452438D01*
X81659524Y-117452438D02*
X81754762Y-117404819D01*
X91166669Y-123407200D02*
X91309526Y-123454819D01*
X91309526Y-123454819D02*
X91547621Y-123454819D01*
X91547621Y-123454819D02*
X91642859Y-123407200D01*
X91642859Y-123407200D02*
X91690478Y-123359580D01*
X91690478Y-123359580D02*
X91738097Y-123264342D01*
X91738097Y-123264342D02*
X91738097Y-123169104D01*
X91738097Y-123169104D02*
X91690478Y-123073866D01*
X91690478Y-123073866D02*
X91642859Y-123026247D01*
X91642859Y-123026247D02*
X91547621Y-122978628D01*
X91547621Y-122978628D02*
X91357145Y-122931009D01*
X91357145Y-122931009D02*
X91261907Y-122883390D01*
X91261907Y-122883390D02*
X91214288Y-122835771D01*
X91214288Y-122835771D02*
X91166669Y-122740533D01*
X91166669Y-122740533D02*
X91166669Y-122645295D01*
X91166669Y-122645295D02*
X91214288Y-122550057D01*
X91214288Y-122550057D02*
X91261907Y-122502438D01*
X91261907Y-122502438D02*
X91357145Y-122454819D01*
X91357145Y-122454819D02*
X91595240Y-122454819D01*
X91595240Y-122454819D02*
X91738097Y-122502438D01*
X92071431Y-122454819D02*
X92309526Y-123454819D01*
X92309526Y-123454819D02*
X92500002Y-122740533D01*
X92500002Y-122740533D02*
X92690478Y-123454819D01*
X92690478Y-123454819D02*
X92928574Y-122454819D01*
X93214288Y-122454819D02*
X93833335Y-122454819D01*
X93833335Y-122454819D02*
X93500002Y-122835771D01*
X93500002Y-122835771D02*
X93642859Y-122835771D01*
X93642859Y-122835771D02*
X93738097Y-122883390D01*
X93738097Y-122883390D02*
X93785716Y-122931009D01*
X93785716Y-122931009D02*
X93833335Y-123026247D01*
X93833335Y-123026247D02*
X93833335Y-123264342D01*
X93833335Y-123264342D02*
X93785716Y-123359580D01*
X93785716Y-123359580D02*
X93738097Y-123407200D01*
X93738097Y-123407200D02*
X93642859Y-123454819D01*
X93642859Y-123454819D02*
X93357145Y-123454819D01*
X93357145Y-123454819D02*
X93261907Y-123407200D01*
X93261907Y-123407200D02*
X93214288Y-123359580D01*
X89148602Y-122299818D02*
X89148602Y-122537913D01*
X88910507Y-122442675D02*
X89148602Y-122537913D01*
X89148602Y-122537913D02*
X89386697Y-122442675D01*
X89005745Y-122728389D02*
X89148602Y-122537913D01*
X89148602Y-122537913D02*
X89291459Y-122728389D01*
X89148602Y-122299818D02*
X89148602Y-122537913D01*
X88910507Y-122442675D02*
X89148602Y-122537913D01*
X89148602Y-122537913D02*
X89386697Y-122442675D01*
X89005745Y-122728389D02*
X89148602Y-122537913D01*
X89148602Y-122537913D02*
X89291459Y-122728389D01*
X112954821Y-155761904D02*
X113764344Y-155761904D01*
X113764344Y-155761904D02*
X113859582Y-155714285D01*
X113859582Y-155714285D02*
X113907202Y-155666666D01*
X113907202Y-155666666D02*
X113954821Y-155571428D01*
X113954821Y-155571428D02*
X113954821Y-155380952D01*
X113954821Y-155380952D02*
X113907202Y-155285714D01*
X113907202Y-155285714D02*
X113859582Y-155238095D01*
X113859582Y-155238095D02*
X113764344Y-155190476D01*
X113764344Y-155190476D02*
X112954821Y-155190476D01*
X112954821Y-154285714D02*
X112954821Y-154476190D01*
X112954821Y-154476190D02*
X113002440Y-154571428D01*
X113002440Y-154571428D02*
X113050059Y-154619047D01*
X113050059Y-154619047D02*
X113192916Y-154714285D01*
X113192916Y-154714285D02*
X113383392Y-154761904D01*
X113383392Y-154761904D02*
X113764344Y-154761904D01*
X113764344Y-154761904D02*
X113859582Y-154714285D01*
X113859582Y-154714285D02*
X113907202Y-154666666D01*
X113907202Y-154666666D02*
X113954821Y-154571428D01*
X113954821Y-154571428D02*
X113954821Y-154380952D01*
X113954821Y-154380952D02*
X113907202Y-154285714D01*
X113907202Y-154285714D02*
X113859582Y-154238095D01*
X113859582Y-154238095D02*
X113764344Y-154190476D01*
X113764344Y-154190476D02*
X113526249Y-154190476D01*
X113526249Y-154190476D02*
X113431011Y-154238095D01*
X113431011Y-154238095D02*
X113383392Y-154285714D01*
X113383392Y-154285714D02*
X113335773Y-154380952D01*
X113335773Y-154380952D02*
X113335773Y-154571428D01*
X113335773Y-154571428D02*
X113383392Y-154666666D01*
X113383392Y-154666666D02*
X113431011Y-154714285D01*
X113431011Y-154714285D02*
X113526249Y-154761904D01*
X109983021Y-158499999D02*
X110221116Y-158499999D01*
X110125878Y-158738094D02*
X110221116Y-158499999D01*
X110221116Y-158499999D02*
X110125878Y-158261904D01*
X110411592Y-158642856D02*
X110221116Y-158499999D01*
X110221116Y-158499999D02*
X110411592Y-158357142D01*
X109983021Y-158499999D02*
X110221116Y-158499999D01*
X110125878Y-158738094D02*
X110221116Y-158499999D01*
X110221116Y-158499999D02*
X110125878Y-158261904D01*
X110411592Y-158642856D02*
X110221116Y-158499999D01*
X110221116Y-158499999D02*
X110411592Y-158357142D01*
X109859582Y-155942857D02*
X109907202Y-155990476D01*
X109907202Y-155990476D02*
X109954821Y-156133333D01*
X109954821Y-156133333D02*
X109954821Y-156228571D01*
X109954821Y-156228571D02*
X109907202Y-156371428D01*
X109907202Y-156371428D02*
X109811963Y-156466666D01*
X109811963Y-156466666D02*
X109716725Y-156514285D01*
X109716725Y-156514285D02*
X109526249Y-156561904D01*
X109526249Y-156561904D02*
X109383392Y-156561904D01*
X109383392Y-156561904D02*
X109192916Y-156514285D01*
X109192916Y-156514285D02*
X109097678Y-156466666D01*
X109097678Y-156466666D02*
X109002440Y-156371428D01*
X109002440Y-156371428D02*
X108954821Y-156228571D01*
X108954821Y-156228571D02*
X108954821Y-156133333D01*
X108954821Y-156133333D02*
X109002440Y-155990476D01*
X109002440Y-155990476D02*
X109050059Y-155942857D01*
X108954821Y-155085714D02*
X108954821Y-155276190D01*
X108954821Y-155276190D02*
X109002440Y-155371428D01*
X109002440Y-155371428D02*
X109050059Y-155419047D01*
X109050059Y-155419047D02*
X109192916Y-155514285D01*
X109192916Y-155514285D02*
X109383392Y-155561904D01*
X109383392Y-155561904D02*
X109764344Y-155561904D01*
X109764344Y-155561904D02*
X109859582Y-155514285D01*
X109859582Y-155514285D02*
X109907202Y-155466666D01*
X109907202Y-155466666D02*
X109954821Y-155371428D01*
X109954821Y-155371428D02*
X109954821Y-155180952D01*
X109954821Y-155180952D02*
X109907202Y-155085714D01*
X109907202Y-155085714D02*
X109859582Y-155038095D01*
X109859582Y-155038095D02*
X109764344Y-154990476D01*
X109764344Y-154990476D02*
X109526249Y-154990476D01*
X109526249Y-154990476D02*
X109431011Y-155038095D01*
X109431011Y-155038095D02*
X109383392Y-155085714D01*
X109383392Y-155085714D02*
X109335773Y-155180952D01*
X109335773Y-155180952D02*
X109335773Y-155371428D01*
X109335773Y-155371428D02*
X109383392Y-155466666D01*
X109383392Y-155466666D02*
X109431011Y-155514285D01*
X109431011Y-155514285D02*
X109526249Y-155561904D01*
X108954821Y-154371428D02*
X108954821Y-154276190D01*
X108954821Y-154276190D02*
X109002440Y-154180952D01*
X109002440Y-154180952D02*
X109050059Y-154133333D01*
X109050059Y-154133333D02*
X109145297Y-154085714D01*
X109145297Y-154085714D02*
X109335773Y-154038095D01*
X109335773Y-154038095D02*
X109573868Y-154038095D01*
X109573868Y-154038095D02*
X109764344Y-154085714D01*
X109764344Y-154085714D02*
X109859582Y-154133333D01*
X109859582Y-154133333D02*
X109907202Y-154180952D01*
X109907202Y-154180952D02*
X109954821Y-154276190D01*
X109954821Y-154276190D02*
X109954821Y-154371428D01*
X109954821Y-154371428D02*
X109907202Y-154466666D01*
X109907202Y-154466666D02*
X109859582Y-154514285D01*
X109859582Y-154514285D02*
X109764344Y-154561904D01*
X109764344Y-154561904D02*
X109573868Y-154609523D01*
X109573868Y-154609523D02*
X109335773Y-154609523D01*
X109335773Y-154609523D02*
X109145297Y-154561904D01*
X109145297Y-154561904D02*
X109050059Y-154514285D01*
X109050059Y-154514285D02*
X109002440Y-154466666D01*
X109002440Y-154466666D02*
X108954821Y-154371428D01*
X119666668Y-43334819D02*
X119666668Y-44049104D01*
X119666668Y-44049104D02*
X119619049Y-44191961D01*
X119619049Y-44191961D02*
X119523811Y-44287200D01*
X119523811Y-44287200D02*
X119380954Y-44334819D01*
X119380954Y-44334819D02*
X119285716Y-44334819D01*
X120047621Y-43334819D02*
X120714287Y-43334819D01*
X120714287Y-43334819D02*
X120285716Y-44334819D01*
X147454821Y-148333333D02*
X148169106Y-148333333D01*
X148169106Y-148333333D02*
X148311963Y-148380952D01*
X148311963Y-148380952D02*
X148407202Y-148476190D01*
X148407202Y-148476190D02*
X148454821Y-148619047D01*
X148454821Y-148619047D02*
X148454821Y-148714285D01*
X147550059Y-147904761D02*
X147502440Y-147857142D01*
X147502440Y-147857142D02*
X147454821Y-147761904D01*
X147454821Y-147761904D02*
X147454821Y-147523809D01*
X147454821Y-147523809D02*
X147502440Y-147428571D01*
X147502440Y-147428571D02*
X147550059Y-147380952D01*
X147550059Y-147380952D02*
X147645297Y-147333333D01*
X147645297Y-147333333D02*
X147740535Y-147333333D01*
X147740535Y-147333333D02*
X147883392Y-147380952D01*
X147883392Y-147380952D02*
X148454821Y-147952380D01*
X148454821Y-147952380D02*
X148454821Y-147333333D01*
X74361907Y-85054819D02*
X74361907Y-84054819D01*
X74361907Y-84054819D02*
X74600002Y-84054819D01*
X74600002Y-84054819D02*
X74742859Y-84102438D01*
X74742859Y-84102438D02*
X74838097Y-84197676D01*
X74838097Y-84197676D02*
X74885716Y-84292914D01*
X74885716Y-84292914D02*
X74933335Y-84483390D01*
X74933335Y-84483390D02*
X74933335Y-84626247D01*
X74933335Y-84626247D02*
X74885716Y-84816723D01*
X74885716Y-84816723D02*
X74838097Y-84911961D01*
X74838097Y-84911961D02*
X74742859Y-85007200D01*
X74742859Y-85007200D02*
X74600002Y-85054819D01*
X74600002Y-85054819D02*
X74361907Y-85054819D01*
X75266669Y-84054819D02*
X75885716Y-84054819D01*
X75885716Y-84054819D02*
X75552383Y-84435771D01*
X75552383Y-84435771D02*
X75695240Y-84435771D01*
X75695240Y-84435771D02*
X75790478Y-84483390D01*
X75790478Y-84483390D02*
X75838097Y-84531009D01*
X75838097Y-84531009D02*
X75885716Y-84626247D01*
X75885716Y-84626247D02*
X75885716Y-84864342D01*
X75885716Y-84864342D02*
X75838097Y-84959580D01*
X75838097Y-84959580D02*
X75790478Y-85007200D01*
X75790478Y-85007200D02*
X75695240Y-85054819D01*
X75695240Y-85054819D02*
X75409526Y-85054819D01*
X75409526Y-85054819D02*
X75314288Y-85007200D01*
X75314288Y-85007200D02*
X75266669Y-84959580D01*
X141166669Y-135407200D02*
X141309526Y-135454819D01*
X141309526Y-135454819D02*
X141547621Y-135454819D01*
X141547621Y-135454819D02*
X141642859Y-135407200D01*
X141642859Y-135407200D02*
X141690478Y-135359580D01*
X141690478Y-135359580D02*
X141738097Y-135264342D01*
X141738097Y-135264342D02*
X141738097Y-135169104D01*
X141738097Y-135169104D02*
X141690478Y-135073866D01*
X141690478Y-135073866D02*
X141642859Y-135026247D01*
X141642859Y-135026247D02*
X141547621Y-134978628D01*
X141547621Y-134978628D02*
X141357145Y-134931009D01*
X141357145Y-134931009D02*
X141261907Y-134883390D01*
X141261907Y-134883390D02*
X141214288Y-134835771D01*
X141214288Y-134835771D02*
X141166669Y-134740533D01*
X141166669Y-134740533D02*
X141166669Y-134645295D01*
X141166669Y-134645295D02*
X141214288Y-134550057D01*
X141214288Y-134550057D02*
X141261907Y-134502438D01*
X141261907Y-134502438D02*
X141357145Y-134454819D01*
X141357145Y-134454819D02*
X141595240Y-134454819D01*
X141595240Y-134454819D02*
X141738097Y-134502438D01*
X142071431Y-134454819D02*
X142309526Y-135454819D01*
X142309526Y-135454819D02*
X142500002Y-134740533D01*
X142500002Y-134740533D02*
X142690478Y-135454819D01*
X142690478Y-135454819D02*
X142928574Y-134454819D01*
X143738097Y-134454819D02*
X143547621Y-134454819D01*
X143547621Y-134454819D02*
X143452383Y-134502438D01*
X143452383Y-134502438D02*
X143404764Y-134550057D01*
X143404764Y-134550057D02*
X143309526Y-134692914D01*
X143309526Y-134692914D02*
X143261907Y-134883390D01*
X143261907Y-134883390D02*
X143261907Y-135264342D01*
X143261907Y-135264342D02*
X143309526Y-135359580D01*
X143309526Y-135359580D02*
X143357145Y-135407200D01*
X143357145Y-135407200D02*
X143452383Y-135454819D01*
X143452383Y-135454819D02*
X143642859Y-135454819D01*
X143642859Y-135454819D02*
X143738097Y-135407200D01*
X143738097Y-135407200D02*
X143785716Y-135359580D01*
X143785716Y-135359580D02*
X143833335Y-135264342D01*
X143833335Y-135264342D02*
X143833335Y-135026247D01*
X143833335Y-135026247D02*
X143785716Y-134931009D01*
X143785716Y-134931009D02*
X143738097Y-134883390D01*
X143738097Y-134883390D02*
X143642859Y-134835771D01*
X143642859Y-134835771D02*
X143452383Y-134835771D01*
X143452383Y-134835771D02*
X143357145Y-134883390D01*
X143357145Y-134883390D02*
X143309526Y-134931009D01*
X143309526Y-134931009D02*
X143261907Y-135026247D01*
X139148602Y-134299818D02*
X139148602Y-134537913D01*
X138910507Y-134442675D02*
X139148602Y-134537913D01*
X139148602Y-134537913D02*
X139386697Y-134442675D01*
X139005745Y-134728389D02*
X139148602Y-134537913D01*
X139148602Y-134537913D02*
X139291459Y-134728389D01*
X139148602Y-134299818D02*
X139148602Y-134537913D01*
X138910507Y-134442675D02*
X139148602Y-134537913D01*
X139148602Y-134537913D02*
X139386697Y-134442675D01*
X139005745Y-134728389D02*
X139148602Y-134537913D01*
X139148602Y-134537913D02*
X139291459Y-134728389D01*
X103166669Y-135407200D02*
X103309526Y-135454819D01*
X103309526Y-135454819D02*
X103547621Y-135454819D01*
X103547621Y-135454819D02*
X103642859Y-135407200D01*
X103642859Y-135407200D02*
X103690478Y-135359580D01*
X103690478Y-135359580D02*
X103738097Y-135264342D01*
X103738097Y-135264342D02*
X103738097Y-135169104D01*
X103738097Y-135169104D02*
X103690478Y-135073866D01*
X103690478Y-135073866D02*
X103642859Y-135026247D01*
X103642859Y-135026247D02*
X103547621Y-134978628D01*
X103547621Y-134978628D02*
X103357145Y-134931009D01*
X103357145Y-134931009D02*
X103261907Y-134883390D01*
X103261907Y-134883390D02*
X103214288Y-134835771D01*
X103214288Y-134835771D02*
X103166669Y-134740533D01*
X103166669Y-134740533D02*
X103166669Y-134645295D01*
X103166669Y-134645295D02*
X103214288Y-134550057D01*
X103214288Y-134550057D02*
X103261907Y-134502438D01*
X103261907Y-134502438D02*
X103357145Y-134454819D01*
X103357145Y-134454819D02*
X103595240Y-134454819D01*
X103595240Y-134454819D02*
X103738097Y-134502438D01*
X104071431Y-134454819D02*
X104309526Y-135454819D01*
X104309526Y-135454819D02*
X104500002Y-134740533D01*
X104500002Y-134740533D02*
X104690478Y-135454819D01*
X104690478Y-135454819D02*
X104928574Y-134454819D01*
X105833335Y-135454819D02*
X105261907Y-135454819D01*
X105547621Y-135454819D02*
X105547621Y-134454819D01*
X105547621Y-134454819D02*
X105452383Y-134597676D01*
X105452383Y-134597676D02*
X105357145Y-134692914D01*
X105357145Y-134692914D02*
X105261907Y-134740533D01*
X101148602Y-134299818D02*
X101148602Y-134537913D01*
X100910507Y-134442675D02*
X101148602Y-134537913D01*
X101148602Y-134537913D02*
X101386697Y-134442675D01*
X101005745Y-134728389D02*
X101148602Y-134537913D01*
X101148602Y-134537913D02*
X101291459Y-134728389D01*
X101148602Y-134299818D02*
X101148602Y-134537913D01*
X100910507Y-134442675D02*
X101148602Y-134537913D01*
X101148602Y-134537913D02*
X101386697Y-134442675D01*
X101005745Y-134728389D02*
X101148602Y-134537913D01*
X101148602Y-134537913D02*
X101291459Y-134728389D01*
X129166669Y-147407200D02*
X129309526Y-147454819D01*
X129309526Y-147454819D02*
X129547621Y-147454819D01*
X129547621Y-147454819D02*
X129642859Y-147407200D01*
X129642859Y-147407200D02*
X129690478Y-147359580D01*
X129690478Y-147359580D02*
X129738097Y-147264342D01*
X129738097Y-147264342D02*
X129738097Y-147169104D01*
X129738097Y-147169104D02*
X129690478Y-147073866D01*
X129690478Y-147073866D02*
X129642859Y-147026247D01*
X129642859Y-147026247D02*
X129547621Y-146978628D01*
X129547621Y-146978628D02*
X129357145Y-146931009D01*
X129357145Y-146931009D02*
X129261907Y-146883390D01*
X129261907Y-146883390D02*
X129214288Y-146835771D01*
X129214288Y-146835771D02*
X129166669Y-146740533D01*
X129166669Y-146740533D02*
X129166669Y-146645295D01*
X129166669Y-146645295D02*
X129214288Y-146550057D01*
X129214288Y-146550057D02*
X129261907Y-146502438D01*
X129261907Y-146502438D02*
X129357145Y-146454819D01*
X129357145Y-146454819D02*
X129595240Y-146454819D01*
X129595240Y-146454819D02*
X129738097Y-146502438D01*
X130071431Y-146454819D02*
X130309526Y-147454819D01*
X130309526Y-147454819D02*
X130500002Y-146740533D01*
X130500002Y-146740533D02*
X130690478Y-147454819D01*
X130690478Y-147454819D02*
X130928574Y-146454819D01*
X131261907Y-146550057D02*
X131309526Y-146502438D01*
X131309526Y-146502438D02*
X131404764Y-146454819D01*
X131404764Y-146454819D02*
X131642859Y-146454819D01*
X131642859Y-146454819D02*
X131738097Y-146502438D01*
X131738097Y-146502438D02*
X131785716Y-146550057D01*
X131785716Y-146550057D02*
X131833335Y-146645295D01*
X131833335Y-146645295D02*
X131833335Y-146740533D01*
X131833335Y-146740533D02*
X131785716Y-146883390D01*
X131785716Y-146883390D02*
X131214288Y-147454819D01*
X131214288Y-147454819D02*
X131833335Y-147454819D01*
X127148602Y-146299818D02*
X127148602Y-146537913D01*
X126910507Y-146442675D02*
X127148602Y-146537913D01*
X127148602Y-146537913D02*
X127386697Y-146442675D01*
X127005745Y-146728389D02*
X127148602Y-146537913D01*
X127148602Y-146537913D02*
X127291459Y-146728389D01*
X127148602Y-146299818D02*
X127148602Y-146537913D01*
X126910507Y-146442675D02*
X127148602Y-146537913D01*
X127148602Y-146537913D02*
X127386697Y-146442675D01*
X127005745Y-146728389D02*
X127148602Y-146537913D01*
X127148602Y-146537913D02*
X127291459Y-146728389D01*
X146959527Y-118404818D02*
X146959527Y-117404818D01*
X146959527Y-117404818D02*
X147197622Y-117404818D01*
X147197622Y-117404818D02*
X147340479Y-117452437D01*
X147340479Y-117452437D02*
X147435717Y-117547675D01*
X147435717Y-117547675D02*
X147483336Y-117642913D01*
X147483336Y-117642913D02*
X147530955Y-117833389D01*
X147530955Y-117833389D02*
X147530955Y-117976246D01*
X147530955Y-117976246D02*
X147483336Y-118166722D01*
X147483336Y-118166722D02*
X147435717Y-118261960D01*
X147435717Y-118261960D02*
X147340479Y-118357199D01*
X147340479Y-118357199D02*
X147197622Y-118404818D01*
X147197622Y-118404818D02*
X146959527Y-118404818D01*
X148483336Y-118404818D02*
X147911908Y-118404818D01*
X148197622Y-118404818D02*
X148197622Y-117404818D01*
X148197622Y-117404818D02*
X148102384Y-117547675D01*
X148102384Y-117547675D02*
X148007146Y-117642913D01*
X148007146Y-117642913D02*
X147911908Y-117690532D01*
X149340479Y-117404818D02*
X149150003Y-117404818D01*
X149150003Y-117404818D02*
X149054765Y-117452437D01*
X149054765Y-117452437D02*
X149007146Y-117500056D01*
X149007146Y-117500056D02*
X148911908Y-117642913D01*
X148911908Y-117642913D02*
X148864289Y-117833389D01*
X148864289Y-117833389D02*
X148864289Y-118214341D01*
X148864289Y-118214341D02*
X148911908Y-118309579D01*
X148911908Y-118309579D02*
X148959527Y-118357199D01*
X148959527Y-118357199D02*
X149054765Y-118404818D01*
X149054765Y-118404818D02*
X149245241Y-118404818D01*
X149245241Y-118404818D02*
X149340479Y-118357199D01*
X149340479Y-118357199D02*
X149388098Y-118309579D01*
X149388098Y-118309579D02*
X149435717Y-118214341D01*
X149435717Y-118214341D02*
X149435717Y-117976246D01*
X149435717Y-117976246D02*
X149388098Y-117881008D01*
X149388098Y-117881008D02*
X149340479Y-117833389D01*
X149340479Y-117833389D02*
X149245241Y-117785770D01*
X149245241Y-117785770D02*
X149054765Y-117785770D01*
X149054765Y-117785770D02*
X148959527Y-117833389D01*
X148959527Y-117833389D02*
X148911908Y-117881008D01*
X148911908Y-117881008D02*
X148864289Y-117976246D01*
X150388098Y-118404818D02*
X149816670Y-118404818D01*
X150102384Y-118404818D02*
X150102384Y-117404818D01*
X150102384Y-117404818D02*
X150007146Y-117547675D01*
X150007146Y-117547675D02*
X149911908Y-117642913D01*
X149911908Y-117642913D02*
X149816670Y-117690532D01*
X88599821Y-32333333D02*
X89314106Y-32333333D01*
X89314106Y-32333333D02*
X89456963Y-32380952D01*
X89456963Y-32380952D02*
X89552202Y-32476190D01*
X89552202Y-32476190D02*
X89599821Y-32619047D01*
X89599821Y-32619047D02*
X89599821Y-32714285D01*
X88933154Y-31428571D02*
X89599821Y-31428571D01*
X88552202Y-31666666D02*
X89266487Y-31904761D01*
X89266487Y-31904761D02*
X89266487Y-31285714D01*
X129166669Y-123407200D02*
X129309526Y-123454819D01*
X129309526Y-123454819D02*
X129547621Y-123454819D01*
X129547621Y-123454819D02*
X129642859Y-123407200D01*
X129642859Y-123407200D02*
X129690478Y-123359580D01*
X129690478Y-123359580D02*
X129738097Y-123264342D01*
X129738097Y-123264342D02*
X129738097Y-123169104D01*
X129738097Y-123169104D02*
X129690478Y-123073866D01*
X129690478Y-123073866D02*
X129642859Y-123026247D01*
X129642859Y-123026247D02*
X129547621Y-122978628D01*
X129547621Y-122978628D02*
X129357145Y-122931009D01*
X129357145Y-122931009D02*
X129261907Y-122883390D01*
X129261907Y-122883390D02*
X129214288Y-122835771D01*
X129214288Y-122835771D02*
X129166669Y-122740533D01*
X129166669Y-122740533D02*
X129166669Y-122645295D01*
X129166669Y-122645295D02*
X129214288Y-122550057D01*
X129214288Y-122550057D02*
X129261907Y-122502438D01*
X129261907Y-122502438D02*
X129357145Y-122454819D01*
X129357145Y-122454819D02*
X129595240Y-122454819D01*
X129595240Y-122454819D02*
X129738097Y-122502438D01*
X130071431Y-122454819D02*
X130309526Y-123454819D01*
X130309526Y-123454819D02*
X130500002Y-122740533D01*
X130500002Y-122740533D02*
X130690478Y-123454819D01*
X130690478Y-123454819D02*
X130928574Y-122454819D01*
X131452383Y-122883390D02*
X131357145Y-122835771D01*
X131357145Y-122835771D02*
X131309526Y-122788152D01*
X131309526Y-122788152D02*
X131261907Y-122692914D01*
X131261907Y-122692914D02*
X131261907Y-122645295D01*
X131261907Y-122645295D02*
X131309526Y-122550057D01*
X131309526Y-122550057D02*
X131357145Y-122502438D01*
X131357145Y-122502438D02*
X131452383Y-122454819D01*
X131452383Y-122454819D02*
X131642859Y-122454819D01*
X131642859Y-122454819D02*
X131738097Y-122502438D01*
X131738097Y-122502438D02*
X131785716Y-122550057D01*
X131785716Y-122550057D02*
X131833335Y-122645295D01*
X131833335Y-122645295D02*
X131833335Y-122692914D01*
X131833335Y-122692914D02*
X131785716Y-122788152D01*
X131785716Y-122788152D02*
X131738097Y-122835771D01*
X131738097Y-122835771D02*
X131642859Y-122883390D01*
X131642859Y-122883390D02*
X131452383Y-122883390D01*
X131452383Y-122883390D02*
X131357145Y-122931009D01*
X131357145Y-122931009D02*
X131309526Y-122978628D01*
X131309526Y-122978628D02*
X131261907Y-123073866D01*
X131261907Y-123073866D02*
X131261907Y-123264342D01*
X131261907Y-123264342D02*
X131309526Y-123359580D01*
X131309526Y-123359580D02*
X131357145Y-123407200D01*
X131357145Y-123407200D02*
X131452383Y-123454819D01*
X131452383Y-123454819D02*
X131642859Y-123454819D01*
X131642859Y-123454819D02*
X131738097Y-123407200D01*
X131738097Y-123407200D02*
X131785716Y-123359580D01*
X131785716Y-123359580D02*
X131833335Y-123264342D01*
X131833335Y-123264342D02*
X131833335Y-123073866D01*
X131833335Y-123073866D02*
X131785716Y-122978628D01*
X131785716Y-122978628D02*
X131738097Y-122931009D01*
X131738097Y-122931009D02*
X131642859Y-122883390D01*
X127148602Y-122299818D02*
X127148602Y-122537913D01*
X126910507Y-122442675D02*
X127148602Y-122537913D01*
X127148602Y-122537913D02*
X127386697Y-122442675D01*
X127005745Y-122728389D02*
X127148602Y-122537913D01*
X127148602Y-122537913D02*
X127291459Y-122728389D01*
X127148602Y-122299818D02*
X127148602Y-122537913D01*
X126910507Y-122442675D02*
X127148602Y-122537913D01*
X127148602Y-122537913D02*
X127386697Y-122442675D01*
X127005745Y-122728389D02*
X127148602Y-122537913D01*
X127148602Y-122537913D02*
X127291459Y-122728389D01*
X129166669Y-135407200D02*
X129309526Y-135454819D01*
X129309526Y-135454819D02*
X129547621Y-135454819D01*
X129547621Y-135454819D02*
X129642859Y-135407200D01*
X129642859Y-135407200D02*
X129690478Y-135359580D01*
X129690478Y-135359580D02*
X129738097Y-135264342D01*
X129738097Y-135264342D02*
X129738097Y-135169104D01*
X129738097Y-135169104D02*
X129690478Y-135073866D01*
X129690478Y-135073866D02*
X129642859Y-135026247D01*
X129642859Y-135026247D02*
X129547621Y-134978628D01*
X129547621Y-134978628D02*
X129357145Y-134931009D01*
X129357145Y-134931009D02*
X129261907Y-134883390D01*
X129261907Y-134883390D02*
X129214288Y-134835771D01*
X129214288Y-134835771D02*
X129166669Y-134740533D01*
X129166669Y-134740533D02*
X129166669Y-134645295D01*
X129166669Y-134645295D02*
X129214288Y-134550057D01*
X129214288Y-134550057D02*
X129261907Y-134502438D01*
X129261907Y-134502438D02*
X129357145Y-134454819D01*
X129357145Y-134454819D02*
X129595240Y-134454819D01*
X129595240Y-134454819D02*
X129738097Y-134502438D01*
X130071431Y-134454819D02*
X130309526Y-135454819D01*
X130309526Y-135454819D02*
X130500002Y-134740533D01*
X130500002Y-134740533D02*
X130690478Y-135454819D01*
X130690478Y-135454819D02*
X130928574Y-134454819D01*
X131785716Y-134454819D02*
X131309526Y-134454819D01*
X131309526Y-134454819D02*
X131261907Y-134931009D01*
X131261907Y-134931009D02*
X131309526Y-134883390D01*
X131309526Y-134883390D02*
X131404764Y-134835771D01*
X131404764Y-134835771D02*
X131642859Y-134835771D01*
X131642859Y-134835771D02*
X131738097Y-134883390D01*
X131738097Y-134883390D02*
X131785716Y-134931009D01*
X131785716Y-134931009D02*
X131833335Y-135026247D01*
X131833335Y-135026247D02*
X131833335Y-135264342D01*
X131833335Y-135264342D02*
X131785716Y-135359580D01*
X131785716Y-135359580D02*
X131738097Y-135407200D01*
X131738097Y-135407200D02*
X131642859Y-135454819D01*
X131642859Y-135454819D02*
X131404764Y-135454819D01*
X131404764Y-135454819D02*
X131309526Y-135407200D01*
X131309526Y-135407200D02*
X131261907Y-135359580D01*
X127148602Y-134299818D02*
X127148602Y-134537913D01*
X126910507Y-134442675D02*
X127148602Y-134537913D01*
X127148602Y-134537913D02*
X127386697Y-134442675D01*
X127005745Y-134728389D02*
X127148602Y-134537913D01*
X127148602Y-134537913D02*
X127291459Y-134728389D01*
X127148602Y-134299818D02*
X127148602Y-134537913D01*
X126910507Y-134442675D02*
X127148602Y-134537913D01*
X127148602Y-134537913D02*
X127386697Y-134442675D01*
X127005745Y-134728389D02*
X127148602Y-134537913D01*
X127148602Y-134537913D02*
X127291459Y-134728389D01*
X117361469Y-135407200D02*
X117504326Y-135454819D01*
X117504326Y-135454819D02*
X117742421Y-135454819D01*
X117742421Y-135454819D02*
X117837659Y-135407200D01*
X117837659Y-135407200D02*
X117885278Y-135359580D01*
X117885278Y-135359580D02*
X117932897Y-135264342D01*
X117932897Y-135264342D02*
X117932897Y-135169104D01*
X117932897Y-135169104D02*
X117885278Y-135073866D01*
X117885278Y-135073866D02*
X117837659Y-135026247D01*
X117837659Y-135026247D02*
X117742421Y-134978628D01*
X117742421Y-134978628D02*
X117551945Y-134931009D01*
X117551945Y-134931009D02*
X117456707Y-134883390D01*
X117456707Y-134883390D02*
X117409088Y-134835771D01*
X117409088Y-134835771D02*
X117361469Y-134740533D01*
X117361469Y-134740533D02*
X117361469Y-134645295D01*
X117361469Y-134645295D02*
X117409088Y-134550057D01*
X117409088Y-134550057D02*
X117456707Y-134502438D01*
X117456707Y-134502438D02*
X117551945Y-134454819D01*
X117551945Y-134454819D02*
X117790040Y-134454819D01*
X117790040Y-134454819D02*
X117932897Y-134502438D01*
X118266231Y-134454819D02*
X118504326Y-135454819D01*
X118504326Y-135454819D02*
X118694802Y-134740533D01*
X118694802Y-134740533D02*
X118885278Y-135454819D01*
X118885278Y-135454819D02*
X119123374Y-134454819D01*
X119932897Y-134788152D02*
X119932897Y-135454819D01*
X119694802Y-134407200D02*
X119456707Y-135121485D01*
X119456707Y-135121485D02*
X120075754Y-135121485D01*
X115148602Y-134299818D02*
X115148602Y-134537913D01*
X114910507Y-134442675D02*
X115148602Y-134537913D01*
X115148602Y-134537913D02*
X115386697Y-134442675D01*
X115005745Y-134728389D02*
X115148602Y-134537913D01*
X115148602Y-134537913D02*
X115291459Y-134728389D01*
X115148602Y-134299818D02*
X115148602Y-134537913D01*
X114910507Y-134442675D02*
X115148602Y-134537913D01*
X115148602Y-134537913D02*
X115386697Y-134442675D01*
X115005745Y-134728389D02*
X115148602Y-134537913D01*
X115148602Y-134537913D02*
X115291459Y-134728389D01*
X119854821Y-154442857D02*
X119378630Y-154776190D01*
X119854821Y-155014285D02*
X118854821Y-155014285D01*
X118854821Y-155014285D02*
X118854821Y-154633333D01*
X118854821Y-154633333D02*
X118902440Y-154538095D01*
X118902440Y-154538095D02*
X118950059Y-154490476D01*
X118950059Y-154490476D02*
X119045297Y-154442857D01*
X119045297Y-154442857D02*
X119188154Y-154442857D01*
X119188154Y-154442857D02*
X119283392Y-154490476D01*
X119283392Y-154490476D02*
X119331011Y-154538095D01*
X119331011Y-154538095D02*
X119378630Y-154633333D01*
X119378630Y-154633333D02*
X119378630Y-155014285D01*
X118854821Y-153585714D02*
X118854821Y-153776190D01*
X118854821Y-153776190D02*
X118902440Y-153871428D01*
X118902440Y-153871428D02*
X118950059Y-153919047D01*
X118950059Y-153919047D02*
X119092916Y-154014285D01*
X119092916Y-154014285D02*
X119283392Y-154061904D01*
X119283392Y-154061904D02*
X119664344Y-154061904D01*
X119664344Y-154061904D02*
X119759582Y-154014285D01*
X119759582Y-154014285D02*
X119807202Y-153966666D01*
X119807202Y-153966666D02*
X119854821Y-153871428D01*
X119854821Y-153871428D02*
X119854821Y-153680952D01*
X119854821Y-153680952D02*
X119807202Y-153585714D01*
X119807202Y-153585714D02*
X119759582Y-153538095D01*
X119759582Y-153538095D02*
X119664344Y-153490476D01*
X119664344Y-153490476D02*
X119426249Y-153490476D01*
X119426249Y-153490476D02*
X119331011Y-153538095D01*
X119331011Y-153538095D02*
X119283392Y-153585714D01*
X119283392Y-153585714D02*
X119235773Y-153680952D01*
X119235773Y-153680952D02*
X119235773Y-153871428D01*
X119235773Y-153871428D02*
X119283392Y-153966666D01*
X119283392Y-153966666D02*
X119331011Y-154014285D01*
X119331011Y-154014285D02*
X119426249Y-154061904D01*
X119854821Y-152538095D02*
X119854821Y-153109523D01*
X119854821Y-152823809D02*
X118854821Y-152823809D01*
X118854821Y-152823809D02*
X118997678Y-152919047D01*
X118997678Y-152919047D02*
X119092916Y-153014285D01*
X119092916Y-153014285D02*
X119140535Y-153109523D01*
X75666668Y-46124819D02*
X75666668Y-46839104D01*
X75666668Y-46839104D02*
X75619049Y-46981961D01*
X75619049Y-46981961D02*
X75523811Y-47077200D01*
X75523811Y-47077200D02*
X75380954Y-47124819D01*
X75380954Y-47124819D02*
X75285716Y-47124819D01*
X76047621Y-46124819D02*
X76666668Y-46124819D01*
X76666668Y-46124819D02*
X76333335Y-46505771D01*
X76333335Y-46505771D02*
X76476192Y-46505771D01*
X76476192Y-46505771D02*
X76571430Y-46553390D01*
X76571430Y-46553390D02*
X76619049Y-46601009D01*
X76619049Y-46601009D02*
X76666668Y-46696247D01*
X76666668Y-46696247D02*
X76666668Y-46934342D01*
X76666668Y-46934342D02*
X76619049Y-47029580D01*
X76619049Y-47029580D02*
X76571430Y-47077200D01*
X76571430Y-47077200D02*
X76476192Y-47124819D01*
X76476192Y-47124819D02*
X76190478Y-47124819D01*
X76190478Y-47124819D02*
X76095240Y-47077200D01*
X76095240Y-47077200D02*
X76047621Y-47029580D01*
X77907144Y-82454819D02*
X77573811Y-81978628D01*
X77335716Y-82454819D02*
X77335716Y-81454819D01*
X77335716Y-81454819D02*
X77716668Y-81454819D01*
X77716668Y-81454819D02*
X77811906Y-81502438D01*
X77811906Y-81502438D02*
X77859525Y-81550057D01*
X77859525Y-81550057D02*
X77907144Y-81645295D01*
X77907144Y-81645295D02*
X77907144Y-81788152D01*
X77907144Y-81788152D02*
X77859525Y-81883390D01*
X77859525Y-81883390D02*
X77811906Y-81931009D01*
X77811906Y-81931009D02*
X77716668Y-81978628D01*
X77716668Y-81978628D02*
X77335716Y-81978628D01*
X78288097Y-81550057D02*
X78335716Y-81502438D01*
X78335716Y-81502438D02*
X78430954Y-81454819D01*
X78430954Y-81454819D02*
X78669049Y-81454819D01*
X78669049Y-81454819D02*
X78764287Y-81502438D01*
X78764287Y-81502438D02*
X78811906Y-81550057D01*
X78811906Y-81550057D02*
X78859525Y-81645295D01*
X78859525Y-81645295D02*
X78859525Y-81740533D01*
X78859525Y-81740533D02*
X78811906Y-81883390D01*
X78811906Y-81883390D02*
X78240478Y-82454819D01*
X78240478Y-82454819D02*
X78859525Y-82454819D01*
X79335716Y-82454819D02*
X79526192Y-82454819D01*
X79526192Y-82454819D02*
X79621430Y-82407200D01*
X79621430Y-82407200D02*
X79669049Y-82359580D01*
X79669049Y-82359580D02*
X79764287Y-82216723D01*
X79764287Y-82216723D02*
X79811906Y-82026247D01*
X79811906Y-82026247D02*
X79811906Y-81645295D01*
X79811906Y-81645295D02*
X79764287Y-81550057D01*
X79764287Y-81550057D02*
X79716668Y-81502438D01*
X79716668Y-81502438D02*
X79621430Y-81454819D01*
X79621430Y-81454819D02*
X79430954Y-81454819D01*
X79430954Y-81454819D02*
X79335716Y-81502438D01*
X79335716Y-81502438D02*
X79288097Y-81550057D01*
X79288097Y-81550057D02*
X79240478Y-81645295D01*
X79240478Y-81645295D02*
X79240478Y-81883390D01*
X79240478Y-81883390D02*
X79288097Y-81978628D01*
X79288097Y-81978628D02*
X79335716Y-82026247D01*
X79335716Y-82026247D02*
X79430954Y-82073866D01*
X79430954Y-82073866D02*
X79621430Y-82073866D01*
X79621430Y-82073866D02*
X79716668Y-82026247D01*
X79716668Y-82026247D02*
X79764287Y-81978628D01*
X79764287Y-81978628D02*
X79811906Y-81883390D01*
X117166669Y-123407200D02*
X117309526Y-123454819D01*
X117309526Y-123454819D02*
X117547621Y-123454819D01*
X117547621Y-123454819D02*
X117642859Y-123407200D01*
X117642859Y-123407200D02*
X117690478Y-123359580D01*
X117690478Y-123359580D02*
X117738097Y-123264342D01*
X117738097Y-123264342D02*
X117738097Y-123169104D01*
X117738097Y-123169104D02*
X117690478Y-123073866D01*
X117690478Y-123073866D02*
X117642859Y-123026247D01*
X117642859Y-123026247D02*
X117547621Y-122978628D01*
X117547621Y-122978628D02*
X117357145Y-122931009D01*
X117357145Y-122931009D02*
X117261907Y-122883390D01*
X117261907Y-122883390D02*
X117214288Y-122835771D01*
X117214288Y-122835771D02*
X117166669Y-122740533D01*
X117166669Y-122740533D02*
X117166669Y-122645295D01*
X117166669Y-122645295D02*
X117214288Y-122550057D01*
X117214288Y-122550057D02*
X117261907Y-122502438D01*
X117261907Y-122502438D02*
X117357145Y-122454819D01*
X117357145Y-122454819D02*
X117595240Y-122454819D01*
X117595240Y-122454819D02*
X117738097Y-122502438D01*
X118071431Y-122454819D02*
X118309526Y-123454819D01*
X118309526Y-123454819D02*
X118500002Y-122740533D01*
X118500002Y-122740533D02*
X118690478Y-123454819D01*
X118690478Y-123454819D02*
X118928574Y-122454819D01*
X119214288Y-122454819D02*
X119880954Y-122454819D01*
X119880954Y-122454819D02*
X119452383Y-123454819D01*
X115148602Y-122299818D02*
X115148602Y-122537913D01*
X114910507Y-122442675D02*
X115148602Y-122537913D01*
X115148602Y-122537913D02*
X115386697Y-122442675D01*
X115005745Y-122728389D02*
X115148602Y-122537913D01*
X115148602Y-122537913D02*
X115291459Y-122728389D01*
X115148602Y-122299818D02*
X115148602Y-122537913D01*
X114910507Y-122442675D02*
X115148602Y-122537913D01*
X115148602Y-122537913D02*
X115386697Y-122442675D01*
X115005745Y-122728389D02*
X115148602Y-122537913D01*
X115148602Y-122537913D02*
X115291459Y-122728389D01*
D11*
%TO.C,J5*%
X132145002Y-33330000D02*
X132145002Y-32000000D01*
X133475002Y-33330000D02*
X132145002Y-33330000D01*
X134745002Y-30670000D02*
X139885002Y-30670000D01*
X134745002Y-33330000D02*
X134745002Y-30670000D01*
X134745002Y-33330000D02*
X139885002Y-33330000D01*
X139885002Y-33330000D02*
X139885002Y-30670000D01*
D12*
%TO.C,D112*%
X113785002Y-62000000D02*
G75*
G02*
X113685002Y-62000000I-50000J0D01*
G01*
X113685002Y-62000000D02*
G75*
G02*
X113785002Y-62000000I50000J0D01*
G01*
%TO.C,D21*%
X134785002Y-59000000D02*
G75*
G02*
X134685002Y-59000000I-50000J0D01*
G01*
X134685002Y-59000000D02*
G75*
G02*
X134785002Y-59000000I50000J0D01*
G01*
%TO.C,D22*%
X137785002Y-59000000D02*
G75*
G02*
X137685002Y-59000000I-50000J0D01*
G01*
X137685002Y-59000000D02*
G75*
G02*
X137785002Y-59000000I50000J0D01*
G01*
%TO.C,D124*%
X119785002Y-65000000D02*
G75*
G02*
X119685002Y-65000000I-50000J0D01*
G01*
X119685002Y-65000000D02*
G75*
G02*
X119785002Y-65000000I50000J0D01*
G01*
D11*
%TO.C,D160*%
X78600000Y-119900000D02*
X78600000Y-123800000D01*
X78600000Y-123800000D02*
X81800000Y-123800000D01*
X81800000Y-119900000D02*
X81800000Y-123800000D01*
D12*
%TO.C,D157*%
X128785002Y-74000000D02*
G75*
G02*
X128685002Y-74000000I-50000J0D01*
G01*
X128685002Y-74000000D02*
G75*
G02*
X128785002Y-74000000I50000J0D01*
G01*
%TO.C,D143*%
X116785002Y-71000000D02*
G75*
G02*
X116685002Y-71000000I-50000J0D01*
G01*
X116685002Y-71000000D02*
G75*
G02*
X116785002Y-71000000I50000J0D01*
G01*
%TO.C,D55*%
X146785002Y-68000000D02*
G75*
G02*
X146685002Y-68000000I-50000J0D01*
G01*
X146685002Y-68000000D02*
G75*
G02*
X146785002Y-68000000I50000J0D01*
G01*
D13*
%TO.C,SW3*%
X90875802Y-123875800D02*
X90875802Y-130124200D01*
X90875802Y-130124200D02*
X97124202Y-130124200D01*
X97124202Y-123875800D02*
X90875802Y-123875800D01*
X97124202Y-130124200D02*
X97124202Y-123875800D01*
D12*
%TO.C,D147*%
X128785002Y-71000000D02*
G75*
G02*
X128685002Y-71000000I-50000J0D01*
G01*
X128685002Y-71000000D02*
G75*
G02*
X128785002Y-71000000I50000J0D01*
G01*
%TO.C,D96*%
X125785002Y-56000000D02*
G75*
G02*
X125685002Y-56000000I-50000J0D01*
G01*
X125685002Y-56000000D02*
G75*
G02*
X125785002Y-56000000I50000J0D01*
G01*
%TO.C,D33*%
X140785002Y-62000000D02*
G75*
G02*
X140685002Y-62000000I-50000J0D01*
G01*
X140685002Y-62000000D02*
G75*
G02*
X140785002Y-62000000I50000J0D01*
G01*
%TO.C,D104*%
X119785002Y-59000000D02*
G75*
G02*
X119685002Y-59000000I-50000J0D01*
G01*
X119685002Y-59000000D02*
G75*
G02*
X119785002Y-59000000I50000J0D01*
G01*
%TO.C,D150*%
X107785002Y-74000000D02*
G75*
G02*
X107685002Y-74000000I-50000J0D01*
G01*
X107685002Y-74000000D02*
G75*
G02*
X107785002Y-74000000I50000J0D01*
G01*
%TO.C,D152*%
X113785002Y-74000000D02*
G75*
G02*
X113685002Y-74000000I-50000J0D01*
G01*
X113685002Y-74000000D02*
G75*
G02*
X113785002Y-74000000I50000J0D01*
G01*
%TO.C,D51*%
X134785002Y-68000000D02*
G75*
G02*
X134685002Y-68000000I-50000J0D01*
G01*
X134685002Y-68000000D02*
G75*
G02*
X134785002Y-68000000I50000J0D01*
G01*
%TO.C,D71*%
X134785002Y-74000000D02*
G75*
G02*
X134685002Y-74000000I-50000J0D01*
G01*
X134685002Y-74000000D02*
G75*
G02*
X134785002Y-74000000I50000J0D01*
G01*
%TO.C,D113*%
X116785002Y-62000000D02*
G75*
G02*
X116685002Y-62000000I-50000J0D01*
G01*
X116685002Y-62000000D02*
G75*
G02*
X116785002Y-62000000I50000J0D01*
G01*
%TO.C,D77*%
X152785002Y-74000000D02*
G75*
G02*
X152685002Y-74000000I-50000J0D01*
G01*
X152685002Y-74000000D02*
G75*
G02*
X152785002Y-74000000I50000J0D01*
G01*
%TO.C,D43*%
X140785002Y-65000000D02*
G75*
G02*
X140685002Y-65000000I-50000J0D01*
G01*
X140685002Y-65000000D02*
G75*
G02*
X140785002Y-65000000I50000J0D01*
G01*
%TO.C,D153*%
X116785002Y-74000000D02*
G75*
G02*
X116685002Y-74000000I-50000J0D01*
G01*
X116685002Y-74000000D02*
G75*
G02*
X116785002Y-74000000I50000J0D01*
G01*
%TO.C,D110*%
X107785002Y-62000000D02*
G75*
G02*
X107685002Y-62000000I-50000J0D01*
G01*
X107685002Y-62000000D02*
G75*
G02*
X107785002Y-62000000I50000J0D01*
G01*
D13*
%TO.C,U6*%
X110871102Y-152879100D02*
X110871102Y-157120900D01*
X110871102Y-157120900D02*
X111835772Y-157120900D01*
X111835772Y-152879100D02*
X110871102Y-152879100D01*
X112624232Y-157120900D02*
X114375772Y-157120900D01*
X114375772Y-152879100D02*
X112624232Y-152879100D01*
X115164232Y-157120900D02*
X116128902Y-157120900D01*
X116128902Y-152879100D02*
X115164232Y-152879100D01*
X116128902Y-157120900D02*
X116128902Y-152879100D01*
D12*
%TO.C,D01*%
X134785002Y-53000000D02*
G75*
G02*
X134685002Y-53000000I-50000J0D01*
G01*
X134685002Y-53000000D02*
G75*
G02*
X134785002Y-53000000I50000J0D01*
G01*
%TO.C,D136*%
X125785002Y-68000000D02*
G75*
G02*
X125685002Y-68000000I-50000J0D01*
G01*
X125685002Y-68000000D02*
G75*
G02*
X125785002Y-68000000I50000J0D01*
G01*
%TO.C,D56*%
X149785002Y-68000000D02*
G75*
G02*
X149685002Y-68000000I-50000J0D01*
G01*
X149685002Y-68000000D02*
G75*
G02*
X149785002Y-68000000I50000J0D01*
G01*
%TO.C,D05*%
X146785002Y-53000000D02*
G75*
G02*
X146685002Y-53000000I-50000J0D01*
G01*
X146685002Y-53000000D02*
G75*
G02*
X146785002Y-53000000I50000J0D01*
G01*
%TO.C,D154*%
X119785002Y-74000000D02*
G75*
G02*
X119685002Y-74000000I-50000J0D01*
G01*
X119685002Y-74000000D02*
G75*
G02*
X119785002Y-74000000I50000J0D01*
G01*
%TO.C,D16*%
X149785002Y-56000000D02*
G75*
G02*
X149685002Y-56000000I-50000J0D01*
G01*
X149685002Y-56000000D02*
G75*
G02*
X149785002Y-56000000I50000J0D01*
G01*
%TO.C,D151*%
X110785002Y-74000000D02*
G75*
G02*
X110685002Y-74000000I-50000J0D01*
G01*
X110685002Y-74000000D02*
G75*
G02*
X110785002Y-74000000I50000J0D01*
G01*
%TO.C,D66*%
X149785002Y-71000000D02*
G75*
G02*
X149685002Y-71000000I-50000J0D01*
G01*
X149685002Y-71000000D02*
G75*
G02*
X149785002Y-71000000I50000J0D01*
G01*
%TO.C,D12*%
X137785002Y-56000000D02*
G75*
G02*
X137685002Y-56000000I-50000J0D01*
G01*
X137685002Y-56000000D02*
G75*
G02*
X137785002Y-56000000I50000J0D01*
G01*
%TO.C,D76*%
X149785002Y-74000000D02*
G75*
G02*
X149685002Y-74000000I-50000J0D01*
G01*
X149685002Y-74000000D02*
G75*
G02*
X149785002Y-74000000I50000J0D01*
G01*
%TO.C,D155*%
X122785002Y-74000000D02*
G75*
G02*
X122685002Y-74000000I-50000J0D01*
G01*
X122685002Y-74000000D02*
G75*
G02*
X122785002Y-74000000I50000J0D01*
G01*
D11*
%TO.C,C60*%
X108990002Y-151853733D02*
X108990002Y-152146267D01*
X110010002Y-151853733D02*
X110010002Y-152146267D01*
D12*
%TO.C,D75*%
X146785002Y-74000000D02*
G75*
G02*
X146685002Y-74000000I-50000J0D01*
G01*
X146685002Y-74000000D02*
G75*
G02*
X146785002Y-74000000I50000J0D01*
G01*
%TO.C,D67*%
X152785002Y-71000000D02*
G75*
G02*
X152685002Y-71000000I-50000J0D01*
G01*
X152685002Y-71000000D02*
G75*
G02*
X152785002Y-71000000I50000J0D01*
G01*
D11*
%TO.C,J7*%
X118670002Y-40280000D02*
X118670002Y-37680000D01*
X121330002Y-37680000D02*
X118670002Y-37680000D01*
X121330002Y-40280000D02*
X118670002Y-40280000D01*
X121330002Y-40280000D02*
X121330002Y-37680000D01*
X121330002Y-41550000D02*
X121330002Y-42880000D01*
X121330002Y-42880000D02*
X120000002Y-42880000D01*
%TO.C,J2*%
X138920002Y-147612500D02*
X138920002Y-143932500D01*
X138920002Y-147612500D02*
X139180002Y-147612500D01*
X138920002Y-148382500D02*
X138920002Y-152062500D01*
X138920002Y-152062500D02*
X143750002Y-152062500D01*
X139180002Y-147612500D02*
X139180002Y-148382500D01*
X139180002Y-148382500D02*
X138920002Y-148382500D01*
X143750002Y-143932500D02*
X138920002Y-143932500D01*
X145660002Y-143932500D02*
X143750002Y-143932500D01*
X145660002Y-143932500D02*
X145660002Y-152062500D01*
X145660002Y-145202500D02*
X147050002Y-145202500D01*
X145660002Y-150792500D02*
X147050002Y-150792500D01*
X145660002Y-152062500D02*
X143750002Y-152062500D01*
X145910002Y-145202500D02*
X145910002Y-150792500D01*
X145950002Y-143592500D02*
X143750002Y-143592500D01*
X145950002Y-144892500D02*
X145950002Y-143592500D01*
X146800002Y-145202500D02*
X146800002Y-150792500D01*
X147050002Y-145202500D02*
X147050002Y-150792500D01*
D12*
%TO.C,D95*%
X122785002Y-56000000D02*
G75*
G02*
X122685002Y-56000000I-50000J0D01*
G01*
X122685002Y-56000000D02*
G75*
G02*
X122785002Y-56000000I50000J0D01*
G01*
%TO.C,D134*%
X119785002Y-68000000D02*
G75*
G02*
X119685002Y-68000000I-50000J0D01*
G01*
X119685002Y-68000000D02*
G75*
G02*
X119785002Y-68000000I50000J0D01*
G01*
%TO.C,D145*%
X122785002Y-71000000D02*
G75*
G02*
X122685002Y-71000000I-50000J0D01*
G01*
X122685002Y-71000000D02*
G75*
G02*
X122785002Y-71000000I50000J0D01*
G01*
%TO.C,D125*%
X122785002Y-65000000D02*
G75*
G02*
X122685002Y-65000000I-50000J0D01*
G01*
X122685002Y-65000000D02*
G75*
G02*
X122785002Y-65000000I50000J0D01*
G01*
%TO.C,D13*%
X140785002Y-56000000D02*
G75*
G02*
X140685002Y-56000000I-50000J0D01*
G01*
X140685002Y-56000000D02*
G75*
G02*
X140785002Y-56000000I50000J0D01*
G01*
%TO.C,D44*%
X143785002Y-65000000D02*
G75*
G02*
X143685002Y-65000000I-50000J0D01*
G01*
X143685002Y-65000000D02*
G75*
G02*
X143785002Y-65000000I50000J0D01*
G01*
%TO.C,D34*%
X143785002Y-62000000D02*
G75*
G02*
X143685002Y-62000000I-50000J0D01*
G01*
X143685002Y-62000000D02*
G75*
G02*
X143785002Y-62000000I50000J0D01*
G01*
%TO.C,D114*%
X119785002Y-62000000D02*
G75*
G02*
X119685002Y-62000000I-50000J0D01*
G01*
X119685002Y-62000000D02*
G75*
G02*
X119785002Y-62000000I50000J0D01*
G01*
%TO.C,D14*%
X143785002Y-56000000D02*
G75*
G02*
X143685002Y-56000000I-50000J0D01*
G01*
X143685002Y-56000000D02*
G75*
G02*
X143785002Y-56000000I50000J0D01*
G01*
%TO.C,D103*%
X116785002Y-59000000D02*
G75*
G02*
X116685002Y-59000000I-50000J0D01*
G01*
X116685002Y-59000000D02*
G75*
G02*
X116785002Y-59000000I50000J0D01*
G01*
%TO.C,D53*%
X140785002Y-68000000D02*
G75*
G02*
X140685002Y-68000000I-50000J0D01*
G01*
X140685002Y-68000000D02*
G75*
G02*
X140785002Y-68000000I50000J0D01*
G01*
%TO.C,D90*%
X107785002Y-56000000D02*
G75*
G02*
X107685002Y-56000000I-50000J0D01*
G01*
X107685002Y-56000000D02*
G75*
G02*
X107785002Y-56000000I50000J0D01*
G01*
%TO.C,D156*%
X125785002Y-74000000D02*
G75*
G02*
X125685002Y-74000000I-50000J0D01*
G01*
X125685002Y-74000000D02*
G75*
G02*
X125785002Y-74000000I50000J0D01*
G01*
D11*
%TO.C,D3*%
X74242502Y-80362500D02*
X74242502Y-82822500D01*
X75712502Y-80362500D02*
X74242502Y-80362500D01*
X75712502Y-82822500D02*
X75712502Y-80362500D01*
D12*
%TO.C,D62*%
X137785002Y-71000000D02*
G75*
G02*
X137685002Y-71000000I-50000J0D01*
G01*
X137685002Y-71000000D02*
G75*
G02*
X137785002Y-71000000I50000J0D01*
G01*
%TO.C,D20*%
X131785002Y-59000000D02*
G75*
G02*
X131685002Y-59000000I-50000J0D01*
G01*
X131685002Y-59000000D02*
G75*
G02*
X131785002Y-59000000I50000J0D01*
G01*
%TO.C,D36*%
X149785002Y-62000000D02*
G75*
G02*
X149685002Y-62000000I-50000J0D01*
G01*
X149685002Y-62000000D02*
G75*
G02*
X149785002Y-62000000I50000J0D01*
G01*
%TO.C,D93*%
X116785002Y-56000000D02*
G75*
G02*
X116685002Y-56000000I-50000J0D01*
G01*
X116685002Y-56000000D02*
G75*
G02*
X116785002Y-56000000I50000J0D01*
G01*
%TO.C,D60*%
X131785002Y-71000000D02*
G75*
G02*
X131685002Y-71000000I-50000J0D01*
G01*
X131685002Y-71000000D02*
G75*
G02*
X131785002Y-71000000I50000J0D01*
G01*
%TO.C,D111*%
X110785002Y-62000000D02*
G75*
G02*
X110685002Y-62000000I-50000J0D01*
G01*
X110685002Y-62000000D02*
G75*
G02*
X110785002Y-62000000I50000J0D01*
G01*
%TO.C,D32*%
X137785002Y-62000000D02*
G75*
G02*
X137685002Y-62000000I-50000J0D01*
G01*
X137685002Y-62000000D02*
G75*
G02*
X137785002Y-62000000I50000J0D01*
G01*
%TO.C,D115*%
X122785002Y-62000000D02*
G75*
G02*
X122685002Y-62000000I-50000J0D01*
G01*
X122685002Y-62000000D02*
G75*
G02*
X122785002Y-62000000I50000J0D01*
G01*
%TO.C,D30*%
X131785002Y-62000000D02*
G75*
G02*
X131685002Y-62000000I-50000J0D01*
G01*
X131685002Y-62000000D02*
G75*
G02*
X131785002Y-62000000I50000J0D01*
G01*
%TO.C,D37*%
X152785002Y-62000000D02*
G75*
G02*
X152685002Y-62000000I-50000J0D01*
G01*
X152685002Y-62000000D02*
G75*
G02*
X152785002Y-62000000I50000J0D01*
G01*
%TO.C,D27*%
X152785002Y-59000000D02*
G75*
G02*
X152685002Y-59000000I-50000J0D01*
G01*
X152685002Y-59000000D02*
G75*
G02*
X152785002Y-59000000I50000J0D01*
G01*
%TO.C,D07*%
X152785002Y-53000000D02*
G75*
G02*
X152685002Y-53000000I-50000J0D01*
G01*
X152685002Y-53000000D02*
G75*
G02*
X152785002Y-53000000I50000J0D01*
G01*
%TO.C,D65*%
X146785002Y-71000000D02*
G75*
G02*
X146685002Y-71000000I-50000J0D01*
G01*
X146685002Y-71000000D02*
G75*
G02*
X146785002Y-71000000I50000J0D01*
G01*
%TO.C,D97*%
X128785002Y-56000000D02*
G75*
G02*
X128685002Y-56000000I-50000J0D01*
G01*
X128685002Y-56000000D02*
G75*
G02*
X128785002Y-56000000I50000J0D01*
G01*
%TO.C,D02*%
X137785002Y-53000000D02*
G75*
G02*
X137685002Y-53000000I-50000J0D01*
G01*
X137685002Y-53000000D02*
G75*
G02*
X137785002Y-53000000I50000J0D01*
G01*
%TO.C,D141*%
X110785002Y-71000000D02*
G75*
G02*
X110685002Y-71000000I-50000J0D01*
G01*
X110685002Y-71000000D02*
G75*
G02*
X110785002Y-71000000I50000J0D01*
G01*
D13*
%TO.C,SW6*%
X140875802Y-135875800D02*
X140875802Y-142124200D01*
X140875802Y-142124200D02*
X147124202Y-142124200D01*
X147124202Y-135875800D02*
X140875802Y-135875800D01*
X147124202Y-142124200D02*
X147124202Y-135875800D01*
D12*
%TO.C,D133*%
X116785002Y-68000000D02*
G75*
G02*
X116685002Y-68000000I-50000J0D01*
G01*
X116685002Y-68000000D02*
G75*
G02*
X116785002Y-68000000I50000J0D01*
G01*
D13*
%TO.C,SW1*%
X102875802Y-135875800D02*
X102875802Y-142124200D01*
X102875802Y-142124200D02*
X109124202Y-142124200D01*
X109124202Y-135875800D02*
X102875802Y-135875800D01*
X109124202Y-142124200D02*
X109124202Y-135875800D01*
D12*
%TO.C,D126*%
X125785002Y-65000000D02*
G75*
G02*
X125685002Y-65000000I-50000J0D01*
G01*
X125685002Y-65000000D02*
G75*
G02*
X125785002Y-65000000I50000J0D01*
G01*
%TO.C,D06*%
X149785002Y-53000000D02*
G75*
G02*
X149685002Y-53000000I-50000J0D01*
G01*
X149685002Y-53000000D02*
G75*
G02*
X149785002Y-53000000I50000J0D01*
G01*
%TO.C,D84*%
X119785002Y-53000000D02*
G75*
G02*
X119685002Y-53000000I-50000J0D01*
G01*
X119685002Y-53000000D02*
G75*
G02*
X119785002Y-53000000I50000J0D01*
G01*
%TO.C,D91*%
X110785002Y-56000000D02*
G75*
G02*
X110685002Y-56000000I-50000J0D01*
G01*
X110685002Y-56000000D02*
G75*
G02*
X110785002Y-56000000I50000J0D01*
G01*
%TO.C,D130*%
X107785002Y-68000000D02*
G75*
G02*
X107685002Y-68000000I-50000J0D01*
G01*
X107685002Y-68000000D02*
G75*
G02*
X107785002Y-68000000I50000J0D01*
G01*
%TO.C,D17*%
X152785002Y-56000000D02*
G75*
G02*
X152685002Y-56000000I-50000J0D01*
G01*
X152685002Y-56000000D02*
G75*
G02*
X152785002Y-56000000I50000J0D01*
G01*
%TO.C,D24*%
X143785002Y-59000000D02*
G75*
G02*
X143685002Y-59000000I-50000J0D01*
G01*
X143685002Y-59000000D02*
G75*
G02*
X143785002Y-59000000I50000J0D01*
G01*
D13*
%TO.C,SW2*%
X128875802Y-147875800D02*
X128875802Y-154124200D01*
X128875802Y-154124200D02*
X135124202Y-154124200D01*
X135124202Y-147875800D02*
X128875802Y-147875800D01*
X135124202Y-154124200D02*
X135124202Y-147875800D01*
D12*
%TO.C,D35*%
X146785002Y-62000000D02*
G75*
G02*
X146685002Y-62000000I-50000J0D01*
G01*
X146685002Y-62000000D02*
G75*
G02*
X146785002Y-62000000I50000J0D01*
G01*
%TO.C,D04*%
X143785002Y-53000000D02*
G75*
G02*
X143685002Y-53000000I-50000J0D01*
G01*
X143685002Y-53000000D02*
G75*
G02*
X143785002Y-53000000I50000J0D01*
G01*
%TO.C,D100*%
X107785002Y-59000000D02*
G75*
G02*
X107685002Y-59000000I-50000J0D01*
G01*
X107685002Y-59000000D02*
G75*
G02*
X107785002Y-59000000I50000J0D01*
G01*
%TO.C,D74*%
X143785002Y-74000000D02*
G75*
G02*
X143685002Y-74000000I-50000J0D01*
G01*
X143685002Y-74000000D02*
G75*
G02*
X143785002Y-74000000I50000J0D01*
G01*
%TO.C,D70*%
X131785002Y-74000000D02*
G75*
G02*
X131685002Y-74000000I-50000J0D01*
G01*
X131685002Y-74000000D02*
G75*
G02*
X131785002Y-74000000I50000J0D01*
G01*
%TO.C,D106*%
X125785002Y-59000000D02*
G75*
G02*
X125685002Y-59000000I-50000J0D01*
G01*
X125685002Y-59000000D02*
G75*
G02*
X125785002Y-59000000I50000J0D01*
G01*
%TO.C,D101*%
X110785002Y-59000000D02*
G75*
G02*
X110685002Y-59000000I-50000J0D01*
G01*
X110685002Y-59000000D02*
G75*
G02*
X110785002Y-59000000I50000J0D01*
G01*
%TO.C,D132*%
X113785002Y-68000000D02*
G75*
G02*
X113685002Y-68000000I-50000J0D01*
G01*
X113685002Y-68000000D02*
G75*
G02*
X113785002Y-68000000I50000J0D01*
G01*
%TO.C,D23*%
X140785002Y-59000000D02*
G75*
G02*
X140685002Y-59000000I-50000J0D01*
G01*
X140685002Y-59000000D02*
G75*
G02*
X140785002Y-59000000I50000J0D01*
G01*
%TO.C,D57*%
X152785002Y-68000000D02*
G75*
G02*
X152685002Y-68000000I-50000J0D01*
G01*
X152685002Y-68000000D02*
G75*
G02*
X152785002Y-68000000I50000J0D01*
G01*
%TO.C,D107*%
X128785002Y-59000000D02*
G75*
G02*
X128685002Y-59000000I-50000J0D01*
G01*
X128685002Y-59000000D02*
G75*
G02*
X128785002Y-59000000I50000J0D01*
G01*
%TO.C,D123*%
X116785002Y-65000000D02*
G75*
G02*
X116685002Y-65000000I-50000J0D01*
G01*
X116685002Y-65000000D02*
G75*
G02*
X116785002Y-65000000I50000J0D01*
G01*
%TO.C,D102*%
X113785002Y-59000000D02*
G75*
G02*
X113685002Y-59000000I-50000J0D01*
G01*
X113685002Y-59000000D02*
G75*
G02*
X113785002Y-59000000I50000J0D01*
G01*
%TO.C,D64*%
X143785002Y-71000000D02*
G75*
G02*
X143685002Y-71000000I-50000J0D01*
G01*
X143685002Y-71000000D02*
G75*
G02*
X143785002Y-71000000I50000J0D01*
G01*
%TO.C,D26*%
X149785002Y-59000000D02*
G75*
G02*
X149685002Y-59000000I-50000J0D01*
G01*
X149685002Y-59000000D02*
G75*
G02*
X149785002Y-59000000I50000J0D01*
G01*
%TO.C,D42*%
X137785002Y-65000000D02*
G75*
G02*
X137685002Y-65000000I-50000J0D01*
G01*
X137685002Y-65000000D02*
G75*
G02*
X137785002Y-65000000I50000J0D01*
G01*
%TO.C,D46*%
X149785002Y-65000000D02*
G75*
G02*
X149685002Y-65000000I-50000J0D01*
G01*
X149685002Y-65000000D02*
G75*
G02*
X149785002Y-65000000I50000J0D01*
G01*
%TO.C,D131*%
X110785002Y-68000000D02*
G75*
G02*
X110685002Y-68000000I-50000J0D01*
G01*
X110685002Y-68000000D02*
G75*
G02*
X110785002Y-68000000I50000J0D01*
G01*
%TO.C,D50*%
X131785002Y-68000000D02*
G75*
G02*
X131685002Y-68000000I-50000J0D01*
G01*
X131685002Y-68000000D02*
G75*
G02*
X131785002Y-68000000I50000J0D01*
G01*
D11*
%TO.C,D161*%
X147600002Y-119900000D02*
X147600002Y-123800000D01*
X147600002Y-123800000D02*
X150800002Y-123800000D01*
X150800002Y-119900000D02*
X150800002Y-123800000D01*
D12*
%TO.C,D144*%
X119785002Y-71000000D02*
G75*
G02*
X119685002Y-71000000I-50000J0D01*
G01*
X119685002Y-71000000D02*
G75*
G02*
X119785002Y-71000000I50000J0D01*
G01*
%TO.C,D105*%
X122785002Y-59000000D02*
G75*
G02*
X122685002Y-59000000I-50000J0D01*
G01*
X122685002Y-59000000D02*
G75*
G02*
X122785002Y-59000000I50000J0D01*
G01*
%TO.C,D116*%
X125785002Y-62000000D02*
G75*
G02*
X125685002Y-62000000I-50000J0D01*
G01*
X125685002Y-62000000D02*
G75*
G02*
X125785002Y-62000000I50000J0D01*
G01*
%TO.C,D52*%
X137785002Y-68000000D02*
G75*
G02*
X137685002Y-68000000I-50000J0D01*
G01*
X137685002Y-68000000D02*
G75*
G02*
X137785002Y-68000000I50000J0D01*
G01*
D11*
%TO.C,J4*%
X90145002Y-33330000D02*
X90145002Y-32000000D01*
X91475002Y-33330000D02*
X90145002Y-33330000D01*
X92745002Y-30670000D02*
X97885002Y-30670000D01*
X92745002Y-33330000D02*
X92745002Y-30670000D01*
X92745002Y-33330000D02*
X97885002Y-33330000D01*
X97885002Y-33330000D02*
X97885002Y-30670000D01*
D12*
%TO.C,D00*%
X131785002Y-53000000D02*
G75*
G02*
X131685002Y-53000000I-50000J0D01*
G01*
X131685002Y-53000000D02*
G75*
G02*
X131785002Y-53000000I50000J0D01*
G01*
%TO.C,D85*%
X122785002Y-53000000D02*
G75*
G02*
X122685002Y-53000000I-50000J0D01*
G01*
X122685002Y-53000000D02*
G75*
G02*
X122785002Y-53000000I50000J0D01*
G01*
D13*
%TO.C,SW8*%
X128875802Y-123875800D02*
X128875802Y-130124200D01*
X128875802Y-130124200D02*
X135124202Y-130124200D01*
X135124202Y-123875800D02*
X128875802Y-123875800D01*
X135124202Y-130124200D02*
X135124202Y-123875800D01*
D12*
%TO.C,D142*%
X113785002Y-71000000D02*
G75*
G02*
X113685002Y-71000000I-50000J0D01*
G01*
X113685002Y-71000000D02*
G75*
G02*
X113785002Y-71000000I50000J0D01*
G01*
%TO.C,D63*%
X140785002Y-71000000D02*
G75*
G02*
X140685002Y-71000000I-50000J0D01*
G01*
X140685002Y-71000000D02*
G75*
G02*
X140785002Y-71000000I50000J0D01*
G01*
%TO.C,D140*%
X107785002Y-71000000D02*
G75*
G02*
X107685002Y-71000000I-50000J0D01*
G01*
X107685002Y-71000000D02*
G75*
G02*
X107785002Y-71000000I50000J0D01*
G01*
D13*
%TO.C,SW5*%
X128875802Y-135875800D02*
X128875802Y-142124200D01*
X128875802Y-142124200D02*
X135124202Y-142124200D01*
X135124202Y-135875800D02*
X128875802Y-135875800D01*
X135124202Y-142124200D02*
X135124202Y-135875800D01*
D12*
%TO.C,D82*%
X113785002Y-53000000D02*
G75*
G02*
X113685002Y-53000000I-50000J0D01*
G01*
X113685002Y-53000000D02*
G75*
G02*
X113785002Y-53000000I50000J0D01*
G01*
%TO.C,D47*%
X152785002Y-65000000D02*
G75*
G02*
X152685002Y-65000000I-50000J0D01*
G01*
X152685002Y-65000000D02*
G75*
G02*
X152785002Y-65000000I50000J0D01*
G01*
%TO.C,D83*%
X116785002Y-53000000D02*
G75*
G02*
X116685002Y-53000000I-50000J0D01*
G01*
X116685002Y-53000000D02*
G75*
G02*
X116785002Y-53000000I50000J0D01*
G01*
%TO.C,D15*%
X146785002Y-56000000D02*
G75*
G02*
X146685002Y-56000000I-50000J0D01*
G01*
X146685002Y-56000000D02*
G75*
G02*
X146785002Y-56000000I50000J0D01*
G01*
%TO.C,D92*%
X113785002Y-56000000D02*
G75*
G02*
X113685002Y-56000000I-50000J0D01*
G01*
X113685002Y-56000000D02*
G75*
G02*
X113785002Y-56000000I50000J0D01*
G01*
%TO.C,D41*%
X134785002Y-65000000D02*
G75*
G02*
X134685002Y-65000000I-50000J0D01*
G01*
X134685002Y-65000000D02*
G75*
G02*
X134785002Y-65000000I50000J0D01*
G01*
%TO.C,D122*%
X113785002Y-65000000D02*
G75*
G02*
X113685002Y-65000000I-50000J0D01*
G01*
X113685002Y-65000000D02*
G75*
G02*
X113785002Y-65000000I50000J0D01*
G01*
%TO.C,D94*%
X119785002Y-56000000D02*
G75*
G02*
X119685002Y-56000000I-50000J0D01*
G01*
X119685002Y-56000000D02*
G75*
G02*
X119785002Y-56000000I50000J0D01*
G01*
D13*
%TO.C,SW4*%
X116875802Y-135875800D02*
X116875802Y-142124200D01*
X116875802Y-142124200D02*
X123124202Y-142124200D01*
X123124202Y-135875800D02*
X116875802Y-135875800D01*
X123124202Y-142124200D02*
X123124202Y-135875800D01*
D12*
%TO.C,D25*%
X146785002Y-59000000D02*
G75*
G02*
X146685002Y-59000000I-50000J0D01*
G01*
X146685002Y-59000000D02*
G75*
G02*
X146785002Y-59000000I50000J0D01*
G01*
D11*
%TO.C,R61*%
X117670002Y-154067621D02*
X117670002Y-153732379D01*
X118430002Y-154067621D02*
X118430002Y-153732379D01*
D12*
%TO.C,D80*%
X107785002Y-53000000D02*
G75*
G02*
X107685002Y-53000000I-50000J0D01*
G01*
X107685002Y-53000000D02*
G75*
G02*
X107785002Y-53000000I50000J0D01*
G01*
%TO.C,D135*%
X122785002Y-68000000D02*
G75*
G02*
X122685002Y-68000000I-50000J0D01*
G01*
X122685002Y-68000000D02*
G75*
G02*
X122785002Y-68000000I50000J0D01*
G01*
D11*
%TO.C,J3*%
X74670002Y-47670000D02*
X76000002Y-47670000D01*
X74670002Y-49000000D02*
X74670002Y-47670000D01*
X74670002Y-50270000D02*
X74670002Y-57950000D01*
X74670002Y-50270000D02*
X77330002Y-50270000D01*
X74670002Y-57950000D02*
X77330002Y-57950000D01*
X77330002Y-50270000D02*
X77330002Y-57950000D01*
%TO.C,R29*%
X76020002Y-81232379D02*
X76020002Y-81567621D01*
X76780002Y-81232379D02*
X76780002Y-81567621D01*
D12*
%TO.C,D40*%
X131785002Y-65000000D02*
G75*
G02*
X131685002Y-65000000I-50000J0D01*
G01*
X131685002Y-65000000D02*
G75*
G02*
X131785002Y-65000000I50000J0D01*
G01*
%TO.C,D120*%
X107785002Y-65000000D02*
G75*
G02*
X107685002Y-65000000I-50000J0D01*
G01*
X107685002Y-65000000D02*
G75*
G02*
X107785002Y-65000000I50000J0D01*
G01*
%TO.C,D11*%
X134785002Y-56000000D02*
G75*
G02*
X134685002Y-56000000I-50000J0D01*
G01*
X134685002Y-56000000D02*
G75*
G02*
X134785002Y-56000000I50000J0D01*
G01*
%TO.C,D87*%
X128785002Y-53000000D02*
G75*
G02*
X128685002Y-53000000I-50000J0D01*
G01*
X128685002Y-53000000D02*
G75*
G02*
X128785002Y-53000000I50000J0D01*
G01*
%TO.C,D81*%
X110785002Y-53000000D02*
G75*
G02*
X110685002Y-53000000I-50000J0D01*
G01*
X110685002Y-53000000D02*
G75*
G02*
X110785002Y-53000000I50000J0D01*
G01*
%TO.C,D127*%
X128785002Y-65000000D02*
G75*
G02*
X128685002Y-65000000I-50000J0D01*
G01*
X128685002Y-65000000D02*
G75*
G02*
X128785002Y-65000000I50000J0D01*
G01*
%TO.C,D72*%
X137785002Y-74000000D02*
G75*
G02*
X137685002Y-74000000I-50000J0D01*
G01*
X137685002Y-74000000D02*
G75*
G02*
X137785002Y-74000000I50000J0D01*
G01*
%TO.C,D137*%
X128785002Y-68000000D02*
G75*
G02*
X128685002Y-68000000I-50000J0D01*
G01*
X128685002Y-68000000D02*
G75*
G02*
X128785002Y-68000000I50000J0D01*
G01*
%TO.C,D54*%
X143785002Y-68000000D02*
G75*
G02*
X143685002Y-68000000I-50000J0D01*
G01*
X143685002Y-68000000D02*
G75*
G02*
X143785002Y-68000000I50000J0D01*
G01*
%TO.C,D03*%
X140785002Y-53000000D02*
G75*
G02*
X140685002Y-53000000I-50000J0D01*
G01*
X140685002Y-53000000D02*
G75*
G02*
X140785002Y-53000000I50000J0D01*
G01*
%TO.C,D10*%
X131785002Y-56000000D02*
G75*
G02*
X131685002Y-56000000I-50000J0D01*
G01*
X131685002Y-56000000D02*
G75*
G02*
X131785002Y-56000000I50000J0D01*
G01*
%TO.C,D117*%
X128785002Y-62000000D02*
G75*
G02*
X128685002Y-62000000I-50000J0D01*
G01*
X128685002Y-62000000D02*
G75*
G02*
X128785002Y-62000000I50000J0D01*
G01*
%TO.C,D45*%
X146785002Y-65000000D02*
G75*
G02*
X146685002Y-65000000I-50000J0D01*
G01*
X146685002Y-65000000D02*
G75*
G02*
X146785002Y-65000000I50000J0D01*
G01*
%TO.C,D61*%
X134785002Y-71000000D02*
G75*
G02*
X134685002Y-71000000I-50000J0D01*
G01*
X134685002Y-71000000D02*
G75*
G02*
X134785002Y-71000000I50000J0D01*
G01*
D13*
%TO.C,SW7*%
X116875802Y-123875800D02*
X116875802Y-130124200D01*
X116875802Y-130124200D02*
X123124202Y-130124200D01*
X123124202Y-123875800D02*
X116875802Y-123875800D01*
X123124202Y-130124200D02*
X123124202Y-123875800D01*
D12*
%TO.C,D146*%
X125785002Y-71000000D02*
G75*
G02*
X125685002Y-71000000I-50000J0D01*
G01*
X125685002Y-71000000D02*
G75*
G02*
X125785002Y-71000000I50000J0D01*
G01*
%TO.C,D86*%
X125785002Y-53000000D02*
G75*
G02*
X125685002Y-53000000I-50000J0D01*
G01*
X125685002Y-53000000D02*
G75*
G02*
X125785002Y-53000000I50000J0D01*
G01*
%TO.C,D121*%
X110785002Y-65000000D02*
G75*
G02*
X110685002Y-65000000I-50000J0D01*
G01*
X110685002Y-65000000D02*
G75*
G02*
X110785002Y-65000000I50000J0D01*
G01*
%TO.C,D31*%
X134785002Y-62000000D02*
G75*
G02*
X134685002Y-62000000I-50000J0D01*
G01*
X134685002Y-62000000D02*
G75*
G02*
X134785002Y-62000000I50000J0D01*
G01*
%TO.C,D73*%
X140785002Y-74000000D02*
G75*
G02*
X140685002Y-74000000I-50000J0D01*
G01*
X140685002Y-74000000D02*
G75*
G02*
X140785002Y-74000000I50000J0D01*
G01*
%TD*%
%LPC*%
D14*
%TO.C,J5*%
X133475002Y-32000000D03*
D15*
X136015002Y-32000000D03*
X138555002Y-32000000D03*
%TD*%
D16*
%TO.C,D112*%
X114427502Y-62000000D03*
X115572502Y-62000000D03*
%TD*%
%TO.C,D21*%
X135427502Y-59000000D03*
X136572502Y-59000000D03*
%TD*%
%TO.C,D22*%
X138427502Y-59000000D03*
X139572502Y-59000000D03*
%TD*%
%TO.C,D124*%
X120427502Y-65000000D03*
X121572502Y-65000000D03*
%TD*%
D17*
%TO.C,D160*%
X80200000Y-122350000D03*
D18*
X80200000Y-119775000D03*
%TD*%
D16*
%TO.C,D157*%
X129427502Y-74000000D03*
X130572502Y-74000000D03*
%TD*%
%TO.C,D143*%
X117427502Y-71000000D03*
X118572502Y-71000000D03*
%TD*%
%TO.C,D55*%
X147427502Y-68000000D03*
X148572502Y-68000000D03*
%TD*%
D19*
%TO.C,SW3*%
X89402602Y-124749999D03*
X98597402Y-124749999D03*
X89402602Y-129250001D03*
X98597402Y-129250001D03*
%TD*%
D16*
%TO.C,D147*%
X129427502Y-71000000D03*
X130572502Y-71000000D03*
%TD*%
%TO.C,D96*%
X126427502Y-56000000D03*
X127572502Y-56000000D03*
%TD*%
%TO.C,D33*%
X141427502Y-62000000D03*
X142572502Y-62000000D03*
%TD*%
%TO.C,D104*%
X120427502Y-59000000D03*
X121572502Y-59000000D03*
%TD*%
%TO.C,D150*%
X108427502Y-74000000D03*
X109572502Y-74000000D03*
%TD*%
%TO.C,D152*%
X114427502Y-74000000D03*
X115572502Y-74000000D03*
%TD*%
%TO.C,D51*%
X135427502Y-68000000D03*
X136572502Y-68000000D03*
%TD*%
%TO.C,D71*%
X135427502Y-74000000D03*
X136572502Y-74000000D03*
%TD*%
%TO.C,D113*%
X117427502Y-62000000D03*
X118572502Y-62000000D03*
%TD*%
%TO.C,D77*%
X153427502Y-74000000D03*
X154572502Y-74000000D03*
%TD*%
%TO.C,D43*%
X141427502Y-65000000D03*
X142572502Y-65000000D03*
%TD*%
%TO.C,D153*%
X117427502Y-74000000D03*
X118572502Y-74000000D03*
%TD*%
%TO.C,D110*%
X108427502Y-62000000D03*
X109572502Y-62000000D03*
%TD*%
D20*
%TO.C,U6*%
X112230002Y-157900000D03*
X114770002Y-157900000D03*
X114770002Y-152100000D03*
X112230002Y-152100000D03*
%TD*%
D16*
%TO.C,D01*%
X135427502Y-53000000D03*
X136572502Y-53000000D03*
%TD*%
%TO.C,D136*%
X126427502Y-68000000D03*
X127572502Y-68000000D03*
%TD*%
%TO.C,D56*%
X150427502Y-68000000D03*
X151572502Y-68000000D03*
%TD*%
%TO.C,D05*%
X147427502Y-53000000D03*
X148572502Y-53000000D03*
%TD*%
%TO.C,D154*%
X120427502Y-74000000D03*
X121572502Y-74000000D03*
%TD*%
%TO.C,D16*%
X150427502Y-56000000D03*
X151572502Y-56000000D03*
%TD*%
%TO.C,D151*%
X111427502Y-74000000D03*
X112572502Y-74000000D03*
%TD*%
%TO.C,D66*%
X150427502Y-71000000D03*
X151572502Y-71000000D03*
%TD*%
%TO.C,D12*%
X138427502Y-56000000D03*
X139572502Y-56000000D03*
%TD*%
%TO.C,D76*%
X150427502Y-74000000D03*
X151572502Y-74000000D03*
%TD*%
%TO.C,D155*%
X123427502Y-74000000D03*
X124572502Y-74000000D03*
%TD*%
D21*
%TO.C,C60*%
X109500002Y-151137500D03*
X109500002Y-152862500D03*
%TD*%
D16*
%TO.C,D75*%
X147427502Y-74000000D03*
X148572502Y-74000000D03*
%TD*%
%TO.C,D67*%
X153427502Y-71000000D03*
X154572502Y-71000000D03*
%TD*%
D14*
%TO.C,J7*%
X120000002Y-41550000D03*
D15*
X120000002Y-39010000D03*
%TD*%
D22*
%TO.C,J2*%
X143750002Y-146092500D03*
D23*
X143750002Y-149972500D03*
%TD*%
D16*
%TO.C,D95*%
X123427502Y-56000000D03*
X124572502Y-56000000D03*
%TD*%
%TO.C,D134*%
X120427502Y-68000000D03*
X121572502Y-68000000D03*
%TD*%
%TO.C,D145*%
X123427502Y-71000000D03*
X124572502Y-71000000D03*
%TD*%
%TO.C,D125*%
X123427502Y-65000000D03*
X124572502Y-65000000D03*
%TD*%
%TO.C,D13*%
X141427502Y-56000000D03*
X142572502Y-56000000D03*
%TD*%
%TO.C,D44*%
X144427502Y-65000000D03*
X145572502Y-65000000D03*
%TD*%
%TO.C,D34*%
X144427502Y-62000000D03*
X145572502Y-62000000D03*
%TD*%
%TO.C,D114*%
X120427502Y-62000000D03*
X121572502Y-62000000D03*
%TD*%
%TO.C,D14*%
X144427502Y-56000000D03*
X145572502Y-56000000D03*
%TD*%
%TO.C,D103*%
X117427502Y-59000000D03*
X118572502Y-59000000D03*
%TD*%
%TO.C,D53*%
X141427502Y-68000000D03*
X142572502Y-68000000D03*
%TD*%
%TO.C,D90*%
X108427502Y-56000000D03*
X109572502Y-56000000D03*
%TD*%
%TO.C,D156*%
X126427502Y-74000000D03*
X127572502Y-74000000D03*
%TD*%
D24*
%TO.C,D3*%
X74977502Y-81147500D03*
X74977502Y-82897500D03*
%TD*%
D16*
%TO.C,D62*%
X138427502Y-71000000D03*
X139572502Y-71000000D03*
%TD*%
%TO.C,D20*%
X132427502Y-59000000D03*
X133572502Y-59000000D03*
%TD*%
%TO.C,D36*%
X150427502Y-62000000D03*
X151572502Y-62000000D03*
%TD*%
%TO.C,D93*%
X117427502Y-56000000D03*
X118572502Y-56000000D03*
%TD*%
%TO.C,D60*%
X132427502Y-71000000D03*
X133572502Y-71000000D03*
%TD*%
%TO.C,D111*%
X111427502Y-62000000D03*
X112572502Y-62000000D03*
%TD*%
%TO.C,D32*%
X138427502Y-62000000D03*
X139572502Y-62000000D03*
%TD*%
%TO.C,D115*%
X123427502Y-62000000D03*
X124572502Y-62000000D03*
%TD*%
%TO.C,D30*%
X132427502Y-62000000D03*
X133572502Y-62000000D03*
%TD*%
%TO.C,D37*%
X153427502Y-62000000D03*
X154572502Y-62000000D03*
%TD*%
%TO.C,D27*%
X153427502Y-59000000D03*
X154572502Y-59000000D03*
%TD*%
%TO.C,D07*%
X153427502Y-53000000D03*
X154572502Y-53000000D03*
%TD*%
%TO.C,D65*%
X147427502Y-71000000D03*
X148572502Y-71000000D03*
%TD*%
%TO.C,D97*%
X129427502Y-56000000D03*
X130572502Y-56000000D03*
%TD*%
%TO.C,D02*%
X138427502Y-53000000D03*
X139572502Y-53000000D03*
%TD*%
%TO.C,D141*%
X111427502Y-71000000D03*
X112572502Y-71000000D03*
%TD*%
D19*
%TO.C,SW6*%
X139402602Y-136749999D03*
X148597402Y-136749999D03*
X139402602Y-141250001D03*
X148597402Y-141250001D03*
%TD*%
D16*
%TO.C,D133*%
X117427502Y-68000000D03*
X118572502Y-68000000D03*
%TD*%
D19*
%TO.C,SW1*%
X101402602Y-136749999D03*
X110597402Y-136749999D03*
X101402602Y-141250001D03*
X110597402Y-141250001D03*
%TD*%
D16*
%TO.C,D126*%
X126427502Y-65000000D03*
X127572502Y-65000000D03*
%TD*%
%TO.C,D06*%
X150427502Y-53000000D03*
X151572502Y-53000000D03*
%TD*%
%TO.C,D84*%
X120427502Y-53000000D03*
X121572502Y-53000000D03*
%TD*%
%TO.C,D91*%
X111427502Y-56000000D03*
X112572502Y-56000000D03*
%TD*%
%TO.C,D130*%
X108427502Y-68000000D03*
X109572502Y-68000000D03*
%TD*%
%TO.C,D17*%
X153427502Y-56000000D03*
X154572502Y-56000000D03*
%TD*%
%TO.C,D24*%
X144427502Y-59000000D03*
X145572502Y-59000000D03*
%TD*%
D19*
%TO.C,SW2*%
X127402602Y-148749999D03*
X136597402Y-148749999D03*
X127402602Y-153250001D03*
X136597402Y-153250001D03*
%TD*%
D16*
%TO.C,D35*%
X147427502Y-62000000D03*
X148572502Y-62000000D03*
%TD*%
%TO.C,D04*%
X144427502Y-53000000D03*
X145572502Y-53000000D03*
%TD*%
%TO.C,D100*%
X108427502Y-59000000D03*
X109572502Y-59000000D03*
%TD*%
%TO.C,D74*%
X144427502Y-74000000D03*
X145572502Y-74000000D03*
%TD*%
%TO.C,D70*%
X132427502Y-74000000D03*
X133572502Y-74000000D03*
%TD*%
%TO.C,D106*%
X126427502Y-59000000D03*
X127572502Y-59000000D03*
%TD*%
%TO.C,D101*%
X111427502Y-59000000D03*
X112572502Y-59000000D03*
%TD*%
%TO.C,D132*%
X114427502Y-68000000D03*
X115572502Y-68000000D03*
%TD*%
%TO.C,D23*%
X141427502Y-59000000D03*
X142572502Y-59000000D03*
%TD*%
%TO.C,D57*%
X153427502Y-68000000D03*
X154572502Y-68000000D03*
%TD*%
%TO.C,D107*%
X129427502Y-59000000D03*
X130572502Y-59000000D03*
%TD*%
%TO.C,D123*%
X117427502Y-65000000D03*
X118572502Y-65000000D03*
%TD*%
%TO.C,D102*%
X114427502Y-59000000D03*
X115572502Y-59000000D03*
%TD*%
%TO.C,D64*%
X144427502Y-71000000D03*
X145572502Y-71000000D03*
%TD*%
%TO.C,D26*%
X150427502Y-59000000D03*
X151572502Y-59000000D03*
%TD*%
%TO.C,D42*%
X138427502Y-65000000D03*
X139572502Y-65000000D03*
%TD*%
%TO.C,D46*%
X150427502Y-65000000D03*
X151572502Y-65000000D03*
%TD*%
%TO.C,D131*%
X111427502Y-68000000D03*
X112572502Y-68000000D03*
%TD*%
%TO.C,D50*%
X132427502Y-68000000D03*
X133572502Y-68000000D03*
%TD*%
D17*
%TO.C,D161*%
X149200002Y-122350000D03*
D18*
X149200002Y-119775000D03*
%TD*%
D16*
%TO.C,D144*%
X120427502Y-71000000D03*
X121572502Y-71000000D03*
%TD*%
%TO.C,D105*%
X123427502Y-59000000D03*
X124572502Y-59000000D03*
%TD*%
%TO.C,D116*%
X126427502Y-62000000D03*
X127572502Y-62000000D03*
%TD*%
%TO.C,D52*%
X138427502Y-68000000D03*
X139572502Y-68000000D03*
%TD*%
D14*
%TO.C,J4*%
X91475002Y-32000000D03*
D15*
X94015002Y-32000000D03*
X96555002Y-32000000D03*
%TD*%
D16*
%TO.C,D00*%
X132427502Y-53000000D03*
X133572502Y-53000000D03*
%TD*%
%TO.C,D85*%
X123427502Y-53000000D03*
X124572502Y-53000000D03*
%TD*%
D19*
%TO.C,SW8*%
X127402602Y-124749999D03*
X136597402Y-124749999D03*
X127402602Y-129250001D03*
X136597402Y-129250001D03*
%TD*%
D16*
%TO.C,D142*%
X114427502Y-71000000D03*
X115572502Y-71000000D03*
%TD*%
%TO.C,D63*%
X141427502Y-71000000D03*
X142572502Y-71000000D03*
%TD*%
%TO.C,D140*%
X108427502Y-71000000D03*
X109572502Y-71000000D03*
%TD*%
D19*
%TO.C,SW5*%
X127402602Y-136749999D03*
X136597402Y-136749999D03*
X127402602Y-141250001D03*
X136597402Y-141250001D03*
%TD*%
D16*
%TO.C,D82*%
X114427502Y-53000000D03*
X115572502Y-53000000D03*
%TD*%
%TO.C,D47*%
X153427502Y-65000000D03*
X154572502Y-65000000D03*
%TD*%
%TO.C,D83*%
X117427502Y-53000000D03*
X118572502Y-53000000D03*
%TD*%
%TO.C,D15*%
X147427502Y-56000000D03*
X148572502Y-56000000D03*
%TD*%
%TO.C,D92*%
X114427502Y-56000000D03*
X115572502Y-56000000D03*
%TD*%
%TO.C,D41*%
X135427502Y-65000000D03*
X136572502Y-65000000D03*
%TD*%
%TO.C,D122*%
X114427502Y-65000000D03*
X115572502Y-65000000D03*
%TD*%
%TO.C,D94*%
X120427502Y-56000000D03*
X121572502Y-56000000D03*
%TD*%
D19*
%TO.C,SW4*%
X115402602Y-136749999D03*
X124597402Y-136749999D03*
X115402602Y-141250001D03*
X124597402Y-141250001D03*
%TD*%
D16*
%TO.C,D25*%
X147427502Y-59000000D03*
X148572502Y-59000000D03*
%TD*%
D25*
%TO.C,R61*%
X118050002Y-154497500D03*
X118050002Y-153302500D03*
%TD*%
D16*
%TO.C,D80*%
X108427502Y-53000000D03*
X109572502Y-53000000D03*
%TD*%
%TO.C,D135*%
X123427502Y-68000000D03*
X124572502Y-68000000D03*
%TD*%
D14*
%TO.C,J3*%
X76000002Y-49000000D03*
D15*
X76000002Y-51540000D03*
X76000002Y-54080000D03*
X76000002Y-56620000D03*
%TD*%
D26*
%TO.C,R29*%
X76400002Y-80802500D03*
X76400002Y-81997500D03*
%TD*%
D16*
%TO.C,D40*%
X132427502Y-65000000D03*
X133572502Y-65000000D03*
%TD*%
%TO.C,D120*%
X108427502Y-65000000D03*
X109572502Y-65000000D03*
%TD*%
%TO.C,D11*%
X135427502Y-56000000D03*
X136572502Y-56000000D03*
%TD*%
%TO.C,D87*%
X129427502Y-53000000D03*
X130572502Y-53000000D03*
%TD*%
%TO.C,D81*%
X111427502Y-53000000D03*
X112572502Y-53000000D03*
%TD*%
%TO.C,D127*%
X129427502Y-65000000D03*
X130572502Y-65000000D03*
%TD*%
%TO.C,D72*%
X138427502Y-74000000D03*
X139572502Y-74000000D03*
%TD*%
%TO.C,D137*%
X129427502Y-68000000D03*
X130572502Y-68000000D03*
%TD*%
%TO.C,D54*%
X144427502Y-68000000D03*
X145572502Y-68000000D03*
%TD*%
%TO.C,D03*%
X141427502Y-53000000D03*
X142572502Y-53000000D03*
%TD*%
%TO.C,D10*%
X132427502Y-56000000D03*
X133572502Y-56000000D03*
%TD*%
%TO.C,D117*%
X129427502Y-62000000D03*
X130572502Y-62000000D03*
%TD*%
%TO.C,D45*%
X147427502Y-65000000D03*
X148572502Y-65000000D03*
%TD*%
%TO.C,D61*%
X135427502Y-71000000D03*
X136572502Y-71000000D03*
%TD*%
D19*
%TO.C,SW7*%
X115402602Y-124749999D03*
X124597402Y-124749999D03*
X115402602Y-129250001D03*
X124597402Y-129250001D03*
%TD*%
D16*
%TO.C,D146*%
X126427502Y-71000000D03*
X127572502Y-71000000D03*
%TD*%
%TO.C,D86*%
X126427502Y-53000000D03*
X127572502Y-53000000D03*
%TD*%
%TO.C,D121*%
X111427502Y-65000000D03*
X112572502Y-65000000D03*
%TD*%
%TO.C,D31*%
X135427502Y-62000000D03*
X136572502Y-62000000D03*
%TD*%
%TO.C,D73*%
X141427502Y-74000000D03*
X142572502Y-74000000D03*
%TD*%
D27*
%TO.C,J1*%
X80762502Y-75952500D03*
X80762502Y-70152500D03*
D28*
X81262502Y-77382500D03*
X81262502Y-68722500D03*
D29*
X77082502Y-68722500D03*
X77082502Y-77382500D03*
%TD*%
D30*
%TO.C,J6*%
X75950002Y-59500000D03*
D31*
X78600002Y-60675000D03*
X78600002Y-65525000D03*
D30*
X75950002Y-66700000D03*
%TD*%
%LPD*%
M02*
