%TF.GenerationSoftware,KiCad,Pcbnew,8.0.0*%
%TF.CreationDate,2024-05-05T17:30:59+08:00*%
%TF.ProjectId,pcb_badge,7063625f-6261-4646-9765-2e6b69636164,rev?*%
%TF.SameCoordinates,Original*%
%TF.FileFunction,Paste,Top*%
%TF.FilePolarity,Positive*%
%FSLAX46Y46*%
G04 Gerber Fmt 4.6, Leading zero omitted, Abs format (unit mm)*
G04 Created by KiCad (PCBNEW 8.0.0) date 2024-05-05 17:30:59*
%MOMM*%
%LPD*%
G01*
G04 APERTURE LIST*
G04 Aperture macros list*
%AMRoundRect*
0 Rectangle with rounded corners*
0 $1 Rounding radius*
0 $2 $3 $4 $5 $6 $7 $8 $9 X,Y pos of 4 corners*
0 Add a 4 corners polygon primitive as box body*
4,1,4,$2,$3,$4,$5,$6,$7,$8,$9,$2,$3,0*
0 Add four circle primitives for the rounded corners*
1,1,$1+$1,$2,$3*
1,1,$1+$1,$4,$5*
1,1,$1+$1,$6,$7*
1,1,$1+$1,$8,$9*
0 Add four rect primitives between the rounded corners*
20,1,$1+$1,$2,$3,$4,$5,0*
20,1,$1+$1,$4,$5,$6,$7,0*
20,1,$1+$1,$6,$7,$8,$9,0*
20,1,$1+$1,$8,$9,$2,$3,0*%
G04 Aperture macros list end*
%ADD10RoundRect,0.160000X-0.222500X-0.160000X0.222500X-0.160000X0.222500X0.160000X-0.222500X0.160000X0*%
%ADD11R,2.200000X1.550000*%
%ADD12R,2.200000X2.500000*%
%ADD13R,1.524000X0.762000*%
%ADD14RoundRect,0.160000X-0.197500X-0.160000X0.197500X-0.160000X0.197500X0.160000X-0.197500X0.160000X0*%
%ADD15R,0.700000X1.400000*%
%ADD16RoundRect,0.237500X-0.237500X0.287500X-0.237500X-0.287500X0.237500X-0.287500X0.237500X0.287500X0*%
%ADD17RoundRect,0.155000X0.212500X0.155000X-0.212500X0.155000X-0.212500X-0.155000X0.212500X-0.155000X0*%
%ADD18RoundRect,0.237500X-0.237500X0.300000X-0.237500X-0.300000X0.237500X-0.300000X0.237500X0.300000X0*%
%ADD19RoundRect,0.237500X0.300000X0.237500X-0.300000X0.237500X-0.300000X-0.237500X0.300000X-0.237500X0*%
%ADD20RoundRect,0.237500X0.237500X-0.287500X0.237500X0.287500X-0.237500X0.287500X-0.237500X-0.287500X0*%
%ADD21RoundRect,0.160000X0.197500X0.160000X-0.197500X0.160000X-0.197500X-0.160000X0.197500X-0.160000X0*%
%ADD22RoundRect,0.237500X-0.300000X-0.237500X0.300000X-0.237500X0.300000X0.237500X-0.300000X0.237500X0*%
%ADD23RoundRect,0.160000X-0.160000X0.197500X-0.160000X-0.197500X0.160000X-0.197500X0.160000X0.197500X0*%
%ADD24R,0.500000X1.200000*%
G04 APERTURE END LIST*
D10*
%TO.C,D112*%
X115572500Y-62000000D03*
X114427500Y-62000000D03*
%TD*%
%TO.C,D21*%
X136572500Y-59000000D03*
X135427500Y-59000000D03*
%TD*%
%TO.C,D22*%
X139572500Y-59000000D03*
X138427500Y-59000000D03*
%TD*%
%TO.C,D124*%
X121572500Y-65000000D03*
X120427500Y-65000000D03*
%TD*%
D11*
%TO.C,D160*%
X152800000Y-123125000D03*
D12*
X152800000Y-120550000D03*
%TD*%
D10*
%TO.C,D157*%
X130572500Y-74000000D03*
X129427500Y-74000000D03*
%TD*%
%TO.C,D143*%
X118572500Y-71000000D03*
X117427500Y-71000000D03*
%TD*%
%TO.C,D55*%
X148572500Y-68000000D03*
X147427500Y-68000000D03*
%TD*%
D13*
%TO.C,SW3*%
X98597400Y-129250001D03*
X89402600Y-129250001D03*
X98597400Y-124749999D03*
X89402600Y-124749999D03*
%TD*%
D10*
%TO.C,D147*%
X130572500Y-71000000D03*
X129427500Y-71000000D03*
%TD*%
%TO.C,D96*%
X127572500Y-56000000D03*
X126427500Y-56000000D03*
%TD*%
%TO.C,D33*%
X142572500Y-62000000D03*
X141427500Y-62000000D03*
%TD*%
D14*
%TO.C,R27*%
X155097500Y-76200000D03*
X153902500Y-76200000D03*
%TD*%
D10*
%TO.C,D104*%
X121572500Y-59000000D03*
X120427500Y-59000000D03*
%TD*%
%TO.C,D150*%
X109572500Y-74000000D03*
X108427500Y-74000000D03*
%TD*%
%TO.C,D152*%
X115572500Y-74000000D03*
X114427500Y-74000000D03*
%TD*%
%TO.C,D51*%
X136572500Y-68000000D03*
X135427500Y-68000000D03*
%TD*%
%TO.C,D71*%
X136572500Y-74000000D03*
X135427500Y-74000000D03*
%TD*%
D14*
%TO.C,R60*%
X114597500Y-149500000D03*
X113402500Y-149500000D03*
%TD*%
D10*
%TO.C,D113*%
X118572500Y-62000000D03*
X117427500Y-62000000D03*
%TD*%
%TO.C,D77*%
X154572500Y-74000000D03*
X153427500Y-74000000D03*
%TD*%
%TO.C,D43*%
X142572500Y-65000000D03*
X141427500Y-65000000D03*
%TD*%
%TO.C,D153*%
X118572500Y-74000000D03*
X117427500Y-74000000D03*
%TD*%
%TO.C,D110*%
X109572500Y-62000000D03*
X108427500Y-62000000D03*
%TD*%
D15*
%TO.C,U6*%
X112230000Y-152100000D03*
X114770000Y-152100000D03*
X114770000Y-157900000D03*
X112230000Y-157900000D03*
%TD*%
D10*
%TO.C,D01*%
X136572500Y-53000000D03*
X135427500Y-53000000D03*
%TD*%
%TO.C,D136*%
X127572500Y-68000000D03*
X126427500Y-68000000D03*
%TD*%
D16*
%TO.C,D29*%
X75000000Y-157875000D03*
X75000000Y-156125000D03*
%TD*%
D10*
%TO.C,D56*%
X151572500Y-68000000D03*
X150427500Y-68000000D03*
%TD*%
%TO.C,D05*%
X148572500Y-53000000D03*
X147427500Y-53000000D03*
%TD*%
%TO.C,D154*%
X121572500Y-74000000D03*
X120427500Y-74000000D03*
%TD*%
%TO.C,D16*%
X151572500Y-56000000D03*
X150427500Y-56000000D03*
%TD*%
%TO.C,D151*%
X112572500Y-74000000D03*
X111427500Y-74000000D03*
%TD*%
D17*
%TO.C,C51*%
X105932500Y-152000000D03*
X107067500Y-152000000D03*
%TD*%
D10*
%TO.C,D66*%
X151572500Y-71000000D03*
X150427500Y-71000000D03*
%TD*%
%TO.C,D12*%
X139572500Y-56000000D03*
X138427500Y-56000000D03*
%TD*%
%TO.C,D76*%
X151572500Y-74000000D03*
X150427500Y-74000000D03*
%TD*%
%TO.C,D155*%
X124572500Y-74000000D03*
X123427500Y-74000000D03*
%TD*%
D18*
%TO.C,C60*%
X109500000Y-152862500D03*
X109500000Y-151137500D03*
%TD*%
D10*
%TO.C,D75*%
X148572500Y-74000000D03*
X147427500Y-74000000D03*
%TD*%
%TO.C,D67*%
X154572500Y-71000000D03*
X153427500Y-71000000D03*
%TD*%
D14*
%TO.C,R71*%
X123597500Y-152000000D03*
X122402500Y-152000000D03*
%TD*%
D10*
%TO.C,D95*%
X124572500Y-56000000D03*
X123427500Y-56000000D03*
%TD*%
%TO.C,D134*%
X121572500Y-68000000D03*
X120427500Y-68000000D03*
%TD*%
%TO.C,D145*%
X124572500Y-71000000D03*
X123427500Y-71000000D03*
%TD*%
%TO.C,D125*%
X124572500Y-65000000D03*
X123427500Y-65000000D03*
%TD*%
%TO.C,D13*%
X142572500Y-56000000D03*
X141427500Y-56000000D03*
%TD*%
%TO.C,D44*%
X145572500Y-65000000D03*
X144427500Y-65000000D03*
%TD*%
%TO.C,D34*%
X145572500Y-62000000D03*
X144427500Y-62000000D03*
%TD*%
%TO.C,D114*%
X121572500Y-62000000D03*
X120427500Y-62000000D03*
%TD*%
%TO.C,D14*%
X145572500Y-56000000D03*
X144427500Y-56000000D03*
%TD*%
%TO.C,D103*%
X118572500Y-59000000D03*
X117427500Y-59000000D03*
%TD*%
%TO.C,D53*%
X142572500Y-68000000D03*
X141427500Y-68000000D03*
%TD*%
%TO.C,D90*%
X109572500Y-56000000D03*
X108427500Y-56000000D03*
%TD*%
%TO.C,D156*%
X127572500Y-74000000D03*
X126427500Y-74000000D03*
%TD*%
D16*
%TO.C,D3*%
X74977500Y-82897500D03*
X74977500Y-81147500D03*
%TD*%
D10*
%TO.C,D62*%
X139572500Y-71000000D03*
X138427500Y-71000000D03*
%TD*%
%TO.C,D20*%
X133572500Y-59000000D03*
X132427500Y-59000000D03*
%TD*%
%TO.C,D36*%
X151572500Y-62000000D03*
X150427500Y-62000000D03*
%TD*%
%TO.C,D93*%
X118572500Y-56000000D03*
X117427500Y-56000000D03*
%TD*%
%TO.C,D60*%
X133572500Y-71000000D03*
X132427500Y-71000000D03*
%TD*%
%TO.C,D111*%
X112572500Y-62000000D03*
X111427500Y-62000000D03*
%TD*%
%TO.C,D32*%
X139572500Y-62000000D03*
X138427500Y-62000000D03*
%TD*%
%TO.C,D115*%
X124572500Y-62000000D03*
X123427500Y-62000000D03*
%TD*%
%TO.C,D30*%
X133572500Y-62000000D03*
X132427500Y-62000000D03*
%TD*%
%TO.C,D37*%
X154572500Y-62000000D03*
X153427500Y-62000000D03*
%TD*%
D19*
%TO.C,C70*%
X120137500Y-157500000D03*
X121862500Y-157500000D03*
%TD*%
D10*
%TO.C,D27*%
X154572500Y-59000000D03*
X153427500Y-59000000D03*
%TD*%
%TO.C,D07*%
X154572500Y-53000000D03*
X153427500Y-53000000D03*
%TD*%
%TO.C,D65*%
X148572500Y-71000000D03*
X147427500Y-71000000D03*
%TD*%
%TO.C,D97*%
X130572500Y-56000000D03*
X129427500Y-56000000D03*
%TD*%
%TO.C,D02*%
X139572500Y-53000000D03*
X138427500Y-53000000D03*
%TD*%
%TO.C,D141*%
X112572500Y-71000000D03*
X111427500Y-71000000D03*
%TD*%
D20*
%TO.C,D19*%
X154977500Y-142102500D03*
X154977500Y-143852500D03*
%TD*%
D13*
%TO.C,SW6*%
X148597400Y-141250001D03*
X139402600Y-141250001D03*
X148597400Y-136749999D03*
X139402600Y-136749999D03*
%TD*%
D10*
%TO.C,D133*%
X118572500Y-68000000D03*
X117427500Y-68000000D03*
%TD*%
D13*
%TO.C,SW1*%
X110597400Y-141250001D03*
X101402600Y-141250001D03*
X110597400Y-136749999D03*
X101402600Y-136749999D03*
%TD*%
D10*
%TO.C,D126*%
X127572500Y-65000000D03*
X126427500Y-65000000D03*
%TD*%
%TO.C,D06*%
X151572500Y-53000000D03*
X150427500Y-53000000D03*
%TD*%
%TO.C,D84*%
X121572500Y-53000000D03*
X120427500Y-53000000D03*
%TD*%
%TO.C,D91*%
X112572500Y-56000000D03*
X111427500Y-56000000D03*
%TD*%
%TO.C,D130*%
X109572500Y-68000000D03*
X108427500Y-68000000D03*
%TD*%
%TO.C,D17*%
X154572500Y-56000000D03*
X153427500Y-56000000D03*
%TD*%
%TO.C,D24*%
X145572500Y-59000000D03*
X144427500Y-59000000D03*
%TD*%
D13*
%TO.C,SW2*%
X136597400Y-153250001D03*
X127402600Y-153250001D03*
X136597400Y-148749999D03*
X127402600Y-148749999D03*
%TD*%
D10*
%TO.C,D35*%
X148572500Y-62000000D03*
X147427500Y-62000000D03*
%TD*%
%TO.C,D04*%
X145572500Y-53000000D03*
X144427500Y-53000000D03*
%TD*%
%TO.C,D100*%
X109572500Y-59000000D03*
X108427500Y-59000000D03*
%TD*%
%TO.C,D74*%
X145572500Y-74000000D03*
X144427500Y-74000000D03*
%TD*%
%TO.C,D70*%
X133572500Y-74000000D03*
X132427500Y-74000000D03*
%TD*%
D21*
%TO.C,R50*%
X105902500Y-150900000D03*
X107097500Y-150900000D03*
%TD*%
D10*
%TO.C,D106*%
X127572500Y-59000000D03*
X126427500Y-59000000D03*
%TD*%
%TO.C,D101*%
X112572500Y-59000000D03*
X111427500Y-59000000D03*
%TD*%
%TO.C,D132*%
X115572500Y-68000000D03*
X114427500Y-68000000D03*
%TD*%
%TO.C,D23*%
X142572500Y-59000000D03*
X141427500Y-59000000D03*
%TD*%
%TO.C,D57*%
X154572500Y-68000000D03*
X153427500Y-68000000D03*
%TD*%
%TO.C,D107*%
X130572500Y-59000000D03*
X129427500Y-59000000D03*
%TD*%
%TO.C,D123*%
X118572500Y-65000000D03*
X117427500Y-65000000D03*
%TD*%
%TO.C,D102*%
X115572500Y-59000000D03*
X114427500Y-59000000D03*
%TD*%
%TO.C,D64*%
X145572500Y-71000000D03*
X144427500Y-71000000D03*
%TD*%
%TO.C,D26*%
X151572500Y-59000000D03*
X150427500Y-59000000D03*
%TD*%
%TO.C,D42*%
X139572500Y-65000000D03*
X138427500Y-65000000D03*
%TD*%
%TO.C,D46*%
X151572500Y-65000000D03*
X150427500Y-65000000D03*
%TD*%
%TO.C,D131*%
X112572500Y-68000000D03*
X111427500Y-68000000D03*
%TD*%
%TO.C,D50*%
X133572500Y-68000000D03*
X132427500Y-68000000D03*
%TD*%
D11*
%TO.C,D161*%
X149500000Y-122925000D03*
X149500000Y-120075000D03*
%TD*%
D22*
%TO.C,C50*%
X103862500Y-152000000D03*
X102137500Y-152000000D03*
%TD*%
D10*
%TO.C,D144*%
X121572500Y-71000000D03*
X120427500Y-71000000D03*
%TD*%
%TO.C,D105*%
X124572500Y-59000000D03*
X123427500Y-59000000D03*
%TD*%
%TO.C,D116*%
X127572500Y-62000000D03*
X126427500Y-62000000D03*
%TD*%
%TO.C,D52*%
X139572500Y-68000000D03*
X138427500Y-68000000D03*
%TD*%
%TO.C,D00*%
X133572500Y-53000000D03*
X132427500Y-53000000D03*
%TD*%
%TO.C,D85*%
X124572500Y-53000000D03*
X123427500Y-53000000D03*
%TD*%
D13*
%TO.C,SW8*%
X136597400Y-129250001D03*
X127402600Y-129250001D03*
X136597400Y-124749999D03*
X127402600Y-124749999D03*
%TD*%
D10*
%TO.C,D142*%
X115572500Y-71000000D03*
X114427500Y-71000000D03*
%TD*%
%TO.C,D63*%
X142572500Y-71000000D03*
X141427500Y-71000000D03*
%TD*%
%TO.C,D140*%
X109572500Y-71000000D03*
X108427500Y-71000000D03*
%TD*%
D13*
%TO.C,SW5*%
X136597400Y-141250001D03*
X127402600Y-141250001D03*
X136597400Y-136749999D03*
X127402600Y-136749999D03*
%TD*%
D10*
%TO.C,D82*%
X115572500Y-53000000D03*
X114427500Y-53000000D03*
%TD*%
%TO.C,D47*%
X154572500Y-65000000D03*
X153427500Y-65000000D03*
%TD*%
%TO.C,D83*%
X118572500Y-53000000D03*
X117427500Y-53000000D03*
%TD*%
%TO.C,D15*%
X148572500Y-56000000D03*
X147427500Y-56000000D03*
%TD*%
%TO.C,D92*%
X115572500Y-56000000D03*
X114427500Y-56000000D03*
%TD*%
%TO.C,D41*%
X136572500Y-65000000D03*
X135427500Y-65000000D03*
%TD*%
%TO.C,D122*%
X115572500Y-65000000D03*
X114427500Y-65000000D03*
%TD*%
%TO.C,D94*%
X121572500Y-56000000D03*
X120427500Y-56000000D03*
%TD*%
D13*
%TO.C,SW4*%
X124597400Y-141250001D03*
X115402600Y-141250001D03*
X124597400Y-136749999D03*
X115402600Y-136749999D03*
%TD*%
D10*
%TO.C,D25*%
X148572500Y-59000000D03*
X147427500Y-59000000D03*
%TD*%
D21*
%TO.C,R61*%
X109902500Y-149500000D03*
X111097500Y-149500000D03*
%TD*%
D10*
%TO.C,D80*%
X109572500Y-53000000D03*
X108427500Y-53000000D03*
%TD*%
%TO.C,D135*%
X124572500Y-68000000D03*
X123427500Y-68000000D03*
%TD*%
D23*
%TO.C,R29*%
X76400000Y-81997500D03*
X76400000Y-80802500D03*
%TD*%
D24*
%TO.C,U7*%
X119595000Y-154000000D03*
X120865000Y-154000000D03*
X122135000Y-154000000D03*
X123405000Y-154000000D03*
%TD*%
D10*
%TO.C,D40*%
X133572500Y-65000000D03*
X132427500Y-65000000D03*
%TD*%
%TO.C,D120*%
X109572500Y-65000000D03*
X108427500Y-65000000D03*
%TD*%
%TO.C,D11*%
X136572500Y-56000000D03*
X135427500Y-56000000D03*
%TD*%
%TO.C,D87*%
X130572500Y-53000000D03*
X129427500Y-53000000D03*
%TD*%
%TO.C,D81*%
X112572500Y-53000000D03*
X111427500Y-53000000D03*
%TD*%
%TO.C,D127*%
X130572500Y-65000000D03*
X129427500Y-65000000D03*
%TD*%
%TO.C,D72*%
X139572500Y-74000000D03*
X138427500Y-74000000D03*
%TD*%
%TO.C,D137*%
X130572500Y-68000000D03*
X129427500Y-68000000D03*
%TD*%
D21*
%TO.C,R26*%
X76402500Y-158500000D03*
X77597500Y-158500000D03*
%TD*%
D10*
%TO.C,D54*%
X145572500Y-68000000D03*
X144427500Y-68000000D03*
%TD*%
D14*
%TO.C,R70*%
X121097500Y-152000000D03*
X119902500Y-152000000D03*
%TD*%
D10*
%TO.C,D03*%
X142572500Y-53000000D03*
X141427500Y-53000000D03*
%TD*%
D23*
%TO.C,R28*%
X155000000Y-140597500D03*
X155000000Y-139402500D03*
%TD*%
D10*
%TO.C,D10*%
X133572500Y-56000000D03*
X132427500Y-56000000D03*
%TD*%
%TO.C,D117*%
X130572500Y-62000000D03*
X129427500Y-62000000D03*
%TD*%
%TO.C,D45*%
X148572500Y-65000000D03*
X147427500Y-65000000D03*
%TD*%
%TO.C,D61*%
X136572500Y-71000000D03*
X135427500Y-71000000D03*
%TD*%
D13*
%TO.C,SW7*%
X124597400Y-129250001D03*
X115402600Y-129250001D03*
X124597400Y-124749999D03*
X115402600Y-124749999D03*
%TD*%
D10*
%TO.C,D146*%
X127572500Y-71000000D03*
X126427500Y-71000000D03*
%TD*%
%TO.C,D86*%
X127572500Y-53000000D03*
X126427500Y-53000000D03*
%TD*%
D20*
%TO.C,D28*%
X155000000Y-77625000D03*
X155000000Y-79375000D03*
%TD*%
D10*
%TO.C,D121*%
X112572500Y-65000000D03*
X111427500Y-65000000D03*
%TD*%
%TO.C,D31*%
X136572500Y-62000000D03*
X135427500Y-62000000D03*
%TD*%
%TO.C,D73*%
X142572500Y-74000000D03*
X141427500Y-74000000D03*
%TD*%
M02*
