%TF.GenerationSoftware,KiCad,Pcbnew,8.0.0-8.0.0-1~ubuntu20.04.1*%
%TF.CreationDate,2024-04-22T05:37:07+08:00*%
%TF.ProjectId,pcb_badge,7063625f-6261-4646-9765-2e6b69636164,rev?*%
%TF.SameCoordinates,Original*%
%TF.FileFunction,Drillmap*%
%TF.FilePolarity,Positive*%
%FSLAX45Y45*%
G04 Gerber Fmt 4.5, Leading zero omitted, Abs format (unit mm)*
G04 Created by KiCad (PCBNEW 8.0.0-8.0.0-1~ubuntu20.04.1) date 2024-04-22 05:37:07*
%MOMM*%
%LPD*%
G01*
G04 APERTURE LIST*
%ADD10C,0.100000*%
%ADD11C,0.200000*%
G04 APERTURE END LIST*
D10*
X13950000Y-15600000D02*
G75*
G02*
X13950000Y-15800000I0J-100000D01*
G01*
X9050000Y-15800000D02*
X9850000Y-15800000D01*
X9050000Y-15800000D02*
G75*
G02*
X9050000Y-15600000I0J100000D01*
G01*
X8900000Y-3000000D02*
X15600000Y-3000000D01*
X7400000Y-4500000D02*
X7400000Y-16000000D01*
X13150000Y-15600000D02*
X13950000Y-15600000D01*
X13150000Y-15800000D02*
X13950000Y-15800000D01*
X13150000Y-15800000D02*
G75*
G02*
X13150000Y-15600000I0J100000D01*
G01*
X14100000Y-16000000D02*
X15600000Y-14500000D01*
X9050000Y-15600000D02*
X9850000Y-15600000D01*
X9850000Y-15600000D02*
G75*
G02*
X9850000Y-15800000I0J-100000D01*
G01*
X7400000Y-16000000D02*
X14100000Y-16000000D01*
X15600000Y-14500000D02*
X15600000Y-3000000D01*
X8900000Y-3000000D02*
X7400000Y-4500000D01*
D11*
D10*
X8038750Y-6977750D02*
X8113750Y-7052750D01*
X8113750Y-6977750D02*
X8038750Y-7052750D01*
X8038750Y-7557750D02*
X8113750Y-7632750D01*
X8113750Y-7557750D02*
X8038750Y-7632750D01*
D11*
X7655777Y-16316484D02*
X7655777Y-16116484D01*
X7655777Y-16116484D02*
X7703396Y-16116484D01*
X7703396Y-16116484D02*
X7731967Y-16126008D01*
X7731967Y-16126008D02*
X7751015Y-16145055D01*
X7751015Y-16145055D02*
X7760539Y-16164103D01*
X7760539Y-16164103D02*
X7770062Y-16202198D01*
X7770062Y-16202198D02*
X7770062Y-16230769D01*
X7770062Y-16230769D02*
X7760539Y-16268865D01*
X7760539Y-16268865D02*
X7751015Y-16287912D01*
X7751015Y-16287912D02*
X7731967Y-16306960D01*
X7731967Y-16306960D02*
X7703396Y-16316484D01*
X7703396Y-16316484D02*
X7655777Y-16316484D01*
X7855777Y-16316484D02*
X7855777Y-16183150D01*
X7855777Y-16221246D02*
X7865301Y-16202198D01*
X7865301Y-16202198D02*
X7874824Y-16192674D01*
X7874824Y-16192674D02*
X7893872Y-16183150D01*
X7893872Y-16183150D02*
X7912920Y-16183150D01*
X7979586Y-16316484D02*
X7979586Y-16183150D01*
X7979586Y-16116484D02*
X7970062Y-16126008D01*
X7970062Y-16126008D02*
X7979586Y-16135531D01*
X7979586Y-16135531D02*
X7989110Y-16126008D01*
X7989110Y-16126008D02*
X7979586Y-16116484D01*
X7979586Y-16116484D02*
X7979586Y-16135531D01*
X8103396Y-16316484D02*
X8084348Y-16306960D01*
X8084348Y-16306960D02*
X8074824Y-16287912D01*
X8074824Y-16287912D02*
X8074824Y-16116484D01*
X8208158Y-16316484D02*
X8189110Y-16306960D01*
X8189110Y-16306960D02*
X8179586Y-16287912D01*
X8179586Y-16287912D02*
X8179586Y-16116484D01*
X8436729Y-16316484D02*
X8436729Y-16116484D01*
X8436729Y-16116484D02*
X8503396Y-16259341D01*
X8503396Y-16259341D02*
X8570063Y-16116484D01*
X8570063Y-16116484D02*
X8570063Y-16316484D01*
X8751015Y-16316484D02*
X8751015Y-16211722D01*
X8751015Y-16211722D02*
X8741491Y-16192674D01*
X8741491Y-16192674D02*
X8722444Y-16183150D01*
X8722444Y-16183150D02*
X8684348Y-16183150D01*
X8684348Y-16183150D02*
X8665301Y-16192674D01*
X8751015Y-16306960D02*
X8731967Y-16316484D01*
X8731967Y-16316484D02*
X8684348Y-16316484D01*
X8684348Y-16316484D02*
X8665301Y-16306960D01*
X8665301Y-16306960D02*
X8655777Y-16287912D01*
X8655777Y-16287912D02*
X8655777Y-16268865D01*
X8655777Y-16268865D02*
X8665301Y-16249817D01*
X8665301Y-16249817D02*
X8684348Y-16240293D01*
X8684348Y-16240293D02*
X8731967Y-16240293D01*
X8731967Y-16240293D02*
X8751015Y-16230769D01*
X8846253Y-16183150D02*
X8846253Y-16383150D01*
X8846253Y-16192674D02*
X8865301Y-16183150D01*
X8865301Y-16183150D02*
X8903396Y-16183150D01*
X8903396Y-16183150D02*
X8922444Y-16192674D01*
X8922444Y-16192674D02*
X8931967Y-16202198D01*
X8931967Y-16202198D02*
X8941491Y-16221246D01*
X8941491Y-16221246D02*
X8941491Y-16278388D01*
X8941491Y-16278388D02*
X8931967Y-16297436D01*
X8931967Y-16297436D02*
X8922444Y-16306960D01*
X8922444Y-16306960D02*
X8903396Y-16316484D01*
X8903396Y-16316484D02*
X8865301Y-16316484D01*
X8865301Y-16316484D02*
X8846253Y-16306960D01*
X9027205Y-16297436D02*
X9036729Y-16306960D01*
X9036729Y-16306960D02*
X9027205Y-16316484D01*
X9027205Y-16316484D02*
X9017682Y-16306960D01*
X9017682Y-16306960D02*
X9027205Y-16297436D01*
X9027205Y-16297436D02*
X9027205Y-16316484D01*
X9027205Y-16192674D02*
X9036729Y-16202198D01*
X9036729Y-16202198D02*
X9027205Y-16211722D01*
X9027205Y-16211722D02*
X9017682Y-16202198D01*
X9017682Y-16202198D02*
X9027205Y-16192674D01*
X9027205Y-16192674D02*
X9027205Y-16211722D01*
D10*
X7320000Y-16607500D02*
X7395000Y-16682500D01*
X7395000Y-16607500D02*
X7320000Y-16682500D01*
D11*
X7693872Y-16536484D02*
X7712920Y-16536484D01*
X7712920Y-16536484D02*
X7731967Y-16546008D01*
X7731967Y-16546008D02*
X7741491Y-16555531D01*
X7741491Y-16555531D02*
X7751015Y-16574579D01*
X7751015Y-16574579D02*
X7760539Y-16612674D01*
X7760539Y-16612674D02*
X7760539Y-16660293D01*
X7760539Y-16660293D02*
X7751015Y-16698388D01*
X7751015Y-16698388D02*
X7741491Y-16717436D01*
X7741491Y-16717436D02*
X7731967Y-16726960D01*
X7731967Y-16726960D02*
X7712920Y-16736484D01*
X7712920Y-16736484D02*
X7693872Y-16736484D01*
X7693872Y-16736484D02*
X7674824Y-16726960D01*
X7674824Y-16726960D02*
X7665301Y-16717436D01*
X7665301Y-16717436D02*
X7655777Y-16698388D01*
X7655777Y-16698388D02*
X7646253Y-16660293D01*
X7646253Y-16660293D02*
X7646253Y-16612674D01*
X7646253Y-16612674D02*
X7655777Y-16574579D01*
X7655777Y-16574579D02*
X7665301Y-16555531D01*
X7665301Y-16555531D02*
X7674824Y-16546008D01*
X7674824Y-16546008D02*
X7693872Y-16536484D01*
X7846253Y-16717436D02*
X7855777Y-16726960D01*
X7855777Y-16726960D02*
X7846253Y-16736484D01*
X7846253Y-16736484D02*
X7836729Y-16726960D01*
X7836729Y-16726960D02*
X7846253Y-16717436D01*
X7846253Y-16717436D02*
X7846253Y-16736484D01*
X7922443Y-16536484D02*
X8055777Y-16536484D01*
X8055777Y-16536484D02*
X7970062Y-16736484D01*
X8227205Y-16536484D02*
X8131967Y-16536484D01*
X8131967Y-16536484D02*
X8122443Y-16631722D01*
X8122443Y-16631722D02*
X8131967Y-16622198D01*
X8131967Y-16622198D02*
X8151015Y-16612674D01*
X8151015Y-16612674D02*
X8198634Y-16612674D01*
X8198634Y-16612674D02*
X8217682Y-16622198D01*
X8217682Y-16622198D02*
X8227205Y-16631722D01*
X8227205Y-16631722D02*
X8236729Y-16650769D01*
X8236729Y-16650769D02*
X8236729Y-16698388D01*
X8236729Y-16698388D02*
X8227205Y-16717436D01*
X8227205Y-16717436D02*
X8217682Y-16726960D01*
X8217682Y-16726960D02*
X8198634Y-16736484D01*
X8198634Y-16736484D02*
X8151015Y-16736484D01*
X8151015Y-16736484D02*
X8131967Y-16726960D01*
X8131967Y-16726960D02*
X8122443Y-16717436D01*
X8360539Y-16536484D02*
X8379586Y-16536484D01*
X8379586Y-16536484D02*
X8398634Y-16546008D01*
X8398634Y-16546008D02*
X8408158Y-16555531D01*
X8408158Y-16555531D02*
X8417682Y-16574579D01*
X8417682Y-16574579D02*
X8427205Y-16612674D01*
X8427205Y-16612674D02*
X8427205Y-16660293D01*
X8427205Y-16660293D02*
X8417682Y-16698388D01*
X8417682Y-16698388D02*
X8408158Y-16717436D01*
X8408158Y-16717436D02*
X8398634Y-16726960D01*
X8398634Y-16726960D02*
X8379586Y-16736484D01*
X8379586Y-16736484D02*
X8360539Y-16736484D01*
X8360539Y-16736484D02*
X8341491Y-16726960D01*
X8341491Y-16726960D02*
X8331967Y-16717436D01*
X8331967Y-16717436D02*
X8322443Y-16698388D01*
X8322443Y-16698388D02*
X8312920Y-16660293D01*
X8312920Y-16660293D02*
X8312920Y-16612674D01*
X8312920Y-16612674D02*
X8322443Y-16574579D01*
X8322443Y-16574579D02*
X8331967Y-16555531D01*
X8331967Y-16555531D02*
X8341491Y-16546008D01*
X8341491Y-16546008D02*
X8360539Y-16536484D01*
X8512920Y-16736484D02*
X8512920Y-16603150D01*
X8512920Y-16622198D02*
X8522444Y-16612674D01*
X8522444Y-16612674D02*
X8541491Y-16603150D01*
X8541491Y-16603150D02*
X8570063Y-16603150D01*
X8570063Y-16603150D02*
X8589110Y-16612674D01*
X8589110Y-16612674D02*
X8598634Y-16631722D01*
X8598634Y-16631722D02*
X8598634Y-16736484D01*
X8598634Y-16631722D02*
X8608158Y-16612674D01*
X8608158Y-16612674D02*
X8627205Y-16603150D01*
X8627205Y-16603150D02*
X8655777Y-16603150D01*
X8655777Y-16603150D02*
X8674825Y-16612674D01*
X8674825Y-16612674D02*
X8684348Y-16631722D01*
X8684348Y-16631722D02*
X8684348Y-16736484D01*
X8779586Y-16736484D02*
X8779586Y-16603150D01*
X8779586Y-16622198D02*
X8789110Y-16612674D01*
X8789110Y-16612674D02*
X8808158Y-16603150D01*
X8808158Y-16603150D02*
X8836729Y-16603150D01*
X8836729Y-16603150D02*
X8855777Y-16612674D01*
X8855777Y-16612674D02*
X8865301Y-16631722D01*
X8865301Y-16631722D02*
X8865301Y-16736484D01*
X8865301Y-16631722D02*
X8874825Y-16612674D01*
X8874825Y-16612674D02*
X8893872Y-16603150D01*
X8893872Y-16603150D02*
X8922444Y-16603150D01*
X8922444Y-16603150D02*
X8941491Y-16612674D01*
X8941491Y-16612674D02*
X8951015Y-16631722D01*
X8951015Y-16631722D02*
X8951015Y-16736484D01*
X9341491Y-16526960D02*
X9170063Y-16784103D01*
X9598634Y-16536484D02*
X9617682Y-16536484D01*
X9617682Y-16536484D02*
X9636729Y-16546008D01*
X9636729Y-16546008D02*
X9646253Y-16555531D01*
X9646253Y-16555531D02*
X9655777Y-16574579D01*
X9655777Y-16574579D02*
X9665301Y-16612674D01*
X9665301Y-16612674D02*
X9665301Y-16660293D01*
X9665301Y-16660293D02*
X9655777Y-16698388D01*
X9655777Y-16698388D02*
X9646253Y-16717436D01*
X9646253Y-16717436D02*
X9636729Y-16726960D01*
X9636729Y-16726960D02*
X9617682Y-16736484D01*
X9617682Y-16736484D02*
X9598634Y-16736484D01*
X9598634Y-16736484D02*
X9579587Y-16726960D01*
X9579587Y-16726960D02*
X9570063Y-16717436D01*
X9570063Y-16717436D02*
X9560539Y-16698388D01*
X9560539Y-16698388D02*
X9551015Y-16660293D01*
X9551015Y-16660293D02*
X9551015Y-16612674D01*
X9551015Y-16612674D02*
X9560539Y-16574579D01*
X9560539Y-16574579D02*
X9570063Y-16555531D01*
X9570063Y-16555531D02*
X9579587Y-16546008D01*
X9579587Y-16546008D02*
X9598634Y-16536484D01*
X9751015Y-16717436D02*
X9760539Y-16726960D01*
X9760539Y-16726960D02*
X9751015Y-16736484D01*
X9751015Y-16736484D02*
X9741491Y-16726960D01*
X9741491Y-16726960D02*
X9751015Y-16717436D01*
X9751015Y-16717436D02*
X9751015Y-16736484D01*
X9884348Y-16536484D02*
X9903396Y-16536484D01*
X9903396Y-16536484D02*
X9922444Y-16546008D01*
X9922444Y-16546008D02*
X9931968Y-16555531D01*
X9931968Y-16555531D02*
X9941491Y-16574579D01*
X9941491Y-16574579D02*
X9951015Y-16612674D01*
X9951015Y-16612674D02*
X9951015Y-16660293D01*
X9951015Y-16660293D02*
X9941491Y-16698388D01*
X9941491Y-16698388D02*
X9931968Y-16717436D01*
X9931968Y-16717436D02*
X9922444Y-16726960D01*
X9922444Y-16726960D02*
X9903396Y-16736484D01*
X9903396Y-16736484D02*
X9884348Y-16736484D01*
X9884348Y-16736484D02*
X9865301Y-16726960D01*
X9865301Y-16726960D02*
X9855777Y-16717436D01*
X9855777Y-16717436D02*
X9846253Y-16698388D01*
X9846253Y-16698388D02*
X9836729Y-16660293D01*
X9836729Y-16660293D02*
X9836729Y-16612674D01*
X9836729Y-16612674D02*
X9846253Y-16574579D01*
X9846253Y-16574579D02*
X9855777Y-16555531D01*
X9855777Y-16555531D02*
X9865301Y-16546008D01*
X9865301Y-16546008D02*
X9884348Y-16536484D01*
X10027206Y-16555531D02*
X10036729Y-16546008D01*
X10036729Y-16546008D02*
X10055777Y-16536484D01*
X10055777Y-16536484D02*
X10103396Y-16536484D01*
X10103396Y-16536484D02*
X10122444Y-16546008D01*
X10122444Y-16546008D02*
X10131968Y-16555531D01*
X10131968Y-16555531D02*
X10141491Y-16574579D01*
X10141491Y-16574579D02*
X10141491Y-16593627D01*
X10141491Y-16593627D02*
X10131968Y-16622198D01*
X10131968Y-16622198D02*
X10017682Y-16736484D01*
X10017682Y-16736484D02*
X10141491Y-16736484D01*
X10236729Y-16736484D02*
X10274825Y-16736484D01*
X10274825Y-16736484D02*
X10293872Y-16726960D01*
X10293872Y-16726960D02*
X10303396Y-16717436D01*
X10303396Y-16717436D02*
X10322444Y-16688865D01*
X10322444Y-16688865D02*
X10331968Y-16650769D01*
X10331968Y-16650769D02*
X10331968Y-16574579D01*
X10331968Y-16574579D02*
X10322444Y-16555531D01*
X10322444Y-16555531D02*
X10312920Y-16546008D01*
X10312920Y-16546008D02*
X10293872Y-16536484D01*
X10293872Y-16536484D02*
X10255777Y-16536484D01*
X10255777Y-16536484D02*
X10236729Y-16546008D01*
X10236729Y-16546008D02*
X10227206Y-16555531D01*
X10227206Y-16555531D02*
X10217682Y-16574579D01*
X10217682Y-16574579D02*
X10217682Y-16622198D01*
X10217682Y-16622198D02*
X10227206Y-16641246D01*
X10227206Y-16641246D02*
X10236729Y-16650769D01*
X10236729Y-16650769D02*
X10255777Y-16660293D01*
X10255777Y-16660293D02*
X10293872Y-16660293D01*
X10293872Y-16660293D02*
X10312920Y-16650769D01*
X10312920Y-16650769D02*
X10322444Y-16641246D01*
X10322444Y-16641246D02*
X10331968Y-16622198D01*
X10512920Y-16536484D02*
X10417682Y-16536484D01*
X10417682Y-16536484D02*
X10408158Y-16631722D01*
X10408158Y-16631722D02*
X10417682Y-16622198D01*
X10417682Y-16622198D02*
X10436729Y-16612674D01*
X10436729Y-16612674D02*
X10484349Y-16612674D01*
X10484349Y-16612674D02*
X10503396Y-16622198D01*
X10503396Y-16622198D02*
X10512920Y-16631722D01*
X10512920Y-16631722D02*
X10522444Y-16650769D01*
X10522444Y-16650769D02*
X10522444Y-16698388D01*
X10522444Y-16698388D02*
X10512920Y-16717436D01*
X10512920Y-16717436D02*
X10503396Y-16726960D01*
X10503396Y-16726960D02*
X10484349Y-16736484D01*
X10484349Y-16736484D02*
X10436729Y-16736484D01*
X10436729Y-16736484D02*
X10417682Y-16726960D01*
X10417682Y-16726960D02*
X10408158Y-16717436D01*
X10598634Y-16536484D02*
X10598634Y-16574579D01*
X10674825Y-16536484D02*
X10674825Y-16574579D01*
X10970063Y-16812674D02*
X10960539Y-16803150D01*
X10960539Y-16803150D02*
X10941491Y-16774579D01*
X10941491Y-16774579D02*
X10931968Y-16755531D01*
X10931968Y-16755531D02*
X10922444Y-16726960D01*
X10922444Y-16726960D02*
X10912920Y-16679341D01*
X10912920Y-16679341D02*
X10912920Y-16641246D01*
X10912920Y-16641246D02*
X10922444Y-16593627D01*
X10922444Y-16593627D02*
X10931968Y-16565055D01*
X10931968Y-16565055D02*
X10941491Y-16546008D01*
X10941491Y-16546008D02*
X10960539Y-16517436D01*
X10960539Y-16517436D02*
X10970063Y-16507912D01*
X11036730Y-16555531D02*
X11046253Y-16546008D01*
X11046253Y-16546008D02*
X11065301Y-16536484D01*
X11065301Y-16536484D02*
X11112920Y-16536484D01*
X11112920Y-16536484D02*
X11131968Y-16546008D01*
X11131968Y-16546008D02*
X11141491Y-16555531D01*
X11141491Y-16555531D02*
X11151015Y-16574579D01*
X11151015Y-16574579D02*
X11151015Y-16593627D01*
X11151015Y-16593627D02*
X11141491Y-16622198D01*
X11141491Y-16622198D02*
X11027206Y-16736484D01*
X11027206Y-16736484D02*
X11151015Y-16736484D01*
X11389110Y-16736484D02*
X11389110Y-16536484D01*
X11474825Y-16736484D02*
X11474825Y-16631722D01*
X11474825Y-16631722D02*
X11465301Y-16612674D01*
X11465301Y-16612674D02*
X11446253Y-16603150D01*
X11446253Y-16603150D02*
X11417682Y-16603150D01*
X11417682Y-16603150D02*
X11398634Y-16612674D01*
X11398634Y-16612674D02*
X11389110Y-16622198D01*
X11598634Y-16736484D02*
X11579587Y-16726960D01*
X11579587Y-16726960D02*
X11570063Y-16717436D01*
X11570063Y-16717436D02*
X11560539Y-16698388D01*
X11560539Y-16698388D02*
X11560539Y-16641246D01*
X11560539Y-16641246D02*
X11570063Y-16622198D01*
X11570063Y-16622198D02*
X11579587Y-16612674D01*
X11579587Y-16612674D02*
X11598634Y-16603150D01*
X11598634Y-16603150D02*
X11627206Y-16603150D01*
X11627206Y-16603150D02*
X11646253Y-16612674D01*
X11646253Y-16612674D02*
X11655777Y-16622198D01*
X11655777Y-16622198D02*
X11665301Y-16641246D01*
X11665301Y-16641246D02*
X11665301Y-16698388D01*
X11665301Y-16698388D02*
X11655777Y-16717436D01*
X11655777Y-16717436D02*
X11646253Y-16726960D01*
X11646253Y-16726960D02*
X11627206Y-16736484D01*
X11627206Y-16736484D02*
X11598634Y-16736484D01*
X11779587Y-16736484D02*
X11760539Y-16726960D01*
X11760539Y-16726960D02*
X11751015Y-16707912D01*
X11751015Y-16707912D02*
X11751015Y-16536484D01*
X11931968Y-16726960D02*
X11912920Y-16736484D01*
X11912920Y-16736484D02*
X11874825Y-16736484D01*
X11874825Y-16736484D02*
X11855777Y-16726960D01*
X11855777Y-16726960D02*
X11846253Y-16707912D01*
X11846253Y-16707912D02*
X11846253Y-16631722D01*
X11846253Y-16631722D02*
X11855777Y-16612674D01*
X11855777Y-16612674D02*
X11874825Y-16603150D01*
X11874825Y-16603150D02*
X11912920Y-16603150D01*
X11912920Y-16603150D02*
X11931968Y-16612674D01*
X11931968Y-16612674D02*
X11941491Y-16631722D01*
X11941491Y-16631722D02*
X11941491Y-16650769D01*
X11941491Y-16650769D02*
X11846253Y-16669817D01*
X12017682Y-16726960D02*
X12036730Y-16736484D01*
X12036730Y-16736484D02*
X12074825Y-16736484D01*
X12074825Y-16736484D02*
X12093872Y-16726960D01*
X12093872Y-16726960D02*
X12103396Y-16707912D01*
X12103396Y-16707912D02*
X12103396Y-16698388D01*
X12103396Y-16698388D02*
X12093872Y-16679341D01*
X12093872Y-16679341D02*
X12074825Y-16669817D01*
X12074825Y-16669817D02*
X12046253Y-16669817D01*
X12046253Y-16669817D02*
X12027206Y-16660293D01*
X12027206Y-16660293D02*
X12017682Y-16641246D01*
X12017682Y-16641246D02*
X12017682Y-16631722D01*
X12017682Y-16631722D02*
X12027206Y-16612674D01*
X12027206Y-16612674D02*
X12046253Y-16603150D01*
X12046253Y-16603150D02*
X12074825Y-16603150D01*
X12074825Y-16603150D02*
X12093872Y-16612674D01*
X12170063Y-16812674D02*
X12179587Y-16803150D01*
X12179587Y-16803150D02*
X12198634Y-16774579D01*
X12198634Y-16774579D02*
X12208158Y-16755531D01*
X12208158Y-16755531D02*
X12217682Y-16726960D01*
X12217682Y-16726960D02*
X12227206Y-16679341D01*
X12227206Y-16679341D02*
X12227206Y-16641246D01*
X12227206Y-16641246D02*
X12217682Y-16593627D01*
X12217682Y-16593627D02*
X12208158Y-16565055D01*
X12208158Y-16565055D02*
X12198634Y-16546008D01*
X12198634Y-16546008D02*
X12179587Y-16517436D01*
X12179587Y-16517436D02*
X12170063Y-16507912D01*
X12531968Y-16812674D02*
X12522444Y-16803150D01*
X12522444Y-16803150D02*
X12503396Y-16774579D01*
X12503396Y-16774579D02*
X12493872Y-16755531D01*
X12493872Y-16755531D02*
X12484349Y-16726960D01*
X12484349Y-16726960D02*
X12474825Y-16679341D01*
X12474825Y-16679341D02*
X12474825Y-16641246D01*
X12474825Y-16641246D02*
X12484349Y-16593627D01*
X12484349Y-16593627D02*
X12493872Y-16565055D01*
X12493872Y-16565055D02*
X12503396Y-16546008D01*
X12503396Y-16546008D02*
X12522444Y-16517436D01*
X12522444Y-16517436D02*
X12531968Y-16507912D01*
X12608158Y-16603150D02*
X12608158Y-16736484D01*
X12608158Y-16622198D02*
X12617682Y-16612674D01*
X12617682Y-16612674D02*
X12636730Y-16603150D01*
X12636730Y-16603150D02*
X12665301Y-16603150D01*
X12665301Y-16603150D02*
X12684349Y-16612674D01*
X12684349Y-16612674D02*
X12693872Y-16631722D01*
X12693872Y-16631722D02*
X12693872Y-16736484D01*
X12817682Y-16736484D02*
X12798634Y-16726960D01*
X12798634Y-16726960D02*
X12789111Y-16717436D01*
X12789111Y-16717436D02*
X12779587Y-16698388D01*
X12779587Y-16698388D02*
X12779587Y-16641246D01*
X12779587Y-16641246D02*
X12789111Y-16622198D01*
X12789111Y-16622198D02*
X12798634Y-16612674D01*
X12798634Y-16612674D02*
X12817682Y-16603150D01*
X12817682Y-16603150D02*
X12846253Y-16603150D01*
X12846253Y-16603150D02*
X12865301Y-16612674D01*
X12865301Y-16612674D02*
X12874825Y-16622198D01*
X12874825Y-16622198D02*
X12884349Y-16641246D01*
X12884349Y-16641246D02*
X12884349Y-16698388D01*
X12884349Y-16698388D02*
X12874825Y-16717436D01*
X12874825Y-16717436D02*
X12865301Y-16726960D01*
X12865301Y-16726960D02*
X12846253Y-16736484D01*
X12846253Y-16736484D02*
X12817682Y-16736484D01*
X12941492Y-16603150D02*
X13017682Y-16603150D01*
X12970063Y-16536484D02*
X12970063Y-16707912D01*
X12970063Y-16707912D02*
X12979587Y-16726960D01*
X12979587Y-16726960D02*
X12998634Y-16736484D01*
X12998634Y-16736484D02*
X13017682Y-16736484D01*
X13236730Y-16603150D02*
X13236730Y-16803150D01*
X13236730Y-16612674D02*
X13255777Y-16603150D01*
X13255777Y-16603150D02*
X13293873Y-16603150D01*
X13293873Y-16603150D02*
X13312920Y-16612674D01*
X13312920Y-16612674D02*
X13322444Y-16622198D01*
X13322444Y-16622198D02*
X13331968Y-16641246D01*
X13331968Y-16641246D02*
X13331968Y-16698388D01*
X13331968Y-16698388D02*
X13322444Y-16717436D01*
X13322444Y-16717436D02*
X13312920Y-16726960D01*
X13312920Y-16726960D02*
X13293873Y-16736484D01*
X13293873Y-16736484D02*
X13255777Y-16736484D01*
X13255777Y-16736484D02*
X13236730Y-16726960D01*
X13446253Y-16736484D02*
X13427206Y-16726960D01*
X13427206Y-16726960D02*
X13417682Y-16707912D01*
X13417682Y-16707912D02*
X13417682Y-16536484D01*
X13608158Y-16736484D02*
X13608158Y-16631722D01*
X13608158Y-16631722D02*
X13598634Y-16612674D01*
X13598634Y-16612674D02*
X13579587Y-16603150D01*
X13579587Y-16603150D02*
X13541492Y-16603150D01*
X13541492Y-16603150D02*
X13522444Y-16612674D01*
X13608158Y-16726960D02*
X13589111Y-16736484D01*
X13589111Y-16736484D02*
X13541492Y-16736484D01*
X13541492Y-16736484D02*
X13522444Y-16726960D01*
X13522444Y-16726960D02*
X13512920Y-16707912D01*
X13512920Y-16707912D02*
X13512920Y-16688865D01*
X13512920Y-16688865D02*
X13522444Y-16669817D01*
X13522444Y-16669817D02*
X13541492Y-16660293D01*
X13541492Y-16660293D02*
X13589111Y-16660293D01*
X13589111Y-16660293D02*
X13608158Y-16650769D01*
X13674825Y-16603150D02*
X13751015Y-16603150D01*
X13703396Y-16536484D02*
X13703396Y-16707912D01*
X13703396Y-16707912D02*
X13712920Y-16726960D01*
X13712920Y-16726960D02*
X13731968Y-16736484D01*
X13731968Y-16736484D02*
X13751015Y-16736484D01*
X13893873Y-16726960D02*
X13874825Y-16736484D01*
X13874825Y-16736484D02*
X13836730Y-16736484D01*
X13836730Y-16736484D02*
X13817682Y-16726960D01*
X13817682Y-16726960D02*
X13808158Y-16707912D01*
X13808158Y-16707912D02*
X13808158Y-16631722D01*
X13808158Y-16631722D02*
X13817682Y-16612674D01*
X13817682Y-16612674D02*
X13836730Y-16603150D01*
X13836730Y-16603150D02*
X13874825Y-16603150D01*
X13874825Y-16603150D02*
X13893873Y-16612674D01*
X13893873Y-16612674D02*
X13903396Y-16631722D01*
X13903396Y-16631722D02*
X13903396Y-16650769D01*
X13903396Y-16650769D02*
X13808158Y-16669817D01*
X14074825Y-16736484D02*
X14074825Y-16536484D01*
X14074825Y-16726960D02*
X14055777Y-16736484D01*
X14055777Y-16736484D02*
X14017682Y-16736484D01*
X14017682Y-16736484D02*
X13998634Y-16726960D01*
X13998634Y-16726960D02*
X13989111Y-16717436D01*
X13989111Y-16717436D02*
X13979587Y-16698388D01*
X13979587Y-16698388D02*
X13979587Y-16641246D01*
X13979587Y-16641246D02*
X13989111Y-16622198D01*
X13989111Y-16622198D02*
X13998634Y-16612674D01*
X13998634Y-16612674D02*
X14017682Y-16603150D01*
X14017682Y-16603150D02*
X14055777Y-16603150D01*
X14055777Y-16603150D02*
X14074825Y-16612674D01*
X14151015Y-16812674D02*
X14160539Y-16803150D01*
X14160539Y-16803150D02*
X14179587Y-16774579D01*
X14179587Y-16774579D02*
X14189111Y-16755531D01*
X14189111Y-16755531D02*
X14198634Y-16726960D01*
X14198634Y-16726960D02*
X14208158Y-16679341D01*
X14208158Y-16679341D02*
X14208158Y-16641246D01*
X14208158Y-16641246D02*
X14198634Y-16593627D01*
X14198634Y-16593627D02*
X14189111Y-16565055D01*
X14189111Y-16565055D02*
X14179587Y-16546008D01*
X14179587Y-16546008D02*
X14160539Y-16517436D01*
X14160539Y-16517436D02*
X14151015Y-16507912D01*
M02*
