%TF.GenerationSoftware,KiCad,Pcbnew,8.0.0-8.0.0-1~ubuntu20.04.1*%
%TF.CreationDate,2024-03-13T13:13:23+08:00*%
%TF.ProjectId,pcb_badge,7063625f-6261-4646-9765-2e6b69636164,rev?*%
%TF.SameCoordinates,Original*%
%TF.FileFunction,Copper,L1,Top*%
%TF.FilePolarity,Positive*%
%FSLAX46Y46*%
G04 Gerber Fmt 4.6, Leading zero omitted, Abs format (unit mm)*
G04 Created by KiCad (PCBNEW 8.0.0-8.0.0-1~ubuntu20.04.1) date 2024-03-13 13:13:23*
%MOMM*%
%LPD*%
G01*
G04 APERTURE LIST*
G04 Aperture macros list*
%AMRoundRect*
0 Rectangle with rounded corners*
0 $1 Rounding radius*
0 $2 $3 $4 $5 $6 $7 $8 $9 X,Y pos of 4 corners*
0 Add a 4 corners polygon primitive as box body*
4,1,4,$2,$3,$4,$5,$6,$7,$8,$9,$2,$3,0*
0 Add four circle primitives for the rounded corners*
1,1,$1+$1,$2,$3*
1,1,$1+$1,$4,$5*
1,1,$1+$1,$6,$7*
1,1,$1+$1,$8,$9*
0 Add four rect primitives between the rounded corners*
20,1,$1+$1,$2,$3,$4,$5,0*
20,1,$1+$1,$4,$5,$6,$7,0*
20,1,$1+$1,$6,$7,$8,$9,0*
20,1,$1+$1,$8,$9,$2,$3,0*%
G04 Aperture macros list end*
%TA.AperFunction,SMDPad,CuDef*%
%ADD10RoundRect,0.160000X0.160000X-0.197500X0.160000X0.197500X-0.160000X0.197500X-0.160000X-0.197500X0*%
%TD*%
%TA.AperFunction,SMDPad,CuDef*%
%ADD11R,1.524000X0.762000*%
%TD*%
%TA.AperFunction,ComponentPad*%
%ADD12R,1.700000X1.700000*%
%TD*%
%TA.AperFunction,ComponentPad*%
%ADD13O,1.700000X1.700000*%
%TD*%
%TA.AperFunction,SMDPad,CuDef*%
%ADD14RoundRect,0.155000X0.155000X-0.212500X0.155000X0.212500X-0.155000X0.212500X-0.155000X-0.212500X0*%
%TD*%
%TA.AperFunction,SMDPad,CuDef*%
%ADD15RoundRect,0.150000X-0.150000X0.587500X-0.150000X-0.587500X0.150000X-0.587500X0.150000X0.587500X0*%
%TD*%
%TA.AperFunction,SMDPad,CuDef*%
%ADD16RoundRect,0.075000X0.075000X-0.662500X0.075000X0.662500X-0.075000X0.662500X-0.075000X-0.662500X0*%
%TD*%
%TA.AperFunction,SMDPad,CuDef*%
%ADD17RoundRect,0.075000X0.662500X-0.075000X0.662500X0.075000X-0.662500X0.075000X-0.662500X-0.075000X0*%
%TD*%
%TA.AperFunction,SMDPad,CuDef*%
%ADD18RoundRect,0.160000X-0.222500X-0.160000X0.222500X-0.160000X0.222500X0.160000X-0.222500X0.160000X0*%
%TD*%
%TA.AperFunction,SMDPad,CuDef*%
%ADD19RoundRect,0.250000X-0.250000X-0.250000X0.250000X-0.250000X0.250000X0.250000X-0.250000X0.250000X0*%
%TD*%
%TA.AperFunction,SMDPad,CuDef*%
%ADD20RoundRect,0.160000X-0.197500X-0.160000X0.197500X-0.160000X0.197500X0.160000X-0.197500X0.160000X0*%
%TD*%
%TA.AperFunction,SMDPad,CuDef*%
%ADD21RoundRect,0.160000X-0.160000X0.197500X-0.160000X-0.197500X0.160000X-0.197500X0.160000X0.197500X0*%
%TD*%
%TA.AperFunction,SMDPad,CuDef*%
%ADD22RoundRect,0.155000X0.212500X0.155000X-0.212500X0.155000X-0.212500X-0.155000X0.212500X-0.155000X0*%
%TD*%
%TA.AperFunction,SMDPad,CuDef*%
%ADD23RoundRect,0.237500X-0.300000X-0.237500X0.300000X-0.237500X0.300000X0.237500X-0.300000X0.237500X0*%
%TD*%
%TA.AperFunction,SMDPad,CuDef*%
%ADD24RoundRect,0.155000X-0.212500X-0.155000X0.212500X-0.155000X0.212500X0.155000X-0.212500X0.155000X0*%
%TD*%
%TA.AperFunction,ComponentPad*%
%ADD25C,1.270000*%
%TD*%
%TA.AperFunction,ComponentPad*%
%ADD26R,3.000000X3.000000*%
%TD*%
%TA.AperFunction,ComponentPad*%
%ADD27C,3.000000*%
%TD*%
%TA.AperFunction,SMDPad,CuDef*%
%ADD28RoundRect,0.237500X-0.287500X-0.237500X0.287500X-0.237500X0.287500X0.237500X-0.287500X0.237500X0*%
%TD*%
%TA.AperFunction,SMDPad,CuDef*%
%ADD29R,0.406400X1.346200*%
%TD*%
%TA.AperFunction,SMDPad,CuDef*%
%ADD30R,1.600200X2.108200*%
%TD*%
%TA.AperFunction,SMDPad,CuDef*%
%ADD31R,1.905000X1.803400*%
%TD*%
%TA.AperFunction,SMDPad,CuDef*%
%ADD32R,1.905000X1.905000*%
%TD*%
%TA.AperFunction,SMDPad,CuDef*%
%ADD33RoundRect,0.237500X0.300000X0.237500X-0.300000X0.237500X-0.300000X-0.237500X0.300000X-0.237500X0*%
%TD*%
%TA.AperFunction,SMDPad,CuDef*%
%ADD34RoundRect,0.150000X-0.150000X0.850000X-0.150000X-0.850000X0.150000X-0.850000X0.150000X0.850000X0*%
%TD*%
%TA.AperFunction,SMDPad,CuDef*%
%ADD35RoundRect,0.237500X-0.237500X0.300000X-0.237500X-0.300000X0.237500X-0.300000X0.237500X0.300000X0*%
%TD*%
%TA.AperFunction,SMDPad,CuDef*%
%ADD36RoundRect,0.160000X0.197500X0.160000X-0.197500X0.160000X-0.197500X-0.160000X0.197500X-0.160000X0*%
%TD*%
%TA.AperFunction,SMDPad,CuDef*%
%ADD37R,1.805236X0.612132*%
%TD*%
%TA.AperFunction,SMDPad,CuDef*%
%ADD38R,1.800000X1.000000*%
%TD*%
%TA.AperFunction,SMDPad,CuDef*%
%ADD39R,2.000000X1.500000*%
%TD*%
%TA.AperFunction,SMDPad,CuDef*%
%ADD40R,2.000000X3.800000*%
%TD*%
%TA.AperFunction,SMDPad,CuDef*%
%ADD41R,1.300000X1.100000*%
%TD*%
%TA.AperFunction,ComponentPad*%
%ADD42R,1.730000X2.030000*%
%TD*%
%TA.AperFunction,ComponentPad*%
%ADD43O,1.730000X2.030000*%
%TD*%
%TA.AperFunction,SMDPad,CuDef*%
%ADD44RoundRect,0.150000X-0.587500X-0.150000X0.587500X-0.150000X0.587500X0.150000X-0.587500X0.150000X0*%
%TD*%
%TA.AperFunction,SMDPad,CuDef*%
%ADD45RoundRect,0.237500X0.237500X-0.300000X0.237500X0.300000X-0.237500X0.300000X-0.237500X-0.300000X0*%
%TD*%
%TA.AperFunction,ViaPad*%
%ADD46C,0.600000*%
%TD*%
%TA.AperFunction,Conductor*%
%ADD47C,0.180000*%
%TD*%
%TA.AperFunction,Conductor*%
%ADD48C,0.350000*%
%TD*%
%TA.AperFunction,Conductor*%
%ADD49C,0.254000*%
%TD*%
%TA.AperFunction,Conductor*%
%ADD50C,0.177800*%
%TD*%
G04 APERTURE END LIST*
D10*
%TO.P,R8,1*%
%TO.N,Net-(J4-Pin_2)*%
X101500000Y-128597500D03*
%TO.P,R8,2*%
%TO.N,/MCU/PA2*%
X101500000Y-127402500D03*
%TD*%
%TO.P,R9,1*%
%TO.N,Net-(J5-Pin_2)*%
X134000000Y-128597500D03*
%TO.P,R9,2*%
%TO.N,/MCU/PA3*%
X134000000Y-127402500D03*
%TD*%
%TO.P,R7,2*%
%TO.N,GND*%
X135500000Y-127402500D03*
%TO.P,R7,1*%
%TO.N,Net-(J5-Pin_2)*%
X135500000Y-128597500D03*
%TD*%
D11*
%TO.P,SW1,4,A*%
%TO.N,/MCU/PA15*%
X113597400Y-124250001D03*
%TO.P,SW1,3,K*%
X104402600Y-124250001D03*
%TO.P,SW1,2,2*%
%TO.N,GND*%
X113597400Y-119749999D03*
%TO.P,SW1,1,1*%
X104402600Y-119749999D03*
%TD*%
D10*
%TO.P,R6,1*%
%TO.N,Net-(J4-Pin_2)*%
X103000000Y-128597500D03*
%TO.P,R6,2*%
%TO.N,GND*%
X103000000Y-127402500D03*
%TD*%
D12*
%TO.P,J5,1,Pin_1*%
%TO.N,unconnected-(J5-Pin_1-Pad1)*%
X137975000Y-128000000D03*
D13*
%TO.P,J5,2,Pin_2*%
%TO.N,Net-(J5-Pin_2)*%
X140515000Y-128000000D03*
%TO.P,J5,3,Pin_3*%
%TO.N,GND*%
X143055000Y-128000000D03*
%TD*%
D12*
%TO.P,J4,1,Pin_1*%
%TO.N,GND*%
X105475000Y-128000000D03*
D13*
%TO.P,J4,2,Pin_2*%
%TO.N,Net-(J4-Pin_2)*%
X108015000Y-128000000D03*
%TO.P,J4,3,Pin_3*%
%TO.N,unconnected-(J4-Pin_3-Pad3)*%
X110555000Y-128000000D03*
%TD*%
D14*
%TO.P,C40,1*%
%TO.N,VCC*%
X150600000Y-36867500D03*
%TO.P,C40,2*%
%TO.N,GND*%
X150600000Y-35732500D03*
%TD*%
D15*
%TO.P,Q1,1,G*%
%TO.N,/LED Matrix/Y7D*%
X133450000Y-45562500D03*
%TO.P,Q1,2,S*%
%TO.N,GND*%
X131550000Y-45562500D03*
%TO.P,Q1,3,D*%
%TO.N,Net-(D00-K)*%
X132500000Y-47437500D03*
%TD*%
D16*
%TO.P,U3,1,VBAT*%
%TO.N,+BATT*%
X112500000Y-52500000D03*
%TO.P,U3,2,PC13*%
%TO.N,unconnected-(U3-PC13-Pad2)*%
X113000000Y-52500000D03*
%TO.P,U3,3,PC14*%
%TO.N,/MCU/PC14*%
X113500000Y-52500000D03*
%TO.P,U3,4,PC15*%
%TO.N,/MCU/PC15*%
X114000000Y-52500000D03*
%TO.P,U3,5,PD0*%
%TO.N,/MCU/PD0*%
X114500000Y-52500000D03*
%TO.P,U3,6,PD1*%
%TO.N,/MCU/PD1*%
X115000000Y-52500000D03*
%TO.P,U3,7,NRST*%
%TO.N,Net-(U3-NRST)*%
X115500000Y-52500000D03*
%TO.P,U3,8,VSSA*%
%TO.N,GND*%
X116000000Y-52500000D03*
%TO.P,U3,9,VDDA*%
%TO.N,VCC*%
X116500000Y-52500000D03*
%TO.P,U3,10,PA0*%
%TO.N,/MCU/PA0*%
X117000000Y-52500000D03*
%TO.P,U3,11,PA1*%
%TO.N,/MCU/PA1*%
X117500000Y-52500000D03*
%TO.P,U3,12,PA2*%
%TO.N,/MCU/PA2*%
X118000000Y-52500000D03*
D17*
%TO.P,U3,13,PA3*%
%TO.N,/MCU/PA3*%
X119412500Y-51087500D03*
%TO.P,U3,14,PA4*%
%TO.N,/MCU/PA4*%
X119412500Y-50587500D03*
%TO.P,U3,15,PA5*%
%TO.N,/MCU/PA5*%
X119412500Y-50087500D03*
%TO.P,U3,16,PA6*%
%TO.N,/MCU/PA6*%
X119412500Y-49587500D03*
%TO.P,U3,17,PA7*%
%TO.N,/MCU/PA7*%
X119412500Y-49087500D03*
%TO.P,U3,18,PB0*%
%TO.N,/LED Matrix/C_{D}*%
X119412500Y-48587500D03*
%TO.P,U3,19,PB1*%
%TO.N,/LED Matrix/C_{C}*%
X119412500Y-48087500D03*
%TO.P,U3,20,PB2*%
%TO.N,/LED Matrix/C_{B}*%
X119412500Y-47587500D03*
%TO.P,U3,21,PB10*%
%TO.N,/LED Matrix/C_{A}*%
X119412500Y-47087500D03*
%TO.P,U3,22,PB11*%
%TO.N,/LED Matrix/Y0D*%
X119412500Y-46587500D03*
%TO.P,U3,23,VSS*%
%TO.N,GND*%
X119412500Y-46087500D03*
%TO.P,U3,24,VDD*%
%TO.N,VCC*%
X119412500Y-45587500D03*
D16*
%TO.P,U3,25,PB12*%
%TO.N,/LED Matrix/Y1D*%
X118000000Y-44175000D03*
%TO.P,U3,26,PB13*%
%TO.N,/LED Matrix/Y2D*%
X117500000Y-44175000D03*
%TO.P,U3,27,PB14*%
%TO.N,/LED Matrix/Y3D*%
X117000000Y-44175000D03*
%TO.P,U3,28,PB15*%
%TO.N,/LED Matrix/Y4D*%
X116500000Y-44175000D03*
%TO.P,U3,29,PA8*%
%TO.N,/MCU/PA8*%
X116000000Y-44175000D03*
%TO.P,U3,30,PA9*%
%TO.N,/MCU/PA9*%
X115500000Y-44175000D03*
%TO.P,U3,31,PA10*%
%TO.N,/MCU/PA10*%
X115000000Y-44175000D03*
%TO.P,U3,32,PA11*%
%TO.N,/MCU/PA11*%
X114500000Y-44175000D03*
%TO.P,U3,33,PA12*%
%TO.N,/MCU/PA12*%
X114000000Y-44175000D03*
%TO.P,U3,34,PA13*%
%TO.N,/MCU/PA13*%
X113500000Y-44175000D03*
%TO.P,U3,35,VSS*%
%TO.N,GND*%
X113000000Y-44175000D03*
%TO.P,U3,36,VDD*%
%TO.N,VCC*%
X112500000Y-44175000D03*
D17*
%TO.P,U3,37,PA14*%
%TO.N,/MCU/PA14*%
X111087500Y-45587500D03*
%TO.P,U3,38,PA15*%
%TO.N,/MCU/PA15*%
X111087500Y-46087500D03*
%TO.P,U3,39,PB3*%
%TO.N,/MCU/PB3*%
X111087500Y-46587500D03*
%TO.P,U3,40,PB4*%
%TO.N,/MCU/PB4*%
X111087500Y-47087500D03*
%TO.P,U3,41,PB5*%
%TO.N,/MCU/PB5*%
X111087500Y-47587500D03*
%TO.P,U3,42,PB6*%
%TO.N,/MCU/PB6*%
X111087500Y-48087500D03*
%TO.P,U3,43,PB7*%
%TO.N,/MCU/PB7*%
X111087500Y-48587500D03*
%TO.P,U3,44,BOOT0*%
%TO.N,GND*%
X111087500Y-49087500D03*
%TO.P,U3,45,PB8*%
%TO.N,/MCU/PB8*%
X111087500Y-49587500D03*
%TO.P,U3,46,PB9*%
%TO.N,/MCU/PB9*%
X111087500Y-50087500D03*
%TO.P,U3,47,VSS*%
%TO.N,GND*%
X111087500Y-50587500D03*
%TO.P,U3,48,VDD*%
%TO.N,VCC*%
X111087500Y-51087500D03*
%TD*%
D18*
%TO.P,D21,1,K*%
%TO.N,Net-(D20-K)*%
X135427500Y-59000000D03*
%TO.P,D21,2,A*%
%TO.N,Net-(D01-A)*%
X136572500Y-59000000D03*
%TD*%
%TO.P,D22,1,K*%
%TO.N,Net-(D20-K)*%
X138427500Y-59000000D03*
%TO.P,D22,2,A*%
%TO.N,Net-(D02-A)*%
X139572500Y-59000000D03*
%TD*%
D19*
%TO.P,D2,1,K*%
%TO.N,Net-(D1-K)*%
X113750000Y-100000000D03*
%TO.P,D2,2,A*%
%TO.N,Net-(D2-A)*%
X116250000Y-100000000D03*
%TD*%
D20*
%TO.P,R48,1*%
%TO.N,Net-(U4-Y5)*%
X140602500Y-43600000D03*
%TO.P,R48,2*%
%TO.N,/LED Matrix/Y5D*%
X141797500Y-43600000D03*
%TD*%
%TO.P,R410,1*%
%TO.N,Net-(U4-Y7)*%
X135602500Y-43600000D03*
%TO.P,R410,2*%
%TO.N,/LED Matrix/Y7D*%
X136797500Y-43600000D03*
%TD*%
D21*
%TO.P,R40,1*%
%TO.N,/MCU/PA10*%
X136500000Y-31802500D03*
%TO.P,R40,2*%
%TO.N,/LED Matrix/Y7D*%
X136500000Y-32997500D03*
%TD*%
D18*
%TO.P,D55,1,K*%
%TO.N,Net-(D50-K)*%
X147427500Y-68000000D03*
%TO.P,D55,2,A*%
%TO.N,Net-(D05-A)*%
X148572500Y-68000000D03*
%TD*%
D11*
%TO.P,SW3,1,1*%
%TO.N,GND*%
X104402600Y-110749999D03*
%TO.P,SW3,2,2*%
X113597400Y-110749999D03*
%TO.P,SW3,3,K*%
%TO.N,/MCU/PB4*%
X104402600Y-115250001D03*
%TO.P,SW3,4,A*%
X113597400Y-115250001D03*
%TD*%
D22*
%TO.P,C32,1*%
%TO.N,VCC*%
X110767500Y-52187500D03*
%TO.P,C32,2*%
%TO.N,GND*%
X109632500Y-52187500D03*
%TD*%
D18*
%TO.P,D33,1,K*%
%TO.N,Net-(D30-K)*%
X141427500Y-62000000D03*
%TO.P,D33,2,A*%
%TO.N,Net-(D03-A)*%
X142572500Y-62000000D03*
%TD*%
D21*
%TO.P,R10,1*%
%TO.N,Net-(U1-OUT)*%
X147000000Y-99902500D03*
%TO.P,R10,2*%
%TO.N,VCC*%
X147000000Y-101097500D03*
%TD*%
D23*
%TO.P,C11,1*%
%TO.N,Net-(U1-OUT)*%
X152637500Y-97500000D03*
%TO.P,C11,2*%
%TO.N,GND*%
X154362500Y-97500000D03*
%TD*%
D18*
%TO.P,D51,1,K*%
%TO.N,Net-(D50-K)*%
X135427500Y-68000000D03*
%TO.P,D51,2,A*%
%TO.N,Net-(D01-A)*%
X136572500Y-68000000D03*
%TD*%
%TO.P,D71,1,K*%
%TO.N,Net-(D70-K)*%
X135427500Y-74000000D03*
%TO.P,D71,2,A*%
%TO.N,Net-(D01-A)*%
X136572500Y-74000000D03*
%TD*%
%TO.P,D77,1,K*%
%TO.N,Net-(D70-K)*%
X153427500Y-74000000D03*
%TO.P,D77,2,A*%
%TO.N,Net-(D07-A)*%
X154572500Y-74000000D03*
%TD*%
%TO.P,D43,1,K*%
%TO.N,Net-(D40-K)*%
X141427500Y-65000000D03*
%TO.P,D43,2,A*%
%TO.N,Net-(D03-A)*%
X142572500Y-65000000D03*
%TD*%
D20*
%TO.P,R87,1*%
%TO.N,/MCU/PA4*%
X153902500Y-49000000D03*
%TO.P,R87,2*%
%TO.N,Net-(D07-A)*%
X155097500Y-49000000D03*
%TD*%
D24*
%TO.P,C30,1*%
%TO.N,VCC*%
X119832500Y-44387500D03*
%TO.P,C30,2*%
%TO.N,GND*%
X120967500Y-44387500D03*
%TD*%
%TO.P,C38,1*%
%TO.N,/MCU/PC15*%
X113132500Y-61487500D03*
%TO.P,C38,2*%
%TO.N,GND*%
X114267500Y-61487500D03*
%TD*%
D18*
%TO.P,D01,1,K*%
%TO.N,Net-(D00-K)*%
X135427500Y-53000000D03*
%TO.P,D01,2,A*%
%TO.N,Net-(D01-A)*%
X136572500Y-53000000D03*
%TD*%
%TO.P,D56,1,K*%
%TO.N,Net-(D50-K)*%
X150427500Y-68000000D03*
%TO.P,D56,2,A*%
%TO.N,Net-(D06-A)*%
X151572500Y-68000000D03*
%TD*%
D10*
%TO.P,R5,1*%
%TO.N,+BATT*%
X105000000Y-96097500D03*
%TO.P,R5,2*%
%TO.N,VCC*%
X105000000Y-94902500D03*
%TD*%
D18*
%TO.P,D05,1,K*%
%TO.N,Net-(D00-K)*%
X147427500Y-53000000D03*
%TO.P,D05,2,A*%
%TO.N,Net-(D05-A)*%
X148572500Y-53000000D03*
%TD*%
%TO.P,D16,1,K*%
%TO.N,Net-(D10-K)*%
X150427500Y-56000000D03*
%TO.P,D16,2,A*%
%TO.N,Net-(D06-A)*%
X151572500Y-56000000D03*
%TD*%
D24*
%TO.P,C51,1*%
%TO.N,VCC*%
X124432500Y-124000000D03*
%TO.P,C51,2*%
%TO.N,GND*%
X125567500Y-124000000D03*
%TD*%
D18*
%TO.P,D66,1,K*%
%TO.N,Net-(D60-K)*%
X150427500Y-71000000D03*
%TO.P,D66,2,A*%
%TO.N,Net-(D06-A)*%
X151572500Y-71000000D03*
%TD*%
%TO.P,D12,1,K*%
%TO.N,Net-(D10-K)*%
X138427500Y-56000000D03*
%TO.P,D12,2,A*%
%TO.N,Net-(D02-A)*%
X139572500Y-56000000D03*
%TD*%
%TO.P,D76,1,K*%
%TO.N,Net-(D70-K)*%
X150427500Y-74000000D03*
%TO.P,D76,2,A*%
%TO.N,Net-(D06-A)*%
X151572500Y-74000000D03*
%TD*%
%TO.P,D75,1,K*%
%TO.N,Net-(D70-K)*%
X147427500Y-74000000D03*
%TO.P,D75,2,A*%
%TO.N,Net-(D05-A)*%
X148572500Y-74000000D03*
%TD*%
%TO.P,D67,1,K*%
%TO.N,Net-(D60-K)*%
X153427500Y-71000000D03*
%TO.P,D67,2,A*%
%TO.N,Net-(D07-A)*%
X154572500Y-71000000D03*
%TD*%
D21*
%TO.P,R42,1*%
%TO.N,/MCU/PA8*%
X138700000Y-31802500D03*
%TO.P,R42,2*%
%TO.N,/LED Matrix/Y5D*%
X138700000Y-32997500D03*
%TD*%
D25*
%TO.P,U5,1,OUTPUT*%
%TO.N,Net-(U5-OUTPUT)*%
X116904500Y-125060900D03*
%TO.P,U5,2,GND*%
%TO.N,GND*%
X119444500Y-125060900D03*
%TO.P,U5,3,VCC*%
%TO.N,VCC*%
X121984500Y-125060900D03*
%TD*%
D26*
%TO.P,J2,1,Pin_1*%
%TO.N,+BATT*%
X105250000Y-103907500D03*
D27*
%TO.P,J2,2,Pin_2*%
%TO.N,GND*%
X105250000Y-100027500D03*
%TD*%
D20*
%TO.P,R47,1*%
%TO.N,Net-(U4-Y4)*%
X143102500Y-43600000D03*
%TO.P,R47,2*%
%TO.N,/LED Matrix/Y4D*%
X144297500Y-43600000D03*
%TD*%
D18*
%TO.P,D13,1,K*%
%TO.N,Net-(D10-K)*%
X141427500Y-56000000D03*
%TO.P,D13,2,A*%
%TO.N,Net-(D03-A)*%
X142572500Y-56000000D03*
%TD*%
%TO.P,D44,1,K*%
%TO.N,Net-(D40-K)*%
X144427500Y-65000000D03*
%TO.P,D44,2,A*%
%TO.N,Net-(D04-A)*%
X145572500Y-65000000D03*
%TD*%
%TO.P,D34,1,K*%
%TO.N,Net-(D30-K)*%
X144427500Y-62000000D03*
%TO.P,D34,2,A*%
%TO.N,Net-(D04-A)*%
X145572500Y-62000000D03*
%TD*%
%TO.P,D14,1,K*%
%TO.N,Net-(D10-K)*%
X144427500Y-56000000D03*
%TO.P,D14,2,A*%
%TO.N,Net-(D04-A)*%
X145572500Y-56000000D03*
%TD*%
%TO.P,D53,1,K*%
%TO.N,Net-(D50-K)*%
X141427500Y-68000000D03*
%TO.P,D53,2,A*%
%TO.N,Net-(D03-A)*%
X142572500Y-68000000D03*
%TD*%
D21*
%TO.P,R41,1*%
%TO.N,/MCU/PA9*%
X137600000Y-31802500D03*
%TO.P,R41,2*%
%TO.N,/LED Matrix/Y6D*%
X137600000Y-32997500D03*
%TD*%
D28*
%TO.P,D3,1,K*%
%TO.N,GND*%
X125125000Y-128000000D03*
%TO.P,D3,2,A*%
%TO.N,/MCU/PA1*%
X126875000Y-128000000D03*
%TD*%
D18*
%TO.P,D62,1,K*%
%TO.N,Net-(D60-K)*%
X138427500Y-71000000D03*
%TO.P,D62,2,A*%
%TO.N,Net-(D02-A)*%
X139572500Y-71000000D03*
%TD*%
%TO.P,D20,1,K*%
%TO.N,Net-(D20-K)*%
X132427500Y-59000000D03*
%TO.P,D20,2,A*%
%TO.N,Net-(D00-A)*%
X133572500Y-59000000D03*
%TD*%
%TO.P,D36,1,K*%
%TO.N,Net-(D30-K)*%
X150427500Y-62000000D03*
%TO.P,D36,2,A*%
%TO.N,Net-(D06-A)*%
X151572500Y-62000000D03*
%TD*%
D15*
%TO.P,Q2,1,G*%
%TO.N,/LED Matrix/Y6D*%
X136950000Y-45562500D03*
%TO.P,Q2,2,S*%
%TO.N,GND*%
X135050000Y-45562500D03*
%TO.P,Q2,3,D*%
%TO.N,Net-(D10-K)*%
X136000000Y-47437500D03*
%TD*%
%TO.P,Q5,1,G*%
%TO.N,/LED Matrix/Y3D*%
X147450000Y-45562500D03*
%TO.P,Q5,2,S*%
%TO.N,GND*%
X145550000Y-45562500D03*
%TO.P,Q5,3,D*%
%TO.N,Net-(D40-K)*%
X146500000Y-47437500D03*
%TD*%
D20*
%TO.P,R20,1*%
%TO.N,Net-(U2-VO)*%
X108402500Y-82500000D03*
%TO.P,R20,2*%
%TO.N,VCC*%
X109597500Y-82500000D03*
%TD*%
D24*
%TO.P,C37,1*%
%TO.N,/MCU/PC14*%
X113132500Y-62687500D03*
%TO.P,C37,2*%
%TO.N,GND*%
X114267500Y-62687500D03*
%TD*%
D21*
%TO.P,R4,1*%
%TO.N,VCC*%
X110300000Y-56790000D03*
%TO.P,R4,2*%
%TO.N,Net-(Y1-EN)*%
X110300000Y-57985000D03*
%TD*%
D18*
%TO.P,D60,1,K*%
%TO.N,Net-(D60-K)*%
X132427500Y-71000000D03*
%TO.P,D60,2,A*%
%TO.N,Net-(D00-A)*%
X133572500Y-71000000D03*
%TD*%
%TO.P,D32,1,K*%
%TO.N,Net-(D30-K)*%
X138427500Y-62000000D03*
%TO.P,D32,2,A*%
%TO.N,Net-(D02-A)*%
X139572500Y-62000000D03*
%TD*%
%TO.P,D30,1,K*%
%TO.N,Net-(D30-K)*%
X132427500Y-62000000D03*
%TO.P,D30,2,A*%
%TO.N,Net-(D00-A)*%
X133572500Y-62000000D03*
%TD*%
D29*
%TO.P,J1,1,VCC*%
%TO.N,Net-(D2-A)*%
X116550000Y-34953900D03*
%TO.P,J1,2,D-*%
%TO.N,Net-(J1-D-)*%
X115899999Y-34953900D03*
%TO.P,J1,3,D+*%
%TO.N,Net-(J1-D+)*%
X115250000Y-34953900D03*
%TO.P,J1,4,ID*%
%TO.N,unconnected-(J1-ID-Pad4)*%
X114600001Y-34953900D03*
%TO.P,J1,5,GND*%
%TO.N,GND*%
X113950000Y-34953900D03*
D30*
%TO.P,J1,6*%
%TO.N,N/C*%
X118349999Y-34828899D03*
%TO.P,J1,7*%
X112150001Y-34828899D03*
D31*
%TO.P,J1,8*%
X119050000Y-32278899D03*
%TO.P,J1,9*%
X111450000Y-32278899D03*
D32*
%TO.P,J1,10*%
X116450000Y-32278899D03*
%TO.P,J1,11*%
X114050000Y-32278899D03*
%TD*%
D18*
%TO.P,D37,1,K*%
%TO.N,Net-(D30-K)*%
X153427500Y-62000000D03*
%TO.P,D37,2,A*%
%TO.N,Net-(D07-A)*%
X154572500Y-62000000D03*
%TD*%
D22*
%TO.P,C33,1*%
%TO.N,VCC*%
X117167500Y-54887500D03*
%TO.P,C33,2*%
%TO.N,GND*%
X116032500Y-54887500D03*
%TD*%
D18*
%TO.P,D27,1,K*%
%TO.N,Net-(D20-K)*%
X153427500Y-59000000D03*
%TO.P,D27,2,A*%
%TO.N,Net-(D07-A)*%
X154572500Y-59000000D03*
%TD*%
%TO.P,D07,1,K*%
%TO.N,Net-(D00-K)*%
X153427500Y-53000000D03*
%TO.P,D07,2,A*%
%TO.N,Net-(D07-A)*%
X154572500Y-53000000D03*
%TD*%
D33*
%TO.P,C10,1*%
%TO.N,Net-(D1-K)*%
X149862500Y-104000000D03*
%TO.P,C10,2*%
%TO.N,GND*%
X148137500Y-104000000D03*
%TD*%
D18*
%TO.P,D65,1,K*%
%TO.N,Net-(D60-K)*%
X147427500Y-71000000D03*
%TO.P,D65,2,A*%
%TO.N,Net-(D05-A)*%
X148572500Y-71000000D03*
%TD*%
%TO.P,D02,1,K*%
%TO.N,Net-(D00-K)*%
X138427500Y-53000000D03*
%TO.P,D02,2,A*%
%TO.N,Net-(D02-A)*%
X139572500Y-53000000D03*
%TD*%
D11*
%TO.P,SW6,1,1*%
%TO.N,GND*%
X143402600Y-110749999D03*
%TO.P,SW6,2,2*%
X152597400Y-110749999D03*
%TO.P,SW6,3,K*%
%TO.N,/MCU/PB7*%
X143402600Y-115250001D03*
%TO.P,SW6,4,A*%
X152597400Y-115250001D03*
%TD*%
D18*
%TO.P,D06,1,K*%
%TO.N,Net-(D00-K)*%
X150427500Y-53000000D03*
%TO.P,D06,2,A*%
%TO.N,Net-(D06-A)*%
X151572500Y-53000000D03*
%TD*%
D34*
%TO.P,U4,1,A0*%
%TO.N,/MCU/PA10*%
X149045000Y-32500000D03*
%TO.P,U4,2,A1*%
%TO.N,/MCU/PA9*%
X147775000Y-32500000D03*
%TO.P,U4,3,A2*%
%TO.N,/MCU/PA8*%
X146505000Y-32500000D03*
%TO.P,U4,4,~{E1}*%
%TO.N,GND*%
X145235000Y-32500000D03*
%TO.P,U4,5,~{E2}*%
X143965000Y-32500000D03*
%TO.P,U4,6,E3*%
%TO.N,VCC*%
X142695000Y-32500000D03*
%TO.P,U4,7,Y7*%
%TO.N,Net-(U4-Y7)*%
X141425000Y-32500000D03*
%TO.P,U4,8,GND*%
%TO.N,GND*%
X140155000Y-32500000D03*
%TO.P,U4,9,Y6*%
%TO.N,Net-(U4-Y6)*%
X140155000Y-37500000D03*
%TO.P,U4,10,Y5*%
%TO.N,Net-(U4-Y5)*%
X141425000Y-37500000D03*
%TO.P,U4,11,Y4*%
%TO.N,Net-(U4-Y4)*%
X142695000Y-37500000D03*
%TO.P,U4,12,Y3*%
%TO.N,Net-(U4-Y3)*%
X143965000Y-37500000D03*
%TO.P,U4,13,Y2*%
%TO.N,Net-(U4-Y2)*%
X145235000Y-37500000D03*
%TO.P,U4,14,Y1*%
%TO.N,Net-(U4-Y1)*%
X146505000Y-37500000D03*
%TO.P,U4,15,Y0*%
%TO.N,Net-(U4-Y0)*%
X147775000Y-37500000D03*
%TO.P,U4,16,VCC*%
%TO.N,VCC*%
X149045000Y-37500000D03*
%TD*%
D18*
%TO.P,D17,1,K*%
%TO.N,Net-(D10-K)*%
X153427500Y-56000000D03*
%TO.P,D17,2,A*%
%TO.N,Net-(D07-A)*%
X154572500Y-56000000D03*
%TD*%
D14*
%TO.P,C31,1*%
%TO.N,VCC*%
X111300000Y-43655000D03*
%TO.P,C31,2*%
%TO.N,GND*%
X111300000Y-42520000D03*
%TD*%
D18*
%TO.P,D24,1,K*%
%TO.N,Net-(D20-K)*%
X144427500Y-59000000D03*
%TO.P,D24,2,A*%
%TO.N,Net-(D04-A)*%
X145572500Y-59000000D03*
%TD*%
D11*
%TO.P,SW2,1,1*%
%TO.N,GND*%
X131402600Y-119749999D03*
%TO.P,SW2,2,2*%
X140597400Y-119749999D03*
%TO.P,SW2,3,K*%
%TO.N,/MCU/PB3*%
X131402600Y-124250001D03*
%TO.P,SW2,4,A*%
X140597400Y-124250001D03*
%TD*%
D18*
%TO.P,D35,1,K*%
%TO.N,Net-(D30-K)*%
X147427500Y-62000000D03*
%TO.P,D35,2,A*%
%TO.N,Net-(D05-A)*%
X148572500Y-62000000D03*
%TD*%
%TO.P,D04,1,K*%
%TO.N,Net-(D00-K)*%
X144427500Y-53000000D03*
%TO.P,D04,2,A*%
%TO.N,Net-(D04-A)*%
X145572500Y-53000000D03*
%TD*%
D10*
%TO.P,R3,1*%
%TO.N,/MCU/PA12*%
X117000000Y-38597500D03*
%TO.P,R3,2*%
%TO.N,Net-(D2-A)*%
X117000000Y-37402500D03*
%TD*%
D35*
%TO.P,C21,1*%
%TO.N,Net-(U2-VO)*%
X102000000Y-77637500D03*
%TO.P,C21,2*%
%TO.N,GND*%
X102000000Y-79362500D03*
%TD*%
D18*
%TO.P,D74,1,K*%
%TO.N,Net-(D70-K)*%
X144427500Y-74000000D03*
%TO.P,D74,2,A*%
%TO.N,Net-(D04-A)*%
X145572500Y-74000000D03*
%TD*%
D24*
%TO.P,C34,1*%
%TO.N,Net-(U3-NRST)*%
X116032500Y-56887500D03*
%TO.P,C34,2*%
%TO.N,GND*%
X117167500Y-56887500D03*
%TD*%
D18*
%TO.P,D70,1,K*%
%TO.N,Net-(D70-K)*%
X132427500Y-74000000D03*
%TO.P,D70,2,A*%
%TO.N,Net-(D00-A)*%
X133572500Y-74000000D03*
%TD*%
D36*
%TO.P,R50,1*%
%TO.N,/MCU/PA0*%
X124597500Y-120750000D03*
%TO.P,R50,2*%
%TO.N,Net-(U5-OUTPUT)*%
X123402500Y-120750000D03*
%TD*%
D20*
%TO.P,R85,1*%
%TO.N,/MCU/PA6*%
X147902500Y-49000000D03*
%TO.P,R85,2*%
%TO.N,Net-(D05-A)*%
X149097500Y-49000000D03*
%TD*%
D19*
%TO.P,D1,1,K*%
%TO.N,Net-(D1-K)*%
X113750000Y-104000000D03*
%TO.P,D1,2,A*%
%TO.N,+BATT*%
X116250000Y-104000000D03*
%TD*%
D21*
%TO.P,R2,1*%
%TO.N,Net-(J1-D+)*%
X115000000Y-37402500D03*
%TO.P,R2,2*%
%TO.N,/MCU/PA12*%
X115000000Y-38597500D03*
%TD*%
D18*
%TO.P,D23,1,K*%
%TO.N,Net-(D20-K)*%
X141427500Y-59000000D03*
%TO.P,D23,2,A*%
%TO.N,Net-(D03-A)*%
X142572500Y-59000000D03*
%TD*%
%TO.P,D57,1,K*%
%TO.N,Net-(D50-K)*%
X153427500Y-68000000D03*
%TO.P,D57,2,A*%
%TO.N,Net-(D07-A)*%
X154572500Y-68000000D03*
%TD*%
%TO.P,D64,1,K*%
%TO.N,Net-(D60-K)*%
X144427500Y-71000000D03*
%TO.P,D64,2,A*%
%TO.N,Net-(D04-A)*%
X145572500Y-71000000D03*
%TD*%
D21*
%TO.P,R1,1*%
%TO.N,Net-(J1-D-)*%
X116000000Y-37402500D03*
%TO.P,R1,2*%
%TO.N,/MCU/PA11*%
X116000000Y-38597500D03*
%TD*%
D37*
%TO.P,U1,1,IN*%
%TO.N,Net-(D1-K)*%
X150099518Y-99849999D03*
%TO.P,U1,2,GND*%
%TO.N,GND*%
X150099518Y-100800000D03*
%TO.P,U1,3,EN*%
%TO.N,Net-(D1-K)*%
X150099518Y-101750001D03*
%TO.P,U1,4,NC*%
%TO.N,GND*%
X152400484Y-101750001D03*
%TO.P,U1,5,OUT*%
%TO.N,Net-(U1-OUT)*%
X152400484Y-99849999D03*
%TD*%
D18*
%TO.P,D26,1,K*%
%TO.N,Net-(D20-K)*%
X150427500Y-59000000D03*
%TO.P,D26,2,A*%
%TO.N,Net-(D06-A)*%
X151572500Y-59000000D03*
%TD*%
D20*
%TO.P,R21,1*%
%TO.N,Net-(U2-ADJ)*%
X108402500Y-85010000D03*
%TO.P,R21,2*%
%TO.N,Net-(U2-VO)*%
X109597500Y-85010000D03*
%TD*%
D18*
%TO.P,D42,1,K*%
%TO.N,Net-(D40-K)*%
X138427500Y-65000000D03*
%TO.P,D42,2,A*%
%TO.N,Net-(D02-A)*%
X139572500Y-65000000D03*
%TD*%
%TO.P,D46,1,K*%
%TO.N,Net-(D40-K)*%
X150427500Y-65000000D03*
%TO.P,D46,2,A*%
%TO.N,Net-(D06-A)*%
X151572500Y-65000000D03*
%TD*%
D20*
%TO.P,R82,1*%
%TO.N,/LED Matrix/C_{C}*%
X138402500Y-49000000D03*
%TO.P,R82,2*%
%TO.N,Net-(D02-A)*%
X139597500Y-49000000D03*
%TD*%
D18*
%TO.P,D50,1,K*%
%TO.N,Net-(D50-K)*%
X132427500Y-68000000D03*
%TO.P,D50,2,A*%
%TO.N,Net-(D00-A)*%
X133572500Y-68000000D03*
%TD*%
D23*
%TO.P,C50,1*%
%TO.N,Net-(U5-OUTPUT)*%
X119137500Y-121000000D03*
%TO.P,C50,2*%
%TO.N,GND*%
X120862500Y-121000000D03*
%TD*%
D20*
%TO.P,R45,1*%
%TO.N,Net-(U4-Y2)*%
X148102500Y-43600000D03*
%TO.P,R45,2*%
%TO.N,/LED Matrix/Y2D*%
X149297500Y-43600000D03*
%TD*%
D18*
%TO.P,D52,1,K*%
%TO.N,Net-(D50-K)*%
X138427500Y-68000000D03*
%TO.P,D52,2,A*%
%TO.N,Net-(D02-A)*%
X139572500Y-68000000D03*
%TD*%
D20*
%TO.P,R84,1*%
%TO.N,/MCU/PA7*%
X144302500Y-49000000D03*
%TO.P,R84,2*%
%TO.N,Net-(D04-A)*%
X145497500Y-49000000D03*
%TD*%
D38*
%TO.P,Y2,1,1*%
%TO.N,/MCU/PC14*%
X111000000Y-62637500D03*
%TO.P,Y2,2,2*%
%TO.N,/MCU/PC15*%
X111000000Y-60137500D03*
%TD*%
D18*
%TO.P,D00,1,K*%
%TO.N,Net-(D00-K)*%
X132427500Y-53000000D03*
%TO.P,D00,2,A*%
%TO.N,Net-(D00-A)*%
X133572500Y-53000000D03*
%TD*%
D15*
%TO.P,Q3,1,G*%
%TO.N,/LED Matrix/Y5D*%
X140450000Y-45562500D03*
%TO.P,Q3,2,S*%
%TO.N,GND*%
X138550000Y-45562500D03*
%TO.P,Q3,3,D*%
%TO.N,Net-(D20-K)*%
X139500000Y-47437500D03*
%TD*%
D39*
%TO.P,U2,1,ADJ*%
%TO.N,Net-(U2-ADJ)*%
X104550000Y-75400000D03*
%TO.P,U2,2,VO*%
%TO.N,Net-(U2-VO)*%
X104550000Y-77700000D03*
D40*
X110850000Y-77700000D03*
D39*
%TO.P,U2,3,VI*%
%TO.N,Net-(D1-K)*%
X104550000Y-80000000D03*
%TD*%
D11*
%TO.P,SW8,1,1*%
%TO.N,GND*%
X131402600Y-98749999D03*
%TO.P,SW8,2,2*%
X140597400Y-98749999D03*
%TO.P,SW8,3,K*%
%TO.N,/MCU/PB9*%
X131402600Y-103250001D03*
%TO.P,SW8,4,A*%
X140597400Y-103250001D03*
%TD*%
D18*
%TO.P,D63,1,K*%
%TO.N,Net-(D60-K)*%
X141427500Y-71000000D03*
%TO.P,D63,2,A*%
%TO.N,Net-(D03-A)*%
X142572500Y-71000000D03*
%TD*%
D11*
%TO.P,SW5,1,1*%
%TO.N,GND*%
X131402600Y-110749999D03*
%TO.P,SW5,2,2*%
X140597400Y-110749999D03*
%TO.P,SW5,3,K*%
%TO.N,/MCU/PB6*%
X131402600Y-115250001D03*
%TO.P,SW5,4,A*%
X140597400Y-115250001D03*
%TD*%
D18*
%TO.P,D47,1,K*%
%TO.N,Net-(D40-K)*%
X153427500Y-65000000D03*
%TO.P,D47,2,A*%
%TO.N,Net-(D07-A)*%
X154572500Y-65000000D03*
%TD*%
%TO.P,D15,1,K*%
%TO.N,Net-(D10-K)*%
X147427500Y-56000000D03*
%TO.P,D15,2,A*%
%TO.N,Net-(D05-A)*%
X148572500Y-56000000D03*
%TD*%
%TO.P,D41,1,K*%
%TO.N,Net-(D40-K)*%
X135427500Y-65000000D03*
%TO.P,D41,2,A*%
%TO.N,Net-(D01-A)*%
X136572500Y-65000000D03*
%TD*%
D15*
%TO.P,Q7,1,G*%
%TO.N,/LED Matrix/Y1D*%
X154450000Y-45562500D03*
%TO.P,Q7,2,S*%
%TO.N,GND*%
X152550000Y-45562500D03*
%TO.P,Q7,3,D*%
%TO.N,Net-(D60-K)*%
X153500000Y-47437500D03*
%TD*%
D21*
%TO.P,R44,1*%
%TO.N,Net-(U4-Y1)*%
X150600000Y-42402500D03*
%TO.P,R44,2*%
%TO.N,/LED Matrix/Y1D*%
X150600000Y-43597500D03*
%TD*%
D11*
%TO.P,SW4,1,1*%
%TO.N,GND*%
X119207800Y-110749999D03*
%TO.P,SW4,2,2*%
X128402600Y-110749999D03*
%TO.P,SW4,3,K*%
%TO.N,/MCU/PB5*%
X119207800Y-115250001D03*
%TO.P,SW4,4,A*%
X128402600Y-115250001D03*
%TD*%
D18*
%TO.P,D25,1,K*%
%TO.N,Net-(D20-K)*%
X147427500Y-59000000D03*
%TO.P,D25,2,A*%
%TO.N,Net-(D05-A)*%
X148572500Y-59000000D03*
%TD*%
D20*
%TO.P,R83,1*%
%TO.N,/LED Matrix/C_{D}*%
X141402500Y-49000000D03*
%TO.P,R83,2*%
%TO.N,Net-(D03-A)*%
X142597500Y-49000000D03*
%TD*%
%TO.P,R46,1*%
%TO.N,Net-(U4-Y3)*%
X145602500Y-43600000D03*
%TO.P,R46,2*%
%TO.N,/LED Matrix/Y3D*%
X146797500Y-43600000D03*
%TD*%
%TO.P,R43,1*%
%TO.N,Net-(U4-Y0)*%
X153502500Y-40200000D03*
%TO.P,R43,2*%
%TO.N,/LED Matrix/Y0D*%
X154697500Y-40200000D03*
%TD*%
%TO.P,R86,1*%
%TO.N,/MCU/PA5*%
X150902500Y-49000000D03*
%TO.P,R86,2*%
%TO.N,Net-(D06-A)*%
X152097500Y-49000000D03*
%TD*%
D41*
%TO.P,Y1,1,EN*%
%TO.N,Net-(Y1-EN)*%
X111850000Y-57912500D03*
%TO.P,Y1,2,GND*%
%TO.N,GND*%
X113950000Y-57912500D03*
%TO.P,Y1,3,OUT*%
%TO.N,/MCU/PD0*%
X113950000Y-56262500D03*
%TO.P,Y1,4,Vdd*%
%TO.N,VCC*%
X111850000Y-56262500D03*
%TD*%
D42*
%TO.P,J3,1,Pin_1*%
%TO.N,GND*%
X124300000Y-72800000D03*
D43*
%TO.P,J3,2,Pin_2*%
%TO.N,/MCU/PA14*%
X121760000Y-72800000D03*
%TO.P,J3,3,Pin_3*%
%TO.N,/MCU/PA13*%
X119220000Y-72800000D03*
%TO.P,J3,4,Pin_4*%
%TO.N,VCC*%
X116680000Y-72800000D03*
%TD*%
D15*
%TO.P,Q4,1,G*%
%TO.N,/LED Matrix/Y4D*%
X143950000Y-45562500D03*
%TO.P,Q4,2,S*%
%TO.N,GND*%
X142050000Y-45562500D03*
%TO.P,Q4,3,D*%
%TO.N,Net-(D30-K)*%
X143000000Y-47437500D03*
%TD*%
D18*
%TO.P,D40,1,K*%
%TO.N,Net-(D40-K)*%
X132427500Y-65000000D03*
%TO.P,D40,2,A*%
%TO.N,Net-(D00-A)*%
X133572500Y-65000000D03*
%TD*%
%TO.P,D11,1,K*%
%TO.N,Net-(D10-K)*%
X135427500Y-56000000D03*
%TO.P,D11,2,A*%
%TO.N,Net-(D01-A)*%
X136572500Y-56000000D03*
%TD*%
D44*
%TO.P,Q8,1,G*%
%TO.N,/LED Matrix/Y0D*%
X152562500Y-41550000D03*
%TO.P,Q8,2,S*%
%TO.N,GND*%
X152562500Y-43450000D03*
%TO.P,Q8,3,D*%
%TO.N,Net-(D70-K)*%
X154437500Y-42500000D03*
%TD*%
D18*
%TO.P,D72,1,K*%
%TO.N,Net-(D70-K)*%
X138427500Y-74000000D03*
%TO.P,D72,2,A*%
%TO.N,Net-(D02-A)*%
X139572500Y-74000000D03*
%TD*%
D36*
%TO.P,R30,1*%
%TO.N,VCC*%
X117197500Y-55887500D03*
%TO.P,R30,2*%
%TO.N,Net-(U3-NRST)*%
X116002500Y-55887500D03*
%TD*%
D20*
%TO.P,R49,1*%
%TO.N,Net-(U4-Y6)*%
X138102500Y-43600000D03*
%TO.P,R49,2*%
%TO.N,/LED Matrix/Y6D*%
X139297500Y-43600000D03*
%TD*%
%TO.P,R81,1*%
%TO.N,/LED Matrix/C_{B}*%
X135402500Y-49000000D03*
%TO.P,R81,2*%
%TO.N,Net-(D01-A)*%
X136597500Y-49000000D03*
%TD*%
D18*
%TO.P,D54,1,K*%
%TO.N,Net-(D50-K)*%
X144427500Y-68000000D03*
%TO.P,D54,2,A*%
%TO.N,Net-(D04-A)*%
X145572500Y-68000000D03*
%TD*%
%TO.P,D03,1,K*%
%TO.N,Net-(D00-K)*%
X141427500Y-53000000D03*
%TO.P,D03,2,A*%
%TO.N,Net-(D03-A)*%
X142572500Y-53000000D03*
%TD*%
D15*
%TO.P,Q6,1,G*%
%TO.N,/LED Matrix/Y2D*%
X150950000Y-45562500D03*
%TO.P,Q6,2,S*%
%TO.N,GND*%
X149050000Y-45562500D03*
%TO.P,Q6,3,D*%
%TO.N,Net-(D50-K)*%
X150000000Y-47437500D03*
%TD*%
D45*
%TO.P,C01,1*%
%TO.N,+BATT*%
X111500000Y-102362500D03*
%TO.P,C01,2*%
%TO.N,GND*%
X111500000Y-100637500D03*
%TD*%
D18*
%TO.P,D10,1,K*%
%TO.N,Net-(D10-K)*%
X132427500Y-56000000D03*
%TO.P,D10,2,A*%
%TO.N,Net-(D00-A)*%
X133572500Y-56000000D03*
%TD*%
%TO.P,D45,1,K*%
%TO.N,Net-(D40-K)*%
X147427500Y-65000000D03*
%TO.P,D45,2,A*%
%TO.N,Net-(D05-A)*%
X148572500Y-65000000D03*
%TD*%
D20*
%TO.P,R22,1*%
%TO.N,GND*%
X108402500Y-87520000D03*
%TO.P,R22,2*%
%TO.N,Net-(U2-ADJ)*%
X109597500Y-87520000D03*
%TD*%
D18*
%TO.P,D61,1,K*%
%TO.N,Net-(D60-K)*%
X135427500Y-71000000D03*
%TO.P,D61,2,A*%
%TO.N,Net-(D01-A)*%
X136572500Y-71000000D03*
%TD*%
D11*
%TO.P,SW7,1,1*%
%TO.N,GND*%
X119402600Y-98749999D03*
%TO.P,SW7,2,2*%
X128597400Y-98749999D03*
%TO.P,SW7,3,K*%
%TO.N,/MCU/PB8*%
X119402600Y-103250001D03*
%TO.P,SW7,4,A*%
X128597400Y-103250001D03*
%TD*%
D23*
%TO.P,C20,1*%
%TO.N,Net-(D1-K)*%
X104187500Y-82500000D03*
%TO.P,C20,2*%
%TO.N,GND*%
X105912500Y-82500000D03*
%TD*%
D18*
%TO.P,D31,1,K*%
%TO.N,Net-(D30-K)*%
X135427500Y-62000000D03*
%TO.P,D31,2,A*%
%TO.N,Net-(D01-A)*%
X136572500Y-62000000D03*
%TD*%
%TO.P,D73,1,K*%
%TO.N,Net-(D70-K)*%
X141427500Y-74000000D03*
%TO.P,D73,2,A*%
%TO.N,Net-(D03-A)*%
X142572500Y-74000000D03*
%TD*%
D20*
%TO.P,R80,1*%
%TO.N,/LED Matrix/C_{A}*%
X132402500Y-49000000D03*
%TO.P,R80,2*%
%TO.N,Net-(D00-A)*%
X133597500Y-49000000D03*
%TD*%
D46*
%TO.N,/MCU/PA3*%
X132500000Y-127000000D03*
X129500000Y-68000000D03*
%TO.N,/MCU/PA2*%
X128500000Y-66000000D03*
X102500000Y-125500000D03*
%TO.N,/MCU/PB3*%
X129500000Y-125500000D03*
X104500000Y-121500000D03*
%TO.N,Net-(D1-K)*%
X102730000Y-87000000D03*
X102730000Y-82500000D03*
%TO.N,GND*%
X126000000Y-45500000D03*
X140138842Y-34239182D03*
X112000000Y-98500000D03*
X153500000Y-45100000D03*
X107000000Y-89000000D03*
X107750000Y-93250000D03*
X117250000Y-98500000D03*
X124000000Y-62438495D03*
X122500000Y-45500000D03*
X153000000Y-35750000D03*
X153900000Y-43445307D03*
%TO.N,VCC*%
X110300000Y-55787500D03*
X120750000Y-58750000D03*
X142695000Y-35595000D03*
X122000000Y-106750000D03*
X108750000Y-43750000D03*
X111500000Y-65750000D03*
X113662500Y-51087500D03*
X111450000Y-92950000D03*
X122500000Y-43000000D03*
X110250000Y-53750000D03*
X113750000Y-48000000D03*
X111500000Y-82500000D03*
%TO.N,Net-(D00-K)*%
X133300000Y-47100000D03*
X132600000Y-54000000D03*
%TO.N,Net-(D00-A)*%
X133300000Y-61200000D03*
X133300000Y-58200000D03*
X133300000Y-64200000D03*
X133600000Y-47900000D03*
X133300000Y-55200000D03*
X133300000Y-67200000D03*
X133300000Y-52200000D03*
X133300000Y-70200000D03*
X133300000Y-73200000D03*
%TO.N,+BATT*%
X113000000Y-68000000D03*
X113000000Y-91750000D03*
%TO.N,Net-(D01-A)*%
X136300000Y-67200000D03*
X136300000Y-73200000D03*
X136300000Y-52200000D03*
X136300000Y-70200000D03*
X136300000Y-58200000D03*
X136300000Y-64200000D03*
X136300000Y-55200000D03*
X137200000Y-47900000D03*
X136300000Y-61200000D03*
%TO.N,Net-(D2-A)*%
X119500000Y-37500000D03*
X119500000Y-66000000D03*
%TO.N,Net-(D02-A)*%
X140400000Y-47900000D03*
X139300000Y-73200000D03*
X139300000Y-61200000D03*
X139300000Y-52200000D03*
X139300000Y-64200000D03*
X139300000Y-70200000D03*
X139300000Y-55200000D03*
X139300000Y-67200000D03*
X139300000Y-58200000D03*
%TO.N,/MCU/PA9*%
X135700000Y-30900000D03*
X137200000Y-30900000D03*
%TO.N,Net-(D03-A)*%
X142300000Y-70200000D03*
X142300000Y-64200000D03*
X142300000Y-55200000D03*
X142300000Y-73200000D03*
X142300000Y-58200000D03*
X142300000Y-67200000D03*
X142300000Y-52200000D03*
X144000000Y-47900000D03*
X142300000Y-61200000D03*
%TO.N,Net-(D04-A)*%
X146500000Y-49000000D03*
X145300000Y-58200000D03*
X145300000Y-70200000D03*
X145300000Y-61200000D03*
X145300000Y-64200000D03*
X145300000Y-67200000D03*
X145300000Y-52200000D03*
X145300000Y-55200000D03*
X145300000Y-73200000D03*
%TO.N,Net-(D05-A)*%
X149000000Y-47900000D03*
X148300000Y-73200000D03*
X148300000Y-55200000D03*
X148300000Y-70200000D03*
X148300000Y-61200000D03*
X148300000Y-64200000D03*
X148300000Y-67200000D03*
X148300000Y-52200000D03*
X148300000Y-58200000D03*
%TO.N,Net-(D06-A)*%
X151300000Y-58200000D03*
X151300000Y-73200000D03*
X151300000Y-52200000D03*
X151300000Y-64200000D03*
X151300000Y-70200000D03*
X151300000Y-55200000D03*
X151300000Y-61200000D03*
X152300000Y-47900000D03*
X151300000Y-67200000D03*
%TO.N,Net-(D07-A)*%
X154300000Y-64200000D03*
X154300000Y-70200000D03*
X154300000Y-73200000D03*
X154300000Y-67200000D03*
X154300000Y-58200000D03*
X154300000Y-52200000D03*
X154300000Y-55200000D03*
X154300000Y-61200000D03*
%TO.N,Net-(D10-K)*%
X135465399Y-56758048D03*
X135100000Y-47100000D03*
%TO.N,Net-(D20-K)*%
X138500000Y-47100000D03*
X138600000Y-60000000D03*
%TO.N,Net-(D30-K)*%
X141600000Y-63000000D03*
X141900000Y-47000000D03*
%TO.N,Net-(D40-K)*%
X145400000Y-47000000D03*
X144600000Y-66000000D03*
%TO.N,Net-(D50-K)*%
X147600000Y-69000000D03*
X148600000Y-47000000D03*
%TO.N,Net-(D60-K)*%
X150600000Y-72000000D03*
X152400000Y-47000000D03*
%TO.N,Net-(D70-K)*%
X155100000Y-43600000D03*
X153600000Y-75000000D03*
%TO.N,/MCU/PA14*%
X107500000Y-45000000D03*
%TO.N,/MCU/PA13*%
X116500000Y-45500000D03*
%TO.N,/MCU/PA0*%
X126750000Y-119000000D03*
X126500000Y-64750000D03*
%TO.N,/MCU/PA1*%
X127750000Y-64750000D03*
X127750000Y-125500000D03*
%TO.N,/LED Matrix/Y7D*%
X137000000Y-41200000D03*
X137800000Y-42500000D03*
%TO.N,/LED Matrix/Y6D*%
X137900000Y-41000000D03*
X140800000Y-41400000D03*
%TO.N,/LED Matrix/Y5D*%
X142300000Y-41000000D03*
X138300000Y-40200000D03*
%TO.N,/LED Matrix/Y4D*%
X136300000Y-39500000D03*
X143900000Y-40300000D03*
%TO.N,/LED Matrix/Y3D*%
X146600000Y-42100000D03*
X135500000Y-41100000D03*
%TO.N,/LED Matrix/Y2D*%
X135200000Y-41900000D03*
X148900000Y-41600000D03*
%TO.N,/LED Matrix/Y1D*%
X151200000Y-41400000D03*
X134500000Y-42400000D03*
%TO.N,/LED Matrix/Y0D*%
X152100000Y-40720000D03*
X133700000Y-42800000D03*
%TO.N,/MCU/PA8*%
X146500000Y-34300000D03*
X134500000Y-31200000D03*
%TO.N,/MCU/PB4*%
X102250000Y-71250000D03*
X102250000Y-108000000D03*
%TO.N,/MCU/PB5*%
X103250000Y-71250000D03*
X103250000Y-108000000D03*
%TO.N,/MCU/PB6*%
X104500000Y-71250000D03*
X107500000Y-111500000D03*
%TO.N,/MCU/PB7*%
X105500000Y-71250000D03*
X109250000Y-112250000D03*
%TO.N,/MCU/PB8*%
X119414827Y-102105327D03*
X107000000Y-71250000D03*
%TO.N,/MCU/PB9*%
X117500000Y-101250000D03*
X110000000Y-71250000D03*
%TD*%
D47*
%TO.N,/MCU/PA3*%
X132500000Y-127000000D02*
X133597500Y-127000000D01*
X133597500Y-127000000D02*
X134000000Y-127402500D01*
X129500000Y-66000000D02*
X129500000Y-68000000D01*
X129500000Y-65500000D02*
X129500000Y-66000000D01*
X119412500Y-51087500D02*
X129500000Y-61175000D01*
X129500000Y-61175000D02*
X129500000Y-65500000D01*
%TO.N,/MCU/PA2*%
X128500000Y-65500000D02*
X128500000Y-66000000D01*
X129000000Y-65000000D02*
X128500000Y-65500000D01*
X118000000Y-52500000D02*
X129000000Y-63500000D01*
X129000000Y-63500000D02*
X129000000Y-65000000D01*
X101500000Y-126500000D02*
X102500000Y-125500000D01*
X101500000Y-127402500D02*
X101500000Y-126500000D01*
D48*
%TO.N,GND*%
X105475000Y-126025000D02*
X105500000Y-126000000D01*
X105475000Y-128000000D02*
X105475000Y-126025000D01*
X115500000Y-126500000D02*
X115500000Y-126000000D01*
X115500000Y-126000000D02*
X115500000Y-121652599D01*
X105500000Y-126000000D02*
X115500000Y-126000000D01*
X140597400Y-119749999D02*
X143000000Y-119749999D01*
X143000000Y-119749999D02*
X150750001Y-119749999D01*
X143055000Y-128000000D02*
X143055000Y-119804999D01*
X143055000Y-119804999D02*
X143000000Y-119749999D01*
D47*
%TO.N,Net-(J4-Pin_2)*%
X103000000Y-128597500D02*
X103902500Y-129500000D01*
X103902500Y-129500000D02*
X106515000Y-129500000D01*
X106515000Y-129500000D02*
X108015000Y-128000000D01*
X103000000Y-128597500D02*
X101500000Y-128597500D01*
%TO.N,GND*%
X103000000Y-127402500D02*
X104877500Y-127402500D01*
X104877500Y-127402500D02*
X105475000Y-128000000D01*
X135500000Y-127402500D02*
X136402500Y-126500000D01*
X136402500Y-126500000D02*
X142500000Y-126500000D01*
X142500000Y-126500000D02*
X143055000Y-127055000D01*
X143055000Y-127055000D02*
X143055000Y-128000000D01*
%TO.N,Net-(J5-Pin_2)*%
X134000000Y-128597500D02*
X135500000Y-128597500D01*
X136000000Y-129500000D02*
X140000000Y-129500000D01*
X135500000Y-128597500D02*
X135500000Y-129000000D01*
X135500000Y-129000000D02*
X136000000Y-129500000D01*
X140000000Y-129500000D02*
X140515000Y-128985000D01*
X140515000Y-128985000D02*
X140515000Y-128000000D01*
%TO.N,/MCU/PB3*%
X101100000Y-49900000D02*
X101100000Y-121000000D01*
X130749999Y-124250001D02*
X129500000Y-125500000D01*
X131402600Y-124250001D02*
X130749999Y-124250001D01*
X104500000Y-121500000D02*
X101600000Y-121500000D01*
X101600000Y-121500000D02*
X101100000Y-121000000D01*
X131402600Y-124250001D02*
X140597400Y-124250001D01*
D48*
%TO.N,GND*%
X154500000Y-116000000D02*
X154500000Y-112652599D01*
X154500000Y-112652599D02*
X152597400Y-110749999D01*
X150750001Y-119749999D02*
X154500000Y-116000000D01*
X131402600Y-119749999D02*
X140597400Y-119749999D01*
X125567500Y-124000000D02*
X125567500Y-122932500D01*
X125567500Y-122932500D02*
X128750001Y-119749999D01*
X128750001Y-119749999D02*
X131402600Y-119749999D01*
X125567500Y-124000000D02*
X125567500Y-127557500D01*
X125567500Y-127557500D02*
X125125000Y-128000000D01*
X120862500Y-121000000D02*
X122567500Y-121000000D01*
X122567500Y-121000000D02*
X125567500Y-124000000D01*
X119444500Y-125060900D02*
X119444500Y-122418000D01*
X119444500Y-122418000D02*
X120862500Y-121000000D01*
X118005400Y-126500000D02*
X115500000Y-126500000D01*
X115500000Y-121652599D02*
X113597400Y-119749999D01*
X119444500Y-125060900D02*
X118005400Y-126500000D01*
X113597400Y-119749999D02*
X104402600Y-119749999D01*
D47*
%TO.N,/MCU/PA15*%
X104402600Y-124250001D02*
X113597400Y-124250001D01*
X104402600Y-124250001D02*
X102402600Y-124250001D01*
X102402600Y-124250001D02*
X100500000Y-122347401D01*
D49*
%TO.N,Net-(D1-K)*%
X144500000Y-108500000D02*
X147306738Y-105693262D01*
X122000000Y-108500000D02*
X144500000Y-108500000D01*
X113690000Y-91440000D02*
X112000000Y-89750000D01*
X148310284Y-105696808D02*
X148306738Y-105693262D01*
X105480000Y-89750000D02*
X112000000Y-89750000D01*
X149423621Y-99849999D02*
X150099518Y-99849999D01*
X104187500Y-82500000D02*
X102730000Y-82500000D01*
X149862500Y-101987019D02*
X149862500Y-104000000D01*
X104187500Y-80362500D02*
X104550000Y-80000000D01*
X149388707Y-105696808D02*
X148310284Y-105696808D01*
X113750000Y-102250000D02*
X113750000Y-104000000D01*
X147306738Y-105693262D02*
X147306738Y-101966882D01*
X149862500Y-104000000D02*
X149862500Y-105223015D01*
X113750000Y-102250000D02*
X115750000Y-102250000D01*
X113690000Y-99940000D02*
X113690000Y-91440000D01*
X149862500Y-105223015D02*
X149388707Y-105696808D01*
X113750000Y-100000000D02*
X113690000Y-99940000D01*
X147306738Y-101966882D02*
X149423621Y-99849999D01*
X115750000Y-102250000D02*
X122000000Y-108500000D01*
X148306738Y-105693262D02*
X147306738Y-105693262D01*
X104187500Y-82500000D02*
X104187500Y-80362500D01*
X150099518Y-101750001D02*
X149862500Y-101987019D01*
X113750000Y-100000000D02*
X113750000Y-102250000D01*
X102730000Y-87000000D02*
X105480000Y-89750000D01*
D47*
%TO.N,GND*%
X139046186Y-45562500D02*
X138550000Y-45562500D01*
X144463304Y-46649196D02*
X143649196Y-46649196D01*
X143649196Y-46649196D02*
X142562500Y-45562500D01*
D49*
X154362500Y-101037030D02*
X154362500Y-98500000D01*
X154362500Y-97181250D02*
X154362500Y-98500000D01*
D47*
X128500000Y-110749999D02*
X131402600Y-110749999D01*
D49*
X119402600Y-98749999D02*
X124250000Y-98749999D01*
D47*
X145235000Y-35135000D02*
X145300000Y-35200000D01*
D49*
X152400484Y-101750001D02*
X153649529Y-101750001D01*
X121887500Y-44387500D02*
X120967500Y-44387500D01*
D47*
X147909842Y-46702658D02*
X147202658Y-46702658D01*
D49*
X111087500Y-50587500D02*
X110000000Y-50587500D01*
X145300000Y-35200000D02*
X150067500Y-35200000D01*
X106932500Y-87520000D02*
X105912500Y-86500000D01*
D47*
X153900000Y-43445307D02*
X153895307Y-43450000D01*
D49*
X113950000Y-57912500D02*
X116775000Y-57912500D01*
X111500000Y-99000000D02*
X111500000Y-100637500D01*
D47*
X133112717Y-46542273D02*
X132132944Y-45562500D01*
X131402600Y-98749999D02*
X128597400Y-98749999D01*
D49*
X110000000Y-50587500D02*
X109632500Y-50955000D01*
X120967500Y-45515029D02*
X120967500Y-44387500D01*
D47*
X149490132Y-45562500D02*
X149050000Y-45562500D01*
X142562500Y-45562500D02*
X142050000Y-45562500D01*
X134070227Y-46542273D02*
X133112717Y-46542273D01*
X140159613Y-46675927D02*
X139046186Y-45562500D01*
D49*
X150067500Y-35200000D02*
X150600000Y-35732500D01*
X112000000Y-98500000D02*
X111500000Y-99000000D01*
X151450483Y-100800000D02*
X152400484Y-101750001D01*
X106932500Y-87520000D02*
X106932500Y-88932500D01*
X120395029Y-46087500D02*
X120967500Y-45515029D01*
X119412500Y-46087500D02*
X120395029Y-46087500D01*
X117499999Y-98749999D02*
X119402600Y-98749999D01*
X119412500Y-46087500D02*
X113087500Y-46087500D01*
D47*
X152550000Y-45562500D02*
X151498945Y-46613555D01*
X140155000Y-34223024D02*
X140138842Y-34239182D01*
D49*
X105912500Y-84000000D02*
X105912500Y-86500000D01*
X112412500Y-50587500D02*
X113000000Y-50000000D01*
X114267500Y-62687500D02*
X114267500Y-61487500D01*
X124300000Y-72800000D02*
X124300000Y-98699999D01*
X105250000Y-97500000D02*
X105250000Y-100027500D01*
D47*
X142050000Y-45562500D02*
X140936573Y-46675927D01*
D49*
X114000000Y-38400000D02*
X113000000Y-39400000D01*
D47*
X113597400Y-110749999D02*
X119207800Y-110749999D01*
X135572305Y-45562500D02*
X135050000Y-45562500D01*
D49*
X102000000Y-83000000D02*
X103000000Y-84000000D01*
D47*
X113950000Y-34953900D02*
X113950000Y-35423800D01*
X135050000Y-45562500D02*
X134070227Y-46542273D01*
D49*
X150099518Y-100800000D02*
X151450483Y-100800000D01*
X124300000Y-66550000D02*
X122125000Y-64375000D01*
X108402500Y-87520000D02*
X106932500Y-87520000D01*
X113950000Y-61170000D02*
X114267500Y-61487500D01*
D47*
X126062500Y-45562500D02*
X126000000Y-45500000D01*
D49*
X117167500Y-57520000D02*
X116775000Y-57912500D01*
D47*
X146062500Y-45562500D02*
X145550000Y-45562500D01*
X104402600Y-110749999D02*
X113597400Y-110749999D01*
D49*
X113000000Y-46000000D02*
X113000000Y-48545000D01*
D47*
X132132944Y-45562500D02*
X131550000Y-45562500D01*
D49*
X122125000Y-64375000D02*
X120437500Y-62687500D01*
X153037500Y-45562500D02*
X153500000Y-45100000D01*
X111300000Y-41100000D02*
X111800000Y-40600000D01*
X115077004Y-49077004D02*
X116000000Y-50000000D01*
X144300000Y-35200000D02*
X145300000Y-35200000D01*
D47*
X152597400Y-110749999D02*
X143402600Y-110749999D01*
D49*
X148137500Y-101855323D02*
X148137500Y-104000000D01*
X117250000Y-98500000D02*
X117499999Y-98749999D01*
X149192823Y-100800000D02*
X148137500Y-101855323D01*
D47*
X140597400Y-110749999D02*
X143402600Y-110749999D01*
D49*
X113950000Y-57912500D02*
X113950000Y-61170000D01*
X113000000Y-39400000D02*
X113000000Y-40600000D01*
D47*
X119207800Y-110749999D02*
X128500000Y-110749999D01*
X150541187Y-46613555D02*
X149490132Y-45562500D01*
D49*
X145235000Y-32500000D02*
X145235000Y-35135000D01*
X113000000Y-50000000D02*
X113000000Y-49077004D01*
X124300000Y-72800000D02*
X124300000Y-66550000D01*
D47*
X131402600Y-110749999D02*
X140597400Y-110749999D01*
D49*
X140155000Y-32500000D02*
X140155000Y-34223024D01*
D47*
X151498945Y-46613555D02*
X150541187Y-46613555D01*
D49*
X113000000Y-49077004D02*
X115077004Y-49077004D01*
D47*
X131402600Y-98749999D02*
X140597400Y-98749999D01*
D49*
X105860000Y-100637500D02*
X105250000Y-100027500D01*
D47*
X113087500Y-46087500D02*
X113000000Y-46000000D01*
D49*
X102000000Y-79362500D02*
X102000000Y-83000000D01*
D47*
X145550000Y-45562500D02*
X144463304Y-46649196D01*
D49*
X111087500Y-49087500D02*
X112989504Y-49087500D01*
D47*
X137543496Y-46569004D02*
X136578809Y-46569004D01*
D49*
X143965000Y-34865000D02*
X144300000Y-35200000D01*
D47*
X140936573Y-46675927D02*
X140159613Y-46675927D01*
D49*
X109632500Y-50955000D02*
X109632500Y-52187500D01*
X122500000Y-45500000D02*
X122500000Y-45000000D01*
X114000000Y-35473800D02*
X114000000Y-38400000D01*
X153649529Y-101750001D02*
X154362500Y-101037030D01*
X117167500Y-56887500D02*
X117167500Y-57520000D01*
X124250000Y-98749999D02*
X128597400Y-98749999D01*
D47*
X138550000Y-45562500D02*
X137543496Y-46569004D01*
D49*
X103000000Y-84000000D02*
X105912500Y-84000000D01*
D47*
X112989504Y-49087500D02*
X113000000Y-49077004D01*
D49*
X143965000Y-32500000D02*
X143965000Y-34865000D01*
X113000000Y-40600000D02*
X113000000Y-44175000D01*
X152550000Y-45562500D02*
X153037500Y-45562500D01*
X131550000Y-45562500D02*
X126062500Y-45562500D01*
X150600000Y-35732500D02*
X152982500Y-35732500D01*
D47*
X152400484Y-110553083D02*
X152597400Y-110749999D01*
X147202658Y-46702658D02*
X146062500Y-45562500D01*
D49*
X150099518Y-100800000D02*
X149192823Y-100800000D01*
X152982500Y-35732500D02*
X153000000Y-35750000D01*
X111087500Y-50587500D02*
X112412500Y-50587500D01*
X116000000Y-50000000D02*
X116000000Y-52500000D01*
X153681250Y-96500000D02*
X154362500Y-97181250D01*
X113000000Y-49077004D02*
X113000000Y-48545000D01*
X122500000Y-45000000D02*
X121887500Y-44387500D01*
D47*
X124300000Y-98699999D02*
X124250000Y-98749999D01*
X116000000Y-52500000D02*
X116000000Y-54855000D01*
D49*
X152400484Y-101750001D02*
X152400484Y-110553083D01*
X140597400Y-98749999D02*
X142847399Y-96500000D01*
X111500000Y-100637500D02*
X105860000Y-100637500D01*
D47*
X124000000Y-62438495D02*
X124000000Y-62500000D01*
D49*
X124000000Y-62500000D02*
X122125000Y-64375000D01*
X111300000Y-42520000D02*
X111300000Y-41100000D01*
D47*
X136578809Y-46569004D02*
X135572305Y-45562500D01*
D49*
X105912500Y-82500000D02*
X105912500Y-86500000D01*
D47*
X149050000Y-45562500D02*
X147909842Y-46702658D01*
X116000000Y-54855000D02*
X116032500Y-54887500D01*
D49*
X142847399Y-96500000D02*
X153681250Y-96500000D01*
X120437500Y-62687500D02*
X114267500Y-62687500D01*
D47*
X113950000Y-35423800D02*
X114000000Y-35473800D01*
X106932500Y-88932500D02*
X107000000Y-89000000D01*
D49*
X107750000Y-95000000D02*
X105250000Y-97500000D01*
X111800000Y-40600000D02*
X113000000Y-40600000D01*
D47*
X153895307Y-43450000D02*
X152562500Y-43450000D01*
X128402600Y-110749999D02*
X128500000Y-110749999D01*
D49*
X107750000Y-93250000D02*
X107750000Y-95000000D01*
X113000000Y-44175000D02*
X113000000Y-46000000D01*
%TO.N,Net-(U1-OUT)*%
X147000000Y-99902500D02*
X149402500Y-97500000D01*
X152400484Y-99849999D02*
X152637500Y-99612983D01*
X152637500Y-99612983D02*
X152637500Y-97500000D01*
X149402500Y-97500000D02*
X152637500Y-97500000D01*
%TO.N,Net-(U2-VO)*%
X110850000Y-77700000D02*
X108500000Y-77700000D01*
X108500000Y-77700000D02*
X108403668Y-77700000D01*
X108402500Y-77701168D02*
X108403668Y-77700000D01*
X102000000Y-77637500D02*
X104487500Y-77637500D01*
X108402500Y-82500000D02*
X108402500Y-77701168D01*
X109597500Y-83695000D02*
X108402500Y-82500000D01*
X108403668Y-77700000D02*
X104550000Y-77700000D01*
X109597500Y-85010000D02*
X109597500Y-83695000D01*
X104487500Y-77637500D02*
X104550000Y-77700000D01*
%TO.N,VCC*%
X114750000Y-48000000D02*
X116500000Y-49750000D01*
X148700000Y-35900000D02*
X149045000Y-36245000D01*
X111087500Y-51867500D02*
X110767500Y-52187500D01*
X141347500Y-106750000D02*
X122750000Y-106750000D01*
X143000000Y-35900000D02*
X148700000Y-35900000D01*
X110100000Y-91600000D02*
X105900000Y-91600000D01*
X111804125Y-44159125D02*
X112484125Y-44159125D01*
X120750000Y-58750000D02*
X117887500Y-55887500D01*
X149045000Y-36245000D02*
X149045000Y-37500000D01*
X142695000Y-35595000D02*
X143000000Y-35900000D01*
X116500000Y-49750000D02*
X116500000Y-52500000D01*
X120250000Y-66500000D02*
X116680000Y-70070000D01*
D47*
X112484125Y-44159125D02*
X112500000Y-44175000D01*
D49*
X119412500Y-44807500D02*
X119832500Y-44387500D01*
X111500000Y-82500000D02*
X109597500Y-82500000D01*
X119412500Y-45587500D02*
X119412500Y-44807500D01*
X142695000Y-32500000D02*
X142695000Y-35595000D01*
X110767500Y-53232500D02*
X110767500Y-52187500D01*
X111850000Y-56262500D02*
X110325000Y-56262500D01*
X149967500Y-37500000D02*
X149045000Y-37500000D01*
X122500000Y-43000000D02*
X121220000Y-43000000D01*
X122750000Y-106750000D02*
X122000000Y-106750000D01*
D47*
X108750000Y-43750000D02*
X108845000Y-43655000D01*
D49*
X147000000Y-101097500D02*
X141347500Y-106750000D01*
D47*
X117167500Y-54887500D02*
X117167500Y-55857500D01*
D49*
X105900000Y-91600000D02*
X105000000Y-92500000D01*
X110250000Y-53750000D02*
X110767500Y-53232500D01*
X110300000Y-56287500D02*
X110300000Y-55787500D01*
D47*
X123045400Y-124000000D02*
X124432500Y-124000000D01*
X110325000Y-56262500D02*
X110300000Y-56287500D01*
X116500000Y-52500000D02*
X116500000Y-54220000D01*
D49*
X112250000Y-65000000D02*
X119750000Y-65000000D01*
D47*
X121984500Y-125060900D02*
X123045400Y-124000000D01*
D49*
X117887500Y-55887500D02*
X117197500Y-55887500D01*
X111300000Y-43655000D02*
X111804125Y-44159125D01*
D47*
X117167500Y-55857500D02*
X117197500Y-55887500D01*
D49*
X111087500Y-51087500D02*
X111087500Y-51867500D01*
X116680000Y-70070000D02*
X116680000Y-72800000D01*
X120250000Y-65500000D02*
X120250000Y-66500000D01*
X108845000Y-43655000D02*
X111300000Y-43655000D01*
X111500000Y-65750000D02*
X112250000Y-65000000D01*
X105000000Y-92500000D02*
X105000000Y-94902500D01*
X150600000Y-36867500D02*
X149967500Y-37500000D01*
D47*
X116500000Y-54220000D02*
X117167500Y-54887500D01*
D49*
X119750000Y-65000000D02*
X120250000Y-65500000D01*
X113662500Y-51087500D02*
X111087500Y-51087500D01*
X110300000Y-56790000D02*
X110300000Y-56287500D01*
X111450000Y-92950000D02*
X110100000Y-91600000D01*
X113750000Y-48000000D02*
X114750000Y-48000000D01*
X121220000Y-43000000D02*
X119832500Y-44387500D01*
D47*
%TO.N,Net-(U3-NRST)*%
X115400000Y-55887500D02*
X116002500Y-55887500D01*
X115300000Y-54387500D02*
X115300000Y-55787500D01*
X115300000Y-55787500D02*
X115400000Y-55887500D01*
X115500000Y-52500000D02*
X115500000Y-54187500D01*
X116002500Y-56857500D02*
X116032500Y-56887500D01*
X116002500Y-55887500D02*
X116002500Y-56857500D01*
X115500000Y-54187500D02*
X115300000Y-54387500D01*
%TO.N,/MCU/PD0*%
X114500000Y-52500000D02*
X114500000Y-55712500D01*
X114500000Y-55712500D02*
X113950000Y-56262500D01*
%TO.N,/MCU/PC14*%
X109650000Y-62637500D02*
X109000000Y-61987500D01*
X109700000Y-54787500D02*
X112712500Y-54787500D01*
X113132500Y-62687500D02*
X111050000Y-62687500D01*
X112712500Y-54787500D02*
X113500000Y-54000000D01*
X109000000Y-61987500D02*
X109000000Y-55487500D01*
X111000000Y-62637500D02*
X109650000Y-62637500D01*
X109000000Y-55487500D02*
X109700000Y-54787500D01*
X113500000Y-54000000D02*
X113500000Y-52500000D01*
X111050000Y-62687500D02*
X111000000Y-62637500D01*
%TO.N,/MCU/PC15*%
X113132500Y-61487500D02*
X113132500Y-60632500D01*
X114000000Y-54400000D02*
X113212500Y-55187500D01*
X113132500Y-60632500D02*
X112637500Y-60137500D01*
X109737500Y-60137500D02*
X111000000Y-60137500D01*
X113212500Y-55187500D02*
X109900000Y-55187500D01*
X112637500Y-60137500D02*
X111000000Y-60137500D01*
X109900000Y-55187500D02*
X109400000Y-55687500D01*
X109400000Y-55687500D02*
X109400000Y-59800000D01*
X114000000Y-52500000D02*
X114000000Y-54400000D01*
X109400000Y-59800000D02*
X109737500Y-60137500D01*
%TO.N,Net-(U5-OUTPUT)*%
X119137500Y-121000000D02*
X116904500Y-123233000D01*
X119137500Y-121000000D02*
X119137500Y-120112500D01*
X122152500Y-119500000D02*
X123402500Y-120750000D01*
X116904500Y-123233000D02*
X116904500Y-125060900D01*
X119750000Y-119500000D02*
X122152500Y-119500000D01*
X119137500Y-120112500D02*
X119750000Y-119500000D01*
%TO.N,Net-(D00-K)*%
X135427500Y-53672500D02*
X135400000Y-53700000D01*
X153300000Y-53700000D02*
X150400000Y-53700000D01*
X141400000Y-53700000D02*
X138400000Y-53700000D01*
X132427500Y-53527500D02*
X132427500Y-53000000D01*
X141427500Y-53672500D02*
X141400000Y-53700000D01*
X135400000Y-53700000D02*
X132600000Y-53700000D01*
X144427500Y-53672500D02*
X144400000Y-53700000D01*
X138400000Y-53700000D02*
X135400000Y-53700000D01*
X132600000Y-53700000D02*
X132600000Y-54000000D01*
X147427500Y-53000000D02*
X147400000Y-53000000D01*
X150427500Y-53000000D02*
X150427500Y-53672500D01*
X135427500Y-53000000D02*
X135427500Y-53672500D01*
X153427500Y-53000000D02*
X153427500Y-53572500D01*
X132837500Y-47100000D02*
X132500000Y-47437500D01*
X147400000Y-53700000D02*
X144400000Y-53700000D01*
X144400000Y-53700000D02*
X141400000Y-53700000D01*
X144427500Y-53000000D02*
X144427500Y-53672500D01*
X138427500Y-53672500D02*
X138400000Y-53700000D01*
X153427500Y-53572500D02*
X153300000Y-53700000D01*
X147400000Y-53000000D02*
X147400000Y-53700000D01*
X150427500Y-53672500D02*
X150400000Y-53700000D01*
X141427500Y-53000000D02*
X141427500Y-53672500D01*
X132600000Y-53700000D02*
X132427500Y-53527500D01*
X150400000Y-53700000D02*
X147400000Y-53700000D01*
X132662500Y-47600000D02*
X132500000Y-47437500D01*
X138427500Y-53000000D02*
X138427500Y-53672500D01*
X133300000Y-47100000D02*
X132837500Y-47100000D01*
%TO.N,Net-(D00-A)*%
X133597500Y-47902500D02*
X133600000Y-47900000D01*
X133572500Y-71000000D02*
X133572500Y-70472500D01*
X133572500Y-68000000D02*
X133572500Y-67472500D01*
X133572500Y-62000000D02*
X133572500Y-61472500D01*
X133572500Y-67472500D02*
X133300000Y-67200000D01*
X133572500Y-64472500D02*
X133300000Y-64200000D01*
X133572500Y-56000000D02*
X133572500Y-55472500D01*
X133572500Y-70472500D02*
X133300000Y-70200000D01*
X133597500Y-52975000D02*
X133572500Y-53000000D01*
X133572500Y-65000000D02*
X133572500Y-64472500D01*
X133572500Y-55472500D02*
X133300000Y-55200000D01*
X133572500Y-59000000D02*
X133572500Y-58472500D01*
X133572500Y-74000000D02*
X133572500Y-73472500D01*
X133572500Y-52472500D02*
X133300000Y-52200000D01*
X133572500Y-58472500D02*
X133300000Y-58200000D01*
X133597500Y-49000000D02*
X133597500Y-47902500D01*
X133572500Y-61472500D02*
X133300000Y-61200000D01*
X133572500Y-73472500D02*
X133300000Y-73200000D01*
X133572500Y-53000000D02*
X133572500Y-52472500D01*
D49*
%TO.N,+BATT*%
X111500000Y-104000000D02*
X111500000Y-102362500D01*
X112500000Y-68000000D02*
X108250000Y-63750000D01*
X111500000Y-102362500D02*
X108537500Y-102362500D01*
X116250000Y-104000000D02*
X116250000Y-104750000D01*
X112757649Y-101104851D02*
X112757649Y-92552351D01*
X115500000Y-105500000D02*
X113000000Y-105500000D01*
X112757649Y-92552351D02*
X113030000Y-92280000D01*
X113000000Y-68000000D02*
X112500000Y-68000000D01*
X105000000Y-96097500D02*
X103000000Y-98097500D01*
X113000000Y-105500000D02*
X111500000Y-104000000D01*
X108250000Y-63750000D02*
X108250000Y-55461759D01*
X116250000Y-104750000D02*
X115500000Y-105500000D01*
X106992500Y-103907500D02*
X105250000Y-103907500D01*
X108250000Y-55461759D02*
X109370449Y-54341310D01*
X112158690Y-54341310D02*
X112500000Y-54000000D01*
X103000000Y-98097500D02*
X103000000Y-101657500D01*
X113030000Y-92280000D02*
X113030000Y-91780000D01*
D47*
X113030000Y-91780000D02*
X113000000Y-91750000D01*
D49*
X112500000Y-54000000D02*
X112500000Y-52500000D01*
X111500000Y-102362500D02*
X112757649Y-101104851D01*
X109370449Y-54341310D02*
X112158690Y-54341310D01*
X108537500Y-102362500D02*
X106992500Y-103907500D01*
X103000000Y-101657500D02*
X105250000Y-103907500D01*
D47*
%TO.N,Net-(D01-A)*%
X136597500Y-49000000D02*
X137197500Y-48400000D01*
X136597500Y-52975000D02*
X136572500Y-53000000D01*
X136572500Y-67472500D02*
X136300000Y-67200000D01*
X136572500Y-68000000D02*
X136572500Y-67472500D01*
X136572500Y-64472500D02*
X136300000Y-64200000D01*
X136572500Y-65000000D02*
X136572500Y-64472500D01*
X136572500Y-59000000D02*
X136572500Y-58472500D01*
X136572500Y-73472500D02*
X136300000Y-73200000D01*
X136572500Y-70472500D02*
X136300000Y-70200000D01*
X136572500Y-53000000D02*
X136572500Y-52472500D01*
X136572500Y-55472500D02*
X136300000Y-55200000D01*
X137197500Y-48400000D02*
X137200000Y-48400000D01*
X136572500Y-71000000D02*
X136572500Y-70472500D01*
X136572500Y-52472500D02*
X136300000Y-52200000D01*
X136572500Y-58472500D02*
X136300000Y-58200000D01*
X136572500Y-61472500D02*
X136300000Y-61200000D01*
X136572500Y-56000000D02*
X136572500Y-55472500D01*
X136572500Y-62000000D02*
X136572500Y-61472500D01*
X136597500Y-49000000D02*
X136800000Y-49000000D01*
X136572500Y-74000000D02*
X136572500Y-73472500D01*
X137200000Y-48400000D02*
X137200000Y-47900000D01*
%TO.N,Net-(D2-A)*%
X119402500Y-37402500D02*
X119500000Y-37500000D01*
X117000000Y-37402500D02*
X119402500Y-37402500D01*
X117000000Y-36800000D02*
X117000000Y-37402500D01*
X114500000Y-71000000D02*
X119500000Y-66000000D01*
X116250000Y-96250000D02*
X114500000Y-94500000D01*
X116550000Y-36350000D02*
X117000000Y-36800000D01*
X116550000Y-34953900D02*
X116550000Y-36350000D01*
X114500000Y-94500000D02*
X114500000Y-71000000D01*
X116250000Y-96250000D02*
X116250000Y-100000000D01*
%TO.N,Net-(D02-A)*%
X139572500Y-55472500D02*
X139300000Y-55200000D01*
X139572500Y-65000000D02*
X139572500Y-64472500D01*
X139597500Y-55975000D02*
X139572500Y-56000000D01*
X139572500Y-74000000D02*
X139572500Y-73472500D01*
X139572500Y-68000000D02*
X139572500Y-67472500D01*
X139572500Y-53000000D02*
X139572500Y-52472500D01*
X139597500Y-73975000D02*
X139572500Y-74000000D01*
X139597500Y-58975000D02*
X139572500Y-59000000D01*
X139597500Y-49000000D02*
X140100000Y-49000000D01*
X139597500Y-70975000D02*
X139572500Y-71000000D01*
X139572500Y-71000000D02*
X139572500Y-70472500D01*
X139572500Y-56000000D02*
X139572500Y-55472500D01*
X139597500Y-64975000D02*
X139572500Y-65000000D01*
X139597500Y-61975000D02*
X139572500Y-62000000D01*
X140300000Y-48800000D02*
X140400000Y-48700000D01*
X140400000Y-48700000D02*
X140400000Y-47900000D01*
X139597500Y-52975000D02*
X139572500Y-53000000D01*
X140100000Y-49000000D02*
X140300000Y-48800000D01*
X139572500Y-73472500D02*
X139300000Y-73200000D01*
X139572500Y-61472500D02*
X139300000Y-61200000D01*
X139572500Y-52472500D02*
X139300000Y-52200000D01*
X139572500Y-67472500D02*
X139300000Y-67200000D01*
X139572500Y-58472500D02*
X139300000Y-58200000D01*
X139572500Y-70472500D02*
X139300000Y-70200000D01*
X139597500Y-67975000D02*
X139572500Y-68000000D01*
X139572500Y-64472500D02*
X139300000Y-64200000D01*
X139572500Y-62000000D02*
X139572500Y-61472500D01*
X139572500Y-59000000D02*
X139572500Y-58472500D01*
%TO.N,/MCU/PA9*%
X115500000Y-41500000D02*
X115500000Y-44175000D01*
X135700000Y-30900000D02*
X135432400Y-30632400D01*
X118707354Y-39529800D02*
X117000000Y-39529800D01*
X147400000Y-30700000D02*
X138200000Y-30700000D01*
X135432400Y-30632400D02*
X121237684Y-30632400D01*
X147775000Y-32500000D02*
X147775000Y-31075000D01*
X137600000Y-31300000D02*
X137200000Y-30900000D01*
X137400000Y-30700000D02*
X137200000Y-30900000D01*
X120832400Y-37404754D02*
X118707354Y-39529800D01*
X137600000Y-31802500D02*
X137600000Y-31300000D01*
X115500000Y-41029800D02*
X115500000Y-41500000D01*
X138200000Y-30700000D02*
X137400000Y-30700000D01*
X120832400Y-31037684D02*
X120832400Y-37404754D01*
X147775000Y-31075000D02*
X147400000Y-30700000D01*
X117000000Y-39529800D02*
X115500000Y-41029800D01*
X121237684Y-30632400D02*
X120832400Y-31037684D01*
%TO.N,Net-(D03-A)*%
X142572500Y-55472500D02*
X142300000Y-55200000D01*
X142572500Y-68000000D02*
X142572500Y-67472500D01*
X142597500Y-58975000D02*
X142572500Y-59000000D01*
X142597500Y-61975000D02*
X142572500Y-62000000D01*
X142572500Y-65000000D02*
X142572500Y-64472500D01*
X142572500Y-59000000D02*
X142572500Y-58472500D01*
X142597500Y-73975000D02*
X142572500Y-74000000D01*
X142597500Y-55975000D02*
X142572500Y-56000000D01*
X142597500Y-70975000D02*
X142572500Y-71000000D01*
X142572500Y-70472500D02*
X142300000Y-70200000D01*
X142572500Y-52472500D02*
X142300000Y-52200000D01*
X142572500Y-73472500D02*
X142300000Y-73200000D01*
X142572500Y-56000000D02*
X142572500Y-55472500D01*
X142572500Y-58472500D02*
X142300000Y-58200000D01*
X142572500Y-62000000D02*
X142572500Y-61472500D01*
X142900000Y-49000000D02*
X144000000Y-47900000D01*
X142597500Y-52975000D02*
X142572500Y-53000000D01*
X142572500Y-64472500D02*
X142300000Y-64200000D01*
X142572500Y-53000000D02*
X142572500Y-52472500D01*
X142572500Y-67472500D02*
X142300000Y-67200000D01*
X142572500Y-74000000D02*
X142572500Y-73472500D01*
X142597500Y-64975000D02*
X142572500Y-65000000D01*
X142597500Y-49000000D02*
X142900000Y-49000000D01*
X142572500Y-61472500D02*
X142300000Y-61200000D01*
X142597500Y-67975000D02*
X142572500Y-68000000D01*
X142572500Y-71000000D02*
X142572500Y-70472500D01*
%TO.N,Net-(D04-A)*%
X145572500Y-56000000D02*
X145572500Y-55472500D01*
X145572500Y-59000000D02*
X145572500Y-58472500D01*
X145597500Y-58975000D02*
X145572500Y-59000000D01*
X145572500Y-61472500D02*
X145300000Y-61200000D01*
X145597500Y-67975000D02*
X145572500Y-68000000D01*
X145572500Y-68000000D02*
X145572500Y-67472500D01*
X145572500Y-65000000D02*
X145572500Y-64472500D01*
X145572500Y-71000000D02*
X145572500Y-70472500D01*
X145572500Y-73472500D02*
X145300000Y-73200000D01*
X145572500Y-58472500D02*
X145300000Y-58200000D01*
X145572500Y-62000000D02*
X145572500Y-61472500D01*
X145572500Y-64472500D02*
X145300000Y-64200000D01*
X145597500Y-61975000D02*
X145572500Y-62000000D01*
X145572500Y-53000000D02*
X145572500Y-52472500D01*
X145597500Y-73975000D02*
X145572500Y-74000000D01*
X145497500Y-49000000D02*
X146500000Y-49000000D01*
X145572500Y-70472500D02*
X145300000Y-70200000D01*
X145597500Y-70975000D02*
X145572500Y-71000000D01*
X145572500Y-52472500D02*
X145300000Y-52200000D01*
X145597500Y-55975000D02*
X145572500Y-56000000D01*
X145572500Y-67472500D02*
X145300000Y-67200000D01*
X145597500Y-64975000D02*
X145572500Y-65000000D01*
X145572500Y-55472500D02*
X145300000Y-55200000D01*
X145572500Y-74000000D02*
X145572500Y-73472500D01*
X145597500Y-52975000D02*
X145572500Y-53000000D01*
%TO.N,Net-(D05-A)*%
X148572500Y-55472500D02*
X148300000Y-55200000D01*
X148572500Y-65000000D02*
X148572500Y-64472500D01*
X148572500Y-59000000D02*
X148572500Y-58472500D01*
X148572500Y-61472500D02*
X148300000Y-61200000D01*
X148572500Y-58472500D02*
X148300000Y-58200000D01*
X148572500Y-52472500D02*
X148300000Y-52200000D01*
X148572500Y-68000000D02*
X148572500Y-67472500D01*
X148572500Y-62000000D02*
X148572500Y-61472500D01*
X148572500Y-56000000D02*
X148572500Y-55472500D01*
X148572500Y-74000000D02*
X148572500Y-73472500D01*
X148572500Y-64472500D02*
X148300000Y-64200000D01*
X149097500Y-49000000D02*
X149097500Y-47997500D01*
X148597500Y-55975000D02*
X148572500Y-56000000D01*
X148597500Y-64975000D02*
X148572500Y-65000000D01*
X148572500Y-70472500D02*
X148300000Y-70200000D01*
X149097500Y-47997500D02*
X149000000Y-47900000D01*
X148597500Y-67975000D02*
X148572500Y-68000000D01*
X148572500Y-71000000D02*
X148572500Y-70472500D01*
X148597500Y-52975000D02*
X148572500Y-53000000D01*
X148597500Y-61975000D02*
X148572500Y-62000000D01*
X148572500Y-73472500D02*
X148300000Y-73200000D01*
X148572500Y-53000000D02*
X148572500Y-52472500D01*
X148597500Y-70975000D02*
X148572500Y-71000000D01*
X148572500Y-67472500D02*
X148300000Y-67200000D01*
X148597500Y-58975000D02*
X148572500Y-59000000D01*
X148597500Y-73975000D02*
X148572500Y-74000000D01*
%TO.N,Net-(D06-A)*%
X151572500Y-65000000D02*
X151572500Y-64472500D01*
X151597500Y-70975000D02*
X151572500Y-71000000D01*
X151572500Y-52472500D02*
X151300000Y-52200000D01*
X151572500Y-59000000D02*
X151572500Y-58472500D01*
X151572500Y-58472500D02*
X151300000Y-58200000D01*
X151572500Y-68000000D02*
X151572500Y-67472500D01*
X151572500Y-55472500D02*
X151300000Y-55200000D01*
X151597500Y-52975000D02*
X151572500Y-53000000D01*
X152097500Y-48102500D02*
X152300000Y-47900000D01*
X151572500Y-56000000D02*
X151572500Y-55472500D01*
X151597500Y-55975000D02*
X151572500Y-56000000D01*
X151572500Y-62000000D02*
X151572500Y-61472500D01*
X151572500Y-61472500D02*
X151300000Y-61200000D01*
X151572500Y-73472500D02*
X151300000Y-73200000D01*
X151572500Y-67472500D02*
X151300000Y-67200000D01*
X151572500Y-70472500D02*
X151300000Y-70200000D01*
X151597500Y-58975000D02*
X151572500Y-59000000D01*
X151597500Y-67975000D02*
X151572500Y-68000000D01*
X151597500Y-61975000D02*
X151572500Y-62000000D01*
X151597500Y-73975000D02*
X151572500Y-74000000D01*
X151572500Y-74000000D02*
X151572500Y-73472500D01*
X151572500Y-64472500D02*
X151300000Y-64200000D01*
X151572500Y-53000000D02*
X151572500Y-52472500D01*
X151597500Y-64975000D02*
X151572500Y-65000000D01*
X152097500Y-49000000D02*
X152097500Y-48102500D01*
X151572500Y-71000000D02*
X151572500Y-70472500D01*
%TO.N,Net-(D07-A)*%
X154572500Y-53000000D02*
X154572500Y-52472500D01*
X154572500Y-73472500D02*
X154300000Y-73200000D01*
X154597500Y-70975000D02*
X154572500Y-71000000D01*
X154572500Y-74000000D02*
X154572500Y-73472500D01*
X154572500Y-67472500D02*
X154300000Y-67200000D01*
X154572500Y-68000000D02*
X154572500Y-67472500D01*
X154597500Y-58975000D02*
X154572500Y-59000000D01*
X154572500Y-65000000D02*
X154572500Y-64472500D01*
X154572500Y-58472500D02*
X154300000Y-58200000D01*
X155097500Y-52475000D02*
X154572500Y-53000000D01*
X154597500Y-73975000D02*
X154572500Y-74000000D01*
X154572500Y-70472500D02*
X154300000Y-70200000D01*
X154597500Y-55975000D02*
X154572500Y-56000000D01*
X155097500Y-49000000D02*
X155097500Y-52475000D01*
X154597500Y-64975000D02*
X154572500Y-65000000D01*
X154572500Y-59000000D02*
X154572500Y-58472500D01*
X154572500Y-64472500D02*
X154300000Y-64200000D01*
X154572500Y-52472500D02*
X154300000Y-52200000D01*
X154597500Y-61975000D02*
X154572500Y-62000000D01*
X154572500Y-56000000D02*
X154572500Y-55472500D01*
X154572500Y-55472500D02*
X154300000Y-55200000D01*
X154572500Y-61472500D02*
X154300000Y-61200000D01*
X154572500Y-71000000D02*
X154572500Y-70472500D01*
X154572500Y-62000000D02*
X154572500Y-61472500D01*
X154597500Y-67975000D02*
X154572500Y-68000000D01*
%TO.N,Net-(D10-K)*%
X144427500Y-56730548D02*
X144400000Y-56758048D01*
X141427500Y-56730548D02*
X141400000Y-56758048D01*
X144427500Y-56000000D02*
X144427500Y-56730548D01*
X138427500Y-56000000D02*
X138427500Y-56730548D01*
X132427500Y-56000000D02*
X132427500Y-56427500D01*
X132427500Y-56427500D02*
X132758048Y-56758048D01*
X150400000Y-56758048D02*
X153241952Y-56758048D01*
X153427500Y-56572500D02*
X153427500Y-56000000D01*
X144400000Y-56758048D02*
X147400000Y-56758048D01*
X150427500Y-56730548D02*
X150400000Y-56758048D01*
X135437500Y-47437500D02*
X135100000Y-47100000D01*
X153241952Y-56758048D02*
X153427500Y-56572500D01*
X135407351Y-56700000D02*
X135400000Y-56700000D01*
X135427500Y-56672500D02*
X135427500Y-56000000D01*
X135465399Y-56758048D02*
X138400000Y-56758048D01*
X147400000Y-56758048D02*
X150400000Y-56758048D01*
X150427500Y-56000000D02*
X150427500Y-56730548D01*
X141427500Y-56000000D02*
X141427500Y-56730548D01*
X138400000Y-56758048D02*
X141400000Y-56758048D01*
X135465399Y-56758048D02*
X135407351Y-56700000D01*
X147427500Y-56000000D02*
X147427500Y-56730548D01*
X147427500Y-56730548D02*
X147400000Y-56758048D01*
X141400000Y-56758048D02*
X144400000Y-56758048D01*
X132758048Y-56758048D02*
X135465399Y-56758048D01*
X135400000Y-56700000D02*
X135427500Y-56672500D01*
X136000000Y-47437500D02*
X135437500Y-47437500D01*
X138427500Y-56730548D02*
X138400000Y-56758048D01*
%TO.N,Net-(D20-K)*%
X153427500Y-59472500D02*
X153427500Y-59000000D01*
X144427500Y-59000000D02*
X144427500Y-59627500D01*
X144500000Y-59700000D02*
X147250000Y-59700000D01*
X144250000Y-59700000D02*
X144500000Y-59700000D01*
X135400000Y-59700000D02*
X138400000Y-59700000D01*
X132700000Y-59700000D02*
X135400000Y-59700000D01*
X138427500Y-59672500D02*
X138400000Y-59700000D01*
X147427500Y-59000000D02*
X147427500Y-59627500D01*
X135427500Y-59672500D02*
X135400000Y-59700000D01*
X141427500Y-59000000D02*
X141427500Y-59672500D01*
X135427500Y-59000000D02*
X135427500Y-59672500D01*
X141427500Y-59672500D02*
X141400000Y-59700000D01*
X147250000Y-59700000D02*
X147500000Y-59700000D01*
X132427500Y-59000000D02*
X132427500Y-59427500D01*
X138600000Y-59700000D02*
X141400000Y-59700000D01*
X153200000Y-59700000D02*
X153427500Y-59472500D01*
X139500000Y-47437500D02*
X138837500Y-47437500D01*
X147500000Y-59700000D02*
X150500000Y-59700000D01*
X141400000Y-59700000D02*
X144250000Y-59700000D01*
X144427500Y-59627500D02*
X144500000Y-59700000D01*
X147427500Y-59627500D02*
X147500000Y-59700000D01*
X138427500Y-59000000D02*
X138427500Y-59672500D01*
X138400000Y-59700000D02*
X138600000Y-59700000D01*
X150500000Y-59700000D02*
X153200000Y-59700000D01*
X150427500Y-59627500D02*
X150500000Y-59700000D01*
X138600000Y-59700000D02*
X138600000Y-60000000D01*
X132427500Y-59427500D02*
X132700000Y-59700000D01*
X150427500Y-59000000D02*
X150427500Y-59627500D01*
X138837500Y-47437500D02*
X138500000Y-47100000D01*
%TO.N,Net-(D30-K)*%
X142337500Y-47437500D02*
X141900000Y-47000000D01*
X147427500Y-62000000D02*
X147427500Y-62627500D01*
X144427500Y-62000000D02*
X144427500Y-62627500D01*
X153427500Y-62572500D02*
X153300000Y-62700000D01*
X135500000Y-62700000D02*
X132600000Y-62700000D01*
X150500000Y-62700000D02*
X147500000Y-62700000D01*
X144427500Y-62627500D02*
X144500000Y-62700000D01*
X143000000Y-47437500D02*
X142337500Y-47437500D01*
X132600000Y-62700000D02*
X132427500Y-62527500D01*
X141600000Y-62700000D02*
X141500000Y-62700000D01*
X132427500Y-62527500D02*
X132427500Y-62000000D01*
X141600000Y-62700000D02*
X141600000Y-63000000D01*
X138427500Y-62627500D02*
X138500000Y-62700000D01*
X141427500Y-62000000D02*
X141427500Y-62627500D01*
X147427500Y-62627500D02*
X147500000Y-62700000D01*
X138427500Y-62000000D02*
X138427500Y-62627500D01*
X153427500Y-62000000D02*
X153427500Y-62572500D01*
X150427500Y-62000000D02*
X150427500Y-62627500D01*
X138250000Y-62700000D02*
X135500000Y-62700000D01*
X147500000Y-62700000D02*
X144500000Y-62700000D01*
X138500000Y-62700000D02*
X138250000Y-62700000D01*
X135427500Y-62627500D02*
X135500000Y-62700000D01*
X144500000Y-62700000D02*
X144250000Y-62700000D01*
X141427500Y-62627500D02*
X141500000Y-62700000D01*
X141500000Y-62700000D02*
X138500000Y-62700000D01*
X153300000Y-62700000D02*
X150500000Y-62700000D01*
X135427500Y-62000000D02*
X135427500Y-62627500D01*
X150427500Y-62627500D02*
X150500000Y-62700000D01*
X144250000Y-62700000D02*
X141600000Y-62700000D01*
%TO.N,Net-(D40-K)*%
X144500000Y-65700000D02*
X144600000Y-65700000D01*
X146500000Y-47437500D02*
X145837500Y-47437500D01*
X150427500Y-65672500D02*
X150400000Y-65700000D01*
X138427500Y-65627500D02*
X138500000Y-65700000D01*
X141427500Y-65627500D02*
X141500000Y-65700000D01*
X145837500Y-47437500D02*
X145400000Y-47000000D01*
X132427500Y-65627500D02*
X132500000Y-65700000D01*
X138500000Y-65700000D02*
X141500000Y-65700000D01*
X150400000Y-65700000D02*
X153200000Y-65700000D01*
X135427500Y-65627500D02*
X135500000Y-65700000D01*
X144600000Y-65700000D02*
X144600000Y-66000000D01*
X147400000Y-65700000D02*
X150400000Y-65700000D01*
X132500000Y-65700000D02*
X135500000Y-65700000D01*
X141427500Y-65000000D02*
X141427500Y-65627500D01*
X144427500Y-65627500D02*
X144500000Y-65700000D01*
X144600000Y-65700000D02*
X147400000Y-65700000D01*
X141500000Y-65700000D02*
X144500000Y-65700000D01*
X147427500Y-65672500D02*
X147400000Y-65700000D01*
X144427500Y-65000000D02*
X144427500Y-65627500D01*
X150427500Y-65000000D02*
X150427500Y-65672500D01*
X135427500Y-65000000D02*
X135427500Y-65627500D01*
X147427500Y-65000000D02*
X147427500Y-65672500D01*
X132427500Y-65000000D02*
X132427500Y-65627500D01*
X153427500Y-65472500D02*
X153427500Y-65000000D01*
X153200000Y-65700000D02*
X153427500Y-65472500D01*
X135500000Y-65700000D02*
X138500000Y-65700000D01*
X138427500Y-65000000D02*
X138427500Y-65627500D01*
%TO.N,Net-(D50-K)*%
X141427500Y-68672500D02*
X141400000Y-68700000D01*
X147400000Y-68700000D02*
X147600000Y-68700000D01*
X150427500Y-68672500D02*
X150400000Y-68700000D01*
X150427500Y-68000000D02*
X150427500Y-68672500D01*
X144427500Y-68672500D02*
X144400000Y-68700000D01*
X141427500Y-68000000D02*
X141427500Y-68672500D01*
X138427500Y-68672500D02*
X138400000Y-68700000D01*
X149338655Y-47437500D02*
X148901155Y-47000000D01*
X138427500Y-68000000D02*
X138427500Y-68672500D01*
X147427500Y-68000000D02*
X147427500Y-68672500D01*
X135427500Y-68672500D02*
X135400000Y-68700000D01*
X138400000Y-68700000D02*
X141400000Y-68700000D01*
X141400000Y-68700000D02*
X144400000Y-68700000D01*
X147427500Y-68672500D02*
X147400000Y-68700000D01*
X144400000Y-68700000D02*
X147400000Y-68700000D01*
X153427500Y-68472500D02*
X153427500Y-68000000D01*
X135400000Y-68700000D02*
X138400000Y-68700000D01*
X147600000Y-68700000D02*
X150400000Y-68700000D01*
X132427500Y-68527500D02*
X132600000Y-68700000D01*
X147600000Y-68700000D02*
X147600000Y-69000000D01*
X153200000Y-68700000D02*
X153427500Y-68472500D01*
X148901155Y-47000000D02*
X148600000Y-47000000D01*
X132600000Y-68700000D02*
X135400000Y-68700000D01*
X150000000Y-47437500D02*
X149338655Y-47437500D01*
X135427500Y-68000000D02*
X135427500Y-68672500D01*
X132427500Y-68000000D02*
X132427500Y-68527500D01*
X150400000Y-68700000D02*
X153200000Y-68700000D01*
X144427500Y-68000000D02*
X144427500Y-68672500D01*
%TO.N,Net-(D60-K)*%
X144400000Y-71700000D02*
X147400000Y-71700000D01*
X141427500Y-71000000D02*
X141427500Y-71627500D01*
X152900000Y-47500000D02*
X152400000Y-47000000D01*
X147400000Y-71700000D02*
X150400000Y-71700000D01*
X141427500Y-71627500D02*
X141500000Y-71700000D01*
X150600000Y-71700000D02*
X153300000Y-71700000D01*
X153437500Y-47500000D02*
X152900000Y-47500000D01*
X153427500Y-71572500D02*
X153427500Y-71000000D01*
X132600000Y-71700000D02*
X135500000Y-71700000D01*
X150400000Y-71700000D02*
X150600000Y-71700000D01*
X135427500Y-71627500D02*
X135500000Y-71700000D01*
X132427500Y-71000000D02*
X132427500Y-71527500D01*
X150600000Y-71700000D02*
X150600000Y-72000000D01*
X147427500Y-71000000D02*
X147427500Y-71672500D01*
X138427500Y-71000000D02*
X138427500Y-71627500D01*
X153500000Y-47437500D02*
X153437500Y-47500000D01*
X141500000Y-71700000D02*
X144400000Y-71700000D01*
X138427500Y-71627500D02*
X138500000Y-71700000D01*
X144427500Y-71000000D02*
X144427500Y-71672500D01*
X150427500Y-71672500D02*
X150400000Y-71700000D01*
X135500000Y-71700000D02*
X138500000Y-71700000D01*
X138500000Y-71700000D02*
X141500000Y-71700000D01*
X144427500Y-71672500D02*
X144400000Y-71700000D01*
X147427500Y-71672500D02*
X147400000Y-71700000D01*
X150427500Y-71000000D02*
X150427500Y-71672500D01*
X135427500Y-71000000D02*
X135427500Y-71627500D01*
X132427500Y-71527500D02*
X132600000Y-71700000D01*
X153300000Y-71700000D02*
X153427500Y-71572500D01*
%TO.N,Net-(D70-K)*%
X141500000Y-74700000D02*
X144500000Y-74700000D01*
X153427500Y-74472500D02*
X153427500Y-74000000D01*
X141427500Y-74000000D02*
X141427500Y-74627500D01*
X144500000Y-74700000D02*
X147500000Y-74700000D01*
X150427500Y-74627500D02*
X150500000Y-74700000D01*
X153500000Y-75000000D02*
X153600000Y-75000000D01*
X135427500Y-74000000D02*
X135427500Y-74627500D01*
X144427500Y-74627500D02*
X144500000Y-74700000D01*
X154437500Y-42937500D02*
X155100000Y-43600000D01*
X150427500Y-74000000D02*
X150427500Y-74627500D01*
X141427500Y-74627500D02*
X141500000Y-74700000D01*
X150500000Y-74700000D02*
X153200000Y-74700000D01*
X153200000Y-74700000D02*
X153427500Y-74472500D01*
X147427500Y-74627500D02*
X147500000Y-74700000D01*
X132427500Y-74527500D02*
X132600000Y-74700000D01*
X147427500Y-74000000D02*
X147427500Y-74627500D01*
X135500000Y-74700000D02*
X138500000Y-74700000D01*
X138500000Y-74700000D02*
X141500000Y-74700000D01*
X138427500Y-74000000D02*
X138427500Y-74627500D01*
X153200000Y-74700000D02*
X153500000Y-75000000D01*
X154437500Y-42500000D02*
X154437500Y-42937500D01*
X144427500Y-74000000D02*
X144427500Y-74627500D01*
X147500000Y-74700000D02*
X150500000Y-74700000D01*
X138427500Y-74627500D02*
X138500000Y-74700000D01*
X132600000Y-74700000D02*
X135500000Y-74700000D01*
X135427500Y-74627500D02*
X135500000Y-74700000D01*
X132427500Y-74000000D02*
X132427500Y-74527500D01*
%TO.N,Net-(J1-D-)*%
X116000000Y-37402500D02*
X116000000Y-36600000D01*
X116000000Y-36600000D02*
X115900000Y-36500000D01*
X115900000Y-36500000D02*
X115899999Y-34953900D01*
%TO.N,Net-(J1-D+)*%
X115000000Y-36700000D02*
X115000000Y-37402500D01*
X115250000Y-36450000D02*
X115000000Y-36700000D01*
X115250000Y-34953900D02*
X115250000Y-36450000D01*
%TO.N,/MCU/PA14*%
X107500000Y-45000000D02*
X108087500Y-45587500D01*
X108087500Y-45587500D02*
X111087500Y-45587500D01*
%TO.N,/MCU/PA13*%
X113500000Y-44912499D02*
X114087501Y-45500000D01*
X113500000Y-44175000D02*
X113500000Y-44912499D01*
X114087501Y-45500000D02*
X116500000Y-45500000D01*
%TO.N,/MCU/PA0*%
X126500000Y-64750000D02*
X126500000Y-63000000D01*
X125000000Y-120750000D02*
X126750000Y-119000000D01*
X124597500Y-120750000D02*
X125000000Y-120750000D01*
X126500000Y-63000000D02*
X117000000Y-53500000D01*
X117000000Y-53500000D02*
X117000000Y-52500000D01*
%TO.N,/MCU/PA1*%
X117500000Y-53237499D02*
X127750000Y-63487499D01*
X126875000Y-126375000D02*
X126875000Y-128000000D01*
X127750000Y-63487499D02*
X127750000Y-64750000D01*
X117500000Y-52500000D02*
X117500000Y-53237499D01*
X127750000Y-125500000D02*
X126875000Y-126375000D01*
%TO.N,/MCU/PA4*%
X153902500Y-49000000D02*
X153902500Y-50097500D01*
X121787500Y-50587500D02*
X119412500Y-50587500D01*
X153902500Y-50097500D02*
X152362229Y-51637771D01*
X122837771Y-51637771D02*
X121787500Y-50587500D01*
X152362229Y-51637771D02*
X122837771Y-51637771D01*
%TO.N,/MCU/PA5*%
X121887500Y-50087500D02*
X119412500Y-50087500D01*
X123064711Y-51264711D02*
X121887500Y-50087500D01*
X150902500Y-50097500D02*
X149735289Y-51264711D01*
X149735289Y-51264711D02*
X123064711Y-51264711D01*
X150902500Y-49000000D02*
X150902500Y-50097500D01*
%TO.N,/MCU/PA6*%
X123417211Y-50917211D02*
X122087500Y-49587500D01*
X122087500Y-49587500D02*
X119412500Y-49587500D01*
X145985289Y-50917211D02*
X123417211Y-50917211D01*
X147902500Y-49000000D02*
X145985289Y-50917211D01*
%TO.N,/MCU/PA7*%
X143332789Y-50569711D02*
X123769711Y-50569711D01*
X144302500Y-49000000D02*
X144302500Y-49600000D01*
X122287500Y-49087500D02*
X119412500Y-49087500D01*
X123769711Y-50569711D02*
X122287500Y-49087500D01*
X144302500Y-49600000D02*
X143332789Y-50569711D01*
%TO.N,/MCU/PA10*%
X120500000Y-30900000D02*
X120500000Y-37267070D01*
X148600000Y-30300000D02*
X136800000Y-30300000D01*
X115000000Y-41059716D02*
X115000000Y-44175000D01*
X149045000Y-30745000D02*
X148600000Y-30300000D01*
X149045000Y-32500000D02*
X149045000Y-30745000D01*
X118569670Y-39197400D02*
X116862316Y-39197400D01*
X136800000Y-30300000D02*
X136500000Y-30300000D01*
X116862316Y-39197400D02*
X115000000Y-41059716D01*
X136500000Y-30300000D02*
X121100000Y-30300000D01*
X120500000Y-37267070D02*
X118569670Y-39197400D01*
X136500000Y-31802500D02*
X136500000Y-30300000D01*
X121100000Y-30300000D02*
X120500000Y-30900000D01*
%TO.N,/MCU/PA11*%
X114500000Y-40600000D02*
X116000000Y-39100000D01*
X114500000Y-44175000D02*
X114500000Y-40600000D01*
X116000000Y-39100000D02*
X116000000Y-38597500D01*
%TO.N,/MCU/PA12*%
X115000000Y-39500000D02*
X115000000Y-38597500D01*
D50*
X116402557Y-38000057D02*
X115597443Y-38000057D01*
X115597443Y-38000057D02*
X115000000Y-38597500D01*
X117000000Y-38597500D02*
X116402557Y-38000057D01*
D47*
X114000000Y-44175000D02*
X114000000Y-40500000D01*
X114000000Y-40500000D02*
X115000000Y-39500000D01*
%TO.N,/MCU/PA15*%
X103912500Y-46087500D02*
X100500000Y-49500000D01*
X111087500Y-46087500D02*
X103912500Y-46087500D01*
X100500000Y-49500000D02*
X100500000Y-122347401D01*
%TO.N,/LED Matrix/Y7D*%
X136797500Y-43002500D02*
X137300000Y-42500000D01*
X136500000Y-32997500D02*
X136500000Y-33600000D01*
X137300000Y-42500000D02*
X137800000Y-42500000D01*
X137090000Y-41110000D02*
X137000000Y-41200000D01*
X133450000Y-44550000D02*
X133450000Y-45562500D01*
X136797500Y-43600000D02*
X136797500Y-43002500D01*
X137090000Y-34190000D02*
X137090000Y-41110000D01*
X136500000Y-44300000D02*
X133700000Y-44300000D01*
X136797500Y-43600000D02*
X136797500Y-44002500D01*
X133700000Y-44300000D02*
X133450000Y-44550000D01*
X136797500Y-44002500D02*
X136500000Y-44300000D01*
X136500000Y-33600000D02*
X137090000Y-34190000D01*
%TO.N,/LED Matrix/Y6D*%
X136950000Y-45562500D02*
X138112500Y-44400000D01*
X137600000Y-32997500D02*
X137600000Y-33600000D01*
X140800000Y-41500000D02*
X140800000Y-41400000D01*
X139297500Y-43600000D02*
X139297500Y-43002500D01*
X140500000Y-41800000D02*
X140800000Y-41500000D01*
X137600000Y-33600000D02*
X138000000Y-34000000D01*
X138112500Y-44400000D02*
X138600000Y-44400000D01*
X139297500Y-43600000D02*
X139297500Y-43902500D01*
X137500000Y-39700000D02*
X137500000Y-40600000D01*
X138000000Y-39200000D02*
X137500000Y-39700000D01*
X139297500Y-43902500D02*
X138900000Y-44300000D01*
X139297500Y-43002500D02*
X140500000Y-41800000D01*
X138000000Y-34000000D02*
X138000000Y-39200000D01*
X137500000Y-40600000D02*
X137900000Y-41000000D01*
X138800000Y-44400000D02*
X138600000Y-44400000D01*
X138900000Y-44300000D02*
X138800000Y-44400000D01*
%TO.N,/LED Matrix/Y5D*%
X141797500Y-41502500D02*
X142300000Y-41000000D01*
X140450000Y-44650000D02*
X140450000Y-45562500D01*
X141797500Y-44102500D02*
X141600000Y-44300000D01*
X138700000Y-32997500D02*
X138700000Y-39800000D01*
X141600000Y-44300000D02*
X140800000Y-44300000D01*
X141797500Y-43600000D02*
X141797500Y-44102500D01*
X140800000Y-44300000D02*
X140450000Y-44650000D01*
X138700000Y-39800000D02*
X138300000Y-40200000D01*
X141797500Y-43600000D02*
X141797500Y-41502500D01*
%TO.N,/LED Matrix/Y4D*%
X144300000Y-44300000D02*
X144297500Y-44297500D01*
X144297500Y-40697500D02*
X143900000Y-40300000D01*
X143950000Y-44650000D02*
X144300000Y-44300000D01*
X144297500Y-44297500D02*
X144297500Y-43600000D01*
X144297500Y-43600000D02*
X144297500Y-40697500D01*
X135032400Y-40767600D02*
X136300000Y-39500000D01*
X116500000Y-41500000D02*
X117232400Y-40767600D01*
X136300000Y-39500000D02*
X136400000Y-39400000D01*
X117232400Y-40767600D02*
X135032400Y-40767600D01*
X116500000Y-44175000D02*
X116500000Y-41500000D01*
X143950000Y-45562500D02*
X143950000Y-44650000D01*
%TO.N,/LED Matrix/Y3D*%
X146797500Y-42297500D02*
X146600000Y-42100000D01*
X117000000Y-41500000D02*
X117400000Y-41100000D01*
X146797500Y-44497500D02*
X146797500Y-43600000D01*
X147450000Y-45562500D02*
X146800000Y-44912500D01*
X117400000Y-41100000D02*
X135500000Y-41100000D01*
X146800000Y-44912500D02*
X146800000Y-44500000D01*
X146797500Y-43600000D02*
X146797500Y-42297500D01*
X146800000Y-44500000D02*
X146797500Y-44497500D01*
X117000000Y-44175000D02*
X117000000Y-41500000D01*
%TO.N,/LED Matrix/Y2D*%
X117500000Y-44175000D02*
X117500000Y-41710000D01*
X149297500Y-41997500D02*
X148900000Y-41600000D01*
X149297500Y-43600000D02*
X149297500Y-41997500D01*
X134887600Y-41587600D02*
X135200000Y-41900000D01*
X117622400Y-41587600D02*
X134887600Y-41587600D01*
X117500000Y-41710000D02*
X117622400Y-41587600D01*
X149297500Y-43910000D02*
X149297500Y-43600000D01*
X150950000Y-45562500D02*
X149297500Y-43910000D01*
%TO.N,/LED Matrix/Y1D*%
X151300000Y-43200000D02*
X151400000Y-43100000D01*
X118180000Y-41920000D02*
X118000000Y-42100000D01*
X151400000Y-44400000D02*
X151400000Y-44397500D01*
X134020000Y-41920000D02*
X118180000Y-41920000D01*
X118000000Y-42100000D02*
X118000000Y-44175000D01*
X151400000Y-43100000D02*
X151400000Y-41600000D01*
X154450000Y-45562500D02*
X154450000Y-44550000D01*
X154300000Y-44400000D02*
X151400000Y-44400000D01*
X151400000Y-41600000D02*
X151200000Y-41400000D01*
X150600000Y-43597500D02*
X150902500Y-43597500D01*
X151400000Y-44397500D02*
X150600000Y-43597500D01*
X134500000Y-42400000D02*
X134020000Y-41920000D01*
X154450000Y-44550000D02*
X154300000Y-44400000D01*
X150902500Y-43597500D02*
X151300000Y-43200000D01*
%TO.N,/LED Matrix/Y0D*%
X154697500Y-40200000D02*
X154697500Y-41302500D01*
X152562500Y-41182500D02*
X152100000Y-40720000D01*
X133700000Y-42800000D02*
X126400000Y-42800000D01*
X154697500Y-41302500D02*
X154450000Y-41550000D01*
X152562500Y-41550000D02*
X152562500Y-41182500D01*
X122612500Y-46587500D02*
X119412500Y-46587500D01*
X152562500Y-41550000D02*
X154450000Y-41550000D01*
X126400000Y-42800000D02*
X122612500Y-46587500D01*
D49*
%TO.N,Net-(U2-ADJ)*%
X111890000Y-75400000D02*
X112995000Y-76505000D01*
X109597500Y-86775802D02*
X108402500Y-85580802D01*
X108402500Y-85580802D02*
X108402500Y-85010000D01*
X109597500Y-87520000D02*
X109597500Y-86775802D01*
X111980000Y-87520000D02*
X109597500Y-87520000D01*
X112995000Y-86505000D02*
X111980000Y-87520000D01*
X104550000Y-75400000D02*
X111890000Y-75400000D01*
X112995000Y-76505000D02*
X112995000Y-86505000D01*
D47*
%TO.N,/MCU/PB3*%
X111087500Y-46587500D02*
X104412500Y-46587500D01*
X104412500Y-46587500D02*
X101100000Y-49900000D01*
%TO.N,/MCU/PA8*%
X146300000Y-31100000D02*
X139100000Y-31100000D01*
X121164800Y-37542439D02*
X118707238Y-40000000D01*
X146505000Y-32500000D02*
X146505000Y-34295000D01*
X116000000Y-41059916D02*
X116000000Y-44175000D01*
X118707238Y-40000000D02*
X117059916Y-40000000D01*
X146505000Y-34295000D02*
X146500000Y-34300000D01*
X121164800Y-31500000D02*
X121164800Y-37542439D01*
X146505000Y-31305000D02*
X146300000Y-31100000D01*
X146505000Y-32500000D02*
X146505000Y-31305000D01*
X117059916Y-40000000D02*
X116000000Y-41059916D01*
X138700000Y-31500000D02*
X138700000Y-31802500D01*
X134500000Y-31200000D02*
X121464800Y-31200000D01*
X139100000Y-31100000D02*
X138700000Y-31500000D01*
X121464800Y-31200000D02*
X121164800Y-31500000D01*
%TO.N,Net-(U4-Y0)*%
X147775000Y-39137499D02*
X147775000Y-37500000D01*
X148137501Y-39500000D02*
X147775000Y-39137499D01*
X152802500Y-39500000D02*
X148137501Y-39500000D01*
X153502500Y-40200000D02*
X152802500Y-39500000D01*
%TO.N,Net-(U4-Y1)*%
X150200000Y-40600000D02*
X147600000Y-40600000D01*
X147600000Y-40600000D02*
X146500000Y-39500000D01*
X150600000Y-41000000D02*
X150200000Y-40600000D01*
X150600000Y-42402500D02*
X150600000Y-41000000D01*
X146500000Y-39500000D02*
X146505000Y-39495000D01*
X146505000Y-39495000D02*
X146505000Y-37500000D01*
%TO.N,Net-(U4-Y2)*%
X148102500Y-43600000D02*
X148102500Y-42202500D01*
X148102500Y-42202500D02*
X145235000Y-39335000D01*
X145235000Y-39335000D02*
X145235000Y-37500000D01*
%TO.N,Net-(U4-Y3)*%
X145602500Y-41002500D02*
X145602500Y-43600000D01*
X143965000Y-37500000D02*
X143965000Y-39365000D01*
X143965000Y-39365000D02*
X145602500Y-41002500D01*
%TO.N,Net-(U4-Y4)*%
X143102500Y-39902500D02*
X143102500Y-43600000D01*
X142695000Y-39495000D02*
X143102500Y-39902500D01*
X142695000Y-37500000D02*
X142695000Y-39495000D01*
%TO.N,Net-(U4-Y5)*%
X140602500Y-42497500D02*
X140602500Y-43600000D01*
X141425000Y-37500000D02*
X141425000Y-41675000D01*
X141425000Y-41675000D02*
X140602500Y-42497500D01*
%TO.N,Net-(U4-Y6)*%
X140155000Y-37500000D02*
X140155000Y-41445000D01*
X138102500Y-43497500D02*
X138102500Y-43600000D01*
X140155000Y-41445000D02*
X138102500Y-43497500D01*
%TO.N,/LED Matrix/C_{A}*%
X119412500Y-47087500D02*
X123187500Y-47087500D01*
X123187500Y-47087500D02*
X125100000Y-49000000D01*
X125100000Y-49000000D02*
X132402500Y-49000000D01*
%TO.N,/LED Matrix/C_{B}*%
X135402500Y-49000000D02*
X135402500Y-49497500D01*
X135402500Y-49497500D02*
X135300000Y-49600000D01*
X135300000Y-49600000D02*
X125050074Y-49600000D01*
X123037574Y-47587500D02*
X119412500Y-47587500D01*
X125050074Y-49600000D02*
X123037574Y-47587500D01*
%TO.N,/LED Matrix/C_{C}*%
X122887500Y-48087500D02*
X119412500Y-48087500D01*
D50*
X137492500Y-49910000D02*
X124710000Y-49910000D01*
D47*
X138402500Y-49000000D02*
X137492500Y-49910000D01*
X124710000Y-49910000D02*
X122887500Y-48087500D01*
%TO.N,/LED Matrix/C_{D}*%
X141402500Y-49000000D02*
X140162469Y-50240031D01*
X122587500Y-48587500D02*
X119412500Y-48587500D01*
X124240031Y-50240031D02*
X122587500Y-48587500D01*
X140162469Y-50240031D02*
X124240031Y-50240031D01*
%TO.N,/MCU/PB4*%
X104912500Y-47087500D02*
X103500000Y-48500000D01*
X113597400Y-115250001D02*
X104402600Y-115250001D01*
X102250000Y-49750000D02*
X102250000Y-71250000D01*
X102250000Y-108000000D02*
X102250000Y-113097401D01*
X111087500Y-47087500D02*
X104912500Y-47087500D01*
X102250000Y-113097401D02*
X104402600Y-115250001D01*
X103500000Y-48500000D02*
X102250000Y-49750000D01*
%TO.N,/MCU/PB5*%
X111087500Y-47587500D02*
X105412500Y-47587500D01*
X119207800Y-115250001D02*
X128402600Y-115250001D01*
X103250000Y-108000000D02*
X103250000Y-111750000D01*
X103250000Y-111750000D02*
X105750000Y-114250000D01*
X115250001Y-115250001D02*
X119207800Y-115250001D01*
X105412500Y-47587500D02*
X104000000Y-49000000D01*
X103250000Y-49750000D02*
X103250000Y-71250000D01*
X114250000Y-114250000D02*
X115250001Y-115250001D01*
X104000000Y-49000000D02*
X103250000Y-49750000D01*
X105750000Y-114250000D02*
X114250000Y-114250000D01*
%TO.N,/MCU/PB6*%
X105912500Y-48087500D02*
X104500000Y-49500000D01*
X104500000Y-49500000D02*
X104500000Y-71250000D01*
X140597400Y-115250001D02*
X131402600Y-115250001D01*
X107500000Y-111500000D02*
X109250000Y-113250000D01*
X129402599Y-113250000D02*
X131402600Y-115250001D01*
X109250000Y-113250000D02*
X129402599Y-113250000D01*
X111087500Y-48087500D02*
X105912500Y-48087500D01*
%TO.N,/MCU/PB7*%
X111087500Y-48587500D02*
X106412500Y-48587500D01*
X105750000Y-49250000D02*
X105500000Y-49500000D01*
X105500000Y-49500000D02*
X105500000Y-71250000D01*
X109250000Y-112250000D02*
X140402599Y-112250000D01*
X140402599Y-112250000D02*
X143402600Y-115250001D01*
X106412500Y-48587500D02*
X105750000Y-49250000D01*
X152597400Y-115250001D02*
X143402600Y-115250001D01*
%TO.N,Net-(U4-Y7)*%
X138600000Y-41800000D02*
X136300000Y-41800000D01*
X135602500Y-42497500D02*
X135602500Y-43600000D01*
X141425000Y-32500000D02*
X141425000Y-34075000D01*
X139100000Y-36400000D02*
X139100000Y-41300000D01*
X136300000Y-41800000D02*
X135602500Y-42497500D01*
X141425000Y-34075000D02*
X139100000Y-36400000D01*
X139100000Y-41300000D02*
X138600000Y-41800000D01*
%TO.N,Net-(Y1-EN)*%
X111622500Y-57685000D02*
X111850000Y-57912500D01*
X111850000Y-57912500D02*
X110372500Y-57912500D01*
X110372500Y-57912500D02*
X110300000Y-57985000D01*
%TO.N,/MCU/PB8*%
X119414827Y-103237774D02*
X119402600Y-103250001D01*
X106250000Y-50250000D02*
X106250000Y-50500000D01*
X106912500Y-49587500D02*
X106250000Y-50250000D01*
X128597400Y-103250001D02*
X119402600Y-103250001D01*
X111087500Y-49587500D02*
X106912500Y-49587500D01*
X106250000Y-50500000D02*
X106250000Y-70500000D01*
X106250000Y-70500000D02*
X107000000Y-71250000D01*
X119414827Y-102105327D02*
X119414827Y-103237774D01*
%TO.N,/MCU/PB9*%
X107250000Y-60750000D02*
X107250000Y-68500000D01*
X117500000Y-101250000D02*
X129402599Y-101250000D01*
X131402600Y-103250001D02*
X140597400Y-103250001D01*
X111087500Y-50087500D02*
X107912500Y-50087500D01*
X107250000Y-50750000D02*
X107250000Y-60750000D01*
X129402599Y-101250000D02*
X131402600Y-103250001D01*
X107750000Y-50250000D02*
X107250000Y-50750000D01*
X107912500Y-50087500D02*
X107750000Y-50250000D01*
X107250000Y-68500000D02*
X110000000Y-71250000D01*
%TD*%
M02*
