%TF.GenerationSoftware,KiCad,Pcbnew,8.0.0*%
%TF.CreationDate,2024-05-13T05:07:44+08:00*%
%TF.ProjectId,pcb_badge,7063625f-6261-4646-9765-2e6b69636164,rev?*%
%TF.SameCoordinates,Original*%
%TF.FileFunction,Drillmap*%
%TF.FilePolarity,Positive*%
%FSLAX45Y45*%
G04 Gerber Fmt 4.5, Leading zero omitted, Abs format (unit mm)*
G04 Created by KiCad (PCBNEW 8.0.0) date 2024-05-13 05:07:44*
%MOMM*%
%LPD*%
G01*
G04 APERTURE LIST*
%ADD10C,0.100000*%
%ADD11C,0.200000*%
%ADD12C,0.175000*%
G04 APERTURE END LIST*
D10*
X13950000Y-15600000D02*
G75*
G02*
X13950000Y-15800000I0J-100000D01*
G01*
X9050000Y-15800000D02*
X9850000Y-15800000D01*
X9050000Y-15800000D02*
G75*
G02*
X9050000Y-15600000I0J100000D01*
G01*
X8900000Y-3000000D02*
X15600000Y-3000000D01*
X7400000Y-4500000D02*
X7400000Y-16000000D01*
X13150000Y-15600000D02*
X13950000Y-15600000D01*
X13150000Y-15800000D02*
X13950000Y-15800000D01*
X13150000Y-15800000D02*
G75*
G02*
X13150000Y-15600000I0J100000D01*
G01*
X14100000Y-16000000D02*
X15600000Y-14500000D01*
X9050000Y-15600000D02*
X9850000Y-15600000D01*
X9850000Y-15600000D02*
G75*
G02*
X9850000Y-15800000I0J-100000D01*
G01*
X7400000Y-16000000D02*
X14100000Y-16000000D01*
X15600000Y-14500000D02*
X15600000Y-3000000D01*
X8900000Y-3000000D02*
X7400000Y-4500000D01*
D11*
D10*
X7715000Y-4475000D02*
X7745000Y-4505000D01*
X7745000Y-4475000D02*
X7715000Y-4505000D01*
X7745000Y-13405000D02*
X7775000Y-13435000D01*
X7775000Y-13405000D02*
X7745000Y-13435000D01*
X7755000Y-14805000D02*
X7785000Y-14835000D01*
X7785000Y-14805000D02*
X7755000Y-14835000D01*
X7765000Y-5935000D02*
X7795000Y-5965000D01*
X7795000Y-5935000D02*
X7765000Y-5965000D01*
X7765000Y-13175000D02*
X7795000Y-13205000D01*
X7795000Y-13175000D02*
X7765000Y-13205000D01*
X7855000Y-6755000D02*
X7885000Y-6785000D01*
X7885000Y-6755000D02*
X7855000Y-6785000D01*
X7855000Y-7105000D02*
X7885000Y-7135000D01*
X7885000Y-7105000D02*
X7855000Y-7135000D01*
X7875000Y-5385000D02*
X7905000Y-5415000D01*
X7905000Y-5385000D02*
X7875000Y-5415000D01*
X7875000Y-5655000D02*
X7905000Y-5685000D01*
X7905000Y-5655000D02*
X7875000Y-5685000D01*
X7955000Y-6935000D02*
X7985000Y-6965000D01*
X7985000Y-6935000D02*
X7955000Y-6965000D01*
X8015000Y-4645000D02*
X8045000Y-4675000D01*
X8045000Y-4645000D02*
X8015000Y-4675000D01*
X8015000Y-4865000D02*
X8045000Y-4895000D01*
X8045000Y-4865000D02*
X8015000Y-4895000D01*
X8015000Y-5155000D02*
X8045000Y-5185000D01*
X8045000Y-5155000D02*
X8015000Y-5185000D01*
X8015000Y-5565000D02*
X8045000Y-5595000D01*
X8045000Y-5565000D02*
X8015000Y-5595000D01*
X8035000Y-6665000D02*
X8065000Y-6695000D01*
X8065000Y-6665000D02*
X8035000Y-6695000D01*
X8055000Y-4315000D02*
X8085000Y-4345000D01*
X8085000Y-4315000D02*
X8055000Y-4345000D01*
X8115000Y-5585000D02*
X8145000Y-5615000D01*
X8145000Y-5585000D02*
X8115000Y-5615000D01*
X8125000Y-5215000D02*
X8155000Y-5245000D01*
X8155000Y-5215000D02*
X8125000Y-5245000D01*
X8295000Y-15165000D02*
X8325000Y-15195000D01*
X8325000Y-15165000D02*
X8295000Y-15195000D01*
X8335000Y-5345000D02*
X8365000Y-5375000D01*
X8365000Y-5345000D02*
X8335000Y-5375000D01*
X8385000Y-6125000D02*
X8415000Y-6155000D01*
X8415000Y-6125000D02*
X8385000Y-6155000D01*
X8405000Y-5805000D02*
X8435000Y-5835000D01*
X8435000Y-5805000D02*
X8405000Y-5835000D01*
X8425000Y-4565000D02*
X8455000Y-4595000D01*
X8455000Y-4565000D02*
X8425000Y-4595000D01*
X8535000Y-13185000D02*
X8565000Y-13215000D01*
X8565000Y-13185000D02*
X8535000Y-13215000D01*
X8555000Y-14785000D02*
X8585000Y-14815000D01*
X8585000Y-14785000D02*
X8555000Y-14815000D01*
X8575000Y-7095000D02*
X8605000Y-7125000D01*
X8605000Y-7095000D02*
X8575000Y-7125000D01*
X8585000Y-4715000D02*
X8615000Y-4745000D01*
X8615000Y-4715000D02*
X8585000Y-4745000D01*
X8605000Y-6045000D02*
X8635000Y-6075000D01*
X8635000Y-6045000D02*
X8605000Y-6075000D01*
X8705000Y-5805000D02*
X8735000Y-5835000D01*
X8735000Y-5805000D02*
X8705000Y-5835000D01*
X8735000Y-15025000D02*
X8765000Y-15055000D01*
X8765000Y-15025000D02*
X8735000Y-15055000D01*
X8775000Y-15175000D02*
X8805000Y-15205000D01*
X8805000Y-15175000D02*
X8775000Y-15205000D01*
X8820000Y-4210000D02*
X8850000Y-4240000D01*
X8850000Y-4210000D02*
X8820000Y-4240000D01*
X8885000Y-14425000D02*
X8915000Y-14455000D01*
X8915000Y-14425000D02*
X8885000Y-14455000D01*
X8985000Y-13745000D02*
X9015000Y-13775000D01*
X9015000Y-13745000D02*
X8985000Y-13775000D01*
X9035000Y-4755000D02*
X9065000Y-4785000D01*
X9065000Y-4755000D02*
X9035000Y-4785000D01*
X9055000Y-14735000D02*
X9085000Y-14765000D01*
X9085000Y-14735000D02*
X9055000Y-14765000D01*
X9145000Y-5415000D02*
X9175000Y-5445000D01*
X9175000Y-5415000D02*
X9145000Y-5445000D01*
X9295000Y-4335000D02*
X9325000Y-4365000D01*
X9325000Y-4335000D02*
X9295000Y-4365000D01*
X9355000Y-5765000D02*
X9385000Y-5795000D01*
X9385000Y-5765000D02*
X9355000Y-5795000D01*
X9365000Y-13485000D02*
X9395000Y-13515000D01*
X9395000Y-13485000D02*
X9365000Y-13515000D01*
X9455000Y-5805000D02*
X9485000Y-5835000D01*
X9485000Y-5805000D02*
X9455000Y-5835000D01*
X9545000Y-4285000D02*
X9575000Y-4315000D01*
X9575000Y-4285000D02*
X9545000Y-4315000D01*
X9545000Y-5845000D02*
X9575000Y-5875000D01*
X9575000Y-5845000D02*
X9545000Y-5875000D01*
X9585000Y-5005000D02*
X9615000Y-5035000D01*
X9615000Y-5005000D02*
X9585000Y-5035000D01*
X9625000Y-5895000D02*
X9655000Y-5925000D01*
X9655000Y-5895000D02*
X9625000Y-5925000D01*
X9655000Y-5075000D02*
X9685000Y-5105000D01*
X9685000Y-5075000D02*
X9655000Y-5105000D01*
X9685000Y-4175000D02*
X9715000Y-4205000D01*
X9715000Y-4175000D02*
X9685000Y-4205000D01*
X9715000Y-5935000D02*
X9745000Y-5965000D01*
X9745000Y-5935000D02*
X9715000Y-5965000D01*
X9735000Y-5135000D02*
X9765000Y-5165000D01*
X9765000Y-5135000D02*
X9735000Y-5165000D01*
X9795000Y-5865000D02*
X9825000Y-5895000D01*
X9825000Y-5865000D02*
X9795000Y-5895000D01*
X9805000Y-5195000D02*
X9835000Y-5225000D01*
X9835000Y-5195000D02*
X9805000Y-5225000D01*
X9885000Y-5245000D02*
X9915000Y-5275000D01*
X9915000Y-5245000D02*
X9885000Y-5275000D01*
X9885000Y-5785000D02*
X9915000Y-5815000D01*
X9915000Y-5785000D02*
X9885000Y-5815000D01*
X10035000Y-5785000D02*
X10065000Y-5815000D01*
X10065000Y-5785000D02*
X10035000Y-5815000D01*
X10155000Y-3405000D02*
X10185000Y-3435000D01*
X10185000Y-3405000D02*
X10155000Y-3435000D01*
X10285000Y-3205000D02*
X10315000Y-3235000D01*
X10315000Y-3205000D02*
X10285000Y-3235000D01*
X10775000Y-5145000D02*
X10805000Y-5175000D01*
X10805000Y-5145000D02*
X10775000Y-5175000D01*
X10785000Y-5445000D02*
X10815000Y-5475000D01*
X10815000Y-5445000D02*
X10785000Y-5475000D01*
X10785000Y-5745000D02*
X10815000Y-5775000D01*
X10815000Y-5745000D02*
X10785000Y-5775000D01*
X10785000Y-6345000D02*
X10815000Y-6375000D01*
X10815000Y-6345000D02*
X10785000Y-6375000D01*
X10785000Y-6945000D02*
X10815000Y-6975000D01*
X10815000Y-6945000D02*
X10785000Y-6975000D01*
X10785000Y-7245000D02*
X10815000Y-7275000D01*
X10815000Y-7245000D02*
X10785000Y-7275000D01*
X10795000Y-6045000D02*
X10825000Y-6075000D01*
X10825000Y-6045000D02*
X10795000Y-6075000D01*
X10805000Y-6645000D02*
X10835000Y-6675000D01*
X10835000Y-6645000D02*
X10805000Y-6675000D01*
X10845000Y-5385000D02*
X10875000Y-5415000D01*
X10875000Y-5385000D02*
X10845000Y-5415000D01*
X10915000Y-5205000D02*
X10945000Y-5235000D01*
X10945000Y-5205000D02*
X10915000Y-5235000D01*
X10915000Y-5505000D02*
X10945000Y-5535000D01*
X10945000Y-5505000D02*
X10915000Y-5535000D01*
X10915000Y-5805000D02*
X10945000Y-5835000D01*
X10945000Y-5805000D02*
X10915000Y-5835000D01*
X10915000Y-6105000D02*
X10945000Y-6135000D01*
X10945000Y-6105000D02*
X10915000Y-6135000D01*
X10915000Y-6405000D02*
X10945000Y-6435000D01*
X10945000Y-6405000D02*
X10915000Y-6435000D01*
X10915000Y-6705000D02*
X10945000Y-6735000D01*
X10945000Y-6705000D02*
X10915000Y-6735000D01*
X10915000Y-7005000D02*
X10945000Y-7035000D01*
X10945000Y-7005000D02*
X10915000Y-7035000D01*
X10915000Y-7305000D02*
X10945000Y-7335000D01*
X10945000Y-7305000D02*
X10915000Y-7335000D01*
X10975000Y-12735000D02*
X11005000Y-12765000D01*
X11005000Y-12735000D02*
X10975000Y-12765000D01*
X11015000Y-7245000D02*
X11045000Y-7275000D01*
X11045000Y-7245000D02*
X11015000Y-7275000D01*
X11125000Y-12855000D02*
X11155000Y-12885000D01*
X11155000Y-12855000D02*
X11125000Y-12885000D01*
X11145000Y-5685000D02*
X11175000Y-5715000D01*
X11175000Y-5685000D02*
X11145000Y-5715000D01*
X11195000Y-12645000D02*
X11225000Y-12675000D01*
X11225000Y-12645000D02*
X11195000Y-12675000D01*
X11215000Y-5205000D02*
X11245000Y-5235000D01*
X11245000Y-5205000D02*
X11215000Y-5235000D01*
X11215000Y-5505000D02*
X11245000Y-5535000D01*
X11245000Y-5505000D02*
X11215000Y-5535000D01*
X11215000Y-5805000D02*
X11245000Y-5835000D01*
X11245000Y-5805000D02*
X11215000Y-5835000D01*
X11215000Y-6105000D02*
X11245000Y-6135000D01*
X11245000Y-6105000D02*
X11215000Y-6135000D01*
X11215000Y-6405000D02*
X11245000Y-6435000D01*
X11245000Y-6405000D02*
X11215000Y-6435000D01*
X11215000Y-6705000D02*
X11245000Y-6735000D01*
X11245000Y-6705000D02*
X11215000Y-6735000D01*
X11215000Y-7005000D02*
X11245000Y-7035000D01*
X11245000Y-7005000D02*
X11215000Y-7035000D01*
X11215000Y-7305000D02*
X11245000Y-7335000D01*
X11245000Y-7305000D02*
X11215000Y-7335000D01*
X11225000Y-13765000D02*
X11255000Y-13795000D01*
X11255000Y-13765000D02*
X11225000Y-13795000D01*
X11295000Y-13875000D02*
X11325000Y-13905000D01*
X11325000Y-13875000D02*
X11295000Y-13905000D01*
X11315000Y-6945000D02*
X11345000Y-6975000D01*
X11345000Y-6945000D02*
X11315000Y-6975000D01*
X11345000Y-13995000D02*
X11375000Y-14025000D01*
X11375000Y-13995000D02*
X11345000Y-14025000D01*
X11365000Y-14115000D02*
X11395000Y-14145000D01*
X11395000Y-14115000D02*
X11365000Y-14145000D01*
X11385000Y-13085000D02*
X11415000Y-13115000D01*
X11415000Y-13085000D02*
X11385000Y-13115000D01*
X11415000Y-14935000D02*
X11445000Y-14965000D01*
X11445000Y-14935000D02*
X11415000Y-14965000D01*
X11445000Y-5985000D02*
X11475000Y-6015000D01*
X11475000Y-5985000D02*
X11445000Y-6015000D01*
X11455000Y-4985000D02*
X11485000Y-5015000D01*
X11485000Y-4985000D02*
X11455000Y-5015000D01*
X11515000Y-5205000D02*
X11545000Y-5235000D01*
X11545000Y-5205000D02*
X11515000Y-5235000D01*
X11515000Y-5505000D02*
X11545000Y-5535000D01*
X11545000Y-5505000D02*
X11515000Y-5535000D01*
X11515000Y-5805000D02*
X11545000Y-5835000D01*
X11545000Y-5805000D02*
X11515000Y-5835000D01*
X11515000Y-6105000D02*
X11545000Y-6135000D01*
X11545000Y-6105000D02*
X11515000Y-6135000D01*
X11515000Y-6405000D02*
X11545000Y-6435000D01*
X11545000Y-6405000D02*
X11515000Y-6435000D01*
X11515000Y-6705000D02*
X11545000Y-6735000D01*
X11545000Y-6705000D02*
X11515000Y-6735000D01*
X11515000Y-7005000D02*
X11545000Y-7035000D01*
X11545000Y-7005000D02*
X11515000Y-7035000D01*
X11515000Y-7305000D02*
X11545000Y-7335000D01*
X11545000Y-7305000D02*
X11515000Y-7335000D01*
X11565000Y-14985000D02*
X11595000Y-15015000D01*
X11595000Y-14985000D02*
X11565000Y-15015000D01*
X11615000Y-6645000D02*
X11645000Y-6675000D01*
X11645000Y-6645000D02*
X11615000Y-6675000D01*
X11745000Y-6285000D02*
X11775000Y-6315000D01*
X11775000Y-6285000D02*
X11745000Y-6315000D01*
X11805000Y-4985000D02*
X11835000Y-5015000D01*
X11835000Y-4985000D02*
X11805000Y-5015000D01*
X11815000Y-5205000D02*
X11845000Y-5235000D01*
X11845000Y-5205000D02*
X11815000Y-5235000D01*
X11815000Y-5505000D02*
X11845000Y-5535000D01*
X11845000Y-5505000D02*
X11815000Y-5535000D01*
X11815000Y-5805000D02*
X11845000Y-5835000D01*
X11845000Y-5805000D02*
X11815000Y-5835000D01*
X11815000Y-6105000D02*
X11845000Y-6135000D01*
X11845000Y-6105000D02*
X11815000Y-6135000D01*
X11815000Y-6405000D02*
X11845000Y-6435000D01*
X11845000Y-6405000D02*
X11815000Y-6435000D01*
X11815000Y-6705000D02*
X11845000Y-6735000D01*
X11845000Y-6705000D02*
X11815000Y-6735000D01*
X11815000Y-7005000D02*
X11845000Y-7035000D01*
X11845000Y-7005000D02*
X11815000Y-7035000D01*
X11815000Y-7305000D02*
X11845000Y-7335000D01*
X11845000Y-7305000D02*
X11815000Y-7335000D01*
X11915000Y-6345000D02*
X11945000Y-6375000D01*
X11945000Y-6345000D02*
X11915000Y-6375000D01*
X11945000Y-13145000D02*
X11975000Y-13175000D01*
X11975000Y-13145000D02*
X11945000Y-13175000D01*
X11945000Y-15315000D02*
X11975000Y-15345000D01*
X11975000Y-15315000D02*
X11945000Y-15345000D01*
X11975000Y-4485000D02*
X12005000Y-4515000D01*
X12005000Y-4485000D02*
X11975000Y-4515000D01*
X12045000Y-6585000D02*
X12075000Y-6615000D01*
X12075000Y-6585000D02*
X12045000Y-6615000D01*
X12055000Y-4355000D02*
X12085000Y-4385000D01*
X12085000Y-4355000D02*
X12055000Y-4385000D01*
X12085000Y-13435000D02*
X12115000Y-13465000D01*
X12115000Y-13435000D02*
X12085000Y-13465000D01*
X12095000Y-3875000D02*
X12125000Y-3905000D01*
X12125000Y-3875000D02*
X12095000Y-3905000D01*
X12115000Y-5205000D02*
X12145000Y-5235000D01*
X12145000Y-5205000D02*
X12115000Y-5235000D01*
X12115000Y-5505000D02*
X12145000Y-5535000D01*
X12145000Y-5505000D02*
X12115000Y-5535000D01*
X12115000Y-5805000D02*
X12145000Y-5835000D01*
X12145000Y-5805000D02*
X12115000Y-5835000D01*
X12115000Y-6105000D02*
X12145000Y-6135000D01*
X12145000Y-6105000D02*
X12115000Y-6135000D01*
X12115000Y-6405000D02*
X12145000Y-6435000D01*
X12145000Y-6405000D02*
X12115000Y-6435000D01*
X12115000Y-6705000D02*
X12145000Y-6735000D01*
X12145000Y-6705000D02*
X12115000Y-6735000D01*
X12115000Y-7005000D02*
X12145000Y-7035000D01*
X12145000Y-7005000D02*
X12115000Y-7035000D01*
X12115000Y-7305000D02*
X12145000Y-7335000D01*
X12145000Y-7305000D02*
X12115000Y-7335000D01*
X12155000Y-4985000D02*
X12185000Y-5015000D01*
X12185000Y-4985000D02*
X12155000Y-5015000D01*
X12215000Y-6045000D02*
X12245000Y-6075000D01*
X12245000Y-6045000D02*
X12215000Y-6075000D01*
X12315000Y-13235000D02*
X12345000Y-13265000D01*
X12345000Y-13235000D02*
X12315000Y-13265000D01*
X12345000Y-3705000D02*
X12375000Y-3735000D01*
X12375000Y-3705000D02*
X12345000Y-3735000D01*
X12345000Y-6885000D02*
X12375000Y-6915000D01*
X12375000Y-6885000D02*
X12345000Y-6915000D01*
X12415000Y-5205000D02*
X12445000Y-5235000D01*
X12445000Y-5205000D02*
X12415000Y-5235000D01*
X12415000Y-5505000D02*
X12445000Y-5535000D01*
X12445000Y-5505000D02*
X12415000Y-5535000D01*
X12415000Y-5805000D02*
X12445000Y-5835000D01*
X12445000Y-5805000D02*
X12415000Y-5835000D01*
X12415000Y-6105000D02*
X12445000Y-6135000D01*
X12445000Y-6105000D02*
X12415000Y-6135000D01*
X12415000Y-6405000D02*
X12445000Y-6435000D01*
X12445000Y-6405000D02*
X12415000Y-6435000D01*
X12415000Y-6705000D02*
X12445000Y-6735000D01*
X12445000Y-6705000D02*
X12415000Y-6735000D01*
X12415000Y-7005000D02*
X12445000Y-7035000D01*
X12445000Y-7005000D02*
X12415000Y-7035000D01*
X12415000Y-7305000D02*
X12445000Y-7335000D01*
X12445000Y-7305000D02*
X12415000Y-7335000D01*
X12485000Y-12335000D02*
X12515000Y-12365000D01*
X12515000Y-12335000D02*
X12485000Y-12365000D01*
X12495000Y-3695000D02*
X12525000Y-3725000D01*
X12525000Y-3695000D02*
X12495000Y-3725000D01*
X12505000Y-4985000D02*
X12535000Y-5015000D01*
X12535000Y-4985000D02*
X12505000Y-5015000D01*
X12515000Y-15265000D02*
X12545000Y-15295000D01*
X12545000Y-15265000D02*
X12515000Y-15295000D01*
X12515000Y-5745000D02*
X12545000Y-5775000D01*
X12545000Y-5745000D02*
X12515000Y-5775000D01*
X12535000Y-15145000D02*
X12565000Y-15175000D01*
X12565000Y-15145000D02*
X12535000Y-15175000D01*
X12585000Y-15485000D02*
X12615000Y-15515000D01*
X12615000Y-15485000D02*
X12585000Y-15515000D01*
X12645000Y-7185000D02*
X12675000Y-7215000D01*
X12675000Y-7185000D02*
X12645000Y-7215000D01*
X12655000Y-4065000D02*
X12685000Y-4095000D01*
X12685000Y-4065000D02*
X12655000Y-4095000D01*
X12715000Y-5205000D02*
X12745000Y-5235000D01*
X12745000Y-5205000D02*
X12715000Y-5235000D01*
X12715000Y-5505000D02*
X12745000Y-5535000D01*
X12745000Y-5505000D02*
X12715000Y-5535000D01*
X12715000Y-5805000D02*
X12745000Y-5835000D01*
X12745000Y-5805000D02*
X12715000Y-5835000D01*
X12715000Y-6105000D02*
X12745000Y-6135000D01*
X12745000Y-6105000D02*
X12715000Y-6135000D01*
X12715000Y-6405000D02*
X12745000Y-6435000D01*
X12745000Y-6405000D02*
X12715000Y-6435000D01*
X12715000Y-6705000D02*
X12745000Y-6735000D01*
X12745000Y-6705000D02*
X12715000Y-6735000D01*
X12715000Y-7005000D02*
X12745000Y-7035000D01*
X12745000Y-7005000D02*
X12715000Y-7035000D01*
X12715000Y-7305000D02*
X12745000Y-7335000D01*
X12745000Y-7305000D02*
X12715000Y-7335000D01*
X12725000Y-3685000D02*
X12755000Y-3715000D01*
X12755000Y-3685000D02*
X12725000Y-3715000D01*
X12815000Y-5445000D02*
X12845000Y-5475000D01*
X12845000Y-5445000D02*
X12815000Y-5475000D01*
X12855000Y-4985000D02*
X12885000Y-5015000D01*
X12885000Y-4985000D02*
X12855000Y-5015000D01*
X12945000Y-7485000D02*
X12975000Y-7515000D01*
X12975000Y-7485000D02*
X12945000Y-7515000D01*
X13015000Y-5205000D02*
X13045000Y-5235000D01*
X13045000Y-5205000D02*
X13015000Y-5235000D01*
X13015000Y-5505000D02*
X13045000Y-5535000D01*
X13045000Y-5505000D02*
X13015000Y-5535000D01*
X13015000Y-5805000D02*
X13045000Y-5835000D01*
X13045000Y-5805000D02*
X13015000Y-5835000D01*
X13015000Y-6105000D02*
X13045000Y-6135000D01*
X13045000Y-6105000D02*
X13015000Y-6135000D01*
X13015000Y-6405000D02*
X13045000Y-6435000D01*
X13045000Y-6405000D02*
X13015000Y-6435000D01*
X13015000Y-6705000D02*
X13045000Y-6735000D01*
X13045000Y-6705000D02*
X13015000Y-6735000D01*
X13015000Y-7005000D02*
X13045000Y-7035000D01*
X13045000Y-7005000D02*
X13015000Y-7035000D01*
X13015000Y-7305000D02*
X13045000Y-7335000D01*
X13045000Y-7305000D02*
X13015000Y-7335000D01*
X13115000Y-5145000D02*
X13145000Y-5175000D01*
X13145000Y-5145000D02*
X13115000Y-5175000D01*
X13205000Y-4915000D02*
X13235000Y-4945000D01*
X13235000Y-4915000D02*
X13205000Y-4945000D01*
X13245000Y-5385000D02*
X13275000Y-5415000D01*
X13275000Y-5385000D02*
X13245000Y-5415000D01*
X13315000Y-5205000D02*
X13345000Y-5235000D01*
X13345000Y-5205000D02*
X13315000Y-5235000D01*
X13315000Y-5505000D02*
X13345000Y-5535000D01*
X13345000Y-5505000D02*
X13315000Y-5535000D01*
X13315000Y-5805000D02*
X13345000Y-5835000D01*
X13345000Y-5805000D02*
X13315000Y-5835000D01*
X13315000Y-6105000D02*
X13345000Y-6135000D01*
X13345000Y-6105000D02*
X13315000Y-6135000D01*
X13315000Y-6405000D02*
X13345000Y-6435000D01*
X13345000Y-6405000D02*
X13315000Y-6435000D01*
X13315000Y-6705000D02*
X13345000Y-6735000D01*
X13345000Y-6705000D02*
X13315000Y-6735000D01*
X13315000Y-7005000D02*
X13345000Y-7035000D01*
X13345000Y-7005000D02*
X13315000Y-7035000D01*
X13315000Y-7305000D02*
X13345000Y-7335000D01*
X13345000Y-7305000D02*
X13315000Y-7335000D01*
X13365000Y-4055000D02*
X13395000Y-4085000D01*
X13395000Y-4055000D02*
X13365000Y-4085000D01*
X13545000Y-5685000D02*
X13575000Y-5715000D01*
X13575000Y-5685000D02*
X13545000Y-5715000D01*
X13555000Y-4915000D02*
X13585000Y-4945000D01*
X13585000Y-4915000D02*
X13555000Y-4945000D01*
X13615000Y-5205000D02*
X13645000Y-5235000D01*
X13645000Y-5205000D02*
X13615000Y-5235000D01*
X13615000Y-5505000D02*
X13645000Y-5535000D01*
X13645000Y-5505000D02*
X13615000Y-5535000D01*
X13615000Y-5805000D02*
X13645000Y-5835000D01*
X13645000Y-5805000D02*
X13615000Y-5835000D01*
X13615000Y-6105000D02*
X13645000Y-6135000D01*
X13645000Y-6105000D02*
X13615000Y-6135000D01*
X13615000Y-6405000D02*
X13645000Y-6435000D01*
X13645000Y-6405000D02*
X13615000Y-6435000D01*
X13615000Y-6705000D02*
X13645000Y-6735000D01*
X13645000Y-6705000D02*
X13615000Y-6735000D01*
X13615000Y-7005000D02*
X13645000Y-7035000D01*
X13645000Y-7005000D02*
X13615000Y-7035000D01*
X13615000Y-7305000D02*
X13645000Y-7335000D01*
X13645000Y-7305000D02*
X13615000Y-7335000D01*
X13645000Y-3935000D02*
X13675000Y-3965000D01*
X13675000Y-3935000D02*
X13645000Y-3965000D01*
X13845000Y-5985000D02*
X13875000Y-6015000D01*
X13875000Y-5985000D02*
X13845000Y-6015000D01*
X13905000Y-4915000D02*
X13935000Y-4945000D01*
X13935000Y-4915000D02*
X13905000Y-4945000D01*
X13915000Y-5205000D02*
X13945000Y-5235000D01*
X13945000Y-5205000D02*
X13915000Y-5235000D01*
X13915000Y-5505000D02*
X13945000Y-5535000D01*
X13945000Y-5505000D02*
X13915000Y-5535000D01*
X13915000Y-5805000D02*
X13945000Y-5835000D01*
X13945000Y-5805000D02*
X13915000Y-5835000D01*
X13915000Y-6105000D02*
X13945000Y-6135000D01*
X13945000Y-6105000D02*
X13915000Y-6135000D01*
X13915000Y-6405000D02*
X13945000Y-6435000D01*
X13945000Y-6405000D02*
X13915000Y-6435000D01*
X13915000Y-6705000D02*
X13945000Y-6735000D01*
X13945000Y-6705000D02*
X13915000Y-6735000D01*
X13915000Y-7005000D02*
X13945000Y-7035000D01*
X13945000Y-7005000D02*
X13915000Y-7035000D01*
X13915000Y-7305000D02*
X13945000Y-7335000D01*
X13945000Y-7305000D02*
X13915000Y-7335000D01*
X13975000Y-3845000D02*
X14005000Y-3875000D01*
X14005000Y-3845000D02*
X13975000Y-3875000D01*
X13975000Y-3965000D02*
X14005000Y-3995000D01*
X14005000Y-3965000D02*
X13975000Y-3995000D01*
X13975000Y-4085000D02*
X14005000Y-4115000D01*
X14005000Y-4085000D02*
X13975000Y-4115000D01*
X14145000Y-6285000D02*
X14175000Y-6315000D01*
X14175000Y-6285000D02*
X14145000Y-6315000D01*
X14215000Y-5205000D02*
X14245000Y-5235000D01*
X14245000Y-5205000D02*
X14215000Y-5235000D01*
X14215000Y-5505000D02*
X14245000Y-5535000D01*
X14245000Y-5505000D02*
X14215000Y-5535000D01*
X14215000Y-5805000D02*
X14245000Y-5835000D01*
X14245000Y-5805000D02*
X14215000Y-5835000D01*
X14215000Y-6105000D02*
X14245000Y-6135000D01*
X14245000Y-6105000D02*
X14215000Y-6135000D01*
X14215000Y-6405000D02*
X14245000Y-6435000D01*
X14245000Y-6405000D02*
X14215000Y-6435000D01*
X14215000Y-6705000D02*
X14245000Y-6735000D01*
X14245000Y-6705000D02*
X14215000Y-6735000D01*
X14215000Y-7005000D02*
X14245000Y-7035000D01*
X14245000Y-7005000D02*
X14215000Y-7035000D01*
X14215000Y-7305000D02*
X14245000Y-7335000D01*
X14245000Y-7305000D02*
X14215000Y-7335000D01*
X14255000Y-4915000D02*
X14285000Y-4945000D01*
X14285000Y-4915000D02*
X14255000Y-4945000D01*
X14335000Y-4285000D02*
X14365000Y-4315000D01*
X14365000Y-4285000D02*
X14335000Y-4315000D01*
X14355000Y-14395000D02*
X14385000Y-14425000D01*
X14385000Y-14395000D02*
X14355000Y-14425000D01*
X14385000Y-13155000D02*
X14415000Y-13185000D01*
X14415000Y-13155000D02*
X14385000Y-13185000D01*
X14395000Y-3265000D02*
X14425000Y-3295000D01*
X14425000Y-3265000D02*
X14395000Y-3295000D01*
X14445000Y-6585000D02*
X14475000Y-6615000D01*
X14475000Y-6585000D02*
X14445000Y-6615000D01*
X14475000Y-4285000D02*
X14505000Y-4315000D01*
X14505000Y-4285000D02*
X14475000Y-4315000D01*
X14515000Y-5205000D02*
X14545000Y-5235000D01*
X14545000Y-5205000D02*
X14515000Y-5235000D01*
X14515000Y-5505000D02*
X14545000Y-5535000D01*
X14545000Y-5505000D02*
X14515000Y-5535000D01*
X14515000Y-5805000D02*
X14545000Y-5835000D01*
X14545000Y-5805000D02*
X14515000Y-5835000D01*
X14515000Y-6105000D02*
X14545000Y-6135000D01*
X14545000Y-6105000D02*
X14515000Y-6135000D01*
X14515000Y-6405000D02*
X14545000Y-6435000D01*
X14545000Y-6405000D02*
X14515000Y-6435000D01*
X14515000Y-6705000D02*
X14545000Y-6735000D01*
X14545000Y-6705000D02*
X14515000Y-6735000D01*
X14515000Y-7005000D02*
X14545000Y-7035000D01*
X14545000Y-7005000D02*
X14515000Y-7035000D01*
X14515000Y-7305000D02*
X14545000Y-7335000D01*
X14545000Y-7305000D02*
X14515000Y-7335000D01*
X14605000Y-4905000D02*
X14635000Y-4935000D01*
X14635000Y-4905000D02*
X14605000Y-4935000D01*
X14625000Y-14585000D02*
X14655000Y-14615000D01*
X14655000Y-14585000D02*
X14625000Y-14615000D01*
X14735000Y-14555000D02*
X14765000Y-14585000D01*
X14765000Y-14555000D02*
X14735000Y-14585000D01*
X14745000Y-6885000D02*
X14775000Y-6915000D01*
X14775000Y-6885000D02*
X14745000Y-6915000D01*
X14755000Y-12775000D02*
X14785000Y-12805000D01*
X14785000Y-12775000D02*
X14755000Y-12805000D01*
X14765000Y-12945000D02*
X14795000Y-12975000D01*
X14795000Y-12945000D02*
X14765000Y-12975000D01*
X14815000Y-5205000D02*
X14845000Y-5235000D01*
X14845000Y-5205000D02*
X14815000Y-5235000D01*
X14815000Y-5505000D02*
X14845000Y-5535000D01*
X14845000Y-5505000D02*
X14815000Y-5535000D01*
X14815000Y-5805000D02*
X14845000Y-5835000D01*
X14845000Y-5805000D02*
X14815000Y-5835000D01*
X14815000Y-6105000D02*
X14845000Y-6135000D01*
X14845000Y-6105000D02*
X14815000Y-6135000D01*
X14815000Y-6405000D02*
X14845000Y-6435000D01*
X14845000Y-6405000D02*
X14815000Y-6435000D01*
X14815000Y-6705000D02*
X14845000Y-6735000D01*
X14845000Y-6705000D02*
X14815000Y-6735000D01*
X14815000Y-7005000D02*
X14845000Y-7035000D01*
X14845000Y-7005000D02*
X14815000Y-7035000D01*
X14815000Y-7305000D02*
X14845000Y-7335000D01*
X14845000Y-7305000D02*
X14815000Y-7335000D01*
X14955000Y-4905000D02*
X14985000Y-4935000D01*
X14985000Y-4905000D02*
X14955000Y-4935000D01*
X15045000Y-7185000D02*
X15075000Y-7215000D01*
X15075000Y-7185000D02*
X15045000Y-7215000D01*
X15115000Y-5205000D02*
X15145000Y-5235000D01*
X15145000Y-5205000D02*
X15115000Y-5235000D01*
X15115000Y-5505000D02*
X15145000Y-5535000D01*
X15145000Y-5505000D02*
X15115000Y-5535000D01*
X15115000Y-5805000D02*
X15145000Y-5835000D01*
X15145000Y-5805000D02*
X15115000Y-5835000D01*
X15115000Y-6105000D02*
X15145000Y-6135000D01*
X15145000Y-6105000D02*
X15115000Y-6135000D01*
X15115000Y-6405000D02*
X15145000Y-6435000D01*
X15145000Y-6405000D02*
X15115000Y-6435000D01*
X15115000Y-6705000D02*
X15145000Y-6735000D01*
X15145000Y-6705000D02*
X15115000Y-6735000D01*
X15115000Y-7005000D02*
X15145000Y-7035000D01*
X15145000Y-7005000D02*
X15115000Y-7035000D01*
X15115000Y-7305000D02*
X15145000Y-7335000D01*
X15145000Y-7305000D02*
X15115000Y-7335000D01*
X15235000Y-12525000D02*
X15265000Y-12555000D01*
X15265000Y-12525000D02*
X15235000Y-12555000D01*
X15255000Y-12775000D02*
X15285000Y-12805000D01*
X15285000Y-12775000D02*
X15255000Y-12805000D01*
X15295000Y-4415000D02*
X15325000Y-4445000D01*
X15325000Y-4415000D02*
X15295000Y-4445000D01*
X15325000Y-12425000D02*
X15355000Y-12455000D01*
X15355000Y-12425000D02*
X15325000Y-12455000D01*
X15325000Y-13315000D02*
X15355000Y-13345000D01*
X15355000Y-13315000D02*
X15325000Y-13345000D01*
X15345000Y-4065000D02*
X15375000Y-4095000D01*
X15375000Y-4065000D02*
X15345000Y-4095000D01*
X15345000Y-7485000D02*
X15375000Y-7515000D01*
X15375000Y-7485000D02*
X15345000Y-7515000D01*
X15375000Y-3725000D02*
X15405000Y-3755000D01*
X15405000Y-3725000D02*
X15375000Y-3755000D01*
X15395000Y-3385000D02*
X15425000Y-3415000D01*
X15425000Y-3385000D02*
X15395000Y-3415000D01*
X15415000Y-3065000D02*
X15445000Y-3095000D01*
X15445000Y-3065000D02*
X15415000Y-3095000D01*
X15415000Y-5505000D02*
X15445000Y-5535000D01*
X15445000Y-5505000D02*
X15415000Y-5535000D01*
X15415000Y-5805000D02*
X15445000Y-5835000D01*
X15445000Y-5805000D02*
X15415000Y-5835000D01*
X15415000Y-6105000D02*
X15445000Y-6135000D01*
X15445000Y-6105000D02*
X15415000Y-6135000D01*
X15415000Y-6405000D02*
X15445000Y-6435000D01*
X15445000Y-6405000D02*
X15415000Y-6435000D01*
X15415000Y-6705000D02*
X15445000Y-6735000D01*
X15445000Y-6705000D02*
X15415000Y-6735000D01*
X15415000Y-7005000D02*
X15445000Y-7035000D01*
X15445000Y-7005000D02*
X15415000Y-7035000D01*
X15415000Y-7305000D02*
X15445000Y-7335000D01*
X15445000Y-7305000D02*
X15415000Y-7335000D01*
X15425000Y-5205000D02*
X15455000Y-5235000D01*
X15455000Y-5205000D02*
X15425000Y-5235000D01*
X9340000Y-4040000D02*
G75*
G02*
X9300000Y-4040000I-20000J0D01*
G01*
X9300000Y-4040000D02*
G75*
G02*
X9340000Y-4040000I20000J0D01*
G01*
X9530000Y-4040000D02*
G75*
G02*
X9490000Y-4040000I-20000J0D01*
G01*
X9490000Y-4040000D02*
G75*
G02*
X9530000Y-4040000I20000J0D01*
G01*
X7713000Y-6127000D02*
X7713000Y-6207000D01*
X7673000Y-6167000D02*
X7753000Y-6167000D01*
X7683000Y-6207000D02*
X7743000Y-6207000D01*
X7743000Y-6127000D02*
G75*
G02*
X7743000Y-6207000I0J-40000D01*
G01*
X7743000Y-6127000D02*
X7683000Y-6127000D01*
X7683000Y-6127000D02*
G75*
G03*
X7683000Y-6207000I0J-40000D01*
G01*
X7713000Y-6993000D02*
X7713000Y-7073000D01*
X7673000Y-7033000D02*
X7753000Y-7033000D01*
X7683000Y-7073000D02*
X7743000Y-7073000D01*
X7743000Y-6993000D02*
G75*
G02*
X7743000Y-7073000I0J-40000D01*
G01*
X7743000Y-6993000D02*
X7683000Y-6993000D01*
X7683000Y-6993000D02*
G75*
G03*
X7683000Y-7073000I0J-40000D01*
G01*
X8131000Y-6127000D02*
X8131000Y-6207000D01*
X8091000Y-6167000D02*
X8171000Y-6167000D01*
X8091001Y-6207000D02*
X8170999Y-6207000D01*
X8170999Y-6127000D02*
G75*
G02*
X8170999Y-6207000I0J-40000D01*
G01*
X8170999Y-6127000D02*
X8091001Y-6127000D01*
X8091001Y-6127000D02*
G75*
G03*
X8091001Y-6207000I0J-40000D01*
G01*
X8131000Y-6993000D02*
X8131000Y-7073000D01*
X8091000Y-7033000D02*
X8171000Y-7033000D01*
X8090999Y-7073000D02*
X8171001Y-7073000D01*
X8171001Y-6993000D02*
G75*
G02*
X8171001Y-7073000I0J-40000D01*
G01*
X8171001Y-6993000D02*
X8090999Y-6993000D01*
X8090999Y-6993000D02*
G75*
G03*
X8090999Y-7073000I0J-40000D01*
G01*
X7635356Y-4935356D02*
X7635356Y-4864644D01*
X7564644Y-4864644D01*
X7564644Y-4935356D01*
X7635356Y-4935356D01*
X7635356Y-5189356D02*
X7635356Y-5118644D01*
X7564644Y-5118644D01*
X7564644Y-5189356D01*
X7635356Y-5189356D01*
X7635356Y-5443356D02*
X7635356Y-5372644D01*
X7564644Y-5372644D01*
X7564644Y-5443356D01*
X7635356Y-5443356D01*
X7635356Y-5697356D02*
X7635356Y-5626644D01*
X7564644Y-5626644D01*
X7564644Y-5697356D01*
X7635356Y-5697356D01*
X9185356Y-3485356D02*
X9185356Y-3414644D01*
X9114644Y-3414644D01*
X9114644Y-3485356D01*
X9185356Y-3485356D01*
X9439356Y-3485356D02*
X9439356Y-3414644D01*
X9368644Y-3414644D01*
X9368644Y-3485356D01*
X9439356Y-3485356D01*
X9693356Y-3485356D02*
X9693356Y-3414644D01*
X9622644Y-3414644D01*
X9622644Y-3485356D01*
X9693356Y-3485356D01*
X11735356Y-4181356D02*
X11735356Y-4110644D01*
X11664644Y-4110644D01*
X11664644Y-4181356D01*
X11735356Y-4181356D01*
X11735356Y-4435356D02*
X11735356Y-4364644D01*
X11664644Y-4364644D01*
X11664644Y-4435356D01*
X11735356Y-4435356D01*
X13385356Y-3485356D02*
X13385356Y-3414644D01*
X13314644Y-3414644D01*
X13314644Y-3485356D01*
X13385356Y-3485356D01*
X13639356Y-3485356D02*
X13639356Y-3414644D01*
X13568644Y-3414644D01*
X13568644Y-3485356D01*
X13639356Y-3485356D01*
X13893356Y-3485356D02*
X13893356Y-3414644D01*
X13822644Y-3414644D01*
X13822644Y-3485356D01*
X13893356Y-3485356D01*
D12*
X11959250Y-14712500D02*
X12046750Y-14625000D01*
X11959250Y-14537500D01*
X11871750Y-14625000D01*
X11959250Y-14712500D01*
X12347250Y-14712500D02*
X12434750Y-14625000D01*
X12347250Y-14537500D01*
X12259750Y-14625000D01*
X12347250Y-14712500D01*
D11*
X7655777Y-16316484D02*
X7655777Y-16116484D01*
X7655777Y-16116484D02*
X7703396Y-16116484D01*
X7703396Y-16116484D02*
X7731967Y-16126008D01*
X7731967Y-16126008D02*
X7751015Y-16145055D01*
X7751015Y-16145055D02*
X7760539Y-16164103D01*
X7760539Y-16164103D02*
X7770063Y-16202198D01*
X7770063Y-16202198D02*
X7770063Y-16230769D01*
X7770063Y-16230769D02*
X7760539Y-16268865D01*
X7760539Y-16268865D02*
X7751015Y-16287912D01*
X7751015Y-16287912D02*
X7731967Y-16306960D01*
X7731967Y-16306960D02*
X7703396Y-16316484D01*
X7703396Y-16316484D02*
X7655777Y-16316484D01*
X7855777Y-16316484D02*
X7855777Y-16183150D01*
X7855777Y-16221246D02*
X7865301Y-16202198D01*
X7865301Y-16202198D02*
X7874825Y-16192674D01*
X7874825Y-16192674D02*
X7893872Y-16183150D01*
X7893872Y-16183150D02*
X7912920Y-16183150D01*
X7979586Y-16316484D02*
X7979586Y-16183150D01*
X7979586Y-16116484D02*
X7970063Y-16126008D01*
X7970063Y-16126008D02*
X7979586Y-16135531D01*
X7979586Y-16135531D02*
X7989110Y-16126008D01*
X7989110Y-16126008D02*
X7979586Y-16116484D01*
X7979586Y-16116484D02*
X7979586Y-16135531D01*
X8103396Y-16316484D02*
X8084348Y-16306960D01*
X8084348Y-16306960D02*
X8074825Y-16287912D01*
X8074825Y-16287912D02*
X8074825Y-16116484D01*
X8208158Y-16316484D02*
X8189110Y-16306960D01*
X8189110Y-16306960D02*
X8179586Y-16287912D01*
X8179586Y-16287912D02*
X8179586Y-16116484D01*
X8436729Y-16316484D02*
X8436729Y-16116484D01*
X8436729Y-16116484D02*
X8503396Y-16259341D01*
X8503396Y-16259341D02*
X8570063Y-16116484D01*
X8570063Y-16116484D02*
X8570063Y-16316484D01*
X8751015Y-16316484D02*
X8751015Y-16211722D01*
X8751015Y-16211722D02*
X8741491Y-16192674D01*
X8741491Y-16192674D02*
X8722444Y-16183150D01*
X8722444Y-16183150D02*
X8684348Y-16183150D01*
X8684348Y-16183150D02*
X8665301Y-16192674D01*
X8751015Y-16306960D02*
X8731968Y-16316484D01*
X8731968Y-16316484D02*
X8684348Y-16316484D01*
X8684348Y-16316484D02*
X8665301Y-16306960D01*
X8665301Y-16306960D02*
X8655777Y-16287912D01*
X8655777Y-16287912D02*
X8655777Y-16268865D01*
X8655777Y-16268865D02*
X8665301Y-16249817D01*
X8665301Y-16249817D02*
X8684348Y-16240293D01*
X8684348Y-16240293D02*
X8731968Y-16240293D01*
X8731968Y-16240293D02*
X8751015Y-16230769D01*
X8846253Y-16183150D02*
X8846253Y-16383150D01*
X8846253Y-16192674D02*
X8865301Y-16183150D01*
X8865301Y-16183150D02*
X8903396Y-16183150D01*
X8903396Y-16183150D02*
X8922444Y-16192674D01*
X8922444Y-16192674D02*
X8931968Y-16202198D01*
X8931968Y-16202198D02*
X8941491Y-16221246D01*
X8941491Y-16221246D02*
X8941491Y-16278388D01*
X8941491Y-16278388D02*
X8931968Y-16297436D01*
X8931968Y-16297436D02*
X8922444Y-16306960D01*
X8922444Y-16306960D02*
X8903396Y-16316484D01*
X8903396Y-16316484D02*
X8865301Y-16316484D01*
X8865301Y-16316484D02*
X8846253Y-16306960D01*
X9027206Y-16297436D02*
X9036729Y-16306960D01*
X9036729Y-16306960D02*
X9027206Y-16316484D01*
X9027206Y-16316484D02*
X9017682Y-16306960D01*
X9017682Y-16306960D02*
X9027206Y-16297436D01*
X9027206Y-16297436D02*
X9027206Y-16316484D01*
X9027206Y-16192674D02*
X9036729Y-16202198D01*
X9036729Y-16202198D02*
X9027206Y-16211722D01*
X9027206Y-16211722D02*
X9017682Y-16202198D01*
X9017682Y-16202198D02*
X9027206Y-16192674D01*
X9027206Y-16192674D02*
X9027206Y-16211722D01*
D10*
X7365000Y-16630000D02*
X7395000Y-16660000D01*
X7395000Y-16630000D02*
X7365000Y-16660000D01*
D11*
X7693872Y-16536484D02*
X7712920Y-16536484D01*
X7712920Y-16536484D02*
X7731967Y-16546008D01*
X7731967Y-16546008D02*
X7741491Y-16555531D01*
X7741491Y-16555531D02*
X7751015Y-16574579D01*
X7751015Y-16574579D02*
X7760539Y-16612674D01*
X7760539Y-16612674D02*
X7760539Y-16660293D01*
X7760539Y-16660293D02*
X7751015Y-16698388D01*
X7751015Y-16698388D02*
X7741491Y-16717436D01*
X7741491Y-16717436D02*
X7731967Y-16726960D01*
X7731967Y-16726960D02*
X7712920Y-16736484D01*
X7712920Y-16736484D02*
X7693872Y-16736484D01*
X7693872Y-16736484D02*
X7674825Y-16726960D01*
X7674825Y-16726960D02*
X7665301Y-16717436D01*
X7665301Y-16717436D02*
X7655777Y-16698388D01*
X7655777Y-16698388D02*
X7646253Y-16660293D01*
X7646253Y-16660293D02*
X7646253Y-16612674D01*
X7646253Y-16612674D02*
X7655777Y-16574579D01*
X7655777Y-16574579D02*
X7665301Y-16555531D01*
X7665301Y-16555531D02*
X7674825Y-16546008D01*
X7674825Y-16546008D02*
X7693872Y-16536484D01*
X7846253Y-16717436D02*
X7855777Y-16726960D01*
X7855777Y-16726960D02*
X7846253Y-16736484D01*
X7846253Y-16736484D02*
X7836729Y-16726960D01*
X7836729Y-16726960D02*
X7846253Y-16717436D01*
X7846253Y-16717436D02*
X7846253Y-16736484D01*
X7922444Y-16536484D02*
X8046253Y-16536484D01*
X8046253Y-16536484D02*
X7979586Y-16612674D01*
X7979586Y-16612674D02*
X8008158Y-16612674D01*
X8008158Y-16612674D02*
X8027206Y-16622198D01*
X8027206Y-16622198D02*
X8036729Y-16631722D01*
X8036729Y-16631722D02*
X8046253Y-16650769D01*
X8046253Y-16650769D02*
X8046253Y-16698388D01*
X8046253Y-16698388D02*
X8036729Y-16717436D01*
X8036729Y-16717436D02*
X8027206Y-16726960D01*
X8027206Y-16726960D02*
X8008158Y-16736484D01*
X8008158Y-16736484D02*
X7951015Y-16736484D01*
X7951015Y-16736484D02*
X7931967Y-16726960D01*
X7931967Y-16726960D02*
X7922444Y-16717436D01*
X8170063Y-16536484D02*
X8189110Y-16536484D01*
X8189110Y-16536484D02*
X8208158Y-16546008D01*
X8208158Y-16546008D02*
X8217682Y-16555531D01*
X8217682Y-16555531D02*
X8227206Y-16574579D01*
X8227206Y-16574579D02*
X8236729Y-16612674D01*
X8236729Y-16612674D02*
X8236729Y-16660293D01*
X8236729Y-16660293D02*
X8227206Y-16698388D01*
X8227206Y-16698388D02*
X8217682Y-16717436D01*
X8217682Y-16717436D02*
X8208158Y-16726960D01*
X8208158Y-16726960D02*
X8189110Y-16736484D01*
X8189110Y-16736484D02*
X8170063Y-16736484D01*
X8170063Y-16736484D02*
X8151015Y-16726960D01*
X8151015Y-16726960D02*
X8141491Y-16717436D01*
X8141491Y-16717436D02*
X8131967Y-16698388D01*
X8131967Y-16698388D02*
X8122444Y-16660293D01*
X8122444Y-16660293D02*
X8122444Y-16612674D01*
X8122444Y-16612674D02*
X8131967Y-16574579D01*
X8131967Y-16574579D02*
X8141491Y-16555531D01*
X8141491Y-16555531D02*
X8151015Y-16546008D01*
X8151015Y-16546008D02*
X8170063Y-16536484D01*
X8360539Y-16536484D02*
X8379587Y-16536484D01*
X8379587Y-16536484D02*
X8398634Y-16546008D01*
X8398634Y-16546008D02*
X8408158Y-16555531D01*
X8408158Y-16555531D02*
X8417682Y-16574579D01*
X8417682Y-16574579D02*
X8427206Y-16612674D01*
X8427206Y-16612674D02*
X8427206Y-16660293D01*
X8427206Y-16660293D02*
X8417682Y-16698388D01*
X8417682Y-16698388D02*
X8408158Y-16717436D01*
X8408158Y-16717436D02*
X8398634Y-16726960D01*
X8398634Y-16726960D02*
X8379587Y-16736484D01*
X8379587Y-16736484D02*
X8360539Y-16736484D01*
X8360539Y-16736484D02*
X8341491Y-16726960D01*
X8341491Y-16726960D02*
X8331967Y-16717436D01*
X8331967Y-16717436D02*
X8322444Y-16698388D01*
X8322444Y-16698388D02*
X8312920Y-16660293D01*
X8312920Y-16660293D02*
X8312920Y-16612674D01*
X8312920Y-16612674D02*
X8322444Y-16574579D01*
X8322444Y-16574579D02*
X8331967Y-16555531D01*
X8331967Y-16555531D02*
X8341491Y-16546008D01*
X8341491Y-16546008D02*
X8360539Y-16536484D01*
X8512920Y-16736484D02*
X8512920Y-16603150D01*
X8512920Y-16622198D02*
X8522444Y-16612674D01*
X8522444Y-16612674D02*
X8541491Y-16603150D01*
X8541491Y-16603150D02*
X8570063Y-16603150D01*
X8570063Y-16603150D02*
X8589110Y-16612674D01*
X8589110Y-16612674D02*
X8598634Y-16631722D01*
X8598634Y-16631722D02*
X8598634Y-16736484D01*
X8598634Y-16631722D02*
X8608158Y-16612674D01*
X8608158Y-16612674D02*
X8627206Y-16603150D01*
X8627206Y-16603150D02*
X8655777Y-16603150D01*
X8655777Y-16603150D02*
X8674825Y-16612674D01*
X8674825Y-16612674D02*
X8684349Y-16631722D01*
X8684349Y-16631722D02*
X8684349Y-16736484D01*
X8779587Y-16736484D02*
X8779587Y-16603150D01*
X8779587Y-16622198D02*
X8789110Y-16612674D01*
X8789110Y-16612674D02*
X8808158Y-16603150D01*
X8808158Y-16603150D02*
X8836730Y-16603150D01*
X8836730Y-16603150D02*
X8855777Y-16612674D01*
X8855777Y-16612674D02*
X8865301Y-16631722D01*
X8865301Y-16631722D02*
X8865301Y-16736484D01*
X8865301Y-16631722D02*
X8874825Y-16612674D01*
X8874825Y-16612674D02*
X8893872Y-16603150D01*
X8893872Y-16603150D02*
X8922444Y-16603150D01*
X8922444Y-16603150D02*
X8941491Y-16612674D01*
X8941491Y-16612674D02*
X8951015Y-16631722D01*
X8951015Y-16631722D02*
X8951015Y-16736484D01*
X9341491Y-16526960D02*
X9170063Y-16784103D01*
X9598634Y-16536484D02*
X9617682Y-16536484D01*
X9617682Y-16536484D02*
X9636730Y-16546008D01*
X9636730Y-16546008D02*
X9646253Y-16555531D01*
X9646253Y-16555531D02*
X9655777Y-16574579D01*
X9655777Y-16574579D02*
X9665301Y-16612674D01*
X9665301Y-16612674D02*
X9665301Y-16660293D01*
X9665301Y-16660293D02*
X9655777Y-16698388D01*
X9655777Y-16698388D02*
X9646253Y-16717436D01*
X9646253Y-16717436D02*
X9636730Y-16726960D01*
X9636730Y-16726960D02*
X9617682Y-16736484D01*
X9617682Y-16736484D02*
X9598634Y-16736484D01*
X9598634Y-16736484D02*
X9579587Y-16726960D01*
X9579587Y-16726960D02*
X9570063Y-16717436D01*
X9570063Y-16717436D02*
X9560539Y-16698388D01*
X9560539Y-16698388D02*
X9551015Y-16660293D01*
X9551015Y-16660293D02*
X9551015Y-16612674D01*
X9551015Y-16612674D02*
X9560539Y-16574579D01*
X9560539Y-16574579D02*
X9570063Y-16555531D01*
X9570063Y-16555531D02*
X9579587Y-16546008D01*
X9579587Y-16546008D02*
X9598634Y-16536484D01*
X9751015Y-16717436D02*
X9760539Y-16726960D01*
X9760539Y-16726960D02*
X9751015Y-16736484D01*
X9751015Y-16736484D02*
X9741492Y-16726960D01*
X9741492Y-16726960D02*
X9751015Y-16717436D01*
X9751015Y-16717436D02*
X9751015Y-16736484D01*
X9884349Y-16536484D02*
X9903396Y-16536484D01*
X9903396Y-16536484D02*
X9922444Y-16546008D01*
X9922444Y-16546008D02*
X9931968Y-16555531D01*
X9931968Y-16555531D02*
X9941492Y-16574579D01*
X9941492Y-16574579D02*
X9951015Y-16612674D01*
X9951015Y-16612674D02*
X9951015Y-16660293D01*
X9951015Y-16660293D02*
X9941492Y-16698388D01*
X9941492Y-16698388D02*
X9931968Y-16717436D01*
X9931968Y-16717436D02*
X9922444Y-16726960D01*
X9922444Y-16726960D02*
X9903396Y-16736484D01*
X9903396Y-16736484D02*
X9884349Y-16736484D01*
X9884349Y-16736484D02*
X9865301Y-16726960D01*
X9865301Y-16726960D02*
X9855777Y-16717436D01*
X9855777Y-16717436D02*
X9846253Y-16698388D01*
X9846253Y-16698388D02*
X9836730Y-16660293D01*
X9836730Y-16660293D02*
X9836730Y-16612674D01*
X9836730Y-16612674D02*
X9846253Y-16574579D01*
X9846253Y-16574579D02*
X9855777Y-16555531D01*
X9855777Y-16555531D02*
X9865301Y-16546008D01*
X9865301Y-16546008D02*
X9884349Y-16536484D01*
X10141492Y-16736484D02*
X10027206Y-16736484D01*
X10084349Y-16736484D02*
X10084349Y-16536484D01*
X10084349Y-16536484D02*
X10065301Y-16565055D01*
X10065301Y-16565055D02*
X10046253Y-16584103D01*
X10046253Y-16584103D02*
X10027206Y-16593627D01*
X10331968Y-16736484D02*
X10217682Y-16736484D01*
X10274825Y-16736484D02*
X10274825Y-16536484D01*
X10274825Y-16536484D02*
X10255777Y-16565055D01*
X10255777Y-16565055D02*
X10236730Y-16584103D01*
X10236730Y-16584103D02*
X10217682Y-16593627D01*
X10446253Y-16622198D02*
X10427206Y-16612674D01*
X10427206Y-16612674D02*
X10417682Y-16603150D01*
X10417682Y-16603150D02*
X10408158Y-16584103D01*
X10408158Y-16584103D02*
X10408158Y-16574579D01*
X10408158Y-16574579D02*
X10417682Y-16555531D01*
X10417682Y-16555531D02*
X10427206Y-16546008D01*
X10427206Y-16546008D02*
X10446253Y-16536484D01*
X10446253Y-16536484D02*
X10484349Y-16536484D01*
X10484349Y-16536484D02*
X10503396Y-16546008D01*
X10503396Y-16546008D02*
X10512920Y-16555531D01*
X10512920Y-16555531D02*
X10522444Y-16574579D01*
X10522444Y-16574579D02*
X10522444Y-16584103D01*
X10522444Y-16584103D02*
X10512920Y-16603150D01*
X10512920Y-16603150D02*
X10503396Y-16612674D01*
X10503396Y-16612674D02*
X10484349Y-16622198D01*
X10484349Y-16622198D02*
X10446253Y-16622198D01*
X10446253Y-16622198D02*
X10427206Y-16631722D01*
X10427206Y-16631722D02*
X10417682Y-16641246D01*
X10417682Y-16641246D02*
X10408158Y-16660293D01*
X10408158Y-16660293D02*
X10408158Y-16698388D01*
X10408158Y-16698388D02*
X10417682Y-16717436D01*
X10417682Y-16717436D02*
X10427206Y-16726960D01*
X10427206Y-16726960D02*
X10446253Y-16736484D01*
X10446253Y-16736484D02*
X10484349Y-16736484D01*
X10484349Y-16736484D02*
X10503396Y-16726960D01*
X10503396Y-16726960D02*
X10512920Y-16717436D01*
X10512920Y-16717436D02*
X10522444Y-16698388D01*
X10522444Y-16698388D02*
X10522444Y-16660293D01*
X10522444Y-16660293D02*
X10512920Y-16641246D01*
X10512920Y-16641246D02*
X10503396Y-16631722D01*
X10503396Y-16631722D02*
X10484349Y-16622198D01*
X10598634Y-16536484D02*
X10598634Y-16574579D01*
X10674825Y-16536484D02*
X10674825Y-16574579D01*
X10970063Y-16812674D02*
X10960539Y-16803150D01*
X10960539Y-16803150D02*
X10941492Y-16774579D01*
X10941492Y-16774579D02*
X10931968Y-16755531D01*
X10931968Y-16755531D02*
X10922444Y-16726960D01*
X10922444Y-16726960D02*
X10912920Y-16679341D01*
X10912920Y-16679341D02*
X10912920Y-16641246D01*
X10912920Y-16641246D02*
X10922444Y-16593627D01*
X10922444Y-16593627D02*
X10931968Y-16565055D01*
X10931968Y-16565055D02*
X10941492Y-16546008D01*
X10941492Y-16546008D02*
X10960539Y-16517436D01*
X10960539Y-16517436D02*
X10970063Y-16507912D01*
X11036730Y-16555531D02*
X11046254Y-16546008D01*
X11046254Y-16546008D02*
X11065301Y-16536484D01*
X11065301Y-16536484D02*
X11112920Y-16536484D01*
X11112920Y-16536484D02*
X11131968Y-16546008D01*
X11131968Y-16546008D02*
X11141492Y-16555531D01*
X11141492Y-16555531D02*
X11151015Y-16574579D01*
X11151015Y-16574579D02*
X11151015Y-16593627D01*
X11151015Y-16593627D02*
X11141492Y-16622198D01*
X11141492Y-16622198D02*
X11027206Y-16736484D01*
X11027206Y-16736484D02*
X11151015Y-16736484D01*
X11217682Y-16536484D02*
X11351015Y-16536484D01*
X11351015Y-16536484D02*
X11265301Y-16736484D01*
X11522444Y-16536484D02*
X11427206Y-16536484D01*
X11427206Y-16536484D02*
X11417682Y-16631722D01*
X11417682Y-16631722D02*
X11427206Y-16622198D01*
X11427206Y-16622198D02*
X11446253Y-16612674D01*
X11446253Y-16612674D02*
X11493873Y-16612674D01*
X11493873Y-16612674D02*
X11512920Y-16622198D01*
X11512920Y-16622198D02*
X11522444Y-16631722D01*
X11522444Y-16631722D02*
X11531968Y-16650769D01*
X11531968Y-16650769D02*
X11531968Y-16698388D01*
X11531968Y-16698388D02*
X11522444Y-16717436D01*
X11522444Y-16717436D02*
X11512920Y-16726960D01*
X11512920Y-16726960D02*
X11493873Y-16736484D01*
X11493873Y-16736484D02*
X11446253Y-16736484D01*
X11446253Y-16736484D02*
X11427206Y-16726960D01*
X11427206Y-16726960D02*
X11417682Y-16717436D01*
X11770063Y-16736484D02*
X11770063Y-16536484D01*
X11855777Y-16736484D02*
X11855777Y-16631722D01*
X11855777Y-16631722D02*
X11846254Y-16612674D01*
X11846254Y-16612674D02*
X11827206Y-16603150D01*
X11827206Y-16603150D02*
X11798634Y-16603150D01*
X11798634Y-16603150D02*
X11779587Y-16612674D01*
X11779587Y-16612674D02*
X11770063Y-16622198D01*
X11979587Y-16736484D02*
X11960539Y-16726960D01*
X11960539Y-16726960D02*
X11951015Y-16717436D01*
X11951015Y-16717436D02*
X11941492Y-16698388D01*
X11941492Y-16698388D02*
X11941492Y-16641246D01*
X11941492Y-16641246D02*
X11951015Y-16622198D01*
X11951015Y-16622198D02*
X11960539Y-16612674D01*
X11960539Y-16612674D02*
X11979587Y-16603150D01*
X11979587Y-16603150D02*
X12008158Y-16603150D01*
X12008158Y-16603150D02*
X12027206Y-16612674D01*
X12027206Y-16612674D02*
X12036730Y-16622198D01*
X12036730Y-16622198D02*
X12046254Y-16641246D01*
X12046254Y-16641246D02*
X12046254Y-16698388D01*
X12046254Y-16698388D02*
X12036730Y-16717436D01*
X12036730Y-16717436D02*
X12027206Y-16726960D01*
X12027206Y-16726960D02*
X12008158Y-16736484D01*
X12008158Y-16736484D02*
X11979587Y-16736484D01*
X12160539Y-16736484D02*
X12141492Y-16726960D01*
X12141492Y-16726960D02*
X12131968Y-16707912D01*
X12131968Y-16707912D02*
X12131968Y-16536484D01*
X12312920Y-16726960D02*
X12293873Y-16736484D01*
X12293873Y-16736484D02*
X12255777Y-16736484D01*
X12255777Y-16736484D02*
X12236730Y-16726960D01*
X12236730Y-16726960D02*
X12227206Y-16707912D01*
X12227206Y-16707912D02*
X12227206Y-16631722D01*
X12227206Y-16631722D02*
X12236730Y-16612674D01*
X12236730Y-16612674D02*
X12255777Y-16603150D01*
X12255777Y-16603150D02*
X12293873Y-16603150D01*
X12293873Y-16603150D02*
X12312920Y-16612674D01*
X12312920Y-16612674D02*
X12322444Y-16631722D01*
X12322444Y-16631722D02*
X12322444Y-16650769D01*
X12322444Y-16650769D02*
X12227206Y-16669817D01*
X12398635Y-16726960D02*
X12417682Y-16736484D01*
X12417682Y-16736484D02*
X12455777Y-16736484D01*
X12455777Y-16736484D02*
X12474825Y-16726960D01*
X12474825Y-16726960D02*
X12484349Y-16707912D01*
X12484349Y-16707912D02*
X12484349Y-16698388D01*
X12484349Y-16698388D02*
X12474825Y-16679341D01*
X12474825Y-16679341D02*
X12455777Y-16669817D01*
X12455777Y-16669817D02*
X12427206Y-16669817D01*
X12427206Y-16669817D02*
X12408158Y-16660293D01*
X12408158Y-16660293D02*
X12398635Y-16641246D01*
X12398635Y-16641246D02*
X12398635Y-16631722D01*
X12398635Y-16631722D02*
X12408158Y-16612674D01*
X12408158Y-16612674D02*
X12427206Y-16603150D01*
X12427206Y-16603150D02*
X12455777Y-16603150D01*
X12455777Y-16603150D02*
X12474825Y-16612674D01*
X12551016Y-16812674D02*
X12560539Y-16803150D01*
X12560539Y-16803150D02*
X12579587Y-16774579D01*
X12579587Y-16774579D02*
X12589111Y-16755531D01*
X12589111Y-16755531D02*
X12598635Y-16726960D01*
X12598635Y-16726960D02*
X12608158Y-16679341D01*
X12608158Y-16679341D02*
X12608158Y-16641246D01*
X12608158Y-16641246D02*
X12598635Y-16593627D01*
X12598635Y-16593627D02*
X12589111Y-16565055D01*
X12589111Y-16565055D02*
X12579587Y-16546008D01*
X12579587Y-16546008D02*
X12560539Y-16517436D01*
X12560539Y-16517436D02*
X12551016Y-16507912D01*
D10*
X7395000Y-16909000D02*
G75*
G02*
X7355000Y-16909000I-20000J0D01*
G01*
X7355000Y-16909000D02*
G75*
G02*
X7395000Y-16909000I20000J0D01*
G01*
D11*
X7693872Y-16800484D02*
X7712920Y-16800484D01*
X7712920Y-16800484D02*
X7731967Y-16810008D01*
X7731967Y-16810008D02*
X7741491Y-16819531D01*
X7741491Y-16819531D02*
X7751015Y-16838579D01*
X7751015Y-16838579D02*
X7760539Y-16876674D01*
X7760539Y-16876674D02*
X7760539Y-16924293D01*
X7760539Y-16924293D02*
X7751015Y-16962389D01*
X7751015Y-16962389D02*
X7741491Y-16981436D01*
X7741491Y-16981436D02*
X7731967Y-16990960D01*
X7731967Y-16990960D02*
X7712920Y-17000484D01*
X7712920Y-17000484D02*
X7693872Y-17000484D01*
X7693872Y-17000484D02*
X7674825Y-16990960D01*
X7674825Y-16990960D02*
X7665301Y-16981436D01*
X7665301Y-16981436D02*
X7655777Y-16962389D01*
X7655777Y-16962389D02*
X7646253Y-16924293D01*
X7646253Y-16924293D02*
X7646253Y-16876674D01*
X7646253Y-16876674D02*
X7655777Y-16838579D01*
X7655777Y-16838579D02*
X7665301Y-16819531D01*
X7665301Y-16819531D02*
X7674825Y-16810008D01*
X7674825Y-16810008D02*
X7693872Y-16800484D01*
X7846253Y-16981436D02*
X7855777Y-16990960D01*
X7855777Y-16990960D02*
X7846253Y-17000484D01*
X7846253Y-17000484D02*
X7836729Y-16990960D01*
X7836729Y-16990960D02*
X7846253Y-16981436D01*
X7846253Y-16981436D02*
X7846253Y-17000484D01*
X8027206Y-16867150D02*
X8027206Y-17000484D01*
X7979586Y-16790960D02*
X7931967Y-16933817D01*
X7931967Y-16933817D02*
X8055777Y-16933817D01*
X8170063Y-16800484D02*
X8189110Y-16800484D01*
X8189110Y-16800484D02*
X8208158Y-16810008D01*
X8208158Y-16810008D02*
X8217682Y-16819531D01*
X8217682Y-16819531D02*
X8227206Y-16838579D01*
X8227206Y-16838579D02*
X8236729Y-16876674D01*
X8236729Y-16876674D02*
X8236729Y-16924293D01*
X8236729Y-16924293D02*
X8227206Y-16962389D01*
X8227206Y-16962389D02*
X8217682Y-16981436D01*
X8217682Y-16981436D02*
X8208158Y-16990960D01*
X8208158Y-16990960D02*
X8189110Y-17000484D01*
X8189110Y-17000484D02*
X8170063Y-17000484D01*
X8170063Y-17000484D02*
X8151015Y-16990960D01*
X8151015Y-16990960D02*
X8141491Y-16981436D01*
X8141491Y-16981436D02*
X8131967Y-16962389D01*
X8131967Y-16962389D02*
X8122444Y-16924293D01*
X8122444Y-16924293D02*
X8122444Y-16876674D01*
X8122444Y-16876674D02*
X8131967Y-16838579D01*
X8131967Y-16838579D02*
X8141491Y-16819531D01*
X8141491Y-16819531D02*
X8151015Y-16810008D01*
X8151015Y-16810008D02*
X8170063Y-16800484D01*
X8360539Y-16800484D02*
X8379587Y-16800484D01*
X8379587Y-16800484D02*
X8398634Y-16810008D01*
X8398634Y-16810008D02*
X8408158Y-16819531D01*
X8408158Y-16819531D02*
X8417682Y-16838579D01*
X8417682Y-16838579D02*
X8427206Y-16876674D01*
X8427206Y-16876674D02*
X8427206Y-16924293D01*
X8427206Y-16924293D02*
X8417682Y-16962389D01*
X8417682Y-16962389D02*
X8408158Y-16981436D01*
X8408158Y-16981436D02*
X8398634Y-16990960D01*
X8398634Y-16990960D02*
X8379587Y-17000484D01*
X8379587Y-17000484D02*
X8360539Y-17000484D01*
X8360539Y-17000484D02*
X8341491Y-16990960D01*
X8341491Y-16990960D02*
X8331967Y-16981436D01*
X8331967Y-16981436D02*
X8322444Y-16962389D01*
X8322444Y-16962389D02*
X8312920Y-16924293D01*
X8312920Y-16924293D02*
X8312920Y-16876674D01*
X8312920Y-16876674D02*
X8322444Y-16838579D01*
X8322444Y-16838579D02*
X8331967Y-16819531D01*
X8331967Y-16819531D02*
X8341491Y-16810008D01*
X8341491Y-16810008D02*
X8360539Y-16800484D01*
X8512920Y-17000484D02*
X8512920Y-16867150D01*
X8512920Y-16886198D02*
X8522444Y-16876674D01*
X8522444Y-16876674D02*
X8541491Y-16867150D01*
X8541491Y-16867150D02*
X8570063Y-16867150D01*
X8570063Y-16867150D02*
X8589110Y-16876674D01*
X8589110Y-16876674D02*
X8598634Y-16895722D01*
X8598634Y-16895722D02*
X8598634Y-17000484D01*
X8598634Y-16895722D02*
X8608158Y-16876674D01*
X8608158Y-16876674D02*
X8627206Y-16867150D01*
X8627206Y-16867150D02*
X8655777Y-16867150D01*
X8655777Y-16867150D02*
X8674825Y-16876674D01*
X8674825Y-16876674D02*
X8684349Y-16895722D01*
X8684349Y-16895722D02*
X8684349Y-17000484D01*
X8779587Y-17000484D02*
X8779587Y-16867150D01*
X8779587Y-16886198D02*
X8789110Y-16876674D01*
X8789110Y-16876674D02*
X8808158Y-16867150D01*
X8808158Y-16867150D02*
X8836730Y-16867150D01*
X8836730Y-16867150D02*
X8855777Y-16876674D01*
X8855777Y-16876674D02*
X8865301Y-16895722D01*
X8865301Y-16895722D02*
X8865301Y-17000484D01*
X8865301Y-16895722D02*
X8874825Y-16876674D01*
X8874825Y-16876674D02*
X8893872Y-16867150D01*
X8893872Y-16867150D02*
X8922444Y-16867150D01*
X8922444Y-16867150D02*
X8941491Y-16876674D01*
X8941491Y-16876674D02*
X8951015Y-16895722D01*
X8951015Y-16895722D02*
X8951015Y-17000484D01*
X9341491Y-16790960D02*
X9170063Y-17048103D01*
X9598634Y-16800484D02*
X9617682Y-16800484D01*
X9617682Y-16800484D02*
X9636730Y-16810008D01*
X9636730Y-16810008D02*
X9646253Y-16819531D01*
X9646253Y-16819531D02*
X9655777Y-16838579D01*
X9655777Y-16838579D02*
X9665301Y-16876674D01*
X9665301Y-16876674D02*
X9665301Y-16924293D01*
X9665301Y-16924293D02*
X9655777Y-16962389D01*
X9655777Y-16962389D02*
X9646253Y-16981436D01*
X9646253Y-16981436D02*
X9636730Y-16990960D01*
X9636730Y-16990960D02*
X9617682Y-17000484D01*
X9617682Y-17000484D02*
X9598634Y-17000484D01*
X9598634Y-17000484D02*
X9579587Y-16990960D01*
X9579587Y-16990960D02*
X9570063Y-16981436D01*
X9570063Y-16981436D02*
X9560539Y-16962389D01*
X9560539Y-16962389D02*
X9551015Y-16924293D01*
X9551015Y-16924293D02*
X9551015Y-16876674D01*
X9551015Y-16876674D02*
X9560539Y-16838579D01*
X9560539Y-16838579D02*
X9570063Y-16819531D01*
X9570063Y-16819531D02*
X9579587Y-16810008D01*
X9579587Y-16810008D02*
X9598634Y-16800484D01*
X9751015Y-16981436D02*
X9760539Y-16990960D01*
X9760539Y-16990960D02*
X9751015Y-17000484D01*
X9751015Y-17000484D02*
X9741492Y-16990960D01*
X9741492Y-16990960D02*
X9751015Y-16981436D01*
X9751015Y-16981436D02*
X9751015Y-17000484D01*
X9884349Y-16800484D02*
X9903396Y-16800484D01*
X9903396Y-16800484D02*
X9922444Y-16810008D01*
X9922444Y-16810008D02*
X9931968Y-16819531D01*
X9931968Y-16819531D02*
X9941492Y-16838579D01*
X9941492Y-16838579D02*
X9951015Y-16876674D01*
X9951015Y-16876674D02*
X9951015Y-16924293D01*
X9951015Y-16924293D02*
X9941492Y-16962389D01*
X9941492Y-16962389D02*
X9931968Y-16981436D01*
X9931968Y-16981436D02*
X9922444Y-16990960D01*
X9922444Y-16990960D02*
X9903396Y-17000484D01*
X9903396Y-17000484D02*
X9884349Y-17000484D01*
X9884349Y-17000484D02*
X9865301Y-16990960D01*
X9865301Y-16990960D02*
X9855777Y-16981436D01*
X9855777Y-16981436D02*
X9846253Y-16962389D01*
X9846253Y-16962389D02*
X9836730Y-16924293D01*
X9836730Y-16924293D02*
X9836730Y-16876674D01*
X9836730Y-16876674D02*
X9846253Y-16838579D01*
X9846253Y-16838579D02*
X9855777Y-16819531D01*
X9855777Y-16819531D02*
X9865301Y-16810008D01*
X9865301Y-16810008D02*
X9884349Y-16800484D01*
X10141492Y-17000484D02*
X10027206Y-17000484D01*
X10084349Y-17000484D02*
X10084349Y-16800484D01*
X10084349Y-16800484D02*
X10065301Y-16829055D01*
X10065301Y-16829055D02*
X10046253Y-16848103D01*
X10046253Y-16848103D02*
X10027206Y-16857627D01*
X10322444Y-16800484D02*
X10227206Y-16800484D01*
X10227206Y-16800484D02*
X10217682Y-16895722D01*
X10217682Y-16895722D02*
X10227206Y-16886198D01*
X10227206Y-16886198D02*
X10246253Y-16876674D01*
X10246253Y-16876674D02*
X10293873Y-16876674D01*
X10293873Y-16876674D02*
X10312920Y-16886198D01*
X10312920Y-16886198D02*
X10322444Y-16895722D01*
X10322444Y-16895722D02*
X10331968Y-16914770D01*
X10331968Y-16914770D02*
X10331968Y-16962389D01*
X10331968Y-16962389D02*
X10322444Y-16981436D01*
X10322444Y-16981436D02*
X10312920Y-16990960D01*
X10312920Y-16990960D02*
X10293873Y-17000484D01*
X10293873Y-17000484D02*
X10246253Y-17000484D01*
X10246253Y-17000484D02*
X10227206Y-16990960D01*
X10227206Y-16990960D02*
X10217682Y-16981436D01*
X10398634Y-16800484D02*
X10531968Y-16800484D01*
X10531968Y-16800484D02*
X10446253Y-17000484D01*
X10598634Y-16800484D02*
X10598634Y-16838579D01*
X10674825Y-16800484D02*
X10674825Y-16838579D01*
X10970063Y-17076674D02*
X10960539Y-17067150D01*
X10960539Y-17067150D02*
X10941492Y-17038579D01*
X10941492Y-17038579D02*
X10931968Y-17019531D01*
X10931968Y-17019531D02*
X10922444Y-16990960D01*
X10922444Y-16990960D02*
X10912920Y-16943341D01*
X10912920Y-16943341D02*
X10912920Y-16905246D01*
X10912920Y-16905246D02*
X10922444Y-16857627D01*
X10922444Y-16857627D02*
X10931968Y-16829055D01*
X10931968Y-16829055D02*
X10941492Y-16810008D01*
X10941492Y-16810008D02*
X10960539Y-16781436D01*
X10960539Y-16781436D02*
X10970063Y-16771912D01*
X11036730Y-16819531D02*
X11046254Y-16810008D01*
X11046254Y-16810008D02*
X11065301Y-16800484D01*
X11065301Y-16800484D02*
X11112920Y-16800484D01*
X11112920Y-16800484D02*
X11131968Y-16810008D01*
X11131968Y-16810008D02*
X11141492Y-16819531D01*
X11141492Y-16819531D02*
X11151015Y-16838579D01*
X11151015Y-16838579D02*
X11151015Y-16857627D01*
X11151015Y-16857627D02*
X11141492Y-16886198D01*
X11141492Y-16886198D02*
X11027206Y-17000484D01*
X11027206Y-17000484D02*
X11151015Y-17000484D01*
X11389111Y-17000484D02*
X11389111Y-16800484D01*
X11474825Y-17000484D02*
X11474825Y-16895722D01*
X11474825Y-16895722D02*
X11465301Y-16876674D01*
X11465301Y-16876674D02*
X11446254Y-16867150D01*
X11446254Y-16867150D02*
X11417682Y-16867150D01*
X11417682Y-16867150D02*
X11398634Y-16876674D01*
X11398634Y-16876674D02*
X11389111Y-16886198D01*
X11598634Y-17000484D02*
X11579587Y-16990960D01*
X11579587Y-16990960D02*
X11570063Y-16981436D01*
X11570063Y-16981436D02*
X11560539Y-16962389D01*
X11560539Y-16962389D02*
X11560539Y-16905246D01*
X11560539Y-16905246D02*
X11570063Y-16886198D01*
X11570063Y-16886198D02*
X11579587Y-16876674D01*
X11579587Y-16876674D02*
X11598634Y-16867150D01*
X11598634Y-16867150D02*
X11627206Y-16867150D01*
X11627206Y-16867150D02*
X11646254Y-16876674D01*
X11646254Y-16876674D02*
X11655777Y-16886198D01*
X11655777Y-16886198D02*
X11665301Y-16905246D01*
X11665301Y-16905246D02*
X11665301Y-16962389D01*
X11665301Y-16962389D02*
X11655777Y-16981436D01*
X11655777Y-16981436D02*
X11646254Y-16990960D01*
X11646254Y-16990960D02*
X11627206Y-17000484D01*
X11627206Y-17000484D02*
X11598634Y-17000484D01*
X11779587Y-17000484D02*
X11760539Y-16990960D01*
X11760539Y-16990960D02*
X11751015Y-16971912D01*
X11751015Y-16971912D02*
X11751015Y-16800484D01*
X11931968Y-16990960D02*
X11912920Y-17000484D01*
X11912920Y-17000484D02*
X11874825Y-17000484D01*
X11874825Y-17000484D02*
X11855777Y-16990960D01*
X11855777Y-16990960D02*
X11846254Y-16971912D01*
X11846254Y-16971912D02*
X11846254Y-16895722D01*
X11846254Y-16895722D02*
X11855777Y-16876674D01*
X11855777Y-16876674D02*
X11874825Y-16867150D01*
X11874825Y-16867150D02*
X11912920Y-16867150D01*
X11912920Y-16867150D02*
X11931968Y-16876674D01*
X11931968Y-16876674D02*
X11941492Y-16895722D01*
X11941492Y-16895722D02*
X11941492Y-16914770D01*
X11941492Y-16914770D02*
X11846254Y-16933817D01*
X12017682Y-16990960D02*
X12036730Y-17000484D01*
X12036730Y-17000484D02*
X12074825Y-17000484D01*
X12074825Y-17000484D02*
X12093873Y-16990960D01*
X12093873Y-16990960D02*
X12103396Y-16971912D01*
X12103396Y-16971912D02*
X12103396Y-16962389D01*
X12103396Y-16962389D02*
X12093873Y-16943341D01*
X12093873Y-16943341D02*
X12074825Y-16933817D01*
X12074825Y-16933817D02*
X12046254Y-16933817D01*
X12046254Y-16933817D02*
X12027206Y-16924293D01*
X12027206Y-16924293D02*
X12017682Y-16905246D01*
X12017682Y-16905246D02*
X12017682Y-16895722D01*
X12017682Y-16895722D02*
X12027206Y-16876674D01*
X12027206Y-16876674D02*
X12046254Y-16867150D01*
X12046254Y-16867150D02*
X12074825Y-16867150D01*
X12074825Y-16867150D02*
X12093873Y-16876674D01*
X12170063Y-17076674D02*
X12179587Y-17067150D01*
X12179587Y-17067150D02*
X12198635Y-17038579D01*
X12198635Y-17038579D02*
X12208158Y-17019531D01*
X12208158Y-17019531D02*
X12217682Y-16990960D01*
X12217682Y-16990960D02*
X12227206Y-16943341D01*
X12227206Y-16943341D02*
X12227206Y-16905246D01*
X12227206Y-16905246D02*
X12217682Y-16857627D01*
X12217682Y-16857627D02*
X12208158Y-16829055D01*
X12208158Y-16829055D02*
X12198635Y-16810008D01*
X12198635Y-16810008D02*
X12179587Y-16781436D01*
X12179587Y-16781436D02*
X12170063Y-16771912D01*
D10*
X7355000Y-17133000D02*
X7355000Y-17213000D01*
X7315000Y-17173000D02*
X7395000Y-17173000D01*
D11*
X7693872Y-17064484D02*
X7712920Y-17064484D01*
X7712920Y-17064484D02*
X7731967Y-17074008D01*
X7731967Y-17074008D02*
X7741491Y-17083531D01*
X7741491Y-17083531D02*
X7751015Y-17102579D01*
X7751015Y-17102579D02*
X7760539Y-17140674D01*
X7760539Y-17140674D02*
X7760539Y-17188293D01*
X7760539Y-17188293D02*
X7751015Y-17226389D01*
X7751015Y-17226389D02*
X7741491Y-17245436D01*
X7741491Y-17245436D02*
X7731967Y-17254960D01*
X7731967Y-17254960D02*
X7712920Y-17264484D01*
X7712920Y-17264484D02*
X7693872Y-17264484D01*
X7693872Y-17264484D02*
X7674825Y-17254960D01*
X7674825Y-17254960D02*
X7665301Y-17245436D01*
X7665301Y-17245436D02*
X7655777Y-17226389D01*
X7655777Y-17226389D02*
X7646253Y-17188293D01*
X7646253Y-17188293D02*
X7646253Y-17140674D01*
X7646253Y-17140674D02*
X7655777Y-17102579D01*
X7655777Y-17102579D02*
X7665301Y-17083531D01*
X7665301Y-17083531D02*
X7674825Y-17074008D01*
X7674825Y-17074008D02*
X7693872Y-17064484D01*
X7846253Y-17245436D02*
X7855777Y-17254960D01*
X7855777Y-17254960D02*
X7846253Y-17264484D01*
X7846253Y-17264484D02*
X7836729Y-17254960D01*
X7836729Y-17254960D02*
X7846253Y-17245436D01*
X7846253Y-17245436D02*
X7846253Y-17264484D01*
X7970063Y-17150198D02*
X7951015Y-17140674D01*
X7951015Y-17140674D02*
X7941491Y-17131150D01*
X7941491Y-17131150D02*
X7931967Y-17112103D01*
X7931967Y-17112103D02*
X7931967Y-17102579D01*
X7931967Y-17102579D02*
X7941491Y-17083531D01*
X7941491Y-17083531D02*
X7951015Y-17074008D01*
X7951015Y-17074008D02*
X7970063Y-17064484D01*
X7970063Y-17064484D02*
X8008158Y-17064484D01*
X8008158Y-17064484D02*
X8027206Y-17074008D01*
X8027206Y-17074008D02*
X8036729Y-17083531D01*
X8036729Y-17083531D02*
X8046253Y-17102579D01*
X8046253Y-17102579D02*
X8046253Y-17112103D01*
X8046253Y-17112103D02*
X8036729Y-17131150D01*
X8036729Y-17131150D02*
X8027206Y-17140674D01*
X8027206Y-17140674D02*
X8008158Y-17150198D01*
X8008158Y-17150198D02*
X7970063Y-17150198D01*
X7970063Y-17150198D02*
X7951015Y-17159722D01*
X7951015Y-17159722D02*
X7941491Y-17169246D01*
X7941491Y-17169246D02*
X7931967Y-17188293D01*
X7931967Y-17188293D02*
X7931967Y-17226389D01*
X7931967Y-17226389D02*
X7941491Y-17245436D01*
X7941491Y-17245436D02*
X7951015Y-17254960D01*
X7951015Y-17254960D02*
X7970063Y-17264484D01*
X7970063Y-17264484D02*
X8008158Y-17264484D01*
X8008158Y-17264484D02*
X8027206Y-17254960D01*
X8027206Y-17254960D02*
X8036729Y-17245436D01*
X8036729Y-17245436D02*
X8046253Y-17226389D01*
X8046253Y-17226389D02*
X8046253Y-17188293D01*
X8046253Y-17188293D02*
X8036729Y-17169246D01*
X8036729Y-17169246D02*
X8027206Y-17159722D01*
X8027206Y-17159722D02*
X8008158Y-17150198D01*
X8170063Y-17064484D02*
X8189110Y-17064484D01*
X8189110Y-17064484D02*
X8208158Y-17074008D01*
X8208158Y-17074008D02*
X8217682Y-17083531D01*
X8217682Y-17083531D02*
X8227206Y-17102579D01*
X8227206Y-17102579D02*
X8236729Y-17140674D01*
X8236729Y-17140674D02*
X8236729Y-17188293D01*
X8236729Y-17188293D02*
X8227206Y-17226389D01*
X8227206Y-17226389D02*
X8217682Y-17245436D01*
X8217682Y-17245436D02*
X8208158Y-17254960D01*
X8208158Y-17254960D02*
X8189110Y-17264484D01*
X8189110Y-17264484D02*
X8170063Y-17264484D01*
X8170063Y-17264484D02*
X8151015Y-17254960D01*
X8151015Y-17254960D02*
X8141491Y-17245436D01*
X8141491Y-17245436D02*
X8131967Y-17226389D01*
X8131967Y-17226389D02*
X8122444Y-17188293D01*
X8122444Y-17188293D02*
X8122444Y-17140674D01*
X8122444Y-17140674D02*
X8131967Y-17102579D01*
X8131967Y-17102579D02*
X8141491Y-17083531D01*
X8141491Y-17083531D02*
X8151015Y-17074008D01*
X8151015Y-17074008D02*
X8170063Y-17064484D01*
X8360539Y-17064484D02*
X8379587Y-17064484D01*
X8379587Y-17064484D02*
X8398634Y-17074008D01*
X8398634Y-17074008D02*
X8408158Y-17083531D01*
X8408158Y-17083531D02*
X8417682Y-17102579D01*
X8417682Y-17102579D02*
X8427206Y-17140674D01*
X8427206Y-17140674D02*
X8427206Y-17188293D01*
X8427206Y-17188293D02*
X8417682Y-17226389D01*
X8417682Y-17226389D02*
X8408158Y-17245436D01*
X8408158Y-17245436D02*
X8398634Y-17254960D01*
X8398634Y-17254960D02*
X8379587Y-17264484D01*
X8379587Y-17264484D02*
X8360539Y-17264484D01*
X8360539Y-17264484D02*
X8341491Y-17254960D01*
X8341491Y-17254960D02*
X8331967Y-17245436D01*
X8331967Y-17245436D02*
X8322444Y-17226389D01*
X8322444Y-17226389D02*
X8312920Y-17188293D01*
X8312920Y-17188293D02*
X8312920Y-17140674D01*
X8312920Y-17140674D02*
X8322444Y-17102579D01*
X8322444Y-17102579D02*
X8331967Y-17083531D01*
X8331967Y-17083531D02*
X8341491Y-17074008D01*
X8341491Y-17074008D02*
X8360539Y-17064484D01*
X8512920Y-17264484D02*
X8512920Y-17131150D01*
X8512920Y-17150198D02*
X8522444Y-17140674D01*
X8522444Y-17140674D02*
X8541491Y-17131150D01*
X8541491Y-17131150D02*
X8570063Y-17131150D01*
X8570063Y-17131150D02*
X8589110Y-17140674D01*
X8589110Y-17140674D02*
X8598634Y-17159722D01*
X8598634Y-17159722D02*
X8598634Y-17264484D01*
X8598634Y-17159722D02*
X8608158Y-17140674D01*
X8608158Y-17140674D02*
X8627206Y-17131150D01*
X8627206Y-17131150D02*
X8655777Y-17131150D01*
X8655777Y-17131150D02*
X8674825Y-17140674D01*
X8674825Y-17140674D02*
X8684349Y-17159722D01*
X8684349Y-17159722D02*
X8684349Y-17264484D01*
X8779587Y-17264484D02*
X8779587Y-17131150D01*
X8779587Y-17150198D02*
X8789110Y-17140674D01*
X8789110Y-17140674D02*
X8808158Y-17131150D01*
X8808158Y-17131150D02*
X8836730Y-17131150D01*
X8836730Y-17131150D02*
X8855777Y-17140674D01*
X8855777Y-17140674D02*
X8865301Y-17159722D01*
X8865301Y-17159722D02*
X8865301Y-17264484D01*
X8865301Y-17159722D02*
X8874825Y-17140674D01*
X8874825Y-17140674D02*
X8893872Y-17131150D01*
X8893872Y-17131150D02*
X8922444Y-17131150D01*
X8922444Y-17131150D02*
X8941491Y-17140674D01*
X8941491Y-17140674D02*
X8951015Y-17159722D01*
X8951015Y-17159722D02*
X8951015Y-17264484D01*
X9341491Y-17054960D02*
X9170063Y-17312103D01*
X9598634Y-17064484D02*
X9617682Y-17064484D01*
X9617682Y-17064484D02*
X9636730Y-17074008D01*
X9636730Y-17074008D02*
X9646253Y-17083531D01*
X9646253Y-17083531D02*
X9655777Y-17102579D01*
X9655777Y-17102579D02*
X9665301Y-17140674D01*
X9665301Y-17140674D02*
X9665301Y-17188293D01*
X9665301Y-17188293D02*
X9655777Y-17226389D01*
X9655777Y-17226389D02*
X9646253Y-17245436D01*
X9646253Y-17245436D02*
X9636730Y-17254960D01*
X9636730Y-17254960D02*
X9617682Y-17264484D01*
X9617682Y-17264484D02*
X9598634Y-17264484D01*
X9598634Y-17264484D02*
X9579587Y-17254960D01*
X9579587Y-17254960D02*
X9570063Y-17245436D01*
X9570063Y-17245436D02*
X9560539Y-17226389D01*
X9560539Y-17226389D02*
X9551015Y-17188293D01*
X9551015Y-17188293D02*
X9551015Y-17140674D01*
X9551015Y-17140674D02*
X9560539Y-17102579D01*
X9560539Y-17102579D02*
X9570063Y-17083531D01*
X9570063Y-17083531D02*
X9579587Y-17074008D01*
X9579587Y-17074008D02*
X9598634Y-17064484D01*
X9751015Y-17245436D02*
X9760539Y-17254960D01*
X9760539Y-17254960D02*
X9751015Y-17264484D01*
X9751015Y-17264484D02*
X9741492Y-17254960D01*
X9741492Y-17254960D02*
X9751015Y-17245436D01*
X9751015Y-17245436D02*
X9751015Y-17264484D01*
X9884349Y-17064484D02*
X9903396Y-17064484D01*
X9903396Y-17064484D02*
X9922444Y-17074008D01*
X9922444Y-17074008D02*
X9931968Y-17083531D01*
X9931968Y-17083531D02*
X9941492Y-17102579D01*
X9941492Y-17102579D02*
X9951015Y-17140674D01*
X9951015Y-17140674D02*
X9951015Y-17188293D01*
X9951015Y-17188293D02*
X9941492Y-17226389D01*
X9941492Y-17226389D02*
X9931968Y-17245436D01*
X9931968Y-17245436D02*
X9922444Y-17254960D01*
X9922444Y-17254960D02*
X9903396Y-17264484D01*
X9903396Y-17264484D02*
X9884349Y-17264484D01*
X9884349Y-17264484D02*
X9865301Y-17254960D01*
X9865301Y-17254960D02*
X9855777Y-17245436D01*
X9855777Y-17245436D02*
X9846253Y-17226389D01*
X9846253Y-17226389D02*
X9836730Y-17188293D01*
X9836730Y-17188293D02*
X9836730Y-17140674D01*
X9836730Y-17140674D02*
X9846253Y-17102579D01*
X9846253Y-17102579D02*
X9855777Y-17083531D01*
X9855777Y-17083531D02*
X9865301Y-17074008D01*
X9865301Y-17074008D02*
X9884349Y-17064484D01*
X10017682Y-17064484D02*
X10141492Y-17064484D01*
X10141492Y-17064484D02*
X10074825Y-17140674D01*
X10074825Y-17140674D02*
X10103396Y-17140674D01*
X10103396Y-17140674D02*
X10122444Y-17150198D01*
X10122444Y-17150198D02*
X10131968Y-17159722D01*
X10131968Y-17159722D02*
X10141492Y-17178770D01*
X10141492Y-17178770D02*
X10141492Y-17226389D01*
X10141492Y-17226389D02*
X10131968Y-17245436D01*
X10131968Y-17245436D02*
X10122444Y-17254960D01*
X10122444Y-17254960D02*
X10103396Y-17264484D01*
X10103396Y-17264484D02*
X10046253Y-17264484D01*
X10046253Y-17264484D02*
X10027206Y-17254960D01*
X10027206Y-17254960D02*
X10017682Y-17245436D01*
X10331968Y-17264484D02*
X10217682Y-17264484D01*
X10274825Y-17264484D02*
X10274825Y-17064484D01*
X10274825Y-17064484D02*
X10255777Y-17093055D01*
X10255777Y-17093055D02*
X10236730Y-17112103D01*
X10236730Y-17112103D02*
X10217682Y-17121627D01*
X10512920Y-17064484D02*
X10417682Y-17064484D01*
X10417682Y-17064484D02*
X10408158Y-17159722D01*
X10408158Y-17159722D02*
X10417682Y-17150198D01*
X10417682Y-17150198D02*
X10436730Y-17140674D01*
X10436730Y-17140674D02*
X10484349Y-17140674D01*
X10484349Y-17140674D02*
X10503396Y-17150198D01*
X10503396Y-17150198D02*
X10512920Y-17159722D01*
X10512920Y-17159722D02*
X10522444Y-17178770D01*
X10522444Y-17178770D02*
X10522444Y-17226389D01*
X10522444Y-17226389D02*
X10512920Y-17245436D01*
X10512920Y-17245436D02*
X10503396Y-17254960D01*
X10503396Y-17254960D02*
X10484349Y-17264484D01*
X10484349Y-17264484D02*
X10436730Y-17264484D01*
X10436730Y-17264484D02*
X10417682Y-17254960D01*
X10417682Y-17254960D02*
X10408158Y-17245436D01*
X10598634Y-17064484D02*
X10598634Y-17102579D01*
X10674825Y-17064484D02*
X10674825Y-17102579D01*
X10970063Y-17340674D02*
X10960539Y-17331150D01*
X10960539Y-17331150D02*
X10941492Y-17302579D01*
X10941492Y-17302579D02*
X10931968Y-17283531D01*
X10931968Y-17283531D02*
X10922444Y-17254960D01*
X10922444Y-17254960D02*
X10912920Y-17207341D01*
X10912920Y-17207341D02*
X10912920Y-17169246D01*
X10912920Y-17169246D02*
X10922444Y-17121627D01*
X10922444Y-17121627D02*
X10931968Y-17093055D01*
X10931968Y-17093055D02*
X10941492Y-17074008D01*
X10941492Y-17074008D02*
X10960539Y-17045436D01*
X10960539Y-17045436D02*
X10970063Y-17035912D01*
X11084349Y-17064484D02*
X11103396Y-17064484D01*
X11103396Y-17064484D02*
X11122444Y-17074008D01*
X11122444Y-17074008D02*
X11131968Y-17083531D01*
X11131968Y-17083531D02*
X11141492Y-17102579D01*
X11141492Y-17102579D02*
X11151015Y-17140674D01*
X11151015Y-17140674D02*
X11151015Y-17188293D01*
X11151015Y-17188293D02*
X11141492Y-17226389D01*
X11141492Y-17226389D02*
X11131968Y-17245436D01*
X11131968Y-17245436D02*
X11122444Y-17254960D01*
X11122444Y-17254960D02*
X11103396Y-17264484D01*
X11103396Y-17264484D02*
X11084349Y-17264484D01*
X11084349Y-17264484D02*
X11065301Y-17254960D01*
X11065301Y-17254960D02*
X11055777Y-17245436D01*
X11055777Y-17245436D02*
X11046254Y-17226389D01*
X11046254Y-17226389D02*
X11036730Y-17188293D01*
X11036730Y-17188293D02*
X11036730Y-17140674D01*
X11036730Y-17140674D02*
X11046254Y-17102579D01*
X11046254Y-17102579D02*
X11055777Y-17083531D01*
X11055777Y-17083531D02*
X11065301Y-17074008D01*
X11065301Y-17074008D02*
X11084349Y-17064484D01*
X11389111Y-17264484D02*
X11389111Y-17064484D01*
X11474825Y-17264484D02*
X11474825Y-17159722D01*
X11474825Y-17159722D02*
X11465301Y-17140674D01*
X11465301Y-17140674D02*
X11446254Y-17131150D01*
X11446254Y-17131150D02*
X11417682Y-17131150D01*
X11417682Y-17131150D02*
X11398634Y-17140674D01*
X11398634Y-17140674D02*
X11389111Y-17150198D01*
X11598634Y-17264484D02*
X11579587Y-17254960D01*
X11579587Y-17254960D02*
X11570063Y-17245436D01*
X11570063Y-17245436D02*
X11560539Y-17226389D01*
X11560539Y-17226389D02*
X11560539Y-17169246D01*
X11560539Y-17169246D02*
X11570063Y-17150198D01*
X11570063Y-17150198D02*
X11579587Y-17140674D01*
X11579587Y-17140674D02*
X11598634Y-17131150D01*
X11598634Y-17131150D02*
X11627206Y-17131150D01*
X11627206Y-17131150D02*
X11646254Y-17140674D01*
X11646254Y-17140674D02*
X11655777Y-17150198D01*
X11655777Y-17150198D02*
X11665301Y-17169246D01*
X11665301Y-17169246D02*
X11665301Y-17226389D01*
X11665301Y-17226389D02*
X11655777Y-17245436D01*
X11655777Y-17245436D02*
X11646254Y-17254960D01*
X11646254Y-17254960D02*
X11627206Y-17264484D01*
X11627206Y-17264484D02*
X11598634Y-17264484D01*
X11779587Y-17264484D02*
X11760539Y-17254960D01*
X11760539Y-17254960D02*
X11751015Y-17235912D01*
X11751015Y-17235912D02*
X11751015Y-17064484D01*
X11931968Y-17254960D02*
X11912920Y-17264484D01*
X11912920Y-17264484D02*
X11874825Y-17264484D01*
X11874825Y-17264484D02*
X11855777Y-17254960D01*
X11855777Y-17254960D02*
X11846254Y-17235912D01*
X11846254Y-17235912D02*
X11846254Y-17159722D01*
X11846254Y-17159722D02*
X11855777Y-17140674D01*
X11855777Y-17140674D02*
X11874825Y-17131150D01*
X11874825Y-17131150D02*
X11912920Y-17131150D01*
X11912920Y-17131150D02*
X11931968Y-17140674D01*
X11931968Y-17140674D02*
X11941492Y-17159722D01*
X11941492Y-17159722D02*
X11941492Y-17178770D01*
X11941492Y-17178770D02*
X11846254Y-17197817D01*
X12017682Y-17254960D02*
X12036730Y-17264484D01*
X12036730Y-17264484D02*
X12074825Y-17264484D01*
X12074825Y-17264484D02*
X12093873Y-17254960D01*
X12093873Y-17254960D02*
X12103396Y-17235912D01*
X12103396Y-17235912D02*
X12103396Y-17226389D01*
X12103396Y-17226389D02*
X12093873Y-17207341D01*
X12093873Y-17207341D02*
X12074825Y-17197817D01*
X12074825Y-17197817D02*
X12046254Y-17197817D01*
X12046254Y-17197817D02*
X12027206Y-17188293D01*
X12027206Y-17188293D02*
X12017682Y-17169246D01*
X12017682Y-17169246D02*
X12017682Y-17159722D01*
X12017682Y-17159722D02*
X12027206Y-17140674D01*
X12027206Y-17140674D02*
X12046254Y-17131150D01*
X12046254Y-17131150D02*
X12074825Y-17131150D01*
X12074825Y-17131150D02*
X12093873Y-17140674D01*
X12341492Y-17188293D02*
X12493873Y-17188293D01*
X12417682Y-17264484D02*
X12417682Y-17112103D01*
X12827206Y-17131150D02*
X12827206Y-17264484D01*
X12779587Y-17054960D02*
X12731968Y-17197817D01*
X12731968Y-17197817D02*
X12855777Y-17197817D01*
X13074825Y-17254960D02*
X13093873Y-17264484D01*
X13093873Y-17264484D02*
X13131968Y-17264484D01*
X13131968Y-17264484D02*
X13151016Y-17254960D01*
X13151016Y-17254960D02*
X13160539Y-17235912D01*
X13160539Y-17235912D02*
X13160539Y-17226389D01*
X13160539Y-17226389D02*
X13151016Y-17207341D01*
X13151016Y-17207341D02*
X13131968Y-17197817D01*
X13131968Y-17197817D02*
X13103397Y-17197817D01*
X13103397Y-17197817D02*
X13084349Y-17188293D01*
X13084349Y-17188293D02*
X13074825Y-17169246D01*
X13074825Y-17169246D02*
X13074825Y-17159722D01*
X13074825Y-17159722D02*
X13084349Y-17140674D01*
X13084349Y-17140674D02*
X13103397Y-17131150D01*
X13103397Y-17131150D02*
X13131968Y-17131150D01*
X13131968Y-17131150D02*
X13151016Y-17140674D01*
X13274825Y-17264484D02*
X13255778Y-17254960D01*
X13255778Y-17254960D02*
X13246254Y-17235912D01*
X13246254Y-17235912D02*
X13246254Y-17064484D01*
X13379587Y-17264484D02*
X13360539Y-17254960D01*
X13360539Y-17254960D02*
X13351016Y-17245436D01*
X13351016Y-17245436D02*
X13341492Y-17226389D01*
X13341492Y-17226389D02*
X13341492Y-17169246D01*
X13341492Y-17169246D02*
X13351016Y-17150198D01*
X13351016Y-17150198D02*
X13360539Y-17140674D01*
X13360539Y-17140674D02*
X13379587Y-17131150D01*
X13379587Y-17131150D02*
X13408159Y-17131150D01*
X13408159Y-17131150D02*
X13427206Y-17140674D01*
X13427206Y-17140674D02*
X13436730Y-17150198D01*
X13436730Y-17150198D02*
X13446254Y-17169246D01*
X13446254Y-17169246D02*
X13446254Y-17226389D01*
X13446254Y-17226389D02*
X13436730Y-17245436D01*
X13436730Y-17245436D02*
X13427206Y-17254960D01*
X13427206Y-17254960D02*
X13408159Y-17264484D01*
X13408159Y-17264484D02*
X13379587Y-17264484D01*
X13503397Y-17131150D02*
X13579587Y-17131150D01*
X13531968Y-17064484D02*
X13531968Y-17235912D01*
X13531968Y-17235912D02*
X13541492Y-17254960D01*
X13541492Y-17254960D02*
X13560539Y-17264484D01*
X13560539Y-17264484D02*
X13579587Y-17264484D01*
X13636730Y-17254960D02*
X13655778Y-17264484D01*
X13655778Y-17264484D02*
X13693873Y-17264484D01*
X13693873Y-17264484D02*
X13712920Y-17254960D01*
X13712920Y-17254960D02*
X13722444Y-17235912D01*
X13722444Y-17235912D02*
X13722444Y-17226389D01*
X13722444Y-17226389D02*
X13712920Y-17207341D01*
X13712920Y-17207341D02*
X13693873Y-17197817D01*
X13693873Y-17197817D02*
X13665301Y-17197817D01*
X13665301Y-17197817D02*
X13646254Y-17188293D01*
X13646254Y-17188293D02*
X13636730Y-17169246D01*
X13636730Y-17169246D02*
X13636730Y-17159722D01*
X13636730Y-17159722D02*
X13646254Y-17140674D01*
X13646254Y-17140674D02*
X13665301Y-17131150D01*
X13665301Y-17131150D02*
X13693873Y-17131150D01*
X13693873Y-17131150D02*
X13712920Y-17140674D01*
X13789111Y-17340674D02*
X13798635Y-17331150D01*
X13798635Y-17331150D02*
X13817682Y-17302579D01*
X13817682Y-17302579D02*
X13827206Y-17283531D01*
X13827206Y-17283531D02*
X13836730Y-17254960D01*
X13836730Y-17254960D02*
X13846254Y-17207341D01*
X13846254Y-17207341D02*
X13846254Y-17169246D01*
X13846254Y-17169246D02*
X13836730Y-17121627D01*
X13836730Y-17121627D02*
X13827206Y-17093055D01*
X13827206Y-17093055D02*
X13817682Y-17074008D01*
X13817682Y-17074008D02*
X13798635Y-17045436D01*
X13798635Y-17045436D02*
X13789111Y-17035912D01*
D10*
X7380356Y-17472356D02*
X7380356Y-17401644D01*
X7309644Y-17401644D01*
X7309644Y-17472356D01*
X7380356Y-17472356D01*
D11*
X7760539Y-17528484D02*
X7646253Y-17528484D01*
X7703396Y-17528484D02*
X7703396Y-17328484D01*
X7703396Y-17328484D02*
X7684348Y-17357055D01*
X7684348Y-17357055D02*
X7665301Y-17376103D01*
X7665301Y-17376103D02*
X7646253Y-17385627D01*
X7846253Y-17509436D02*
X7855777Y-17518960D01*
X7855777Y-17518960D02*
X7846253Y-17528484D01*
X7846253Y-17528484D02*
X7836729Y-17518960D01*
X7836729Y-17518960D02*
X7846253Y-17509436D01*
X7846253Y-17509436D02*
X7846253Y-17528484D01*
X7979586Y-17328484D02*
X7998634Y-17328484D01*
X7998634Y-17328484D02*
X8017682Y-17338008D01*
X8017682Y-17338008D02*
X8027206Y-17347531D01*
X8027206Y-17347531D02*
X8036729Y-17366579D01*
X8036729Y-17366579D02*
X8046253Y-17404674D01*
X8046253Y-17404674D02*
X8046253Y-17452293D01*
X8046253Y-17452293D02*
X8036729Y-17490389D01*
X8036729Y-17490389D02*
X8027206Y-17509436D01*
X8027206Y-17509436D02*
X8017682Y-17518960D01*
X8017682Y-17518960D02*
X7998634Y-17528484D01*
X7998634Y-17528484D02*
X7979586Y-17528484D01*
X7979586Y-17528484D02*
X7960539Y-17518960D01*
X7960539Y-17518960D02*
X7951015Y-17509436D01*
X7951015Y-17509436D02*
X7941491Y-17490389D01*
X7941491Y-17490389D02*
X7931967Y-17452293D01*
X7931967Y-17452293D02*
X7931967Y-17404674D01*
X7931967Y-17404674D02*
X7941491Y-17366579D01*
X7941491Y-17366579D02*
X7951015Y-17347531D01*
X7951015Y-17347531D02*
X7960539Y-17338008D01*
X7960539Y-17338008D02*
X7979586Y-17328484D01*
X8170063Y-17328484D02*
X8189110Y-17328484D01*
X8189110Y-17328484D02*
X8208158Y-17338008D01*
X8208158Y-17338008D02*
X8217682Y-17347531D01*
X8217682Y-17347531D02*
X8227206Y-17366579D01*
X8227206Y-17366579D02*
X8236729Y-17404674D01*
X8236729Y-17404674D02*
X8236729Y-17452293D01*
X8236729Y-17452293D02*
X8227206Y-17490389D01*
X8227206Y-17490389D02*
X8217682Y-17509436D01*
X8217682Y-17509436D02*
X8208158Y-17518960D01*
X8208158Y-17518960D02*
X8189110Y-17528484D01*
X8189110Y-17528484D02*
X8170063Y-17528484D01*
X8170063Y-17528484D02*
X8151015Y-17518960D01*
X8151015Y-17518960D02*
X8141491Y-17509436D01*
X8141491Y-17509436D02*
X8131967Y-17490389D01*
X8131967Y-17490389D02*
X8122444Y-17452293D01*
X8122444Y-17452293D02*
X8122444Y-17404674D01*
X8122444Y-17404674D02*
X8131967Y-17366579D01*
X8131967Y-17366579D02*
X8141491Y-17347531D01*
X8141491Y-17347531D02*
X8151015Y-17338008D01*
X8151015Y-17338008D02*
X8170063Y-17328484D01*
X8360539Y-17328484D02*
X8379587Y-17328484D01*
X8379587Y-17328484D02*
X8398634Y-17338008D01*
X8398634Y-17338008D02*
X8408158Y-17347531D01*
X8408158Y-17347531D02*
X8417682Y-17366579D01*
X8417682Y-17366579D02*
X8427206Y-17404674D01*
X8427206Y-17404674D02*
X8427206Y-17452293D01*
X8427206Y-17452293D02*
X8417682Y-17490389D01*
X8417682Y-17490389D02*
X8408158Y-17509436D01*
X8408158Y-17509436D02*
X8398634Y-17518960D01*
X8398634Y-17518960D02*
X8379587Y-17528484D01*
X8379587Y-17528484D02*
X8360539Y-17528484D01*
X8360539Y-17528484D02*
X8341491Y-17518960D01*
X8341491Y-17518960D02*
X8331967Y-17509436D01*
X8331967Y-17509436D02*
X8322444Y-17490389D01*
X8322444Y-17490389D02*
X8312920Y-17452293D01*
X8312920Y-17452293D02*
X8312920Y-17404674D01*
X8312920Y-17404674D02*
X8322444Y-17366579D01*
X8322444Y-17366579D02*
X8331967Y-17347531D01*
X8331967Y-17347531D02*
X8341491Y-17338008D01*
X8341491Y-17338008D02*
X8360539Y-17328484D01*
X8512920Y-17528484D02*
X8512920Y-17395150D01*
X8512920Y-17414198D02*
X8522444Y-17404674D01*
X8522444Y-17404674D02*
X8541491Y-17395150D01*
X8541491Y-17395150D02*
X8570063Y-17395150D01*
X8570063Y-17395150D02*
X8589110Y-17404674D01*
X8589110Y-17404674D02*
X8598634Y-17423722D01*
X8598634Y-17423722D02*
X8598634Y-17528484D01*
X8598634Y-17423722D02*
X8608158Y-17404674D01*
X8608158Y-17404674D02*
X8627206Y-17395150D01*
X8627206Y-17395150D02*
X8655777Y-17395150D01*
X8655777Y-17395150D02*
X8674825Y-17404674D01*
X8674825Y-17404674D02*
X8684349Y-17423722D01*
X8684349Y-17423722D02*
X8684349Y-17528484D01*
X8779587Y-17528484D02*
X8779587Y-17395150D01*
X8779587Y-17414198D02*
X8789110Y-17404674D01*
X8789110Y-17404674D02*
X8808158Y-17395150D01*
X8808158Y-17395150D02*
X8836730Y-17395150D01*
X8836730Y-17395150D02*
X8855777Y-17404674D01*
X8855777Y-17404674D02*
X8865301Y-17423722D01*
X8865301Y-17423722D02*
X8865301Y-17528484D01*
X8865301Y-17423722D02*
X8874825Y-17404674D01*
X8874825Y-17404674D02*
X8893872Y-17395150D01*
X8893872Y-17395150D02*
X8922444Y-17395150D01*
X8922444Y-17395150D02*
X8941491Y-17404674D01*
X8941491Y-17404674D02*
X8951015Y-17423722D01*
X8951015Y-17423722D02*
X8951015Y-17528484D01*
X9341491Y-17318960D02*
X9170063Y-17576103D01*
X9598634Y-17328484D02*
X9617682Y-17328484D01*
X9617682Y-17328484D02*
X9636730Y-17338008D01*
X9636730Y-17338008D02*
X9646253Y-17347531D01*
X9646253Y-17347531D02*
X9655777Y-17366579D01*
X9655777Y-17366579D02*
X9665301Y-17404674D01*
X9665301Y-17404674D02*
X9665301Y-17452293D01*
X9665301Y-17452293D02*
X9655777Y-17490389D01*
X9655777Y-17490389D02*
X9646253Y-17509436D01*
X9646253Y-17509436D02*
X9636730Y-17518960D01*
X9636730Y-17518960D02*
X9617682Y-17528484D01*
X9617682Y-17528484D02*
X9598634Y-17528484D01*
X9598634Y-17528484D02*
X9579587Y-17518960D01*
X9579587Y-17518960D02*
X9570063Y-17509436D01*
X9570063Y-17509436D02*
X9560539Y-17490389D01*
X9560539Y-17490389D02*
X9551015Y-17452293D01*
X9551015Y-17452293D02*
X9551015Y-17404674D01*
X9551015Y-17404674D02*
X9560539Y-17366579D01*
X9560539Y-17366579D02*
X9570063Y-17347531D01*
X9570063Y-17347531D02*
X9579587Y-17338008D01*
X9579587Y-17338008D02*
X9598634Y-17328484D01*
X9751015Y-17509436D02*
X9760539Y-17518960D01*
X9760539Y-17518960D02*
X9751015Y-17528484D01*
X9751015Y-17528484D02*
X9741492Y-17518960D01*
X9741492Y-17518960D02*
X9751015Y-17509436D01*
X9751015Y-17509436D02*
X9751015Y-17528484D01*
X9884349Y-17328484D02*
X9903396Y-17328484D01*
X9903396Y-17328484D02*
X9922444Y-17338008D01*
X9922444Y-17338008D02*
X9931968Y-17347531D01*
X9931968Y-17347531D02*
X9941492Y-17366579D01*
X9941492Y-17366579D02*
X9951015Y-17404674D01*
X9951015Y-17404674D02*
X9951015Y-17452293D01*
X9951015Y-17452293D02*
X9941492Y-17490389D01*
X9941492Y-17490389D02*
X9931968Y-17509436D01*
X9931968Y-17509436D02*
X9922444Y-17518960D01*
X9922444Y-17518960D02*
X9903396Y-17528484D01*
X9903396Y-17528484D02*
X9884349Y-17528484D01*
X9884349Y-17528484D02*
X9865301Y-17518960D01*
X9865301Y-17518960D02*
X9855777Y-17509436D01*
X9855777Y-17509436D02*
X9846253Y-17490389D01*
X9846253Y-17490389D02*
X9836730Y-17452293D01*
X9836730Y-17452293D02*
X9836730Y-17404674D01*
X9836730Y-17404674D02*
X9846253Y-17366579D01*
X9846253Y-17366579D02*
X9855777Y-17347531D01*
X9855777Y-17347531D02*
X9865301Y-17338008D01*
X9865301Y-17338008D02*
X9884349Y-17328484D01*
X10017682Y-17328484D02*
X10141492Y-17328484D01*
X10141492Y-17328484D02*
X10074825Y-17404674D01*
X10074825Y-17404674D02*
X10103396Y-17404674D01*
X10103396Y-17404674D02*
X10122444Y-17414198D01*
X10122444Y-17414198D02*
X10131968Y-17423722D01*
X10131968Y-17423722D02*
X10141492Y-17442770D01*
X10141492Y-17442770D02*
X10141492Y-17490389D01*
X10141492Y-17490389D02*
X10131968Y-17509436D01*
X10131968Y-17509436D02*
X10122444Y-17518960D01*
X10122444Y-17518960D02*
X10103396Y-17528484D01*
X10103396Y-17528484D02*
X10046253Y-17528484D01*
X10046253Y-17528484D02*
X10027206Y-17518960D01*
X10027206Y-17518960D02*
X10017682Y-17509436D01*
X10236730Y-17528484D02*
X10274825Y-17528484D01*
X10274825Y-17528484D02*
X10293873Y-17518960D01*
X10293873Y-17518960D02*
X10303396Y-17509436D01*
X10303396Y-17509436D02*
X10322444Y-17480865D01*
X10322444Y-17480865D02*
X10331968Y-17442770D01*
X10331968Y-17442770D02*
X10331968Y-17366579D01*
X10331968Y-17366579D02*
X10322444Y-17347531D01*
X10322444Y-17347531D02*
X10312920Y-17338008D01*
X10312920Y-17338008D02*
X10293873Y-17328484D01*
X10293873Y-17328484D02*
X10255777Y-17328484D01*
X10255777Y-17328484D02*
X10236730Y-17338008D01*
X10236730Y-17338008D02*
X10227206Y-17347531D01*
X10227206Y-17347531D02*
X10217682Y-17366579D01*
X10217682Y-17366579D02*
X10217682Y-17414198D01*
X10217682Y-17414198D02*
X10227206Y-17433246D01*
X10227206Y-17433246D02*
X10236730Y-17442770D01*
X10236730Y-17442770D02*
X10255777Y-17452293D01*
X10255777Y-17452293D02*
X10293873Y-17452293D01*
X10293873Y-17452293D02*
X10312920Y-17442770D01*
X10312920Y-17442770D02*
X10322444Y-17433246D01*
X10322444Y-17433246D02*
X10331968Y-17414198D01*
X10503396Y-17395150D02*
X10503396Y-17528484D01*
X10455777Y-17318960D02*
X10408158Y-17461817D01*
X10408158Y-17461817D02*
X10531968Y-17461817D01*
X10598634Y-17328484D02*
X10598634Y-17366579D01*
X10674825Y-17328484D02*
X10674825Y-17366579D01*
X10970063Y-17604674D02*
X10960539Y-17595150D01*
X10960539Y-17595150D02*
X10941492Y-17566579D01*
X10941492Y-17566579D02*
X10931968Y-17547531D01*
X10931968Y-17547531D02*
X10922444Y-17518960D01*
X10922444Y-17518960D02*
X10912920Y-17471341D01*
X10912920Y-17471341D02*
X10912920Y-17433246D01*
X10912920Y-17433246D02*
X10922444Y-17385627D01*
X10922444Y-17385627D02*
X10931968Y-17357055D01*
X10931968Y-17357055D02*
X10941492Y-17338008D01*
X10941492Y-17338008D02*
X10960539Y-17309436D01*
X10960539Y-17309436D02*
X10970063Y-17299912D01*
X11151015Y-17528484D02*
X11036730Y-17528484D01*
X11093873Y-17528484D02*
X11093873Y-17328484D01*
X11093873Y-17328484D02*
X11074825Y-17357055D01*
X11074825Y-17357055D02*
X11055777Y-17376103D01*
X11055777Y-17376103D02*
X11036730Y-17385627D01*
X11227206Y-17347531D02*
X11236730Y-17338008D01*
X11236730Y-17338008D02*
X11255777Y-17328484D01*
X11255777Y-17328484D02*
X11303396Y-17328484D01*
X11303396Y-17328484D02*
X11322444Y-17338008D01*
X11322444Y-17338008D02*
X11331968Y-17347531D01*
X11331968Y-17347531D02*
X11341492Y-17366579D01*
X11341492Y-17366579D02*
X11341492Y-17385627D01*
X11341492Y-17385627D02*
X11331968Y-17414198D01*
X11331968Y-17414198D02*
X11217682Y-17528484D01*
X11217682Y-17528484D02*
X11341492Y-17528484D01*
X11579587Y-17528484D02*
X11579587Y-17328484D01*
X11665301Y-17528484D02*
X11665301Y-17423722D01*
X11665301Y-17423722D02*
X11655777Y-17404674D01*
X11655777Y-17404674D02*
X11636730Y-17395150D01*
X11636730Y-17395150D02*
X11608158Y-17395150D01*
X11608158Y-17395150D02*
X11589111Y-17404674D01*
X11589111Y-17404674D02*
X11579587Y-17414198D01*
X11789111Y-17528484D02*
X11770063Y-17518960D01*
X11770063Y-17518960D02*
X11760539Y-17509436D01*
X11760539Y-17509436D02*
X11751015Y-17490389D01*
X11751015Y-17490389D02*
X11751015Y-17433246D01*
X11751015Y-17433246D02*
X11760539Y-17414198D01*
X11760539Y-17414198D02*
X11770063Y-17404674D01*
X11770063Y-17404674D02*
X11789111Y-17395150D01*
X11789111Y-17395150D02*
X11817682Y-17395150D01*
X11817682Y-17395150D02*
X11836730Y-17404674D01*
X11836730Y-17404674D02*
X11846254Y-17414198D01*
X11846254Y-17414198D02*
X11855777Y-17433246D01*
X11855777Y-17433246D02*
X11855777Y-17490389D01*
X11855777Y-17490389D02*
X11846254Y-17509436D01*
X11846254Y-17509436D02*
X11836730Y-17518960D01*
X11836730Y-17518960D02*
X11817682Y-17528484D01*
X11817682Y-17528484D02*
X11789111Y-17528484D01*
X11970063Y-17528484D02*
X11951015Y-17518960D01*
X11951015Y-17518960D02*
X11941492Y-17499912D01*
X11941492Y-17499912D02*
X11941492Y-17328484D01*
X12122444Y-17518960D02*
X12103396Y-17528484D01*
X12103396Y-17528484D02*
X12065301Y-17528484D01*
X12065301Y-17528484D02*
X12046254Y-17518960D01*
X12046254Y-17518960D02*
X12036730Y-17499912D01*
X12036730Y-17499912D02*
X12036730Y-17423722D01*
X12036730Y-17423722D02*
X12046254Y-17404674D01*
X12046254Y-17404674D02*
X12065301Y-17395150D01*
X12065301Y-17395150D02*
X12103396Y-17395150D01*
X12103396Y-17395150D02*
X12122444Y-17404674D01*
X12122444Y-17404674D02*
X12131968Y-17423722D01*
X12131968Y-17423722D02*
X12131968Y-17442770D01*
X12131968Y-17442770D02*
X12036730Y-17461817D01*
X12208158Y-17518960D02*
X12227206Y-17528484D01*
X12227206Y-17528484D02*
X12265301Y-17528484D01*
X12265301Y-17528484D02*
X12284349Y-17518960D01*
X12284349Y-17518960D02*
X12293873Y-17499912D01*
X12293873Y-17499912D02*
X12293873Y-17490389D01*
X12293873Y-17490389D02*
X12284349Y-17471341D01*
X12284349Y-17471341D02*
X12265301Y-17461817D01*
X12265301Y-17461817D02*
X12236730Y-17461817D01*
X12236730Y-17461817D02*
X12217682Y-17452293D01*
X12217682Y-17452293D02*
X12208158Y-17433246D01*
X12208158Y-17433246D02*
X12208158Y-17423722D01*
X12208158Y-17423722D02*
X12217682Y-17404674D01*
X12217682Y-17404674D02*
X12236730Y-17395150D01*
X12236730Y-17395150D02*
X12265301Y-17395150D01*
X12265301Y-17395150D02*
X12284349Y-17404674D01*
X12360539Y-17604674D02*
X12370063Y-17595150D01*
X12370063Y-17595150D02*
X12389111Y-17566579D01*
X12389111Y-17566579D02*
X12398635Y-17547531D01*
X12398635Y-17547531D02*
X12408158Y-17518960D01*
X12408158Y-17518960D02*
X12417682Y-17471341D01*
X12417682Y-17471341D02*
X12417682Y-17433246D01*
X12417682Y-17433246D02*
X12408158Y-17385627D01*
X12408158Y-17385627D02*
X12398635Y-17357055D01*
X12398635Y-17357055D02*
X12389111Y-17338008D01*
X12389111Y-17338008D02*
X12370063Y-17309436D01*
X12370063Y-17309436D02*
X12360539Y-17299912D01*
D12*
X7307500Y-17788500D02*
X7395000Y-17701000D01*
X7307500Y-17613500D01*
X7220000Y-17701000D01*
X7307500Y-17788500D01*
D11*
X7760539Y-17792484D02*
X7646253Y-17792484D01*
X7703396Y-17792484D02*
X7703396Y-17592484D01*
X7703396Y-17592484D02*
X7684348Y-17621055D01*
X7684348Y-17621055D02*
X7665301Y-17640103D01*
X7665301Y-17640103D02*
X7646253Y-17649627D01*
X7846253Y-17773436D02*
X7855777Y-17782960D01*
X7855777Y-17782960D02*
X7846253Y-17792484D01*
X7846253Y-17792484D02*
X7836729Y-17782960D01*
X7836729Y-17782960D02*
X7846253Y-17773436D01*
X7846253Y-17773436D02*
X7846253Y-17792484D01*
X7922444Y-17592484D02*
X8055777Y-17592484D01*
X8055777Y-17592484D02*
X7970063Y-17792484D01*
X8227206Y-17592484D02*
X8131967Y-17592484D01*
X8131967Y-17592484D02*
X8122444Y-17687722D01*
X8122444Y-17687722D02*
X8131967Y-17678198D01*
X8131967Y-17678198D02*
X8151015Y-17668674D01*
X8151015Y-17668674D02*
X8198634Y-17668674D01*
X8198634Y-17668674D02*
X8217682Y-17678198D01*
X8217682Y-17678198D02*
X8227206Y-17687722D01*
X8227206Y-17687722D02*
X8236729Y-17706770D01*
X8236729Y-17706770D02*
X8236729Y-17754389D01*
X8236729Y-17754389D02*
X8227206Y-17773436D01*
X8227206Y-17773436D02*
X8217682Y-17782960D01*
X8217682Y-17782960D02*
X8198634Y-17792484D01*
X8198634Y-17792484D02*
X8151015Y-17792484D01*
X8151015Y-17792484D02*
X8131967Y-17782960D01*
X8131967Y-17782960D02*
X8122444Y-17773436D01*
X8360539Y-17592484D02*
X8379587Y-17592484D01*
X8379587Y-17592484D02*
X8398634Y-17602008D01*
X8398634Y-17602008D02*
X8408158Y-17611531D01*
X8408158Y-17611531D02*
X8417682Y-17630579D01*
X8417682Y-17630579D02*
X8427206Y-17668674D01*
X8427206Y-17668674D02*
X8427206Y-17716293D01*
X8427206Y-17716293D02*
X8417682Y-17754389D01*
X8417682Y-17754389D02*
X8408158Y-17773436D01*
X8408158Y-17773436D02*
X8398634Y-17782960D01*
X8398634Y-17782960D02*
X8379587Y-17792484D01*
X8379587Y-17792484D02*
X8360539Y-17792484D01*
X8360539Y-17792484D02*
X8341491Y-17782960D01*
X8341491Y-17782960D02*
X8331967Y-17773436D01*
X8331967Y-17773436D02*
X8322444Y-17754389D01*
X8322444Y-17754389D02*
X8312920Y-17716293D01*
X8312920Y-17716293D02*
X8312920Y-17668674D01*
X8312920Y-17668674D02*
X8322444Y-17630579D01*
X8322444Y-17630579D02*
X8331967Y-17611531D01*
X8331967Y-17611531D02*
X8341491Y-17602008D01*
X8341491Y-17602008D02*
X8360539Y-17592484D01*
X8512920Y-17792484D02*
X8512920Y-17659150D01*
X8512920Y-17678198D02*
X8522444Y-17668674D01*
X8522444Y-17668674D02*
X8541491Y-17659150D01*
X8541491Y-17659150D02*
X8570063Y-17659150D01*
X8570063Y-17659150D02*
X8589110Y-17668674D01*
X8589110Y-17668674D02*
X8598634Y-17687722D01*
X8598634Y-17687722D02*
X8598634Y-17792484D01*
X8598634Y-17687722D02*
X8608158Y-17668674D01*
X8608158Y-17668674D02*
X8627206Y-17659150D01*
X8627206Y-17659150D02*
X8655777Y-17659150D01*
X8655777Y-17659150D02*
X8674825Y-17668674D01*
X8674825Y-17668674D02*
X8684349Y-17687722D01*
X8684349Y-17687722D02*
X8684349Y-17792484D01*
X8779587Y-17792484D02*
X8779587Y-17659150D01*
X8779587Y-17678198D02*
X8789110Y-17668674D01*
X8789110Y-17668674D02*
X8808158Y-17659150D01*
X8808158Y-17659150D02*
X8836730Y-17659150D01*
X8836730Y-17659150D02*
X8855777Y-17668674D01*
X8855777Y-17668674D02*
X8865301Y-17687722D01*
X8865301Y-17687722D02*
X8865301Y-17792484D01*
X8865301Y-17687722D02*
X8874825Y-17668674D01*
X8874825Y-17668674D02*
X8893872Y-17659150D01*
X8893872Y-17659150D02*
X8922444Y-17659150D01*
X8922444Y-17659150D02*
X8941491Y-17668674D01*
X8941491Y-17668674D02*
X8951015Y-17687722D01*
X8951015Y-17687722D02*
X8951015Y-17792484D01*
X9341491Y-17582960D02*
X9170063Y-17840103D01*
X9598634Y-17592484D02*
X9617682Y-17592484D01*
X9617682Y-17592484D02*
X9636730Y-17602008D01*
X9636730Y-17602008D02*
X9646253Y-17611531D01*
X9646253Y-17611531D02*
X9655777Y-17630579D01*
X9655777Y-17630579D02*
X9665301Y-17668674D01*
X9665301Y-17668674D02*
X9665301Y-17716293D01*
X9665301Y-17716293D02*
X9655777Y-17754389D01*
X9655777Y-17754389D02*
X9646253Y-17773436D01*
X9646253Y-17773436D02*
X9636730Y-17782960D01*
X9636730Y-17782960D02*
X9617682Y-17792484D01*
X9617682Y-17792484D02*
X9598634Y-17792484D01*
X9598634Y-17792484D02*
X9579587Y-17782960D01*
X9579587Y-17782960D02*
X9570063Y-17773436D01*
X9570063Y-17773436D02*
X9560539Y-17754389D01*
X9560539Y-17754389D02*
X9551015Y-17716293D01*
X9551015Y-17716293D02*
X9551015Y-17668674D01*
X9551015Y-17668674D02*
X9560539Y-17630579D01*
X9560539Y-17630579D02*
X9570063Y-17611531D01*
X9570063Y-17611531D02*
X9579587Y-17602008D01*
X9579587Y-17602008D02*
X9598634Y-17592484D01*
X9751015Y-17773436D02*
X9760539Y-17782960D01*
X9760539Y-17782960D02*
X9751015Y-17792484D01*
X9751015Y-17792484D02*
X9741492Y-17782960D01*
X9741492Y-17782960D02*
X9751015Y-17773436D01*
X9751015Y-17773436D02*
X9751015Y-17792484D01*
X9884349Y-17592484D02*
X9903396Y-17592484D01*
X9903396Y-17592484D02*
X9922444Y-17602008D01*
X9922444Y-17602008D02*
X9931968Y-17611531D01*
X9931968Y-17611531D02*
X9941492Y-17630579D01*
X9941492Y-17630579D02*
X9951015Y-17668674D01*
X9951015Y-17668674D02*
X9951015Y-17716293D01*
X9951015Y-17716293D02*
X9941492Y-17754389D01*
X9941492Y-17754389D02*
X9931968Y-17773436D01*
X9931968Y-17773436D02*
X9922444Y-17782960D01*
X9922444Y-17782960D02*
X9903396Y-17792484D01*
X9903396Y-17792484D02*
X9884349Y-17792484D01*
X9884349Y-17792484D02*
X9865301Y-17782960D01*
X9865301Y-17782960D02*
X9855777Y-17773436D01*
X9855777Y-17773436D02*
X9846253Y-17754389D01*
X9846253Y-17754389D02*
X9836730Y-17716293D01*
X9836730Y-17716293D02*
X9836730Y-17668674D01*
X9836730Y-17668674D02*
X9846253Y-17630579D01*
X9846253Y-17630579D02*
X9855777Y-17611531D01*
X9855777Y-17611531D02*
X9865301Y-17602008D01*
X9865301Y-17602008D02*
X9884349Y-17592484D01*
X10122444Y-17592484D02*
X10084349Y-17592484D01*
X10084349Y-17592484D02*
X10065301Y-17602008D01*
X10065301Y-17602008D02*
X10055777Y-17611531D01*
X10055777Y-17611531D02*
X10036730Y-17640103D01*
X10036730Y-17640103D02*
X10027206Y-17678198D01*
X10027206Y-17678198D02*
X10027206Y-17754389D01*
X10027206Y-17754389D02*
X10036730Y-17773436D01*
X10036730Y-17773436D02*
X10046253Y-17782960D01*
X10046253Y-17782960D02*
X10065301Y-17792484D01*
X10065301Y-17792484D02*
X10103396Y-17792484D01*
X10103396Y-17792484D02*
X10122444Y-17782960D01*
X10122444Y-17782960D02*
X10131968Y-17773436D01*
X10131968Y-17773436D02*
X10141492Y-17754389D01*
X10141492Y-17754389D02*
X10141492Y-17706770D01*
X10141492Y-17706770D02*
X10131968Y-17687722D01*
X10131968Y-17687722D02*
X10122444Y-17678198D01*
X10122444Y-17678198D02*
X10103396Y-17668674D01*
X10103396Y-17668674D02*
X10065301Y-17668674D01*
X10065301Y-17668674D02*
X10046253Y-17678198D01*
X10046253Y-17678198D02*
X10036730Y-17687722D01*
X10036730Y-17687722D02*
X10027206Y-17706770D01*
X10255777Y-17678198D02*
X10236730Y-17668674D01*
X10236730Y-17668674D02*
X10227206Y-17659150D01*
X10227206Y-17659150D02*
X10217682Y-17640103D01*
X10217682Y-17640103D02*
X10217682Y-17630579D01*
X10217682Y-17630579D02*
X10227206Y-17611531D01*
X10227206Y-17611531D02*
X10236730Y-17602008D01*
X10236730Y-17602008D02*
X10255777Y-17592484D01*
X10255777Y-17592484D02*
X10293873Y-17592484D01*
X10293873Y-17592484D02*
X10312920Y-17602008D01*
X10312920Y-17602008D02*
X10322444Y-17611531D01*
X10322444Y-17611531D02*
X10331968Y-17630579D01*
X10331968Y-17630579D02*
X10331968Y-17640103D01*
X10331968Y-17640103D02*
X10322444Y-17659150D01*
X10322444Y-17659150D02*
X10312920Y-17668674D01*
X10312920Y-17668674D02*
X10293873Y-17678198D01*
X10293873Y-17678198D02*
X10255777Y-17678198D01*
X10255777Y-17678198D02*
X10236730Y-17687722D01*
X10236730Y-17687722D02*
X10227206Y-17697246D01*
X10227206Y-17697246D02*
X10217682Y-17716293D01*
X10217682Y-17716293D02*
X10217682Y-17754389D01*
X10217682Y-17754389D02*
X10227206Y-17773436D01*
X10227206Y-17773436D02*
X10236730Y-17782960D01*
X10236730Y-17782960D02*
X10255777Y-17792484D01*
X10255777Y-17792484D02*
X10293873Y-17792484D01*
X10293873Y-17792484D02*
X10312920Y-17782960D01*
X10312920Y-17782960D02*
X10322444Y-17773436D01*
X10322444Y-17773436D02*
X10331968Y-17754389D01*
X10331968Y-17754389D02*
X10331968Y-17716293D01*
X10331968Y-17716293D02*
X10322444Y-17697246D01*
X10322444Y-17697246D02*
X10312920Y-17687722D01*
X10312920Y-17687722D02*
X10293873Y-17678198D01*
X10427206Y-17792484D02*
X10465301Y-17792484D01*
X10465301Y-17792484D02*
X10484349Y-17782960D01*
X10484349Y-17782960D02*
X10493873Y-17773436D01*
X10493873Y-17773436D02*
X10512920Y-17744865D01*
X10512920Y-17744865D02*
X10522444Y-17706770D01*
X10522444Y-17706770D02*
X10522444Y-17630579D01*
X10522444Y-17630579D02*
X10512920Y-17611531D01*
X10512920Y-17611531D02*
X10503396Y-17602008D01*
X10503396Y-17602008D02*
X10484349Y-17592484D01*
X10484349Y-17592484D02*
X10446253Y-17592484D01*
X10446253Y-17592484D02*
X10427206Y-17602008D01*
X10427206Y-17602008D02*
X10417682Y-17611531D01*
X10417682Y-17611531D02*
X10408158Y-17630579D01*
X10408158Y-17630579D02*
X10408158Y-17678198D01*
X10408158Y-17678198D02*
X10417682Y-17697246D01*
X10417682Y-17697246D02*
X10427206Y-17706770D01*
X10427206Y-17706770D02*
X10446253Y-17716293D01*
X10446253Y-17716293D02*
X10484349Y-17716293D01*
X10484349Y-17716293D02*
X10503396Y-17706770D01*
X10503396Y-17706770D02*
X10512920Y-17697246D01*
X10512920Y-17697246D02*
X10522444Y-17678198D01*
X10598634Y-17592484D02*
X10598634Y-17630579D01*
X10674825Y-17592484D02*
X10674825Y-17630579D01*
X10970063Y-17868674D02*
X10960539Y-17859150D01*
X10960539Y-17859150D02*
X10941492Y-17830579D01*
X10941492Y-17830579D02*
X10931968Y-17811531D01*
X10931968Y-17811531D02*
X10922444Y-17782960D01*
X10922444Y-17782960D02*
X10912920Y-17735341D01*
X10912920Y-17735341D02*
X10912920Y-17697246D01*
X10912920Y-17697246D02*
X10922444Y-17649627D01*
X10922444Y-17649627D02*
X10931968Y-17621055D01*
X10931968Y-17621055D02*
X10941492Y-17602008D01*
X10941492Y-17602008D02*
X10960539Y-17573436D01*
X10960539Y-17573436D02*
X10970063Y-17563912D01*
X11036730Y-17611531D02*
X11046254Y-17602008D01*
X11046254Y-17602008D02*
X11065301Y-17592484D01*
X11065301Y-17592484D02*
X11112920Y-17592484D01*
X11112920Y-17592484D02*
X11131968Y-17602008D01*
X11131968Y-17602008D02*
X11141492Y-17611531D01*
X11141492Y-17611531D02*
X11151015Y-17630579D01*
X11151015Y-17630579D02*
X11151015Y-17649627D01*
X11151015Y-17649627D02*
X11141492Y-17678198D01*
X11141492Y-17678198D02*
X11027206Y-17792484D01*
X11027206Y-17792484D02*
X11151015Y-17792484D01*
X11389111Y-17792484D02*
X11389111Y-17592484D01*
X11474825Y-17792484D02*
X11474825Y-17687722D01*
X11474825Y-17687722D02*
X11465301Y-17668674D01*
X11465301Y-17668674D02*
X11446254Y-17659150D01*
X11446254Y-17659150D02*
X11417682Y-17659150D01*
X11417682Y-17659150D02*
X11398634Y-17668674D01*
X11398634Y-17668674D02*
X11389111Y-17678198D01*
X11598634Y-17792484D02*
X11579587Y-17782960D01*
X11579587Y-17782960D02*
X11570063Y-17773436D01*
X11570063Y-17773436D02*
X11560539Y-17754389D01*
X11560539Y-17754389D02*
X11560539Y-17697246D01*
X11560539Y-17697246D02*
X11570063Y-17678198D01*
X11570063Y-17678198D02*
X11579587Y-17668674D01*
X11579587Y-17668674D02*
X11598634Y-17659150D01*
X11598634Y-17659150D02*
X11627206Y-17659150D01*
X11627206Y-17659150D02*
X11646254Y-17668674D01*
X11646254Y-17668674D02*
X11655777Y-17678198D01*
X11655777Y-17678198D02*
X11665301Y-17697246D01*
X11665301Y-17697246D02*
X11665301Y-17754389D01*
X11665301Y-17754389D02*
X11655777Y-17773436D01*
X11655777Y-17773436D02*
X11646254Y-17782960D01*
X11646254Y-17782960D02*
X11627206Y-17792484D01*
X11627206Y-17792484D02*
X11598634Y-17792484D01*
X11779587Y-17792484D02*
X11760539Y-17782960D01*
X11760539Y-17782960D02*
X11751015Y-17763912D01*
X11751015Y-17763912D02*
X11751015Y-17592484D01*
X11931968Y-17782960D02*
X11912920Y-17792484D01*
X11912920Y-17792484D02*
X11874825Y-17792484D01*
X11874825Y-17792484D02*
X11855777Y-17782960D01*
X11855777Y-17782960D02*
X11846254Y-17763912D01*
X11846254Y-17763912D02*
X11846254Y-17687722D01*
X11846254Y-17687722D02*
X11855777Y-17668674D01*
X11855777Y-17668674D02*
X11874825Y-17659150D01*
X11874825Y-17659150D02*
X11912920Y-17659150D01*
X11912920Y-17659150D02*
X11931968Y-17668674D01*
X11931968Y-17668674D02*
X11941492Y-17687722D01*
X11941492Y-17687722D02*
X11941492Y-17706770D01*
X11941492Y-17706770D02*
X11846254Y-17725817D01*
X12017682Y-17782960D02*
X12036730Y-17792484D01*
X12036730Y-17792484D02*
X12074825Y-17792484D01*
X12074825Y-17792484D02*
X12093873Y-17782960D01*
X12093873Y-17782960D02*
X12103396Y-17763912D01*
X12103396Y-17763912D02*
X12103396Y-17754389D01*
X12103396Y-17754389D02*
X12093873Y-17735341D01*
X12093873Y-17735341D02*
X12074825Y-17725817D01*
X12074825Y-17725817D02*
X12046254Y-17725817D01*
X12046254Y-17725817D02*
X12027206Y-17716293D01*
X12027206Y-17716293D02*
X12017682Y-17697246D01*
X12017682Y-17697246D02*
X12017682Y-17687722D01*
X12017682Y-17687722D02*
X12027206Y-17668674D01*
X12027206Y-17668674D02*
X12046254Y-17659150D01*
X12046254Y-17659150D02*
X12074825Y-17659150D01*
X12074825Y-17659150D02*
X12093873Y-17668674D01*
X12170063Y-17868674D02*
X12179587Y-17859150D01*
X12179587Y-17859150D02*
X12198635Y-17830579D01*
X12198635Y-17830579D02*
X12208158Y-17811531D01*
X12208158Y-17811531D02*
X12217682Y-17782960D01*
X12217682Y-17782960D02*
X12227206Y-17735341D01*
X12227206Y-17735341D02*
X12227206Y-17697246D01*
X12227206Y-17697246D02*
X12217682Y-17649627D01*
X12217682Y-17649627D02*
X12208158Y-17621055D01*
X12208158Y-17621055D02*
X12198635Y-17602008D01*
X12198635Y-17602008D02*
X12179587Y-17573436D01*
X12179587Y-17573436D02*
X12170063Y-17563912D01*
M02*
