%TF.GenerationSoftware,KiCad,Pcbnew,8.0.1*%
%TF.CreationDate,2024-06-28T23:28:18+08:00*%
%TF.ProjectId,pcb_badge,7063625f-6261-4646-9765-2e6b69636164,rev?*%
%TF.SameCoordinates,Original*%
%TF.FileFunction,Legend,Bot*%
%TF.FilePolarity,Positive*%
%FSLAX46Y46*%
G04 Gerber Fmt 4.6, Leading zero omitted, Abs format (unit mm)*
G04 Created by KiCad (PCBNEW 8.0.1) date 2024-06-28 23:28:18*
%MOMM*%
%LPD*%
G01*
G04 APERTURE LIST*
%ADD10C,0.000000*%
%ADD11C,0.150000*%
%ADD12C,0.300000*%
%ADD13C,0.120000*%
%ADD14C,0.250000*%
%ADD15C,0.127000*%
G04 APERTURE END LIST*
D10*
G36*
X139390000Y-92116479D02*
G01*
X138120000Y-92116479D01*
X138120000Y-92751479D01*
X136868522Y-92751479D01*
X136868522Y-92135000D01*
X137503521Y-92135000D01*
X137503521Y-91500000D01*
X139390000Y-91500000D01*
X139390000Y-92116479D01*
G37*
G36*
X128595001Y-88960000D02*
G01*
X129865001Y-88960000D01*
X129865001Y-89576479D01*
X128595001Y-89576479D01*
X128595001Y-90230000D01*
X129865001Y-90230000D01*
X129865001Y-90846478D01*
X127978521Y-90846478D01*
X127978521Y-88325000D01*
X128595001Y-88325000D01*
X128595001Y-88960000D01*
G37*
G36*
X124785001Y-100371477D02*
G01*
X124168522Y-100371477D01*
X124168522Y-99755000D01*
X124785001Y-99755000D01*
X124785001Y-100371477D01*
G37*
G36*
X135580001Y-94021478D02*
G01*
X134963521Y-94021478D01*
X134963521Y-92770000D01*
X135580001Y-92770000D01*
X135580001Y-94021478D01*
G37*
D11*
X89000000Y-93500000D02*
X102000000Y-93500000D01*
X102000000Y-100500000D01*
X89000000Y-100500000D01*
X89000000Y-93500000D01*
X87000000Y-117000000D02*
X143000000Y-117000000D01*
X143000000Y-119000000D01*
X87000000Y-119000000D01*
X87000000Y-117000000D01*
G36*
X87000000Y-117000000D02*
G01*
X143000000Y-117000000D01*
X143000000Y-119000000D01*
X87000000Y-119000000D01*
X87000000Y-117000000D01*
G37*
D10*
G36*
X137484999Y-88941479D02*
G01*
X136233521Y-88941479D01*
X136233521Y-88325000D01*
X137484999Y-88325000D01*
X137484999Y-88941479D01*
G37*
G36*
X138755001Y-88941479D02*
G01*
X138138521Y-88941479D01*
X138138521Y-88325000D01*
X138755001Y-88325000D01*
X138755001Y-88941479D01*
G37*
G36*
X127325001Y-90846478D02*
G01*
X126708522Y-90846478D01*
X126708522Y-90230000D01*
X127325001Y-90230000D01*
X127325001Y-90846478D01*
G37*
G36*
X136850000Y-90846478D02*
G01*
X136233521Y-90846478D01*
X136233521Y-90230000D01*
X136850000Y-90230000D01*
X136850000Y-90846478D01*
G37*
G36*
X136215000Y-92751479D02*
G01*
X135598522Y-92751479D01*
X135598522Y-92135000D01*
X136215000Y-92135000D01*
X136215000Y-92751479D01*
G37*
G36*
X135580001Y-97196477D02*
G01*
X134963521Y-97196477D01*
X134963521Y-96580000D01*
X135580001Y-96580000D01*
X135580001Y-97196477D01*
G37*
G36*
X137484999Y-94021478D02*
G01*
X136868522Y-94021478D01*
X136868522Y-93405000D01*
X137484999Y-93405000D01*
X137484999Y-94021478D01*
G37*
D11*
X89500000Y-97500000D02*
X101000000Y-97500000D01*
X101000000Y-100000000D01*
X89500000Y-100000000D01*
X89500000Y-97500000D01*
D10*
G36*
X136850000Y-94656478D02*
G01*
X136233521Y-94656478D01*
X136233521Y-94039999D01*
X136850000Y-94039999D01*
X136850000Y-94656478D01*
G37*
D11*
X91000000Y-109500000D02*
X139000000Y-109500000D01*
X139000000Y-117500000D01*
X91000000Y-117500000D01*
X91000000Y-109500000D01*
G36*
X91000000Y-109500000D02*
G01*
X139000000Y-109500000D01*
X139000000Y-117500000D01*
X91000000Y-117500000D01*
X91000000Y-109500000D01*
G37*
D10*
G36*
X134310000Y-84496479D02*
G01*
X133693522Y-84496479D01*
X133693522Y-83880000D01*
X134310000Y-83880000D01*
X134310000Y-84496479D01*
G37*
G36*
X129865001Y-94021478D02*
G01*
X129248522Y-94021478D01*
X129248522Y-93405000D01*
X129865001Y-93405000D01*
X129865001Y-94021478D01*
G37*
G36*
X134945000Y-97831478D02*
G01*
X134328521Y-97831478D01*
X134328521Y-97214999D01*
X134945000Y-97214999D01*
X134945000Y-97831478D01*
G37*
D11*
X93000000Y-87700000D02*
X118500000Y-87700000D01*
X118500000Y-88500000D01*
X93000000Y-88500000D01*
X93000000Y-87700000D01*
G36*
X93000000Y-87700000D02*
G01*
X118500000Y-87700000D01*
X118500000Y-88500000D01*
X93000000Y-88500000D01*
X93000000Y-87700000D01*
G37*
D10*
G36*
X126055001Y-99101478D02*
G01*
X125438522Y-99101478D01*
X125438522Y-98485000D01*
X126055001Y-98485000D01*
X126055001Y-99101478D01*
G37*
D11*
X101000000Y-98000000D02*
X101500000Y-98000000D01*
X101500000Y-99500000D01*
X101000000Y-99500000D01*
X101000000Y-98000000D01*
D10*
G36*
X126055001Y-89576479D02*
G01*
X125420001Y-89576479D01*
X125420001Y-90230000D01*
X126055001Y-90230000D01*
X126055001Y-90846478D01*
X124803522Y-90846478D01*
X124803522Y-90211478D01*
X124168522Y-90211478D01*
X124168522Y-89595000D01*
X124803522Y-89595000D01*
X124803522Y-88960000D01*
X126055001Y-88960000D01*
X126055001Y-89576479D01*
G37*
G36*
X136215000Y-91481478D02*
G01*
X135598522Y-91481478D01*
X135598522Y-90864999D01*
X136215000Y-90864999D01*
X136215000Y-91481478D01*
G37*
D11*
X102000000Y-97000000D02*
X89000000Y-97000000D01*
X87000000Y-107000000D02*
X143000000Y-107000000D01*
X143000000Y-110000000D01*
X87000000Y-110000000D01*
X87000000Y-107000000D01*
G36*
X87000000Y-107000000D02*
G01*
X143000000Y-107000000D01*
X143000000Y-110000000D01*
X87000000Y-110000000D01*
X87000000Y-107000000D01*
G37*
D10*
G36*
X131135000Y-97196477D02*
G01*
X130518522Y-97196477D01*
X130518522Y-96580000D01*
X131135000Y-96580000D01*
X131135000Y-97196477D01*
G37*
G36*
X133040001Y-99101478D02*
G01*
X132423522Y-99101478D01*
X132423522Y-98485000D01*
X133040001Y-98485000D01*
X133040001Y-99101478D01*
G37*
G36*
X129865001Y-86401479D02*
G01*
X129230001Y-86401479D01*
X129230001Y-87036479D01*
X128613522Y-87036479D01*
X128613522Y-85784999D01*
X129865001Y-85784999D01*
X129865001Y-86401479D01*
G37*
G36*
X130500000Y-98466479D02*
G01*
X128613522Y-98466479D01*
X128613522Y-97849999D01*
X130500000Y-97849999D01*
X130500000Y-98466479D01*
G37*
G36*
X135580001Y-90211478D02*
G01*
X134963521Y-90211478D01*
X134963521Y-89595000D01*
X135580001Y-89595000D01*
X135580001Y-90211478D01*
G37*
G36*
X135580001Y-92116479D02*
G01*
X134963521Y-92116479D01*
X134963521Y-91500000D01*
X135580001Y-91500000D01*
X135580001Y-92116479D01*
G37*
G36*
X140678521Y-86401479D02*
G01*
X137503521Y-86401479D01*
X137503521Y-83861479D01*
X138138521Y-83861479D01*
X138138521Y-85766479D01*
X140043522Y-85766479D01*
X140043522Y-83861479D01*
X138138521Y-83861479D01*
X137503521Y-83861479D01*
X137503521Y-83226479D01*
X140678521Y-83226479D01*
X140678521Y-86401479D01*
G37*
D11*
X105000000Y-93500000D02*
X118000000Y-93500000D01*
X118000000Y-100500000D01*
X105000000Y-100500000D01*
X105000000Y-93500000D01*
X105000000Y-97000000D02*
X118000000Y-97000000D01*
D10*
G36*
X137484999Y-90211478D02*
G01*
X136868522Y-90211478D01*
X136868522Y-89595000D01*
X137484999Y-89595000D01*
X137484999Y-90211478D01*
G37*
G36*
X140678521Y-100371477D02*
G01*
X137503521Y-100371477D01*
X137503521Y-97831478D01*
X138138521Y-97831478D01*
X138138521Y-99736478D01*
X140043522Y-99736478D01*
X140043522Y-97831478D01*
X138138521Y-97831478D01*
X137503521Y-97831478D01*
X137503521Y-97196477D01*
X140678521Y-97196477D01*
X140678521Y-100371477D01*
G37*
G36*
X127960001Y-97831478D02*
G01*
X126073521Y-97831478D01*
X126073521Y-96561478D01*
X126690001Y-96561478D01*
X126690001Y-97214999D01*
X127343522Y-97214999D01*
X127343522Y-96561478D01*
X126690001Y-96561478D01*
X126073521Y-96561478D01*
X126073521Y-95944999D01*
X127960001Y-95944999D01*
X127960001Y-97831478D01*
G37*
G36*
X126690001Y-95291479D02*
G01*
X126073521Y-95291479D01*
X126073521Y-94656478D01*
X124803522Y-94656478D01*
X124803522Y-94039999D01*
X126690001Y-94039999D01*
X126690001Y-95291479D01*
G37*
D11*
X87000000Y-81000000D02*
X120000000Y-81000000D01*
X120000000Y-102500000D01*
X87000000Y-102500000D01*
X87000000Y-81000000D01*
D10*
G36*
X134310000Y-85766479D02*
G01*
X133693522Y-85766479D01*
X133693522Y-85150000D01*
X134310000Y-85150000D01*
X134310000Y-85766479D01*
G37*
G36*
X142565000Y-102276478D02*
G01*
X121610001Y-102276478D01*
X121610001Y-97849999D01*
X122880001Y-97849999D01*
X123515001Y-97849999D01*
X123515001Y-98485000D01*
X124150001Y-98485000D01*
X124150001Y-99101478D01*
X123515001Y-99101478D01*
X123515001Y-100389999D01*
X124150001Y-100389999D01*
X124150001Y-101024999D01*
X126073521Y-101024999D01*
X126073521Y-99755000D01*
X127325001Y-99755000D01*
X127325001Y-100371477D01*
X126690001Y-100371477D01*
X126690001Y-101024999D01*
X127978521Y-101024999D01*
X127978521Y-100389999D01*
X129248522Y-100389999D01*
X129248522Y-99755000D01*
X129883522Y-99755000D01*
X129883522Y-99119999D01*
X130500000Y-99119999D01*
X130500000Y-99755000D01*
X131135000Y-99755000D01*
X131135000Y-100371477D01*
X129865001Y-100371477D01*
X129865001Y-101024999D01*
X131788522Y-101024999D01*
X131788522Y-100389999D01*
X132405001Y-100389999D01*
X132405001Y-101024999D01*
X133058522Y-101024999D01*
X133058522Y-100389999D01*
X133693522Y-100389999D01*
X133693522Y-98466479D01*
X133058522Y-98466479D01*
X133058522Y-97849999D01*
X134310000Y-97849999D01*
X134310000Y-98485000D01*
X134945000Y-98485000D01*
X134945000Y-99119999D01*
X135580001Y-99119999D01*
X135580001Y-99736478D01*
X134310000Y-99736478D01*
X134310000Y-100389999D01*
X136233521Y-100389999D01*
X136233521Y-96561478D01*
X136868522Y-96561478D01*
X136868522Y-101006478D01*
X141313521Y-101006478D01*
X141313521Y-96561478D01*
X136868522Y-96561478D01*
X136233521Y-96561478D01*
X136233521Y-95926478D01*
X134945000Y-95926478D01*
X134945000Y-96561478D01*
X134310000Y-96561478D01*
X134310000Y-97196477D01*
X132423522Y-97196477D01*
X132423522Y-95944999D01*
X133040001Y-95944999D01*
X133040001Y-96580000D01*
X133693522Y-96580000D01*
X133693522Y-95926478D01*
X133058522Y-95926478D01*
X133058522Y-95310000D01*
X133693522Y-95310000D01*
X133693522Y-94656478D01*
X133040001Y-94656478D01*
X133040001Y-95291479D01*
X131770000Y-95291479D01*
X131770000Y-96561478D01*
X131153521Y-96561478D01*
X131153521Y-95926478D01*
X130518522Y-95926478D01*
X130518522Y-95310000D01*
X131153521Y-95310000D01*
X131153521Y-94656478D01*
X130500000Y-94656478D01*
X130500000Y-95291479D01*
X129883522Y-95291479D01*
X129883522Y-94039999D01*
X133058522Y-94039999D01*
X133058522Y-93386478D01*
X129883522Y-93386478D01*
X129883522Y-92751479D01*
X129230001Y-92751479D01*
X129230001Y-93386478D01*
X128613522Y-93386478D01*
X128613522Y-92751479D01*
X127343522Y-92751479D01*
X127343522Y-91500000D01*
X129230001Y-91500000D01*
X129230001Y-92135000D01*
X129883522Y-92135000D01*
X129883522Y-92116479D01*
X131770000Y-92116479D01*
X131770000Y-92770000D01*
X132423522Y-92770000D01*
X132423522Y-92116479D01*
X131770000Y-92116479D01*
X129883522Y-92116479D01*
X129883522Y-90864999D01*
X130500000Y-90864999D01*
X130500000Y-91500000D01*
X131153521Y-91500000D01*
X131153521Y-90846478D01*
X131770000Y-90846478D01*
X131770000Y-91500000D01*
X132423522Y-91500000D01*
X132423522Y-90846478D01*
X131770000Y-90846478D01*
X131153521Y-90846478D01*
X131153521Y-88325000D01*
X131788522Y-88325000D01*
X131788522Y-87671479D01*
X131153521Y-87671479D01*
X131153521Y-86401479D01*
X131770000Y-86401479D01*
X131770000Y-87055000D01*
X132423522Y-87055000D01*
X132423522Y-86401479D01*
X131770000Y-86401479D01*
X131153521Y-86401479D01*
X131153521Y-85784999D01*
X133040001Y-85784999D01*
X133040001Y-87055000D01*
X133675000Y-87055000D01*
X133675000Y-87671479D01*
X132405001Y-87671479D01*
X132405001Y-88325000D01*
X133040001Y-88325000D01*
X133040001Y-88941479D01*
X131770000Y-88941479D01*
X131770000Y-90230000D01*
X132423522Y-90230000D01*
X132423522Y-89595000D01*
X133040001Y-89595000D01*
X133040001Y-91500000D01*
X133693522Y-91500000D01*
X133693522Y-89576479D01*
X133058522Y-89576479D01*
X133058522Y-88960000D01*
X133693522Y-88960000D01*
X133693522Y-87689999D01*
X134310000Y-87689999D01*
X134310000Y-88960000D01*
X134945000Y-88960000D01*
X134945000Y-89576479D01*
X134310000Y-89576479D01*
X134310000Y-90230000D01*
X134945000Y-90230000D01*
X134945000Y-90846478D01*
X134310000Y-90846478D01*
X134310000Y-92116479D01*
X133675000Y-92116479D01*
X133675000Y-94039999D01*
X134945000Y-94039999D01*
X134945000Y-95310000D01*
X135598522Y-95310000D01*
X135598522Y-94674999D01*
X136215000Y-94674999D01*
X136215000Y-95310000D01*
X136850000Y-95310000D01*
X136850000Y-95944999D01*
X137503521Y-95944999D01*
X137503521Y-95291479D01*
X138120000Y-95291479D01*
X138120000Y-95944999D01*
X138773522Y-95944999D01*
X138773522Y-95291479D01*
X138120000Y-95291479D01*
X137503521Y-95291479D01*
X136868522Y-95291479D01*
X136868522Y-94674999D01*
X137503521Y-94674999D01*
X137503521Y-94656478D01*
X139390000Y-94656478D01*
X139390000Y-95310000D01*
X140043522Y-95310000D01*
X140043522Y-94656478D01*
X139390000Y-94656478D01*
X137503521Y-94656478D01*
X137503521Y-94039999D01*
X138138521Y-94039999D01*
X138138521Y-92770000D01*
X138755001Y-92770000D01*
X138755001Y-93405000D01*
X139408521Y-93405000D01*
X139408521Y-92135000D01*
X140025000Y-92135000D01*
X140025000Y-94039999D01*
X140659999Y-94039999D01*
X140659999Y-95944999D01*
X141313521Y-95944999D01*
X141313521Y-93386478D01*
X140678521Y-93386478D01*
X140678521Y-92770000D01*
X141313521Y-92770000D01*
X141313521Y-89576479D01*
X140678521Y-89576479D01*
X140678521Y-88941479D01*
X140043522Y-88941479D01*
X140043522Y-88325000D01*
X140678521Y-88325000D01*
X140678521Y-87671479D01*
X136215000Y-87671479D01*
X136215000Y-88306479D01*
X134963521Y-88306479D01*
X134963521Y-86420000D01*
X135580001Y-86420000D01*
X135580001Y-87055000D01*
X136233521Y-87055000D01*
X136233521Y-85131479D01*
X135580001Y-85131479D01*
X135580001Y-85766479D01*
X134963521Y-85766479D01*
X134963521Y-84515000D01*
X135598522Y-84515000D01*
X135598522Y-83861479D01*
X134328521Y-83861479D01*
X134328521Y-83245000D01*
X136233521Y-83245000D01*
X136233521Y-82591479D01*
X136868522Y-82591479D01*
X136868522Y-87036479D01*
X141313521Y-87036479D01*
X141313521Y-82591479D01*
X136868522Y-82591479D01*
X136233521Y-82591479D01*
X133040001Y-82591479D01*
X133040001Y-83245000D01*
X133675000Y-83245000D01*
X133675000Y-83861479D01*
X133040001Y-83861479D01*
X133040001Y-84515000D01*
X133675000Y-84515000D01*
X133675000Y-85131479D01*
X130518522Y-85131479D01*
X130518522Y-84515000D01*
X131153521Y-84515000D01*
X131153521Y-83861479D01*
X131770000Y-83861479D01*
X131770000Y-84515000D01*
X132423522Y-84515000D01*
X132423522Y-83861479D01*
X131770000Y-83861479D01*
X131153521Y-83861479D01*
X131153521Y-82591479D01*
X131770000Y-82591479D01*
X131770000Y-83245000D01*
X132423522Y-83245000D01*
X132423522Y-82591479D01*
X131770000Y-82591479D01*
X131153521Y-82591479D01*
X130500000Y-82591479D01*
X130500000Y-83226479D01*
X129883522Y-83226479D01*
X129883522Y-82591479D01*
X129230001Y-82591479D01*
X129230001Y-85131479D01*
X127960001Y-85131479D01*
X127960001Y-87055000D01*
X128595001Y-87055000D01*
X128595001Y-87671479D01*
X127960001Y-87671479D01*
X127960001Y-88306479D01*
X126708522Y-88306479D01*
X126708522Y-87671479D01*
X125420001Y-87671479D01*
X125420001Y-88306479D01*
X124150001Y-88306479D01*
X124150001Y-89576479D01*
X123515001Y-89576479D01*
X123515001Y-90211478D01*
X122880001Y-90211478D01*
X122880001Y-91500000D01*
X124168522Y-91500000D01*
X124168522Y-90864999D01*
X124785001Y-90864999D01*
X124785001Y-91500000D01*
X126055001Y-91500000D01*
X126055001Y-92116479D01*
X124785001Y-92116479D01*
X124785001Y-92751479D01*
X124150001Y-92751479D01*
X124150001Y-93386478D01*
X123533522Y-93386478D01*
X123533522Y-92116479D01*
X122880001Y-92116479D01*
X122880001Y-94039999D01*
X124150001Y-94039999D01*
X124150001Y-94674999D01*
X124785001Y-94674999D01*
X124785001Y-95291479D01*
X123533522Y-95291479D01*
X123533522Y-94656478D01*
X122880001Y-94656478D01*
X122880001Y-96580000D01*
X124168522Y-96580000D01*
X124168522Y-95944999D01*
X124785001Y-95944999D01*
X124785001Y-96580000D01*
X125420001Y-96580000D01*
X125420001Y-97196477D01*
X124785001Y-97196477D01*
X124785001Y-97831478D01*
X123533522Y-97831478D01*
X123533522Y-97196477D01*
X122880001Y-97196477D01*
X122880001Y-97849999D01*
X121610001Y-97849999D01*
X121610001Y-87671479D01*
X122880001Y-87671479D01*
X122880001Y-88960000D01*
X123533522Y-88960000D01*
X123533522Y-87671479D01*
X122880001Y-87671479D01*
X121610001Y-87671479D01*
X121610001Y-82591479D01*
X122898522Y-82591479D01*
X122898522Y-87036479D01*
X127343522Y-87036479D01*
X127343522Y-83861479D01*
X127960001Y-83861479D01*
X127960001Y-84515000D01*
X128613522Y-84515000D01*
X128613522Y-83861479D01*
X127960001Y-83861479D01*
X127343522Y-83861479D01*
X127343522Y-82591479D01*
X122898522Y-82591479D01*
X121610001Y-82591479D01*
X121610001Y-81321479D01*
X142565000Y-81321479D01*
X142565000Y-102276478D01*
G37*
G36*
X126690001Y-88941479D02*
G01*
X126073521Y-88941479D01*
X126073521Y-88325000D01*
X126690001Y-88325000D01*
X126690001Y-88941479D01*
G37*
G36*
X140025000Y-89595000D02*
G01*
X140659999Y-89595000D01*
X140659999Y-90846478D01*
X140025000Y-90846478D01*
X140025000Y-91481478D01*
X139408521Y-91481478D01*
X139408521Y-90846478D01*
X137503521Y-90846478D01*
X137503521Y-90230000D01*
X138773522Y-90230000D01*
X138773522Y-88960000D01*
X140025000Y-88960000D01*
X140025000Y-89595000D01*
G37*
G36*
X127325001Y-99101478D02*
G01*
X126708522Y-99101478D01*
X126708522Y-98485000D01*
X127325001Y-98485000D01*
X127325001Y-99101478D01*
G37*
G36*
X134945000Y-92751479D02*
G01*
X134328521Y-92751479D01*
X134328521Y-92135000D01*
X134945000Y-92135000D01*
X134945000Y-92751479D01*
G37*
G36*
X130500000Y-90211478D02*
G01*
X129883522Y-90211478D01*
X129883522Y-89595000D01*
X130500000Y-89595000D01*
X130500000Y-90211478D01*
G37*
D11*
X93500000Y-81000000D02*
X118500000Y-81000000D01*
X118500000Y-82000000D01*
X93500000Y-82000000D01*
X93500000Y-81000000D01*
G36*
X93500000Y-81000000D02*
G01*
X118500000Y-81000000D01*
X118500000Y-82000000D01*
X93500000Y-82000000D01*
X93500000Y-81000000D01*
G37*
D10*
G36*
X129865001Y-97196477D02*
G01*
X129248522Y-97196477D01*
X129248522Y-96580000D01*
X129865001Y-96580000D01*
X129865001Y-97196477D01*
G37*
G36*
X128595001Y-94039999D02*
G01*
X129230001Y-94039999D01*
X129230001Y-95310000D01*
X129865001Y-95310000D01*
X129865001Y-95926478D01*
X128613522Y-95926478D01*
X128613522Y-95291479D01*
X127343522Y-95291479D01*
X127343522Y-93405000D01*
X128595001Y-93405000D01*
X128595001Y-94039999D01*
G37*
G36*
X130500000Y-88306479D02*
G01*
X128613522Y-88306479D01*
X128613522Y-87689999D01*
X130500000Y-87689999D01*
X130500000Y-88306479D01*
G37*
G36*
X130500000Y-87036479D02*
G01*
X129883522Y-87036479D01*
X129883522Y-86420000D01*
X130500000Y-86420000D01*
X130500000Y-87036479D01*
G37*
G36*
X137484999Y-91481478D02*
G01*
X136868522Y-91481478D01*
X136868522Y-90864999D01*
X137484999Y-90864999D01*
X137484999Y-91481478D01*
G37*
G36*
X126690001Y-92770000D02*
G01*
X127325001Y-92770000D01*
X127325001Y-93386478D01*
X125438522Y-93386478D01*
X125438522Y-92770000D01*
X126073521Y-92770000D01*
X126073521Y-92135000D01*
X126690001Y-92135000D01*
X126690001Y-92770000D01*
G37*
G36*
X130500000Y-84496479D02*
G01*
X129883522Y-84496479D01*
X129883522Y-83880000D01*
X130500000Y-83880000D01*
X130500000Y-84496479D01*
G37*
D11*
X118000000Y-81000000D02*
X120000000Y-81000000D01*
X120000000Y-88500000D01*
X118000000Y-88500000D01*
X118000000Y-81000000D01*
G36*
X118000000Y-81000000D02*
G01*
X120000000Y-81000000D01*
X120000000Y-88500000D01*
X118000000Y-88500000D01*
X118000000Y-81000000D01*
G37*
X120000000Y-88500000D02*
X87000000Y-88500000D01*
D10*
G36*
X125420001Y-95926478D02*
G01*
X124803522Y-95926478D01*
X124803522Y-95310000D01*
X125420001Y-95310000D01*
X125420001Y-95926478D01*
G37*
D11*
X105500000Y-94500000D02*
X106000000Y-94500000D01*
X106000000Y-96000000D01*
X105500000Y-96000000D01*
X105500000Y-94500000D01*
D10*
G36*
X134310000Y-87036479D02*
G01*
X133693522Y-87036479D01*
X133693522Y-86420000D01*
X134310000Y-86420000D01*
X134310000Y-87036479D01*
G37*
D11*
X106000000Y-94000000D02*
X117500000Y-94000000D01*
X117500000Y-96500000D01*
X106000000Y-96500000D01*
X106000000Y-94000000D01*
D10*
G36*
X131135000Y-99101478D02*
G01*
X130518522Y-99101478D01*
X130518522Y-98485000D01*
X131135000Y-98485000D01*
X131135000Y-99101478D01*
G37*
D11*
X87000000Y-81000000D02*
X94200000Y-81000000D01*
X94200000Y-88500000D01*
X87000000Y-88500000D01*
X87000000Y-81000000D01*
G36*
X87000000Y-81000000D02*
G01*
X94200000Y-81000000D01*
X94200000Y-88500000D01*
X87000000Y-88500000D01*
X87000000Y-81000000D01*
G37*
D10*
G36*
X126708522Y-86401479D02*
G01*
X123533522Y-86401479D01*
X123533522Y-83861479D01*
X124168522Y-83861479D01*
X124168522Y-85766479D01*
X126073521Y-85766479D01*
X126073521Y-83861479D01*
X124168522Y-83861479D01*
X123533522Y-83861479D01*
X123533522Y-83226479D01*
X126708522Y-83226479D01*
X126708522Y-86401479D01*
G37*
G36*
X126690001Y-91481478D02*
G01*
X126073521Y-91481478D01*
X126073521Y-90864999D01*
X126690001Y-90864999D01*
X126690001Y-91481478D01*
G37*
D12*
G36*
X107874528Y-49468394D02*
G01*
X107874528Y-49745000D01*
X108906210Y-49745000D01*
X108906210Y-48854002D01*
X108171650Y-48854002D01*
X108171650Y-48520976D01*
X108906210Y-48520976D01*
X108906210Y-48244371D01*
X107874528Y-48244371D01*
X107874528Y-49130607D01*
X108609089Y-49130607D01*
X108609089Y-49468394D01*
X107874528Y-49468394D01*
G37*
G36*
X107691346Y-49745000D02*
G01*
X106659665Y-49745000D01*
X106659665Y-48520976D01*
X106956786Y-48520976D01*
X106956786Y-49468394D01*
X107394225Y-49468394D01*
X107394225Y-48520976D01*
X106956786Y-48520976D01*
X106659665Y-48520976D01*
X106659665Y-48244371D01*
X107691346Y-48244371D01*
X107691346Y-49745000D01*
G37*
G36*
X105444801Y-49468394D02*
G01*
X105444801Y-49745000D01*
X106476482Y-49745000D01*
X106476482Y-48854002D01*
X105741922Y-48854002D01*
X105741922Y-48520976D01*
X106476482Y-48520976D01*
X106476482Y-48244371D01*
X105444801Y-48244371D01*
X105444801Y-49130607D01*
X106179361Y-49130607D01*
X106179361Y-49468394D01*
X105444801Y-49468394D01*
G37*
G36*
X105261618Y-49130607D02*
G01*
X105261618Y-48244371D01*
X104964497Y-48244371D01*
X104964497Y-48854002D01*
X104527058Y-48854002D01*
X104527058Y-48244371D01*
X104229937Y-48244371D01*
X104229937Y-49745000D01*
X104527058Y-49745000D01*
X104527058Y-49130607D01*
X105261618Y-49130607D01*
G37*
G36*
X102769975Y-48244371D02*
G01*
X102480181Y-48244371D01*
X102806612Y-49745000D01*
X103169678Y-49745000D01*
X103520655Y-48244371D01*
X103213642Y-48244371D01*
X103001151Y-49334305D01*
X102769975Y-48244371D01*
G37*
G36*
X102014532Y-49745000D02*
G01*
X102311653Y-49745000D01*
X102311653Y-48244371D01*
X102014532Y-48244371D01*
X102014532Y-49745000D01*
G37*
G36*
X101526535Y-49468394D02*
G01*
X101526535Y-49745000D01*
X101823656Y-49745000D01*
X101823656Y-49468394D01*
X101526535Y-49468394D01*
G37*
G36*
X101335659Y-49745000D02*
G01*
X100303977Y-49745000D01*
X100303977Y-48520976D01*
X100601099Y-48520976D01*
X100601099Y-49468394D01*
X101038538Y-49468394D01*
X101038538Y-48520976D01*
X100601099Y-48520976D01*
X100303977Y-48520976D01*
X100303977Y-48244371D01*
X101335659Y-48244371D01*
X101335659Y-49745000D01*
G37*
G36*
X99823674Y-48520976D02*
G01*
X99823674Y-48854002D01*
X99089113Y-48854002D01*
X99089113Y-49130607D01*
X99823674Y-49130607D01*
X99823674Y-49468394D01*
X99089113Y-49468394D01*
X99089113Y-49745000D01*
X100120795Y-49745000D01*
X100120795Y-48244371D01*
X99089113Y-48244371D01*
X99089113Y-48520976D01*
X99823674Y-48520976D01*
G37*
D11*
G36*
X102483390Y-92660000D02*
G01*
X102118491Y-92660000D01*
X102118491Y-91840809D01*
X101139078Y-91840809D01*
X101139078Y-91027969D01*
X101503976Y-91027969D01*
X101503976Y-91503265D01*
X102118491Y-91503265D01*
X102118491Y-91027969D01*
X101503976Y-91027969D01*
X101139078Y-91027969D01*
X101139078Y-90690425D01*
X102483390Y-90690425D01*
X102483390Y-92660000D01*
G37*
G36*
X100863572Y-92660000D02*
G01*
X99519259Y-92660000D01*
X99519259Y-91027969D01*
X99884158Y-91027969D01*
X99884158Y-92322456D01*
X100498673Y-92322456D01*
X100498673Y-91027969D01*
X99884158Y-91027969D01*
X99519259Y-91027969D01*
X99519259Y-90690425D01*
X100863572Y-90690425D01*
X100863572Y-92660000D01*
G37*
G36*
X98275086Y-91760209D02*
G01*
X98434821Y-92660000D01*
X98882274Y-92660000D01*
X99232029Y-90690425D01*
X98846614Y-90690425D01*
X98660501Y-92006894D01*
X98462176Y-90690425D01*
X98088973Y-90690425D01*
X97890648Y-92006894D01*
X97705023Y-90690425D01*
X97319608Y-90690425D01*
X97669364Y-92660000D01*
X98116328Y-92660000D01*
X98275086Y-91760209D01*
G37*
G36*
X96694346Y-91027969D02*
G01*
X96694346Y-91503265D01*
X95714932Y-91503265D01*
X95714932Y-91840809D01*
X96694346Y-91840809D01*
X96694346Y-92322456D01*
X95714932Y-92322456D01*
X95714932Y-92660000D01*
X97059245Y-92660000D01*
X97059245Y-90690425D01*
X95714932Y-90690425D01*
X95714932Y-91027969D01*
X96694346Y-91027969D01*
G37*
G36*
X95439426Y-92660000D02*
G01*
X95074528Y-92660000D01*
X95074528Y-91840809D01*
X94942148Y-91840809D01*
X94460013Y-92660000D01*
X94095114Y-92660000D01*
X94566503Y-91840809D01*
X94095114Y-91840809D01*
X94095114Y-91027969D01*
X94460013Y-91027969D01*
X94460013Y-91503265D01*
X95074528Y-91503265D01*
X95074528Y-91027969D01*
X94460013Y-91027969D01*
X94095114Y-91027969D01*
X94095114Y-90690425D01*
X95439426Y-90690425D01*
X95439426Y-92660000D01*
G37*
G36*
X93125958Y-92660000D02*
G01*
X91781646Y-92660000D01*
X91781646Y-91027969D01*
X92146544Y-91027969D01*
X92146544Y-92322456D01*
X92761059Y-92322456D01*
X92761059Y-91027969D01*
X92146544Y-91027969D01*
X91781646Y-91027969D01*
X91781646Y-90690425D01*
X93125958Y-90690425D01*
X93125958Y-92660000D01*
G37*
G36*
X91141241Y-92660000D02*
G01*
X91506140Y-92660000D01*
X91506140Y-90690425D01*
X90161827Y-90690425D01*
X90161827Y-91027969D01*
X91141241Y-91027969D01*
X91141241Y-91503265D01*
X90161827Y-91503265D01*
X90161827Y-91840809D01*
X91141241Y-91840809D01*
X91141241Y-92660000D01*
G37*
G36*
X89521422Y-92660000D02*
G01*
X89886321Y-92660000D01*
X89886321Y-90690425D01*
X88542008Y-90690425D01*
X88542008Y-91027969D01*
X89521422Y-91027969D01*
X89521422Y-91503265D01*
X88542008Y-91503265D01*
X88542008Y-91840809D01*
X89521422Y-91840809D01*
X89521422Y-92660000D01*
G37*
G36*
X143129936Y-105509616D02*
G01*
X142410885Y-105509616D01*
X142410885Y-105847159D01*
X143129936Y-105847159D01*
X143129936Y-105509616D01*
G37*
G36*
X137983251Y-106660000D02*
G01*
X137618352Y-106660000D01*
X137618352Y-105840809D01*
X136638938Y-105840809D01*
X136638938Y-105027969D01*
X137003837Y-105027969D01*
X137003837Y-105503265D01*
X137618352Y-105503265D01*
X137618352Y-105027969D01*
X137003837Y-105027969D01*
X136638938Y-105027969D01*
X136638938Y-104690425D01*
X137983251Y-104690425D01*
X137983251Y-106660000D01*
G37*
G36*
X135384019Y-104690425D02*
G01*
X135019120Y-104690425D01*
X135019120Y-106660000D01*
X136363432Y-106660000D01*
X136363432Y-104690425D01*
X135998534Y-104690425D01*
X135998534Y-106322456D01*
X135384019Y-106322456D01*
X135384019Y-104690425D01*
G37*
G36*
X134233146Y-105027969D02*
G01*
X134743614Y-105027969D01*
X134743614Y-104690425D01*
X133399301Y-104690425D01*
X133399301Y-105027969D01*
X133868247Y-105027969D01*
X133868247Y-106660000D01*
X134233146Y-106660000D01*
X134233146Y-105027969D01*
G37*
G36*
X131565037Y-105675212D02*
G01*
X131565037Y-106660000D01*
X131929936Y-106660000D01*
X131929936Y-105675212D01*
X132405721Y-104690425D01*
X132028610Y-104690425D01*
X131730146Y-105315687D01*
X131423865Y-104690425D01*
X131069713Y-104690425D01*
X131565037Y-105675212D01*
G37*
G36*
X130810327Y-106660000D02*
G01*
X129466014Y-106660000D01*
X129466014Y-105027969D01*
X129830913Y-105027969D01*
X129830913Y-106322456D01*
X130445428Y-106322456D01*
X130445428Y-105027969D01*
X129830913Y-105027969D01*
X129466014Y-105027969D01*
X129466014Y-104690425D01*
X130810327Y-104690425D01*
X130810327Y-106660000D01*
G37*
G36*
X128211095Y-104690425D02*
G01*
X127846196Y-104690425D01*
X127846196Y-106660000D01*
X129190508Y-106660000D01*
X129190508Y-104690425D01*
X128825610Y-104690425D01*
X128825610Y-106322456D01*
X128211095Y-106322456D01*
X128211095Y-104690425D01*
G37*
G36*
X127570690Y-106660000D02*
G01*
X127205791Y-106660000D01*
X127205791Y-105840809D01*
X127073411Y-105840809D01*
X126591276Y-106660000D01*
X126226377Y-106660000D01*
X126697766Y-105840809D01*
X126226377Y-105840809D01*
X126226377Y-105027969D01*
X126591276Y-105027969D01*
X126591276Y-105503265D01*
X127205791Y-105503265D01*
X127205791Y-105027969D01*
X126591276Y-105027969D01*
X126226377Y-105027969D01*
X126226377Y-104690425D01*
X127570690Y-104690425D01*
X127570690Y-106660000D01*
G37*
G36*
X125257222Y-106660000D02*
G01*
X123912909Y-106660000D01*
X123912909Y-105933133D01*
X123974872Y-105840809D01*
X124277808Y-105840809D01*
X124277808Y-106322456D01*
X124892323Y-106322456D01*
X124892323Y-105840809D01*
X124277808Y-105840809D01*
X123974872Y-105840809D01*
X124083390Y-105679120D01*
X123912909Y-105427062D01*
X123912909Y-105027969D01*
X124277808Y-105027969D01*
X124277808Y-105503265D01*
X124892323Y-105503265D01*
X124892323Y-105027969D01*
X124277808Y-105027969D01*
X123912909Y-105027969D01*
X123912909Y-104690425D01*
X125257222Y-104690425D01*
X125257222Y-106660000D01*
G37*
G36*
X123637403Y-106660000D02*
G01*
X123272504Y-106660000D01*
X123272504Y-105840809D01*
X122657989Y-105840809D01*
X122657989Y-106660000D01*
X122293090Y-106660000D01*
X122293090Y-105027969D01*
X122657989Y-105027969D01*
X122657989Y-105503265D01*
X123272504Y-105503265D01*
X123272504Y-105027969D01*
X122657989Y-105027969D01*
X122293090Y-105027969D01*
X122293090Y-104690425D01*
X123637403Y-104690425D01*
X123637403Y-106660000D01*
G37*
G36*
X121507117Y-105027969D02*
G01*
X122017584Y-105027969D01*
X122017584Y-104690425D01*
X120673272Y-104690425D01*
X120673272Y-105027969D01*
X121142218Y-105027969D01*
X121142218Y-106660000D01*
X121507117Y-106660000D01*
X121507117Y-105027969D01*
G37*
G36*
X119887298Y-105027969D02*
G01*
X120397766Y-105027969D01*
X120397766Y-104690425D01*
X119053453Y-104690425D01*
X119053453Y-105027969D01*
X119522400Y-105027969D01*
X119522400Y-106660000D01*
X119887298Y-106660000D01*
X119887298Y-105027969D01*
G37*
G36*
X118413049Y-105027969D02*
G01*
X118413049Y-105503265D01*
X117433635Y-105503265D01*
X117433635Y-105840809D01*
X118413049Y-105840809D01*
X118413049Y-106322456D01*
X117433635Y-106322456D01*
X117433635Y-106660000D01*
X118777947Y-106660000D01*
X118777947Y-104690425D01*
X117433635Y-104690425D01*
X117433635Y-105027969D01*
X118413049Y-105027969D01*
G37*
G36*
X117158129Y-106660000D02*
G01*
X116793230Y-106660000D01*
X116793230Y-105840809D01*
X116660850Y-105840809D01*
X116178715Y-106660000D01*
X115813816Y-106660000D01*
X116285205Y-105840809D01*
X115813816Y-105840809D01*
X115813816Y-105027969D01*
X116178715Y-105027969D01*
X116178715Y-105503265D01*
X116793230Y-105503265D01*
X116793230Y-105027969D01*
X116178715Y-105027969D01*
X115813816Y-105027969D01*
X115813816Y-104690425D01*
X117158129Y-104690425D01*
X117158129Y-106660000D01*
G37*
G36*
X114673202Y-105675212D02*
G01*
X114673202Y-106660000D01*
X115038101Y-106660000D01*
X115038101Y-105675212D01*
X115513886Y-104690425D01*
X115136775Y-104690425D01*
X114838310Y-105315687D01*
X114532030Y-104690425D01*
X114177878Y-104690425D01*
X114673202Y-105675212D01*
G37*
G36*
X112859943Y-106660000D02*
G01*
X113224842Y-106660000D01*
X113224842Y-104690425D01*
X112859943Y-104690425D01*
X112859943Y-106660000D01*
G37*
G36*
X112209280Y-106660000D02*
G01*
X112574179Y-106660000D01*
X112574179Y-104690425D01*
X112209280Y-104690425D01*
X111594765Y-105794403D01*
X111594765Y-104690425D01*
X111229866Y-104690425D01*
X111229866Y-106660000D01*
X111594765Y-106660000D01*
X112209280Y-105522805D01*
X112209280Y-106660000D01*
G37*
G36*
X109750243Y-105027969D02*
G01*
X110260711Y-105027969D01*
X110260711Y-104690425D01*
X108916398Y-104690425D01*
X108916398Y-105027969D01*
X109385344Y-105027969D01*
X109385344Y-106660000D01*
X109750243Y-106660000D01*
X109750243Y-105027969D01*
G37*
G36*
X108275993Y-106660000D02*
G01*
X108640892Y-106660000D01*
X108640892Y-104690425D01*
X108275993Y-104690425D01*
X108275993Y-105503265D01*
X107661478Y-105503265D01*
X107661478Y-104690425D01*
X107296580Y-104690425D01*
X107296580Y-106660000D01*
X107661478Y-106660000D01*
X107661478Y-105840809D01*
X108275993Y-105840809D01*
X108275993Y-106660000D01*
G37*
G36*
X106656175Y-106660000D02*
G01*
X107021074Y-106660000D01*
X107021074Y-104690425D01*
X106656175Y-104690425D01*
X106656175Y-106660000D01*
G37*
G36*
X106370411Y-105840809D02*
G01*
X106370411Y-104690425D01*
X105026098Y-104690425D01*
X105026098Y-105027969D01*
X106005512Y-105027969D01*
X106005512Y-105503265D01*
X105026098Y-105503265D01*
X105026098Y-106660000D01*
X106370411Y-106660000D01*
X106370411Y-106322456D01*
X105390997Y-106322456D01*
X105390997Y-105840809D01*
X106370411Y-105840809D01*
G37*
G36*
X103546475Y-105027969D02*
G01*
X104056942Y-105027969D01*
X104056942Y-104690425D01*
X102712630Y-104690425D01*
X102712630Y-105027969D01*
X103181576Y-105027969D01*
X103181576Y-106660000D01*
X103546475Y-106660000D01*
X103546475Y-105027969D01*
G37*
G36*
X102437124Y-106660000D02*
G01*
X101092811Y-106660000D01*
X101092811Y-105027969D01*
X101457710Y-105027969D01*
X101457710Y-106322456D01*
X102072225Y-106322456D01*
X102072225Y-105027969D01*
X101457710Y-105027969D01*
X101092811Y-105027969D01*
X101092811Y-104690425D01*
X102437124Y-104690425D01*
X102437124Y-106660000D01*
G37*
G36*
X100817305Y-106660000D02*
G01*
X100452407Y-106660000D01*
X100452407Y-105840809D01*
X99472993Y-105840809D01*
X99472993Y-105027969D01*
X99837892Y-105027969D01*
X99837892Y-105503265D01*
X100452407Y-105503265D01*
X100452407Y-105027969D01*
X99837892Y-105027969D01*
X99472993Y-105027969D01*
X99472993Y-104690425D01*
X100817305Y-104690425D01*
X100817305Y-106660000D01*
G37*
G36*
X98503837Y-105840809D02*
G01*
X98503837Y-104690425D01*
X97159524Y-104690425D01*
X97159524Y-105027969D01*
X98138938Y-105027969D01*
X98138938Y-105503265D01*
X97159524Y-105503265D01*
X97159524Y-106660000D01*
X98503837Y-106660000D01*
X98503837Y-106322456D01*
X97524423Y-106322456D01*
X97524423Y-105840809D01*
X98503837Y-105840809D01*
G37*
G36*
X96519120Y-106322456D02*
G01*
X95539706Y-106322456D01*
X95539706Y-106660000D01*
X96884019Y-106660000D01*
X96884019Y-104690425D01*
X96519120Y-104690425D01*
X96519120Y-106322456D01*
G37*
G36*
X95264200Y-106660000D02*
G01*
X93919887Y-106660000D01*
X93919887Y-105027969D01*
X94284786Y-105027969D01*
X94284786Y-106322456D01*
X94899301Y-106322456D01*
X94899301Y-105027969D01*
X94284786Y-105027969D01*
X93919887Y-105027969D01*
X93919887Y-104690425D01*
X95264200Y-104690425D01*
X95264200Y-106660000D01*
G37*
G36*
X93133914Y-105027969D02*
G01*
X93644381Y-105027969D01*
X93644381Y-104690425D01*
X92300069Y-104690425D01*
X92300069Y-105027969D01*
X92769015Y-105027969D01*
X92769015Y-106660000D01*
X93133914Y-106660000D01*
X93133914Y-105027969D01*
G37*
G36*
X87206140Y-105847159D02*
G01*
X87206140Y-106191053D01*
X87518771Y-106191053D01*
X87518771Y-105847159D01*
X87862665Y-105847159D01*
X87862665Y-105509616D01*
X87518771Y-105509616D01*
X87518771Y-105221898D01*
X87206140Y-105221898D01*
X87206140Y-105509616D01*
X86893509Y-105509616D01*
X86893509Y-105847159D01*
X87206140Y-105847159D01*
G37*
G36*
X90642672Y-57251632D02*
G01*
X90265317Y-57251632D01*
X90265317Y-57830000D01*
X90937473Y-57830000D01*
X90937473Y-56845212D01*
X90265317Y-56845212D01*
X90265317Y-57013984D01*
X90755024Y-57013984D01*
X90755024Y-57661228D01*
X90447766Y-57661228D01*
X90447766Y-57420404D01*
X90642672Y-57420404D01*
X90642672Y-57251632D01*
G37*
G36*
X89945115Y-57013984D02*
G01*
X89945115Y-57251632D01*
X89455408Y-57251632D01*
X89455408Y-57420404D01*
X89945115Y-57420404D01*
X89945115Y-57661228D01*
X89455408Y-57661228D01*
X89455408Y-57830000D01*
X90127564Y-57830000D01*
X90127564Y-56845212D01*
X89455408Y-56845212D01*
X89455408Y-57013984D01*
X89945115Y-57013984D01*
G37*
G36*
X89135205Y-57830000D02*
G01*
X89317655Y-57830000D01*
X89317655Y-56845212D01*
X89135205Y-56845212D01*
X88827948Y-57397201D01*
X88827948Y-56845212D01*
X88645498Y-56845212D01*
X88645498Y-57830000D01*
X88827948Y-57830000D01*
X89135205Y-57261402D01*
X89135205Y-57830000D01*
G37*
G36*
X88325296Y-57013984D02*
G01*
X88325296Y-57251632D01*
X87835589Y-57251632D01*
X87835589Y-57420404D01*
X88325296Y-57420404D01*
X88325296Y-57661228D01*
X87835589Y-57661228D01*
X87835589Y-57830000D01*
X88507745Y-57830000D01*
X88507745Y-56845212D01*
X87835589Y-56845212D01*
X87835589Y-57013984D01*
X88325296Y-57013984D01*
G37*
G36*
X87697836Y-57830000D02*
G01*
X87515387Y-57830000D01*
X87515387Y-57420404D01*
X87449197Y-57420404D01*
X87208129Y-57830000D01*
X87025680Y-57830000D01*
X87261374Y-57420404D01*
X87025680Y-57420404D01*
X87025680Y-57013984D01*
X87208129Y-57013984D01*
X87208129Y-57251632D01*
X87515387Y-57251632D01*
X87515387Y-57013984D01*
X87208129Y-57013984D01*
X87025680Y-57013984D01*
X87025680Y-56845212D01*
X87697836Y-56845212D01*
X87697836Y-57830000D01*
G37*
G36*
X86887927Y-57830000D02*
G01*
X86705478Y-57830000D01*
X86705478Y-57420404D01*
X86398220Y-57420404D01*
X86398220Y-57830000D01*
X86215771Y-57830000D01*
X86215771Y-57013984D01*
X86398220Y-57013984D01*
X86398220Y-57251632D01*
X86705478Y-57251632D01*
X86705478Y-57013984D01*
X86398220Y-57013984D01*
X86215771Y-57013984D01*
X86215771Y-56845212D01*
X86887927Y-56845212D01*
X86887927Y-57830000D01*
G37*
G36*
X85895568Y-57661228D02*
G01*
X85405861Y-57661228D01*
X85405861Y-57830000D01*
X86078018Y-57830000D01*
X86078018Y-56845212D01*
X85895568Y-56845212D01*
X85895568Y-57661228D01*
G37*
G36*
X77751632Y-48142464D02*
G01*
X77751632Y-48519819D01*
X78330000Y-48519819D01*
X78330000Y-47847663D01*
X77345212Y-47847663D01*
X77345212Y-48519819D01*
X77513984Y-48519819D01*
X77513984Y-48030112D01*
X78161228Y-48030112D01*
X78161228Y-48337370D01*
X77920404Y-48337370D01*
X77920404Y-48142464D01*
X77751632Y-48142464D01*
G37*
G36*
X78330000Y-48840021D02*
G01*
X78330000Y-48657572D01*
X77345212Y-48657572D01*
X77345212Y-48840021D01*
X77897201Y-49147279D01*
X77345212Y-49147279D01*
X77345212Y-49329728D01*
X78330000Y-49329728D01*
X78330000Y-49147279D01*
X77761402Y-48840021D01*
X78330000Y-48840021D01*
G37*
G36*
X78330000Y-50067097D02*
G01*
X78243538Y-50139638D01*
X77431674Y-50139638D01*
X77345212Y-50066365D01*
X77345212Y-49649931D01*
X77513984Y-49649931D01*
X77513984Y-49957188D01*
X78161228Y-49957188D01*
X78161228Y-49649931D01*
X77513984Y-49649931D01*
X77345212Y-49649931D01*
X77345212Y-49467481D01*
X78330000Y-49467481D01*
X78330000Y-50067097D01*
G37*
G36*
X77345212Y-56050559D02*
G01*
X77345212Y-56227635D01*
X78330000Y-56013434D01*
X78330000Y-55783846D01*
X77345212Y-55553524D01*
X77345212Y-55742080D01*
X78103098Y-55889847D01*
X77345212Y-56050559D01*
G37*
G36*
X78161228Y-56540021D02*
G01*
X78161228Y-57029728D01*
X78330000Y-57029728D01*
X78330000Y-56357572D01*
X77345212Y-56357572D01*
X77345212Y-57029728D01*
X77513984Y-57029728D01*
X77513984Y-56540021D01*
X78161228Y-56540021D01*
G37*
G36*
X78161228Y-57349931D02*
G01*
X78161228Y-57839638D01*
X78330000Y-57839638D01*
X78330000Y-57167481D01*
X77345212Y-57167481D01*
X77345212Y-57839638D01*
X77513984Y-57839638D01*
X77513984Y-57349931D01*
X78161228Y-57349931D01*
G37*
G36*
X77513984Y-50602896D02*
G01*
X77513984Y-50347663D01*
X77345212Y-50347663D01*
X77345212Y-51019819D01*
X77513984Y-51019819D01*
X77513984Y-50785346D01*
X78330000Y-50785346D01*
X78330000Y-50602896D01*
X77513984Y-50602896D01*
G37*
G36*
X78161228Y-51340021D02*
G01*
X78161228Y-51829728D01*
X78330000Y-51829728D01*
X78330000Y-51157572D01*
X77345212Y-51157572D01*
X77345212Y-51829728D01*
X77513984Y-51829728D01*
X77513984Y-51340021D01*
X78161228Y-51340021D01*
G37*
G36*
X78330000Y-52149931D02*
G01*
X78330000Y-51967481D01*
X77345212Y-51967481D01*
X77345212Y-52149931D01*
X77757250Y-52149931D01*
X77345212Y-52458409D01*
X77345212Y-52635485D01*
X77825150Y-52306490D01*
X78330000Y-52635485D01*
X78330000Y-52458409D01*
X77917962Y-52149931D01*
X78330000Y-52149931D01*
G37*
D12*
G36*
X138874528Y-146468394D02*
G01*
X138874528Y-146745000D01*
X139906210Y-146745000D01*
X139906210Y-145854002D01*
X139171650Y-145854002D01*
X139171650Y-145520976D01*
X139906210Y-145520976D01*
X139906210Y-145244371D01*
X138874528Y-145244371D01*
X138874528Y-146130607D01*
X139609089Y-146130607D01*
X139609089Y-146468394D01*
X138874528Y-146468394D01*
G37*
G36*
X138691346Y-146745000D02*
G01*
X137659665Y-146745000D01*
X137659665Y-145520976D01*
X137956786Y-145520976D01*
X137956786Y-146468394D01*
X138394225Y-146468394D01*
X138394225Y-145520976D01*
X137956786Y-145520976D01*
X137659665Y-145520976D01*
X137659665Y-145244371D01*
X138691346Y-145244371D01*
X138691346Y-146745000D01*
G37*
G36*
X136444801Y-146468394D02*
G01*
X136444801Y-146745000D01*
X137476482Y-146745000D01*
X137476482Y-145854002D01*
X136741922Y-145854002D01*
X136741922Y-145520976D01*
X137476482Y-145520976D01*
X137476482Y-145244371D01*
X136444801Y-145244371D01*
X136444801Y-146130607D01*
X137179361Y-146130607D01*
X137179361Y-146468394D01*
X136444801Y-146468394D01*
G37*
G36*
X136261618Y-146130607D02*
G01*
X136261618Y-145244371D01*
X135964497Y-145244371D01*
X135964497Y-145854002D01*
X135527058Y-145854002D01*
X135527058Y-145244371D01*
X135229937Y-145244371D01*
X135229937Y-146745000D01*
X135527058Y-146745000D01*
X135527058Y-146130607D01*
X136261618Y-146130607D01*
G37*
G36*
X133769975Y-145244371D02*
G01*
X133480181Y-145244371D01*
X133806612Y-146745000D01*
X134169678Y-146745000D01*
X134520655Y-145244371D01*
X134213642Y-145244371D01*
X134001151Y-146334305D01*
X133769975Y-145244371D01*
G37*
G36*
X133014532Y-146745000D02*
G01*
X133311653Y-146745000D01*
X133311653Y-145244371D01*
X133014532Y-145244371D01*
X133014532Y-146745000D01*
G37*
G36*
X132526535Y-146468394D02*
G01*
X132526535Y-146745000D01*
X132823656Y-146745000D01*
X132823656Y-146468394D01*
X132526535Y-146468394D01*
G37*
G36*
X132335659Y-146745000D02*
G01*
X131303977Y-146745000D01*
X131303977Y-145520976D01*
X131601099Y-145520976D01*
X131601099Y-146468394D01*
X132038538Y-146468394D01*
X132038538Y-145520976D01*
X131601099Y-145520976D01*
X131303977Y-145520976D01*
X131303977Y-145244371D01*
X132335659Y-145244371D01*
X132335659Y-146745000D01*
G37*
G36*
X130823674Y-145520976D02*
G01*
X130823674Y-145854002D01*
X130089113Y-145854002D01*
X130089113Y-146130607D01*
X130823674Y-146130607D01*
X130823674Y-146468394D01*
X130089113Y-146468394D01*
X130089113Y-146745000D01*
X131120795Y-146745000D01*
X131120795Y-145244371D01*
X130089113Y-145244371D01*
X130089113Y-145520976D01*
X130823674Y-145520976D01*
G37*
D11*
G36*
X117673481Y-92660000D02*
G01*
X117308582Y-92660000D01*
X117308582Y-91840809D01*
X116329169Y-91840809D01*
X116329169Y-91027969D01*
X116694067Y-91027969D01*
X116694067Y-91503265D01*
X117308582Y-91503265D01*
X117308582Y-91027969D01*
X116694067Y-91027969D01*
X116329169Y-91027969D01*
X116329169Y-90690425D01*
X117673481Y-90690425D01*
X117673481Y-92660000D01*
G37*
G36*
X116053663Y-92660000D02*
G01*
X114709350Y-92660000D01*
X114709350Y-91027969D01*
X115074249Y-91027969D01*
X115074249Y-92322456D01*
X115688764Y-92322456D01*
X115688764Y-91027969D01*
X115074249Y-91027969D01*
X114709350Y-91027969D01*
X114709350Y-90690425D01*
X116053663Y-90690425D01*
X116053663Y-92660000D01*
G37*
G36*
X113465177Y-91760209D02*
G01*
X113624912Y-92660000D01*
X114072365Y-92660000D01*
X114422120Y-90690425D01*
X114036705Y-90690425D01*
X113850592Y-92006894D01*
X113652267Y-90690425D01*
X113279064Y-90690425D01*
X113080739Y-92006894D01*
X112895114Y-90690425D01*
X112509699Y-90690425D01*
X112859455Y-92660000D01*
X113306419Y-92660000D01*
X113465177Y-91760209D01*
G37*
G36*
X111884437Y-91027969D02*
G01*
X111884437Y-91503265D01*
X110905023Y-91503265D01*
X110905023Y-91840809D01*
X111884437Y-91840809D01*
X111884437Y-92322456D01*
X110905023Y-92322456D01*
X110905023Y-92660000D01*
X112249336Y-92660000D01*
X112249336Y-90690425D01*
X110905023Y-90690425D01*
X110905023Y-91027969D01*
X111884437Y-91027969D01*
G37*
G36*
X110629517Y-92660000D02*
G01*
X110264619Y-92660000D01*
X110264619Y-91840809D01*
X110132239Y-91840809D01*
X109650104Y-92660000D01*
X109285205Y-92660000D01*
X109756594Y-91840809D01*
X109285205Y-91840809D01*
X109285205Y-91027969D01*
X109650104Y-91027969D01*
X109650104Y-91503265D01*
X110264619Y-91503265D01*
X110264619Y-91027969D01*
X109650104Y-91027969D01*
X109285205Y-91027969D01*
X109285205Y-90690425D01*
X110629517Y-90690425D01*
X110629517Y-92660000D01*
G37*
G36*
X108316049Y-92660000D02*
G01*
X106971737Y-92660000D01*
X106971737Y-91027969D01*
X107336635Y-91027969D01*
X107336635Y-92322456D01*
X107951150Y-92322456D01*
X107951150Y-91027969D01*
X107336635Y-91027969D01*
X106971737Y-91027969D01*
X106971737Y-90690425D01*
X108316049Y-90690425D01*
X108316049Y-92660000D01*
G37*
G36*
X106331332Y-92660000D02*
G01*
X106696231Y-92660000D01*
X106696231Y-90690425D01*
X106331332Y-90690425D01*
X105716817Y-91794403D01*
X105716817Y-90690425D01*
X105351918Y-90690425D01*
X105351918Y-92660000D01*
X105716817Y-92660000D01*
X106331332Y-91522805D01*
X106331332Y-92660000D01*
G37*
G36*
X77513984Y-53161863D02*
G01*
X77513984Y-52906630D01*
X77345212Y-52906630D01*
X77345212Y-53578786D01*
X77513984Y-53578786D01*
X77513984Y-53344313D01*
X78330000Y-53344313D01*
X78330000Y-53161863D01*
X77513984Y-53161863D01*
G37*
G36*
X78330000Y-53898988D02*
G01*
X78330000Y-53716539D01*
X77345212Y-53716539D01*
X77345212Y-53898988D01*
X77884989Y-54093161D01*
X77345212Y-54294906D01*
X77345212Y-54477355D01*
X78330000Y-54477355D01*
X78330000Y-54294906D01*
X77917962Y-54294906D01*
X78330000Y-54155443D01*
X78330000Y-54043092D01*
X77917962Y-53898988D01*
X78330000Y-53898988D01*
G37*
G36*
X77920404Y-54608514D02*
G01*
X77345212Y-54608514D01*
X77345212Y-55280670D01*
X77513984Y-55280670D01*
X77513984Y-54790963D01*
X77751632Y-54790963D01*
X77751632Y-55280670D01*
X78330000Y-55280670D01*
X78330000Y-54608514D01*
X78161228Y-54608514D01*
X78161228Y-55098221D01*
X77920404Y-55098221D01*
X77920404Y-54608514D01*
G37*
G36*
X109410956Y-86403265D02*
G01*
X108796441Y-86403265D01*
X108796441Y-85927969D01*
X109410956Y-85927969D01*
X109410956Y-86403265D01*
G37*
G36*
X115890230Y-86403265D02*
G01*
X115275715Y-86403265D01*
X115275715Y-85927969D01*
X115890230Y-85927969D01*
X115890230Y-86403265D01*
G37*
G36*
X117510048Y-87222456D02*
G01*
X116895533Y-87222456D01*
X116895533Y-86740809D01*
X117510048Y-86740809D01*
X117510048Y-87222456D01*
G37*
G36*
X117510048Y-86403265D02*
G01*
X116895533Y-86403265D01*
X116895533Y-85927969D01*
X117510048Y-85927969D01*
X117510048Y-86403265D01*
G37*
G36*
X104219330Y-83043265D02*
G01*
X103604815Y-83043265D01*
X103604815Y-82567969D01*
X104219330Y-82567969D01*
X104219330Y-83043265D01*
G37*
G36*
X106532798Y-83862456D02*
G01*
X105918283Y-83862456D01*
X105918283Y-82567969D01*
X106532798Y-82567969D01*
X106532798Y-83862456D01*
G37*
G36*
X112085903Y-83043265D02*
G01*
X111471388Y-83043265D01*
X111471388Y-82567969D01*
X112085903Y-82567969D01*
X112085903Y-83043265D01*
G37*
G36*
X118097169Y-87782222D02*
G01*
X94224951Y-87782222D01*
X94224951Y-87222456D01*
X106171318Y-87222456D01*
X106171318Y-87560000D01*
X106536217Y-87560000D01*
X106536217Y-87222456D01*
X106171318Y-87222456D01*
X94224951Y-87222456D01*
X94224951Y-85590425D01*
X105191905Y-85590425D01*
X105191905Y-86740809D01*
X106171318Y-86740809D01*
X106171318Y-87061256D01*
X106536217Y-87061256D01*
X106536217Y-86403265D01*
X105556803Y-86403265D01*
X105556803Y-85927969D01*
X106536217Y-85927969D01*
X106536217Y-85590425D01*
X106795603Y-85590425D01*
X107290928Y-86575212D01*
X107290928Y-87560000D01*
X107655826Y-87560000D01*
X107655826Y-86575212D01*
X108131612Y-85590425D01*
X108431542Y-85590425D01*
X108431542Y-85927969D01*
X108431542Y-86740809D01*
X108902930Y-86740809D01*
X108431542Y-87560000D01*
X108796441Y-87560000D01*
X109278576Y-86740809D01*
X109410956Y-86740809D01*
X109410956Y-87560000D01*
X109775854Y-87560000D01*
X109775854Y-85590425D01*
X110051360Y-85590425D01*
X110051360Y-85927969D01*
X111030774Y-85927969D01*
X111030774Y-86403265D01*
X110051360Y-86403265D01*
X110051360Y-86740809D01*
X111030774Y-86740809D01*
X111030774Y-87222456D01*
X110051360Y-87222456D01*
X110051360Y-87560000D01*
X111395673Y-87560000D01*
X111395673Y-85590425D01*
X111671179Y-85590425D01*
X111671179Y-85927969D01*
X112140125Y-85927969D01*
X112140125Y-87560000D01*
X112505024Y-87560000D01*
X112505024Y-85927969D01*
X113015491Y-85927969D01*
X113015491Y-85590425D01*
X113290997Y-85590425D01*
X113290997Y-85927969D01*
X113759944Y-85927969D01*
X113759944Y-87560000D01*
X114124842Y-87560000D01*
X114124842Y-85927969D01*
X114635310Y-85927969D01*
X114635310Y-85590425D01*
X114910816Y-85590425D01*
X114910816Y-85927969D01*
X114910816Y-87560000D01*
X115275715Y-87560000D01*
X115275715Y-86740809D01*
X115890230Y-86740809D01*
X115890230Y-87560000D01*
X116255129Y-87560000D01*
X116255129Y-85590425D01*
X116530635Y-85590425D01*
X116530635Y-85927969D01*
X116530635Y-86327062D01*
X116701116Y-86579120D01*
X116592598Y-86740809D01*
X116530635Y-86833133D01*
X116530635Y-87560000D01*
X117874947Y-87560000D01*
X117874947Y-85590425D01*
X116530635Y-85590425D01*
X116255129Y-85590425D01*
X114910816Y-85590425D01*
X114635310Y-85590425D01*
X113290997Y-85590425D01*
X113015491Y-85590425D01*
X111671179Y-85590425D01*
X111395673Y-85590425D01*
X110051360Y-85590425D01*
X109775854Y-85590425D01*
X108431542Y-85590425D01*
X108131612Y-85590425D01*
X107754501Y-85590425D01*
X107456036Y-86215687D01*
X107149755Y-85590425D01*
X106795603Y-85590425D01*
X106536217Y-85590425D01*
X105191905Y-85590425D01*
X94224951Y-85590425D01*
X94224951Y-82230425D01*
X94447173Y-82230425D01*
X94447173Y-82567969D01*
X95426587Y-82567969D01*
X95426587Y-83043265D01*
X94447173Y-83043265D01*
X94447173Y-83380809D01*
X95426587Y-83380809D01*
X95426587Y-83862456D01*
X94447173Y-83862456D01*
X94447173Y-84200000D01*
X95791486Y-84200000D01*
X95791486Y-82230425D01*
X96066992Y-82230425D01*
X96066992Y-84200000D01*
X96431891Y-84200000D01*
X96431891Y-83380809D01*
X97046406Y-83380809D01*
X97046406Y-84200000D01*
X97411304Y-84200000D01*
X97411304Y-82230425D01*
X97686810Y-82230425D01*
X97686810Y-82567969D01*
X98155757Y-82567969D01*
X98155757Y-84200000D01*
X98520655Y-84200000D01*
X98520655Y-82567969D01*
X99031123Y-82567969D01*
X99031123Y-82230425D01*
X100000279Y-82230425D01*
X100000279Y-82567969D01*
X100469225Y-82567969D01*
X100469225Y-84200000D01*
X100834124Y-84200000D01*
X100834124Y-82567969D01*
X101344591Y-82567969D01*
X101344591Y-82230425D01*
X101620097Y-82230425D01*
X101620097Y-84200000D01*
X102964410Y-84200000D01*
X102964410Y-82230425D01*
X103239916Y-82230425D01*
X103239916Y-82567969D01*
X103239916Y-83380809D01*
X104219330Y-83380809D01*
X104219330Y-84200000D01*
X104584228Y-84200000D01*
X104584228Y-82230425D01*
X105553384Y-82230425D01*
X105553384Y-82567969D01*
X105553384Y-84200000D01*
X106897697Y-84200000D01*
X106897697Y-82230425D01*
X107173203Y-82230425D01*
X107173203Y-82567969D01*
X107642149Y-82567969D01*
X107642149Y-84200000D01*
X108007048Y-84200000D01*
X108007048Y-82567969D01*
X108517515Y-82567969D01*
X108517515Y-82230425D01*
X109486671Y-82230425D01*
X109486671Y-82567969D01*
X110466085Y-82567969D01*
X110466085Y-83043265D01*
X109486671Y-83043265D01*
X109486671Y-83380809D01*
X110466085Y-83380809D01*
X110466085Y-83862456D01*
X109486671Y-83862456D01*
X109486671Y-84200000D01*
X110830983Y-84200000D01*
X110830983Y-82230425D01*
X111106489Y-82230425D01*
X111106489Y-82567969D01*
X111106489Y-83380809D01*
X111577878Y-83380809D01*
X111106489Y-84200000D01*
X111471388Y-84200000D01*
X111953524Y-83380809D01*
X112085903Y-83380809D01*
X112085903Y-84200000D01*
X112450802Y-84200000D01*
X112450802Y-82230425D01*
X112726308Y-82230425D01*
X112726308Y-82567969D01*
X113705722Y-82567969D01*
X113705722Y-83043265D01*
X112726308Y-83043265D01*
X112726308Y-83380809D01*
X113705722Y-83380809D01*
X113705722Y-83862456D01*
X112726308Y-83862456D01*
X112726308Y-84200000D01*
X114070621Y-84200000D01*
X114070621Y-82230425D01*
X114346127Y-82230425D01*
X114346127Y-84200000D01*
X114711025Y-84200000D01*
X114711025Y-83380809D01*
X115325540Y-83380809D01*
X115325540Y-84200000D01*
X115690439Y-84200000D01*
X115690439Y-82230425D01*
X115950802Y-82230425D01*
X116300558Y-84200000D01*
X116747522Y-84200000D01*
X116906280Y-83300209D01*
X117066015Y-84200000D01*
X117513468Y-84200000D01*
X117863224Y-82230425D01*
X117477808Y-82230425D01*
X117291695Y-83546894D01*
X117093370Y-82230425D01*
X116720167Y-82230425D01*
X116521842Y-83546894D01*
X116336217Y-82230425D01*
X115950802Y-82230425D01*
X115690439Y-82230425D01*
X115325540Y-82230425D01*
X115325540Y-83043265D01*
X114711025Y-83043265D01*
X114711025Y-82230425D01*
X114346127Y-82230425D01*
X114070621Y-82230425D01*
X112726308Y-82230425D01*
X112450802Y-82230425D01*
X111106489Y-82230425D01*
X110830983Y-82230425D01*
X109486671Y-82230425D01*
X108517515Y-82230425D01*
X107173203Y-82230425D01*
X106897697Y-82230425D01*
X105553384Y-82230425D01*
X104584228Y-82230425D01*
X103239916Y-82230425D01*
X102964410Y-82230425D01*
X102599511Y-82230425D01*
X102599511Y-83862456D01*
X101984996Y-83862456D01*
X101984996Y-82230425D01*
X101620097Y-82230425D01*
X101344591Y-82230425D01*
X100000279Y-82230425D01*
X99031123Y-82230425D01*
X97686810Y-82230425D01*
X97411304Y-82230425D01*
X97046406Y-82230425D01*
X97046406Y-83043265D01*
X96431891Y-83043265D01*
X96431891Y-82230425D01*
X96066992Y-82230425D01*
X95791486Y-82230425D01*
X94447173Y-82230425D01*
X94224951Y-82230425D01*
X94224951Y-82008203D01*
X118097169Y-82008203D01*
X118097169Y-87782222D01*
G37*
G36*
X142203570Y-76821478D02*
G01*
X142568469Y-76821478D01*
X142568469Y-74851903D01*
X142203570Y-74851903D01*
X141589055Y-75955881D01*
X141589055Y-74851903D01*
X141224157Y-74851903D01*
X141224157Y-76821478D01*
X141589055Y-76821478D01*
X142203570Y-75684283D01*
X142203570Y-76821478D01*
G37*
G36*
X140583752Y-75189447D02*
G01*
X140583752Y-75664743D01*
X139604338Y-75664743D01*
X139604338Y-76002287D01*
X140583752Y-76002287D01*
X140583752Y-76483934D01*
X139604338Y-76483934D01*
X139604338Y-76821478D01*
X140948651Y-76821478D01*
X140948651Y-74851903D01*
X139604338Y-74851903D01*
X139604338Y-75189447D01*
X140583752Y-75189447D01*
G37*
G36*
X138963933Y-75189447D02*
G01*
X138963933Y-75664743D01*
X137984519Y-75664743D01*
X137984519Y-76002287D01*
X138963933Y-76002287D01*
X138963933Y-76483934D01*
X137984519Y-76483934D01*
X137984519Y-76821478D01*
X139328832Y-76821478D01*
X139328832Y-74851903D01*
X137984519Y-74851903D01*
X137984519Y-75189447D01*
X138963933Y-75189447D01*
G37*
G36*
X137709013Y-76821478D02*
G01*
X136509781Y-76821478D01*
X136364701Y-76648554D01*
X136364701Y-75189447D01*
X136729600Y-75189447D01*
X136729600Y-76483934D01*
X137344115Y-76483934D01*
X137344115Y-75189447D01*
X136729600Y-75189447D01*
X136364701Y-75189447D01*
X136364701Y-75024827D01*
X136511247Y-74851903D01*
X137709013Y-74851903D01*
X137709013Y-76821478D01*
G37*
G36*
X135030646Y-76821478D02*
G01*
X135395545Y-76821478D01*
X135395545Y-74851903D01*
X135030646Y-74851903D01*
X135030646Y-75664743D01*
X134416131Y-75664743D01*
X134416131Y-74851903D01*
X134051233Y-74851903D01*
X134051233Y-76821478D01*
X134416131Y-76821478D01*
X134416131Y-76002287D01*
X135030646Y-76002287D01*
X135030646Y-76821478D01*
G37*
G36*
X133410828Y-75189447D02*
G01*
X133410828Y-75664743D01*
X132431414Y-75664743D01*
X132431414Y-76002287D01*
X133410828Y-76002287D01*
X133410828Y-76483934D01*
X132431414Y-76483934D01*
X132431414Y-76821478D01*
X133775727Y-76821478D01*
X133775727Y-74851903D01*
X132431414Y-74851903D01*
X132431414Y-75189447D01*
X133410828Y-75189447D01*
G37*
G36*
X131791009Y-76483934D02*
G01*
X130811595Y-76483934D01*
X130811595Y-76821478D01*
X132155908Y-76821478D01*
X132155908Y-74851903D01*
X131791009Y-74851903D01*
X131791009Y-76483934D01*
G37*
G36*
X130536090Y-76821478D02*
G01*
X130171191Y-76821478D01*
X130171191Y-76002287D01*
X129191777Y-76002287D01*
X129191777Y-75189447D01*
X129556676Y-75189447D01*
X129556676Y-75664743D01*
X130171191Y-75664743D01*
X130171191Y-75189447D01*
X129556676Y-75189447D01*
X129191777Y-75189447D01*
X129191777Y-74851903D01*
X130536090Y-74851903D01*
X130536090Y-76821478D01*
G37*
G36*
X128916271Y-76322734D02*
G01*
X128916271Y-75664743D01*
X127936857Y-75664743D01*
X127936857Y-75189447D01*
X128916271Y-75189447D01*
X128916271Y-74851903D01*
X127571958Y-74851903D01*
X127571958Y-76002287D01*
X128551372Y-76002287D01*
X128551372Y-76322734D01*
X128916271Y-76322734D01*
G37*
G36*
X128551372Y-76483934D02*
G01*
X128551372Y-76821478D01*
X128916271Y-76821478D01*
X128916271Y-76483934D01*
X128551372Y-76483934D01*
G37*
G36*
X142568469Y-79362287D02*
G01*
X142568469Y-78211903D01*
X141224157Y-78211903D01*
X141224157Y-78549447D01*
X142203570Y-78549447D01*
X142203570Y-79024743D01*
X141224157Y-79024743D01*
X141224157Y-80181478D01*
X142568469Y-80181478D01*
X142568469Y-79843934D01*
X141589055Y-79843934D01*
X141589055Y-79362287D01*
X142568469Y-79362287D01*
G37*
G36*
X140583752Y-79843934D02*
G01*
X139604338Y-79843934D01*
X139604338Y-80181478D01*
X140948651Y-80181478D01*
X140948651Y-78211903D01*
X139604338Y-78211903D01*
X139604338Y-78549447D01*
X140583752Y-78549447D01*
X140583752Y-79843934D01*
G37*
G36*
X139328832Y-80181478D02*
G01*
X138963933Y-80181478D01*
X138963933Y-79362287D01*
X138349418Y-79362287D01*
X138349418Y-80181478D01*
X137984519Y-80181478D01*
X137984519Y-78549447D01*
X138349418Y-78549447D01*
X138349418Y-79024743D01*
X138963933Y-79024743D01*
X138963933Y-78549447D01*
X138349418Y-78549447D01*
X137984519Y-78549447D01*
X137984519Y-78211903D01*
X139328832Y-78211903D01*
X139328832Y-80181478D01*
G37*
G36*
X137344115Y-80181478D02*
G01*
X137709013Y-80181478D01*
X137709013Y-78211903D01*
X137344115Y-78211903D01*
X136729600Y-79315881D01*
X136729600Y-78211903D01*
X136364701Y-78211903D01*
X136364701Y-80181478D01*
X136729600Y-80181478D01*
X137344115Y-79044283D01*
X137344115Y-80181478D01*
G37*
G36*
X135030646Y-80181478D02*
G01*
X135395545Y-80181478D01*
X135395545Y-78211903D01*
X135030646Y-78211903D01*
X134642300Y-79291457D01*
X134238811Y-78211903D01*
X133873912Y-78211903D01*
X133873912Y-80181478D01*
X134238811Y-80181478D01*
X134238811Y-79357402D01*
X134517736Y-80181478D01*
X134742440Y-80181478D01*
X135030646Y-79357402D01*
X135030646Y-80181478D01*
G37*
G36*
X133246697Y-78549447D02*
G01*
X133246697Y-79024743D01*
X132267283Y-79024743D01*
X132267283Y-79362287D01*
X133246697Y-79362287D01*
X133246697Y-79843934D01*
X132267283Y-79843934D01*
X132267283Y-80181478D01*
X133611595Y-80181478D01*
X133611595Y-78211903D01*
X132267283Y-78211903D01*
X132267283Y-78549447D01*
X133246697Y-78549447D01*
G37*
G36*
X131626878Y-78906041D02*
G01*
X131626878Y-79243585D01*
X131991777Y-79243585D01*
X131991777Y-78906041D01*
X131626878Y-78906041D01*
G37*
G36*
X131626878Y-79843934D02*
G01*
X131626878Y-80181478D01*
X131991777Y-80181478D01*
X131991777Y-79843934D01*
X131626878Y-79843934D01*
G37*
G36*
X90447766Y-55430212D02*
G01*
X90265317Y-55430212D01*
X90265317Y-56415000D01*
X90937473Y-56415000D01*
X90937473Y-55430212D01*
X90755024Y-55430212D01*
X90755024Y-56246228D01*
X90447766Y-56246228D01*
X90447766Y-55430212D01*
G37*
G36*
X90127564Y-55598984D02*
G01*
X90127564Y-55430212D01*
X89444905Y-55430212D01*
X89444905Y-56415000D01*
X90127564Y-56415000D01*
X90127564Y-56246228D01*
X89627355Y-56246228D01*
X89627355Y-56005404D01*
X90127564Y-56005404D01*
X90127564Y-55836632D01*
X89627355Y-55836632D01*
X89627355Y-55598984D01*
X90127564Y-55598984D01*
G37*
G36*
X80322644Y-65990505D02*
G01*
X80322644Y-66246228D01*
X80015386Y-66246228D01*
X80015386Y-65430212D01*
X79832937Y-65430212D01*
X79832937Y-66415000D01*
X80505093Y-66415000D01*
X80505093Y-65990505D01*
X80322644Y-65990505D01*
G37*
G36*
X79512735Y-66415000D02*
G01*
X79695184Y-66415000D01*
X79695184Y-65430212D01*
X79512735Y-65430212D01*
X79512735Y-66415000D01*
G37*
D13*
%TO.C,C40*%
X146384167Y-42640000D02*
X146615837Y-42640000D01*
X146384167Y-43360000D02*
X146615837Y-43360000D01*
%TO.C,Q90*%
X139440002Y-46825000D02*
X139440002Y-48500000D01*
X139440002Y-49150000D02*
X139440002Y-48500000D01*
X142560002Y-47850000D02*
X142560002Y-48500000D01*
X142560002Y-49150000D02*
X142560002Y-48500000D01*
%TO.C,R24*%
X83320000Y-63032379D02*
X83320000Y-63367621D01*
X84080000Y-63032379D02*
X84080000Y-63367621D01*
%TO.C,U3*%
X84390002Y-46390000D02*
X84390002Y-46840000D01*
X84390002Y-53610000D02*
X84390002Y-53160000D01*
X84840002Y-45100000D02*
X84840002Y-46390000D01*
X84840002Y-46390000D02*
X84390002Y-46390000D01*
X84840002Y-53610000D02*
X84390002Y-53610000D01*
X91160002Y-46390000D02*
X91610002Y-46390000D01*
X91160002Y-53610000D02*
X91610002Y-53610000D01*
X91610002Y-46390000D02*
X91610002Y-46840000D01*
X91610002Y-53610000D02*
X91610002Y-53160000D01*
%TO.C,C24*%
X94846269Y-145590000D02*
X94553735Y-145590000D01*
X94846269Y-146610000D02*
X94553735Y-146610000D01*
D11*
%TO.C,U1*%
X80600000Y-153300001D02*
X83400000Y-153300001D01*
X80600000Y-156699999D02*
X83400000Y-156699999D01*
D14*
X85028102Y-154025001D02*
G75*
G02*
X84778100Y-154025001I-125001J0D01*
G01*
X84778100Y-154025001D02*
G75*
G02*
X85028102Y-154025001I125001J0D01*
G01*
D13*
%TO.C,D9*%
X78550002Y-150650000D02*
X78550002Y-147390000D01*
X80250002Y-147390000D02*
X78550002Y-147390000D01*
X80250002Y-150650000D02*
X80250002Y-147390000D01*
%TO.C,R97*%
X130920002Y-53467621D02*
X130920002Y-53132379D01*
X131680002Y-53467621D02*
X131680002Y-53132379D01*
%TO.C,R164*%
X110272936Y-33090000D02*
X111727064Y-33090000D01*
X110272936Y-34910000D02*
X111727064Y-34910000D01*
%TO.C,C32*%
X82784167Y-45740000D02*
X83015837Y-45740000D01*
X82784167Y-46460000D02*
X83015837Y-46460000D01*
D14*
%TO.C,J1*%
X74500000Y-70470000D02*
X74500000Y-61530000D01*
X75980000Y-61530000D02*
X74500000Y-61530000D01*
X75980000Y-70470000D02*
X74500000Y-70470000D01*
X80080000Y-61530000D02*
X78220000Y-61530000D01*
X80080000Y-70470000D02*
X78220000Y-70470000D01*
D13*
%TO.C,R32*%
X148120000Y-131332379D02*
X148120000Y-131667621D01*
X148880000Y-131332379D02*
X148880000Y-131667621D01*
%TO.C,R10*%
X85767623Y-151220000D02*
X85432381Y-151220000D01*
X85767623Y-151980000D02*
X85432381Y-151980000D01*
%TO.C,C11*%
X77490000Y-154646267D02*
X77490000Y-154353733D01*
X78510000Y-154646267D02*
X78510000Y-154353733D01*
%TO.C,R36*%
X150320000Y-131332379D02*
X150320000Y-131667621D01*
X151080000Y-131332379D02*
X151080000Y-131667621D01*
%TO.C,Q9*%
X150850002Y-124940000D02*
X151500002Y-124940000D01*
X150850002Y-128060000D02*
X151500002Y-128060000D01*
X152150002Y-124940000D02*
X151500002Y-124940000D01*
X152150002Y-128060000D02*
X151500002Y-128060000D01*
X150577502Y-128340000D02*
X150097502Y-128340000D01*
X150337502Y-128010000D01*
X150577502Y-128340000D01*
G36*
X150577502Y-128340000D02*
G01*
X150097502Y-128340000D01*
X150337502Y-128010000D01*
X150577502Y-128340000D01*
G37*
%TO.C,R4*%
X92920000Y-41732379D02*
X92920000Y-42067621D01*
X93680000Y-41732379D02*
X93680000Y-42067621D01*
%TO.C,R35*%
X151420000Y-131332379D02*
X151420000Y-131667621D01*
X152180000Y-131332379D02*
X152180000Y-131667621D01*
%TO.C,R165*%
X149772936Y-113090000D02*
X151227064Y-113090000D01*
X149772936Y-114910000D02*
X151227064Y-114910000D01*
%TO.C,C25*%
X94846269Y-143890000D02*
X94553735Y-143890000D01*
X94846269Y-144910000D02*
X94553735Y-144910000D01*
%TO.C,R17*%
X82132381Y-57920000D02*
X82467623Y-57920000D01*
X82132381Y-58680000D02*
X82467623Y-58680000D01*
%TO.C,C30*%
X93215837Y-53540000D02*
X92984167Y-53540000D01*
X93215837Y-54260000D02*
X92984167Y-54260000D01*
%TO.C,C38*%
X86415837Y-43440000D02*
X86184167Y-43440000D01*
X86415837Y-44160000D02*
X86184167Y-44160000D01*
%TO.C,R19*%
X85132381Y-149620000D02*
X85467623Y-149620000D01*
X85132381Y-150380000D02*
X85467623Y-150380000D01*
%TO.C,R21*%
X89220000Y-41132379D02*
X89220000Y-41467621D01*
X89980000Y-41132379D02*
X89980000Y-41467621D01*
%TO.C,C60*%
X115690000Y-155146267D02*
X115690000Y-154853733D01*
X116710000Y-155146267D02*
X116710000Y-154853733D01*
%TO.C,Q99*%
X114940002Y-48350000D02*
X114940002Y-49000000D01*
X114940002Y-49650000D02*
X114940002Y-49000000D01*
X118060002Y-48350000D02*
X118060002Y-49000000D01*
X118060002Y-49650000D02*
X118060002Y-49000000D01*
X114990002Y-47837500D02*
X114660002Y-48077500D01*
X114660002Y-47597500D01*
X114990002Y-47837500D01*
G36*
X114990002Y-47837500D02*
G01*
X114660002Y-48077500D01*
X114660002Y-47597500D01*
X114990002Y-47837500D01*
G37*
%TO.C,R34*%
X152520000Y-131332379D02*
X152520000Y-131667621D01*
X153280000Y-131332379D02*
X153280000Y-131667621D01*
%TO.C,R31*%
X149220000Y-131332379D02*
X149220000Y-131667621D01*
X149980000Y-131332379D02*
X149980000Y-131667621D01*
%TO.C,R20*%
X82732381Y-44420000D02*
X83067623Y-44420000D01*
X82732381Y-45180000D02*
X83067623Y-45180000D01*
%TO.C,R96*%
X127920002Y-56467621D02*
X127920002Y-56132379D01*
X128680002Y-56467621D02*
X128680002Y-56132379D01*
%TO.C,C20*%
X88446269Y-147290000D02*
X88153735Y-147290000D01*
X88446269Y-148310000D02*
X88153735Y-148310000D01*
%TO.C,R23*%
X92132381Y-138620000D02*
X92467623Y-138620000D01*
X92132381Y-139380000D02*
X92467623Y-139380000D01*
%TO.C,R6*%
X98720000Y-34332379D02*
X98720000Y-34667621D01*
X99480000Y-34332379D02*
X99480000Y-34667621D01*
%TO.C,R95*%
X124920002Y-59467621D02*
X124920002Y-59132379D01*
X125680002Y-59467621D02*
X125680002Y-59132379D01*
%TO.C,C21*%
X88640002Y-142415835D02*
X88640002Y-142184165D01*
X89360002Y-142415835D02*
X89360002Y-142184165D01*
%TO.C,Q91*%
X142940002Y-46825000D02*
X142940002Y-48500000D01*
X142940002Y-49150000D02*
X142940002Y-48500000D01*
X146060002Y-47850000D02*
X146060002Y-48500000D01*
X146060002Y-49150000D02*
X146060002Y-48500000D01*
%TO.C,Q94*%
X150825002Y-44060000D02*
X152500002Y-44060000D01*
X151850002Y-40940000D02*
X152500002Y-40940000D01*
X153150002Y-40940000D02*
X152500002Y-40940000D01*
X153150002Y-44060000D02*
X152500002Y-44060000D01*
%TO.C,C37*%
X88140000Y-40715835D02*
X88140000Y-40484165D01*
X88860000Y-40715835D02*
X88860000Y-40484165D01*
%TO.C,R11*%
X92467621Y-39420000D02*
X92132379Y-39420000D01*
X92467621Y-40180000D02*
X92132379Y-40180000D01*
%TO.C,Q915*%
X135940002Y-47850000D02*
X135940002Y-48500000D01*
X135940002Y-49150000D02*
X135940002Y-48500000D01*
X139060002Y-47850000D02*
X139060002Y-48500000D01*
X139060002Y-49150000D02*
X139060002Y-48500000D01*
X135990002Y-47337500D02*
X135660002Y-47577500D01*
X135660002Y-47097500D01*
X135990002Y-47337500D01*
G36*
X135990002Y-47337500D02*
G01*
X135660002Y-47577500D01*
X135660002Y-47097500D01*
X135990002Y-47337500D01*
G37*
%TO.C,R5*%
X91832381Y-137220000D02*
X92167623Y-137220000D01*
X91832381Y-137980000D02*
X92167623Y-137980000D01*
%TO.C,R90*%
X109920002Y-74467621D02*
X109920002Y-74132379D01*
X110680002Y-74467621D02*
X110680002Y-74132379D01*
%TO.C,Q98*%
X111440002Y-48350000D02*
X111440002Y-49000000D01*
X111440002Y-49650000D02*
X111440002Y-49000000D01*
X114560002Y-48350000D02*
X114560002Y-49000000D01*
X114560002Y-49650000D02*
X114560002Y-49000000D01*
X111490002Y-47837500D02*
X111160002Y-48077500D01*
X111160002Y-47597500D01*
X111490002Y-47837500D01*
G36*
X111490002Y-47837500D02*
G01*
X111160002Y-48077500D01*
X111160002Y-47597500D01*
X111490002Y-47837500D01*
G37*
%TO.C,C33*%
X90384165Y-43440000D02*
X90615835Y-43440000D01*
X90384165Y-44160000D02*
X90615835Y-44160000D01*
%TO.C,Q2*%
X95250002Y-138040000D02*
X95900002Y-138040000D01*
X95250002Y-141160000D02*
X95900002Y-141160000D01*
X96550002Y-138040000D02*
X95900002Y-138040000D01*
X96550002Y-141160000D02*
X95900002Y-141160000D01*
X97062502Y-138090000D02*
X96822502Y-137760000D01*
X97302502Y-137760000D01*
X97062502Y-138090000D01*
G36*
X97062502Y-138090000D02*
G01*
X96822502Y-137760000D01*
X97302502Y-137760000D01*
X97062502Y-138090000D01*
G37*
%TO.C,R166*%
X124272936Y-33090000D02*
X125727064Y-33090000D01*
X124272936Y-34910000D02*
X125727064Y-34910000D01*
%TO.C,C10*%
X80646267Y-157490000D02*
X80353733Y-157490000D01*
X80646267Y-158510000D02*
X80353733Y-158510000D01*
%TO.C,R92*%
X115920002Y-68467621D02*
X115920002Y-68132379D01*
X116680002Y-68467621D02*
X116680002Y-68132379D01*
%TO.C,R9*%
X129320000Y-34632379D02*
X129320000Y-34967621D01*
X130080000Y-34632379D02*
X130080000Y-34967621D01*
%TO.C,R16*%
X82467623Y-59020000D02*
X82132381Y-59020000D01*
X82467623Y-59780000D02*
X82132381Y-59780000D01*
%TO.C,Q911*%
X121940002Y-48350000D02*
X121940002Y-49000000D01*
X121940002Y-49650000D02*
X121940002Y-49000000D01*
X125060002Y-48350000D02*
X125060002Y-49000000D01*
X125060002Y-49650000D02*
X125060002Y-49000000D01*
X121990002Y-47837500D02*
X121660002Y-48077500D01*
X121660002Y-47597500D01*
X121990002Y-47837500D01*
G36*
X121990002Y-47837500D02*
G01*
X121660002Y-48077500D01*
X121660002Y-47597500D01*
X121990002Y-47837500D01*
G37*
%TO.C,Q912*%
X125440002Y-48350000D02*
X125440002Y-49000000D01*
X125440002Y-49650000D02*
X125440002Y-49000000D01*
X128560002Y-48350000D02*
X128560002Y-49000000D01*
X128560002Y-49650000D02*
X128560002Y-49000000D01*
X125490002Y-47837500D02*
X125160002Y-48077500D01*
X125160002Y-47597500D01*
X125490002Y-47837500D01*
G36*
X125490002Y-47837500D02*
G01*
X125160002Y-48077500D01*
X125160002Y-47597500D01*
X125490002Y-47837500D01*
G37*
%TO.C,U4*%
X141000000Y-42060000D02*
X144500000Y-42060000D01*
X142550000Y-31940000D02*
X144500000Y-31940000D01*
X146450000Y-31940000D02*
X144500000Y-31940000D01*
X146450000Y-42060000D02*
X144500000Y-42060000D01*
%TO.C,C1*%
X88415837Y-148890000D02*
X88184167Y-148890000D01*
X88415837Y-149610000D02*
X88184167Y-149610000D01*
%TO.C,C31*%
X83840002Y-55115835D02*
X83840002Y-54884165D01*
X84560002Y-55115835D02*
X84560002Y-54884165D01*
%TO.C,D2*%
X88890002Y-134750000D02*
X88890002Y-136750000D01*
X92750002Y-134750000D02*
X88890002Y-134750000D01*
X92750002Y-136750000D02*
X88890002Y-136750000D01*
%TO.C,Q914*%
X132440002Y-47850000D02*
X132440002Y-48500000D01*
X132440002Y-49150000D02*
X132440002Y-48500000D01*
X135560002Y-47850000D02*
X135560002Y-48500000D01*
X135560002Y-49150000D02*
X135560002Y-48500000D01*
X132490002Y-47337500D02*
X132160002Y-47577500D01*
X132160002Y-47097500D01*
X132490002Y-47337500D01*
G36*
X132490002Y-47337500D02*
G01*
X132160002Y-47577500D01*
X132160002Y-47097500D01*
X132490002Y-47337500D01*
G37*
%TO.C,U8*%
X122940000Y-39550000D02*
X122940000Y-41500000D01*
X122940000Y-43450000D02*
X122940000Y-41500000D01*
X133060000Y-39550000D02*
X133060000Y-41500000D01*
X133060000Y-43450000D02*
X133060000Y-41500000D01*
X122995000Y-38775000D02*
X122665000Y-39015000D01*
X122665000Y-38535000D01*
X122995000Y-38775000D01*
G36*
X122995000Y-38775000D02*
G01*
X122665000Y-39015000D01*
X122665000Y-38535000D01*
X122995000Y-38775000D01*
G37*
%TO.C,R3*%
X79532379Y-59620000D02*
X79867621Y-59620000D01*
X79532379Y-60380000D02*
X79867621Y-60380000D01*
%TO.C,C34*%
X90740000Y-42215835D02*
X90740000Y-41984165D01*
X91460000Y-42215835D02*
X91460000Y-41984165D01*
%TO.C,R162*%
X149772936Y-121090000D02*
X151227064Y-121090000D01*
X149772936Y-122910000D02*
X151227064Y-122910000D01*
D11*
%TO.C,U2*%
X90200002Y-139800001D02*
X93000002Y-139800001D01*
X90200002Y-143199999D02*
X93000002Y-143199999D01*
D14*
X94628104Y-140525001D02*
G75*
G02*
X94378102Y-140525001I-125001J0D01*
G01*
X94378102Y-140525001D02*
G75*
G02*
X94628104Y-140525001I125001J0D01*
G01*
D13*
%TO.C,R2*%
X83620000Y-65767621D02*
X83620000Y-65432379D01*
X84380000Y-65767621D02*
X84380000Y-65432379D01*
%TO.C,C22*%
X90953735Y-143890000D02*
X91246269Y-143890000D01*
X90953735Y-144910000D02*
X91246269Y-144910000D01*
%TO.C,C92*%
X152653733Y-128690000D02*
X152946267Y-128690000D01*
X152653733Y-129710000D02*
X152946267Y-129710000D01*
%TO.C,R1*%
X83620000Y-68267621D02*
X83620000Y-67932379D01*
X84380000Y-68267621D02*
X84380000Y-67932379D01*
%TO.C,R7*%
X130620002Y-34632379D02*
X130620002Y-34967621D01*
X131380002Y-34632379D02*
X131380002Y-34967621D01*
%TO.C,Q92*%
X146440002Y-46825000D02*
X146440002Y-48500000D01*
X146440002Y-49150000D02*
X146440002Y-48500000D01*
X149560002Y-47850000D02*
X149560002Y-48500000D01*
X149560002Y-49150000D02*
X149560002Y-48500000D01*
%TO.C,R18*%
X85467623Y-148520000D02*
X85132381Y-148520000D01*
X85467623Y-149280000D02*
X85132381Y-149280000D01*
%TO.C,R33*%
X153620000Y-131332379D02*
X153620000Y-131667621D01*
X154380000Y-131332379D02*
X154380000Y-131667621D01*
D15*
%TO.C,BT1*%
X87750000Y-107800000D02*
X142250000Y-107800000D01*
X87750000Y-130200000D02*
X87750000Y-107800000D01*
X89135000Y-108365000D02*
X89135000Y-109635000D01*
X89770000Y-109000000D02*
X88500000Y-109000000D01*
X140865000Y-128365000D02*
X140865000Y-129635000D01*
X141500000Y-129000000D02*
X140230000Y-129000000D01*
X142250000Y-130200000D02*
X87750000Y-130200000D01*
X142250000Y-130200000D02*
X142250000Y-107800000D01*
D13*
%TO.C,Q910*%
X118440002Y-48350000D02*
X118440002Y-49000000D01*
X118440002Y-49650000D02*
X118440002Y-49000000D01*
X121560002Y-48350000D02*
X121560002Y-49000000D01*
X121560002Y-49650000D02*
X121560002Y-49000000D01*
X118490002Y-47837500D02*
X118160002Y-48077500D01*
X118160002Y-47597500D01*
X118490002Y-47837500D01*
G36*
X118490002Y-47837500D02*
G01*
X118160002Y-48077500D01*
X118160002Y-47597500D01*
X118490002Y-47837500D01*
G37*
%TO.C,R93*%
X118920002Y-65467621D02*
X118920002Y-65132379D01*
X119680002Y-65467621D02*
X119680002Y-65132379D01*
%TO.C,C26*%
X90953735Y-145590000D02*
X91246269Y-145590000D01*
X90953735Y-146610000D02*
X91246269Y-146610000D01*
%TO.C,L20*%
X77200002Y-136200000D02*
X87800002Y-136200000D01*
X77200002Y-139400000D02*
X77200002Y-136200000D01*
X77200002Y-146800000D02*
X77200002Y-143600000D01*
X87800002Y-136200000D02*
X87800002Y-139400000D01*
X87800002Y-143600000D02*
X87800002Y-146800000D01*
X87800002Y-146800000D02*
X77200002Y-146800000D01*
%TO.C,R25*%
X83620000Y-70332379D02*
X83620000Y-70667621D01*
X84380000Y-70332379D02*
X84380000Y-70667621D01*
%TO.C,Q96*%
X151325002Y-37060000D02*
X153000002Y-37060000D01*
X152350002Y-33940000D02*
X153000002Y-33940000D01*
X153650002Y-33940000D02*
X153000002Y-33940000D01*
X153650002Y-37060000D02*
X153000002Y-37060000D01*
%TO.C,R167*%
X117272936Y-33090000D02*
X118727064Y-33090000D01*
X117272936Y-34910000D02*
X118727064Y-34910000D01*
%TO.C,R8*%
X99920000Y-34332379D02*
X99920000Y-34667621D01*
X100680000Y-34332379D02*
X100680000Y-34667621D01*
%TO.C,C80*%
X121540000Y-43884165D02*
X121540000Y-44115835D01*
X122260000Y-43884165D02*
X122260000Y-44115835D01*
%TO.C,C23*%
X94846269Y-147290000D02*
X94553735Y-147290000D01*
X94846269Y-148310000D02*
X94553735Y-148310000D01*
%TO.C,R22*%
X90067623Y-138620000D02*
X89732381Y-138620000D01*
X90067623Y-139380000D02*
X89732381Y-139380000D01*
%TO.C,R91*%
X112920002Y-71467621D02*
X112920002Y-71132379D01*
X113680002Y-71467621D02*
X113680002Y-71132379D01*
%TO.C,R61*%
X118967621Y-154120000D02*
X118632379Y-154120000D01*
X118967621Y-154880000D02*
X118632379Y-154880000D01*
%TO.C,R163*%
X149772936Y-117090000D02*
X151227064Y-117090000D01*
X149772936Y-118910000D02*
X151227064Y-118910000D01*
%TO.C,Y1*%
X87775000Y-39300000D02*
X84625000Y-39300000D01*
X87775000Y-43100000D02*
X87775000Y-39300000D01*
%TO.C,R94*%
X121920002Y-62467621D02*
X121920002Y-62132379D01*
X122680002Y-62467621D02*
X122680002Y-62132379D01*
%TO.C,Q1*%
X80602502Y-148650000D02*
X80602502Y-149300000D01*
X80602502Y-149950000D02*
X80602502Y-149300000D01*
X83722502Y-148650000D02*
X83722502Y-149300000D01*
X83722502Y-149950000D02*
X83722502Y-149300000D01*
X84002502Y-150702500D02*
X83672502Y-150462500D01*
X84002502Y-150222500D01*
X84002502Y-150702500D01*
G36*
X84002502Y-150702500D02*
G01*
X83672502Y-150462500D01*
X84002502Y-150222500D01*
X84002502Y-150702500D01*
G37*
%TO.C,D1*%
X94750002Y-141650000D02*
X98010002Y-141650000D01*
X94750002Y-143350000D02*
X98010002Y-143350000D01*
X98010002Y-143350000D02*
X98010002Y-141650000D01*
%TO.C,Q93*%
X150325002Y-47560000D02*
X152000002Y-47560000D01*
X151350002Y-44440000D02*
X152000002Y-44440000D01*
X152650002Y-44440000D02*
X152000002Y-44440000D01*
X152650002Y-47560000D02*
X152000002Y-47560000D01*
%TO.C,Q97*%
X151825002Y-33560000D02*
X153500002Y-33560000D01*
X152850002Y-30440000D02*
X153500002Y-30440000D01*
X154150002Y-30440000D02*
X153500002Y-30440000D01*
X154150002Y-33560000D02*
X153500002Y-33560000D01*
%TO.C,R30*%
X91820000Y-43032379D02*
X91820000Y-43367621D01*
X92580000Y-43032379D02*
X92580000Y-43367621D01*
%TO.C,Q913*%
X128940002Y-47850000D02*
X128940002Y-48500000D01*
X128940002Y-49150000D02*
X128940002Y-48500000D01*
X132060002Y-47850000D02*
X132060002Y-48500000D01*
X132060002Y-49150000D02*
X132060002Y-48500000D01*
X128990002Y-47337500D02*
X128660002Y-47577500D01*
X128660002Y-47097500D01*
X128990002Y-47337500D01*
G36*
X128990002Y-47337500D02*
G01*
X128660002Y-47577500D01*
X128660002Y-47097500D01*
X128990002Y-47337500D01*
G37*
%TO.C,Q95*%
X151325002Y-40560000D02*
X153000002Y-40560000D01*
X152350002Y-37440000D02*
X153000002Y-37440000D01*
X153650002Y-37440000D02*
X153000002Y-37440000D01*
X153650002Y-40560000D02*
X153000002Y-40560000D01*
%TO.C,R14*%
X149867621Y-128720000D02*
X149532379Y-128720000D01*
X149867621Y-129480000D02*
X149532379Y-129480000D01*
%TO.C,D18*%
X93950002Y-135500000D02*
X97810002Y-135500000D01*
X93950002Y-137500000D02*
X97810002Y-137500000D01*
X97810002Y-137500000D02*
X97810002Y-135500000D01*
%TD*%
M02*
