%TF.GenerationSoftware,KiCad,Pcbnew,8.0.3*%
%TF.CreationDate,2024-07-25T19:13:15+08:00*%
%TF.ProjectId,pcb_badge,7063625f-6261-4646-9765-2e6b69636164,rev?*%
%TF.SameCoordinates,Original*%
%TF.FileFunction,Drillmap*%
%TF.FilePolarity,Positive*%
%FSLAX45Y45*%
G04 Gerber Fmt 4.5, Leading zero omitted, Abs format (unit mm)*
G04 Created by KiCad (PCBNEW 8.0.3) date 2024-07-25 19:13:15*
%MOMM*%
%LPD*%
G01*
G04 APERTURE LIST*
%ADD10C,0.100000*%
%ADD11C,0.200000*%
%ADD12C,0.175000*%
G04 APERTURE END LIST*
D10*
X13900000Y-15600000D02*
G75*
G02*
X13900000Y-16000000I0J-200000D01*
G01*
X9100000Y-15600000D02*
X9900000Y-15600000D01*
X8900000Y-3000000D02*
X15600000Y-3000000D01*
X7400000Y-4500000D02*
X7400000Y-16200000D01*
X13100000Y-15600000D02*
X13900000Y-15600000D01*
X13100000Y-16000000D02*
X13900000Y-16000000D01*
X9900000Y-15600000D02*
G75*
G02*
X9900000Y-16000000I0J-200000D01*
G01*
X13100000Y-16000000D02*
G75*
G02*
X13100000Y-15600000I0J200000D01*
G01*
X14100000Y-16200000D02*
X15600000Y-14700000D01*
X9100000Y-16000000D02*
X9900000Y-16000000D01*
X9100000Y-16000000D02*
G75*
G02*
X9100000Y-15600000I0J200000D01*
G01*
X7400000Y-16200000D02*
X14100000Y-16200000D01*
X15600000Y-14700000D02*
X15600000Y-3000000D01*
X8900000Y-3000000D02*
X7400000Y-4500000D01*
D11*
D10*
X7715000Y-4475000D02*
X7745000Y-4505000D01*
X7745000Y-4475000D02*
X7715000Y-4505000D01*
X7745000Y-13405000D02*
X7775000Y-13435000D01*
X7775000Y-13405000D02*
X7745000Y-13435000D01*
X7755000Y-14805000D02*
X7785000Y-14835000D01*
X7785000Y-14805000D02*
X7755000Y-14835000D01*
X7765000Y-5935000D02*
X7795000Y-5965000D01*
X7795000Y-5935000D02*
X7765000Y-5965000D01*
X7765000Y-13175000D02*
X7795000Y-13205000D01*
X7795000Y-13175000D02*
X7765000Y-13205000D01*
X7855000Y-6755000D02*
X7885000Y-6785000D01*
X7885000Y-6755000D02*
X7855000Y-6785000D01*
X7855000Y-7105000D02*
X7885000Y-7135000D01*
X7885000Y-7105000D02*
X7855000Y-7135000D01*
X7875000Y-5385000D02*
X7905000Y-5415000D01*
X7905000Y-5385000D02*
X7875000Y-5415000D01*
X7875000Y-5655000D02*
X7905000Y-5685000D01*
X7905000Y-5655000D02*
X7875000Y-5685000D01*
X7955000Y-6935000D02*
X7985000Y-6965000D01*
X7985000Y-6935000D02*
X7955000Y-6965000D01*
X8015000Y-4645000D02*
X8045000Y-4675000D01*
X8045000Y-4645000D02*
X8015000Y-4675000D01*
X8015000Y-4865000D02*
X8045000Y-4895000D01*
X8045000Y-4865000D02*
X8015000Y-4895000D01*
X8015000Y-5155000D02*
X8045000Y-5185000D01*
X8045000Y-5155000D02*
X8015000Y-5185000D01*
X8015000Y-5565000D02*
X8045000Y-5595000D01*
X8045000Y-5565000D02*
X8015000Y-5595000D01*
X8035000Y-6665000D02*
X8065000Y-6695000D01*
X8065000Y-6665000D02*
X8035000Y-6695000D01*
X8055000Y-4315000D02*
X8085000Y-4345000D01*
X8085000Y-4315000D02*
X8055000Y-4345000D01*
X8115000Y-5585000D02*
X8145000Y-5615000D01*
X8145000Y-5585000D02*
X8115000Y-5615000D01*
X8125000Y-5215000D02*
X8155000Y-5245000D01*
X8155000Y-5215000D02*
X8125000Y-5245000D01*
X8295000Y-15165000D02*
X8325000Y-15195000D01*
X8325000Y-15165000D02*
X8295000Y-15195000D01*
X8335000Y-5345000D02*
X8365000Y-5375000D01*
X8365000Y-5345000D02*
X8335000Y-5375000D01*
X8385000Y-6125000D02*
X8415000Y-6155000D01*
X8415000Y-6125000D02*
X8385000Y-6155000D01*
X8405000Y-5805000D02*
X8435000Y-5835000D01*
X8435000Y-5805000D02*
X8405000Y-5835000D01*
X8425000Y-4565000D02*
X8455000Y-4595000D01*
X8455000Y-4565000D02*
X8425000Y-4595000D01*
X8535000Y-13185000D02*
X8565000Y-13215000D01*
X8565000Y-13185000D02*
X8535000Y-13215000D01*
X8555000Y-14785000D02*
X8585000Y-14815000D01*
X8585000Y-14785000D02*
X8555000Y-14815000D01*
X8575000Y-7095000D02*
X8605000Y-7125000D01*
X8605000Y-7095000D02*
X8575000Y-7125000D01*
X8585000Y-4715000D02*
X8615000Y-4745000D01*
X8615000Y-4715000D02*
X8585000Y-4745000D01*
X8605000Y-6045000D02*
X8635000Y-6075000D01*
X8635000Y-6045000D02*
X8605000Y-6075000D01*
X8705000Y-5805000D02*
X8735000Y-5835000D01*
X8735000Y-5805000D02*
X8705000Y-5835000D01*
X8735000Y-15025000D02*
X8765000Y-15055000D01*
X8765000Y-15025000D02*
X8735000Y-15055000D01*
X8775000Y-15175000D02*
X8805000Y-15205000D01*
X8805000Y-15175000D02*
X8775000Y-15205000D01*
X8820000Y-4210000D02*
X8850000Y-4240000D01*
X8850000Y-4210000D02*
X8820000Y-4240000D01*
X8885000Y-14425000D02*
X8915000Y-14455000D01*
X8915000Y-14425000D02*
X8885000Y-14455000D01*
X8985000Y-13745000D02*
X9015000Y-13775000D01*
X9015000Y-13745000D02*
X8985000Y-13775000D01*
X9035000Y-4755000D02*
X9065000Y-4785000D01*
X9065000Y-4755000D02*
X9035000Y-4785000D01*
X9055000Y-14735000D02*
X9085000Y-14765000D01*
X9085000Y-14735000D02*
X9055000Y-14765000D01*
X9065000Y-4015000D02*
X9095000Y-4045000D01*
X9095000Y-4015000D02*
X9065000Y-4045000D01*
X9145000Y-5415000D02*
X9175000Y-5445000D01*
X9175000Y-5415000D02*
X9145000Y-5445000D01*
X9195000Y-4605000D02*
X9225000Y-4635000D01*
X9225000Y-4605000D02*
X9195000Y-4635000D01*
X9295000Y-4335000D02*
X9325000Y-4365000D01*
X9325000Y-4335000D02*
X9295000Y-4365000D01*
X9355000Y-5765000D02*
X9385000Y-5795000D01*
X9385000Y-5765000D02*
X9355000Y-5795000D01*
X9365000Y-13485000D02*
X9395000Y-13515000D01*
X9395000Y-13485000D02*
X9365000Y-13515000D01*
X9385000Y-4010000D02*
X9415000Y-4040000D01*
X9415000Y-4010000D02*
X9385000Y-4040000D01*
X9445000Y-4625000D02*
X9475000Y-4655000D01*
X9475000Y-4625000D02*
X9445000Y-4655000D01*
X9455000Y-5805000D02*
X9485000Y-5835000D01*
X9485000Y-5805000D02*
X9455000Y-5835000D01*
X9545000Y-5845000D02*
X9575000Y-5875000D01*
X9575000Y-5845000D02*
X9545000Y-5875000D01*
X9585000Y-5005000D02*
X9615000Y-5035000D01*
X9615000Y-5005000D02*
X9585000Y-5035000D01*
X9615000Y-4325000D02*
X9645000Y-4355000D01*
X9645000Y-4325000D02*
X9615000Y-4355000D01*
X9625000Y-5895000D02*
X9655000Y-5925000D01*
X9655000Y-5895000D02*
X9625000Y-5925000D01*
X9655000Y-5075000D02*
X9685000Y-5105000D01*
X9685000Y-5075000D02*
X9655000Y-5105000D01*
X9685000Y-4175000D02*
X9715000Y-4205000D01*
X9715000Y-4175000D02*
X9685000Y-4205000D01*
X9715000Y-5935000D02*
X9745000Y-5965000D01*
X9745000Y-5935000D02*
X9715000Y-5965000D01*
X9735000Y-5135000D02*
X9765000Y-5165000D01*
X9765000Y-5135000D02*
X9735000Y-5165000D01*
X9795000Y-5865000D02*
X9825000Y-5895000D01*
X9825000Y-5865000D02*
X9795000Y-5895000D01*
X9805000Y-5195000D02*
X9835000Y-5225000D01*
X9835000Y-5195000D02*
X9805000Y-5225000D01*
X9885000Y-4445000D02*
X9915000Y-4475000D01*
X9915000Y-4445000D02*
X9885000Y-4475000D01*
X9885000Y-5245000D02*
X9915000Y-5275000D01*
X9915000Y-5245000D02*
X9885000Y-5275000D01*
X9885000Y-5785000D02*
X9915000Y-5815000D01*
X9915000Y-5785000D02*
X9885000Y-5815000D01*
X10035000Y-5785000D02*
X10065000Y-5815000D01*
X10065000Y-5785000D02*
X10035000Y-5815000D01*
X10055000Y-3955000D02*
X10085000Y-3985000D01*
X10085000Y-3955000D02*
X10055000Y-3985000D01*
X10155000Y-3405000D02*
X10185000Y-3435000D01*
X10185000Y-3405000D02*
X10155000Y-3435000D01*
X10185000Y-4005000D02*
X10215000Y-4035000D01*
X10215000Y-4005000D02*
X10185000Y-4035000D01*
X10285000Y-3205000D02*
X10315000Y-3235000D01*
X10315000Y-3205000D02*
X10285000Y-3235000D01*
X10465000Y-7095000D02*
X10495000Y-7125000D01*
X10495000Y-7095000D02*
X10465000Y-7125000D01*
X10505000Y-7285000D02*
X10535000Y-7315000D01*
X10535000Y-7285000D02*
X10505000Y-7315000D01*
X10685000Y-3445000D02*
X10715000Y-3475000D01*
X10715000Y-3445000D02*
X10685000Y-3475000D01*
X10775000Y-3315000D02*
X10805000Y-3345000D01*
X10805000Y-3315000D02*
X10775000Y-3345000D01*
X10775000Y-5145000D02*
X10805000Y-5175000D01*
X10805000Y-5145000D02*
X10775000Y-5175000D01*
X10785000Y-5445000D02*
X10815000Y-5475000D01*
X10815000Y-5445000D02*
X10785000Y-5475000D01*
X10785000Y-5745000D02*
X10815000Y-5775000D01*
X10815000Y-5745000D02*
X10785000Y-5775000D01*
X10785000Y-6345000D02*
X10815000Y-6375000D01*
X10815000Y-6345000D02*
X10785000Y-6375000D01*
X10785000Y-6945000D02*
X10815000Y-6975000D01*
X10815000Y-6945000D02*
X10785000Y-6975000D01*
X10785000Y-7245000D02*
X10815000Y-7275000D01*
X10815000Y-7245000D02*
X10785000Y-7275000D01*
X10795000Y-6045000D02*
X10825000Y-6075000D01*
X10825000Y-6045000D02*
X10795000Y-6075000D01*
X10805000Y-6645000D02*
X10835000Y-6675000D01*
X10835000Y-6645000D02*
X10805000Y-6675000D01*
X10845000Y-5385000D02*
X10875000Y-5415000D01*
X10875000Y-5385000D02*
X10845000Y-5415000D01*
X10915000Y-5205000D02*
X10945000Y-5235000D01*
X10945000Y-5205000D02*
X10915000Y-5235000D01*
X10915000Y-5505000D02*
X10945000Y-5535000D01*
X10945000Y-5505000D02*
X10915000Y-5535000D01*
X10915000Y-5805000D02*
X10945000Y-5835000D01*
X10945000Y-5805000D02*
X10915000Y-5835000D01*
X10915000Y-6105000D02*
X10945000Y-6135000D01*
X10945000Y-6105000D02*
X10915000Y-6135000D01*
X10915000Y-6405000D02*
X10945000Y-6435000D01*
X10945000Y-6405000D02*
X10915000Y-6435000D01*
X10915000Y-6705000D02*
X10945000Y-6735000D01*
X10945000Y-6705000D02*
X10915000Y-6735000D01*
X10915000Y-7005000D02*
X10945000Y-7035000D01*
X10945000Y-7005000D02*
X10915000Y-7035000D01*
X10915000Y-7305000D02*
X10945000Y-7335000D01*
X10945000Y-7305000D02*
X10915000Y-7335000D01*
X10975000Y-12735000D02*
X11005000Y-12765000D01*
X11005000Y-12735000D02*
X10975000Y-12765000D01*
X11015000Y-7245000D02*
X11045000Y-7275000D01*
X11045000Y-7245000D02*
X11015000Y-7275000D01*
X11065000Y-15165000D02*
X11095000Y-15195000D01*
X11095000Y-15165000D02*
X11065000Y-15195000D01*
X11125000Y-12855000D02*
X11155000Y-12885000D01*
X11155000Y-12855000D02*
X11125000Y-12885000D01*
X11145000Y-5685000D02*
X11175000Y-5715000D01*
X11175000Y-5685000D02*
X11145000Y-5715000D01*
X11195000Y-12645000D02*
X11225000Y-12675000D01*
X11225000Y-12645000D02*
X11195000Y-12675000D01*
X11215000Y-5205000D02*
X11245000Y-5235000D01*
X11245000Y-5205000D02*
X11215000Y-5235000D01*
X11215000Y-5505000D02*
X11245000Y-5535000D01*
X11245000Y-5505000D02*
X11215000Y-5535000D01*
X11215000Y-5805000D02*
X11245000Y-5835000D01*
X11245000Y-5805000D02*
X11215000Y-5835000D01*
X11215000Y-6105000D02*
X11245000Y-6135000D01*
X11245000Y-6105000D02*
X11215000Y-6135000D01*
X11215000Y-6405000D02*
X11245000Y-6435000D01*
X11245000Y-6405000D02*
X11215000Y-6435000D01*
X11215000Y-6705000D02*
X11245000Y-6735000D01*
X11245000Y-6705000D02*
X11215000Y-6735000D01*
X11215000Y-7005000D02*
X11245000Y-7035000D01*
X11245000Y-7005000D02*
X11215000Y-7035000D01*
X11215000Y-7305000D02*
X11245000Y-7335000D01*
X11245000Y-7305000D02*
X11215000Y-7335000D01*
X11225000Y-13765000D02*
X11255000Y-13795000D01*
X11255000Y-13765000D02*
X11225000Y-13795000D01*
X11295000Y-13875000D02*
X11325000Y-13905000D01*
X11325000Y-13875000D02*
X11295000Y-13905000D01*
X11315000Y-6945000D02*
X11345000Y-6975000D01*
X11345000Y-6945000D02*
X11315000Y-6975000D01*
X11345000Y-13995000D02*
X11375000Y-14025000D01*
X11375000Y-13995000D02*
X11345000Y-14025000D01*
X11365000Y-14115000D02*
X11395000Y-14145000D01*
X11395000Y-14115000D02*
X11365000Y-14145000D01*
X11385000Y-13085000D02*
X11415000Y-13115000D01*
X11415000Y-13085000D02*
X11385000Y-13115000D01*
X11415000Y-14935000D02*
X11445000Y-14965000D01*
X11445000Y-14935000D02*
X11415000Y-14965000D01*
X11445000Y-5985000D02*
X11475000Y-6015000D01*
X11475000Y-5985000D02*
X11445000Y-6015000D01*
X11455000Y-4985000D02*
X11485000Y-5015000D01*
X11485000Y-4985000D02*
X11455000Y-5015000D01*
X11465000Y-3385000D02*
X11495000Y-3415000D01*
X11495000Y-3385000D02*
X11465000Y-3415000D01*
X11515000Y-5205000D02*
X11545000Y-5235000D01*
X11545000Y-5205000D02*
X11515000Y-5235000D01*
X11515000Y-5505000D02*
X11545000Y-5535000D01*
X11545000Y-5505000D02*
X11515000Y-5535000D01*
X11515000Y-5805000D02*
X11545000Y-5835000D01*
X11545000Y-5805000D02*
X11515000Y-5835000D01*
X11515000Y-6105000D02*
X11545000Y-6135000D01*
X11545000Y-6105000D02*
X11515000Y-6135000D01*
X11515000Y-6405000D02*
X11545000Y-6435000D01*
X11545000Y-6405000D02*
X11515000Y-6435000D01*
X11515000Y-6705000D02*
X11545000Y-6735000D01*
X11545000Y-6705000D02*
X11515000Y-6735000D01*
X11515000Y-7005000D02*
X11545000Y-7035000D01*
X11545000Y-7005000D02*
X11515000Y-7035000D01*
X11515000Y-7305000D02*
X11545000Y-7335000D01*
X11545000Y-7305000D02*
X11515000Y-7335000D01*
X11565000Y-14985000D02*
X11595000Y-15015000D01*
X11595000Y-14985000D02*
X11565000Y-15015000D01*
X11615000Y-6645000D02*
X11645000Y-6675000D01*
X11645000Y-6645000D02*
X11615000Y-6675000D01*
X11745000Y-6285000D02*
X11775000Y-6315000D01*
X11775000Y-6285000D02*
X11745000Y-6315000D01*
X11765000Y-15775000D02*
X11795000Y-15805000D01*
X11795000Y-15775000D02*
X11765000Y-15805000D01*
X11805000Y-4985000D02*
X11835000Y-5015000D01*
X11835000Y-4985000D02*
X11805000Y-5015000D01*
X11815000Y-5205000D02*
X11845000Y-5235000D01*
X11845000Y-5205000D02*
X11815000Y-5235000D01*
X11815000Y-5505000D02*
X11845000Y-5535000D01*
X11845000Y-5505000D02*
X11815000Y-5535000D01*
X11815000Y-5805000D02*
X11845000Y-5835000D01*
X11845000Y-5805000D02*
X11815000Y-5835000D01*
X11815000Y-6105000D02*
X11845000Y-6135000D01*
X11845000Y-6105000D02*
X11815000Y-6135000D01*
X11815000Y-6405000D02*
X11845000Y-6435000D01*
X11845000Y-6405000D02*
X11815000Y-6435000D01*
X11815000Y-6705000D02*
X11845000Y-6735000D01*
X11845000Y-6705000D02*
X11815000Y-6735000D01*
X11815000Y-7005000D02*
X11845000Y-7035000D01*
X11845000Y-7005000D02*
X11815000Y-7035000D01*
X11815000Y-7305000D02*
X11845000Y-7335000D01*
X11845000Y-7305000D02*
X11815000Y-7335000D01*
X11915000Y-6345000D02*
X11945000Y-6375000D01*
X11945000Y-6345000D02*
X11915000Y-6375000D01*
X11945000Y-13145000D02*
X11975000Y-13175000D01*
X11975000Y-13145000D02*
X11945000Y-13175000D01*
X11945000Y-15315000D02*
X11975000Y-15345000D01*
X11975000Y-15315000D02*
X11945000Y-15345000D01*
X11975000Y-4485000D02*
X12005000Y-4515000D01*
X12005000Y-4485000D02*
X11975000Y-4515000D01*
X12045000Y-6585000D02*
X12075000Y-6615000D01*
X12075000Y-6585000D02*
X12045000Y-6615000D01*
X12055000Y-4355000D02*
X12085000Y-4385000D01*
X12085000Y-4355000D02*
X12055000Y-4385000D01*
X12085000Y-13435000D02*
X12115000Y-13465000D01*
X12115000Y-13435000D02*
X12085000Y-13465000D01*
X12095000Y-3875000D02*
X12125000Y-3905000D01*
X12125000Y-3875000D02*
X12095000Y-3905000D01*
X12115000Y-5205000D02*
X12145000Y-5235000D01*
X12145000Y-5205000D02*
X12115000Y-5235000D01*
X12115000Y-5505000D02*
X12145000Y-5535000D01*
X12145000Y-5505000D02*
X12115000Y-5535000D01*
X12115000Y-5805000D02*
X12145000Y-5835000D01*
X12145000Y-5805000D02*
X12115000Y-5835000D01*
X12115000Y-6105000D02*
X12145000Y-6135000D01*
X12145000Y-6105000D02*
X12115000Y-6135000D01*
X12115000Y-6405000D02*
X12145000Y-6435000D01*
X12145000Y-6405000D02*
X12115000Y-6435000D01*
X12115000Y-6705000D02*
X12145000Y-6735000D01*
X12145000Y-6705000D02*
X12115000Y-6735000D01*
X12115000Y-7005000D02*
X12145000Y-7035000D01*
X12145000Y-7005000D02*
X12115000Y-7035000D01*
X12115000Y-7305000D02*
X12145000Y-7335000D01*
X12145000Y-7305000D02*
X12115000Y-7335000D01*
X12155000Y-4985000D02*
X12185000Y-5015000D01*
X12185000Y-4985000D02*
X12155000Y-5015000D01*
X12165000Y-3385000D02*
X12195000Y-3415000D01*
X12195000Y-3385000D02*
X12165000Y-3415000D01*
X12215000Y-6045000D02*
X12245000Y-6075000D01*
X12245000Y-6045000D02*
X12215000Y-6075000D01*
X12315000Y-13235000D02*
X12345000Y-13265000D01*
X12345000Y-13235000D02*
X12315000Y-13265000D01*
X12345000Y-3705000D02*
X12375000Y-3735000D01*
X12375000Y-3705000D02*
X12345000Y-3735000D01*
X12345000Y-6885000D02*
X12375000Y-6915000D01*
X12375000Y-6885000D02*
X12345000Y-6915000D01*
X12415000Y-5205000D02*
X12445000Y-5235000D01*
X12445000Y-5205000D02*
X12415000Y-5235000D01*
X12415000Y-5505000D02*
X12445000Y-5535000D01*
X12445000Y-5505000D02*
X12415000Y-5535000D01*
X12415000Y-5805000D02*
X12445000Y-5835000D01*
X12445000Y-5805000D02*
X12415000Y-5835000D01*
X12415000Y-6105000D02*
X12445000Y-6135000D01*
X12445000Y-6105000D02*
X12415000Y-6135000D01*
X12415000Y-6405000D02*
X12445000Y-6435000D01*
X12445000Y-6405000D02*
X12415000Y-6435000D01*
X12415000Y-6705000D02*
X12445000Y-6735000D01*
X12445000Y-6705000D02*
X12415000Y-6735000D01*
X12415000Y-7005000D02*
X12445000Y-7035000D01*
X12445000Y-7005000D02*
X12415000Y-7035000D01*
X12415000Y-7305000D02*
X12445000Y-7335000D01*
X12445000Y-7305000D02*
X12415000Y-7335000D01*
X12485000Y-12335000D02*
X12515000Y-12365000D01*
X12515000Y-12335000D02*
X12485000Y-12365000D01*
X12495000Y-3695000D02*
X12525000Y-3725000D01*
X12525000Y-3695000D02*
X12495000Y-3725000D01*
X12505000Y-4985000D02*
X12535000Y-5015000D01*
X12535000Y-4985000D02*
X12505000Y-5015000D01*
X12515000Y-15265000D02*
X12545000Y-15295000D01*
X12545000Y-15265000D02*
X12515000Y-15295000D01*
X12515000Y-5745000D02*
X12545000Y-5775000D01*
X12545000Y-5745000D02*
X12515000Y-5775000D01*
X12535000Y-15145000D02*
X12565000Y-15175000D01*
X12565000Y-15145000D02*
X12535000Y-15175000D01*
X12585000Y-15485000D02*
X12615000Y-15515000D01*
X12615000Y-15485000D02*
X12585000Y-15515000D01*
X12645000Y-7185000D02*
X12675000Y-7215000D01*
X12675000Y-7185000D02*
X12645000Y-7215000D01*
X12655000Y-4065000D02*
X12685000Y-4095000D01*
X12685000Y-4065000D02*
X12655000Y-4095000D01*
X12715000Y-5205000D02*
X12745000Y-5235000D01*
X12745000Y-5205000D02*
X12715000Y-5235000D01*
X12715000Y-5505000D02*
X12745000Y-5535000D01*
X12745000Y-5505000D02*
X12715000Y-5535000D01*
X12715000Y-5805000D02*
X12745000Y-5835000D01*
X12745000Y-5805000D02*
X12715000Y-5835000D01*
X12715000Y-6105000D02*
X12745000Y-6135000D01*
X12745000Y-6105000D02*
X12715000Y-6135000D01*
X12715000Y-6405000D02*
X12745000Y-6435000D01*
X12745000Y-6405000D02*
X12715000Y-6435000D01*
X12715000Y-6705000D02*
X12745000Y-6735000D01*
X12745000Y-6705000D02*
X12715000Y-6735000D01*
X12715000Y-7005000D02*
X12745000Y-7035000D01*
X12745000Y-7005000D02*
X12715000Y-7035000D01*
X12715000Y-7305000D02*
X12745000Y-7335000D01*
X12745000Y-7305000D02*
X12715000Y-7335000D01*
X12725000Y-3685000D02*
X12755000Y-3715000D01*
X12755000Y-3685000D02*
X12725000Y-3715000D01*
X12815000Y-5445000D02*
X12845000Y-5475000D01*
X12845000Y-5445000D02*
X12815000Y-5475000D01*
X12855000Y-4985000D02*
X12885000Y-5015000D01*
X12885000Y-4985000D02*
X12855000Y-5015000D01*
X12945000Y-7485000D02*
X12975000Y-7515000D01*
X12975000Y-7485000D02*
X12945000Y-7515000D01*
X13015000Y-5205000D02*
X13045000Y-5235000D01*
X13045000Y-5205000D02*
X13015000Y-5235000D01*
X13015000Y-5505000D02*
X13045000Y-5535000D01*
X13045000Y-5505000D02*
X13015000Y-5535000D01*
X13015000Y-5805000D02*
X13045000Y-5835000D01*
X13045000Y-5805000D02*
X13015000Y-5835000D01*
X13015000Y-6105000D02*
X13045000Y-6135000D01*
X13045000Y-6105000D02*
X13015000Y-6135000D01*
X13015000Y-6405000D02*
X13045000Y-6435000D01*
X13045000Y-6405000D02*
X13015000Y-6435000D01*
X13015000Y-6705000D02*
X13045000Y-6735000D01*
X13045000Y-6705000D02*
X13015000Y-6735000D01*
X13015000Y-7005000D02*
X13045000Y-7035000D01*
X13045000Y-7005000D02*
X13015000Y-7035000D01*
X13015000Y-7305000D02*
X13045000Y-7335000D01*
X13045000Y-7305000D02*
X13015000Y-7335000D01*
X13115000Y-5145000D02*
X13145000Y-5175000D01*
X13145000Y-5145000D02*
X13115000Y-5175000D01*
X13205000Y-4915000D02*
X13235000Y-4945000D01*
X13235000Y-4915000D02*
X13205000Y-4945000D01*
X13245000Y-5385000D02*
X13275000Y-5415000D01*
X13275000Y-5385000D02*
X13245000Y-5415000D01*
X13315000Y-5205000D02*
X13345000Y-5235000D01*
X13345000Y-5205000D02*
X13315000Y-5235000D01*
X13315000Y-5505000D02*
X13345000Y-5535000D01*
X13345000Y-5505000D02*
X13315000Y-5535000D01*
X13315000Y-5805000D02*
X13345000Y-5835000D01*
X13345000Y-5805000D02*
X13315000Y-5835000D01*
X13315000Y-6105000D02*
X13345000Y-6135000D01*
X13345000Y-6105000D02*
X13315000Y-6135000D01*
X13315000Y-6405000D02*
X13345000Y-6435000D01*
X13345000Y-6405000D02*
X13315000Y-6435000D01*
X13315000Y-6705000D02*
X13345000Y-6735000D01*
X13345000Y-6705000D02*
X13315000Y-6735000D01*
X13315000Y-7005000D02*
X13345000Y-7035000D01*
X13345000Y-7005000D02*
X13315000Y-7035000D01*
X13315000Y-7305000D02*
X13345000Y-7335000D01*
X13345000Y-7305000D02*
X13315000Y-7335000D01*
X13365000Y-4055000D02*
X13395000Y-4085000D01*
X13395000Y-4055000D02*
X13365000Y-4085000D01*
X13545000Y-5685000D02*
X13575000Y-5715000D01*
X13575000Y-5685000D02*
X13545000Y-5715000D01*
X13555000Y-4915000D02*
X13585000Y-4945000D01*
X13585000Y-4915000D02*
X13555000Y-4945000D01*
X13615000Y-5205000D02*
X13645000Y-5235000D01*
X13645000Y-5205000D02*
X13615000Y-5235000D01*
X13615000Y-5505000D02*
X13645000Y-5535000D01*
X13645000Y-5505000D02*
X13615000Y-5535000D01*
X13615000Y-5805000D02*
X13645000Y-5835000D01*
X13645000Y-5805000D02*
X13615000Y-5835000D01*
X13615000Y-6105000D02*
X13645000Y-6135000D01*
X13645000Y-6105000D02*
X13615000Y-6135000D01*
X13615000Y-6405000D02*
X13645000Y-6435000D01*
X13645000Y-6405000D02*
X13615000Y-6435000D01*
X13615000Y-6705000D02*
X13645000Y-6735000D01*
X13645000Y-6705000D02*
X13615000Y-6735000D01*
X13615000Y-7005000D02*
X13645000Y-7035000D01*
X13645000Y-7005000D02*
X13615000Y-7035000D01*
X13615000Y-7305000D02*
X13645000Y-7335000D01*
X13645000Y-7305000D02*
X13615000Y-7335000D01*
X13645000Y-3935000D02*
X13675000Y-3965000D01*
X13675000Y-3935000D02*
X13645000Y-3965000D01*
X13845000Y-5985000D02*
X13875000Y-6015000D01*
X13875000Y-5985000D02*
X13845000Y-6015000D01*
X13905000Y-4915000D02*
X13935000Y-4945000D01*
X13935000Y-4915000D02*
X13905000Y-4945000D01*
X13915000Y-5205000D02*
X13945000Y-5235000D01*
X13945000Y-5205000D02*
X13915000Y-5235000D01*
X13915000Y-5505000D02*
X13945000Y-5535000D01*
X13945000Y-5505000D02*
X13915000Y-5535000D01*
X13915000Y-5805000D02*
X13945000Y-5835000D01*
X13945000Y-5805000D02*
X13915000Y-5835000D01*
X13915000Y-6105000D02*
X13945000Y-6135000D01*
X13945000Y-6105000D02*
X13915000Y-6135000D01*
X13915000Y-6405000D02*
X13945000Y-6435000D01*
X13945000Y-6405000D02*
X13915000Y-6435000D01*
X13915000Y-6705000D02*
X13945000Y-6735000D01*
X13945000Y-6705000D02*
X13915000Y-6735000D01*
X13915000Y-7005000D02*
X13945000Y-7035000D01*
X13945000Y-7005000D02*
X13915000Y-7035000D01*
X13915000Y-7305000D02*
X13945000Y-7335000D01*
X13945000Y-7305000D02*
X13915000Y-7335000D01*
X13975000Y-3845000D02*
X14005000Y-3875000D01*
X14005000Y-3845000D02*
X13975000Y-3875000D01*
X13975000Y-3965000D02*
X14005000Y-3995000D01*
X14005000Y-3965000D02*
X13975000Y-3995000D01*
X13975000Y-4085000D02*
X14005000Y-4115000D01*
X14005000Y-4085000D02*
X13975000Y-4115000D01*
X14145000Y-6285000D02*
X14175000Y-6315000D01*
X14175000Y-6285000D02*
X14145000Y-6315000D01*
X14215000Y-5205000D02*
X14245000Y-5235000D01*
X14245000Y-5205000D02*
X14215000Y-5235000D01*
X14215000Y-5505000D02*
X14245000Y-5535000D01*
X14245000Y-5505000D02*
X14215000Y-5535000D01*
X14215000Y-5805000D02*
X14245000Y-5835000D01*
X14245000Y-5805000D02*
X14215000Y-5835000D01*
X14215000Y-6105000D02*
X14245000Y-6135000D01*
X14245000Y-6105000D02*
X14215000Y-6135000D01*
X14215000Y-6405000D02*
X14245000Y-6435000D01*
X14245000Y-6405000D02*
X14215000Y-6435000D01*
X14215000Y-6705000D02*
X14245000Y-6735000D01*
X14245000Y-6705000D02*
X14215000Y-6735000D01*
X14215000Y-7005000D02*
X14245000Y-7035000D01*
X14245000Y-7005000D02*
X14215000Y-7035000D01*
X14215000Y-7305000D02*
X14245000Y-7335000D01*
X14245000Y-7305000D02*
X14215000Y-7335000D01*
X14255000Y-4915000D02*
X14285000Y-4945000D01*
X14285000Y-4915000D02*
X14255000Y-4945000D01*
X14335000Y-4285000D02*
X14365000Y-4315000D01*
X14365000Y-4285000D02*
X14335000Y-4315000D01*
X14355000Y-14395000D02*
X14385000Y-14425000D01*
X14385000Y-14395000D02*
X14355000Y-14425000D01*
X14385000Y-13155000D02*
X14415000Y-13185000D01*
X14415000Y-13155000D02*
X14385000Y-13185000D01*
X14395000Y-3265000D02*
X14425000Y-3295000D01*
X14425000Y-3265000D02*
X14395000Y-3295000D01*
X14445000Y-6585000D02*
X14475000Y-6615000D01*
X14475000Y-6585000D02*
X14445000Y-6615000D01*
X14475000Y-4285000D02*
X14505000Y-4315000D01*
X14505000Y-4285000D02*
X14475000Y-4315000D01*
X14515000Y-5205000D02*
X14545000Y-5235000D01*
X14545000Y-5205000D02*
X14515000Y-5235000D01*
X14515000Y-5505000D02*
X14545000Y-5535000D01*
X14545000Y-5505000D02*
X14515000Y-5535000D01*
X14515000Y-5805000D02*
X14545000Y-5835000D01*
X14545000Y-5805000D02*
X14515000Y-5835000D01*
X14515000Y-6105000D02*
X14545000Y-6135000D01*
X14545000Y-6105000D02*
X14515000Y-6135000D01*
X14515000Y-6405000D02*
X14545000Y-6435000D01*
X14545000Y-6405000D02*
X14515000Y-6435000D01*
X14515000Y-6705000D02*
X14545000Y-6735000D01*
X14545000Y-6705000D02*
X14515000Y-6735000D01*
X14515000Y-7005000D02*
X14545000Y-7035000D01*
X14545000Y-7005000D02*
X14515000Y-7035000D01*
X14515000Y-7305000D02*
X14545000Y-7335000D01*
X14545000Y-7305000D02*
X14515000Y-7335000D01*
X14605000Y-4905000D02*
X14635000Y-4935000D01*
X14635000Y-4905000D02*
X14605000Y-4935000D01*
X14625000Y-14585000D02*
X14655000Y-14615000D01*
X14655000Y-14585000D02*
X14625000Y-14615000D01*
X14735000Y-14555000D02*
X14765000Y-14585000D01*
X14765000Y-14555000D02*
X14735000Y-14585000D01*
X14745000Y-6885000D02*
X14775000Y-6915000D01*
X14775000Y-6885000D02*
X14745000Y-6915000D01*
X14765000Y-12945000D02*
X14795000Y-12975000D01*
X14795000Y-12945000D02*
X14765000Y-12975000D01*
X14815000Y-5205000D02*
X14845000Y-5235000D01*
X14845000Y-5205000D02*
X14815000Y-5235000D01*
X14815000Y-5505000D02*
X14845000Y-5535000D01*
X14845000Y-5505000D02*
X14815000Y-5535000D01*
X14815000Y-5805000D02*
X14845000Y-5835000D01*
X14845000Y-5805000D02*
X14815000Y-5835000D01*
X14815000Y-6105000D02*
X14845000Y-6135000D01*
X14845000Y-6105000D02*
X14815000Y-6135000D01*
X14815000Y-6405000D02*
X14845000Y-6435000D01*
X14845000Y-6405000D02*
X14815000Y-6435000D01*
X14815000Y-6705000D02*
X14845000Y-6735000D01*
X14845000Y-6705000D02*
X14815000Y-6735000D01*
X14815000Y-7005000D02*
X14845000Y-7035000D01*
X14845000Y-7005000D02*
X14815000Y-7035000D01*
X14815000Y-7305000D02*
X14845000Y-7335000D01*
X14845000Y-7305000D02*
X14815000Y-7335000D01*
X14895000Y-12635000D02*
X14925000Y-12665000D01*
X14925000Y-12635000D02*
X14895000Y-12665000D01*
X14905000Y-12365000D02*
X14935000Y-12395000D01*
X14935000Y-12365000D02*
X14905000Y-12395000D01*
X14935000Y-11185000D02*
X14965000Y-11215000D01*
X14965000Y-11185000D02*
X14935000Y-11215000D01*
X14935000Y-11585000D02*
X14965000Y-11615000D01*
X14965000Y-11585000D02*
X14935000Y-11615000D01*
X14955000Y-4905000D02*
X14985000Y-4935000D01*
X14985000Y-4905000D02*
X14955000Y-4935000D01*
X15045000Y-7185000D02*
X15075000Y-7215000D01*
X15075000Y-7185000D02*
X15045000Y-7215000D01*
X15115000Y-5205000D02*
X15145000Y-5235000D01*
X15145000Y-5205000D02*
X15115000Y-5235000D01*
X15115000Y-5505000D02*
X15145000Y-5535000D01*
X15145000Y-5505000D02*
X15115000Y-5535000D01*
X15115000Y-5805000D02*
X15145000Y-5835000D01*
X15145000Y-5805000D02*
X15115000Y-5835000D01*
X15115000Y-6105000D02*
X15145000Y-6135000D01*
X15145000Y-6105000D02*
X15115000Y-6135000D01*
X15115000Y-6405000D02*
X15145000Y-6435000D01*
X15145000Y-6405000D02*
X15115000Y-6435000D01*
X15115000Y-6705000D02*
X15145000Y-6735000D01*
X15145000Y-6705000D02*
X15115000Y-6735000D01*
X15115000Y-7005000D02*
X15145000Y-7035000D01*
X15145000Y-7005000D02*
X15115000Y-7035000D01*
X15115000Y-7305000D02*
X15145000Y-7335000D01*
X15145000Y-7305000D02*
X15115000Y-7335000D01*
X15235000Y-12525000D02*
X15265000Y-12555000D01*
X15265000Y-12525000D02*
X15235000Y-12555000D01*
X15255000Y-12775000D02*
X15285000Y-12805000D01*
X15285000Y-12775000D02*
X15255000Y-12805000D01*
X15285000Y-11985000D02*
X15315000Y-12015000D01*
X15315000Y-11985000D02*
X15285000Y-12015000D01*
X15295000Y-4415000D02*
X15325000Y-4445000D01*
X15325000Y-4415000D02*
X15295000Y-4445000D01*
X15325000Y-12425000D02*
X15355000Y-12455000D01*
X15355000Y-12425000D02*
X15325000Y-12455000D01*
X15325000Y-13315000D02*
X15355000Y-13345000D01*
X15355000Y-13315000D02*
X15325000Y-13345000D01*
X15345000Y-4065000D02*
X15375000Y-4095000D01*
X15375000Y-4065000D02*
X15345000Y-4095000D01*
X15345000Y-7485000D02*
X15375000Y-7515000D01*
X15375000Y-7485000D02*
X15345000Y-7515000D01*
X15375000Y-3725000D02*
X15405000Y-3755000D01*
X15405000Y-3725000D02*
X15375000Y-3755000D01*
X15395000Y-3385000D02*
X15425000Y-3415000D01*
X15425000Y-3385000D02*
X15395000Y-3415000D01*
X15415000Y-3065000D02*
X15445000Y-3095000D01*
X15445000Y-3065000D02*
X15415000Y-3095000D01*
X15415000Y-5505000D02*
X15445000Y-5535000D01*
X15445000Y-5505000D02*
X15415000Y-5535000D01*
X15415000Y-5805000D02*
X15445000Y-5835000D01*
X15445000Y-5805000D02*
X15415000Y-5835000D01*
X15415000Y-6105000D02*
X15445000Y-6135000D01*
X15445000Y-6105000D02*
X15415000Y-6135000D01*
X15415000Y-6405000D02*
X15445000Y-6435000D01*
X15445000Y-6405000D02*
X15415000Y-6435000D01*
X15415000Y-6705000D02*
X15445000Y-6735000D01*
X15445000Y-6705000D02*
X15415000Y-6735000D01*
X15415000Y-7005000D02*
X15445000Y-7035000D01*
X15445000Y-7005000D02*
X15415000Y-7035000D01*
X15415000Y-7305000D02*
X15445000Y-7335000D01*
X15445000Y-7305000D02*
X15415000Y-7335000D01*
X15425000Y-5205000D02*
X15455000Y-5235000D01*
X15455000Y-5205000D02*
X15425000Y-5235000D01*
X15465000Y-12435000D02*
X15495000Y-12465000D01*
X15495000Y-12435000D02*
X15465000Y-12465000D01*
X7753000Y-6167000D02*
G75*
G02*
X7673000Y-6167000I-40000J0D01*
G01*
X7673000Y-6167000D02*
G75*
G02*
X7753000Y-6167000I40000J0D01*
G01*
X7683000Y-6207000D02*
X7743000Y-6207000D01*
X7743000Y-6127000D02*
G75*
G02*
X7743000Y-6207000I0J-40000D01*
G01*
X7743000Y-6127000D02*
X7683000Y-6127000D01*
X7683000Y-6127000D02*
G75*
G03*
X7683000Y-6207000I0J-40000D01*
G01*
X7753000Y-7033000D02*
G75*
G02*
X7673000Y-7033000I-40000J0D01*
G01*
X7673000Y-7033000D02*
G75*
G02*
X7753000Y-7033000I40000J0D01*
G01*
X7683000Y-7073000D02*
X7743000Y-7073000D01*
X7743000Y-6993000D02*
G75*
G02*
X7743000Y-7073000I0J-40000D01*
G01*
X7743000Y-6993000D02*
X7683000Y-6993000D01*
X7683000Y-6993000D02*
G75*
G03*
X7683000Y-7073000I0J-40000D01*
G01*
X8171000Y-6167000D02*
G75*
G02*
X8091000Y-6167000I-40000J0D01*
G01*
X8091000Y-6167000D02*
G75*
G02*
X8171000Y-6167000I40000J0D01*
G01*
X8091001Y-6207000D02*
X8170999Y-6207000D01*
X8170999Y-6127000D02*
G75*
G02*
X8170999Y-6207000I0J-40000D01*
G01*
X8170999Y-6127000D02*
X8091001Y-6127000D01*
X8091001Y-6127000D02*
G75*
G03*
X8091001Y-6207000I0J-40000D01*
G01*
X8171000Y-7033000D02*
G75*
G02*
X8091000Y-7033000I-40000J0D01*
G01*
X8091000Y-7033000D02*
G75*
G02*
X8171000Y-7033000I40000J0D01*
G01*
X8090999Y-7073000D02*
X8171001Y-7073000D01*
X8171001Y-6993000D02*
G75*
G02*
X8171001Y-7073000I0J-40000D01*
G01*
X8171001Y-6993000D02*
X8090999Y-6993000D01*
X8090999Y-6993000D02*
G75*
G03*
X8090999Y-7073000I0J-40000D01*
G01*
X7600000Y-4850000D02*
X7600000Y-4950000D01*
X7550000Y-4900000D02*
X7650000Y-4900000D01*
X7600000Y-5104000D02*
X7600000Y-5204000D01*
X7550000Y-5154000D02*
X7650000Y-5154000D01*
X7600000Y-5358000D02*
X7600000Y-5458000D01*
X7550000Y-5408000D02*
X7650000Y-5408000D01*
X7600000Y-5612000D02*
X7600000Y-5712000D01*
X7550000Y-5662000D02*
X7650000Y-5662000D01*
X9150000Y-3400000D02*
X9150000Y-3500000D01*
X9100000Y-3450000D02*
X9200000Y-3450000D01*
X9404000Y-3400000D02*
X9404000Y-3500000D01*
X9354000Y-3450000D02*
X9454000Y-3450000D01*
X9658000Y-3400000D02*
X9658000Y-3500000D01*
X9608000Y-3450000D02*
X9708000Y-3450000D01*
X11700000Y-4096000D02*
X11700000Y-4196000D01*
X11650000Y-4146000D02*
X11750000Y-4146000D01*
X11700000Y-4350000D02*
X11700000Y-4450000D01*
X11650000Y-4400000D02*
X11750000Y-4400000D01*
X13350000Y-3400000D02*
X13350000Y-3500000D01*
X13300000Y-3450000D02*
X13400000Y-3450000D01*
X13604000Y-3400000D02*
X13604000Y-3500000D01*
X13554000Y-3450000D02*
X13654000Y-3450000D01*
X13858000Y-3400000D02*
X13858000Y-3500000D01*
X13808000Y-3450000D02*
X13908000Y-3450000D01*
D12*
X12021122Y-14686872D02*
X12021122Y-14563128D01*
X11897378Y-14563128D01*
X11897378Y-14686872D01*
X12021122Y-14686872D01*
X12409122Y-14686872D02*
X12409122Y-14563128D01*
X12285378Y-14563128D01*
X12285378Y-14686872D01*
X12409122Y-14686872D01*
D11*
X7655777Y-16516484D02*
X7655777Y-16316484D01*
X7655777Y-16316484D02*
X7703396Y-16316484D01*
X7703396Y-16316484D02*
X7731967Y-16326008D01*
X7731967Y-16326008D02*
X7751015Y-16345055D01*
X7751015Y-16345055D02*
X7760539Y-16364103D01*
X7760539Y-16364103D02*
X7770063Y-16402198D01*
X7770063Y-16402198D02*
X7770063Y-16430769D01*
X7770063Y-16430769D02*
X7760539Y-16468865D01*
X7760539Y-16468865D02*
X7751015Y-16487912D01*
X7751015Y-16487912D02*
X7731967Y-16506960D01*
X7731967Y-16506960D02*
X7703396Y-16516484D01*
X7703396Y-16516484D02*
X7655777Y-16516484D01*
X7855777Y-16516484D02*
X7855777Y-16383150D01*
X7855777Y-16421246D02*
X7865301Y-16402198D01*
X7865301Y-16402198D02*
X7874825Y-16392674D01*
X7874825Y-16392674D02*
X7893872Y-16383150D01*
X7893872Y-16383150D02*
X7912920Y-16383150D01*
X7979586Y-16516484D02*
X7979586Y-16383150D01*
X7979586Y-16316484D02*
X7970063Y-16326008D01*
X7970063Y-16326008D02*
X7979586Y-16335531D01*
X7979586Y-16335531D02*
X7989110Y-16326008D01*
X7989110Y-16326008D02*
X7979586Y-16316484D01*
X7979586Y-16316484D02*
X7979586Y-16335531D01*
X8103396Y-16516484D02*
X8084348Y-16506960D01*
X8084348Y-16506960D02*
X8074825Y-16487912D01*
X8074825Y-16487912D02*
X8074825Y-16316484D01*
X8208158Y-16516484D02*
X8189110Y-16506960D01*
X8189110Y-16506960D02*
X8179586Y-16487912D01*
X8179586Y-16487912D02*
X8179586Y-16316484D01*
X8436729Y-16516484D02*
X8436729Y-16316484D01*
X8436729Y-16316484D02*
X8503396Y-16459341D01*
X8503396Y-16459341D02*
X8570063Y-16316484D01*
X8570063Y-16316484D02*
X8570063Y-16516484D01*
X8751015Y-16516484D02*
X8751015Y-16411722D01*
X8751015Y-16411722D02*
X8741491Y-16392674D01*
X8741491Y-16392674D02*
X8722444Y-16383150D01*
X8722444Y-16383150D02*
X8684348Y-16383150D01*
X8684348Y-16383150D02*
X8665301Y-16392674D01*
X8751015Y-16506960D02*
X8731968Y-16516484D01*
X8731968Y-16516484D02*
X8684348Y-16516484D01*
X8684348Y-16516484D02*
X8665301Y-16506960D01*
X8665301Y-16506960D02*
X8655777Y-16487912D01*
X8655777Y-16487912D02*
X8655777Y-16468865D01*
X8655777Y-16468865D02*
X8665301Y-16449817D01*
X8665301Y-16449817D02*
X8684348Y-16440293D01*
X8684348Y-16440293D02*
X8731968Y-16440293D01*
X8731968Y-16440293D02*
X8751015Y-16430769D01*
X8846253Y-16383150D02*
X8846253Y-16583150D01*
X8846253Y-16392674D02*
X8865301Y-16383150D01*
X8865301Y-16383150D02*
X8903396Y-16383150D01*
X8903396Y-16383150D02*
X8922444Y-16392674D01*
X8922444Y-16392674D02*
X8931968Y-16402198D01*
X8931968Y-16402198D02*
X8941491Y-16421246D01*
X8941491Y-16421246D02*
X8941491Y-16478388D01*
X8941491Y-16478388D02*
X8931968Y-16497436D01*
X8931968Y-16497436D02*
X8922444Y-16506960D01*
X8922444Y-16506960D02*
X8903396Y-16516484D01*
X8903396Y-16516484D02*
X8865301Y-16516484D01*
X8865301Y-16516484D02*
X8846253Y-16506960D01*
X9027206Y-16497436D02*
X9036729Y-16506960D01*
X9036729Y-16506960D02*
X9027206Y-16516484D01*
X9027206Y-16516484D02*
X9017682Y-16506960D01*
X9017682Y-16506960D02*
X9027206Y-16497436D01*
X9027206Y-16497436D02*
X9027206Y-16516484D01*
X9027206Y-16392674D02*
X9036729Y-16402198D01*
X9036729Y-16402198D02*
X9027206Y-16411722D01*
X9027206Y-16411722D02*
X9017682Y-16402198D01*
X9017682Y-16402198D02*
X9027206Y-16392674D01*
X9027206Y-16392674D02*
X9027206Y-16411722D01*
D10*
X7365000Y-16830000D02*
X7395000Y-16860000D01*
X7395000Y-16830000D02*
X7365000Y-16860000D01*
D11*
X7693872Y-16736484D02*
X7712920Y-16736484D01*
X7712920Y-16736484D02*
X7731967Y-16746008D01*
X7731967Y-16746008D02*
X7741491Y-16755531D01*
X7741491Y-16755531D02*
X7751015Y-16774579D01*
X7751015Y-16774579D02*
X7760539Y-16812674D01*
X7760539Y-16812674D02*
X7760539Y-16860293D01*
X7760539Y-16860293D02*
X7751015Y-16898389D01*
X7751015Y-16898389D02*
X7741491Y-16917436D01*
X7741491Y-16917436D02*
X7731967Y-16926960D01*
X7731967Y-16926960D02*
X7712920Y-16936484D01*
X7712920Y-16936484D02*
X7693872Y-16936484D01*
X7693872Y-16936484D02*
X7674825Y-16926960D01*
X7674825Y-16926960D02*
X7665301Y-16917436D01*
X7665301Y-16917436D02*
X7655777Y-16898389D01*
X7655777Y-16898389D02*
X7646253Y-16860293D01*
X7646253Y-16860293D02*
X7646253Y-16812674D01*
X7646253Y-16812674D02*
X7655777Y-16774579D01*
X7655777Y-16774579D02*
X7665301Y-16755531D01*
X7665301Y-16755531D02*
X7674825Y-16746008D01*
X7674825Y-16746008D02*
X7693872Y-16736484D01*
X7846253Y-16917436D02*
X7855777Y-16926960D01*
X7855777Y-16926960D02*
X7846253Y-16936484D01*
X7846253Y-16936484D02*
X7836729Y-16926960D01*
X7836729Y-16926960D02*
X7846253Y-16917436D01*
X7846253Y-16917436D02*
X7846253Y-16936484D01*
X7922444Y-16736484D02*
X8046253Y-16736484D01*
X8046253Y-16736484D02*
X7979586Y-16812674D01*
X7979586Y-16812674D02*
X8008158Y-16812674D01*
X8008158Y-16812674D02*
X8027206Y-16822198D01*
X8027206Y-16822198D02*
X8036729Y-16831722D01*
X8036729Y-16831722D02*
X8046253Y-16850770D01*
X8046253Y-16850770D02*
X8046253Y-16898389D01*
X8046253Y-16898389D02*
X8036729Y-16917436D01*
X8036729Y-16917436D02*
X8027206Y-16926960D01*
X8027206Y-16926960D02*
X8008158Y-16936484D01*
X8008158Y-16936484D02*
X7951015Y-16936484D01*
X7951015Y-16936484D02*
X7931967Y-16926960D01*
X7931967Y-16926960D02*
X7922444Y-16917436D01*
X8170063Y-16736484D02*
X8189110Y-16736484D01*
X8189110Y-16736484D02*
X8208158Y-16746008D01*
X8208158Y-16746008D02*
X8217682Y-16755531D01*
X8217682Y-16755531D02*
X8227206Y-16774579D01*
X8227206Y-16774579D02*
X8236729Y-16812674D01*
X8236729Y-16812674D02*
X8236729Y-16860293D01*
X8236729Y-16860293D02*
X8227206Y-16898389D01*
X8227206Y-16898389D02*
X8217682Y-16917436D01*
X8217682Y-16917436D02*
X8208158Y-16926960D01*
X8208158Y-16926960D02*
X8189110Y-16936484D01*
X8189110Y-16936484D02*
X8170063Y-16936484D01*
X8170063Y-16936484D02*
X8151015Y-16926960D01*
X8151015Y-16926960D02*
X8141491Y-16917436D01*
X8141491Y-16917436D02*
X8131967Y-16898389D01*
X8131967Y-16898389D02*
X8122444Y-16860293D01*
X8122444Y-16860293D02*
X8122444Y-16812674D01*
X8122444Y-16812674D02*
X8131967Y-16774579D01*
X8131967Y-16774579D02*
X8141491Y-16755531D01*
X8141491Y-16755531D02*
X8151015Y-16746008D01*
X8151015Y-16746008D02*
X8170063Y-16736484D01*
X8360539Y-16736484D02*
X8379587Y-16736484D01*
X8379587Y-16736484D02*
X8398634Y-16746008D01*
X8398634Y-16746008D02*
X8408158Y-16755531D01*
X8408158Y-16755531D02*
X8417682Y-16774579D01*
X8417682Y-16774579D02*
X8427206Y-16812674D01*
X8427206Y-16812674D02*
X8427206Y-16860293D01*
X8427206Y-16860293D02*
X8417682Y-16898389D01*
X8417682Y-16898389D02*
X8408158Y-16917436D01*
X8408158Y-16917436D02*
X8398634Y-16926960D01*
X8398634Y-16926960D02*
X8379587Y-16936484D01*
X8379587Y-16936484D02*
X8360539Y-16936484D01*
X8360539Y-16936484D02*
X8341491Y-16926960D01*
X8341491Y-16926960D02*
X8331967Y-16917436D01*
X8331967Y-16917436D02*
X8322444Y-16898389D01*
X8322444Y-16898389D02*
X8312920Y-16860293D01*
X8312920Y-16860293D02*
X8312920Y-16812674D01*
X8312920Y-16812674D02*
X8322444Y-16774579D01*
X8322444Y-16774579D02*
X8331967Y-16755531D01*
X8331967Y-16755531D02*
X8341491Y-16746008D01*
X8341491Y-16746008D02*
X8360539Y-16736484D01*
X8512920Y-16936484D02*
X8512920Y-16803150D01*
X8512920Y-16822198D02*
X8522444Y-16812674D01*
X8522444Y-16812674D02*
X8541491Y-16803150D01*
X8541491Y-16803150D02*
X8570063Y-16803150D01*
X8570063Y-16803150D02*
X8589110Y-16812674D01*
X8589110Y-16812674D02*
X8598634Y-16831722D01*
X8598634Y-16831722D02*
X8598634Y-16936484D01*
X8598634Y-16831722D02*
X8608158Y-16812674D01*
X8608158Y-16812674D02*
X8627206Y-16803150D01*
X8627206Y-16803150D02*
X8655777Y-16803150D01*
X8655777Y-16803150D02*
X8674825Y-16812674D01*
X8674825Y-16812674D02*
X8684349Y-16831722D01*
X8684349Y-16831722D02*
X8684349Y-16936484D01*
X8779587Y-16936484D02*
X8779587Y-16803150D01*
X8779587Y-16822198D02*
X8789110Y-16812674D01*
X8789110Y-16812674D02*
X8808158Y-16803150D01*
X8808158Y-16803150D02*
X8836730Y-16803150D01*
X8836730Y-16803150D02*
X8855777Y-16812674D01*
X8855777Y-16812674D02*
X8865301Y-16831722D01*
X8865301Y-16831722D02*
X8865301Y-16936484D01*
X8865301Y-16831722D02*
X8874825Y-16812674D01*
X8874825Y-16812674D02*
X8893872Y-16803150D01*
X8893872Y-16803150D02*
X8922444Y-16803150D01*
X8922444Y-16803150D02*
X8941491Y-16812674D01*
X8941491Y-16812674D02*
X8951015Y-16831722D01*
X8951015Y-16831722D02*
X8951015Y-16936484D01*
X9341491Y-16726960D02*
X9170063Y-16984103D01*
X9598634Y-16736484D02*
X9617682Y-16736484D01*
X9617682Y-16736484D02*
X9636730Y-16746008D01*
X9636730Y-16746008D02*
X9646253Y-16755531D01*
X9646253Y-16755531D02*
X9655777Y-16774579D01*
X9655777Y-16774579D02*
X9665301Y-16812674D01*
X9665301Y-16812674D02*
X9665301Y-16860293D01*
X9665301Y-16860293D02*
X9655777Y-16898389D01*
X9655777Y-16898389D02*
X9646253Y-16917436D01*
X9646253Y-16917436D02*
X9636730Y-16926960D01*
X9636730Y-16926960D02*
X9617682Y-16936484D01*
X9617682Y-16936484D02*
X9598634Y-16936484D01*
X9598634Y-16936484D02*
X9579587Y-16926960D01*
X9579587Y-16926960D02*
X9570063Y-16917436D01*
X9570063Y-16917436D02*
X9560539Y-16898389D01*
X9560539Y-16898389D02*
X9551015Y-16860293D01*
X9551015Y-16860293D02*
X9551015Y-16812674D01*
X9551015Y-16812674D02*
X9560539Y-16774579D01*
X9560539Y-16774579D02*
X9570063Y-16755531D01*
X9570063Y-16755531D02*
X9579587Y-16746008D01*
X9579587Y-16746008D02*
X9598634Y-16736484D01*
X9751015Y-16917436D02*
X9760539Y-16926960D01*
X9760539Y-16926960D02*
X9751015Y-16936484D01*
X9751015Y-16936484D02*
X9741492Y-16926960D01*
X9741492Y-16926960D02*
X9751015Y-16917436D01*
X9751015Y-16917436D02*
X9751015Y-16936484D01*
X9884349Y-16736484D02*
X9903396Y-16736484D01*
X9903396Y-16736484D02*
X9922444Y-16746008D01*
X9922444Y-16746008D02*
X9931968Y-16755531D01*
X9931968Y-16755531D02*
X9941492Y-16774579D01*
X9941492Y-16774579D02*
X9951015Y-16812674D01*
X9951015Y-16812674D02*
X9951015Y-16860293D01*
X9951015Y-16860293D02*
X9941492Y-16898389D01*
X9941492Y-16898389D02*
X9931968Y-16917436D01*
X9931968Y-16917436D02*
X9922444Y-16926960D01*
X9922444Y-16926960D02*
X9903396Y-16936484D01*
X9903396Y-16936484D02*
X9884349Y-16936484D01*
X9884349Y-16936484D02*
X9865301Y-16926960D01*
X9865301Y-16926960D02*
X9855777Y-16917436D01*
X9855777Y-16917436D02*
X9846253Y-16898389D01*
X9846253Y-16898389D02*
X9836730Y-16860293D01*
X9836730Y-16860293D02*
X9836730Y-16812674D01*
X9836730Y-16812674D02*
X9846253Y-16774579D01*
X9846253Y-16774579D02*
X9855777Y-16755531D01*
X9855777Y-16755531D02*
X9865301Y-16746008D01*
X9865301Y-16746008D02*
X9884349Y-16736484D01*
X10141492Y-16936484D02*
X10027206Y-16936484D01*
X10084349Y-16936484D02*
X10084349Y-16736484D01*
X10084349Y-16736484D02*
X10065301Y-16765055D01*
X10065301Y-16765055D02*
X10046253Y-16784103D01*
X10046253Y-16784103D02*
X10027206Y-16793627D01*
X10331968Y-16936484D02*
X10217682Y-16936484D01*
X10274825Y-16936484D02*
X10274825Y-16736484D01*
X10274825Y-16736484D02*
X10255777Y-16765055D01*
X10255777Y-16765055D02*
X10236730Y-16784103D01*
X10236730Y-16784103D02*
X10217682Y-16793627D01*
X10446253Y-16822198D02*
X10427206Y-16812674D01*
X10427206Y-16812674D02*
X10417682Y-16803150D01*
X10417682Y-16803150D02*
X10408158Y-16784103D01*
X10408158Y-16784103D02*
X10408158Y-16774579D01*
X10408158Y-16774579D02*
X10417682Y-16755531D01*
X10417682Y-16755531D02*
X10427206Y-16746008D01*
X10427206Y-16746008D02*
X10446253Y-16736484D01*
X10446253Y-16736484D02*
X10484349Y-16736484D01*
X10484349Y-16736484D02*
X10503396Y-16746008D01*
X10503396Y-16746008D02*
X10512920Y-16755531D01*
X10512920Y-16755531D02*
X10522444Y-16774579D01*
X10522444Y-16774579D02*
X10522444Y-16784103D01*
X10522444Y-16784103D02*
X10512920Y-16803150D01*
X10512920Y-16803150D02*
X10503396Y-16812674D01*
X10503396Y-16812674D02*
X10484349Y-16822198D01*
X10484349Y-16822198D02*
X10446253Y-16822198D01*
X10446253Y-16822198D02*
X10427206Y-16831722D01*
X10427206Y-16831722D02*
X10417682Y-16841246D01*
X10417682Y-16841246D02*
X10408158Y-16860293D01*
X10408158Y-16860293D02*
X10408158Y-16898389D01*
X10408158Y-16898389D02*
X10417682Y-16917436D01*
X10417682Y-16917436D02*
X10427206Y-16926960D01*
X10427206Y-16926960D02*
X10446253Y-16936484D01*
X10446253Y-16936484D02*
X10484349Y-16936484D01*
X10484349Y-16936484D02*
X10503396Y-16926960D01*
X10503396Y-16926960D02*
X10512920Y-16917436D01*
X10512920Y-16917436D02*
X10522444Y-16898389D01*
X10522444Y-16898389D02*
X10522444Y-16860293D01*
X10522444Y-16860293D02*
X10512920Y-16841246D01*
X10512920Y-16841246D02*
X10503396Y-16831722D01*
X10503396Y-16831722D02*
X10484349Y-16822198D01*
X10598634Y-16736484D02*
X10598634Y-16774579D01*
X10674825Y-16736484D02*
X10674825Y-16774579D01*
X10970063Y-17012674D02*
X10960539Y-17003150D01*
X10960539Y-17003150D02*
X10941492Y-16974579D01*
X10941492Y-16974579D02*
X10931968Y-16955531D01*
X10931968Y-16955531D02*
X10922444Y-16926960D01*
X10922444Y-16926960D02*
X10912920Y-16879341D01*
X10912920Y-16879341D02*
X10912920Y-16841246D01*
X10912920Y-16841246D02*
X10922444Y-16793627D01*
X10922444Y-16793627D02*
X10931968Y-16765055D01*
X10931968Y-16765055D02*
X10941492Y-16746008D01*
X10941492Y-16746008D02*
X10960539Y-16717436D01*
X10960539Y-16717436D02*
X10970063Y-16707912D01*
X11036730Y-16755531D02*
X11046254Y-16746008D01*
X11046254Y-16746008D02*
X11065301Y-16736484D01*
X11065301Y-16736484D02*
X11112920Y-16736484D01*
X11112920Y-16736484D02*
X11131968Y-16746008D01*
X11131968Y-16746008D02*
X11141492Y-16755531D01*
X11141492Y-16755531D02*
X11151015Y-16774579D01*
X11151015Y-16774579D02*
X11151015Y-16793627D01*
X11151015Y-16793627D02*
X11141492Y-16822198D01*
X11141492Y-16822198D02*
X11027206Y-16936484D01*
X11027206Y-16936484D02*
X11151015Y-16936484D01*
X11246253Y-16936484D02*
X11284349Y-16936484D01*
X11284349Y-16936484D02*
X11303396Y-16926960D01*
X11303396Y-16926960D02*
X11312920Y-16917436D01*
X11312920Y-16917436D02*
X11331968Y-16888865D01*
X11331968Y-16888865D02*
X11341492Y-16850770D01*
X11341492Y-16850770D02*
X11341492Y-16774579D01*
X11341492Y-16774579D02*
X11331968Y-16755531D01*
X11331968Y-16755531D02*
X11322444Y-16746008D01*
X11322444Y-16746008D02*
X11303396Y-16736484D01*
X11303396Y-16736484D02*
X11265301Y-16736484D01*
X11265301Y-16736484D02*
X11246253Y-16746008D01*
X11246253Y-16746008D02*
X11236730Y-16755531D01*
X11236730Y-16755531D02*
X11227206Y-16774579D01*
X11227206Y-16774579D02*
X11227206Y-16822198D01*
X11227206Y-16822198D02*
X11236730Y-16841246D01*
X11236730Y-16841246D02*
X11246253Y-16850770D01*
X11246253Y-16850770D02*
X11265301Y-16860293D01*
X11265301Y-16860293D02*
X11303396Y-16860293D01*
X11303396Y-16860293D02*
X11322444Y-16850770D01*
X11322444Y-16850770D02*
X11331968Y-16841246D01*
X11331968Y-16841246D02*
X11341492Y-16822198D01*
X11522444Y-16736484D02*
X11427206Y-16736484D01*
X11427206Y-16736484D02*
X11417682Y-16831722D01*
X11417682Y-16831722D02*
X11427206Y-16822198D01*
X11427206Y-16822198D02*
X11446253Y-16812674D01*
X11446253Y-16812674D02*
X11493873Y-16812674D01*
X11493873Y-16812674D02*
X11512920Y-16822198D01*
X11512920Y-16822198D02*
X11522444Y-16831722D01*
X11522444Y-16831722D02*
X11531968Y-16850770D01*
X11531968Y-16850770D02*
X11531968Y-16898389D01*
X11531968Y-16898389D02*
X11522444Y-16917436D01*
X11522444Y-16917436D02*
X11512920Y-16926960D01*
X11512920Y-16926960D02*
X11493873Y-16936484D01*
X11493873Y-16936484D02*
X11446253Y-16936484D01*
X11446253Y-16936484D02*
X11427206Y-16926960D01*
X11427206Y-16926960D02*
X11417682Y-16917436D01*
X11770063Y-16936484D02*
X11770063Y-16736484D01*
X11855777Y-16936484D02*
X11855777Y-16831722D01*
X11855777Y-16831722D02*
X11846254Y-16812674D01*
X11846254Y-16812674D02*
X11827206Y-16803150D01*
X11827206Y-16803150D02*
X11798634Y-16803150D01*
X11798634Y-16803150D02*
X11779587Y-16812674D01*
X11779587Y-16812674D02*
X11770063Y-16822198D01*
X11979587Y-16936484D02*
X11960539Y-16926960D01*
X11960539Y-16926960D02*
X11951015Y-16917436D01*
X11951015Y-16917436D02*
X11941492Y-16898389D01*
X11941492Y-16898389D02*
X11941492Y-16841246D01*
X11941492Y-16841246D02*
X11951015Y-16822198D01*
X11951015Y-16822198D02*
X11960539Y-16812674D01*
X11960539Y-16812674D02*
X11979587Y-16803150D01*
X11979587Y-16803150D02*
X12008158Y-16803150D01*
X12008158Y-16803150D02*
X12027206Y-16812674D01*
X12027206Y-16812674D02*
X12036730Y-16822198D01*
X12036730Y-16822198D02*
X12046254Y-16841246D01*
X12046254Y-16841246D02*
X12046254Y-16898389D01*
X12046254Y-16898389D02*
X12036730Y-16917436D01*
X12036730Y-16917436D02*
X12027206Y-16926960D01*
X12027206Y-16926960D02*
X12008158Y-16936484D01*
X12008158Y-16936484D02*
X11979587Y-16936484D01*
X12160539Y-16936484D02*
X12141492Y-16926960D01*
X12141492Y-16926960D02*
X12131968Y-16907912D01*
X12131968Y-16907912D02*
X12131968Y-16736484D01*
X12312920Y-16926960D02*
X12293873Y-16936484D01*
X12293873Y-16936484D02*
X12255777Y-16936484D01*
X12255777Y-16936484D02*
X12236730Y-16926960D01*
X12236730Y-16926960D02*
X12227206Y-16907912D01*
X12227206Y-16907912D02*
X12227206Y-16831722D01*
X12227206Y-16831722D02*
X12236730Y-16812674D01*
X12236730Y-16812674D02*
X12255777Y-16803150D01*
X12255777Y-16803150D02*
X12293873Y-16803150D01*
X12293873Y-16803150D02*
X12312920Y-16812674D01*
X12312920Y-16812674D02*
X12322444Y-16831722D01*
X12322444Y-16831722D02*
X12322444Y-16850770D01*
X12322444Y-16850770D02*
X12227206Y-16869817D01*
X12398635Y-16926960D02*
X12417682Y-16936484D01*
X12417682Y-16936484D02*
X12455777Y-16936484D01*
X12455777Y-16936484D02*
X12474825Y-16926960D01*
X12474825Y-16926960D02*
X12484349Y-16907912D01*
X12484349Y-16907912D02*
X12484349Y-16898389D01*
X12484349Y-16898389D02*
X12474825Y-16879341D01*
X12474825Y-16879341D02*
X12455777Y-16869817D01*
X12455777Y-16869817D02*
X12427206Y-16869817D01*
X12427206Y-16869817D02*
X12408158Y-16860293D01*
X12408158Y-16860293D02*
X12398635Y-16841246D01*
X12398635Y-16841246D02*
X12398635Y-16831722D01*
X12398635Y-16831722D02*
X12408158Y-16812674D01*
X12408158Y-16812674D02*
X12427206Y-16803150D01*
X12427206Y-16803150D02*
X12455777Y-16803150D01*
X12455777Y-16803150D02*
X12474825Y-16812674D01*
X12551016Y-17012674D02*
X12560539Y-17003150D01*
X12560539Y-17003150D02*
X12579587Y-16974579D01*
X12579587Y-16974579D02*
X12589111Y-16955531D01*
X12589111Y-16955531D02*
X12598635Y-16926960D01*
X12598635Y-16926960D02*
X12608158Y-16879341D01*
X12608158Y-16879341D02*
X12608158Y-16841246D01*
X12608158Y-16841246D02*
X12598635Y-16793627D01*
X12598635Y-16793627D02*
X12589111Y-16765055D01*
X12589111Y-16765055D02*
X12579587Y-16746008D01*
X12579587Y-16746008D02*
X12560539Y-16717436D01*
X12560539Y-16717436D02*
X12551016Y-16707912D01*
D10*
X7395000Y-17109000D02*
G75*
G02*
X7315000Y-17109000I-40000J0D01*
G01*
X7315000Y-17109000D02*
G75*
G02*
X7395000Y-17109000I40000J0D01*
G01*
D11*
X7693872Y-17000484D02*
X7712920Y-17000484D01*
X7712920Y-17000484D02*
X7731967Y-17010008D01*
X7731967Y-17010008D02*
X7741491Y-17019531D01*
X7741491Y-17019531D02*
X7751015Y-17038579D01*
X7751015Y-17038579D02*
X7760539Y-17076674D01*
X7760539Y-17076674D02*
X7760539Y-17124293D01*
X7760539Y-17124293D02*
X7751015Y-17162389D01*
X7751015Y-17162389D02*
X7741491Y-17181436D01*
X7741491Y-17181436D02*
X7731967Y-17190960D01*
X7731967Y-17190960D02*
X7712920Y-17200484D01*
X7712920Y-17200484D02*
X7693872Y-17200484D01*
X7693872Y-17200484D02*
X7674825Y-17190960D01*
X7674825Y-17190960D02*
X7665301Y-17181436D01*
X7665301Y-17181436D02*
X7655777Y-17162389D01*
X7655777Y-17162389D02*
X7646253Y-17124293D01*
X7646253Y-17124293D02*
X7646253Y-17076674D01*
X7646253Y-17076674D02*
X7655777Y-17038579D01*
X7655777Y-17038579D02*
X7665301Y-17019531D01*
X7665301Y-17019531D02*
X7674825Y-17010008D01*
X7674825Y-17010008D02*
X7693872Y-17000484D01*
X7846253Y-17181436D02*
X7855777Y-17190960D01*
X7855777Y-17190960D02*
X7846253Y-17200484D01*
X7846253Y-17200484D02*
X7836729Y-17190960D01*
X7836729Y-17190960D02*
X7846253Y-17181436D01*
X7846253Y-17181436D02*
X7846253Y-17200484D01*
X7970063Y-17086198D02*
X7951015Y-17076674D01*
X7951015Y-17076674D02*
X7941491Y-17067150D01*
X7941491Y-17067150D02*
X7931967Y-17048103D01*
X7931967Y-17048103D02*
X7931967Y-17038579D01*
X7931967Y-17038579D02*
X7941491Y-17019531D01*
X7941491Y-17019531D02*
X7951015Y-17010008D01*
X7951015Y-17010008D02*
X7970063Y-17000484D01*
X7970063Y-17000484D02*
X8008158Y-17000484D01*
X8008158Y-17000484D02*
X8027206Y-17010008D01*
X8027206Y-17010008D02*
X8036729Y-17019531D01*
X8036729Y-17019531D02*
X8046253Y-17038579D01*
X8046253Y-17038579D02*
X8046253Y-17048103D01*
X8046253Y-17048103D02*
X8036729Y-17067150D01*
X8036729Y-17067150D02*
X8027206Y-17076674D01*
X8027206Y-17076674D02*
X8008158Y-17086198D01*
X8008158Y-17086198D02*
X7970063Y-17086198D01*
X7970063Y-17086198D02*
X7951015Y-17095722D01*
X7951015Y-17095722D02*
X7941491Y-17105246D01*
X7941491Y-17105246D02*
X7931967Y-17124293D01*
X7931967Y-17124293D02*
X7931967Y-17162389D01*
X7931967Y-17162389D02*
X7941491Y-17181436D01*
X7941491Y-17181436D02*
X7951015Y-17190960D01*
X7951015Y-17190960D02*
X7970063Y-17200484D01*
X7970063Y-17200484D02*
X8008158Y-17200484D01*
X8008158Y-17200484D02*
X8027206Y-17190960D01*
X8027206Y-17190960D02*
X8036729Y-17181436D01*
X8036729Y-17181436D02*
X8046253Y-17162389D01*
X8046253Y-17162389D02*
X8046253Y-17124293D01*
X8046253Y-17124293D02*
X8036729Y-17105246D01*
X8036729Y-17105246D02*
X8027206Y-17095722D01*
X8027206Y-17095722D02*
X8008158Y-17086198D01*
X8170063Y-17000484D02*
X8189110Y-17000484D01*
X8189110Y-17000484D02*
X8208158Y-17010008D01*
X8208158Y-17010008D02*
X8217682Y-17019531D01*
X8217682Y-17019531D02*
X8227206Y-17038579D01*
X8227206Y-17038579D02*
X8236729Y-17076674D01*
X8236729Y-17076674D02*
X8236729Y-17124293D01*
X8236729Y-17124293D02*
X8227206Y-17162389D01*
X8227206Y-17162389D02*
X8217682Y-17181436D01*
X8217682Y-17181436D02*
X8208158Y-17190960D01*
X8208158Y-17190960D02*
X8189110Y-17200484D01*
X8189110Y-17200484D02*
X8170063Y-17200484D01*
X8170063Y-17200484D02*
X8151015Y-17190960D01*
X8151015Y-17190960D02*
X8141491Y-17181436D01*
X8141491Y-17181436D02*
X8131967Y-17162389D01*
X8131967Y-17162389D02*
X8122444Y-17124293D01*
X8122444Y-17124293D02*
X8122444Y-17076674D01*
X8122444Y-17076674D02*
X8131967Y-17038579D01*
X8131967Y-17038579D02*
X8141491Y-17019531D01*
X8141491Y-17019531D02*
X8151015Y-17010008D01*
X8151015Y-17010008D02*
X8170063Y-17000484D01*
X8360539Y-17000484D02*
X8379587Y-17000484D01*
X8379587Y-17000484D02*
X8398634Y-17010008D01*
X8398634Y-17010008D02*
X8408158Y-17019531D01*
X8408158Y-17019531D02*
X8417682Y-17038579D01*
X8417682Y-17038579D02*
X8427206Y-17076674D01*
X8427206Y-17076674D02*
X8427206Y-17124293D01*
X8427206Y-17124293D02*
X8417682Y-17162389D01*
X8417682Y-17162389D02*
X8408158Y-17181436D01*
X8408158Y-17181436D02*
X8398634Y-17190960D01*
X8398634Y-17190960D02*
X8379587Y-17200484D01*
X8379587Y-17200484D02*
X8360539Y-17200484D01*
X8360539Y-17200484D02*
X8341491Y-17190960D01*
X8341491Y-17190960D02*
X8331967Y-17181436D01*
X8331967Y-17181436D02*
X8322444Y-17162389D01*
X8322444Y-17162389D02*
X8312920Y-17124293D01*
X8312920Y-17124293D02*
X8312920Y-17076674D01*
X8312920Y-17076674D02*
X8322444Y-17038579D01*
X8322444Y-17038579D02*
X8331967Y-17019531D01*
X8331967Y-17019531D02*
X8341491Y-17010008D01*
X8341491Y-17010008D02*
X8360539Y-17000484D01*
X8512920Y-17200484D02*
X8512920Y-17067150D01*
X8512920Y-17086198D02*
X8522444Y-17076674D01*
X8522444Y-17076674D02*
X8541491Y-17067150D01*
X8541491Y-17067150D02*
X8570063Y-17067150D01*
X8570063Y-17067150D02*
X8589110Y-17076674D01*
X8589110Y-17076674D02*
X8598634Y-17095722D01*
X8598634Y-17095722D02*
X8598634Y-17200484D01*
X8598634Y-17095722D02*
X8608158Y-17076674D01*
X8608158Y-17076674D02*
X8627206Y-17067150D01*
X8627206Y-17067150D02*
X8655777Y-17067150D01*
X8655777Y-17067150D02*
X8674825Y-17076674D01*
X8674825Y-17076674D02*
X8684349Y-17095722D01*
X8684349Y-17095722D02*
X8684349Y-17200484D01*
X8779587Y-17200484D02*
X8779587Y-17067150D01*
X8779587Y-17086198D02*
X8789110Y-17076674D01*
X8789110Y-17076674D02*
X8808158Y-17067150D01*
X8808158Y-17067150D02*
X8836730Y-17067150D01*
X8836730Y-17067150D02*
X8855777Y-17076674D01*
X8855777Y-17076674D02*
X8865301Y-17095722D01*
X8865301Y-17095722D02*
X8865301Y-17200484D01*
X8865301Y-17095722D02*
X8874825Y-17076674D01*
X8874825Y-17076674D02*
X8893872Y-17067150D01*
X8893872Y-17067150D02*
X8922444Y-17067150D01*
X8922444Y-17067150D02*
X8941491Y-17076674D01*
X8941491Y-17076674D02*
X8951015Y-17095722D01*
X8951015Y-17095722D02*
X8951015Y-17200484D01*
X9341491Y-16990960D02*
X9170063Y-17248103D01*
X9598634Y-17000484D02*
X9617682Y-17000484D01*
X9617682Y-17000484D02*
X9636730Y-17010008D01*
X9636730Y-17010008D02*
X9646253Y-17019531D01*
X9646253Y-17019531D02*
X9655777Y-17038579D01*
X9655777Y-17038579D02*
X9665301Y-17076674D01*
X9665301Y-17076674D02*
X9665301Y-17124293D01*
X9665301Y-17124293D02*
X9655777Y-17162389D01*
X9655777Y-17162389D02*
X9646253Y-17181436D01*
X9646253Y-17181436D02*
X9636730Y-17190960D01*
X9636730Y-17190960D02*
X9617682Y-17200484D01*
X9617682Y-17200484D02*
X9598634Y-17200484D01*
X9598634Y-17200484D02*
X9579587Y-17190960D01*
X9579587Y-17190960D02*
X9570063Y-17181436D01*
X9570063Y-17181436D02*
X9560539Y-17162389D01*
X9560539Y-17162389D02*
X9551015Y-17124293D01*
X9551015Y-17124293D02*
X9551015Y-17076674D01*
X9551015Y-17076674D02*
X9560539Y-17038579D01*
X9560539Y-17038579D02*
X9570063Y-17019531D01*
X9570063Y-17019531D02*
X9579587Y-17010008D01*
X9579587Y-17010008D02*
X9598634Y-17000484D01*
X9751015Y-17181436D02*
X9760539Y-17190960D01*
X9760539Y-17190960D02*
X9751015Y-17200484D01*
X9751015Y-17200484D02*
X9741492Y-17190960D01*
X9741492Y-17190960D02*
X9751015Y-17181436D01*
X9751015Y-17181436D02*
X9751015Y-17200484D01*
X9884349Y-17000484D02*
X9903396Y-17000484D01*
X9903396Y-17000484D02*
X9922444Y-17010008D01*
X9922444Y-17010008D02*
X9931968Y-17019531D01*
X9931968Y-17019531D02*
X9941492Y-17038579D01*
X9941492Y-17038579D02*
X9951015Y-17076674D01*
X9951015Y-17076674D02*
X9951015Y-17124293D01*
X9951015Y-17124293D02*
X9941492Y-17162389D01*
X9941492Y-17162389D02*
X9931968Y-17181436D01*
X9931968Y-17181436D02*
X9922444Y-17190960D01*
X9922444Y-17190960D02*
X9903396Y-17200484D01*
X9903396Y-17200484D02*
X9884349Y-17200484D01*
X9884349Y-17200484D02*
X9865301Y-17190960D01*
X9865301Y-17190960D02*
X9855777Y-17181436D01*
X9855777Y-17181436D02*
X9846253Y-17162389D01*
X9846253Y-17162389D02*
X9836730Y-17124293D01*
X9836730Y-17124293D02*
X9836730Y-17076674D01*
X9836730Y-17076674D02*
X9846253Y-17038579D01*
X9846253Y-17038579D02*
X9855777Y-17019531D01*
X9855777Y-17019531D02*
X9865301Y-17010008D01*
X9865301Y-17010008D02*
X9884349Y-17000484D01*
X10017682Y-17000484D02*
X10141492Y-17000484D01*
X10141492Y-17000484D02*
X10074825Y-17076674D01*
X10074825Y-17076674D02*
X10103396Y-17076674D01*
X10103396Y-17076674D02*
X10122444Y-17086198D01*
X10122444Y-17086198D02*
X10131968Y-17095722D01*
X10131968Y-17095722D02*
X10141492Y-17114770D01*
X10141492Y-17114770D02*
X10141492Y-17162389D01*
X10141492Y-17162389D02*
X10131968Y-17181436D01*
X10131968Y-17181436D02*
X10122444Y-17190960D01*
X10122444Y-17190960D02*
X10103396Y-17200484D01*
X10103396Y-17200484D02*
X10046253Y-17200484D01*
X10046253Y-17200484D02*
X10027206Y-17190960D01*
X10027206Y-17190960D02*
X10017682Y-17181436D01*
X10331968Y-17200484D02*
X10217682Y-17200484D01*
X10274825Y-17200484D02*
X10274825Y-17000484D01*
X10274825Y-17000484D02*
X10255777Y-17029055D01*
X10255777Y-17029055D02*
X10236730Y-17048103D01*
X10236730Y-17048103D02*
X10217682Y-17057627D01*
X10512920Y-17000484D02*
X10417682Y-17000484D01*
X10417682Y-17000484D02*
X10408158Y-17095722D01*
X10408158Y-17095722D02*
X10417682Y-17086198D01*
X10417682Y-17086198D02*
X10436730Y-17076674D01*
X10436730Y-17076674D02*
X10484349Y-17076674D01*
X10484349Y-17076674D02*
X10503396Y-17086198D01*
X10503396Y-17086198D02*
X10512920Y-17095722D01*
X10512920Y-17095722D02*
X10522444Y-17114770D01*
X10522444Y-17114770D02*
X10522444Y-17162389D01*
X10522444Y-17162389D02*
X10512920Y-17181436D01*
X10512920Y-17181436D02*
X10503396Y-17190960D01*
X10503396Y-17190960D02*
X10484349Y-17200484D01*
X10484349Y-17200484D02*
X10436730Y-17200484D01*
X10436730Y-17200484D02*
X10417682Y-17190960D01*
X10417682Y-17190960D02*
X10408158Y-17181436D01*
X10598634Y-17000484D02*
X10598634Y-17038579D01*
X10674825Y-17000484D02*
X10674825Y-17038579D01*
X10970063Y-17276674D02*
X10960539Y-17267150D01*
X10960539Y-17267150D02*
X10941492Y-17238579D01*
X10941492Y-17238579D02*
X10931968Y-17219531D01*
X10931968Y-17219531D02*
X10922444Y-17190960D01*
X10922444Y-17190960D02*
X10912920Y-17143341D01*
X10912920Y-17143341D02*
X10912920Y-17105246D01*
X10912920Y-17105246D02*
X10922444Y-17057627D01*
X10922444Y-17057627D02*
X10931968Y-17029055D01*
X10931968Y-17029055D02*
X10941492Y-17010008D01*
X10941492Y-17010008D02*
X10960539Y-16981436D01*
X10960539Y-16981436D02*
X10970063Y-16971912D01*
X11084349Y-17000484D02*
X11103396Y-17000484D01*
X11103396Y-17000484D02*
X11122444Y-17010008D01*
X11122444Y-17010008D02*
X11131968Y-17019531D01*
X11131968Y-17019531D02*
X11141492Y-17038579D01*
X11141492Y-17038579D02*
X11151015Y-17076674D01*
X11151015Y-17076674D02*
X11151015Y-17124293D01*
X11151015Y-17124293D02*
X11141492Y-17162389D01*
X11141492Y-17162389D02*
X11131968Y-17181436D01*
X11131968Y-17181436D02*
X11122444Y-17190960D01*
X11122444Y-17190960D02*
X11103396Y-17200484D01*
X11103396Y-17200484D02*
X11084349Y-17200484D01*
X11084349Y-17200484D02*
X11065301Y-17190960D01*
X11065301Y-17190960D02*
X11055777Y-17181436D01*
X11055777Y-17181436D02*
X11046254Y-17162389D01*
X11046254Y-17162389D02*
X11036730Y-17124293D01*
X11036730Y-17124293D02*
X11036730Y-17076674D01*
X11036730Y-17076674D02*
X11046254Y-17038579D01*
X11046254Y-17038579D02*
X11055777Y-17019531D01*
X11055777Y-17019531D02*
X11065301Y-17010008D01*
X11065301Y-17010008D02*
X11084349Y-17000484D01*
X11389111Y-17200484D02*
X11389111Y-17000484D01*
X11474825Y-17200484D02*
X11474825Y-17095722D01*
X11474825Y-17095722D02*
X11465301Y-17076674D01*
X11465301Y-17076674D02*
X11446254Y-17067150D01*
X11446254Y-17067150D02*
X11417682Y-17067150D01*
X11417682Y-17067150D02*
X11398634Y-17076674D01*
X11398634Y-17076674D02*
X11389111Y-17086198D01*
X11598634Y-17200484D02*
X11579587Y-17190960D01*
X11579587Y-17190960D02*
X11570063Y-17181436D01*
X11570063Y-17181436D02*
X11560539Y-17162389D01*
X11560539Y-17162389D02*
X11560539Y-17105246D01*
X11560539Y-17105246D02*
X11570063Y-17086198D01*
X11570063Y-17086198D02*
X11579587Y-17076674D01*
X11579587Y-17076674D02*
X11598634Y-17067150D01*
X11598634Y-17067150D02*
X11627206Y-17067150D01*
X11627206Y-17067150D02*
X11646254Y-17076674D01*
X11646254Y-17076674D02*
X11655777Y-17086198D01*
X11655777Y-17086198D02*
X11665301Y-17105246D01*
X11665301Y-17105246D02*
X11665301Y-17162389D01*
X11665301Y-17162389D02*
X11655777Y-17181436D01*
X11655777Y-17181436D02*
X11646254Y-17190960D01*
X11646254Y-17190960D02*
X11627206Y-17200484D01*
X11627206Y-17200484D02*
X11598634Y-17200484D01*
X11779587Y-17200484D02*
X11760539Y-17190960D01*
X11760539Y-17190960D02*
X11751015Y-17171912D01*
X11751015Y-17171912D02*
X11751015Y-17000484D01*
X11931968Y-17190960D02*
X11912920Y-17200484D01*
X11912920Y-17200484D02*
X11874825Y-17200484D01*
X11874825Y-17200484D02*
X11855777Y-17190960D01*
X11855777Y-17190960D02*
X11846254Y-17171912D01*
X11846254Y-17171912D02*
X11846254Y-17095722D01*
X11846254Y-17095722D02*
X11855777Y-17076674D01*
X11855777Y-17076674D02*
X11874825Y-17067150D01*
X11874825Y-17067150D02*
X11912920Y-17067150D01*
X11912920Y-17067150D02*
X11931968Y-17076674D01*
X11931968Y-17076674D02*
X11941492Y-17095722D01*
X11941492Y-17095722D02*
X11941492Y-17114770D01*
X11941492Y-17114770D02*
X11846254Y-17133817D01*
X12017682Y-17190960D02*
X12036730Y-17200484D01*
X12036730Y-17200484D02*
X12074825Y-17200484D01*
X12074825Y-17200484D02*
X12093873Y-17190960D01*
X12093873Y-17190960D02*
X12103396Y-17171912D01*
X12103396Y-17171912D02*
X12103396Y-17162389D01*
X12103396Y-17162389D02*
X12093873Y-17143341D01*
X12093873Y-17143341D02*
X12074825Y-17133817D01*
X12074825Y-17133817D02*
X12046254Y-17133817D01*
X12046254Y-17133817D02*
X12027206Y-17124293D01*
X12027206Y-17124293D02*
X12017682Y-17105246D01*
X12017682Y-17105246D02*
X12017682Y-17095722D01*
X12017682Y-17095722D02*
X12027206Y-17076674D01*
X12027206Y-17076674D02*
X12046254Y-17067150D01*
X12046254Y-17067150D02*
X12074825Y-17067150D01*
X12074825Y-17067150D02*
X12093873Y-17076674D01*
X12341492Y-17124293D02*
X12493873Y-17124293D01*
X12417682Y-17200484D02*
X12417682Y-17048103D01*
X12827206Y-17067150D02*
X12827206Y-17200484D01*
X12779587Y-16990960D02*
X12731968Y-17133817D01*
X12731968Y-17133817D02*
X12855777Y-17133817D01*
X13074825Y-17190960D02*
X13093873Y-17200484D01*
X13093873Y-17200484D02*
X13131968Y-17200484D01*
X13131968Y-17200484D02*
X13151016Y-17190960D01*
X13151016Y-17190960D02*
X13160539Y-17171912D01*
X13160539Y-17171912D02*
X13160539Y-17162389D01*
X13160539Y-17162389D02*
X13151016Y-17143341D01*
X13151016Y-17143341D02*
X13131968Y-17133817D01*
X13131968Y-17133817D02*
X13103397Y-17133817D01*
X13103397Y-17133817D02*
X13084349Y-17124293D01*
X13084349Y-17124293D02*
X13074825Y-17105246D01*
X13074825Y-17105246D02*
X13074825Y-17095722D01*
X13074825Y-17095722D02*
X13084349Y-17076674D01*
X13084349Y-17076674D02*
X13103397Y-17067150D01*
X13103397Y-17067150D02*
X13131968Y-17067150D01*
X13131968Y-17067150D02*
X13151016Y-17076674D01*
X13274825Y-17200484D02*
X13255778Y-17190960D01*
X13255778Y-17190960D02*
X13246254Y-17171912D01*
X13246254Y-17171912D02*
X13246254Y-17000484D01*
X13379587Y-17200484D02*
X13360539Y-17190960D01*
X13360539Y-17190960D02*
X13351016Y-17181436D01*
X13351016Y-17181436D02*
X13341492Y-17162389D01*
X13341492Y-17162389D02*
X13341492Y-17105246D01*
X13341492Y-17105246D02*
X13351016Y-17086198D01*
X13351016Y-17086198D02*
X13360539Y-17076674D01*
X13360539Y-17076674D02*
X13379587Y-17067150D01*
X13379587Y-17067150D02*
X13408159Y-17067150D01*
X13408159Y-17067150D02*
X13427206Y-17076674D01*
X13427206Y-17076674D02*
X13436730Y-17086198D01*
X13436730Y-17086198D02*
X13446254Y-17105246D01*
X13446254Y-17105246D02*
X13446254Y-17162389D01*
X13446254Y-17162389D02*
X13436730Y-17181436D01*
X13436730Y-17181436D02*
X13427206Y-17190960D01*
X13427206Y-17190960D02*
X13408159Y-17200484D01*
X13408159Y-17200484D02*
X13379587Y-17200484D01*
X13503397Y-17067150D02*
X13579587Y-17067150D01*
X13531968Y-17000484D02*
X13531968Y-17171912D01*
X13531968Y-17171912D02*
X13541492Y-17190960D01*
X13541492Y-17190960D02*
X13560539Y-17200484D01*
X13560539Y-17200484D02*
X13579587Y-17200484D01*
X13636730Y-17190960D02*
X13655778Y-17200484D01*
X13655778Y-17200484D02*
X13693873Y-17200484D01*
X13693873Y-17200484D02*
X13712920Y-17190960D01*
X13712920Y-17190960D02*
X13722444Y-17171912D01*
X13722444Y-17171912D02*
X13722444Y-17162389D01*
X13722444Y-17162389D02*
X13712920Y-17143341D01*
X13712920Y-17143341D02*
X13693873Y-17133817D01*
X13693873Y-17133817D02*
X13665301Y-17133817D01*
X13665301Y-17133817D02*
X13646254Y-17124293D01*
X13646254Y-17124293D02*
X13636730Y-17105246D01*
X13636730Y-17105246D02*
X13636730Y-17095722D01*
X13636730Y-17095722D02*
X13646254Y-17076674D01*
X13646254Y-17076674D02*
X13665301Y-17067150D01*
X13665301Y-17067150D02*
X13693873Y-17067150D01*
X13693873Y-17067150D02*
X13712920Y-17076674D01*
X13789111Y-17276674D02*
X13798635Y-17267150D01*
X13798635Y-17267150D02*
X13817682Y-17238579D01*
X13817682Y-17238579D02*
X13827206Y-17219531D01*
X13827206Y-17219531D02*
X13836730Y-17190960D01*
X13836730Y-17190960D02*
X13846254Y-17143341D01*
X13846254Y-17143341D02*
X13846254Y-17105246D01*
X13846254Y-17105246D02*
X13836730Y-17057627D01*
X13836730Y-17057627D02*
X13827206Y-17029055D01*
X13827206Y-17029055D02*
X13817682Y-17010008D01*
X13817682Y-17010008D02*
X13798635Y-16981436D01*
X13798635Y-16981436D02*
X13789111Y-16971912D01*
D10*
X7345000Y-17323000D02*
X7345000Y-17423000D01*
X7295000Y-17373000D02*
X7395000Y-17373000D01*
D11*
X7760539Y-17464484D02*
X7646253Y-17464484D01*
X7703396Y-17464484D02*
X7703396Y-17264484D01*
X7703396Y-17264484D02*
X7684348Y-17293055D01*
X7684348Y-17293055D02*
X7665301Y-17312103D01*
X7665301Y-17312103D02*
X7646253Y-17321627D01*
X7846253Y-17445436D02*
X7855777Y-17454960D01*
X7855777Y-17454960D02*
X7846253Y-17464484D01*
X7846253Y-17464484D02*
X7836729Y-17454960D01*
X7836729Y-17454960D02*
X7846253Y-17445436D01*
X7846253Y-17445436D02*
X7846253Y-17464484D01*
X7979586Y-17264484D02*
X7998634Y-17264484D01*
X7998634Y-17264484D02*
X8017682Y-17274008D01*
X8017682Y-17274008D02*
X8027206Y-17283531D01*
X8027206Y-17283531D02*
X8036729Y-17302579D01*
X8036729Y-17302579D02*
X8046253Y-17340674D01*
X8046253Y-17340674D02*
X8046253Y-17388293D01*
X8046253Y-17388293D02*
X8036729Y-17426389D01*
X8036729Y-17426389D02*
X8027206Y-17445436D01*
X8027206Y-17445436D02*
X8017682Y-17454960D01*
X8017682Y-17454960D02*
X7998634Y-17464484D01*
X7998634Y-17464484D02*
X7979586Y-17464484D01*
X7979586Y-17464484D02*
X7960539Y-17454960D01*
X7960539Y-17454960D02*
X7951015Y-17445436D01*
X7951015Y-17445436D02*
X7941491Y-17426389D01*
X7941491Y-17426389D02*
X7931967Y-17388293D01*
X7931967Y-17388293D02*
X7931967Y-17340674D01*
X7931967Y-17340674D02*
X7941491Y-17302579D01*
X7941491Y-17302579D02*
X7951015Y-17283531D01*
X7951015Y-17283531D02*
X7960539Y-17274008D01*
X7960539Y-17274008D02*
X7979586Y-17264484D01*
X8170063Y-17264484D02*
X8189110Y-17264484D01*
X8189110Y-17264484D02*
X8208158Y-17274008D01*
X8208158Y-17274008D02*
X8217682Y-17283531D01*
X8217682Y-17283531D02*
X8227206Y-17302579D01*
X8227206Y-17302579D02*
X8236729Y-17340674D01*
X8236729Y-17340674D02*
X8236729Y-17388293D01*
X8236729Y-17388293D02*
X8227206Y-17426389D01*
X8227206Y-17426389D02*
X8217682Y-17445436D01*
X8217682Y-17445436D02*
X8208158Y-17454960D01*
X8208158Y-17454960D02*
X8189110Y-17464484D01*
X8189110Y-17464484D02*
X8170063Y-17464484D01*
X8170063Y-17464484D02*
X8151015Y-17454960D01*
X8151015Y-17454960D02*
X8141491Y-17445436D01*
X8141491Y-17445436D02*
X8131967Y-17426389D01*
X8131967Y-17426389D02*
X8122444Y-17388293D01*
X8122444Y-17388293D02*
X8122444Y-17340674D01*
X8122444Y-17340674D02*
X8131967Y-17302579D01*
X8131967Y-17302579D02*
X8141491Y-17283531D01*
X8141491Y-17283531D02*
X8151015Y-17274008D01*
X8151015Y-17274008D02*
X8170063Y-17264484D01*
X8360539Y-17264484D02*
X8379587Y-17264484D01*
X8379587Y-17264484D02*
X8398634Y-17274008D01*
X8398634Y-17274008D02*
X8408158Y-17283531D01*
X8408158Y-17283531D02*
X8417682Y-17302579D01*
X8417682Y-17302579D02*
X8427206Y-17340674D01*
X8427206Y-17340674D02*
X8427206Y-17388293D01*
X8427206Y-17388293D02*
X8417682Y-17426389D01*
X8417682Y-17426389D02*
X8408158Y-17445436D01*
X8408158Y-17445436D02*
X8398634Y-17454960D01*
X8398634Y-17454960D02*
X8379587Y-17464484D01*
X8379587Y-17464484D02*
X8360539Y-17464484D01*
X8360539Y-17464484D02*
X8341491Y-17454960D01*
X8341491Y-17454960D02*
X8331967Y-17445436D01*
X8331967Y-17445436D02*
X8322444Y-17426389D01*
X8322444Y-17426389D02*
X8312920Y-17388293D01*
X8312920Y-17388293D02*
X8312920Y-17340674D01*
X8312920Y-17340674D02*
X8322444Y-17302579D01*
X8322444Y-17302579D02*
X8331967Y-17283531D01*
X8331967Y-17283531D02*
X8341491Y-17274008D01*
X8341491Y-17274008D02*
X8360539Y-17264484D01*
X8512920Y-17464484D02*
X8512920Y-17331150D01*
X8512920Y-17350198D02*
X8522444Y-17340674D01*
X8522444Y-17340674D02*
X8541491Y-17331150D01*
X8541491Y-17331150D02*
X8570063Y-17331150D01*
X8570063Y-17331150D02*
X8589110Y-17340674D01*
X8589110Y-17340674D02*
X8598634Y-17359722D01*
X8598634Y-17359722D02*
X8598634Y-17464484D01*
X8598634Y-17359722D02*
X8608158Y-17340674D01*
X8608158Y-17340674D02*
X8627206Y-17331150D01*
X8627206Y-17331150D02*
X8655777Y-17331150D01*
X8655777Y-17331150D02*
X8674825Y-17340674D01*
X8674825Y-17340674D02*
X8684349Y-17359722D01*
X8684349Y-17359722D02*
X8684349Y-17464484D01*
X8779587Y-17464484D02*
X8779587Y-17331150D01*
X8779587Y-17350198D02*
X8789110Y-17340674D01*
X8789110Y-17340674D02*
X8808158Y-17331150D01*
X8808158Y-17331150D02*
X8836730Y-17331150D01*
X8836730Y-17331150D02*
X8855777Y-17340674D01*
X8855777Y-17340674D02*
X8865301Y-17359722D01*
X8865301Y-17359722D02*
X8865301Y-17464484D01*
X8865301Y-17359722D02*
X8874825Y-17340674D01*
X8874825Y-17340674D02*
X8893872Y-17331150D01*
X8893872Y-17331150D02*
X8922444Y-17331150D01*
X8922444Y-17331150D02*
X8941491Y-17340674D01*
X8941491Y-17340674D02*
X8951015Y-17359722D01*
X8951015Y-17359722D02*
X8951015Y-17464484D01*
X9341491Y-17254960D02*
X9170063Y-17512103D01*
X9598634Y-17264484D02*
X9617682Y-17264484D01*
X9617682Y-17264484D02*
X9636730Y-17274008D01*
X9636730Y-17274008D02*
X9646253Y-17283531D01*
X9646253Y-17283531D02*
X9655777Y-17302579D01*
X9655777Y-17302579D02*
X9665301Y-17340674D01*
X9665301Y-17340674D02*
X9665301Y-17388293D01*
X9665301Y-17388293D02*
X9655777Y-17426389D01*
X9655777Y-17426389D02*
X9646253Y-17445436D01*
X9646253Y-17445436D02*
X9636730Y-17454960D01*
X9636730Y-17454960D02*
X9617682Y-17464484D01*
X9617682Y-17464484D02*
X9598634Y-17464484D01*
X9598634Y-17464484D02*
X9579587Y-17454960D01*
X9579587Y-17454960D02*
X9570063Y-17445436D01*
X9570063Y-17445436D02*
X9560539Y-17426389D01*
X9560539Y-17426389D02*
X9551015Y-17388293D01*
X9551015Y-17388293D02*
X9551015Y-17340674D01*
X9551015Y-17340674D02*
X9560539Y-17302579D01*
X9560539Y-17302579D02*
X9570063Y-17283531D01*
X9570063Y-17283531D02*
X9579587Y-17274008D01*
X9579587Y-17274008D02*
X9598634Y-17264484D01*
X9751015Y-17445436D02*
X9760539Y-17454960D01*
X9760539Y-17454960D02*
X9751015Y-17464484D01*
X9751015Y-17464484D02*
X9741492Y-17454960D01*
X9741492Y-17454960D02*
X9751015Y-17445436D01*
X9751015Y-17445436D02*
X9751015Y-17464484D01*
X9884349Y-17264484D02*
X9903396Y-17264484D01*
X9903396Y-17264484D02*
X9922444Y-17274008D01*
X9922444Y-17274008D02*
X9931968Y-17283531D01*
X9931968Y-17283531D02*
X9941492Y-17302579D01*
X9941492Y-17302579D02*
X9951015Y-17340674D01*
X9951015Y-17340674D02*
X9951015Y-17388293D01*
X9951015Y-17388293D02*
X9941492Y-17426389D01*
X9941492Y-17426389D02*
X9931968Y-17445436D01*
X9931968Y-17445436D02*
X9922444Y-17454960D01*
X9922444Y-17454960D02*
X9903396Y-17464484D01*
X9903396Y-17464484D02*
X9884349Y-17464484D01*
X9884349Y-17464484D02*
X9865301Y-17454960D01*
X9865301Y-17454960D02*
X9855777Y-17445436D01*
X9855777Y-17445436D02*
X9846253Y-17426389D01*
X9846253Y-17426389D02*
X9836730Y-17388293D01*
X9836730Y-17388293D02*
X9836730Y-17340674D01*
X9836730Y-17340674D02*
X9846253Y-17302579D01*
X9846253Y-17302579D02*
X9855777Y-17283531D01*
X9855777Y-17283531D02*
X9865301Y-17274008D01*
X9865301Y-17274008D02*
X9884349Y-17264484D01*
X10017682Y-17264484D02*
X10141492Y-17264484D01*
X10141492Y-17264484D02*
X10074825Y-17340674D01*
X10074825Y-17340674D02*
X10103396Y-17340674D01*
X10103396Y-17340674D02*
X10122444Y-17350198D01*
X10122444Y-17350198D02*
X10131968Y-17359722D01*
X10131968Y-17359722D02*
X10141492Y-17378770D01*
X10141492Y-17378770D02*
X10141492Y-17426389D01*
X10141492Y-17426389D02*
X10131968Y-17445436D01*
X10131968Y-17445436D02*
X10122444Y-17454960D01*
X10122444Y-17454960D02*
X10103396Y-17464484D01*
X10103396Y-17464484D02*
X10046253Y-17464484D01*
X10046253Y-17464484D02*
X10027206Y-17454960D01*
X10027206Y-17454960D02*
X10017682Y-17445436D01*
X10236730Y-17464484D02*
X10274825Y-17464484D01*
X10274825Y-17464484D02*
X10293873Y-17454960D01*
X10293873Y-17454960D02*
X10303396Y-17445436D01*
X10303396Y-17445436D02*
X10322444Y-17416865D01*
X10322444Y-17416865D02*
X10331968Y-17378770D01*
X10331968Y-17378770D02*
X10331968Y-17302579D01*
X10331968Y-17302579D02*
X10322444Y-17283531D01*
X10322444Y-17283531D02*
X10312920Y-17274008D01*
X10312920Y-17274008D02*
X10293873Y-17264484D01*
X10293873Y-17264484D02*
X10255777Y-17264484D01*
X10255777Y-17264484D02*
X10236730Y-17274008D01*
X10236730Y-17274008D02*
X10227206Y-17283531D01*
X10227206Y-17283531D02*
X10217682Y-17302579D01*
X10217682Y-17302579D02*
X10217682Y-17350198D01*
X10217682Y-17350198D02*
X10227206Y-17369246D01*
X10227206Y-17369246D02*
X10236730Y-17378770D01*
X10236730Y-17378770D02*
X10255777Y-17388293D01*
X10255777Y-17388293D02*
X10293873Y-17388293D01*
X10293873Y-17388293D02*
X10312920Y-17378770D01*
X10312920Y-17378770D02*
X10322444Y-17369246D01*
X10322444Y-17369246D02*
X10331968Y-17350198D01*
X10503396Y-17331150D02*
X10503396Y-17464484D01*
X10455777Y-17254960D02*
X10408158Y-17397817D01*
X10408158Y-17397817D02*
X10531968Y-17397817D01*
X10598634Y-17264484D02*
X10598634Y-17302579D01*
X10674825Y-17264484D02*
X10674825Y-17302579D01*
X10970063Y-17540674D02*
X10960539Y-17531150D01*
X10960539Y-17531150D02*
X10941492Y-17502579D01*
X10941492Y-17502579D02*
X10931968Y-17483531D01*
X10931968Y-17483531D02*
X10922444Y-17454960D01*
X10922444Y-17454960D02*
X10912920Y-17407341D01*
X10912920Y-17407341D02*
X10912920Y-17369246D01*
X10912920Y-17369246D02*
X10922444Y-17321627D01*
X10922444Y-17321627D02*
X10931968Y-17293055D01*
X10931968Y-17293055D02*
X10941492Y-17274008D01*
X10941492Y-17274008D02*
X10960539Y-17245436D01*
X10960539Y-17245436D02*
X10970063Y-17235912D01*
X11151015Y-17464484D02*
X11036730Y-17464484D01*
X11093873Y-17464484D02*
X11093873Y-17264484D01*
X11093873Y-17264484D02*
X11074825Y-17293055D01*
X11074825Y-17293055D02*
X11055777Y-17312103D01*
X11055777Y-17312103D02*
X11036730Y-17321627D01*
X11227206Y-17283531D02*
X11236730Y-17274008D01*
X11236730Y-17274008D02*
X11255777Y-17264484D01*
X11255777Y-17264484D02*
X11303396Y-17264484D01*
X11303396Y-17264484D02*
X11322444Y-17274008D01*
X11322444Y-17274008D02*
X11331968Y-17283531D01*
X11331968Y-17283531D02*
X11341492Y-17302579D01*
X11341492Y-17302579D02*
X11341492Y-17321627D01*
X11341492Y-17321627D02*
X11331968Y-17350198D01*
X11331968Y-17350198D02*
X11217682Y-17464484D01*
X11217682Y-17464484D02*
X11341492Y-17464484D01*
X11579587Y-17464484D02*
X11579587Y-17264484D01*
X11665301Y-17464484D02*
X11665301Y-17359722D01*
X11665301Y-17359722D02*
X11655777Y-17340674D01*
X11655777Y-17340674D02*
X11636730Y-17331150D01*
X11636730Y-17331150D02*
X11608158Y-17331150D01*
X11608158Y-17331150D02*
X11589111Y-17340674D01*
X11589111Y-17340674D02*
X11579587Y-17350198D01*
X11789111Y-17464484D02*
X11770063Y-17454960D01*
X11770063Y-17454960D02*
X11760539Y-17445436D01*
X11760539Y-17445436D02*
X11751015Y-17426389D01*
X11751015Y-17426389D02*
X11751015Y-17369246D01*
X11751015Y-17369246D02*
X11760539Y-17350198D01*
X11760539Y-17350198D02*
X11770063Y-17340674D01*
X11770063Y-17340674D02*
X11789111Y-17331150D01*
X11789111Y-17331150D02*
X11817682Y-17331150D01*
X11817682Y-17331150D02*
X11836730Y-17340674D01*
X11836730Y-17340674D02*
X11846254Y-17350198D01*
X11846254Y-17350198D02*
X11855777Y-17369246D01*
X11855777Y-17369246D02*
X11855777Y-17426389D01*
X11855777Y-17426389D02*
X11846254Y-17445436D01*
X11846254Y-17445436D02*
X11836730Y-17454960D01*
X11836730Y-17454960D02*
X11817682Y-17464484D01*
X11817682Y-17464484D02*
X11789111Y-17464484D01*
X11970063Y-17464484D02*
X11951015Y-17454960D01*
X11951015Y-17454960D02*
X11941492Y-17435912D01*
X11941492Y-17435912D02*
X11941492Y-17264484D01*
X12122444Y-17454960D02*
X12103396Y-17464484D01*
X12103396Y-17464484D02*
X12065301Y-17464484D01*
X12065301Y-17464484D02*
X12046254Y-17454960D01*
X12046254Y-17454960D02*
X12036730Y-17435912D01*
X12036730Y-17435912D02*
X12036730Y-17359722D01*
X12036730Y-17359722D02*
X12046254Y-17340674D01*
X12046254Y-17340674D02*
X12065301Y-17331150D01*
X12065301Y-17331150D02*
X12103396Y-17331150D01*
X12103396Y-17331150D02*
X12122444Y-17340674D01*
X12122444Y-17340674D02*
X12131968Y-17359722D01*
X12131968Y-17359722D02*
X12131968Y-17378770D01*
X12131968Y-17378770D02*
X12036730Y-17397817D01*
X12208158Y-17454960D02*
X12227206Y-17464484D01*
X12227206Y-17464484D02*
X12265301Y-17464484D01*
X12265301Y-17464484D02*
X12284349Y-17454960D01*
X12284349Y-17454960D02*
X12293873Y-17435912D01*
X12293873Y-17435912D02*
X12293873Y-17426389D01*
X12293873Y-17426389D02*
X12284349Y-17407341D01*
X12284349Y-17407341D02*
X12265301Y-17397817D01*
X12265301Y-17397817D02*
X12236730Y-17397817D01*
X12236730Y-17397817D02*
X12217682Y-17388293D01*
X12217682Y-17388293D02*
X12208158Y-17369246D01*
X12208158Y-17369246D02*
X12208158Y-17359722D01*
X12208158Y-17359722D02*
X12217682Y-17340674D01*
X12217682Y-17340674D02*
X12236730Y-17331150D01*
X12236730Y-17331150D02*
X12265301Y-17331150D01*
X12265301Y-17331150D02*
X12284349Y-17340674D01*
X12360539Y-17540674D02*
X12370063Y-17531150D01*
X12370063Y-17531150D02*
X12389111Y-17502579D01*
X12389111Y-17502579D02*
X12398635Y-17483531D01*
X12398635Y-17483531D02*
X12408158Y-17454960D01*
X12408158Y-17454960D02*
X12417682Y-17407341D01*
X12417682Y-17407341D02*
X12417682Y-17369246D01*
X12417682Y-17369246D02*
X12408158Y-17321627D01*
X12408158Y-17321627D02*
X12398635Y-17293055D01*
X12398635Y-17293055D02*
X12389111Y-17274008D01*
X12389111Y-17274008D02*
X12370063Y-17245436D01*
X12370063Y-17245436D02*
X12360539Y-17235912D01*
D12*
X7369373Y-17698872D02*
X7369373Y-17575128D01*
X7245628Y-17575128D01*
X7245628Y-17698872D01*
X7369373Y-17698872D01*
D11*
X7760539Y-17728484D02*
X7646253Y-17728484D01*
X7703396Y-17728484D02*
X7703396Y-17528484D01*
X7703396Y-17528484D02*
X7684348Y-17557055D01*
X7684348Y-17557055D02*
X7665301Y-17576103D01*
X7665301Y-17576103D02*
X7646253Y-17585627D01*
X7846253Y-17709436D02*
X7855777Y-17718960D01*
X7855777Y-17718960D02*
X7846253Y-17728484D01*
X7846253Y-17728484D02*
X7836729Y-17718960D01*
X7836729Y-17718960D02*
X7846253Y-17709436D01*
X7846253Y-17709436D02*
X7846253Y-17728484D01*
X7922444Y-17528484D02*
X8055777Y-17528484D01*
X8055777Y-17528484D02*
X7970063Y-17728484D01*
X8227206Y-17528484D02*
X8131967Y-17528484D01*
X8131967Y-17528484D02*
X8122444Y-17623722D01*
X8122444Y-17623722D02*
X8131967Y-17614198D01*
X8131967Y-17614198D02*
X8151015Y-17604674D01*
X8151015Y-17604674D02*
X8198634Y-17604674D01*
X8198634Y-17604674D02*
X8217682Y-17614198D01*
X8217682Y-17614198D02*
X8227206Y-17623722D01*
X8227206Y-17623722D02*
X8236729Y-17642770D01*
X8236729Y-17642770D02*
X8236729Y-17690389D01*
X8236729Y-17690389D02*
X8227206Y-17709436D01*
X8227206Y-17709436D02*
X8217682Y-17718960D01*
X8217682Y-17718960D02*
X8198634Y-17728484D01*
X8198634Y-17728484D02*
X8151015Y-17728484D01*
X8151015Y-17728484D02*
X8131967Y-17718960D01*
X8131967Y-17718960D02*
X8122444Y-17709436D01*
X8360539Y-17528484D02*
X8379587Y-17528484D01*
X8379587Y-17528484D02*
X8398634Y-17538008D01*
X8398634Y-17538008D02*
X8408158Y-17547531D01*
X8408158Y-17547531D02*
X8417682Y-17566579D01*
X8417682Y-17566579D02*
X8427206Y-17604674D01*
X8427206Y-17604674D02*
X8427206Y-17652293D01*
X8427206Y-17652293D02*
X8417682Y-17690389D01*
X8417682Y-17690389D02*
X8408158Y-17709436D01*
X8408158Y-17709436D02*
X8398634Y-17718960D01*
X8398634Y-17718960D02*
X8379587Y-17728484D01*
X8379587Y-17728484D02*
X8360539Y-17728484D01*
X8360539Y-17728484D02*
X8341491Y-17718960D01*
X8341491Y-17718960D02*
X8331967Y-17709436D01*
X8331967Y-17709436D02*
X8322444Y-17690389D01*
X8322444Y-17690389D02*
X8312920Y-17652293D01*
X8312920Y-17652293D02*
X8312920Y-17604674D01*
X8312920Y-17604674D02*
X8322444Y-17566579D01*
X8322444Y-17566579D02*
X8331967Y-17547531D01*
X8331967Y-17547531D02*
X8341491Y-17538008D01*
X8341491Y-17538008D02*
X8360539Y-17528484D01*
X8512920Y-17728484D02*
X8512920Y-17595150D01*
X8512920Y-17614198D02*
X8522444Y-17604674D01*
X8522444Y-17604674D02*
X8541491Y-17595150D01*
X8541491Y-17595150D02*
X8570063Y-17595150D01*
X8570063Y-17595150D02*
X8589110Y-17604674D01*
X8589110Y-17604674D02*
X8598634Y-17623722D01*
X8598634Y-17623722D02*
X8598634Y-17728484D01*
X8598634Y-17623722D02*
X8608158Y-17604674D01*
X8608158Y-17604674D02*
X8627206Y-17595150D01*
X8627206Y-17595150D02*
X8655777Y-17595150D01*
X8655777Y-17595150D02*
X8674825Y-17604674D01*
X8674825Y-17604674D02*
X8684349Y-17623722D01*
X8684349Y-17623722D02*
X8684349Y-17728484D01*
X8779587Y-17728484D02*
X8779587Y-17595150D01*
X8779587Y-17614198D02*
X8789110Y-17604674D01*
X8789110Y-17604674D02*
X8808158Y-17595150D01*
X8808158Y-17595150D02*
X8836730Y-17595150D01*
X8836730Y-17595150D02*
X8855777Y-17604674D01*
X8855777Y-17604674D02*
X8865301Y-17623722D01*
X8865301Y-17623722D02*
X8865301Y-17728484D01*
X8865301Y-17623722D02*
X8874825Y-17604674D01*
X8874825Y-17604674D02*
X8893872Y-17595150D01*
X8893872Y-17595150D02*
X8922444Y-17595150D01*
X8922444Y-17595150D02*
X8941491Y-17604674D01*
X8941491Y-17604674D02*
X8951015Y-17623722D01*
X8951015Y-17623722D02*
X8951015Y-17728484D01*
X9341491Y-17518960D02*
X9170063Y-17776103D01*
X9598634Y-17528484D02*
X9617682Y-17528484D01*
X9617682Y-17528484D02*
X9636730Y-17538008D01*
X9636730Y-17538008D02*
X9646253Y-17547531D01*
X9646253Y-17547531D02*
X9655777Y-17566579D01*
X9655777Y-17566579D02*
X9665301Y-17604674D01*
X9665301Y-17604674D02*
X9665301Y-17652293D01*
X9665301Y-17652293D02*
X9655777Y-17690389D01*
X9655777Y-17690389D02*
X9646253Y-17709436D01*
X9646253Y-17709436D02*
X9636730Y-17718960D01*
X9636730Y-17718960D02*
X9617682Y-17728484D01*
X9617682Y-17728484D02*
X9598634Y-17728484D01*
X9598634Y-17728484D02*
X9579587Y-17718960D01*
X9579587Y-17718960D02*
X9570063Y-17709436D01*
X9570063Y-17709436D02*
X9560539Y-17690389D01*
X9560539Y-17690389D02*
X9551015Y-17652293D01*
X9551015Y-17652293D02*
X9551015Y-17604674D01*
X9551015Y-17604674D02*
X9560539Y-17566579D01*
X9560539Y-17566579D02*
X9570063Y-17547531D01*
X9570063Y-17547531D02*
X9579587Y-17538008D01*
X9579587Y-17538008D02*
X9598634Y-17528484D01*
X9751015Y-17709436D02*
X9760539Y-17718960D01*
X9760539Y-17718960D02*
X9751015Y-17728484D01*
X9751015Y-17728484D02*
X9741492Y-17718960D01*
X9741492Y-17718960D02*
X9751015Y-17709436D01*
X9751015Y-17709436D02*
X9751015Y-17728484D01*
X9884349Y-17528484D02*
X9903396Y-17528484D01*
X9903396Y-17528484D02*
X9922444Y-17538008D01*
X9922444Y-17538008D02*
X9931968Y-17547531D01*
X9931968Y-17547531D02*
X9941492Y-17566579D01*
X9941492Y-17566579D02*
X9951015Y-17604674D01*
X9951015Y-17604674D02*
X9951015Y-17652293D01*
X9951015Y-17652293D02*
X9941492Y-17690389D01*
X9941492Y-17690389D02*
X9931968Y-17709436D01*
X9931968Y-17709436D02*
X9922444Y-17718960D01*
X9922444Y-17718960D02*
X9903396Y-17728484D01*
X9903396Y-17728484D02*
X9884349Y-17728484D01*
X9884349Y-17728484D02*
X9865301Y-17718960D01*
X9865301Y-17718960D02*
X9855777Y-17709436D01*
X9855777Y-17709436D02*
X9846253Y-17690389D01*
X9846253Y-17690389D02*
X9836730Y-17652293D01*
X9836730Y-17652293D02*
X9836730Y-17604674D01*
X9836730Y-17604674D02*
X9846253Y-17566579D01*
X9846253Y-17566579D02*
X9855777Y-17547531D01*
X9855777Y-17547531D02*
X9865301Y-17538008D01*
X9865301Y-17538008D02*
X9884349Y-17528484D01*
X10122444Y-17528484D02*
X10084349Y-17528484D01*
X10084349Y-17528484D02*
X10065301Y-17538008D01*
X10065301Y-17538008D02*
X10055777Y-17547531D01*
X10055777Y-17547531D02*
X10036730Y-17576103D01*
X10036730Y-17576103D02*
X10027206Y-17614198D01*
X10027206Y-17614198D02*
X10027206Y-17690389D01*
X10027206Y-17690389D02*
X10036730Y-17709436D01*
X10036730Y-17709436D02*
X10046253Y-17718960D01*
X10046253Y-17718960D02*
X10065301Y-17728484D01*
X10065301Y-17728484D02*
X10103396Y-17728484D01*
X10103396Y-17728484D02*
X10122444Y-17718960D01*
X10122444Y-17718960D02*
X10131968Y-17709436D01*
X10131968Y-17709436D02*
X10141492Y-17690389D01*
X10141492Y-17690389D02*
X10141492Y-17642770D01*
X10141492Y-17642770D02*
X10131968Y-17623722D01*
X10131968Y-17623722D02*
X10122444Y-17614198D01*
X10122444Y-17614198D02*
X10103396Y-17604674D01*
X10103396Y-17604674D02*
X10065301Y-17604674D01*
X10065301Y-17604674D02*
X10046253Y-17614198D01*
X10046253Y-17614198D02*
X10036730Y-17623722D01*
X10036730Y-17623722D02*
X10027206Y-17642770D01*
X10255777Y-17614198D02*
X10236730Y-17604674D01*
X10236730Y-17604674D02*
X10227206Y-17595150D01*
X10227206Y-17595150D02*
X10217682Y-17576103D01*
X10217682Y-17576103D02*
X10217682Y-17566579D01*
X10217682Y-17566579D02*
X10227206Y-17547531D01*
X10227206Y-17547531D02*
X10236730Y-17538008D01*
X10236730Y-17538008D02*
X10255777Y-17528484D01*
X10255777Y-17528484D02*
X10293873Y-17528484D01*
X10293873Y-17528484D02*
X10312920Y-17538008D01*
X10312920Y-17538008D02*
X10322444Y-17547531D01*
X10322444Y-17547531D02*
X10331968Y-17566579D01*
X10331968Y-17566579D02*
X10331968Y-17576103D01*
X10331968Y-17576103D02*
X10322444Y-17595150D01*
X10322444Y-17595150D02*
X10312920Y-17604674D01*
X10312920Y-17604674D02*
X10293873Y-17614198D01*
X10293873Y-17614198D02*
X10255777Y-17614198D01*
X10255777Y-17614198D02*
X10236730Y-17623722D01*
X10236730Y-17623722D02*
X10227206Y-17633246D01*
X10227206Y-17633246D02*
X10217682Y-17652293D01*
X10217682Y-17652293D02*
X10217682Y-17690389D01*
X10217682Y-17690389D02*
X10227206Y-17709436D01*
X10227206Y-17709436D02*
X10236730Y-17718960D01*
X10236730Y-17718960D02*
X10255777Y-17728484D01*
X10255777Y-17728484D02*
X10293873Y-17728484D01*
X10293873Y-17728484D02*
X10312920Y-17718960D01*
X10312920Y-17718960D02*
X10322444Y-17709436D01*
X10322444Y-17709436D02*
X10331968Y-17690389D01*
X10331968Y-17690389D02*
X10331968Y-17652293D01*
X10331968Y-17652293D02*
X10322444Y-17633246D01*
X10322444Y-17633246D02*
X10312920Y-17623722D01*
X10312920Y-17623722D02*
X10293873Y-17614198D01*
X10427206Y-17728484D02*
X10465301Y-17728484D01*
X10465301Y-17728484D02*
X10484349Y-17718960D01*
X10484349Y-17718960D02*
X10493873Y-17709436D01*
X10493873Y-17709436D02*
X10512920Y-17680865D01*
X10512920Y-17680865D02*
X10522444Y-17642770D01*
X10522444Y-17642770D02*
X10522444Y-17566579D01*
X10522444Y-17566579D02*
X10512920Y-17547531D01*
X10512920Y-17547531D02*
X10503396Y-17538008D01*
X10503396Y-17538008D02*
X10484349Y-17528484D01*
X10484349Y-17528484D02*
X10446253Y-17528484D01*
X10446253Y-17528484D02*
X10427206Y-17538008D01*
X10427206Y-17538008D02*
X10417682Y-17547531D01*
X10417682Y-17547531D02*
X10408158Y-17566579D01*
X10408158Y-17566579D02*
X10408158Y-17614198D01*
X10408158Y-17614198D02*
X10417682Y-17633246D01*
X10417682Y-17633246D02*
X10427206Y-17642770D01*
X10427206Y-17642770D02*
X10446253Y-17652293D01*
X10446253Y-17652293D02*
X10484349Y-17652293D01*
X10484349Y-17652293D02*
X10503396Y-17642770D01*
X10503396Y-17642770D02*
X10512920Y-17633246D01*
X10512920Y-17633246D02*
X10522444Y-17614198D01*
X10598634Y-17528484D02*
X10598634Y-17566579D01*
X10674825Y-17528484D02*
X10674825Y-17566579D01*
X10970063Y-17804674D02*
X10960539Y-17795150D01*
X10960539Y-17795150D02*
X10941492Y-17766579D01*
X10941492Y-17766579D02*
X10931968Y-17747531D01*
X10931968Y-17747531D02*
X10922444Y-17718960D01*
X10922444Y-17718960D02*
X10912920Y-17671341D01*
X10912920Y-17671341D02*
X10912920Y-17633246D01*
X10912920Y-17633246D02*
X10922444Y-17585627D01*
X10922444Y-17585627D02*
X10931968Y-17557055D01*
X10931968Y-17557055D02*
X10941492Y-17538008D01*
X10941492Y-17538008D02*
X10960539Y-17509436D01*
X10960539Y-17509436D02*
X10970063Y-17499912D01*
X11036730Y-17547531D02*
X11046254Y-17538008D01*
X11046254Y-17538008D02*
X11065301Y-17528484D01*
X11065301Y-17528484D02*
X11112920Y-17528484D01*
X11112920Y-17528484D02*
X11131968Y-17538008D01*
X11131968Y-17538008D02*
X11141492Y-17547531D01*
X11141492Y-17547531D02*
X11151015Y-17566579D01*
X11151015Y-17566579D02*
X11151015Y-17585627D01*
X11151015Y-17585627D02*
X11141492Y-17614198D01*
X11141492Y-17614198D02*
X11027206Y-17728484D01*
X11027206Y-17728484D02*
X11151015Y-17728484D01*
X11389111Y-17728484D02*
X11389111Y-17528484D01*
X11474825Y-17728484D02*
X11474825Y-17623722D01*
X11474825Y-17623722D02*
X11465301Y-17604674D01*
X11465301Y-17604674D02*
X11446254Y-17595150D01*
X11446254Y-17595150D02*
X11417682Y-17595150D01*
X11417682Y-17595150D02*
X11398634Y-17604674D01*
X11398634Y-17604674D02*
X11389111Y-17614198D01*
X11598634Y-17728484D02*
X11579587Y-17718960D01*
X11579587Y-17718960D02*
X11570063Y-17709436D01*
X11570063Y-17709436D02*
X11560539Y-17690389D01*
X11560539Y-17690389D02*
X11560539Y-17633246D01*
X11560539Y-17633246D02*
X11570063Y-17614198D01*
X11570063Y-17614198D02*
X11579587Y-17604674D01*
X11579587Y-17604674D02*
X11598634Y-17595150D01*
X11598634Y-17595150D02*
X11627206Y-17595150D01*
X11627206Y-17595150D02*
X11646254Y-17604674D01*
X11646254Y-17604674D02*
X11655777Y-17614198D01*
X11655777Y-17614198D02*
X11665301Y-17633246D01*
X11665301Y-17633246D02*
X11665301Y-17690389D01*
X11665301Y-17690389D02*
X11655777Y-17709436D01*
X11655777Y-17709436D02*
X11646254Y-17718960D01*
X11646254Y-17718960D02*
X11627206Y-17728484D01*
X11627206Y-17728484D02*
X11598634Y-17728484D01*
X11779587Y-17728484D02*
X11760539Y-17718960D01*
X11760539Y-17718960D02*
X11751015Y-17699912D01*
X11751015Y-17699912D02*
X11751015Y-17528484D01*
X11931968Y-17718960D02*
X11912920Y-17728484D01*
X11912920Y-17728484D02*
X11874825Y-17728484D01*
X11874825Y-17728484D02*
X11855777Y-17718960D01*
X11855777Y-17718960D02*
X11846254Y-17699912D01*
X11846254Y-17699912D02*
X11846254Y-17623722D01*
X11846254Y-17623722D02*
X11855777Y-17604674D01*
X11855777Y-17604674D02*
X11874825Y-17595150D01*
X11874825Y-17595150D02*
X11912920Y-17595150D01*
X11912920Y-17595150D02*
X11931968Y-17604674D01*
X11931968Y-17604674D02*
X11941492Y-17623722D01*
X11941492Y-17623722D02*
X11941492Y-17642770D01*
X11941492Y-17642770D02*
X11846254Y-17661817D01*
X12017682Y-17718960D02*
X12036730Y-17728484D01*
X12036730Y-17728484D02*
X12074825Y-17728484D01*
X12074825Y-17728484D02*
X12093873Y-17718960D01*
X12093873Y-17718960D02*
X12103396Y-17699912D01*
X12103396Y-17699912D02*
X12103396Y-17690389D01*
X12103396Y-17690389D02*
X12093873Y-17671341D01*
X12093873Y-17671341D02*
X12074825Y-17661817D01*
X12074825Y-17661817D02*
X12046254Y-17661817D01*
X12046254Y-17661817D02*
X12027206Y-17652293D01*
X12027206Y-17652293D02*
X12017682Y-17633246D01*
X12017682Y-17633246D02*
X12017682Y-17623722D01*
X12017682Y-17623722D02*
X12027206Y-17604674D01*
X12027206Y-17604674D02*
X12046254Y-17595150D01*
X12046254Y-17595150D02*
X12074825Y-17595150D01*
X12074825Y-17595150D02*
X12093873Y-17604674D01*
X12170063Y-17804674D02*
X12179587Y-17795150D01*
X12179587Y-17795150D02*
X12198635Y-17766579D01*
X12198635Y-17766579D02*
X12208158Y-17747531D01*
X12208158Y-17747531D02*
X12217682Y-17718960D01*
X12217682Y-17718960D02*
X12227206Y-17671341D01*
X12227206Y-17671341D02*
X12227206Y-17633246D01*
X12227206Y-17633246D02*
X12217682Y-17585627D01*
X12217682Y-17585627D02*
X12208158Y-17557055D01*
X12208158Y-17557055D02*
X12198635Y-17538008D01*
X12198635Y-17538008D02*
X12179587Y-17509436D01*
X12179587Y-17509436D02*
X12170063Y-17499912D01*
M02*
