%TF.GenerationSoftware,KiCad,Pcbnew,8.0.0-8.0.0-1~ubuntu20.04.1*%
%TF.CreationDate,2024-04-01T04:19:54+08:00*%
%TF.ProjectId,pcb_badge,7063625f-6261-4646-9765-2e6b69636164,rev?*%
%TF.SameCoordinates,Original*%
%TF.FileFunction,Copper,L2,Bot*%
%TF.FilePolarity,Positive*%
%FSLAX46Y46*%
G04 Gerber Fmt 4.6, Leading zero omitted, Abs format (unit mm)*
G04 Created by KiCad (PCBNEW 8.0.0-8.0.0-1~ubuntu20.04.1) date 2024-04-01 04:19:54*
%MOMM*%
%LPD*%
G01*
G04 APERTURE LIST*
%TA.AperFunction,ComponentPad*%
%ADD10R,1.700000X1.700000*%
%TD*%
%TA.AperFunction,ComponentPad*%
%ADD11O,1.700000X1.700000*%
%TD*%
%TA.AperFunction,ComponentPad*%
%ADD12C,1.270000*%
%TD*%
%TA.AperFunction,ComponentPad*%
%ADD13R,3.000000X3.000000*%
%TD*%
%TA.AperFunction,ComponentPad*%
%ADD14C,3.000000*%
%TD*%
%TA.AperFunction,ComponentPad*%
%ADD15O,1.070000X2.140000*%
%TD*%
%TA.AperFunction,ComponentPad*%
%ADD16C,1.300000*%
%TD*%
%TA.AperFunction,ComponentPad*%
%ADD17C,1.701800*%
%TD*%
%TA.AperFunction,SMDPad,CuDef*%
%ADD18R,3.000000X4.200000*%
%TD*%
%TA.AperFunction,ViaPad*%
%ADD19C,0.700000*%
%TD*%
%TA.AperFunction,ViaPad*%
%ADD20C,0.600000*%
%TD*%
%TA.AperFunction,ViaPad*%
%ADD21C,0.500000*%
%TD*%
%TA.AperFunction,Conductor*%
%ADD22C,0.350000*%
%TD*%
%TA.AperFunction,Conductor*%
%ADD23C,0.254000*%
%TD*%
%TA.AperFunction,Conductor*%
%ADD24C,0.180000*%
%TD*%
%TA.AperFunction,Conductor*%
%ADD25C,0.250000*%
%TD*%
G04 APERTURE END LIST*
D10*
%TO.P,J5,1,Pin_1*%
%TO.N,unconnected-(J5-Pin_1-Pad1)*%
X123475000Y-157500000D03*
D11*
%TO.P,J5,2,Pin_2*%
%TO.N,Net-(J5-Pin_2)*%
X126015000Y-157500000D03*
%TO.P,J5,3,Pin_3*%
%TO.N,GND*%
X128555000Y-157500000D03*
%TD*%
D10*
%TO.P,J7,1,Pin_1*%
%TO.N,VCC*%
X126000000Y-60225000D03*
D11*
%TO.P,J7,2,Pin_2*%
%TO.N,GND*%
X126000000Y-62765000D03*
%TD*%
D12*
%TO.P,U5,1,OUTPUT*%
%TO.N,Net-(U5-OUTPUT)*%
X101904500Y-155060900D03*
%TO.P,U5,2,GND*%
%TO.N,GND*%
X104444500Y-155060900D03*
%TO.P,U5,3,VCC*%
%TO.N,VCC*%
X106984500Y-155060900D03*
%TD*%
D13*
%TO.P,J2,1,Pin_1*%
%TO.N,+BATT*%
X104607500Y-43950000D03*
D14*
%TO.P,J2,2,Pin_2*%
%TO.N,GND*%
X100727500Y-43950000D03*
%TD*%
D15*
%TO.P,J6,S3*%
%TO.N,N/C*%
X122573250Y-31975000D03*
D16*
%TO.P,J6,S4*%
X123748250Y-34625000D03*
%TO.P,J6,S5*%
X128598250Y-34625000D03*
D15*
%TO.P,J6,S6*%
X129773250Y-31975000D03*
%TD*%
D12*
%TO.P,LED1,1,ROW5*%
%TO.N,/LED Matrix/MAT_RE*%
X77985800Y-55110000D03*
%TO.P,LED1,2,ROW7*%
%TO.N,/LED Matrix/MAT_RG*%
X77985800Y-57650000D03*
%TO.P,LED1,3,COL2*%
%TO.N,/LED Matrix/MAT_CB*%
X77985800Y-60190000D03*
%TO.P,LED1,4,COL3*%
%TO.N,/LED Matrix/MAT_CC*%
X77985800Y-62730000D03*
%TO.P,LED1,5,ROW8*%
%TO.N,/LED Matrix/MAT_RH*%
X77985800Y-65270000D03*
%TO.P,LED1,6,COL5*%
%TO.N,/LED Matrix/MAT_CE*%
X77985800Y-67810000D03*
%TO.P,LED1,7,ROW6*%
%TO.N,/LED Matrix/MAT_RF*%
X77985800Y-70350000D03*
%TO.P,LED1,8,ROW3*%
%TO.N,/LED Matrix/MAT_RC*%
X77985800Y-72890000D03*
%TO.P,LED1,9,ROW1*%
%TO.N,/LED Matrix/MAT_RA*%
X102014200Y-72890000D03*
%TO.P,LED1,10,COL4*%
%TO.N,/LED Matrix/MAT_CD*%
X102014200Y-70350000D03*
%TO.P,LED1,11,COL6*%
%TO.N,/LED Matrix/MAT_CF*%
X102014200Y-67810000D03*
%TO.P,LED1,12,ROW4*%
%TO.N,/LED Matrix/MAT_RD*%
X102014200Y-65270000D03*
%TO.P,LED1,13,COL1*%
%TO.N,/LED Matrix/MAT_CA*%
X102014200Y-62730000D03*
%TO.P,LED1,14,ROW2*%
%TO.N,/LED Matrix/MAT_RB*%
X102014200Y-60190000D03*
%TO.P,LED1,15,COL7*%
%TO.N,/LED Matrix/MAT_CG*%
X102014200Y-57650000D03*
%TO.P,LED1,16,COL8*%
%TO.N,/LED Matrix/MAT_CH*%
X102014200Y-55110000D03*
%TD*%
D10*
%TO.P,J4,1,Pin_1*%
%TO.N,GND*%
X90975000Y-157500000D03*
D11*
%TO.P,J4,2,Pin_2*%
%TO.N,Net-(J4-Pin_2)*%
X93515000Y-157500000D03*
%TO.P,J4,3,Pin_3*%
%TO.N,unconnected-(J4-Pin_3-Pad3)*%
X96055000Y-157500000D03*
%TD*%
D10*
%TO.P,J3,1,Pin_1*%
%TO.N,GND*%
X121800000Y-63000000D03*
D11*
%TO.P,J3,2,Pin_2*%
%TO.N,/MCU/PA14*%
X119260000Y-63000000D03*
%TO.P,J3,3,Pin_3*%
%TO.N,/MCU/PA13*%
X116720000Y-63000000D03*
%TO.P,J3,4,Pin_4*%
%TO.N,VCC*%
X114180000Y-63000000D03*
%TD*%
D17*
%TO.P,BT1,1,+*%
%TO.N,+BATT*%
X81299990Y-133000000D03*
%TO.P,BT1,2,-*%
%TO.N,GND*%
X100549994Y-133000000D03*
%TD*%
D18*
%TO.P,BT2,1,+*%
%TO.N,+BATT*%
X147500000Y-133000000D03*
%TO.P,BT2,2,-*%
%TO.N,GND*%
X118500000Y-133000000D03*
%TD*%
D19*
%TO.N,GND*%
X86000000Y-36250000D03*
X121200000Y-58300000D03*
X132400000Y-43700000D03*
X140500000Y-148000000D03*
X112050000Y-41800000D03*
D20*
X140138842Y-34239182D03*
D19*
X115300000Y-131500000D03*
D20*
X153500000Y-45100000D03*
D19*
X125600000Y-54200000D03*
X80750000Y-40000000D03*
X88800000Y-43200000D03*
X117300000Y-50400000D03*
D20*
X153000000Y-35750000D03*
X153900000Y-43445307D03*
D19*
X124100000Y-44400000D03*
X143600000Y-34600000D03*
%TO.N,VCC*%
X132700000Y-42700000D03*
X121100000Y-43000000D03*
X124100000Y-54300000D03*
X112200000Y-43300000D03*
X152300000Y-117500000D03*
D20*
X115662500Y-51087500D03*
X117300000Y-60100000D03*
D19*
X142700000Y-35600000D03*
X117600000Y-157700000D03*
D20*
X115750000Y-48000000D03*
D19*
X90200000Y-43000000D03*
D20*
%TO.N,/LED Matrix/MAT_RA*%
X133300000Y-47100000D03*
X132600000Y-54000000D03*
%TO.N,/LED Matrix/MAT_CA*%
X133300000Y-61200000D03*
X133300000Y-58200000D03*
X133300000Y-64200000D03*
X133600000Y-47900000D03*
X133300000Y-55200000D03*
X133300000Y-67200000D03*
X133300000Y-52200000D03*
X133300000Y-70200000D03*
X133300000Y-73200000D03*
D21*
X103400000Y-71700000D03*
D19*
%TO.N,+BATT*%
X135600000Y-133000000D03*
X82500000Y-40500000D03*
X83750000Y-36500000D03*
D20*
%TO.N,/LED Matrix/MAT_CB*%
X136300000Y-67200000D03*
D21*
X99950000Y-70600000D03*
D20*
X136300000Y-73200000D03*
X136300000Y-52200000D03*
X136300000Y-70200000D03*
X136300000Y-58200000D03*
X136300000Y-64200000D03*
X136300000Y-55200000D03*
X137200000Y-47900000D03*
X136300000Y-61200000D03*
D21*
%TO.N,/Power/USB_5V*%
X121350000Y-37250000D03*
X127500000Y-36650000D03*
%TO.N,/LED Matrix/MAT_CC*%
X98450000Y-73050000D03*
D20*
X140400000Y-47900000D03*
X139300000Y-73200000D03*
X139300000Y-61200000D03*
X139300000Y-52200000D03*
X139300000Y-64200000D03*
X139300000Y-70200000D03*
X139300000Y-55200000D03*
X139300000Y-67200000D03*
X139300000Y-58200000D03*
%TO.N,/MCU/PA9*%
X135700000Y-30900000D03*
X137200000Y-30900000D03*
%TO.N,/LED Matrix/MAT_CD*%
X142300000Y-70200000D03*
X142300000Y-64200000D03*
X142300000Y-55200000D03*
X142300000Y-73200000D03*
X142300000Y-58200000D03*
X142300000Y-67200000D03*
D21*
X98800000Y-74600000D03*
D20*
X142300000Y-52200000D03*
X144000000Y-47900000D03*
X142300000Y-61200000D03*
D21*
%TO.N,/LED Matrix/MAT_CE*%
X97100000Y-68950000D03*
D20*
X146500000Y-49000000D03*
X145300000Y-58200000D03*
X145300000Y-70200000D03*
X145300000Y-61200000D03*
X145300000Y-64200000D03*
X145300000Y-67200000D03*
X145300000Y-52200000D03*
X145300000Y-55200000D03*
X145300000Y-73200000D03*
%TO.N,/LED Matrix/MAT_CF*%
X149000000Y-47900000D03*
X148300000Y-73200000D03*
X148300000Y-55200000D03*
X148300000Y-70200000D03*
X148300000Y-61200000D03*
X148300000Y-64200000D03*
X148300000Y-67200000D03*
X148300000Y-52200000D03*
X148300000Y-58200000D03*
%TO.N,/LED Matrix/MAT_CG*%
X151300000Y-58200000D03*
X151300000Y-73200000D03*
X151300000Y-52200000D03*
X151300000Y-64200000D03*
X151300000Y-70200000D03*
X151300000Y-55200000D03*
X151300000Y-61200000D03*
X152300000Y-47900000D03*
X151300000Y-67200000D03*
%TO.N,/LED Matrix/MAT_CH*%
X154300000Y-64200000D03*
X154300000Y-70200000D03*
X154300000Y-73200000D03*
X154300000Y-67200000D03*
X154300000Y-58200000D03*
X154300000Y-52200000D03*
X154300000Y-55200000D03*
X154300000Y-61200000D03*
D21*
%TO.N,/LED Matrix/MAT_RB*%
X103350000Y-72650000D03*
D20*
X135465399Y-56758048D03*
X135100000Y-47100000D03*
%TO.N,/LED Matrix/MAT_RC*%
X138500000Y-47100000D03*
D21*
X98450000Y-70550000D03*
D20*
X138600000Y-60000000D03*
D21*
%TO.N,/LED Matrix/MAT_RD*%
X100250000Y-69450000D03*
D20*
X141600000Y-63000000D03*
X141900000Y-47000000D03*
D21*
%TO.N,/LED Matrix/MAT_RE*%
X100150000Y-68450000D03*
D20*
X145400000Y-47000000D03*
X144600000Y-66000000D03*
%TO.N,/LED Matrix/MAT_RF*%
X147600000Y-69000000D03*
D21*
X95950000Y-69500000D03*
D20*
X148600000Y-47000000D03*
%TO.N,/LED Matrix/MAT_RG*%
X150600000Y-72000000D03*
X152400000Y-47000000D03*
D21*
X100300000Y-67100000D03*
D20*
%TO.N,/LED Matrix/MAT_RH*%
X155100000Y-43600000D03*
X153600000Y-75000000D03*
D21*
X93750000Y-68750000D03*
D20*
%TO.N,/MCU/PA14*%
X111700000Y-53200000D03*
X114400000Y-45700000D03*
%TO.N,/MCU/PA13*%
X111500000Y-52200000D03*
X116900000Y-45600000D03*
D21*
%TO.N,/MCU/PA2*%
X131800000Y-155700000D03*
X87100000Y-155900000D03*
D19*
%TO.N,Net-(J4-Pin_2)*%
X87700000Y-159300000D03*
D21*
%TO.N,/MCU/PA15*%
X102600000Y-143100000D03*
X106800000Y-77300000D03*
D20*
%TO.N,/LED Matrix/Y7D*%
X137000000Y-41200000D03*
X137800000Y-42500000D03*
%TO.N,/LED Matrix/Y6D*%
X137900000Y-41000000D03*
X140800000Y-41400000D03*
%TO.N,/LED Matrix/Y5D*%
X142300000Y-41000000D03*
X138300000Y-40200000D03*
%TO.N,/LED Matrix/Y4D*%
X136300000Y-39500000D03*
X143900000Y-40300000D03*
%TO.N,/LED Matrix/Y3D*%
X146600000Y-42100000D03*
X135500000Y-41100000D03*
%TO.N,/LED Matrix/Y2D*%
X135200000Y-41900000D03*
X148900000Y-41600000D03*
%TO.N,/LED Matrix/Y1D*%
X151200000Y-41400000D03*
X134500000Y-42400000D03*
%TO.N,/LED Matrix/Y0D*%
X152100000Y-40720000D03*
D21*
X130200000Y-47100000D03*
%TO.N,/MCU/PB3*%
X107400000Y-77800000D03*
X125600000Y-151400000D03*
D20*
%TO.N,/MCU/PA8*%
X146500000Y-34300000D03*
D21*
X135500000Y-32500000D03*
%TO.N,/MCU/PB4*%
X105300000Y-129000000D03*
X108100000Y-78400000D03*
%TO.N,/MCU/PB5*%
X113300000Y-140300000D03*
X108700000Y-79000000D03*
%TO.N,/MCU/PB6*%
X128300000Y-142800000D03*
X109600000Y-79000000D03*
%TO.N,/MCU/PB7*%
X110200000Y-78300000D03*
X139500000Y-142600000D03*
%TO.N,/MCU/PB8*%
X110900000Y-77700000D03*
X113400000Y-129200000D03*
%TO.N,/MCU/PB9*%
X111500000Y-77000000D03*
X138700000Y-128300000D03*
%TO.N,/MCU/STM_VBATT*%
X114000000Y-54000000D03*
X110500000Y-45100000D03*
%TO.N,Net-(J1-Pin_2)*%
X126800000Y-33300000D03*
X113300000Y-35100000D03*
%TD*%
D22*
%TO.N,GND*%
X131700000Y-38500000D02*
X131700000Y-42900000D01*
X118300000Y-55400000D02*
X118400000Y-55500000D01*
X112050000Y-41800000D02*
X112000000Y-41800000D01*
X81550000Y-41750000D02*
X83250000Y-41750000D01*
D23*
X152250000Y-35000000D02*
X153000000Y-35750000D01*
D22*
X139700000Y-148800000D02*
X140500000Y-148000000D01*
X85750000Y-37750000D02*
X84000000Y-39500000D01*
X93950000Y-44250000D02*
X94250000Y-43950000D01*
X86000000Y-36250000D02*
X85750000Y-36500000D01*
D23*
X153900000Y-43445307D02*
X153900000Y-44700000D01*
D22*
X128555000Y-157500000D02*
X128555000Y-152045000D01*
X117300000Y-54400000D02*
X118300000Y-55400000D01*
X124100000Y-44400000D02*
X124100000Y-52700000D01*
X80750000Y-40000000D02*
X80750000Y-40950000D01*
X121500000Y-41800000D02*
X112050000Y-41800000D01*
X132400000Y-43600000D02*
X132400000Y-43700000D01*
X94250000Y-43950000D02*
X100727500Y-43950000D01*
X80750000Y-40950000D02*
X81550000Y-41750000D01*
D23*
X153900000Y-36650000D02*
X153000000Y-35750000D01*
D22*
X131700000Y-42900000D02*
X132400000Y-43600000D01*
X140900000Y-34500000D02*
X143500000Y-34500000D01*
X89850000Y-44250000D02*
X93950000Y-44250000D01*
X88800000Y-43200000D02*
X89850000Y-44250000D01*
X118300000Y-55400000D02*
X121200000Y-58300000D01*
X140900000Y-34500000D02*
X140399660Y-34500000D01*
X143500000Y-34500000D02*
X143600000Y-34600000D01*
X140900000Y-34500000D02*
X135700000Y-34500000D01*
X118500000Y-133000000D02*
X116800000Y-133000000D01*
X135700000Y-34500000D02*
X132600000Y-37600000D01*
X117300000Y-50400000D02*
X117300000Y-54400000D01*
X118400000Y-55500000D02*
X124300000Y-55500000D01*
X84000000Y-39500000D02*
X84000000Y-41000000D01*
X132600000Y-37600000D02*
X131700000Y-38500000D01*
X84700000Y-43200000D02*
X83250000Y-41750000D01*
D23*
X153900000Y-44700000D02*
X153500000Y-45100000D01*
D22*
X124300000Y-55500000D02*
X125600000Y-54200000D01*
X124100000Y-44400000D02*
X121500000Y-41800000D01*
X88800000Y-43200000D02*
X84700000Y-43200000D01*
X140399660Y-34500000D02*
X140138842Y-34239182D01*
X131800000Y-148800000D02*
X139700000Y-148800000D01*
X124100000Y-52700000D02*
X125600000Y-54200000D01*
X85750000Y-36500000D02*
X85750000Y-37750000D01*
X128555000Y-152045000D02*
X131800000Y-148800000D01*
X116800000Y-133000000D02*
X115300000Y-131500000D01*
X84000000Y-41000000D02*
X83250000Y-41750000D01*
D23*
X153900000Y-43445307D02*
X153900000Y-36650000D01*
D22*
%TO.N,VCC*%
X142695000Y-35595000D02*
X142700000Y-35600000D01*
X117080000Y-60100000D02*
X117300000Y-60100000D01*
X108200000Y-159100000D02*
X106984500Y-157884500D01*
X152300000Y-117500000D02*
X155300000Y-120500000D01*
X119500000Y-43700000D02*
X112600000Y-43700000D01*
X116950000Y-47650000D02*
X123600000Y-54300000D01*
X106984500Y-157884500D02*
X106984500Y-155060900D01*
X120400000Y-43700000D02*
X121100000Y-43000000D01*
X123600000Y-54300000D02*
X124100000Y-54300000D01*
X115750000Y-51000000D02*
X115662500Y-51087500D01*
X97000000Y-43000000D02*
X98750000Y-41250000D01*
X120400000Y-43700000D02*
X119500000Y-43700000D01*
X116600000Y-48000000D02*
X116950000Y-47650000D01*
X118200000Y-43700000D02*
X118100000Y-43800000D01*
X132700000Y-38495000D02*
X135600000Y-35595000D01*
X132700000Y-42700000D02*
X132700000Y-38495000D01*
X98750000Y-41250000D02*
X110150000Y-41250000D01*
X114180000Y-63000000D02*
X117080000Y-60100000D01*
X116700000Y-159600000D02*
X116200000Y-159100000D01*
X117300000Y-60100000D02*
X115662500Y-58462500D01*
X115750000Y-48000000D02*
X115750000Y-51000000D01*
X155300000Y-120500000D02*
X155300000Y-144900000D01*
X118100000Y-46500000D02*
X118100000Y-43800000D01*
X110150000Y-41250000D02*
X112200000Y-43300000D01*
X155300000Y-144900000D02*
X140600000Y-159600000D01*
X135600000Y-35595000D02*
X142695000Y-35595000D01*
X117600000Y-157700000D02*
X116200000Y-159100000D01*
X112600000Y-43700000D02*
X112200000Y-43300000D01*
X119500000Y-43700000D02*
X118200000Y-43700000D01*
X115750000Y-48000000D02*
X116600000Y-48000000D01*
X116200000Y-159100000D02*
X108200000Y-159100000D01*
X90200000Y-43000000D02*
X97000000Y-43000000D01*
X115662500Y-58462500D02*
X115662500Y-51087500D01*
X140600000Y-159600000D02*
X116700000Y-159600000D01*
X116950000Y-47650000D02*
X118100000Y-46500000D01*
D24*
%TO.N,/LED Matrix/MAT_RA*%
X132600000Y-47800000D02*
X133300000Y-47100000D01*
X132600000Y-69650000D02*
X131550000Y-70700000D01*
X103400000Y-70700000D02*
X102014200Y-72085800D01*
X102014200Y-72085800D02*
X102014200Y-72890000D01*
X131550000Y-70700000D02*
X103400000Y-70700000D01*
X132600000Y-54000000D02*
X132600000Y-69650000D01*
X132600000Y-48300000D02*
X132600000Y-47800000D01*
X132600000Y-54000000D02*
X132600000Y-48300000D01*
%TO.N,/LED Matrix/MAT_CA*%
X128100000Y-71050000D02*
X105500000Y-71050000D01*
X133300000Y-71800000D02*
X133300000Y-72100000D01*
X133300000Y-72250000D02*
X133300000Y-71800000D01*
X133300000Y-71800000D02*
X133300000Y-52200000D01*
X132100000Y-71050000D02*
X128100000Y-71050000D01*
X133600000Y-51900000D02*
X133300000Y-52200000D01*
X133300000Y-73200000D02*
X133300000Y-72250000D01*
X105500000Y-71050000D02*
X104050000Y-71050000D01*
X133600000Y-47900000D02*
X133600000Y-51900000D01*
X133300000Y-72250000D02*
X132100000Y-71050000D01*
X104050000Y-71050000D02*
X103400000Y-71700000D01*
D22*
%TO.N,+BATT*%
X147500000Y-133000000D02*
X135900000Y-133000000D01*
X135900000Y-133000000D02*
X135600000Y-133000000D01*
X83750000Y-36500000D02*
X82500000Y-37750000D01*
X82500000Y-37750000D02*
X82500000Y-40500000D01*
D24*
%TO.N,/LED Matrix/MAT_CB*%
X105450000Y-71750000D02*
X105350000Y-71750000D01*
X134550000Y-74150000D02*
X135400000Y-73300000D01*
X136300000Y-52200000D02*
X136300000Y-73200000D01*
X135400000Y-73300000D02*
X136200000Y-73300000D01*
X132300000Y-73750000D02*
X130300000Y-71750000D01*
X129300000Y-71750000D02*
X105450000Y-71750000D01*
X105450000Y-71750000D02*
X105229915Y-71750000D01*
X99700000Y-70900000D02*
X99700000Y-70850000D01*
X103079915Y-73900000D02*
X101900000Y-73900000D01*
X137200000Y-47900000D02*
X137200000Y-51300000D01*
X134550000Y-74150000D02*
X132700000Y-74150000D01*
X105229915Y-71750000D02*
X103079915Y-73900000D01*
X130300000Y-71750000D02*
X129300000Y-71750000D01*
X136200000Y-73300000D02*
X136300000Y-73200000D01*
X101900000Y-73900000D02*
X100850000Y-73900000D01*
X137200000Y-51300000D02*
X136300000Y-52200000D01*
X132700000Y-74150000D02*
X132300000Y-73750000D01*
X99700000Y-72750000D02*
X99700000Y-70900000D01*
X100850000Y-73900000D02*
X99700000Y-72750000D01*
X99700000Y-70850000D02*
X99950000Y-70600000D01*
%TO.N,/Power/USB_5V*%
X127300000Y-36850000D02*
X121750000Y-36850000D01*
X127300000Y-36850000D02*
X127500000Y-36650000D01*
X121750000Y-36850000D02*
X121350000Y-37250000D01*
%TO.N,/LED Matrix/MAT_CC*%
X99000000Y-73050000D02*
X98450000Y-73050000D01*
X139300000Y-73200000D02*
X139300000Y-52200000D01*
X139300000Y-73200000D02*
X138250000Y-74250000D01*
X140400000Y-51100000D02*
X139300000Y-52200000D01*
X138250000Y-74250000D02*
X135450000Y-74250000D01*
X140400000Y-47900000D02*
X140400000Y-51100000D01*
X134850000Y-74850000D02*
X132400000Y-74850000D01*
X130000000Y-72450000D02*
X105550000Y-72450000D01*
X103400000Y-74600000D02*
X100550000Y-74600000D01*
X105550000Y-72450000D02*
X103400000Y-74600000D01*
X135450000Y-74250000D02*
X134850000Y-74850000D01*
X100550000Y-74600000D02*
X99000000Y-73050000D01*
X132400000Y-74850000D02*
X130000000Y-72450000D01*
%TO.N,/MCU/PA9*%
X137200000Y-30900000D02*
X136000000Y-30900000D01*
X136000000Y-30900000D02*
X135700000Y-30900000D01*
%TO.N,/LED Matrix/MAT_CD*%
X101450000Y-75300000D02*
X99500000Y-75300000D01*
X135150000Y-75550000D02*
X134700000Y-75550000D01*
X99500000Y-75300000D02*
X98800000Y-74600000D01*
X103700000Y-75300000D02*
X101450000Y-75300000D01*
X135750000Y-74950000D02*
X135650000Y-75050000D01*
X142300000Y-73200000D02*
X140550000Y-74950000D01*
X131200000Y-74650000D02*
X129700000Y-73150000D01*
X134700000Y-75550000D02*
X132100000Y-75550000D01*
X138400000Y-74950000D02*
X135750000Y-74950000D01*
X144000000Y-47900000D02*
X142300000Y-49600000D01*
X132100000Y-75550000D02*
X131200000Y-74650000D01*
X104500000Y-74500000D02*
X103700000Y-75300000D01*
X142300000Y-49600000D02*
X142300000Y-52200000D01*
X105850000Y-73150000D02*
X104500000Y-74500000D01*
X129700000Y-73150000D02*
X109200000Y-73150000D01*
X135650000Y-75050000D02*
X135150000Y-75550000D01*
X140550000Y-74950000D02*
X138400000Y-74950000D01*
X142300000Y-52200000D02*
X142300000Y-73200000D01*
X109200000Y-73150000D02*
X109100000Y-73150000D01*
X109200000Y-73150000D02*
X105850000Y-73150000D01*
%TO.N,/LED Matrix/MAT_CE*%
X97700000Y-75350000D02*
X96700000Y-74350000D01*
X105550000Y-74450000D02*
X104000000Y-76000000D01*
X140850000Y-75650000D02*
X136050000Y-75650000D01*
X146500000Y-51000000D02*
X145300000Y-52200000D01*
X96700000Y-70900000D02*
X96700000Y-69350000D01*
X131800000Y-76250000D02*
X131200000Y-75650000D01*
X128300000Y-73850000D02*
X128150000Y-73850000D01*
X145300000Y-73200000D02*
X145300000Y-52200000D01*
X142850000Y-75650000D02*
X140850000Y-75650000D01*
X135650000Y-76050000D02*
X135450000Y-76250000D01*
X136050000Y-75650000D02*
X135650000Y-76050000D01*
X145300000Y-73200000D02*
X142850000Y-75650000D01*
X104000000Y-76000000D02*
X101600000Y-76000000D01*
X96700000Y-74350000D02*
X96700000Y-70900000D01*
X106150000Y-73850000D02*
X105550000Y-74450000D01*
X131200000Y-75650000D02*
X129400000Y-73850000D01*
X98350000Y-76000000D02*
X97700000Y-75350000D01*
X135450000Y-76250000D02*
X134700000Y-76250000D01*
X109500000Y-73850000D02*
X106150000Y-73850000D01*
X128150000Y-73850000D02*
X109500000Y-73850000D01*
X96700000Y-69350000D02*
X97100000Y-68950000D01*
X101600000Y-76000000D02*
X98350000Y-76000000D01*
X129400000Y-73850000D02*
X128300000Y-73850000D01*
X146500000Y-49000000D02*
X146500000Y-51000000D01*
X134700000Y-76250000D02*
X131800000Y-76250000D01*
%TO.N,/LED Matrix/MAT_CF*%
X96440000Y-67810000D02*
X100700000Y-67810000D01*
X96000000Y-74650000D02*
X96000000Y-70700000D01*
X145150000Y-76350000D02*
X136350000Y-76350000D01*
X106450000Y-74550000D02*
X104300000Y-76700000D01*
X149000000Y-47900000D02*
X149000000Y-51500000D01*
X98050000Y-76700000D02*
X96000000Y-74650000D01*
X131500000Y-76950000D02*
X129100000Y-74550000D01*
X96000000Y-70700000D02*
X95250000Y-69950000D01*
X148300000Y-52200000D02*
X148300000Y-73200000D01*
X104300000Y-76700000D02*
X98050000Y-76700000D01*
X148300000Y-73200000D02*
X145150000Y-76350000D01*
X149000000Y-51500000D02*
X148300000Y-52200000D01*
X135750000Y-76950000D02*
X131500000Y-76950000D01*
X95250000Y-69950000D02*
X95250000Y-69000000D01*
X136350000Y-76350000D02*
X135750000Y-76950000D01*
X100700000Y-67810000D02*
X102014200Y-67810000D01*
X129100000Y-74550000D02*
X106450000Y-74550000D01*
X95250000Y-69000000D02*
X96440000Y-67810000D01*
%TO.N,/LED Matrix/MAT_CG*%
X106750000Y-75250000D02*
X104600000Y-77400000D01*
X95250000Y-70950000D02*
X94550000Y-70250000D01*
X136650000Y-77050000D02*
X136050000Y-77650000D01*
X95250000Y-74950000D02*
X95250000Y-70950000D01*
X100250000Y-65700000D02*
X100250000Y-59414200D01*
X147450000Y-77050000D02*
X136650000Y-77050000D01*
X104600000Y-77400000D02*
X97700000Y-77400000D01*
X151300000Y-73200000D02*
X147450000Y-77050000D01*
X131200000Y-77650000D02*
X128800000Y-75250000D01*
X94550000Y-70250000D02*
X94550000Y-68729916D01*
X97700000Y-77400000D02*
X95250000Y-74950000D01*
X96929916Y-66350000D02*
X99600000Y-66350000D01*
X128800000Y-75250000D02*
X106750000Y-75250000D01*
X151300000Y-73200000D02*
X151300000Y-52200000D01*
X94550000Y-68729916D02*
X96929916Y-66350000D01*
X136050000Y-77650000D02*
X131200000Y-77650000D01*
X100250000Y-59414200D02*
X102014200Y-57650000D01*
X152300000Y-51200000D02*
X151300000Y-52200000D01*
X152300000Y-47900000D02*
X152300000Y-51200000D01*
X99600000Y-66350000D02*
X100250000Y-65700000D01*
%TO.N,/LED Matrix/MAT_CH*%
X94450000Y-75250000D02*
X94450000Y-71150000D01*
X136950000Y-77750000D02*
X136350000Y-78350000D01*
X101240000Y-55110000D02*
X102014200Y-55110000D01*
X94450000Y-71150000D02*
X92850000Y-69550000D01*
X128500000Y-75950000D02*
X107100000Y-75950000D01*
X136350000Y-78350000D02*
X130900000Y-78350000D01*
X99750000Y-56600000D02*
X101240000Y-55110000D01*
X104900000Y-78150000D02*
X97350000Y-78150000D01*
X154300000Y-76650000D02*
X153200000Y-77750000D01*
X130900000Y-78350000D02*
X128500000Y-75950000D01*
X92850000Y-68400000D02*
X95400000Y-65850000D01*
X92850000Y-69550000D02*
X92850000Y-68400000D01*
X95400000Y-65850000D02*
X99250000Y-65850000D01*
X97350000Y-78150000D02*
X94450000Y-75250000D01*
X154300000Y-52200000D02*
X154300000Y-73200000D01*
X153200000Y-77750000D02*
X136950000Y-77750000D01*
X154300000Y-73200000D02*
X154300000Y-76650000D01*
X99250000Y-65850000D02*
X99750000Y-65350000D01*
X99750000Y-65350000D02*
X99750000Y-56600000D01*
X107100000Y-75950000D02*
X104900000Y-78150000D01*
%TO.N,/LED Matrix/MAT_RB*%
X135465399Y-72634601D02*
X134450000Y-73650000D01*
X105350000Y-71400000D02*
X104650000Y-71400000D01*
X133150000Y-73800000D02*
X132850000Y-73800000D01*
X135100000Y-47500000D02*
X135100000Y-47100000D01*
X135465399Y-56758048D02*
X135465399Y-72134601D01*
X129400000Y-71400000D02*
X105350000Y-71400000D01*
X103400000Y-72650000D02*
X103350000Y-72650000D01*
X135600000Y-56623447D02*
X135600000Y-48000000D01*
X130450000Y-71400000D02*
X129400000Y-71400000D01*
X134300000Y-73800000D02*
X133150000Y-73800000D01*
X135465399Y-72134601D02*
X135465399Y-72634601D01*
X134450000Y-73650000D02*
X134300000Y-73800000D01*
X135465399Y-56758048D02*
X135600000Y-56623447D01*
X135600000Y-48000000D02*
X135100000Y-47500000D01*
X132850000Y-73800000D02*
X130450000Y-71400000D01*
X104650000Y-71400000D02*
X103400000Y-72650000D01*
%TO.N,/LED Matrix/MAT_RC*%
X135300000Y-73900000D02*
X137150000Y-73900000D01*
X100700000Y-74250000D02*
X103250000Y-74250000D01*
X132550000Y-74500000D02*
X134700000Y-74500000D01*
X137150000Y-73900000D02*
X138600000Y-72450000D01*
X98450000Y-70550000D02*
X98450000Y-72000000D01*
X103250000Y-74250000D02*
X105400000Y-72100000D01*
X98450000Y-72000000D02*
X100700000Y-74250000D01*
X130150000Y-72100000D02*
X132550000Y-74500000D01*
X105400000Y-72100000D02*
X130150000Y-72100000D01*
X138500000Y-48200000D02*
X138600000Y-48300000D01*
X138500000Y-47100000D02*
X138500000Y-48200000D01*
X138600000Y-60000000D02*
X138600000Y-48300000D01*
X134700000Y-74500000D02*
X135300000Y-73900000D01*
X138600000Y-72450000D02*
X138600000Y-60000000D01*
%TO.N,/LED Matrix/MAT_RD*%
X98850000Y-73750000D02*
X98000000Y-73750000D01*
X137150000Y-74600000D02*
X135600000Y-74600000D01*
X134300000Y-75200000D02*
X134200000Y-75200000D01*
X100850000Y-74950000D02*
X100050000Y-74950000D01*
X98950000Y-73850000D02*
X98850000Y-73750000D01*
X97450000Y-73200000D02*
X97450000Y-70150000D01*
X141600000Y-63000000D02*
X141600000Y-72300000D01*
X135150000Y-75050000D02*
X135000000Y-75200000D01*
X97450000Y-70150000D02*
X98000000Y-69600000D01*
X104500000Y-74000000D02*
X103550000Y-74950000D01*
X141600000Y-48400000D02*
X141650000Y-48350000D01*
X98000000Y-73750000D02*
X97450000Y-73200000D01*
X131800000Y-74750000D02*
X129850000Y-72800000D01*
X98050000Y-69600000D02*
X100100000Y-69600000D01*
X141900000Y-48100000D02*
X141650000Y-48350000D01*
X135000000Y-75200000D02*
X134300000Y-75200000D01*
X108950000Y-72800000D02*
X105700000Y-72800000D01*
X134300000Y-75200000D02*
X132250000Y-75200000D01*
X103550000Y-74950000D02*
X100850000Y-74950000D01*
X139300000Y-74600000D02*
X137150000Y-74600000D01*
X98000000Y-69600000D02*
X98050000Y-69600000D01*
X141900000Y-47000000D02*
X141900000Y-48100000D01*
X141600000Y-72300000D02*
X139850000Y-74050000D01*
X132250000Y-75200000D02*
X131800000Y-74750000D01*
X135600000Y-74600000D02*
X135150000Y-75050000D01*
X128450000Y-72800000D02*
X128250000Y-72800000D01*
X128250000Y-72800000D02*
X108950000Y-72800000D01*
X100100000Y-69600000D02*
X100250000Y-69450000D01*
X139850000Y-74050000D02*
X139300000Y-74600000D01*
X141600000Y-63000000D02*
X141600000Y-48400000D01*
X105700000Y-72800000D02*
X104500000Y-74000000D01*
X129850000Y-72800000D02*
X128450000Y-72800000D01*
X100050000Y-74950000D02*
X98950000Y-73850000D01*
%TO.N,/LED Matrix/MAT_RE*%
X101450000Y-75650000D02*
X98500000Y-75650000D01*
X98400000Y-68650000D02*
X100000000Y-68650000D01*
X127900000Y-73500000D02*
X109300000Y-73500000D01*
X139500000Y-75300000D02*
X135900000Y-75300000D01*
X100150000Y-68500000D02*
X100150000Y-68450000D01*
X134300000Y-75900000D02*
X131950000Y-75900000D01*
X106000000Y-73500000D02*
X105250000Y-74250000D01*
X100000000Y-68650000D02*
X100150000Y-68500000D01*
X97050000Y-70000000D02*
X98050000Y-69000000D01*
X98500000Y-75650000D02*
X97050000Y-74200000D01*
X144600000Y-72400000D02*
X142750000Y-74250000D01*
X130500000Y-74450000D02*
X129550000Y-73500000D01*
X144600000Y-66000000D02*
X144600000Y-72400000D01*
X135900000Y-75300000D02*
X135300000Y-75900000D01*
X97050000Y-74200000D02*
X97050000Y-72350000D01*
X145400000Y-47000000D02*
X145400000Y-47600000D01*
X142750000Y-74250000D02*
X141700000Y-75300000D01*
X105250000Y-74250000D02*
X103850000Y-75650000D01*
X97050000Y-72350000D02*
X97050000Y-70000000D01*
X141700000Y-75300000D02*
X139500000Y-75300000D01*
X98050000Y-69000000D02*
X98400000Y-68650000D01*
X145400000Y-47600000D02*
X144600000Y-48400000D01*
X131950000Y-75900000D02*
X130500000Y-74450000D01*
X129550000Y-73500000D02*
X127900000Y-73500000D01*
X135300000Y-75900000D02*
X134300000Y-75900000D01*
X144600000Y-48400000D02*
X144600000Y-66000000D01*
X109300000Y-73500000D02*
X106000000Y-73500000D01*
X103850000Y-75650000D02*
X101450000Y-75650000D01*
%TO.N,/LED Matrix/MAT_RF*%
X141400000Y-76000000D02*
X136200000Y-76000000D01*
X96350000Y-73550000D02*
X96350000Y-69750000D01*
X144100000Y-76000000D02*
X141400000Y-76000000D01*
X106300000Y-74200000D02*
X105250000Y-75250000D01*
X104150000Y-76350000D02*
X102500000Y-76350000D01*
X147600000Y-72500000D02*
X145700000Y-74400000D01*
X96950000Y-75100000D02*
X96350000Y-74500000D01*
X134800000Y-76600000D02*
X131650000Y-76600000D01*
X127900000Y-74200000D02*
X109400000Y-74200000D01*
X135600000Y-76600000D02*
X134800000Y-76600000D01*
X96100000Y-69500000D02*
X95950000Y-69500000D01*
X136200000Y-76000000D02*
X135900000Y-76300000D01*
X147600000Y-48000000D02*
X147600000Y-48200000D01*
X102500000Y-76350000D02*
X98200000Y-76350000D01*
X135900000Y-76300000D02*
X135600000Y-76600000D01*
X148600000Y-47000000D02*
X147600000Y-48000000D01*
X147600000Y-69000000D02*
X147600000Y-72500000D01*
X96350000Y-69750000D02*
X96150000Y-69550000D01*
X131650000Y-76600000D02*
X130550000Y-75500000D01*
X105250000Y-75250000D02*
X104150000Y-76350000D01*
X130550000Y-75500000D02*
X129250000Y-74200000D01*
X96150000Y-69550000D02*
X96100000Y-69500000D01*
X109400000Y-74200000D02*
X106300000Y-74200000D01*
X145700000Y-74400000D02*
X144100000Y-76000000D01*
X98200000Y-76350000D02*
X96950000Y-75100000D01*
X147600000Y-69000000D02*
X147600000Y-48200000D01*
X96350000Y-74500000D02*
X96350000Y-73550000D01*
X129250000Y-74200000D02*
X127900000Y-74200000D01*
%TO.N,/LED Matrix/MAT_RG*%
X150600000Y-47800000D02*
X150600000Y-72000000D01*
X136500000Y-76700000D02*
X135900000Y-77300000D01*
X106600000Y-74900000D02*
X104450000Y-77050000D01*
X94900000Y-70100000D02*
X94900000Y-68850000D01*
X150600000Y-72000000D02*
X150600000Y-72600000D01*
X94900000Y-68850000D02*
X96300000Y-67450000D01*
X152400000Y-47000000D02*
X151400000Y-47000000D01*
X95600000Y-70800000D02*
X94900000Y-70100000D01*
X104450000Y-77050000D02*
X97850000Y-77050000D01*
X99950000Y-67450000D02*
X100300000Y-67100000D01*
X131350000Y-77300000D02*
X128950000Y-74900000D01*
X128950000Y-74900000D02*
X106600000Y-74900000D01*
X97850000Y-77050000D02*
X95600000Y-74800000D01*
X135900000Y-77300000D02*
X131350000Y-77300000D01*
X151400000Y-47000000D02*
X150600000Y-47800000D01*
X146500000Y-76700000D02*
X136500000Y-76700000D01*
X95600000Y-74800000D02*
X95600000Y-70800000D01*
X96300000Y-67450000D02*
X99950000Y-67450000D01*
X150600000Y-72600000D02*
X146500000Y-76700000D01*
%TO.N,/LED Matrix/MAT_RH*%
X104750000Y-77750000D02*
X97550000Y-77750000D01*
X136800000Y-77400000D02*
X136200000Y-78000000D01*
X131050000Y-78000000D02*
X128650000Y-75600000D01*
X136200000Y-78000000D02*
X131050000Y-78000000D01*
X153600000Y-49400000D02*
X155200000Y-47800000D01*
X94200000Y-70400000D02*
X94200000Y-69200000D01*
X128650000Y-75600000D02*
X106900000Y-75600000D01*
X106900000Y-75600000D02*
X104750000Y-77750000D01*
X151200000Y-77400000D02*
X136800000Y-77400000D01*
X94850000Y-75050000D02*
X94850000Y-71050000D01*
X153600000Y-75000000D02*
X151200000Y-77400000D01*
X155200000Y-43700000D02*
X155100000Y-43600000D01*
X155200000Y-47800000D02*
X155200000Y-43700000D01*
X97550000Y-77750000D02*
X94850000Y-75050000D01*
X153600000Y-75000000D02*
X153600000Y-49400000D01*
X94850000Y-71050000D02*
X94200000Y-70400000D01*
X94200000Y-69200000D02*
X93750000Y-68750000D01*
%TO.N,/MCU/PA14*%
X112800000Y-47300000D02*
X112800000Y-52100000D01*
X114400000Y-45700000D02*
X112800000Y-47300000D01*
X112800000Y-52100000D02*
X111700000Y-53200000D01*
%TO.N,/MCU/PA13*%
X113500000Y-44800000D02*
X111500000Y-46800000D01*
X114900000Y-44800000D02*
X113500000Y-44800000D01*
X115700000Y-45600000D02*
X114900000Y-44800000D01*
X111500000Y-46800000D02*
X111500000Y-52200000D01*
X116900000Y-45600000D02*
X115700000Y-45600000D01*
%TO.N,/MCU/PA2*%
X119200000Y-158200000D02*
X119200000Y-157900000D01*
X131800000Y-155700000D02*
X131800000Y-157200000D01*
X88600000Y-154400000D02*
X87100000Y-155900000D01*
X115100000Y-156900000D02*
X111500000Y-153300000D01*
X131800000Y-157200000D02*
X130000000Y-159000000D01*
X93600000Y-153300000D02*
X92500000Y-154400000D01*
X111500000Y-153300000D02*
X93600000Y-153300000D01*
X92500000Y-154400000D02*
X88600000Y-154400000D01*
X119200000Y-157900000D02*
X118200000Y-156900000D01*
X118200000Y-156900000D02*
X115100000Y-156900000D01*
X130000000Y-159000000D02*
X120000000Y-159000000D01*
X120000000Y-159000000D02*
X119200000Y-158200000D01*
D22*
%TO.N,Net-(J4-Pin_2)*%
X93515000Y-157500000D02*
X93515000Y-158885000D01*
X88500000Y-159300000D02*
X87700000Y-159300000D01*
X93515000Y-158885000D02*
X93300000Y-159100000D01*
X93300000Y-159100000D02*
X93100000Y-159300000D01*
X93100000Y-159300000D02*
X88500000Y-159300000D01*
D24*
%TO.N,/MCU/PA15*%
X107700000Y-123600000D02*
X104300000Y-127000000D01*
X106800000Y-77300000D02*
X106800000Y-79900000D01*
X103400000Y-131300000D02*
X103400000Y-142300000D01*
X107700000Y-113900000D02*
X107700000Y-123600000D01*
X107700000Y-80800000D02*
X107700000Y-81500000D01*
X103400000Y-142300000D02*
X102600000Y-143100000D01*
X106800000Y-79900000D02*
X107600000Y-80700000D01*
X103400000Y-127900000D02*
X103400000Y-131300000D01*
X107700000Y-81500000D02*
X107700000Y-113900000D01*
X104300000Y-127000000D02*
X103400000Y-127900000D01*
X107600000Y-80700000D02*
X107700000Y-80800000D01*
%TO.N,/LED Matrix/Y7D*%
X137000000Y-41200000D02*
X137000000Y-41700000D01*
X137000000Y-41700000D02*
X137800000Y-42500000D01*
%TO.N,/LED Matrix/Y6D*%
X140800000Y-41400000D02*
X140500000Y-41100000D01*
X138000000Y-41100000D02*
X140500000Y-41100000D01*
X137900000Y-41000000D02*
X138000000Y-41100000D01*
%TO.N,/LED Matrix/Y5D*%
X138900000Y-40700000D02*
X142000000Y-40700000D01*
X142000000Y-40700000D02*
X142300000Y-41000000D01*
X138300000Y-40200000D02*
X138400000Y-40200000D01*
X138400000Y-40200000D02*
X138900000Y-40700000D01*
%TO.N,/LED Matrix/Y4D*%
X136300000Y-39500000D02*
X138800000Y-39500000D01*
X139600000Y-40300000D02*
X143900000Y-40300000D01*
X138800000Y-39500000D02*
X139600000Y-40300000D01*
%TO.N,/LED Matrix/Y3D*%
X146600000Y-41400000D02*
X143900000Y-38700000D01*
X135500000Y-38900000D02*
X135700000Y-38700000D01*
X146600000Y-42100000D02*
X146600000Y-41400000D01*
X135500000Y-41100000D02*
X135500000Y-38900000D01*
X143900000Y-38700000D02*
X135700000Y-38700000D01*
%TO.N,/LED Matrix/Y2D*%
X145600000Y-38300000D02*
X135400000Y-38300000D01*
X134700000Y-41400000D02*
X134700000Y-39000000D01*
X135400000Y-38300000D02*
X134700000Y-39000000D01*
X148900000Y-41600000D02*
X145600000Y-38300000D01*
X135200000Y-41900000D02*
X134700000Y-41400000D01*
%TO.N,/LED Matrix/Y1D*%
X134300000Y-38800000D02*
X135200000Y-37900000D01*
X134500000Y-42400000D02*
X134300000Y-42200000D01*
X135200000Y-37900000D02*
X146900000Y-37900000D01*
X134300000Y-42200000D02*
X134300000Y-38800000D01*
X150400000Y-41400000D02*
X151200000Y-41400000D01*
X146900000Y-37900000D02*
X150400000Y-41400000D01*
%TO.N,/LED Matrix/Y0D*%
X133700000Y-42800000D02*
X133700000Y-38800000D01*
X133700000Y-38800000D02*
X135000000Y-37500000D01*
X133500000Y-43000000D02*
X133700000Y-42800000D01*
X133500000Y-44400000D02*
X133500000Y-43000000D01*
X130800000Y-47100000D02*
X133500000Y-44400000D01*
X147500000Y-37500000D02*
X150720000Y-40720000D01*
X135000000Y-37500000D02*
X147500000Y-37500000D01*
X150720000Y-40720000D02*
X152100000Y-40720000D01*
X130200000Y-47100000D02*
X130800000Y-47100000D01*
%TO.N,/MCU/PB3*%
X108100000Y-113700000D02*
X108100000Y-124900000D01*
X108200000Y-133000000D02*
X108200000Y-137400000D01*
X114400000Y-143600000D02*
X123400000Y-143600000D01*
X106100000Y-130500000D02*
X108200000Y-132600000D01*
X107600000Y-80000000D02*
X108100000Y-80500000D01*
X107400000Y-79800000D02*
X107600000Y-80000000D01*
X108200000Y-132600000D02*
X108200000Y-133000000D01*
X108200000Y-137400000D02*
X114400000Y-143600000D01*
X107400000Y-79500000D02*
X107400000Y-79800000D01*
X125600000Y-145000000D02*
X125600000Y-151400000D01*
X104400000Y-128600000D02*
X104400000Y-130300000D01*
X106300000Y-126700000D02*
X104400000Y-128600000D01*
X104400000Y-130300000D02*
X104600000Y-130500000D01*
X108100000Y-81700000D02*
X108100000Y-113700000D01*
X107400000Y-77800000D02*
X107400000Y-79500000D01*
X108100000Y-80500000D02*
X108100000Y-81700000D01*
X124200000Y-143600000D02*
X125600000Y-145000000D01*
X104600000Y-130500000D02*
X106100000Y-130500000D01*
X108100000Y-124900000D02*
X106300000Y-126700000D01*
X107400000Y-79500000D02*
X107400000Y-79700000D01*
X123400000Y-143600000D02*
X124200000Y-143600000D01*
%TO.N,/MCU/PA8*%
X146500000Y-34300000D02*
X146500000Y-31900000D01*
X144900000Y-30300000D02*
X135200000Y-30300000D01*
X134900000Y-30600000D02*
X134900000Y-31900000D01*
X134900000Y-31900000D02*
X135500000Y-32500000D01*
X135200000Y-30300000D02*
X134900000Y-30600000D01*
X146500000Y-31900000D02*
X144900000Y-30300000D01*
%TO.N,/MCU/PB4*%
X106900000Y-128900000D02*
X105400000Y-128900000D01*
X108500000Y-113900000D02*
X108500000Y-127300000D01*
X108500000Y-80100000D02*
X108500000Y-113900000D01*
X108100000Y-79700000D02*
X108500000Y-80100000D01*
X108100000Y-78400000D02*
X108100000Y-79700000D01*
X108500000Y-127300000D02*
X106900000Y-128900000D01*
X105400000Y-128900000D02*
X105300000Y-129000000D01*
%TO.N,/MCU/PB5*%
X108900000Y-79600000D02*
X108900000Y-113900000D01*
X108700000Y-79400000D02*
X108900000Y-79600000D01*
X108700000Y-79000000D02*
X108700000Y-79400000D01*
X108900000Y-113900000D02*
X108900000Y-135900000D01*
X108900000Y-135900000D02*
X113300000Y-140300000D01*
%TO.N,/MCU/PB6*%
X109300000Y-80700000D02*
X109300000Y-81000000D01*
X109300000Y-113600000D02*
X109300000Y-113900000D01*
X110300000Y-134900000D02*
X114400000Y-139000000D01*
X110300000Y-116700000D02*
X110300000Y-134900000D01*
X109300000Y-113600000D02*
X109300000Y-115700000D01*
X109300000Y-115700000D02*
X110300000Y-116700000D01*
X109300000Y-79300000D02*
X109300000Y-80700000D01*
X109600000Y-79000000D02*
X109300000Y-79300000D01*
X114400000Y-139000000D02*
X128000000Y-139000000D01*
X109300000Y-81000000D02*
X109300000Y-113600000D01*
X128000000Y-139000000D02*
X128100000Y-139100000D01*
X128100000Y-139100000D02*
X128300000Y-139300000D01*
X128300000Y-139300000D02*
X128300000Y-142800000D01*
%TO.N,/MCU/PB7*%
X116900000Y-130000000D02*
X129800000Y-130000000D01*
X132600000Y-133100000D02*
X137900000Y-138400000D01*
X109700000Y-80000000D02*
X109700000Y-113900000D01*
X112700000Y-130300000D02*
X116600000Y-130300000D01*
X111200000Y-116500000D02*
X111200000Y-127696359D01*
X137900000Y-141000000D02*
X139500000Y-142600000D01*
X132600000Y-132800000D02*
X132600000Y-133100000D01*
X109700000Y-115000000D02*
X111200000Y-116500000D01*
X129800000Y-130000000D02*
X132600000Y-132800000D01*
X111200000Y-128800000D02*
X112600000Y-130200000D01*
X137900000Y-138400000D02*
X137900000Y-141000000D01*
X111200000Y-127696359D02*
X111200000Y-128800000D01*
X109700000Y-113900000D02*
X109700000Y-115000000D01*
X112600000Y-130200000D02*
X112700000Y-130300000D01*
X116600000Y-130300000D02*
X116900000Y-130000000D01*
X110200000Y-79500000D02*
X109700000Y-80000000D01*
X110200000Y-78300000D02*
X110200000Y-79500000D01*
%TO.N,/MCU/PB8*%
X113400000Y-129200000D02*
X113400000Y-128800000D01*
X110900000Y-79400000D02*
X110900000Y-77700000D01*
X113400000Y-128800000D02*
X112300000Y-127700000D01*
X110100000Y-80200000D02*
X110900000Y-79400000D01*
X112300000Y-127700000D02*
X112300000Y-117000000D01*
X112300000Y-117000000D02*
X110100000Y-114800000D01*
X110100000Y-114800000D02*
X110100000Y-80200000D01*
%TO.N,/MCU/PB9*%
X137600000Y-116200000D02*
X138700000Y-117300000D01*
X111500000Y-79400000D02*
X110500000Y-80400000D01*
X110500000Y-80400000D02*
X110500000Y-114700000D01*
X138700000Y-117300000D02*
X138700000Y-128300000D01*
X110500000Y-114700000D02*
X112000000Y-116200000D01*
X111500000Y-77000000D02*
X111500000Y-79400000D01*
X112000000Y-116200000D02*
X137600000Y-116200000D01*
%TO.N,/MCU/STM_VBATT*%
X110500000Y-53400000D02*
X110500000Y-45100000D01*
X111100000Y-54000000D02*
X110500000Y-53400000D01*
X114000000Y-54000000D02*
X111100000Y-54000000D01*
D25*
%TO.N,Net-(J1-Pin_2)*%
X113300000Y-35100000D02*
X121500000Y-35100000D01*
X123500000Y-33100000D02*
X126600000Y-33100000D01*
X126600000Y-33100000D02*
X126800000Y-33300000D01*
X121500000Y-35100000D02*
X123500000Y-33100000D01*
%TD*%
M02*
