%TF.GenerationSoftware,KiCad,Pcbnew,8.0.0-8.0.0-1~ubuntu20.04.1*%
%TF.CreationDate,2024-04-01T04:19:54+08:00*%
%TF.ProjectId,pcb_badge,7063625f-6261-4646-9765-2e6b69636164,rev?*%
%TF.SameCoordinates,Original*%
%TF.FileFunction,Paste,Top*%
%TF.FilePolarity,Positive*%
%FSLAX46Y46*%
G04 Gerber Fmt 4.6, Leading zero omitted, Abs format (unit mm)*
G04 Created by KiCad (PCBNEW 8.0.0-8.0.0-1~ubuntu20.04.1) date 2024-04-01 04:19:54*
%MOMM*%
%LPD*%
G01*
G04 APERTURE LIST*
G04 Aperture macros list*
%AMRoundRect*
0 Rectangle with rounded corners*
0 $1 Rounding radius*
0 $2 $3 $4 $5 $6 $7 $8 $9 X,Y pos of 4 corners*
0 Add a 4 corners polygon primitive as box body*
4,1,4,$2,$3,$4,$5,$6,$7,$8,$9,$2,$3,0*
0 Add four circle primitives for the rounded corners*
1,1,$1+$1,$2,$3*
1,1,$1+$1,$4,$5*
1,1,$1+$1,$6,$7*
1,1,$1+$1,$8,$9*
0 Add four rect primitives between the rounded corners*
20,1,$1+$1,$2,$3,$4,$5,0*
20,1,$1+$1,$4,$5,$6,$7,0*
20,1,$1+$1,$6,$7,$8,$9,0*
20,1,$1+$1,$8,$9,$2,$3,0*%
G04 Aperture macros list end*
%ADD10RoundRect,0.155000X0.155000X-0.212500X0.155000X0.212500X-0.155000X0.212500X-0.155000X-0.212500X0*%
%ADD11RoundRect,0.150000X-0.150000X0.587500X-0.150000X-0.587500X0.150000X-0.587500X0.150000X0.587500X0*%
%ADD12RoundRect,0.075000X0.075000X-0.662500X0.075000X0.662500X-0.075000X0.662500X-0.075000X-0.662500X0*%
%ADD13RoundRect,0.075000X0.662500X-0.075000X0.662500X0.075000X-0.662500X0.075000X-0.662500X-0.075000X0*%
%ADD14RoundRect,0.160000X-0.222500X-0.160000X0.222500X-0.160000X0.222500X0.160000X-0.222500X0.160000X0*%
%ADD15RoundRect,0.250000X-0.250000X-0.250000X0.250000X-0.250000X0.250000X0.250000X-0.250000X0.250000X0*%
%ADD16RoundRect,0.160000X-0.197500X-0.160000X0.197500X-0.160000X0.197500X0.160000X-0.197500X0.160000X0*%
%ADD17RoundRect,0.160000X-0.160000X0.197500X-0.160000X-0.197500X0.160000X-0.197500X0.160000X0.197500X0*%
%ADD18R,1.524000X0.762000*%
%ADD19RoundRect,0.155000X-0.155000X0.212500X-0.155000X-0.212500X0.155000X-0.212500X0.155000X0.212500X0*%
%ADD20RoundRect,0.237500X0.237500X-0.300000X0.237500X0.300000X-0.237500X0.300000X-0.237500X-0.300000X0*%
%ADD21RoundRect,0.155000X-0.212500X-0.155000X0.212500X-0.155000X0.212500X0.155000X-0.212500X0.155000X0*%
%ADD22RoundRect,0.155000X0.212500X0.155000X-0.212500X0.155000X-0.212500X-0.155000X0.212500X-0.155000X0*%
%ADD23RoundRect,0.160000X0.160000X-0.197500X0.160000X0.197500X-0.160000X0.197500X-0.160000X-0.197500X0*%
%ADD24RoundRect,0.237500X-0.287500X-0.237500X0.287500X-0.237500X0.287500X0.237500X-0.287500X0.237500X0*%
%ADD25R,0.400000X1.600000*%
%ADD26RoundRect,0.150000X-0.150000X0.850000X-0.150000X-0.850000X0.150000X-0.850000X0.150000X0.850000X0*%
%ADD27RoundRect,0.160000X0.197500X0.160000X-0.197500X0.160000X-0.197500X-0.160000X0.197500X-0.160000X0*%
%ADD28RoundRect,0.250000X0.250000X0.250000X-0.250000X0.250000X-0.250000X-0.250000X0.250000X-0.250000X0*%
%ADD29R,1.805236X0.612132*%
%ADD30RoundRect,0.237500X-0.300000X-0.237500X0.300000X-0.237500X0.300000X0.237500X-0.300000X0.237500X0*%
%ADD31R,1.800000X1.000000*%
%ADD32R,1.500000X2.000000*%
%ADD33R,3.800000X2.000000*%
%ADD34R,1.100000X1.300000*%
%ADD35RoundRect,0.150000X-0.587500X-0.150000X0.587500X-0.150000X0.587500X0.150000X-0.587500X0.150000X0*%
%ADD36R,0.406400X1.346200*%
%ADD37R,1.600200X2.108200*%
%ADD38R,1.905000X1.803400*%
%ADD39R,1.905000X1.905000*%
%ADD40RoundRect,0.237500X-0.237500X0.300000X-0.237500X-0.300000X0.237500X-0.300000X0.237500X0.300000X0*%
G04 APERTURE END LIST*
D10*
%TO.C,C40*%
X150600000Y-36867500D03*
X150600000Y-35732500D03*
%TD*%
D11*
%TO.C,Q1*%
X133450000Y-45562500D03*
X131550000Y-45562500D03*
X132500000Y-47437500D03*
%TD*%
D12*
%TO.C,U3*%
X114500000Y-52500000D03*
X115000000Y-52500000D03*
X115500000Y-52500000D03*
X116000000Y-52500000D03*
X116500000Y-52500000D03*
X117000000Y-52500000D03*
X117500000Y-52500000D03*
X118000000Y-52500000D03*
X118500000Y-52500000D03*
X119000000Y-52500000D03*
X119500000Y-52500000D03*
X120000000Y-52500000D03*
D13*
X121412500Y-51087500D03*
X121412500Y-50587500D03*
X121412500Y-50087500D03*
X121412500Y-49587500D03*
X121412500Y-49087500D03*
X121412500Y-48587500D03*
X121412500Y-48087500D03*
X121412500Y-47587500D03*
X121412500Y-47087500D03*
X121412500Y-46587500D03*
X121412500Y-46087500D03*
X121412500Y-45587500D03*
D12*
X120000000Y-44175000D03*
X119500000Y-44175000D03*
X119000000Y-44175000D03*
X118500000Y-44175000D03*
X118000000Y-44175000D03*
X117500000Y-44175000D03*
X117000000Y-44175000D03*
X116500000Y-44175000D03*
X116000000Y-44175000D03*
X115500000Y-44175000D03*
X115000000Y-44175000D03*
X114500000Y-44175000D03*
D13*
X113087500Y-45587500D03*
X113087500Y-46087500D03*
X113087500Y-46587500D03*
X113087500Y-47087500D03*
X113087500Y-47587500D03*
X113087500Y-48087500D03*
X113087500Y-48587500D03*
X113087500Y-49087500D03*
X113087500Y-49587500D03*
X113087500Y-50087500D03*
X113087500Y-50587500D03*
X113087500Y-51087500D03*
%TD*%
D14*
%TO.C,D21*%
X135427500Y-59000000D03*
X136572500Y-59000000D03*
%TD*%
%TO.C,D22*%
X138427500Y-59000000D03*
X139572500Y-59000000D03*
%TD*%
D15*
%TO.C,D2*%
X94950000Y-31200000D03*
X97450000Y-31200000D03*
%TD*%
D16*
%TO.C,R48*%
X140602500Y-43600000D03*
X141797500Y-43600000D03*
%TD*%
%TO.C,R410*%
X135602500Y-43600000D03*
X136797500Y-43600000D03*
%TD*%
D17*
%TO.C,R40*%
X136500000Y-31802500D03*
X136500000Y-32997500D03*
%TD*%
D14*
%TO.C,D55*%
X147427500Y-68000000D03*
X148572500Y-68000000D03*
%TD*%
D18*
%TO.C,SW3*%
X89402600Y-124749999D03*
X98597400Y-124749999D03*
X89402600Y-129250001D03*
X98597400Y-129250001D03*
%TD*%
D19*
%TO.C,C32*%
X113100000Y-53032500D03*
X113100000Y-54167500D03*
%TD*%
D14*
%TO.C,D33*%
X141427500Y-62000000D03*
X142572500Y-62000000D03*
%TD*%
D16*
%TO.C,R10*%
X85802500Y-43800000D03*
X86997500Y-43800000D03*
%TD*%
D20*
%TO.C,C11*%
X88900000Y-46362500D03*
X88900000Y-44637500D03*
%TD*%
D11*
%TO.C,Q9*%
X112862500Y-154475000D03*
X110962500Y-154475000D03*
X111912500Y-156350000D03*
%TD*%
D14*
%TO.C,D51*%
X135427500Y-68000000D03*
X136572500Y-68000000D03*
%TD*%
%TO.C,D71*%
X135427500Y-74000000D03*
X136572500Y-74000000D03*
%TD*%
%TO.C,D77*%
X153427500Y-74000000D03*
X154572500Y-74000000D03*
%TD*%
%TO.C,D43*%
X141427500Y-65000000D03*
X142572500Y-65000000D03*
%TD*%
D16*
%TO.C,R87*%
X153902500Y-49000000D03*
X155097500Y-49000000D03*
%TD*%
D21*
%TO.C,C30*%
X121832500Y-44387500D03*
X122967500Y-44387500D03*
%TD*%
D19*
%TO.C,C38*%
X116200000Y-58932500D03*
X116200000Y-60067500D03*
%TD*%
D14*
%TO.C,D01*%
X135427500Y-53000000D03*
X136572500Y-53000000D03*
%TD*%
%TO.C,D56*%
X150427500Y-68000000D03*
X151572500Y-68000000D03*
%TD*%
D16*
%TO.C,R5*%
X83402500Y-42250000D03*
X84597500Y-42250000D03*
%TD*%
D14*
%TO.C,D05*%
X147427500Y-53000000D03*
X148572500Y-53000000D03*
%TD*%
%TO.C,D16*%
X150427500Y-56000000D03*
X151572500Y-56000000D03*
%TD*%
D22*
%TO.C,C51*%
X107067500Y-152000000D03*
X105932500Y-152000000D03*
%TD*%
D14*
%TO.C,D66*%
X150427500Y-71000000D03*
X151572500Y-71000000D03*
%TD*%
%TO.C,D12*%
X138427500Y-56000000D03*
X139572500Y-56000000D03*
%TD*%
%TO.C,D76*%
X150427500Y-74000000D03*
X151572500Y-74000000D03*
%TD*%
%TO.C,D75*%
X147427500Y-74000000D03*
X148572500Y-74000000D03*
%TD*%
%TO.C,D67*%
X153427500Y-71000000D03*
X154572500Y-71000000D03*
%TD*%
D17*
%TO.C,R42*%
X138700000Y-31802500D03*
X138700000Y-32997500D03*
%TD*%
D16*
%TO.C,R47*%
X143102500Y-43600000D03*
X144297500Y-43600000D03*
%TD*%
D14*
%TO.C,D13*%
X141427500Y-56000000D03*
X142572500Y-56000000D03*
%TD*%
%TO.C,D44*%
X144427500Y-65000000D03*
X145572500Y-65000000D03*
%TD*%
%TO.C,D34*%
X144427500Y-62000000D03*
X145572500Y-62000000D03*
%TD*%
%TO.C,D14*%
X144427500Y-56000000D03*
X145572500Y-56000000D03*
%TD*%
%TO.C,D53*%
X141427500Y-68000000D03*
X142572500Y-68000000D03*
%TD*%
D23*
%TO.C,R6*%
X88500000Y-158097500D03*
X88500000Y-156902500D03*
%TD*%
D17*
%TO.C,R41*%
X137600000Y-31802500D03*
X137600000Y-32997500D03*
%TD*%
D24*
%TO.C,D3*%
X112125000Y-158500000D03*
X113875000Y-158500000D03*
%TD*%
D16*
%TO.C,R15*%
X109402500Y-158500000D03*
X110597500Y-158500000D03*
%TD*%
D14*
%TO.C,D62*%
X138427500Y-71000000D03*
X139572500Y-71000000D03*
%TD*%
%TO.C,D20*%
X132427500Y-59000000D03*
X133572500Y-59000000D03*
%TD*%
%TO.C,D36*%
X150427500Y-62000000D03*
X151572500Y-62000000D03*
%TD*%
D11*
%TO.C,Q2*%
X136950000Y-45562500D03*
X135050000Y-45562500D03*
X136000000Y-47437500D03*
%TD*%
%TO.C,Q5*%
X147450000Y-45562500D03*
X145550000Y-45562500D03*
X146500000Y-47437500D03*
%TD*%
D17*
%TO.C,R20*%
X88000000Y-41000000D03*
X88000000Y-42195000D03*
%TD*%
D19*
%TO.C,C37*%
X115200000Y-58932500D03*
X115200000Y-60067500D03*
%TD*%
D16*
%TO.C,R4*%
X118302500Y-60100000D03*
X119497500Y-60100000D03*
%TD*%
D14*
%TO.C,D60*%
X132427500Y-71000000D03*
X133572500Y-71000000D03*
%TD*%
%TO.C,D32*%
X138427500Y-62000000D03*
X139572500Y-62000000D03*
%TD*%
%TO.C,D30*%
X132427500Y-62000000D03*
X133572500Y-62000000D03*
%TD*%
D16*
%TO.C,R12*%
X108402500Y-45000000D03*
X109597500Y-45000000D03*
%TD*%
D14*
%TO.C,D37*%
X153427500Y-62000000D03*
X154572500Y-62000000D03*
%TD*%
D19*
%TO.C,C33*%
X122500000Y-53432500D03*
X122500000Y-54567500D03*
%TD*%
D14*
%TO.C,D27*%
X153427500Y-59000000D03*
X154572500Y-59000000D03*
%TD*%
%TO.C,D07*%
X153427500Y-53000000D03*
X154572500Y-53000000D03*
%TD*%
D20*
%TO.C,C10*%
X95600000Y-45162500D03*
X95600000Y-43437500D03*
%TD*%
D14*
%TO.C,D65*%
X147427500Y-71000000D03*
X148572500Y-71000000D03*
%TD*%
%TO.C,D02*%
X138427500Y-53000000D03*
X139572500Y-53000000D03*
%TD*%
D25*
%TO.C,J6*%
X127473250Y-35125000D03*
X126823250Y-35125000D03*
X126173250Y-35125000D03*
X125523250Y-35125000D03*
X124873250Y-35125000D03*
%TD*%
D18*
%TO.C,SW6*%
X139402600Y-136749999D03*
X148597400Y-136749999D03*
X139402600Y-141250001D03*
X148597400Y-141250001D03*
%TD*%
D23*
%TO.C,R9*%
X119500000Y-158097500D03*
X119500000Y-156902500D03*
%TD*%
D18*
%TO.C,SW1*%
X101402600Y-136749999D03*
X110597400Y-136749999D03*
X101402600Y-141250001D03*
X110597400Y-141250001D03*
%TD*%
D14*
%TO.C,D06*%
X150427500Y-53000000D03*
X151572500Y-53000000D03*
%TD*%
D26*
%TO.C,U4*%
X149045000Y-32500000D03*
X147775000Y-32500000D03*
X146505000Y-32500000D03*
X145235000Y-32500000D03*
X143965000Y-32500000D03*
X142695000Y-32500000D03*
X141425000Y-32500000D03*
X140155000Y-32500000D03*
X140155000Y-37500000D03*
X141425000Y-37500000D03*
X142695000Y-37500000D03*
X143965000Y-37500000D03*
X145235000Y-37500000D03*
X146505000Y-37500000D03*
X147775000Y-37500000D03*
X149045000Y-37500000D03*
%TD*%
D17*
%TO.C,R11*%
X115400000Y-157402500D03*
X115400000Y-158597500D03*
%TD*%
D14*
%TO.C,D17*%
X153427500Y-56000000D03*
X154572500Y-56000000D03*
%TD*%
D10*
%TO.C,C31*%
X113300000Y-43655000D03*
X113300000Y-42520000D03*
%TD*%
D14*
%TO.C,D24*%
X144427500Y-59000000D03*
X145572500Y-59000000D03*
%TD*%
D18*
%TO.C,SW2*%
X127402600Y-148749999D03*
X136597400Y-148749999D03*
X127402600Y-153250001D03*
X136597400Y-153250001D03*
%TD*%
D14*
%TO.C,D35*%
X147427500Y-62000000D03*
X148572500Y-62000000D03*
%TD*%
%TO.C,D04*%
X144427500Y-53000000D03*
X145572500Y-53000000D03*
%TD*%
D17*
%TO.C,R3*%
X122300000Y-36852500D03*
X122300000Y-38047500D03*
%TD*%
D20*
%TO.C,C21*%
X84500000Y-40362500D03*
X84500000Y-38637500D03*
%TD*%
D14*
%TO.C,D74*%
X144427500Y-74000000D03*
X145572500Y-74000000D03*
%TD*%
D21*
%TO.C,C34*%
X121282500Y-56750000D03*
X122417500Y-56750000D03*
%TD*%
D14*
%TO.C,D70*%
X132427500Y-74000000D03*
X133572500Y-74000000D03*
%TD*%
D27*
%TO.C,R50*%
X107097500Y-150900000D03*
X105902500Y-150900000D03*
%TD*%
D16*
%TO.C,R85*%
X147902500Y-49000000D03*
X149097500Y-49000000D03*
%TD*%
D28*
%TO.C,D1*%
X92750000Y-31200000D03*
X90250000Y-31200000D03*
%TD*%
D27*
%TO.C,R2*%
X125797500Y-36800000D03*
X124602500Y-36800000D03*
%TD*%
D14*
%TO.C,D23*%
X141427500Y-59000000D03*
X142572500Y-59000000D03*
%TD*%
%TO.C,D57*%
X153427500Y-68000000D03*
X154572500Y-68000000D03*
%TD*%
%TO.C,D64*%
X144427500Y-71000000D03*
X145572500Y-71000000D03*
%TD*%
D27*
%TO.C,R1*%
X125797500Y-37850000D03*
X124602500Y-37850000D03*
%TD*%
D29*
%TO.C,U1*%
X93450483Y-46350001D03*
X93450483Y-45400000D03*
X93450483Y-44449999D03*
X91149517Y-44449999D03*
X91149517Y-46350001D03*
%TD*%
D14*
%TO.C,D26*%
X150427500Y-59000000D03*
X151572500Y-59000000D03*
%TD*%
D23*
%TO.C,R21*%
X88000000Y-39195000D03*
X88000000Y-38000000D03*
%TD*%
D14*
%TO.C,D42*%
X138427500Y-65000000D03*
X139572500Y-65000000D03*
%TD*%
%TO.C,D46*%
X150427500Y-65000000D03*
X151572500Y-65000000D03*
%TD*%
D16*
%TO.C,R82*%
X138402500Y-49000000D03*
X139597500Y-49000000D03*
%TD*%
D14*
%TO.C,D50*%
X132427500Y-68000000D03*
X133572500Y-68000000D03*
%TD*%
D30*
%TO.C,C50*%
X102137500Y-152000000D03*
X103862500Y-152000000D03*
%TD*%
D16*
%TO.C,R45*%
X148102500Y-43600000D03*
X149297500Y-43600000D03*
%TD*%
D14*
%TO.C,D52*%
X138427500Y-68000000D03*
X139572500Y-68000000D03*
%TD*%
D23*
%TO.C,R13*%
X116600000Y-158597500D03*
X116600000Y-157402500D03*
%TD*%
D16*
%TO.C,R84*%
X144302500Y-49000000D03*
X145497500Y-49000000D03*
%TD*%
D31*
%TO.C,Y2*%
X115600000Y-55050000D03*
X115600000Y-57550000D03*
%TD*%
D23*
%TO.C,R7*%
X121000000Y-158097500D03*
X121000000Y-156902500D03*
%TD*%
D14*
%TO.C,D00*%
X132427500Y-53000000D03*
X133572500Y-53000000D03*
%TD*%
D11*
%TO.C,Q3*%
X140450000Y-45562500D03*
X138550000Y-45562500D03*
X139500000Y-47437500D03*
%TD*%
D32*
%TO.C,U2*%
X94800000Y-34850000D03*
X92500000Y-34850000D03*
D33*
X92500000Y-41150000D03*
D32*
X90200000Y-34850000D03*
%TD*%
D18*
%TO.C,SW8*%
X127402600Y-124749999D03*
X136597400Y-124749999D03*
X127402600Y-129250001D03*
X136597400Y-129250001D03*
%TD*%
D14*
%TO.C,D63*%
X141427500Y-71000000D03*
X142572500Y-71000000D03*
%TD*%
D18*
%TO.C,SW5*%
X127402600Y-136749999D03*
X136597400Y-136749999D03*
X127402600Y-141250001D03*
X136597400Y-141250001D03*
%TD*%
D14*
%TO.C,D47*%
X153427500Y-65000000D03*
X154572500Y-65000000D03*
%TD*%
%TO.C,D15*%
X147427500Y-56000000D03*
X148572500Y-56000000D03*
%TD*%
%TO.C,D41*%
X135427500Y-65000000D03*
X136572500Y-65000000D03*
%TD*%
D11*
%TO.C,Q7*%
X154450000Y-45562500D03*
X152550000Y-45562500D03*
X153500000Y-47437500D03*
%TD*%
D17*
%TO.C,R44*%
X150600000Y-42402500D03*
X150600000Y-43597500D03*
%TD*%
D18*
%TO.C,SW4*%
X115402600Y-136749999D03*
X124597400Y-136749999D03*
X115402600Y-141250001D03*
X124597400Y-141250001D03*
%TD*%
D14*
%TO.C,D25*%
X147427500Y-59000000D03*
X148572500Y-59000000D03*
%TD*%
D16*
%TO.C,R83*%
X141402500Y-49000000D03*
X142597500Y-49000000D03*
%TD*%
D23*
%TO.C,R8*%
X87000000Y-158097500D03*
X87000000Y-156902500D03*
%TD*%
D16*
%TO.C,R46*%
X145602500Y-43600000D03*
X146797500Y-43600000D03*
%TD*%
%TO.C,R43*%
X153502500Y-40200000D03*
X154697500Y-40200000D03*
%TD*%
%TO.C,R86*%
X150902500Y-49000000D03*
X152097500Y-49000000D03*
%TD*%
D34*
%TO.C,Y1*%
X119625000Y-58550000D03*
X119625000Y-56450000D03*
X117975000Y-56450000D03*
X117975000Y-58550000D03*
%TD*%
D11*
%TO.C,Q4*%
X143950000Y-45562500D03*
X142050000Y-45562500D03*
X143000000Y-47437500D03*
%TD*%
D14*
%TO.C,D40*%
X132427500Y-65000000D03*
X133572500Y-65000000D03*
%TD*%
%TO.C,D11*%
X135427500Y-56000000D03*
X136572500Y-56000000D03*
%TD*%
D35*
%TO.C,Q8*%
X152562500Y-41550000D03*
X152562500Y-43450000D03*
X154437500Y-42500000D03*
%TD*%
D14*
%TO.C,D72*%
X138427500Y-74000000D03*
X139572500Y-74000000D03*
%TD*%
D27*
%TO.C,R30*%
X122447500Y-55700000D03*
X121252500Y-55700000D03*
%TD*%
D16*
%TO.C,R49*%
X138102500Y-43600000D03*
X139297500Y-43600000D03*
%TD*%
D36*
%TO.C,J1*%
X105300000Y-35203900D03*
X104649999Y-35203900D03*
X104000000Y-35203900D03*
X103350001Y-35203900D03*
X102700000Y-35203900D03*
D37*
X107099999Y-35078899D03*
X100900001Y-35078899D03*
D38*
X107800000Y-32528899D03*
X100200000Y-32528899D03*
D39*
X105200000Y-32528899D03*
X102800000Y-32528899D03*
%TD*%
D16*
%TO.C,R81*%
X135402500Y-49000000D03*
X136597500Y-49000000D03*
%TD*%
D14*
%TO.C,D54*%
X144427500Y-68000000D03*
X145572500Y-68000000D03*
%TD*%
%TO.C,D03*%
X141427500Y-53000000D03*
X142572500Y-53000000D03*
%TD*%
D11*
%TO.C,Q6*%
X150950000Y-45562500D03*
X149050000Y-45562500D03*
X150000000Y-47437500D03*
%TD*%
D10*
%TO.C,C01*%
X82500000Y-39067500D03*
X82500000Y-37932500D03*
%TD*%
D14*
%TO.C,D10*%
X132427500Y-56000000D03*
X133572500Y-56000000D03*
%TD*%
%TO.C,D45*%
X147427500Y-65000000D03*
X148572500Y-65000000D03*
%TD*%
D17*
%TO.C,R22*%
X86500000Y-37902500D03*
X86500000Y-39097500D03*
%TD*%
D14*
%TO.C,D61*%
X135427500Y-71000000D03*
X136572500Y-71000000D03*
%TD*%
D23*
%TO.C,R14*%
X115400000Y-156197500D03*
X115400000Y-155002500D03*
%TD*%
D18*
%TO.C,SW7*%
X115402600Y-124749999D03*
X124597400Y-124749999D03*
X115402600Y-129250001D03*
X124597400Y-129250001D03*
%TD*%
D40*
%TO.C,C20*%
X87700000Y-34487500D03*
X87700000Y-36212500D03*
%TD*%
D14*
%TO.C,D31*%
X135427500Y-62000000D03*
X136572500Y-62000000D03*
%TD*%
%TO.C,D73*%
X141427500Y-74000000D03*
X142572500Y-74000000D03*
%TD*%
D16*
%TO.C,R80*%
X132402500Y-49000000D03*
X133597500Y-49000000D03*
%TD*%
M02*
