%TF.GenerationSoftware,KiCad,Pcbnew,8.0.0-8.0.0-1~ubuntu20.04.1*%
%TF.CreationDate,2024-04-01T04:19:55+08:00*%
%TF.ProjectId,pcb_badge,7063625f-6261-4646-9765-2e6b69636164,rev?*%
%TF.SameCoordinates,Original*%
%TF.FileFunction,Legend,Bot*%
%TF.FilePolarity,Positive*%
%FSLAX46Y46*%
G04 Gerber Fmt 4.6, Leading zero omitted, Abs format (unit mm)*
G04 Created by KiCad (PCBNEW 8.0.0-8.0.0-1~ubuntu20.04.1) date 2024-04-01 04:19:55*
%MOMM*%
%LPD*%
G01*
G04 APERTURE LIST*
%ADD10C,0.150000*%
%ADD11C,0.100000*%
%ADD12C,0.508000*%
%ADD13C,0.152400*%
%ADD14C,0.127000*%
G04 APERTURE END LIST*
D10*
X91931009Y-132214285D02*
X91978628Y-132357142D01*
X91978628Y-132357142D02*
X92026247Y-132404761D01*
X92026247Y-132404761D02*
X92121485Y-132452380D01*
X92121485Y-132452380D02*
X92264342Y-132452380D01*
X92264342Y-132452380D02*
X92359580Y-132404761D01*
X92359580Y-132404761D02*
X92407200Y-132357142D01*
X92407200Y-132357142D02*
X92454819Y-132261904D01*
X92454819Y-132261904D02*
X92454819Y-131880952D01*
X92454819Y-131880952D02*
X91454819Y-131880952D01*
X91454819Y-131880952D02*
X91454819Y-132214285D01*
X91454819Y-132214285D02*
X91502438Y-132309523D01*
X91502438Y-132309523D02*
X91550057Y-132357142D01*
X91550057Y-132357142D02*
X91645295Y-132404761D01*
X91645295Y-132404761D02*
X91740533Y-132404761D01*
X91740533Y-132404761D02*
X91835771Y-132357142D01*
X91835771Y-132357142D02*
X91883390Y-132309523D01*
X91883390Y-132309523D02*
X91931009Y-132214285D01*
X91931009Y-132214285D02*
X91931009Y-131880952D01*
X91454819Y-132738095D02*
X91454819Y-133309523D01*
X92454819Y-133023809D02*
X91454819Y-133023809D01*
X92454819Y-134166666D02*
X92454819Y-133595238D01*
X92454819Y-133880952D02*
X91454819Y-133880952D01*
X91454819Y-133880952D02*
X91597676Y-133785714D01*
X91597676Y-133785714D02*
X91692914Y-133690476D01*
X91692914Y-133690476D02*
X91740533Y-133595238D01*
D11*
X81291456Y-130803884D02*
X81291456Y-131565789D01*
X81672409Y-131184836D02*
X80910504Y-131184836D01*
D10*
X146860714Y-123046009D02*
X146717857Y-123093628D01*
X146717857Y-123093628D02*
X146670238Y-123141247D01*
X146670238Y-123141247D02*
X146622619Y-123236485D01*
X146622619Y-123236485D02*
X146622619Y-123379342D01*
X146622619Y-123379342D02*
X146670238Y-123474580D01*
X146670238Y-123474580D02*
X146717857Y-123522200D01*
X146717857Y-123522200D02*
X146813095Y-123569819D01*
X146813095Y-123569819D02*
X147194047Y-123569819D01*
X147194047Y-123569819D02*
X147194047Y-122569819D01*
X147194047Y-122569819D02*
X146860714Y-122569819D01*
X146860714Y-122569819D02*
X146765476Y-122617438D01*
X146765476Y-122617438D02*
X146717857Y-122665057D01*
X146717857Y-122665057D02*
X146670238Y-122760295D01*
X146670238Y-122760295D02*
X146670238Y-122855533D01*
X146670238Y-122855533D02*
X146717857Y-122950771D01*
X146717857Y-122950771D02*
X146765476Y-122998390D01*
X146765476Y-122998390D02*
X146860714Y-123046009D01*
X146860714Y-123046009D02*
X147194047Y-123046009D01*
X146336904Y-122569819D02*
X145765476Y-122569819D01*
X146051190Y-123569819D02*
X146051190Y-122569819D01*
X145479761Y-122665057D02*
X145432142Y-122617438D01*
X145432142Y-122617438D02*
X145336904Y-122569819D01*
X145336904Y-122569819D02*
X145098809Y-122569819D01*
X145098809Y-122569819D02*
X145003571Y-122617438D01*
X145003571Y-122617438D02*
X144955952Y-122665057D01*
X144955952Y-122665057D02*
X144908333Y-122760295D01*
X144908333Y-122760295D02*
X144908333Y-122855533D01*
X144908333Y-122855533D02*
X144955952Y-122998390D01*
X144955952Y-122998390D02*
X145527380Y-123569819D01*
X145527380Y-123569819D02*
X144908333Y-123569819D01*
D12*
%TO.C,U5*%
X101066300Y-155060900D02*
G75*
G02*
X100304300Y-155060900I-381000J0D01*
G01*
X100304300Y-155060900D02*
G75*
G02*
X101066300Y-155060900I381000J0D01*
G01*
%TO.C,J1*%
X110311900Y-35203900D02*
G75*
G02*
X109549900Y-35203900I-381000J0D01*
G01*
X109549900Y-35203900D02*
G75*
G02*
X110311900Y-35203900I381000J0D01*
G01*
D13*
%TO.C,BT1*%
X80326049Y-131938643D02*
G75*
G02*
X96972186Y-122384681I11673951J-1061356D01*
G01*
X92000000Y-144722100D02*
G75*
G02*
X80326048Y-134061357I0J11722100D01*
G01*
X96972193Y-143615315D02*
G75*
G02*
X92000014Y-144722099I-4972196J10615333D01*
G01*
X98707037Y-123386297D02*
G75*
G02*
X98707052Y-142613692I-6707037J-9613703D01*
G01*
D14*
%TO.C,BT2*%
X114966000Y-133000000D02*
X116236000Y-133000000D01*
X118750000Y-130580000D02*
X118750000Y-129500000D01*
X118750000Y-135420000D02*
X118750000Y-136500000D01*
X118750000Y-136500000D02*
X121950000Y-136500000D01*
X121950000Y-125000000D02*
X144050000Y-125000000D01*
X121950000Y-129500000D02*
X118750000Y-129500000D01*
X121950000Y-129500000D02*
X121950000Y-125000000D01*
X121950000Y-141000000D02*
X121950000Y-136500000D01*
X142650000Y-141000000D02*
X121950000Y-141000000D01*
X144050000Y-125000000D02*
X144050000Y-129500000D01*
X144050000Y-136500000D02*
X144050000Y-139600000D01*
X144050000Y-136500000D02*
X147250000Y-136500000D01*
X144050000Y-139600000D02*
X142650000Y-141000000D01*
X147250000Y-129500000D02*
X144050000Y-129500000D01*
X147250000Y-130580000D02*
X147250000Y-129500000D01*
X147250000Y-136500000D02*
X147250000Y-135420000D01*
X150399000Y-132365000D02*
X150399000Y-133635000D01*
X151034000Y-133000000D02*
X149764000Y-133000000D01*
%TD*%
M02*
