%TF.GenerationSoftware,KiCad,Pcbnew,8.0.0-8.0.0-1~ubuntu20.04.1*%
%TF.CreationDate,2024-03-13T13:13:24+08:00*%
%TF.ProjectId,pcb_badge,7063625f-6261-4646-9765-2e6b69636164,rev?*%
%TF.SameCoordinates,Original*%
%TF.FileFunction,Soldermask,Top*%
%TF.FilePolarity,Negative*%
%FSLAX46Y46*%
G04 Gerber Fmt 4.6, Leading zero omitted, Abs format (unit mm)*
G04 Created by KiCad (PCBNEW 8.0.0-8.0.0-1~ubuntu20.04.1) date 2024-03-13 13:13:24*
%MOMM*%
%LPD*%
G01*
G04 APERTURE LIST*
G04 Aperture macros list*
%AMRoundRect*
0 Rectangle with rounded corners*
0 $1 Rounding radius*
0 $2 $3 $4 $5 $6 $7 $8 $9 X,Y pos of 4 corners*
0 Add a 4 corners polygon primitive as box body*
4,1,4,$2,$3,$4,$5,$6,$7,$8,$9,$2,$3,0*
0 Add four circle primitives for the rounded corners*
1,1,$1+$1,$2,$3*
1,1,$1+$1,$4,$5*
1,1,$1+$1,$6,$7*
1,1,$1+$1,$8,$9*
0 Add four rect primitives between the rounded corners*
20,1,$1+$1,$2,$3,$4,$5,0*
20,1,$1+$1,$4,$5,$6,$7,0*
20,1,$1+$1,$6,$7,$8,$9,0*
20,1,$1+$1,$8,$9,$2,$3,0*%
G04 Aperture macros list end*
%ADD10RoundRect,0.160000X0.160000X-0.197500X0.160000X0.197500X-0.160000X0.197500X-0.160000X-0.197500X0*%
%ADD11R,1.524000X0.762000*%
%ADD12R,1.700000X1.700000*%
%ADD13O,1.700000X1.700000*%
%ADD14RoundRect,0.155000X0.155000X-0.212500X0.155000X0.212500X-0.155000X0.212500X-0.155000X-0.212500X0*%
%ADD15RoundRect,0.150000X-0.150000X0.587500X-0.150000X-0.587500X0.150000X-0.587500X0.150000X0.587500X0*%
%ADD16RoundRect,0.075000X0.075000X-0.662500X0.075000X0.662500X-0.075000X0.662500X-0.075000X-0.662500X0*%
%ADD17RoundRect,0.075000X0.662500X-0.075000X0.662500X0.075000X-0.662500X0.075000X-0.662500X-0.075000X0*%
%ADD18RoundRect,0.160000X-0.222500X-0.160000X0.222500X-0.160000X0.222500X0.160000X-0.222500X0.160000X0*%
%ADD19RoundRect,0.250000X-0.250000X-0.250000X0.250000X-0.250000X0.250000X0.250000X-0.250000X0.250000X0*%
%ADD20RoundRect,0.160000X-0.197500X-0.160000X0.197500X-0.160000X0.197500X0.160000X-0.197500X0.160000X0*%
%ADD21RoundRect,0.160000X-0.160000X0.197500X-0.160000X-0.197500X0.160000X-0.197500X0.160000X0.197500X0*%
%ADD22RoundRect,0.155000X0.212500X0.155000X-0.212500X0.155000X-0.212500X-0.155000X0.212500X-0.155000X0*%
%ADD23RoundRect,0.237500X-0.300000X-0.237500X0.300000X-0.237500X0.300000X0.237500X-0.300000X0.237500X0*%
%ADD24RoundRect,0.155000X-0.212500X-0.155000X0.212500X-0.155000X0.212500X0.155000X-0.212500X0.155000X0*%
%ADD25C,1.270000*%
%ADD26R,3.000000X3.000000*%
%ADD27C,3.000000*%
%ADD28RoundRect,0.237500X-0.287500X-0.237500X0.287500X-0.237500X0.287500X0.237500X-0.287500X0.237500X0*%
%ADD29R,0.406400X1.346200*%
%ADD30R,1.600200X2.108200*%
%ADD31R,1.905000X1.803400*%
%ADD32R,1.905000X1.905000*%
%ADD33RoundRect,0.237500X0.300000X0.237500X-0.300000X0.237500X-0.300000X-0.237500X0.300000X-0.237500X0*%
%ADD34RoundRect,0.150000X-0.150000X0.850000X-0.150000X-0.850000X0.150000X-0.850000X0.150000X0.850000X0*%
%ADD35RoundRect,0.237500X-0.237500X0.300000X-0.237500X-0.300000X0.237500X-0.300000X0.237500X0.300000X0*%
%ADD36RoundRect,0.160000X0.197500X0.160000X-0.197500X0.160000X-0.197500X-0.160000X0.197500X-0.160000X0*%
%ADD37R,1.805236X0.612132*%
%ADD38R,1.800000X1.000000*%
%ADD39R,2.000000X1.500000*%
%ADD40R,2.000000X3.800000*%
%ADD41R,1.300000X1.100000*%
%ADD42C,1.100000*%
%ADD43R,1.730000X2.030000*%
%ADD44O,1.730000X2.030000*%
%ADD45RoundRect,0.150000X-0.587500X-0.150000X0.587500X-0.150000X0.587500X0.150000X-0.587500X0.150000X0*%
%ADD46RoundRect,0.237500X0.237500X-0.300000X0.237500X0.300000X-0.237500X0.300000X-0.237500X-0.300000X0*%
G04 APERTURE END LIST*
D10*
%TO.C,R8*%
X101500000Y-128597500D03*
X101500000Y-127402500D03*
%TD*%
%TO.C,R9*%
X134000000Y-128597500D03*
X134000000Y-127402500D03*
%TD*%
%TO.C,R7*%
X135500000Y-127402500D03*
X135500000Y-128597500D03*
%TD*%
D11*
%TO.C,SW1*%
X113597400Y-124250001D03*
X104402600Y-124250001D03*
X113597400Y-119749999D03*
X104402600Y-119749999D03*
%TD*%
D10*
%TO.C,R6*%
X103000000Y-128597500D03*
X103000000Y-127402500D03*
%TD*%
D12*
%TO.C,J5*%
X137975000Y-128000000D03*
D13*
X140515000Y-128000000D03*
X143055000Y-128000000D03*
%TD*%
D12*
%TO.C,J4*%
X105475000Y-128000000D03*
D13*
X108015000Y-128000000D03*
X110555000Y-128000000D03*
%TD*%
D14*
%TO.C,C40*%
X150600000Y-36867500D03*
X150600000Y-35732500D03*
%TD*%
D15*
%TO.C,Q1*%
X133450000Y-45562500D03*
X131550000Y-45562500D03*
X132500000Y-47437500D03*
%TD*%
D16*
%TO.C,U3*%
X112500000Y-52500000D03*
X113000000Y-52500000D03*
X113500000Y-52500000D03*
X114000000Y-52500000D03*
X114500000Y-52500000D03*
X115000000Y-52500000D03*
X115500000Y-52500000D03*
X116000000Y-52500000D03*
X116500000Y-52500000D03*
X117000000Y-52500000D03*
X117500000Y-52500000D03*
X118000000Y-52500000D03*
D17*
X119412500Y-51087500D03*
X119412500Y-50587500D03*
X119412500Y-50087500D03*
X119412500Y-49587500D03*
X119412500Y-49087500D03*
X119412500Y-48587500D03*
X119412500Y-48087500D03*
X119412500Y-47587500D03*
X119412500Y-47087500D03*
X119412500Y-46587500D03*
X119412500Y-46087500D03*
X119412500Y-45587500D03*
D16*
X118000000Y-44175000D03*
X117500000Y-44175000D03*
X117000000Y-44175000D03*
X116500000Y-44175000D03*
X116000000Y-44175000D03*
X115500000Y-44175000D03*
X115000000Y-44175000D03*
X114500000Y-44175000D03*
X114000000Y-44175000D03*
X113500000Y-44175000D03*
X113000000Y-44175000D03*
X112500000Y-44175000D03*
D17*
X111087500Y-45587500D03*
X111087500Y-46087500D03*
X111087500Y-46587500D03*
X111087500Y-47087500D03*
X111087500Y-47587500D03*
X111087500Y-48087500D03*
X111087500Y-48587500D03*
X111087500Y-49087500D03*
X111087500Y-49587500D03*
X111087500Y-50087500D03*
X111087500Y-50587500D03*
X111087500Y-51087500D03*
%TD*%
D18*
%TO.C,D21*%
X135427500Y-59000000D03*
X136572500Y-59000000D03*
%TD*%
%TO.C,D22*%
X138427500Y-59000000D03*
X139572500Y-59000000D03*
%TD*%
D19*
%TO.C,D2*%
X113750000Y-100000000D03*
X116250000Y-100000000D03*
%TD*%
D20*
%TO.C,R48*%
X140602500Y-43600000D03*
X141797500Y-43600000D03*
%TD*%
%TO.C,R410*%
X135602500Y-43600000D03*
X136797500Y-43600000D03*
%TD*%
D21*
%TO.C,R40*%
X136500000Y-31802500D03*
X136500000Y-32997500D03*
%TD*%
D18*
%TO.C,D55*%
X147427500Y-68000000D03*
X148572500Y-68000000D03*
%TD*%
D11*
%TO.C,SW3*%
X104402600Y-110749999D03*
X113597400Y-110749999D03*
X104402600Y-115250001D03*
X113597400Y-115250001D03*
%TD*%
D22*
%TO.C,C32*%
X110767500Y-52187500D03*
X109632500Y-52187500D03*
%TD*%
D18*
%TO.C,D33*%
X141427500Y-62000000D03*
X142572500Y-62000000D03*
%TD*%
D21*
%TO.C,R10*%
X147000000Y-99902500D03*
X147000000Y-101097500D03*
%TD*%
D23*
%TO.C,C11*%
X152637500Y-97500000D03*
X154362500Y-97500000D03*
%TD*%
D18*
%TO.C,D51*%
X135427500Y-68000000D03*
X136572500Y-68000000D03*
%TD*%
%TO.C,D71*%
X135427500Y-74000000D03*
X136572500Y-74000000D03*
%TD*%
%TO.C,D77*%
X153427500Y-74000000D03*
X154572500Y-74000000D03*
%TD*%
%TO.C,D43*%
X141427500Y-65000000D03*
X142572500Y-65000000D03*
%TD*%
D20*
%TO.C,R87*%
X153902500Y-49000000D03*
X155097500Y-49000000D03*
%TD*%
D24*
%TO.C,C30*%
X119832500Y-44387500D03*
X120967500Y-44387500D03*
%TD*%
%TO.C,C38*%
X113132500Y-61487500D03*
X114267500Y-61487500D03*
%TD*%
D18*
%TO.C,D01*%
X135427500Y-53000000D03*
X136572500Y-53000000D03*
%TD*%
%TO.C,D56*%
X150427500Y-68000000D03*
X151572500Y-68000000D03*
%TD*%
D10*
%TO.C,R5*%
X105000000Y-96097500D03*
X105000000Y-94902500D03*
%TD*%
D18*
%TO.C,D05*%
X147427500Y-53000000D03*
X148572500Y-53000000D03*
%TD*%
%TO.C,D16*%
X150427500Y-56000000D03*
X151572500Y-56000000D03*
%TD*%
D24*
%TO.C,C51*%
X124432500Y-124000000D03*
X125567500Y-124000000D03*
%TD*%
D18*
%TO.C,D66*%
X150427500Y-71000000D03*
X151572500Y-71000000D03*
%TD*%
%TO.C,D12*%
X138427500Y-56000000D03*
X139572500Y-56000000D03*
%TD*%
%TO.C,D76*%
X150427500Y-74000000D03*
X151572500Y-74000000D03*
%TD*%
%TO.C,D75*%
X147427500Y-74000000D03*
X148572500Y-74000000D03*
%TD*%
%TO.C,D67*%
X153427500Y-71000000D03*
X154572500Y-71000000D03*
%TD*%
D21*
%TO.C,R42*%
X138700000Y-31802500D03*
X138700000Y-32997500D03*
%TD*%
D25*
%TO.C,U5*%
X116904500Y-125060900D03*
X119444500Y-125060900D03*
X121984500Y-125060900D03*
%TD*%
D26*
%TO.C,J2*%
X105250000Y-103907500D03*
D27*
X105250000Y-100027500D03*
%TD*%
D20*
%TO.C,R47*%
X143102500Y-43600000D03*
X144297500Y-43600000D03*
%TD*%
D18*
%TO.C,D13*%
X141427500Y-56000000D03*
X142572500Y-56000000D03*
%TD*%
%TO.C,D44*%
X144427500Y-65000000D03*
X145572500Y-65000000D03*
%TD*%
%TO.C,D34*%
X144427500Y-62000000D03*
X145572500Y-62000000D03*
%TD*%
%TO.C,D14*%
X144427500Y-56000000D03*
X145572500Y-56000000D03*
%TD*%
%TO.C,D53*%
X141427500Y-68000000D03*
X142572500Y-68000000D03*
%TD*%
D21*
%TO.C,R41*%
X137600000Y-31802500D03*
X137600000Y-32997500D03*
%TD*%
D28*
%TO.C,D3*%
X125125000Y-128000000D03*
X126875000Y-128000000D03*
%TD*%
D18*
%TO.C,D62*%
X138427500Y-71000000D03*
X139572500Y-71000000D03*
%TD*%
%TO.C,D20*%
X132427500Y-59000000D03*
X133572500Y-59000000D03*
%TD*%
%TO.C,D36*%
X150427500Y-62000000D03*
X151572500Y-62000000D03*
%TD*%
D15*
%TO.C,Q2*%
X136950000Y-45562500D03*
X135050000Y-45562500D03*
X136000000Y-47437500D03*
%TD*%
%TO.C,Q5*%
X147450000Y-45562500D03*
X145550000Y-45562500D03*
X146500000Y-47437500D03*
%TD*%
D20*
%TO.C,R20*%
X108402500Y-82500000D03*
X109597500Y-82500000D03*
%TD*%
D24*
%TO.C,C37*%
X113132500Y-62687500D03*
X114267500Y-62687500D03*
%TD*%
D21*
%TO.C,R4*%
X110300000Y-56790000D03*
X110300000Y-57985000D03*
%TD*%
D18*
%TO.C,D60*%
X132427500Y-71000000D03*
X133572500Y-71000000D03*
%TD*%
%TO.C,D32*%
X138427500Y-62000000D03*
X139572500Y-62000000D03*
%TD*%
%TO.C,D30*%
X132427500Y-62000000D03*
X133572500Y-62000000D03*
%TD*%
D29*
%TO.C,J1*%
X116550000Y-34953900D03*
X115899999Y-34953900D03*
X115250000Y-34953900D03*
X114600001Y-34953900D03*
X113950000Y-34953900D03*
D30*
X118349999Y-34828899D03*
X112150001Y-34828899D03*
D31*
X119050000Y-32278899D03*
X111450000Y-32278899D03*
D32*
X116450000Y-32278899D03*
X114050000Y-32278899D03*
%TD*%
D18*
%TO.C,D37*%
X153427500Y-62000000D03*
X154572500Y-62000000D03*
%TD*%
D22*
%TO.C,C33*%
X117167500Y-54887500D03*
X116032500Y-54887500D03*
%TD*%
D18*
%TO.C,D27*%
X153427500Y-59000000D03*
X154572500Y-59000000D03*
%TD*%
%TO.C,D07*%
X153427500Y-53000000D03*
X154572500Y-53000000D03*
%TD*%
D33*
%TO.C,C10*%
X149862500Y-104000000D03*
X148137500Y-104000000D03*
%TD*%
D18*
%TO.C,D65*%
X147427500Y-71000000D03*
X148572500Y-71000000D03*
%TD*%
%TO.C,D02*%
X138427500Y-53000000D03*
X139572500Y-53000000D03*
%TD*%
D11*
%TO.C,SW6*%
X143402600Y-110749999D03*
X152597400Y-110749999D03*
X143402600Y-115250001D03*
X152597400Y-115250001D03*
%TD*%
D18*
%TO.C,D06*%
X150427500Y-53000000D03*
X151572500Y-53000000D03*
%TD*%
D34*
%TO.C,U4*%
X149045000Y-32500000D03*
X147775000Y-32500000D03*
X146505000Y-32500000D03*
X145235000Y-32500000D03*
X143965000Y-32500000D03*
X142695000Y-32500000D03*
X141425000Y-32500000D03*
X140155000Y-32500000D03*
X140155000Y-37500000D03*
X141425000Y-37500000D03*
X142695000Y-37500000D03*
X143965000Y-37500000D03*
X145235000Y-37500000D03*
X146505000Y-37500000D03*
X147775000Y-37500000D03*
X149045000Y-37500000D03*
%TD*%
D18*
%TO.C,D17*%
X153427500Y-56000000D03*
X154572500Y-56000000D03*
%TD*%
D14*
%TO.C,C31*%
X111300000Y-43655000D03*
X111300000Y-42520000D03*
%TD*%
D18*
%TO.C,D24*%
X144427500Y-59000000D03*
X145572500Y-59000000D03*
%TD*%
D11*
%TO.C,SW2*%
X131402600Y-119749999D03*
X140597400Y-119749999D03*
X131402600Y-124250001D03*
X140597400Y-124250001D03*
%TD*%
D18*
%TO.C,D35*%
X147427500Y-62000000D03*
X148572500Y-62000000D03*
%TD*%
%TO.C,D04*%
X144427500Y-53000000D03*
X145572500Y-53000000D03*
%TD*%
D10*
%TO.C,R3*%
X117000000Y-38597500D03*
X117000000Y-37402500D03*
%TD*%
D35*
%TO.C,C21*%
X102000000Y-77637500D03*
X102000000Y-79362500D03*
%TD*%
D18*
%TO.C,D74*%
X144427500Y-74000000D03*
X145572500Y-74000000D03*
%TD*%
D24*
%TO.C,C34*%
X116032500Y-56887500D03*
X117167500Y-56887500D03*
%TD*%
D18*
%TO.C,D70*%
X132427500Y-74000000D03*
X133572500Y-74000000D03*
%TD*%
D36*
%TO.C,R50*%
X124597500Y-120750000D03*
X123402500Y-120750000D03*
%TD*%
D20*
%TO.C,R85*%
X147902500Y-49000000D03*
X149097500Y-49000000D03*
%TD*%
D19*
%TO.C,D1*%
X113750000Y-104000000D03*
X116250000Y-104000000D03*
%TD*%
D21*
%TO.C,R2*%
X115000000Y-37402500D03*
X115000000Y-38597500D03*
%TD*%
D18*
%TO.C,D23*%
X141427500Y-59000000D03*
X142572500Y-59000000D03*
%TD*%
%TO.C,D57*%
X153427500Y-68000000D03*
X154572500Y-68000000D03*
%TD*%
%TO.C,D64*%
X144427500Y-71000000D03*
X145572500Y-71000000D03*
%TD*%
D21*
%TO.C,R1*%
X116000000Y-37402500D03*
X116000000Y-38597500D03*
%TD*%
D37*
%TO.C,U1*%
X150099518Y-99849999D03*
X150099518Y-100800000D03*
X150099518Y-101750001D03*
X152400484Y-101750001D03*
X152400484Y-99849999D03*
%TD*%
D18*
%TO.C,D26*%
X150427500Y-59000000D03*
X151572500Y-59000000D03*
%TD*%
D20*
%TO.C,R21*%
X108402500Y-85010000D03*
X109597500Y-85010000D03*
%TD*%
D18*
%TO.C,D42*%
X138427500Y-65000000D03*
X139572500Y-65000000D03*
%TD*%
%TO.C,D46*%
X150427500Y-65000000D03*
X151572500Y-65000000D03*
%TD*%
D20*
%TO.C,R82*%
X138402500Y-49000000D03*
X139597500Y-49000000D03*
%TD*%
D18*
%TO.C,D50*%
X132427500Y-68000000D03*
X133572500Y-68000000D03*
%TD*%
D23*
%TO.C,C50*%
X119137500Y-121000000D03*
X120862500Y-121000000D03*
%TD*%
D20*
%TO.C,R45*%
X148102500Y-43600000D03*
X149297500Y-43600000D03*
%TD*%
D18*
%TO.C,D52*%
X138427500Y-68000000D03*
X139572500Y-68000000D03*
%TD*%
D20*
%TO.C,R84*%
X144302500Y-49000000D03*
X145497500Y-49000000D03*
%TD*%
D38*
%TO.C,Y2*%
X111000000Y-62637500D03*
X111000000Y-60137500D03*
%TD*%
D18*
%TO.C,D00*%
X132427500Y-53000000D03*
X133572500Y-53000000D03*
%TD*%
D15*
%TO.C,Q3*%
X140450000Y-45562500D03*
X138550000Y-45562500D03*
X139500000Y-47437500D03*
%TD*%
D39*
%TO.C,U2*%
X104550000Y-75400000D03*
X104550000Y-77700000D03*
D40*
X110850000Y-77700000D03*
D39*
X104550000Y-80000000D03*
%TD*%
D11*
%TO.C,SW8*%
X131402600Y-98749999D03*
X140597400Y-98749999D03*
X131402600Y-103250001D03*
X140597400Y-103250001D03*
%TD*%
D18*
%TO.C,D63*%
X141427500Y-71000000D03*
X142572500Y-71000000D03*
%TD*%
D11*
%TO.C,SW5*%
X131402600Y-110749999D03*
X140597400Y-110749999D03*
X131402600Y-115250001D03*
X140597400Y-115250001D03*
%TD*%
D18*
%TO.C,D47*%
X153427500Y-65000000D03*
X154572500Y-65000000D03*
%TD*%
%TO.C,D15*%
X147427500Y-56000000D03*
X148572500Y-56000000D03*
%TD*%
%TO.C,D41*%
X135427500Y-65000000D03*
X136572500Y-65000000D03*
%TD*%
D15*
%TO.C,Q7*%
X154450000Y-45562500D03*
X152550000Y-45562500D03*
X153500000Y-47437500D03*
%TD*%
D21*
%TO.C,R44*%
X150600000Y-42402500D03*
X150600000Y-43597500D03*
%TD*%
D11*
%TO.C,SW4*%
X119207800Y-110749999D03*
X128402600Y-110749999D03*
X119207800Y-115250001D03*
X128402600Y-115250001D03*
%TD*%
D18*
%TO.C,D25*%
X147427500Y-59000000D03*
X148572500Y-59000000D03*
%TD*%
D20*
%TO.C,R83*%
X141402500Y-49000000D03*
X142597500Y-49000000D03*
%TD*%
%TO.C,R46*%
X145602500Y-43600000D03*
X146797500Y-43600000D03*
%TD*%
%TO.C,R43*%
X153502500Y-40200000D03*
X154697500Y-40200000D03*
%TD*%
%TO.C,R86*%
X150902500Y-49000000D03*
X152097500Y-49000000D03*
%TD*%
D41*
%TO.C,Y1*%
X111850000Y-57912500D03*
X113950000Y-57912500D03*
X113950000Y-56262500D03*
X111850000Y-56262500D03*
%TD*%
D42*
%TO.C,J3*%
X119220000Y-74960000D03*
D43*
X124300000Y-72800000D03*
D44*
X121760000Y-72800000D03*
X119220000Y-72800000D03*
X116680000Y-72800000D03*
%TD*%
D15*
%TO.C,Q4*%
X143950000Y-45562500D03*
X142050000Y-45562500D03*
X143000000Y-47437500D03*
%TD*%
D18*
%TO.C,D40*%
X132427500Y-65000000D03*
X133572500Y-65000000D03*
%TD*%
%TO.C,D11*%
X135427500Y-56000000D03*
X136572500Y-56000000D03*
%TD*%
D45*
%TO.C,Q8*%
X152562500Y-41550000D03*
X152562500Y-43450000D03*
X154437500Y-42500000D03*
%TD*%
D18*
%TO.C,D72*%
X138427500Y-74000000D03*
X139572500Y-74000000D03*
%TD*%
D36*
%TO.C,R30*%
X117197500Y-55887500D03*
X116002500Y-55887500D03*
%TD*%
D20*
%TO.C,R49*%
X138102500Y-43600000D03*
X139297500Y-43600000D03*
%TD*%
%TO.C,R81*%
X135402500Y-49000000D03*
X136597500Y-49000000D03*
%TD*%
D18*
%TO.C,D54*%
X144427500Y-68000000D03*
X145572500Y-68000000D03*
%TD*%
%TO.C,D03*%
X141427500Y-53000000D03*
X142572500Y-53000000D03*
%TD*%
D15*
%TO.C,Q6*%
X150950000Y-45562500D03*
X149050000Y-45562500D03*
X150000000Y-47437500D03*
%TD*%
D46*
%TO.C,C01*%
X111500000Y-102362500D03*
X111500000Y-100637500D03*
%TD*%
D18*
%TO.C,D10*%
X132427500Y-56000000D03*
X133572500Y-56000000D03*
%TD*%
%TO.C,D45*%
X147427500Y-65000000D03*
X148572500Y-65000000D03*
%TD*%
D20*
%TO.C,R22*%
X108402500Y-87520000D03*
X109597500Y-87520000D03*
%TD*%
D18*
%TO.C,D61*%
X135427500Y-71000000D03*
X136572500Y-71000000D03*
%TD*%
D11*
%TO.C,SW7*%
X119402600Y-98749999D03*
X128597400Y-98749999D03*
X119402600Y-103250001D03*
X128597400Y-103250001D03*
%TD*%
D23*
%TO.C,C20*%
X104187500Y-82500000D03*
X105912500Y-82500000D03*
%TD*%
D18*
%TO.C,D31*%
X135427500Y-62000000D03*
X136572500Y-62000000D03*
%TD*%
%TO.C,D73*%
X141427500Y-74000000D03*
X142572500Y-74000000D03*
%TD*%
D20*
%TO.C,R80*%
X132402500Y-49000000D03*
X133597500Y-49000000D03*
%TD*%
M02*
