%TF.GenerationSoftware,KiCad,Pcbnew,8.0.1*%
%TF.CreationDate,2024-06-17T11:25:03+08:00*%
%TF.ProjectId,pcb_badge,7063625f-6261-4646-9765-2e6b69636164,rev?*%
%TF.SameCoordinates,Original*%
%TF.FileFunction,Legend,Top*%
%TF.FilePolarity,Positive*%
%FSLAX46Y46*%
G04 Gerber Fmt 4.6, Leading zero omitted, Abs format (unit mm)*
G04 Created by KiCad (PCBNEW 8.0.1) date 2024-06-17 11:25:03*
%MOMM*%
%LPD*%
G01*
G04 APERTURE LIST*
%ADD10C,0.000000*%
%ADD11C,0.150000*%
%ADD12C,0.200000*%
%ADD13C,0.120000*%
%ADD14C,0.100000*%
%ADD15C,0.152400*%
G04 APERTURE END LIST*
D10*
G36*
X102816012Y-63236265D02*
G01*
X102140929Y-63236265D01*
X102140929Y-62421878D01*
X102319521Y-62421878D01*
X102319521Y-63068387D01*
X102630274Y-63068387D01*
X102630274Y-62421878D01*
X102319521Y-62421878D01*
X102140929Y-62421878D01*
X102140929Y-62250428D01*
X102816012Y-62250428D01*
X102816012Y-63236265D01*
G37*
D11*
X97250000Y-125500000D02*
X99750000Y-125500000D01*
X99750000Y-128500000D01*
X97250000Y-128500000D01*
X97250000Y-125500000D01*
G36*
X97250000Y-125500000D02*
G01*
X99750000Y-125500000D01*
X99750000Y-128500000D01*
X97250000Y-128500000D01*
X97250000Y-125500000D01*
G37*
D10*
G36*
X145695267Y-50500000D02*
G01*
X144873735Y-50500000D01*
X144873735Y-50046372D01*
X144904692Y-49999938D01*
X145091620Y-49999938D01*
X145091620Y-50296403D01*
X145466667Y-50296403D01*
X145466667Y-49999938D01*
X145091620Y-49999938D01*
X144904692Y-49999938D01*
X144973748Y-49896353D01*
X144873735Y-49746335D01*
X144873735Y-49510591D01*
X145091620Y-49510591D01*
X145091620Y-49807056D01*
X145466667Y-49807056D01*
X145466667Y-49510591D01*
X145091620Y-49510591D01*
X144873735Y-49510591D01*
X144873735Y-49306994D01*
X145695267Y-49306994D01*
X145695267Y-50500000D01*
G37*
G36*
X82949432Y-93715073D02*
G01*
X81960022Y-93715073D01*
X81960022Y-93243585D01*
X82949432Y-93243585D01*
X82949432Y-93715073D01*
G37*
G36*
X98008268Y-63068387D02*
G01*
X98261871Y-63068387D01*
X98261871Y-63236265D01*
X97586787Y-63236265D01*
X97586787Y-63068387D01*
X97818958Y-63068387D01*
X97818958Y-62254000D01*
X98008268Y-62254000D01*
X98008268Y-63068387D01*
G37*
G36*
X89000000Y-125500000D02*
G01*
X90525400Y-125500000D01*
X90525400Y-128500000D01*
X89000000Y-128500000D01*
X89000000Y-125500000D01*
G37*
G36*
X155000000Y-49510591D02*
G01*
X154396354Y-49510591D01*
X154396354Y-49807056D01*
X155000000Y-49807056D01*
X155000000Y-50500000D01*
X154178470Y-50500000D01*
X154178470Y-50296403D01*
X154767829Y-50296403D01*
X154767829Y-49999938D01*
X154178470Y-49999938D01*
X154178470Y-49306994D01*
X155000000Y-49306994D01*
X155000000Y-49510591D01*
G37*
G36*
X144416535Y-49903497D02*
G01*
X144705857Y-50500000D01*
X144477257Y-50500000D01*
X144291520Y-50121381D01*
X144102210Y-50500000D01*
X143887898Y-50500000D01*
X144187935Y-49903497D01*
X144187935Y-49306994D01*
X144416535Y-49306994D01*
X144416535Y-49903497D01*
G37*
G36*
X80277669Y-94379440D02*
G01*
X79906194Y-94379440D01*
X79906194Y-93907954D01*
X80277669Y-93907954D01*
X80277669Y-94379440D01*
G37*
G36*
X105900000Y-139370000D02*
G01*
X106000000Y-139370000D01*
X106000000Y-147000000D01*
X105900000Y-147000000D01*
X105900000Y-139370000D01*
G37*
G36*
X90237300Y-124000000D02*
G01*
X97762700Y-124000000D01*
X97762700Y-130040000D01*
X90237300Y-130040000D01*
X90237300Y-124000000D01*
G37*
G36*
X102500000Y-135500000D02*
G01*
X106000000Y-135500000D01*
X106000000Y-142130000D01*
X102500000Y-142130000D01*
X102500000Y-135500000D01*
G37*
G36*
X87500000Y-116000000D02*
G01*
X75380629Y-116000000D01*
X75380629Y-112660294D01*
X79649019Y-112660294D01*
X81152778Y-112660294D01*
X81152778Y-112370974D01*
X80524129Y-112370974D01*
X81152778Y-112153089D01*
X81152778Y-111985209D01*
X80524129Y-111774470D01*
X81152778Y-111774470D01*
X81152778Y-111503007D01*
X79649020Y-111503007D01*
X79649020Y-111774470D01*
X80474123Y-112078079D01*
X79649019Y-112370974D01*
X79649019Y-112660294D01*
X75380629Y-112660294D01*
X75380629Y-110917222D01*
X79649019Y-110917222D01*
X79649019Y-111206543D01*
X81152778Y-111206543D01*
X81152778Y-110917222D01*
X79649019Y-110917222D01*
X75380629Y-110917222D01*
X75380629Y-109592055D01*
X79649019Y-109592055D01*
X79649019Y-109863519D01*
X80491982Y-109863519D01*
X79649019Y-110335005D01*
X79649019Y-110624328D01*
X81152778Y-110624328D01*
X81152778Y-110335005D01*
X80284813Y-110335005D01*
X81152778Y-109863519D01*
X81152778Y-109592055D01*
X79649019Y-109592055D01*
X75380629Y-109592055D01*
X75380629Y-109295591D01*
X79649019Y-109295591D01*
X81152778Y-109295591D01*
X81152778Y-108374048D01*
X81020619Y-108266890D01*
X79781179Y-108266890D01*
X79649019Y-108374048D01*
X79649019Y-109295591D01*
X75380629Y-109295591D01*
X75380629Y-107727539D01*
X81702848Y-107727539D01*
X81702848Y-108759810D01*
X83206607Y-108759810D01*
X83206607Y-108470489D01*
X82577956Y-108470489D01*
X82577956Y-107727539D01*
X82331497Y-107727539D01*
X82331497Y-108470489D01*
X81960022Y-108470489D01*
X81960022Y-107727539D01*
X81702848Y-107727539D01*
X75380629Y-107727539D01*
X75380629Y-107352487D01*
X79649019Y-107352487D01*
X81152778Y-107352487D01*
X81152778Y-107063166D01*
X80524129Y-107063166D01*
X81152778Y-106845282D01*
X81152778Y-106677404D01*
X80524129Y-106466665D01*
X81152778Y-106466665D01*
X81152778Y-106398798D01*
X81702848Y-106398798D01*
X81702848Y-107431071D01*
X83206607Y-107431071D01*
X83206607Y-107141748D01*
X82577956Y-107141748D01*
X82577956Y-107041738D01*
X83206607Y-106670262D01*
X83206607Y-106398798D01*
X82577957Y-106752412D01*
X82577957Y-106398798D01*
X81702848Y-106398798D01*
X81152778Y-106398798D01*
X81152778Y-106195202D01*
X79649020Y-106195202D01*
X79649020Y-106466665D01*
X80474123Y-106770274D01*
X79649019Y-107063166D01*
X79649019Y-107352487D01*
X75380629Y-107352487D01*
X75380629Y-104866465D01*
X79649019Y-104866465D01*
X79649019Y-105898738D01*
X81152778Y-105898738D01*
X81152778Y-105073636D01*
X81702848Y-105073636D01*
X81702848Y-106105908D01*
X83206607Y-106105908D01*
X83206607Y-105073636D01*
X81702848Y-105073636D01*
X81152778Y-105073636D01*
X81152778Y-104866465D01*
X80895604Y-104866465D01*
X80895604Y-105609417D01*
X80524129Y-105609417D01*
X80524129Y-104866465D01*
X80277669Y-104866465D01*
X80277669Y-105609417D01*
X79906194Y-105609417D01*
X79906194Y-104866465D01*
X79649019Y-104866465D01*
X75380629Y-104866465D01*
X75380629Y-104573573D01*
X79649019Y-104573573D01*
X81152778Y-104573573D01*
X81152778Y-103619883D01*
X81702848Y-103619883D01*
X81702848Y-103891344D01*
X82527951Y-104194953D01*
X81702848Y-104487848D01*
X81702848Y-104777170D01*
X83206607Y-104777170D01*
X83206607Y-104487848D01*
X82577956Y-104487848D01*
X83206607Y-104269963D01*
X83206607Y-104102083D01*
X82577956Y-103891343D01*
X83206607Y-103891343D01*
X83206607Y-103619883D01*
X81702848Y-103619883D01*
X81152778Y-103619883D01*
X81152778Y-103541302D01*
X80895604Y-103541302D01*
X80895604Y-104284250D01*
X79649019Y-104284250D01*
X79649019Y-104573573D01*
X75380629Y-104573573D01*
X75380629Y-103244834D01*
X79649019Y-103244834D01*
X81152778Y-103244834D01*
X81152778Y-102323291D01*
X81020619Y-102216134D01*
X79781179Y-102216134D01*
X79649019Y-102323291D01*
X79649019Y-103244834D01*
X75380629Y-103244834D01*
X75380629Y-101676782D01*
X81702848Y-101676782D01*
X81702848Y-101948243D01*
X82331498Y-101948243D01*
X82331498Y-102419731D01*
X81702848Y-102419731D01*
X81702848Y-102709054D01*
X83206607Y-102709054D01*
X83206607Y-102419731D01*
X82577956Y-102419731D01*
X82577956Y-101948243D01*
X83206607Y-101948243D01*
X83206607Y-101676782D01*
X81702848Y-101676782D01*
X75380629Y-101676782D01*
X75380629Y-100269463D01*
X79649019Y-100269463D01*
X79649019Y-100540926D01*
X80277669Y-100540926D01*
X80277669Y-101012413D01*
X79649019Y-101012413D01*
X79649019Y-101301735D01*
X81152778Y-101301735D01*
X81152778Y-101012413D01*
X80524129Y-101012413D01*
X80524129Y-100540926D01*
X81152778Y-100540926D01*
X81152778Y-100348043D01*
X81702848Y-100348043D01*
X81702848Y-100619506D01*
X82949432Y-100619506D01*
X82949432Y-101090993D01*
X81702848Y-101090993D01*
X81702848Y-101380316D01*
X83206607Y-101380316D01*
X83206607Y-100348043D01*
X81702848Y-100348043D01*
X81152778Y-100348043D01*
X81152778Y-100269463D01*
X79649019Y-100269463D01*
X75380629Y-100269463D01*
X75380629Y-98944298D01*
X79649019Y-98944298D01*
X79649019Y-99976570D01*
X81152778Y-99976570D01*
X81152778Y-99687248D01*
X80524129Y-99687248D01*
X80524129Y-99215761D01*
X81152778Y-99215761D01*
X81152778Y-98944298D01*
X79649019Y-98944298D01*
X75380629Y-98944298D01*
X75380629Y-98897865D01*
X81702848Y-98897865D01*
X81702848Y-99169327D01*
X82527951Y-99472936D01*
X81702848Y-99765829D01*
X81702848Y-100055151D01*
X83206607Y-100055151D01*
X83206607Y-99765829D01*
X82577956Y-99765829D01*
X83206607Y-99547945D01*
X83206607Y-99380066D01*
X82577956Y-99169326D01*
X83206607Y-99169326D01*
X83206607Y-98897865D01*
X81702848Y-98897865D01*
X75380629Y-98897865D01*
X75380629Y-98647832D01*
X79649019Y-98647832D01*
X81152778Y-98647832D01*
X81152778Y-97615560D01*
X80895604Y-97615560D01*
X80895604Y-98358510D01*
X79906194Y-98358510D01*
X79906194Y-97615561D01*
X79649019Y-97615561D01*
X79649019Y-98647832D01*
X75380629Y-98647832D01*
X75380629Y-97569126D01*
X81702848Y-97569126D01*
X81702848Y-98601398D01*
X83206607Y-98601398D01*
X83206607Y-98312076D01*
X82577956Y-98312076D01*
X82577956Y-97840588D01*
X83206607Y-97840588D01*
X83206607Y-97569126D01*
X81702848Y-97569126D01*
X75380629Y-97569126D01*
X75380629Y-97322667D01*
X79649019Y-97322667D01*
X81152778Y-97322667D01*
X81152778Y-97033344D01*
X80524129Y-97033344D01*
X81152778Y-96561857D01*
X81152778Y-96290396D01*
X80381254Y-96794030D01*
X79649019Y-96290396D01*
X79649019Y-96561857D01*
X80277669Y-97033344D01*
X79649019Y-97033344D01*
X79649019Y-97322667D01*
X75380629Y-97322667D01*
X75380629Y-96243961D01*
X81702848Y-96243961D01*
X81702848Y-96515422D01*
X82545811Y-96515422D01*
X81702848Y-96986909D01*
X81702848Y-97276233D01*
X83206607Y-97276233D01*
X83206607Y-96986909D01*
X82338641Y-96986909D01*
X83206607Y-96515422D01*
X83206607Y-96243961D01*
X81702848Y-96243961D01*
X75380629Y-96243961D01*
X75380629Y-95993929D01*
X79649019Y-95993929D01*
X81152778Y-95993929D01*
X81152778Y-94961656D01*
X80895604Y-94961656D01*
X80895604Y-95704607D01*
X80524129Y-95704607D01*
X80524129Y-94961656D01*
X80277669Y-94961656D01*
X80277669Y-95704607D01*
X79906194Y-95704607D01*
X79906194Y-94961657D01*
X79649019Y-94961657D01*
X79649019Y-95993929D01*
X75380629Y-95993929D01*
X75380629Y-93636491D01*
X79649019Y-93636491D01*
X79649019Y-94668762D01*
X81152778Y-94668762D01*
X81152778Y-94379440D01*
X80524129Y-94379440D01*
X80524129Y-94297289D01*
X81702848Y-94297289D01*
X81702848Y-95329560D01*
X81960022Y-95329560D01*
X81960022Y-94940226D01*
X83206607Y-94940226D01*
X83206607Y-94650905D01*
X81960022Y-94650905D01*
X81960022Y-94297289D01*
X81702848Y-94297289D01*
X80524129Y-94297289D01*
X80524129Y-94279428D01*
X81152778Y-93907954D01*
X81152778Y-93636491D01*
X80524129Y-93990107D01*
X80524129Y-93636491D01*
X79649019Y-93636491D01*
X75380629Y-93636491D01*
X75380629Y-92972123D01*
X81702848Y-92972123D01*
X81702848Y-94004394D01*
X83206607Y-94004394D01*
X83206607Y-92972123D01*
X81702848Y-92972123D01*
X75380629Y-92972123D01*
X75380629Y-91693391D01*
X79649019Y-91693391D01*
X79649019Y-92725663D01*
X80524129Y-92725663D01*
X80524129Y-91964854D01*
X80895604Y-91964854D01*
X80895604Y-92725663D01*
X81152778Y-92725663D01*
X81152778Y-91693391D01*
X80277669Y-91693391D01*
X80277669Y-92436342D01*
X79906194Y-92436342D01*
X79906194Y-91693391D01*
X79649019Y-91693391D01*
X75380629Y-91693391D01*
X75380629Y-90364654D01*
X79649019Y-90364654D01*
X79649019Y-91396926D01*
X81152778Y-91396926D01*
X81152778Y-91107605D01*
X80524129Y-91107605D01*
X80524129Y-91029023D01*
X81702848Y-91029023D01*
X81702848Y-92061294D01*
X83206607Y-92061294D01*
X83206607Y-91771973D01*
X82577956Y-91771973D01*
X82577956Y-91300486D01*
X83206607Y-91300486D01*
X83206607Y-91029023D01*
X81702848Y-91029023D01*
X80524129Y-91029023D01*
X80524129Y-90443235D01*
X81702848Y-90443235D01*
X81702848Y-90732557D01*
X83206607Y-90732557D01*
X83206607Y-90443235D01*
X81702848Y-90443235D01*
X80524129Y-90443235D01*
X80524129Y-90364654D01*
X79649019Y-90364654D01*
X75380629Y-90364654D01*
X75380629Y-89782438D01*
X79649019Y-89782438D01*
X79649019Y-90071760D01*
X81152778Y-90071760D01*
X81152778Y-89782438D01*
X79649019Y-89782438D01*
X75380629Y-89782438D01*
X75380629Y-88453701D01*
X79649019Y-88453701D01*
X79649019Y-89485973D01*
X81152778Y-89485973D01*
X81152778Y-89196651D01*
X80524129Y-89196651D01*
X80524129Y-89096639D01*
X81152778Y-88725163D01*
X81152778Y-88453701D01*
X80524129Y-88807317D01*
X80524129Y-88453701D01*
X79649019Y-88453701D01*
X75380629Y-88453701D01*
X75380629Y-87871485D01*
X79649019Y-87871485D01*
X79649019Y-88160807D01*
X81152778Y-88160807D01*
X81152778Y-87871485D01*
X79649019Y-87871485D01*
X75380629Y-87871485D01*
X75380629Y-86542748D01*
X79649019Y-86542748D01*
X79649019Y-87575020D01*
X79906194Y-87575020D01*
X79906194Y-87185685D01*
X81152778Y-87185685D01*
X81152778Y-86896363D01*
X79906194Y-86896363D01*
X79906194Y-86542748D01*
X79649019Y-86542748D01*
X75380629Y-86542748D01*
X75380629Y-83203045D01*
X87500000Y-83203045D01*
X87500000Y-116000000D01*
G37*
D11*
X139500000Y-139000000D02*
X137000000Y-140500000D01*
X137000000Y-137500000D01*
X139500000Y-139000000D01*
G36*
X139500000Y-139000000D02*
G01*
X137000000Y-140500000D01*
X137000000Y-137500000D01*
X139500000Y-139000000D01*
G37*
D10*
G36*
X98429750Y-95243835D02*
G01*
X105966406Y-95243835D01*
X105966406Y-96897614D01*
X89000000Y-96897614D01*
X89000000Y-95243835D01*
X96536656Y-95243835D01*
X96536656Y-88510852D01*
X98429750Y-88510852D01*
X98429750Y-95243835D01*
G37*
G36*
X89000000Y-135050000D02*
G01*
X106000000Y-135050000D01*
X106000000Y-136250000D01*
X89000000Y-136250000D01*
X89000000Y-135050000D01*
G37*
G36*
X82949432Y-105816585D02*
G01*
X81960022Y-105816585D01*
X81960022Y-105345097D01*
X82949432Y-105345097D01*
X82949432Y-105816585D01*
G37*
G36*
X142194828Y-43207107D02*
G01*
X139215884Y-43207107D01*
X139215884Y-42514163D01*
X142194828Y-42514163D01*
X142194828Y-43207107D01*
G37*
G36*
X73880629Y-83203045D02*
G01*
X76406029Y-83203045D01*
X76406029Y-116000000D01*
X73880629Y-116000000D01*
X73880629Y-83203045D01*
G37*
G36*
X103630399Y-63239837D02*
G01*
X102955315Y-63239837D01*
X102955315Y-63071959D01*
X103441090Y-63071959D01*
X103441090Y-62421878D01*
X102955315Y-62421878D01*
X102955315Y-62254000D01*
X103630399Y-62254000D01*
X103630399Y-63239837D01*
G37*
G36*
X90868537Y-68610597D02*
G01*
X91189727Y-68872404D01*
X91308987Y-68965657D01*
X91349951Y-68995710D01*
X91375297Y-69011986D01*
X91382381Y-69015759D01*
X91388900Y-69019693D01*
X91394852Y-69023758D01*
X91400237Y-69027927D01*
X91405055Y-69032173D01*
X91409304Y-69036466D01*
X91412984Y-69040778D01*
X91416094Y-69045082D01*
X91418634Y-69049350D01*
X91420604Y-69053552D01*
X91422001Y-69057662D01*
X91422827Y-69061651D01*
X91423079Y-69065491D01*
X91422758Y-69069153D01*
X91421862Y-69072610D01*
X91420392Y-69075834D01*
X91418346Y-69078796D01*
X91415724Y-69081468D01*
X91412525Y-69083822D01*
X91408748Y-69085831D01*
X91404394Y-69087465D01*
X91399460Y-69088697D01*
X91393947Y-69089499D01*
X91387854Y-69089842D01*
X91381180Y-69089699D01*
X91373925Y-69089041D01*
X91366088Y-69087840D01*
X91357668Y-69086068D01*
X91348664Y-69083697D01*
X91339077Y-69080699D01*
X91328905Y-69077045D01*
X91318147Y-69072708D01*
X91321719Y-69072708D01*
X91278492Y-69050491D01*
X91232073Y-69021718D01*
X91182787Y-68986949D01*
X91130958Y-68946744D01*
X91076911Y-68901662D01*
X91020970Y-68852264D01*
X90963459Y-68799108D01*
X90904702Y-68742756D01*
X90784752Y-68622701D01*
X90663712Y-68496576D01*
X90428750Y-68244034D01*
X90868537Y-68610597D01*
G37*
G36*
X80895604Y-109006268D02*
G01*
X79906194Y-109006268D01*
X79906194Y-108534780D01*
X80895604Y-108534780D01*
X80895604Y-109006268D01*
G37*
D11*
X127000000Y-140500000D02*
X124500000Y-139000000D01*
X127000000Y-137500000D01*
X127000000Y-140500000D01*
G36*
X127000000Y-140500000D02*
G01*
X124500000Y-139000000D01*
X127000000Y-137500000D01*
X127000000Y-140500000D01*
G37*
X77000000Y-67500000D02*
X74500000Y-66000000D01*
X77000000Y-64500000D01*
X77000000Y-67500000D01*
G36*
X77000000Y-67500000D02*
G01*
X74500000Y-66000000D01*
X77000000Y-64500000D01*
X77000000Y-67500000D01*
G37*
D10*
G36*
X82331497Y-91771973D02*
G01*
X81960022Y-91771973D01*
X81960022Y-91300486D01*
X82331497Y-91300486D01*
X82331497Y-91771973D01*
G37*
D11*
X97500000Y-130000000D02*
X100000000Y-130000000D01*
X100000000Y-130525400D01*
X97500000Y-130525400D01*
X97500000Y-130000000D01*
G36*
X97500000Y-130000000D02*
G01*
X100000000Y-130000000D01*
X100000000Y-130525400D01*
X97500000Y-130525400D01*
X97500000Y-130000000D01*
G37*
D10*
G36*
X97208169Y-62743347D02*
G01*
X97447484Y-63236265D01*
X97258174Y-63236265D01*
X97104583Y-62921940D01*
X96947421Y-63236265D01*
X96768827Y-63236265D01*
X97018858Y-62743347D01*
X97018858Y-62250428D01*
X97208169Y-62250428D01*
X97208169Y-62743347D01*
G37*
G36*
X89000000Y-30000000D02*
G01*
X106000000Y-30000000D01*
X106000000Y-59500000D01*
X89000000Y-59500000D01*
X89000000Y-30000000D01*
G37*
G36*
X89620871Y-68455228D02*
G01*
X89654903Y-68457422D01*
X89690602Y-68461108D01*
X89727969Y-68466415D01*
X89767004Y-68473471D01*
X89807709Y-68482405D01*
X89850083Y-68493347D01*
X89894127Y-68506425D01*
X89939843Y-68521768D01*
X89987230Y-68539504D01*
X90036289Y-68559764D01*
X90087022Y-68582674D01*
X90139428Y-68608365D01*
X90238796Y-68660817D01*
X90324587Y-68709696D01*
X90397788Y-68755027D01*
X90459390Y-68796837D01*
X90510381Y-68835152D01*
X90551750Y-68869998D01*
X90584485Y-68901401D01*
X90609576Y-68929387D01*
X90628012Y-68953983D01*
X90640781Y-68975215D01*
X90648873Y-68993108D01*
X90653276Y-69007689D01*
X90654979Y-69018985D01*
X90654971Y-69027021D01*
X90653778Y-69033418D01*
X90649355Y-69050147D01*
X90643371Y-69069725D01*
X90634468Y-69095591D01*
X90622341Y-69126857D01*
X90606688Y-69162634D01*
X90587205Y-69202031D01*
X90563588Y-69244159D01*
X90550135Y-69265969D01*
X90535535Y-69288129D01*
X90519749Y-69310527D01*
X90502741Y-69333051D01*
X90484471Y-69355591D01*
X90464903Y-69378036D01*
X90443998Y-69400274D01*
X90421718Y-69422194D01*
X90398025Y-69443686D01*
X90372882Y-69464637D01*
X90346250Y-69484936D01*
X90318092Y-69504473D01*
X90288369Y-69523136D01*
X90257044Y-69540814D01*
X90224078Y-69557397D01*
X90189435Y-69572771D01*
X90193006Y-69572771D01*
X90180574Y-69577278D01*
X90168055Y-69580784D01*
X90155448Y-69583334D01*
X90142749Y-69584973D01*
X90129956Y-69585746D01*
X90117066Y-69585698D01*
X90104076Y-69584874D01*
X90090985Y-69583320D01*
X90077789Y-69581080D01*
X90064485Y-69578200D01*
X90037546Y-69570699D01*
X90010147Y-69561179D01*
X89982266Y-69550001D01*
X89953883Y-69537524D01*
X89924976Y-69524111D01*
X89865510Y-69495920D01*
X89834908Y-69481864D01*
X89803700Y-69468315D01*
X89771863Y-69455634D01*
X89739378Y-69444184D01*
X89572840Y-69394791D01*
X89532461Y-69382247D01*
X89493254Y-69368902D01*
X89455554Y-69354396D01*
X89419695Y-69338367D01*
X89386014Y-69320454D01*
X89354844Y-69300297D01*
X89340305Y-69289264D01*
X89326520Y-69277534D01*
X89313530Y-69265063D01*
X89301377Y-69251805D01*
X89290103Y-69237715D01*
X89279750Y-69222748D01*
X89270360Y-69206858D01*
X89261975Y-69190002D01*
X89254636Y-69172133D01*
X89248385Y-69153206D01*
X89243264Y-69133177D01*
X89239316Y-69111999D01*
X89230459Y-69043615D01*
X89225056Y-68979149D01*
X89222709Y-68918671D01*
X89223019Y-68862247D01*
X89225590Y-68809947D01*
X89230023Y-68761837D01*
X89235922Y-68717987D01*
X89242888Y-68678463D01*
X89250523Y-68643335D01*
X89258431Y-68612670D01*
X89273472Y-68565000D01*
X89289322Y-68526212D01*
X89302556Y-68517875D01*
X89319106Y-68509001D01*
X89342286Y-68498363D01*
X89372100Y-68486992D01*
X89389497Y-68481354D01*
X89408554Y-68475920D01*
X89429273Y-68470818D01*
X89451653Y-68466176D01*
X89475696Y-68462125D01*
X89501402Y-68458793D01*
X89528772Y-68456308D01*
X89557806Y-68454800D01*
X89588506Y-68454397D01*
X89620871Y-68455228D01*
G37*
G36*
X89000000Y-129974600D02*
G01*
X99500000Y-129974600D01*
X99500000Y-130200000D01*
X89000000Y-130200000D01*
X89000000Y-129974600D01*
G37*
G36*
X104100000Y-130000000D02*
G01*
X106000000Y-130000000D01*
X106000000Y-136000000D01*
X104100000Y-136000000D01*
X104100000Y-130000000D01*
G37*
G36*
X80895604Y-102955512D02*
G01*
X79906194Y-102955512D01*
X79906194Y-102484025D01*
X80895604Y-102484025D01*
X80895604Y-102955512D01*
G37*
G36*
X82331497Y-98312076D02*
G01*
X81960022Y-98312076D01*
X81960022Y-97840588D01*
X82331497Y-97840588D01*
X82331497Y-98312076D01*
G37*
G36*
X99211990Y-62818356D02*
G01*
X99211990Y-62250428D01*
X99401301Y-62250428D01*
X99401301Y-63236265D01*
X99211990Y-63236265D01*
X98901237Y-62682625D01*
X98901237Y-63236265D01*
X98722643Y-63236265D01*
X98722643Y-62250428D01*
X98901237Y-62250428D01*
X99211990Y-62818356D01*
G37*
G36*
X89000000Y-141700000D02*
G01*
X101600000Y-141700000D01*
X101600000Y-147000000D01*
X89000000Y-147000000D01*
X89000000Y-141700000D01*
G37*
D11*
X133500000Y-134000000D02*
X130500000Y-134000000D01*
X132000000Y-131500000D01*
X133500000Y-134000000D01*
G36*
X133500000Y-134000000D02*
G01*
X130500000Y-134000000D01*
X132000000Y-131500000D01*
X133500000Y-134000000D01*
G37*
D10*
G36*
X82331497Y-107141748D02*
G01*
X81960022Y-107141748D01*
X81960022Y-106670262D01*
X82331497Y-106670262D01*
X82331497Y-107141748D01*
G37*
G36*
X149795777Y-47754103D02*
G01*
X148992106Y-47754103D01*
X148992106Y-43500000D01*
X149795777Y-43500000D01*
X149795777Y-47754103D01*
G37*
G36*
X153024754Y-50500000D02*
G01*
X152203223Y-50500000D01*
X152203223Y-49999938D01*
X152421107Y-49999938D01*
X152421107Y-50296403D01*
X152796154Y-50296403D01*
X152796154Y-49999938D01*
X152421107Y-49999938D01*
X152203223Y-49999938D01*
X152203223Y-49807056D01*
X152792582Y-49807056D01*
X152792582Y-49306994D01*
X153024754Y-49306994D01*
X153024754Y-50500000D01*
G37*
G36*
X152035344Y-50500000D02*
G01*
X151213813Y-50500000D01*
X151213813Y-49999938D01*
X151431698Y-49999938D01*
X151431698Y-50296403D01*
X151806745Y-50296403D01*
X151806745Y-49999938D01*
X151431698Y-49999938D01*
X151213813Y-49999938D01*
X151213813Y-49807056D01*
X151803173Y-49807056D01*
X151803173Y-49306994D01*
X152035344Y-49306994D01*
X152035344Y-50500000D01*
G37*
G36*
X98586912Y-63236265D02*
G01*
X98397603Y-63236265D01*
X98397603Y-62250428D01*
X98586912Y-62250428D01*
X98586912Y-63236265D01*
G37*
G36*
X89086575Y-67522159D02*
G01*
X89131568Y-67525964D01*
X89177443Y-67531835D01*
X89224121Y-67539779D01*
X89271523Y-67549799D01*
X89319570Y-67561902D01*
X89368182Y-67576093D01*
X89417282Y-67592377D01*
X89466788Y-67610758D01*
X89516623Y-67631243D01*
X89566707Y-67653837D01*
X89616962Y-67678545D01*
X89667307Y-67705371D01*
X89717664Y-67734322D01*
X89767953Y-67765402D01*
X89927974Y-67871895D01*
X90070321Y-67975578D01*
X90196741Y-68076236D01*
X90308981Y-68173656D01*
X90408789Y-68267623D01*
X90497913Y-68357922D01*
X90578101Y-68444338D01*
X90651099Y-68526658D01*
X90782519Y-68678149D01*
X90844436Y-68746891D01*
X90906154Y-68810678D01*
X90969420Y-68869295D01*
X91035983Y-68922529D01*
X91107589Y-68970164D01*
X91145830Y-68991815D01*
X91185988Y-69011986D01*
X91206644Y-69021600D01*
X91203903Y-69020581D01*
X91181153Y-69012363D01*
X91163335Y-69006627D01*
X91141786Y-69000378D01*
X91116930Y-68994045D01*
X91089191Y-68988058D01*
X91058993Y-68982845D01*
X91043105Y-68980663D01*
X91026760Y-68978835D01*
X91010013Y-68977416D01*
X90992915Y-68976458D01*
X90975521Y-68976016D01*
X90957883Y-68976142D01*
X90940054Y-68976892D01*
X90922086Y-68978317D01*
X90904034Y-68980473D01*
X90885950Y-68983412D01*
X90822591Y-68994741D01*
X90775557Y-69002387D01*
X90742419Y-69007019D01*
X90720751Y-69009308D01*
X90708124Y-69009921D01*
X90702110Y-69009531D01*
X90700282Y-69008805D01*
X90700213Y-69008414D01*
X90707356Y-69004844D01*
X90710245Y-69002130D01*
X90717737Y-68994518D01*
X90722661Y-68989125D01*
X90728076Y-68982805D01*
X90733763Y-68975659D01*
X90739503Y-68967785D01*
X90742324Y-68963607D01*
X90745076Y-68959284D01*
X90747730Y-68954828D01*
X90750261Y-68950254D01*
X90752639Y-68945571D01*
X90754839Y-68940795D01*
X90756832Y-68935935D01*
X90758590Y-68931006D01*
X90760087Y-68926019D01*
X90761295Y-68920987D01*
X90762187Y-68915922D01*
X90762734Y-68910837D01*
X90762910Y-68905745D01*
X90762687Y-68900656D01*
X90762038Y-68895585D01*
X90760934Y-68890543D01*
X90756291Y-68877875D01*
X90748900Y-68861529D01*
X90738527Y-68841844D01*
X90724937Y-68819162D01*
X90707893Y-68793821D01*
X90687160Y-68766163D01*
X90662503Y-68736527D01*
X90633686Y-68705253D01*
X90617645Y-68689108D01*
X90600475Y-68672681D01*
X90582147Y-68656015D01*
X90562633Y-68639152D01*
X90541901Y-68622135D01*
X90519924Y-68605005D01*
X90496672Y-68587807D01*
X90472115Y-68570582D01*
X90446223Y-68553372D01*
X90418968Y-68536221D01*
X90390320Y-68519170D01*
X90360250Y-68502262D01*
X90328727Y-68485541D01*
X90295723Y-68469047D01*
X90261208Y-68452825D01*
X90225153Y-68436915D01*
X90151468Y-68407111D01*
X90078030Y-68380644D01*
X90005250Y-68357506D01*
X89933543Y-68337684D01*
X89863322Y-68321169D01*
X89795000Y-68307951D01*
X89728991Y-68298018D01*
X89665708Y-68291361D01*
X89605565Y-68287969D01*
X89548974Y-68287831D01*
X89496349Y-68290937D01*
X89448103Y-68297277D01*
X89404650Y-68306840D01*
X89366403Y-68319615D01*
X89333776Y-68335593D01*
X89307181Y-68354762D01*
X89303673Y-68358468D01*
X89300506Y-68362855D01*
X89297664Y-68367869D01*
X89295133Y-68373459D01*
X89292898Y-68379572D01*
X89290943Y-68386156D01*
X89287815Y-68400527D01*
X89285629Y-68416154D01*
X89284264Y-68432618D01*
X89283601Y-68449501D01*
X89283518Y-68466383D01*
X89284613Y-68498474D01*
X89286587Y-68525542D01*
X89289322Y-68551215D01*
X89246460Y-68836964D01*
X89234755Y-68831881D01*
X89223647Y-68827275D01*
X89202592Y-68819050D01*
X89160735Y-68803478D01*
X89137420Y-68794374D01*
X89124616Y-68789108D01*
X89110840Y-68783219D01*
X89095933Y-68776598D01*
X89079740Y-68769134D01*
X89062102Y-68760718D01*
X89042863Y-68751240D01*
X88989405Y-68722126D01*
X88934158Y-68686095D01*
X88878094Y-68643764D01*
X88822188Y-68595752D01*
X88767412Y-68542674D01*
X88714739Y-68485149D01*
X88665142Y-68423794D01*
X88619596Y-68359227D01*
X88598645Y-68325931D01*
X88579072Y-68292064D01*
X88560998Y-68257702D01*
X88544544Y-68222923D01*
X88529833Y-68187804D01*
X88516986Y-68152422D01*
X88506125Y-68116855D01*
X88497370Y-68081178D01*
X88490845Y-68045471D01*
X88486671Y-68009809D01*
X88484968Y-67974270D01*
X88485860Y-67938931D01*
X88489467Y-67903870D01*
X88495911Y-67869163D01*
X88505314Y-67834887D01*
X88517797Y-67801121D01*
X88533376Y-67768619D01*
X88551262Y-67738090D01*
X88571375Y-67709538D01*
X88593637Y-67682970D01*
X88617968Y-67658390D01*
X88644289Y-67635803D01*
X88672522Y-67615215D01*
X88702586Y-67596631D01*
X88734403Y-67580056D01*
X88767894Y-67565496D01*
X88802979Y-67552955D01*
X88839580Y-67542439D01*
X88877617Y-67533953D01*
X88917011Y-67527503D01*
X88957683Y-67523093D01*
X88999554Y-67520729D01*
X89042544Y-67520416D01*
X89086575Y-67522159D01*
G37*
G36*
X89000000Y-130000000D02*
G01*
X90700000Y-130000000D01*
X90700000Y-136000000D01*
X89000000Y-136000000D01*
X89000000Y-130000000D01*
G37*
G36*
X90893094Y-111188683D02*
G01*
X104055452Y-111188683D01*
X104055452Y-107591802D01*
X105948545Y-107591802D01*
X105948545Y-116000000D01*
X104055452Y-116000000D01*
X104055452Y-112796026D01*
X90893094Y-112796026D01*
X90893094Y-116000000D01*
X89000000Y-116000000D01*
X89000000Y-107591802D01*
X90893094Y-107591802D01*
X90893094Y-111188683D01*
G37*
G36*
X147102585Y-50500000D02*
G01*
X146370351Y-50500000D01*
X146284626Y-50396416D01*
X146284626Y-49510591D01*
X146498938Y-49510591D01*
X146498938Y-50296403D01*
X146873985Y-50296403D01*
X146873985Y-49510591D01*
X146498938Y-49510591D01*
X146284626Y-49510591D01*
X146284626Y-49410578D01*
X146370351Y-49306994D01*
X147102585Y-49306994D01*
X147102585Y-50500000D01*
G37*
G36*
X102080778Y-69484171D02*
G01*
X102323602Y-69496973D01*
X102558651Y-69518304D01*
X102785929Y-69548159D01*
X103005443Y-69586531D01*
X103217198Y-69633416D01*
X103421198Y-69688809D01*
X103617450Y-69752704D01*
X103805958Y-69825096D01*
X103986727Y-69905981D01*
X104159764Y-69995352D01*
X104325072Y-70093204D01*
X104482657Y-70199533D01*
X104632525Y-70314332D01*
X104774681Y-70437598D01*
X104909129Y-70569323D01*
X105035036Y-70709046D01*
X105152896Y-70854969D01*
X105262698Y-71007097D01*
X105364432Y-71165436D01*
X105458087Y-71329991D01*
X105543653Y-71500767D01*
X105621120Y-71677769D01*
X105690477Y-71861003D01*
X105751714Y-72050473D01*
X105804819Y-72246186D01*
X105849783Y-72448146D01*
X105886596Y-72656359D01*
X105915246Y-72870829D01*
X105935723Y-73091562D01*
X105948017Y-73318563D01*
X105952118Y-73551838D01*
X105952118Y-73794726D01*
X105948056Y-74028001D01*
X105935870Y-74255002D01*
X105915552Y-74475736D01*
X105887098Y-74690206D01*
X105850503Y-74898418D01*
X105805761Y-75100378D01*
X105752868Y-75296091D01*
X105691817Y-75485562D01*
X105622604Y-75668796D01*
X105545224Y-75845798D01*
X105459671Y-76016574D01*
X105365939Y-76181129D01*
X105264025Y-76339468D01*
X105153922Y-76491596D01*
X105035626Y-76637519D01*
X104909131Y-76777241D01*
X104774682Y-76909556D01*
X104632526Y-77033258D01*
X104482658Y-77148359D01*
X104325073Y-77254868D01*
X104159765Y-77352796D01*
X103986729Y-77442154D01*
X103805959Y-77522952D01*
X103617451Y-77595200D01*
X103421200Y-77658910D01*
X103217199Y-77714090D01*
X103005445Y-77760753D01*
X102785931Y-77798908D01*
X102558652Y-77828566D01*
X102323603Y-77849738D01*
X102080780Y-77862433D01*
X101830176Y-77866662D01*
X93107656Y-77866662D01*
X92859606Y-77862351D01*
X92619091Y-77849417D01*
X92386110Y-77827860D01*
X92160663Y-77797680D01*
X91942751Y-77758878D01*
X91732373Y-77711453D01*
X91529529Y-77655406D01*
X91334220Y-77590735D01*
X91146446Y-77517442D01*
X90966206Y-77435526D01*
X90793500Y-77344988D01*
X90628329Y-77245826D01*
X90470692Y-77138042D01*
X90320589Y-77021635D01*
X90178021Y-76896606D01*
X90042988Y-76762953D01*
X90039416Y-76762956D01*
X89911623Y-76622020D01*
X89792112Y-76475141D01*
X89680879Y-76322317D01*
X89577918Y-76163550D01*
X89483224Y-75998839D01*
X89396792Y-75828185D01*
X89318616Y-75651586D01*
X89248692Y-75469044D01*
X89187013Y-75280558D01*
X89133576Y-75086128D01*
X89088374Y-74885754D01*
X89051402Y-74679436D01*
X89022655Y-74467175D01*
X89002128Y-74248970D01*
X88989816Y-74024820D01*
X88985713Y-73794728D01*
X88985713Y-73551839D01*
X88989816Y-73321707D01*
X89002128Y-73097451D01*
X89022655Y-72879086D01*
X89051402Y-72666628D01*
X89088374Y-72460094D01*
X89133576Y-72259498D01*
X89187013Y-72064856D01*
X89248692Y-71876184D01*
X89318616Y-71693498D01*
X89396792Y-71516813D01*
X89483224Y-71346145D01*
X89577918Y-71181510D01*
X89680879Y-71022923D01*
X89792112Y-70870401D01*
X89911623Y-70723958D01*
X90039416Y-70583611D01*
X90175077Y-70449959D01*
X90318189Y-70324929D01*
X90468752Y-70208523D01*
X90626766Y-70100739D01*
X90792230Y-70001577D01*
X90965145Y-69911039D01*
X91145511Y-69829123D01*
X91333327Y-69755830D01*
X91528594Y-69691159D01*
X91731312Y-69635111D01*
X91941481Y-69587686D01*
X92159100Y-69548884D01*
X92384170Y-69518705D01*
X92616691Y-69497148D01*
X92856662Y-69484214D01*
X93104084Y-69479902D01*
X101830174Y-69479902D01*
X102080778Y-69484171D01*
G37*
D11*
X132000000Y-146500000D02*
X130500000Y-144000000D01*
X133500000Y-144000000D01*
X132000000Y-146500000D01*
G36*
X132000000Y-146500000D02*
G01*
X130500000Y-144000000D01*
X133500000Y-144000000D01*
X132000000Y-146500000D01*
G37*
G36*
X99500000Y-123750000D02*
G01*
X106000000Y-123750000D01*
X106000000Y-130200000D01*
X99500000Y-130200000D01*
X99500000Y-123750000D01*
G37*
D10*
G36*
X154014162Y-50500000D02*
G01*
X153785563Y-50500000D01*
X153785563Y-49510591D01*
X153410516Y-49510591D01*
X153410516Y-50500000D01*
X153192632Y-50500000D01*
X153192632Y-49306994D01*
X154014162Y-49306994D01*
X154014162Y-50500000D01*
G37*
G36*
X149752917Y-49807056D02*
G01*
X149835070Y-49807056D01*
X149835070Y-49306994D01*
X150063670Y-49306994D01*
X150063670Y-50500000D01*
X149242139Y-50500000D01*
X149242139Y-49999938D01*
X149460022Y-49999938D01*
X149460022Y-50296403D01*
X149835069Y-50296403D01*
X149835069Y-49999938D01*
X149460022Y-49999938D01*
X149242139Y-49999938D01*
X149242139Y-49807056D01*
X149520745Y-49807056D01*
X149242139Y-49306994D01*
X149456451Y-49306994D01*
X149752917Y-49807056D01*
G37*
G36*
X89000000Y-146450000D02*
G01*
X106000000Y-146450000D01*
X106000000Y-160000000D01*
X89000000Y-160000000D01*
X89000000Y-146450000D01*
G37*
G36*
X107500000Y-83203045D02*
G01*
X156025400Y-83203045D01*
X156025400Y-116000000D01*
X107500000Y-116000000D01*
X107500000Y-83203045D01*
G37*
G36*
X100526439Y-62661193D02*
G01*
X100665742Y-62250428D01*
X100776470Y-62250428D01*
X100919346Y-62661193D01*
X100919346Y-62250428D01*
X101108654Y-62250428D01*
X101108654Y-63236265D01*
X100919346Y-63236265D01*
X100726464Y-62696912D01*
X100526439Y-63236265D01*
X100347845Y-63236265D01*
X100347845Y-62250428D01*
X100526439Y-62250428D01*
X100526439Y-62661193D01*
G37*
G36*
X101500000Y-141700000D02*
G01*
X103000000Y-141700000D01*
X103000000Y-142200000D01*
X101500000Y-142200000D01*
X101500000Y-141700000D01*
G37*
G36*
X89000000Y-117500000D02*
G01*
X106000000Y-117500000D01*
X106000000Y-124000000D01*
X89000000Y-124000000D01*
X89000000Y-117500000D01*
G37*
G36*
X105969977Y-99630096D02*
G01*
X98419034Y-99630096D01*
X98419034Y-104859322D01*
X105969977Y-104859322D01*
X105969977Y-106448805D01*
X89000000Y-106448805D01*
X89000000Y-104859322D01*
X96522369Y-104859322D01*
X96522369Y-99630096D01*
X89000000Y-99630096D01*
X89000000Y-98040613D01*
X105969977Y-98040613D01*
X105969977Y-99630096D01*
G37*
G36*
X151053079Y-50500000D02*
G01*
X150231548Y-50500000D01*
X150231548Y-49510591D01*
X150445860Y-49510591D01*
X150445860Y-50296403D01*
X150820907Y-50296403D01*
X150820907Y-49510591D01*
X150445860Y-49510591D01*
X150231548Y-49510591D01*
X150231548Y-49306994D01*
X151053079Y-49306994D01*
X151053079Y-50500000D01*
G37*
G36*
X80277669Y-89196651D02*
G01*
X79906194Y-89196651D01*
X79906194Y-88725163D01*
X80277669Y-88725163D01*
X80277669Y-89196651D01*
G37*
G36*
X101422980Y-62661193D02*
G01*
X101562283Y-62250428D01*
X101673011Y-62250428D01*
X101815887Y-62661193D01*
X101815887Y-62250428D01*
X102005197Y-62250428D01*
X102005197Y-63236265D01*
X101815887Y-63236265D01*
X101623006Y-62696912D01*
X101422980Y-63236265D01*
X101244386Y-63236265D01*
X101244386Y-62250428D01*
X101422980Y-62250428D01*
X101422980Y-62661193D01*
G37*
G36*
X100212115Y-63236265D02*
G01*
X100022807Y-63236265D01*
X100022807Y-62421878D01*
X99712052Y-62421878D01*
X99712052Y-63236265D01*
X99537031Y-63236265D01*
X99537031Y-62250428D01*
X100212115Y-62250428D01*
X100212115Y-63236265D01*
G37*
G36*
X96643812Y-64654300D02*
G01*
X97203090Y-65020584D01*
X97670280Y-65320901D01*
X98045717Y-65554914D01*
X98199133Y-65646953D01*
X98329737Y-65722290D01*
X98447441Y-65786584D01*
X98564811Y-65845520D01*
X98681845Y-65899098D01*
X98798545Y-65947318D01*
X98914910Y-65990181D01*
X99030941Y-66027686D01*
X99088830Y-66044429D01*
X99146636Y-66059832D01*
X99204358Y-66073897D01*
X99261996Y-66086622D01*
X99383559Y-66109225D01*
X99517888Y-66128814D01*
X99665025Y-66145390D01*
X99825013Y-66158952D01*
X99997893Y-66169500D01*
X100183707Y-66177035D01*
X100382497Y-66181555D01*
X100594305Y-66183062D01*
X102290946Y-66183062D01*
X102383871Y-66180886D01*
X102475121Y-66174356D01*
X102564697Y-66163473D01*
X102652598Y-66148237D01*
X102738825Y-66128647D01*
X102823378Y-66104704D01*
X102906257Y-66076408D01*
X102987461Y-66043759D01*
X103066991Y-66006757D01*
X103144847Y-65965401D01*
X103221028Y-65919692D01*
X103295535Y-65869630D01*
X103368368Y-65815215D01*
X103439526Y-65756447D01*
X103509010Y-65693325D01*
X103576820Y-65625850D01*
X103641071Y-65554860D01*
X103701215Y-65481196D01*
X103757247Y-65404864D01*
X103809160Y-65325868D01*
X103856951Y-65244215D01*
X103900613Y-65159909D01*
X103940142Y-65072955D01*
X103975532Y-64983359D01*
X104006778Y-64891126D01*
X104033875Y-64796261D01*
X104056817Y-64698770D01*
X104075600Y-64598657D01*
X104090218Y-64495928D01*
X104100666Y-64390588D01*
X104106939Y-64282643D01*
X104109031Y-64172097D01*
X104109031Y-61503906D01*
X105952118Y-61503906D01*
X105952118Y-63929209D01*
X105948099Y-64189230D01*
X105936044Y-64441550D01*
X105915952Y-64686167D01*
X105887824Y-64923083D01*
X105851659Y-65152297D01*
X105807457Y-65373809D01*
X105755218Y-65587619D01*
X105694943Y-65793728D01*
X105626631Y-65992134D01*
X105550282Y-66182839D01*
X105465896Y-66365841D01*
X105373474Y-66541142D01*
X105273015Y-66708741D01*
X105164519Y-66868638D01*
X105047987Y-67020834D01*
X104923417Y-67165327D01*
X104790772Y-67301615D01*
X104650016Y-67429186D01*
X104501160Y-67548029D01*
X104344216Y-67658134D01*
X104179193Y-67759492D01*
X104006102Y-67852090D01*
X103824953Y-67935919D01*
X103635757Y-68010969D01*
X103438524Y-68077228D01*
X103233265Y-68134687D01*
X103019991Y-68183334D01*
X102798711Y-68223160D01*
X102569436Y-68254155D01*
X102332177Y-68276306D01*
X102086943Y-68289605D01*
X101833747Y-68294040D01*
X100815762Y-68294040D01*
X100522088Y-68292191D01*
X100246495Y-68286617D01*
X99988986Y-68277276D01*
X99749558Y-68264125D01*
X99528214Y-68247124D01*
X99324952Y-68226230D01*
X99139772Y-68201401D01*
X98972675Y-68172596D01*
X98815792Y-68139095D01*
X98661252Y-68100154D01*
X98509057Y-68055687D01*
X98359206Y-68005610D01*
X98211698Y-67949842D01*
X98066535Y-67888297D01*
X97923716Y-67820891D01*
X97783241Y-67747543D01*
X97631729Y-67662473D01*
X97455857Y-67559907D01*
X97255706Y-67439761D01*
X97031362Y-67301951D01*
X96782907Y-67146393D01*
X96510426Y-66973004D01*
X96214003Y-66781699D01*
X95893720Y-66572396D01*
X90828800Y-63225550D01*
X90828800Y-66968874D01*
X88985713Y-66968874D01*
X88985713Y-61018131D01*
X91118122Y-61018131D01*
X96643812Y-64654300D01*
G37*
G36*
X148763507Y-50296403D02*
G01*
X149077832Y-50296403D01*
X149077832Y-50500000D01*
X148256301Y-50500000D01*
X148256301Y-50296403D01*
X148534907Y-50296403D01*
X148534907Y-49306994D01*
X148763507Y-49306994D01*
X148763507Y-50296403D01*
G37*
G36*
X80277669Y-99687248D02*
G01*
X79906194Y-99687248D01*
X79906194Y-99215761D01*
X80277669Y-99215761D01*
X80277669Y-99687248D01*
G37*
G36*
X89000000Y-135500000D02*
G01*
X100500000Y-135500000D01*
X100500000Y-142500000D01*
X89000000Y-142500000D01*
X89000000Y-135500000D01*
G37*
G36*
X152617559Y-45268079D02*
G01*
X154196328Y-45268079D01*
X154196328Y-43500000D01*
X155000000Y-43500000D01*
X155000000Y-47754103D01*
X154196328Y-47754103D01*
X154196328Y-45996741D01*
X152617559Y-45996741D01*
X152617559Y-47754103D01*
X151813888Y-47754103D01*
X151813888Y-43500000D01*
X152617559Y-43500000D01*
X152617559Y-45268079D01*
G37*
G36*
X102260238Y-79002548D02*
G01*
X102486905Y-79013354D01*
X102706633Y-79031369D01*
X102919429Y-79056600D01*
X103125298Y-79089051D01*
X103324244Y-79128728D01*
X103516273Y-79175636D01*
X103701391Y-79229780D01*
X103879602Y-79291166D01*
X104050911Y-79359798D01*
X104215325Y-79435682D01*
X104372847Y-79518823D01*
X104523484Y-79609227D01*
X104667241Y-79706898D01*
X104804123Y-79811842D01*
X104934134Y-79924064D01*
X104934134Y-79924065D01*
X105056777Y-80043527D01*
X105171545Y-80170189D01*
X105278434Y-80304051D01*
X105377437Y-80445112D01*
X105468550Y-80593372D01*
X105551768Y-80748833D01*
X105627085Y-80911492D01*
X105694497Y-81081352D01*
X105753997Y-81258411D01*
X105805580Y-81442669D01*
X105849243Y-81634127D01*
X105884978Y-81832785D01*
X105912781Y-82038642D01*
X105932647Y-82251699D01*
X105944571Y-82471955D01*
X105948546Y-82699411D01*
X105948546Y-83674533D01*
X105944571Y-83902028D01*
X105932647Y-84122392D01*
X105912781Y-84335608D01*
X105884978Y-84541661D01*
X105849243Y-84740536D01*
X105805580Y-84932216D01*
X105753997Y-85116687D01*
X105694497Y-85293931D01*
X105627085Y-85463935D01*
X105551768Y-85626681D01*
X105468550Y-85782154D01*
X105377437Y-85930339D01*
X105278434Y-86071219D01*
X105171545Y-86204780D01*
X105056777Y-86331005D01*
X104934134Y-86449878D01*
X104804123Y-86562101D01*
X104667241Y-86667045D01*
X104523484Y-86764716D01*
X104372847Y-86855120D01*
X104215325Y-86938261D01*
X104050911Y-87014145D01*
X103879602Y-87082777D01*
X103701391Y-87144162D01*
X103516273Y-87198306D01*
X103324244Y-87245214D01*
X103125298Y-87284890D01*
X102919429Y-87317341D01*
X102706633Y-87342572D01*
X102486905Y-87360587D01*
X102260238Y-87371392D01*
X102026628Y-87374993D01*
X89000000Y-87374993D01*
X89000000Y-85721217D01*
X102244513Y-85721217D01*
X102343800Y-85719334D01*
X102440743Y-85713689D01*
X102535342Y-85704288D01*
X102627596Y-85691135D01*
X102717507Y-85674236D01*
X102805074Y-85653595D01*
X102890297Y-85629219D01*
X102973176Y-85601113D01*
X103053710Y-85569280D01*
X103131901Y-85533728D01*
X103207747Y-85494461D01*
X103281250Y-85451484D01*
X103352408Y-85404803D01*
X103421223Y-85354423D01*
X103487693Y-85300348D01*
X103551819Y-85242585D01*
X103612766Y-85182185D01*
X103669705Y-85120200D01*
X103722646Y-85056634D01*
X103771601Y-84991494D01*
X103816579Y-84924784D01*
X103857591Y-84856509D01*
X103894647Y-84786675D01*
X103927759Y-84715287D01*
X103956935Y-84642351D01*
X103982188Y-84567871D01*
X104003527Y-84491852D01*
X104020962Y-84414301D01*
X104034505Y-84335222D01*
X104044166Y-84254620D01*
X104049954Y-84172500D01*
X104051882Y-84088869D01*
X104051882Y-82285073D01*
X104049915Y-82201441D01*
X104044019Y-82119322D01*
X104034199Y-82038721D01*
X104020460Y-81959641D01*
X104002807Y-81882090D01*
X103981246Y-81806072D01*
X103955782Y-81731592D01*
X103926419Y-81658655D01*
X103893164Y-81587267D01*
X103856021Y-81517433D01*
X103814996Y-81449159D01*
X103770094Y-81382449D01*
X103721320Y-81317308D01*
X103668679Y-81253743D01*
X103612177Y-81191758D01*
X103551819Y-81131358D01*
X103488321Y-81073595D01*
X103422394Y-81019520D01*
X103354040Y-80969140D01*
X103283259Y-80922459D01*
X103210049Y-80879482D01*
X103134412Y-80840215D01*
X103056347Y-80804663D01*
X102975854Y-80772831D01*
X102892934Y-80744724D01*
X102807585Y-80720348D01*
X102719809Y-80699707D01*
X102629605Y-80682808D01*
X102536974Y-80669655D01*
X102441914Y-80660254D01*
X102344427Y-80654609D01*
X102244513Y-80652726D01*
X89000000Y-80652726D01*
X89000000Y-78998947D01*
X102026628Y-78998947D01*
X102260238Y-79002548D01*
G37*
G36*
X145991731Y-47025441D02*
G01*
X147231171Y-47025441D01*
X147231171Y-47754103D01*
X143948618Y-47754103D01*
X143948618Y-47025441D01*
X145188059Y-47025441D01*
X145188059Y-43500000D01*
X145991731Y-43500000D01*
X145991731Y-47025441D01*
G37*
D11*
X100500000Y-137500000D02*
X103000000Y-137500000D01*
X103000000Y-140500000D01*
X100500000Y-140500000D01*
X100500000Y-137500000D01*
G36*
X100500000Y-137500000D02*
G01*
X103000000Y-137500000D01*
X103000000Y-140500000D01*
X100500000Y-140500000D01*
X100500000Y-137500000D01*
G37*
D10*
G36*
X80277669Y-91107603D02*
G01*
X79906194Y-91107603D01*
X79906194Y-90636116D01*
X80277669Y-90636116D01*
X80277669Y-91107603D01*
G37*
G36*
X148091995Y-50500000D02*
G01*
X147270463Y-50500000D01*
X147270463Y-50296403D01*
X147859823Y-50296403D01*
X147859823Y-49999938D01*
X147270463Y-49999938D01*
X147270463Y-49807057D01*
X147859823Y-49807057D01*
X147859823Y-49510591D01*
X147270463Y-49510591D01*
X147270463Y-49306994D01*
X148091995Y-49306994D01*
X148091995Y-50500000D01*
G37*
D12*
X107060149Y-143819684D02*
X106917292Y-143891112D01*
X106917292Y-143891112D02*
X106631578Y-143891112D01*
X106631578Y-143891112D02*
X106488720Y-143819684D01*
X106488720Y-143819684D02*
X106417292Y-143676826D01*
X106417292Y-143676826D02*
X106417292Y-143105398D01*
X106417292Y-143105398D02*
X106488720Y-142962541D01*
X106488720Y-142962541D02*
X106631578Y-142891112D01*
X106631578Y-142891112D02*
X106917292Y-142891112D01*
X106917292Y-142891112D02*
X107060149Y-142962541D01*
X107060149Y-142962541D02*
X107131578Y-143105398D01*
X107131578Y-143105398D02*
X107131578Y-143248255D01*
X107131578Y-143248255D02*
X106417292Y-143391112D01*
X108845863Y-142319684D02*
X107560149Y-144248255D01*
X106488720Y-146306028D02*
X106488720Y-145306028D01*
X106488720Y-144806028D02*
X106417292Y-144877457D01*
X106417292Y-144877457D02*
X106488720Y-144948885D01*
X106488720Y-144948885D02*
X106560149Y-144877457D01*
X106560149Y-144877457D02*
X106488720Y-144806028D01*
X106488720Y-144806028D02*
X106488720Y-144948885D01*
X107203006Y-145306028D02*
X107203006Y-146306028D01*
X107203006Y-145448885D02*
X107274435Y-145377457D01*
X107274435Y-145377457D02*
X107417292Y-145306028D01*
X107417292Y-145306028D02*
X107631578Y-145306028D01*
X107631578Y-145306028D02*
X107774435Y-145377457D01*
X107774435Y-145377457D02*
X107845864Y-145520314D01*
X107845864Y-145520314D02*
X107845864Y-146306028D01*
X109203007Y-145306028D02*
X109203007Y-146520314D01*
X109203007Y-146520314D02*
X109131578Y-146663171D01*
X109131578Y-146663171D02*
X109060149Y-146734600D01*
X109060149Y-146734600D02*
X108917292Y-146806028D01*
X108917292Y-146806028D02*
X108703007Y-146806028D01*
X108703007Y-146806028D02*
X108560149Y-146734600D01*
X109203007Y-146234600D02*
X109060149Y-146306028D01*
X109060149Y-146306028D02*
X108774435Y-146306028D01*
X108774435Y-146306028D02*
X108631578Y-146234600D01*
X108631578Y-146234600D02*
X108560149Y-146163171D01*
X108560149Y-146163171D02*
X108488721Y-146020314D01*
X108488721Y-146020314D02*
X108488721Y-145591742D01*
X108488721Y-145591742D02*
X108560149Y-145448885D01*
X108560149Y-145448885D02*
X108631578Y-145377457D01*
X108631578Y-145377457D02*
X108774435Y-145306028D01*
X108774435Y-145306028D02*
X109060149Y-145306028D01*
X109060149Y-145306028D02*
X109203007Y-145377457D01*
X109845864Y-146234600D02*
X109988721Y-146306028D01*
X109988721Y-146306028D02*
X110274435Y-146306028D01*
X110274435Y-146306028D02*
X110417292Y-146234600D01*
X110417292Y-146234600D02*
X110488721Y-146091742D01*
X110488721Y-146091742D02*
X110488721Y-146020314D01*
X110488721Y-146020314D02*
X110417292Y-145877457D01*
X110417292Y-145877457D02*
X110274435Y-145806028D01*
X110274435Y-145806028D02*
X110060150Y-145806028D01*
X110060150Y-145806028D02*
X109917292Y-145734600D01*
X109917292Y-145734600D02*
X109845864Y-145591742D01*
X109845864Y-145591742D02*
X109845864Y-145520314D01*
X109845864Y-145520314D02*
X109917292Y-145377457D01*
X109917292Y-145377457D02*
X110060150Y-145306028D01*
X110060150Y-145306028D02*
X110274435Y-145306028D01*
X110274435Y-145306028D02*
X110417292Y-145377457D01*
X77988720Y-65391112D02*
X77988720Y-63891112D01*
X77988720Y-63891112D02*
X78560149Y-63891112D01*
X78560149Y-63891112D02*
X78703006Y-63962541D01*
X78703006Y-63962541D02*
X78774435Y-64033969D01*
X78774435Y-64033969D02*
X78845863Y-64176826D01*
X78845863Y-64176826D02*
X78845863Y-64391112D01*
X78845863Y-64391112D02*
X78774435Y-64533969D01*
X78774435Y-64533969D02*
X78703006Y-64605398D01*
X78703006Y-64605398D02*
X78560149Y-64676826D01*
X78560149Y-64676826D02*
X77988720Y-64676826D01*
X79703006Y-65391112D02*
X79560149Y-65319684D01*
X79560149Y-65319684D02*
X79488720Y-65248255D01*
X79488720Y-65248255D02*
X79417292Y-65105398D01*
X79417292Y-65105398D02*
X79417292Y-64676826D01*
X79417292Y-64676826D02*
X79488720Y-64533969D01*
X79488720Y-64533969D02*
X79560149Y-64462541D01*
X79560149Y-64462541D02*
X79703006Y-64391112D01*
X79703006Y-64391112D02*
X79917292Y-64391112D01*
X79917292Y-64391112D02*
X80060149Y-64462541D01*
X80060149Y-64462541D02*
X80131578Y-64533969D01*
X80131578Y-64533969D02*
X80203006Y-64676826D01*
X80203006Y-64676826D02*
X80203006Y-65105398D01*
X80203006Y-65105398D02*
X80131578Y-65248255D01*
X80131578Y-65248255D02*
X80060149Y-65319684D01*
X80060149Y-65319684D02*
X79917292Y-65391112D01*
X79917292Y-65391112D02*
X79703006Y-65391112D01*
X80845863Y-65391112D02*
X80845863Y-64391112D01*
X80845863Y-64676826D02*
X80917292Y-64533969D01*
X80917292Y-64533969D02*
X80988721Y-64462541D01*
X80988721Y-64462541D02*
X81131578Y-64391112D01*
X81131578Y-64391112D02*
X81274435Y-64391112D01*
X81560149Y-64391112D02*
X82131577Y-64391112D01*
X81774434Y-63891112D02*
X81774434Y-65176826D01*
X81774434Y-65176826D02*
X81845863Y-65319684D01*
X81845863Y-65319684D02*
X81988720Y-65391112D01*
X81988720Y-65391112D02*
X82131577Y-65391112D01*
X83988720Y-65391112D02*
X83845863Y-65319684D01*
X83845863Y-65319684D02*
X83774434Y-65248255D01*
X83774434Y-65248255D02*
X83703006Y-65105398D01*
X83703006Y-65105398D02*
X83703006Y-64676826D01*
X83703006Y-64676826D02*
X83774434Y-64533969D01*
X83774434Y-64533969D02*
X83845863Y-64462541D01*
X83845863Y-64462541D02*
X83988720Y-64391112D01*
X83988720Y-64391112D02*
X84203006Y-64391112D01*
X84203006Y-64391112D02*
X84345863Y-64462541D01*
X84345863Y-64462541D02*
X84417292Y-64533969D01*
X84417292Y-64533969D02*
X84488720Y-64676826D01*
X84488720Y-64676826D02*
X84488720Y-65105398D01*
X84488720Y-65105398D02*
X84417292Y-65248255D01*
X84417292Y-65248255D02*
X84345863Y-65319684D01*
X84345863Y-65319684D02*
X84203006Y-65391112D01*
X84203006Y-65391112D02*
X83988720Y-65391112D01*
X84917292Y-64391112D02*
X85488720Y-64391112D01*
X85131577Y-65391112D02*
X85131577Y-64105398D01*
X85131577Y-64105398D02*
X85203006Y-63962541D01*
X85203006Y-63962541D02*
X85345863Y-63891112D01*
X85345863Y-63891112D02*
X85488720Y-63891112D01*
X77988720Y-67806028D02*
X77988720Y-66306028D01*
X78703006Y-66806028D02*
X78703006Y-67806028D01*
X78703006Y-66948885D02*
X78774435Y-66877457D01*
X78774435Y-66877457D02*
X78917292Y-66806028D01*
X78917292Y-66806028D02*
X79131578Y-66806028D01*
X79131578Y-66806028D02*
X79274435Y-66877457D01*
X79274435Y-66877457D02*
X79345864Y-67020314D01*
X79345864Y-67020314D02*
X79345864Y-67806028D01*
X79845864Y-66806028D02*
X80417292Y-66806028D01*
X80060149Y-67806028D02*
X80060149Y-66520314D01*
X80060149Y-66520314D02*
X80131578Y-66377457D01*
X80131578Y-66377457D02*
X80274435Y-66306028D01*
X80274435Y-66306028D02*
X80417292Y-66306028D01*
X80917292Y-67806028D02*
X80917292Y-66806028D01*
X80917292Y-66306028D02*
X80845864Y-66377457D01*
X80845864Y-66377457D02*
X80917292Y-66448885D01*
X80917292Y-66448885D02*
X80988721Y-66377457D01*
X80988721Y-66377457D02*
X80917292Y-66306028D01*
X80917292Y-66306028D02*
X80917292Y-66448885D01*
X81631578Y-66806028D02*
X81631578Y-67806028D01*
X81631578Y-66948885D02*
X81703007Y-66877457D01*
X81703007Y-66877457D02*
X81845864Y-66806028D01*
X81845864Y-66806028D02*
X82060150Y-66806028D01*
X82060150Y-66806028D02*
X82203007Y-66877457D01*
X82203007Y-66877457D02*
X82274436Y-67020314D01*
X82274436Y-67020314D02*
X82274436Y-67806028D01*
X82988721Y-67806028D02*
X82988721Y-66806028D01*
X82988721Y-66306028D02*
X82917293Y-66377457D01*
X82917293Y-66377457D02*
X82988721Y-66448885D01*
X82988721Y-66448885D02*
X83060150Y-66377457D01*
X83060150Y-66377457D02*
X82988721Y-66306028D01*
X82988721Y-66306028D02*
X82988721Y-66448885D01*
X83488722Y-66806028D02*
X84060150Y-66806028D01*
X83703007Y-66306028D02*
X83703007Y-67591742D01*
X83703007Y-67591742D02*
X83774436Y-67734600D01*
X83774436Y-67734600D02*
X83917293Y-67806028D01*
X83917293Y-67806028D02*
X84060150Y-67806028D01*
X85131579Y-67734600D02*
X84988722Y-67806028D01*
X84988722Y-67806028D02*
X84703008Y-67806028D01*
X84703008Y-67806028D02*
X84560150Y-67734600D01*
X84560150Y-67734600D02*
X84488722Y-67591742D01*
X84488722Y-67591742D02*
X84488722Y-67020314D01*
X84488722Y-67020314D02*
X84560150Y-66877457D01*
X84560150Y-66877457D02*
X84703008Y-66806028D01*
X84703008Y-66806028D02*
X84988722Y-66806028D01*
X84988722Y-66806028D02*
X85131579Y-66877457D01*
X85131579Y-66877457D02*
X85203008Y-67020314D01*
X85203008Y-67020314D02*
X85203008Y-67163171D01*
X85203008Y-67163171D02*
X84488722Y-67306028D01*
G36*
X93818848Y-134172741D02*
G01*
X93753816Y-134206133D01*
X93443785Y-134207714D01*
X93349465Y-134161812D01*
X93302758Y-134070848D01*
X93301621Y-133974757D01*
X93347221Y-133881060D01*
X93437909Y-133834494D01*
X93759052Y-133832856D01*
X93761927Y-133833815D01*
X93776672Y-133832767D01*
X93793943Y-133832679D01*
X93797263Y-133831303D01*
X93800847Y-133831049D01*
X93818017Y-133824478D01*
X93818848Y-134172741D01*
G37*
G36*
X96532377Y-133438482D02*
G01*
X96533305Y-134172653D01*
X96468054Y-134206158D01*
X96229388Y-134207660D01*
X96122187Y-134155488D01*
X96072438Y-134107301D01*
X96017203Y-133999729D01*
X96015568Y-133618311D01*
X96067831Y-133510922D01*
X96116017Y-133461176D01*
X96223673Y-133405897D01*
X96462337Y-133404395D01*
X96532377Y-133438482D01*
G37*
G36*
X97855254Y-133456568D02*
G01*
X97905002Y-133504755D01*
X97960237Y-133612327D01*
X97961872Y-133993744D01*
X97909609Y-134101132D01*
X97861422Y-134150881D01*
X97753769Y-134206158D01*
X97515103Y-134207660D01*
X97445695Y-134173882D01*
X97444766Y-133439078D01*
X97509387Y-133405897D01*
X97748051Y-133404395D01*
X97855254Y-133456568D01*
G37*
G36*
X94674640Y-131023277D02*
G01*
X94675784Y-131757931D01*
X94610911Y-131791242D01*
X94372245Y-131792744D01*
X94265044Y-131740572D01*
X94215295Y-131692385D01*
X94160060Y-131584813D01*
X94158425Y-131203395D01*
X94210688Y-131096006D01*
X94258874Y-131046260D01*
X94366530Y-130990981D01*
X94605194Y-130989479D01*
X94674640Y-131023277D01*
G37*
G36*
X91647215Y-131261988D02*
G01*
X91690716Y-131304124D01*
X91746033Y-131411857D01*
X91747408Y-131579193D01*
X91695323Y-131686216D01*
X91647136Y-131735965D01*
X91539606Y-131791178D01*
X91088595Y-131792644D01*
X91087852Y-131205031D01*
X91467451Y-131203627D01*
X91647215Y-131261988D01*
G37*
G36*
X91569538Y-130541651D02*
G01*
X91619287Y-130589838D01*
X91674682Y-130697721D01*
X91675819Y-130793811D01*
X91623894Y-130900503D01*
X91575709Y-130950250D01*
X91468158Y-131005474D01*
X91087602Y-131006881D01*
X91086949Y-130490748D01*
X91462094Y-130489361D01*
X91569538Y-130541651D01*
G37*
G36*
X99556545Y-131035328D02*
G01*
X99603254Y-131126293D01*
X99603728Y-131166343D01*
X99087401Y-131270988D01*
X99086950Y-131132065D01*
X99132936Y-131037572D01*
X99223673Y-130990981D01*
X99462337Y-130989479D01*
X99556545Y-131035328D01*
G37*
G36*
X104112531Y-135071910D02*
G01*
X90650625Y-135071910D01*
X90650625Y-134793520D01*
X98460934Y-134793520D01*
X98463700Y-134832441D01*
X98481149Y-134867339D01*
X98510626Y-134892904D01*
X98547641Y-134905243D01*
X98586562Y-134902477D01*
X98604870Y-134895471D01*
X98746551Y-134822722D01*
X98758563Y-134817747D01*
X98762443Y-134814562D01*
X98764318Y-134813600D01*
X98766050Y-134811602D01*
X98773717Y-134805311D01*
X98857582Y-134718728D01*
X98857819Y-134718155D01*
X98858254Y-134717710D01*
X98867283Y-134700310D01*
X99002154Y-134358428D01*
X99003096Y-134357388D01*
X99011466Y-134339662D01*
X99373362Y-133320643D01*
X99371424Y-133281673D01*
X99354721Y-133246411D01*
X99325795Y-133220225D01*
X99289050Y-133207101D01*
X99250080Y-133209039D01*
X99214818Y-133225742D01*
X99188631Y-133254668D01*
X99180261Y-133272394D01*
X98917770Y-134011509D01*
X98645953Y-133254668D01*
X98619766Y-133225742D01*
X98584504Y-133209039D01*
X98545534Y-133207101D01*
X98508789Y-133220224D01*
X98479863Y-133246411D01*
X98463160Y-133281673D01*
X98461222Y-133320643D01*
X98465975Y-133339662D01*
X98811493Y-134301716D01*
X98692035Y-134604526D01*
X98647136Y-134650881D01*
X98498838Y-134727028D01*
X98473273Y-134756505D01*
X98460934Y-134793520D01*
X90650625Y-134793520D01*
X90650625Y-133091742D01*
X90817292Y-133091742D01*
X90818808Y-133219898D01*
X90818077Y-133222092D01*
X90818985Y-133234874D01*
X90819213Y-133254109D01*
X90820588Y-133257429D01*
X90820843Y-133261013D01*
X90827849Y-133279321D01*
X90900597Y-133421001D01*
X90905573Y-133433015D01*
X90908758Y-133436895D01*
X90909720Y-133438769D01*
X90911717Y-133440501D01*
X90918010Y-133448168D01*
X90991103Y-133518967D01*
X90998837Y-133527885D01*
X91003042Y-133530532D01*
X91004592Y-133532033D01*
X91007032Y-133533043D01*
X91015427Y-133538328D01*
X91152807Y-133605187D01*
X91160292Y-133610733D01*
X91174996Y-133615986D01*
X91176593Y-133616763D01*
X91177315Y-133616814D01*
X91178753Y-133617328D01*
X91447012Y-133682651D01*
X91569540Y-133742282D01*
X91619286Y-133790468D01*
X91674682Y-133898352D01*
X91675819Y-133994441D01*
X91623894Y-134101133D01*
X91575707Y-134150881D01*
X91468102Y-134206133D01*
X91152671Y-134207741D01*
X90929799Y-134135385D01*
X90890879Y-134138151D01*
X90855980Y-134155601D01*
X90830415Y-134185077D01*
X90818077Y-134222093D01*
X90820843Y-134261013D01*
X90838293Y-134295912D01*
X90867769Y-134321477D01*
X90885669Y-134329468D01*
X91099372Y-134398847D01*
X91112069Y-134404107D01*
X91117096Y-134404602D01*
X91119071Y-134405243D01*
X91121704Y-134405055D01*
X91131578Y-134406028D01*
X91473337Y-134404284D01*
X91476212Y-134405243D01*
X91490956Y-134404195D01*
X91508229Y-134404107D01*
X91511549Y-134402731D01*
X91515132Y-134402477D01*
X91533441Y-134395471D01*
X91675122Y-134322723D01*
X91687136Y-134317747D01*
X91691016Y-134314561D01*
X91692890Y-134313600D01*
X91694622Y-134311602D01*
X91702289Y-134305310D01*
X91773088Y-134232216D01*
X91782006Y-134224483D01*
X91784653Y-134220277D01*
X91786154Y-134218728D01*
X91787164Y-134216287D01*
X91792449Y-134207893D01*
X91855864Y-134077588D01*
X91857582Y-134075871D01*
X91862622Y-134063702D01*
X91870884Y-134046727D01*
X91871138Y-134043143D01*
X91872514Y-134039823D01*
X91874435Y-134020314D01*
X91872918Y-133892157D01*
X91873650Y-133889964D01*
X91872741Y-133877181D01*
X91872514Y-133857948D01*
X91871138Y-133854627D01*
X91870884Y-133851044D01*
X91863878Y-133832735D01*
X91791130Y-133691058D01*
X91786154Y-133679043D01*
X91782967Y-133675160D01*
X91782006Y-133673288D01*
X91780009Y-133671556D01*
X91773717Y-133663890D01*
X91700625Y-133593090D01*
X91692890Y-133584171D01*
X91688684Y-133581523D01*
X91687136Y-133580024D01*
X91684695Y-133579013D01*
X91676299Y-133573728D01*
X91538918Y-133506868D01*
X91531434Y-133501323D01*
X91516729Y-133496069D01*
X91515133Y-133495293D01*
X91514410Y-133495241D01*
X91512973Y-133494728D01*
X91244713Y-133429404D01*
X91122186Y-133369773D01*
X91076516Y-133325537D01*
X92104927Y-133325537D01*
X92119859Y-133361585D01*
X92147449Y-133389175D01*
X92183497Y-133404107D01*
X92203006Y-133406028D01*
X92318173Y-133405653D01*
X92319160Y-134075982D01*
X92318076Y-134079235D01*
X92319187Y-134094880D01*
X92319212Y-134111251D01*
X92320587Y-134114571D01*
X92320842Y-134118155D01*
X92327848Y-134136463D01*
X92398470Y-134274003D01*
X92401844Y-134284123D01*
X92406311Y-134289274D01*
X92409720Y-134295912D01*
X92419195Y-134304129D01*
X92427409Y-134313600D01*
X92437280Y-134319813D01*
X92439197Y-134321476D01*
X92440735Y-134321989D01*
X92443999Y-134324043D01*
X92574302Y-134387457D01*
X92576020Y-134389175D01*
X92588193Y-134394217D01*
X92605165Y-134402477D01*
X92608747Y-134402731D01*
X92612068Y-134404107D01*
X92631577Y-134406028D01*
X92793943Y-134404107D01*
X92829991Y-134389175D01*
X92857581Y-134361585D01*
X92872513Y-134325537D01*
X92872513Y-134286519D01*
X92857581Y-134250471D01*
X92829991Y-134222881D01*
X92793943Y-134207949D01*
X92774434Y-134206028D01*
X92657449Y-134207412D01*
X92563751Y-134161812D01*
X92517260Y-134071269D01*
X92517080Y-133948885D01*
X93103006Y-133948885D01*
X93104522Y-134077040D01*
X93103791Y-134079234D01*
X93104699Y-134092016D01*
X93104927Y-134111251D01*
X93106302Y-134114571D01*
X93106557Y-134118154D01*
X93113563Y-134136463D01*
X93184183Y-134274001D01*
X93187558Y-134284124D01*
X93192027Y-134289276D01*
X93195434Y-134295912D01*
X93204908Y-134304128D01*
X93213123Y-134313600D01*
X93222994Y-134319813D01*
X93224911Y-134321476D01*
X93226450Y-134321989D01*
X93229713Y-134324043D01*
X93360018Y-134387458D01*
X93361735Y-134389175D01*
X93373895Y-134394212D01*
X93390880Y-134402478D01*
X93394465Y-134402732D01*
X93397783Y-134404107D01*
X93417292Y-134406028D01*
X93759051Y-134404284D01*
X93761926Y-134405243D01*
X93776670Y-134404195D01*
X93793943Y-134404107D01*
X93797263Y-134402731D01*
X93800846Y-134402477D01*
X93819155Y-134395471D01*
X93851449Y-134378889D01*
X93861735Y-134389175D01*
X93897783Y-134404107D01*
X93936801Y-134404107D01*
X93972849Y-134389175D01*
X94000439Y-134361585D01*
X94015371Y-134325537D01*
X94017292Y-134306028D01*
X94015793Y-133677819D01*
X94016507Y-133675678D01*
X94015763Y-133665212D01*
X94015454Y-133535977D01*
X94016507Y-133532821D01*
X94015410Y-133517393D01*
X94015371Y-133500805D01*
X94013995Y-133497484D01*
X94013741Y-133493901D01*
X94006735Y-133475592D01*
X93936111Y-133338052D01*
X93932739Y-133327934D01*
X93928270Y-133322782D01*
X93924863Y-133316145D01*
X93915390Y-133307929D01*
X93913741Y-133306028D01*
X94531577Y-133306028D01*
X94533498Y-134325537D01*
X94548430Y-134361585D01*
X94576020Y-134389175D01*
X94612068Y-134404107D01*
X94651086Y-134404107D01*
X94687134Y-134389175D01*
X94714724Y-134361585D01*
X94729656Y-134325537D01*
X94731577Y-134306028D01*
X94730041Y-133490943D01*
X94758874Y-133461176D01*
X94866609Y-133405857D01*
X95033943Y-133404482D01*
X95127973Y-133450244D01*
X95174483Y-133540823D01*
X95176356Y-134325537D01*
X95191288Y-134361585D01*
X95218878Y-134389175D01*
X95254926Y-134404107D01*
X95293944Y-134404107D01*
X95329992Y-134389175D01*
X95357582Y-134361585D01*
X95372514Y-134325537D01*
X95374435Y-134306028D01*
X95372730Y-133591742D01*
X95817292Y-133591742D01*
X95819063Y-134004847D01*
X95818077Y-134007806D01*
X95819139Y-134022761D01*
X95819213Y-134039823D01*
X95820588Y-134043143D01*
X95820843Y-134046727D01*
X95827849Y-134065035D01*
X95900597Y-134206716D01*
X95905573Y-134218728D01*
X95908757Y-134222608D01*
X95909720Y-134224483D01*
X95911717Y-134226215D01*
X95918009Y-134233882D01*
X95991103Y-134304681D01*
X95998838Y-134313600D01*
X96003043Y-134316247D01*
X96004592Y-134317747D01*
X96007031Y-134318757D01*
X96015428Y-134324043D01*
X96145731Y-134387457D01*
X96147449Y-134389175D01*
X96159622Y-134394217D01*
X96176594Y-134402477D01*
X96180176Y-134402731D01*
X96183497Y-134404107D01*
X96203006Y-134406028D01*
X96473460Y-134404325D01*
X96476212Y-134405243D01*
X96490638Y-134404217D01*
X96508229Y-134404107D01*
X96511549Y-134402731D01*
X96515132Y-134402477D01*
X96533441Y-134395471D01*
X96565735Y-134378889D01*
X96576021Y-134389175D01*
X96612069Y-134404107D01*
X96651087Y-134404107D01*
X96687135Y-134389175D01*
X96714725Y-134361585D01*
X96729657Y-134325537D01*
X96731578Y-134306028D01*
X96730395Y-133370545D01*
X96730793Y-133364950D01*
X96730386Y-133363731D01*
X96729682Y-132806028D01*
X97245863Y-132806028D01*
X97247666Y-134232773D01*
X97246648Y-134247108D01*
X97247688Y-134250230D01*
X97247784Y-134325537D01*
X97262716Y-134361585D01*
X97290306Y-134389175D01*
X97326354Y-134404107D01*
X97365372Y-134404107D01*
X97401420Y-134389175D01*
X97412404Y-134378190D01*
X97431447Y-134387458D01*
X97433164Y-134389175D01*
X97445324Y-134394212D01*
X97462309Y-134402478D01*
X97465894Y-134402732D01*
X97469212Y-134404107D01*
X97488721Y-134406028D01*
X97759175Y-134404325D01*
X97761927Y-134405243D01*
X97776354Y-134404217D01*
X97793944Y-134404107D01*
X97797264Y-134402731D01*
X97800848Y-134402477D01*
X97819156Y-134395471D01*
X97960837Y-134322722D01*
X97972849Y-134317747D01*
X97976729Y-134314562D01*
X97978604Y-134313600D01*
X97980336Y-134311602D01*
X97988003Y-134305311D01*
X98058802Y-134232216D01*
X98067721Y-134224482D01*
X98070368Y-134220276D01*
X98071868Y-134218728D01*
X98072878Y-134216288D01*
X98078164Y-134207892D01*
X98141578Y-134077588D01*
X98143296Y-134075871D01*
X98148338Y-134063697D01*
X98156598Y-134046726D01*
X98156852Y-134043143D01*
X98158228Y-134039823D01*
X98160149Y-134020314D01*
X98158377Y-133607208D01*
X98159364Y-133604250D01*
X98158301Y-133589294D01*
X98158228Y-133572233D01*
X98156852Y-133568912D01*
X98156598Y-133565330D01*
X98149592Y-133547021D01*
X98076845Y-133405344D01*
X98071868Y-133393327D01*
X98068681Y-133389444D01*
X98067721Y-133387574D01*
X98065726Y-133385843D01*
X98059431Y-133378174D01*
X97986337Y-133307374D01*
X97978604Y-133298457D01*
X97974398Y-133295809D01*
X97972849Y-133294309D01*
X97970407Y-133293297D01*
X97962013Y-133288014D01*
X97831709Y-133224598D01*
X97829992Y-133222881D01*
X97817822Y-133217840D01*
X97800848Y-133209579D01*
X97797264Y-133209324D01*
X97793944Y-133207949D01*
X97774435Y-133206028D01*
X97503979Y-133207730D01*
X97501228Y-133206813D01*
X97486801Y-133207838D01*
X97469212Y-133207949D01*
X97465891Y-133209324D01*
X97462308Y-133209579D01*
X97444485Y-133216399D01*
X97443942Y-132786519D01*
X97429010Y-132750471D01*
X97401420Y-132722881D01*
X97365372Y-132707949D01*
X97326354Y-132707949D01*
X97290306Y-132722881D01*
X97262716Y-132750471D01*
X97247784Y-132786519D01*
X97245863Y-132806028D01*
X96729682Y-132806028D01*
X96729657Y-132786519D01*
X96714725Y-132750471D01*
X96687135Y-132722881D01*
X96651087Y-132707949D01*
X96612069Y-132707949D01*
X96576021Y-132722881D01*
X96548431Y-132750471D01*
X96533499Y-132786519D01*
X96531578Y-132806028D01*
X96532098Y-133217835D01*
X96515133Y-133209579D01*
X96511549Y-133209324D01*
X96508229Y-133207949D01*
X96488720Y-133206028D01*
X96218264Y-133207730D01*
X96215513Y-133206813D01*
X96201086Y-133207838D01*
X96183497Y-133207949D01*
X96180176Y-133209324D01*
X96176593Y-133209579D01*
X96158284Y-133216585D01*
X96016607Y-133289332D01*
X96004592Y-133294309D01*
X96000709Y-133297495D01*
X95998837Y-133298457D01*
X95997105Y-133300453D01*
X95989439Y-133306746D01*
X95918639Y-133379837D01*
X95909720Y-133387573D01*
X95907072Y-133391778D01*
X95905573Y-133393327D01*
X95904562Y-133395767D01*
X95899277Y-133404164D01*
X95835862Y-133534467D01*
X95834145Y-133536185D01*
X95829104Y-133548352D01*
X95820843Y-133565329D01*
X95820588Y-133568912D01*
X95819213Y-133572233D01*
X95817292Y-133591742D01*
X95372730Y-133591742D01*
X95372597Y-133535977D01*
X95373650Y-133532821D01*
X95372553Y-133517393D01*
X95372514Y-133500805D01*
X95371138Y-133497484D01*
X95370884Y-133493901D01*
X95363878Y-133475592D01*
X95293254Y-133338052D01*
X95289882Y-133327934D01*
X95285413Y-133322782D01*
X95282006Y-133316145D01*
X95272533Y-133307929D01*
X95264318Y-133298457D01*
X95254444Y-133292242D01*
X95252529Y-133290581D01*
X95250990Y-133290068D01*
X95247727Y-133288014D01*
X95117423Y-133224598D01*
X95115706Y-133222881D01*
X95103536Y-133217840D01*
X95086562Y-133209579D01*
X95082978Y-133209324D01*
X95079658Y-133207949D01*
X95060149Y-133206028D01*
X94860925Y-133207664D01*
X94858370Y-133206813D01*
X94844481Y-133207800D01*
X94826354Y-133207949D01*
X94823033Y-133209324D01*
X94819450Y-133209579D01*
X94801141Y-133216585D01*
X94718306Y-133259118D01*
X94714724Y-133250471D01*
X94687134Y-133222881D01*
X94651086Y-133207949D01*
X94612068Y-133207949D01*
X94576020Y-133222881D01*
X94548430Y-133250471D01*
X94533498Y-133286519D01*
X94531577Y-133306028D01*
X93913741Y-133306028D01*
X93907175Y-133298457D01*
X93897301Y-133292242D01*
X93895386Y-133290581D01*
X93893847Y-133290068D01*
X93890584Y-133288014D01*
X93760280Y-133224598D01*
X93758563Y-133222881D01*
X93746393Y-133217840D01*
X93729419Y-133209579D01*
X93725835Y-133209324D01*
X93722515Y-133207949D01*
X93703006Y-133206028D01*
X93432550Y-133207730D01*
X93429799Y-133206813D01*
X93415372Y-133207838D01*
X93397783Y-133207949D01*
X93394462Y-133209324D01*
X93390879Y-133209579D01*
X93372571Y-133216585D01*
X93213122Y-133298457D01*
X93187558Y-133327934D01*
X93175219Y-133364950D01*
X93177985Y-133403870D01*
X93195434Y-133438769D01*
X93224911Y-133464333D01*
X93261927Y-133476672D01*
X93300847Y-133473906D01*
X93319155Y-133466900D01*
X93437958Y-133405897D01*
X93676622Y-133404395D01*
X93770830Y-133450244D01*
X93817340Y-133540823D01*
X93817486Y-133602011D01*
X93753815Y-133634705D01*
X93432674Y-133636343D01*
X93429800Y-133635385D01*
X93415049Y-133636432D01*
X93397783Y-133636521D01*
X93394465Y-133637895D01*
X93390880Y-133638150D01*
X93372571Y-133645157D01*
X93235033Y-133715777D01*
X93224911Y-133719152D01*
X93219757Y-133723621D01*
X93213123Y-133727028D01*
X93204908Y-133736499D01*
X93195434Y-133744716D01*
X93189221Y-133754586D01*
X93187558Y-133756504D01*
X93187044Y-133758044D01*
X93184991Y-133761307D01*
X93121576Y-133891610D01*
X93119859Y-133893328D01*
X93114818Y-133905495D01*
X93106557Y-133922472D01*
X93106302Y-133926055D01*
X93104927Y-133929376D01*
X93103006Y-133948885D01*
X92517080Y-133948885D01*
X92516280Y-133405009D01*
X92793943Y-133404107D01*
X92829991Y-133389175D01*
X92857581Y-133361585D01*
X92872513Y-133325537D01*
X92872513Y-133286519D01*
X92857581Y-133250471D01*
X92829991Y-133222881D01*
X92793943Y-133207949D01*
X92774434Y-133206028D01*
X92515988Y-133206868D01*
X92515370Y-132786519D01*
X92500438Y-132750471D01*
X92472848Y-132722881D01*
X92436800Y-132707949D01*
X92397782Y-132707949D01*
X92361734Y-132722881D01*
X92334144Y-132750471D01*
X92319212Y-132786519D01*
X92317291Y-132806028D01*
X92317881Y-133207512D01*
X92183497Y-133207949D01*
X92147449Y-133222881D01*
X92119859Y-133250471D01*
X92104927Y-133286519D01*
X92104927Y-133325537D01*
X91076516Y-133325537D01*
X91072437Y-133321586D01*
X91017044Y-133213705D01*
X91015907Y-133117614D01*
X91067831Y-133010922D01*
X91116017Y-132961176D01*
X91223624Y-132905922D01*
X91539054Y-132904314D01*
X91761927Y-132976672D01*
X91800847Y-132973906D01*
X91835746Y-132956456D01*
X91861311Y-132926980D01*
X91873650Y-132889964D01*
X91870884Y-132851044D01*
X91853434Y-132816145D01*
X91823958Y-132790580D01*
X91806058Y-132782589D01*
X91592352Y-132713207D01*
X91579658Y-132707949D01*
X91574631Y-132707454D01*
X91572657Y-132706813D01*
X91570022Y-132707000D01*
X91560149Y-132706028D01*
X91218387Y-132707771D01*
X91215513Y-132706813D01*
X91200767Y-132707860D01*
X91183497Y-132707949D01*
X91180176Y-132709324D01*
X91176593Y-132709579D01*
X91158284Y-132716585D01*
X91016607Y-132789332D01*
X91004592Y-132794309D01*
X91000709Y-132797495D01*
X90998837Y-132798457D01*
X90997105Y-132800453D01*
X90989439Y-132806746D01*
X90918639Y-132879837D01*
X90909720Y-132887573D01*
X90907072Y-132891778D01*
X90905573Y-132893327D01*
X90904562Y-132895767D01*
X90899277Y-132904164D01*
X90835862Y-133034467D01*
X90834145Y-133036185D01*
X90829104Y-133048352D01*
X90820843Y-133065329D01*
X90820588Y-133068912D01*
X90819213Y-133072233D01*
X90817292Y-133091742D01*
X90650625Y-133091742D01*
X90650625Y-130391112D01*
X90888720Y-130391112D01*
X90890641Y-131910621D01*
X90905573Y-131946669D01*
X90933163Y-131974259D01*
X90969211Y-131989191D01*
X90988720Y-131991112D01*
X91544575Y-131989305D01*
X91547641Y-131990327D01*
X91562857Y-131989245D01*
X91579658Y-131989191D01*
X91582978Y-131987815D01*
X91586562Y-131987561D01*
X91604870Y-131980555D01*
X91746551Y-131907806D01*
X91758563Y-131902831D01*
X91762443Y-131899646D01*
X91764318Y-131898684D01*
X91766050Y-131896686D01*
X91773717Y-131890395D01*
X91844516Y-131817300D01*
X91853435Y-131809566D01*
X91856082Y-131805360D01*
X91857582Y-131803812D01*
X91858592Y-131801372D01*
X91863878Y-131792976D01*
X91927292Y-131662672D01*
X91929010Y-131660955D01*
X91934052Y-131648781D01*
X91942312Y-131631810D01*
X91942566Y-131628227D01*
X91943942Y-131624907D01*
X91945863Y-131605398D01*
X91944226Y-131406175D01*
X91945078Y-131403620D01*
X91944090Y-131389731D01*
X91943942Y-131371603D01*
X91942566Y-131368282D01*
X91942312Y-131364700D01*
X91935306Y-131346391D01*
X91862559Y-131204713D01*
X91857582Y-131192698D01*
X91854396Y-131188815D01*
X91853435Y-131186944D01*
X91851440Y-131185214D01*
X91845146Y-131177544D01*
X91782849Y-131117203D01*
X91782005Y-131115514D01*
X91773405Y-131108055D01*
X91758563Y-131093679D01*
X91755244Y-131092304D01*
X91752529Y-131089949D01*
X91734628Y-131081958D01*
X91726769Y-131079406D01*
X91773088Y-131031586D01*
X91782006Y-131023853D01*
X91784653Y-131019647D01*
X91786153Y-131018099D01*
X91787163Y-131015660D01*
X91792449Y-131007263D01*
X91848976Y-130891112D01*
X92388720Y-130891112D01*
X92390641Y-131910621D01*
X92405573Y-131946669D01*
X92433163Y-131974259D01*
X92469211Y-131989191D01*
X92508229Y-131989191D01*
X92544277Y-131974259D01*
X92571867Y-131946669D01*
X92586799Y-131910621D01*
X92588720Y-131891112D01*
X92587422Y-131202521D01*
X92639260Y-131096006D01*
X92687446Y-131046260D01*
X92795330Y-130990864D01*
X92936801Y-130989191D01*
X92972849Y-130974259D01*
X93000439Y-130946669D01*
X93015371Y-130910621D01*
X93015371Y-130891112D01*
X93317291Y-130891112D01*
X93319212Y-131910621D01*
X93334144Y-131946669D01*
X93361734Y-131974259D01*
X93397782Y-131989191D01*
X93436800Y-131989191D01*
X93472848Y-131974259D01*
X93500438Y-131946669D01*
X93515370Y-131910621D01*
X93517291Y-131891112D01*
X93515945Y-131176826D01*
X93960149Y-131176826D01*
X93961920Y-131589931D01*
X93960934Y-131592890D01*
X93961996Y-131607845D01*
X93962070Y-131624907D01*
X93963445Y-131628227D01*
X93963700Y-131631811D01*
X93970706Y-131650119D01*
X94043454Y-131791800D01*
X94048430Y-131803812D01*
X94051614Y-131807692D01*
X94052577Y-131809567D01*
X94054574Y-131811299D01*
X94060866Y-131818966D01*
X94133960Y-131889765D01*
X94141695Y-131898684D01*
X94145900Y-131901331D01*
X94147449Y-131902831D01*
X94149888Y-131903841D01*
X94158285Y-131909127D01*
X94288588Y-131972541D01*
X94290306Y-131974259D01*
X94302479Y-131979301D01*
X94319451Y-131987561D01*
X94323033Y-131987815D01*
X94326354Y-131989191D01*
X94345863Y-131991112D01*
X94616317Y-131989409D01*
X94619069Y-131990327D01*
X94633495Y-131989301D01*
X94651086Y-131989191D01*
X94654406Y-131987815D01*
X94657989Y-131987561D01*
X94676131Y-131980618D01*
X94676283Y-132078570D01*
X94623895Y-132186215D01*
X94575707Y-132235965D01*
X94467975Y-132291282D01*
X94300638Y-132292657D01*
X94157989Y-132223235D01*
X94119069Y-132220469D01*
X94082053Y-132232808D01*
X94052577Y-132258373D01*
X94035128Y-132293272D01*
X94032362Y-132332192D01*
X94044701Y-132369208D01*
X94070266Y-132398684D01*
X94086856Y-132409127D01*
X94217161Y-132472542D01*
X94218878Y-132474259D01*
X94231038Y-132479296D01*
X94248023Y-132487562D01*
X94251608Y-132487816D01*
X94254926Y-132489191D01*
X94274435Y-132491112D01*
X94473656Y-132489475D01*
X94476212Y-132490327D01*
X94490100Y-132489339D01*
X94508229Y-132489191D01*
X94511549Y-132487815D01*
X94515133Y-132487561D01*
X94533441Y-132480555D01*
X94675122Y-132407806D01*
X94687134Y-132402831D01*
X94691014Y-132399646D01*
X94692889Y-132398684D01*
X94694621Y-132396686D01*
X94702288Y-132390395D01*
X94773083Y-132317304D01*
X94782006Y-132309567D01*
X94784655Y-132305358D01*
X94786153Y-132303812D01*
X94787162Y-132301375D01*
X94792449Y-132292977D01*
X94814163Y-132248360D01*
X102460150Y-132248360D01*
X102467802Y-132286620D01*
X102489513Y-132319040D01*
X102521978Y-132340683D01*
X102560255Y-132348255D01*
X102598515Y-132340603D01*
X102630935Y-132318892D01*
X102643355Y-132303725D01*
X103938292Y-130357856D01*
X103945864Y-130319579D01*
X103938212Y-130281319D01*
X103916501Y-130248899D01*
X103884036Y-130227256D01*
X103845760Y-130219684D01*
X103807499Y-130227336D01*
X103775079Y-130249047D01*
X103762659Y-130264214D01*
X102467722Y-132210083D01*
X102460150Y-132248360D01*
X94814163Y-132248360D01*
X94855864Y-132162672D01*
X94857582Y-132160955D01*
X94862622Y-132148786D01*
X94870884Y-132131811D01*
X94871138Y-132128227D01*
X94872514Y-132124907D01*
X94874435Y-132105398D01*
X94872657Y-130963994D01*
X94873650Y-130950034D01*
X94872631Y-130946978D01*
X94872514Y-130871603D01*
X94857582Y-130835555D01*
X94829992Y-130807965D01*
X94793944Y-130793033D01*
X94754926Y-130793033D01*
X94718878Y-130807965D01*
X94707893Y-130818949D01*
X94688851Y-130809682D01*
X94687134Y-130807965D01*
X94674965Y-130802924D01*
X94657990Y-130794663D01*
X94654406Y-130794408D01*
X94651086Y-130793033D01*
X94631577Y-130791112D01*
X94361121Y-130792814D01*
X94358370Y-130791897D01*
X94343943Y-130792922D01*
X94326354Y-130793033D01*
X94323033Y-130794408D01*
X94319450Y-130794663D01*
X94301141Y-130801669D01*
X94159464Y-130874416D01*
X94147449Y-130879393D01*
X94143566Y-130882579D01*
X94141694Y-130883541D01*
X94139962Y-130885537D01*
X94132296Y-130891830D01*
X94061496Y-130964921D01*
X94052577Y-130972657D01*
X94049929Y-130976862D01*
X94048430Y-130978411D01*
X94047419Y-130980851D01*
X94042134Y-130989248D01*
X93978719Y-131119551D01*
X93977002Y-131121269D01*
X93971961Y-131133436D01*
X93963700Y-131150413D01*
X93963445Y-131153996D01*
X93962070Y-131157317D01*
X93960149Y-131176826D01*
X93515945Y-131176826D01*
X93515370Y-130871603D01*
X93500438Y-130835555D01*
X93472848Y-130807965D01*
X93436800Y-130793033D01*
X93397782Y-130793033D01*
X93361734Y-130807965D01*
X93334144Y-130835555D01*
X93319212Y-130871603D01*
X93317291Y-130891112D01*
X93015371Y-130891112D01*
X93015371Y-130871603D01*
X93000439Y-130835555D01*
X92972849Y-130807965D01*
X92936801Y-130793033D01*
X92917292Y-130791112D01*
X92789135Y-130792628D01*
X92786942Y-130791897D01*
X92774159Y-130792805D01*
X92754926Y-130793033D01*
X92751605Y-130794408D01*
X92748022Y-130794663D01*
X92729713Y-130801669D01*
X92588036Y-130874416D01*
X92586805Y-130874926D01*
X92586799Y-130871603D01*
X92571867Y-130835555D01*
X92544277Y-130807965D01*
X92508229Y-130793033D01*
X92469211Y-130793033D01*
X92433163Y-130807965D01*
X92405573Y-130835555D01*
X92390641Y-130871603D01*
X92388720Y-130891112D01*
X91848976Y-130891112D01*
X91855864Y-130876958D01*
X91857582Y-130875241D01*
X91862622Y-130863072D01*
X91870884Y-130846097D01*
X91871138Y-130842513D01*
X91872514Y-130839193D01*
X91874435Y-130819684D01*
X91872918Y-130691526D01*
X91873650Y-130689333D01*
X91872741Y-130676550D01*
X91872514Y-130657317D01*
X91871138Y-130653996D01*
X91870884Y-130650413D01*
X91863878Y-130632104D01*
X91791127Y-130490421D01*
X91787660Y-130482050D01*
X93247784Y-130482050D01*
X93250644Y-130488954D01*
X93262716Y-130518099D01*
X93262720Y-130518103D01*
X93275152Y-130533252D01*
X93361733Y-130617116D01*
X93371760Y-130621269D01*
X93397782Y-130632048D01*
X93436799Y-130632048D01*
X93436800Y-130632048D01*
X93447357Y-130627674D01*
X93472848Y-130617117D01*
X93488001Y-130604680D01*
X93571867Y-130518099D01*
X93583939Y-130488954D01*
X93586799Y-130482050D01*
X93586799Y-130443032D01*
X93582425Y-130432474D01*
X93571868Y-130406984D01*
X93571862Y-130406978D01*
X93559431Y-130391830D01*
X93558690Y-130391112D01*
X95388720Y-130391112D01*
X95390641Y-131910621D01*
X95405573Y-131946669D01*
X95433163Y-131974259D01*
X95469211Y-131989191D01*
X95508229Y-131989191D01*
X95544277Y-131974259D01*
X95571867Y-131946669D01*
X95586799Y-131910621D01*
X95588720Y-131891112D01*
X95587688Y-131075506D01*
X95616017Y-131046260D01*
X95723752Y-130990941D01*
X95891086Y-130989566D01*
X95985116Y-131035328D01*
X96031626Y-131125907D01*
X96033499Y-131910621D01*
X96048431Y-131946669D01*
X96076021Y-131974259D01*
X96112069Y-131989191D01*
X96151087Y-131989191D01*
X96187135Y-131974259D01*
X96214725Y-131946669D01*
X96229657Y-131910621D01*
X96231578Y-131891112D01*
X96229740Y-131121061D01*
X96230793Y-131117905D01*
X96229696Y-131102477D01*
X96229657Y-131085889D01*
X96228281Y-131082568D01*
X96228027Y-131078985D01*
X96221021Y-131060676D01*
X96150397Y-130923136D01*
X96147025Y-130913018D01*
X96144946Y-130910621D01*
X96533499Y-130910621D01*
X96548431Y-130946669D01*
X96576021Y-130974259D01*
X96612069Y-130989191D01*
X96631578Y-130991112D01*
X96746745Y-130990737D01*
X96747732Y-131661066D01*
X96746648Y-131664319D01*
X96747759Y-131679964D01*
X96747784Y-131696335D01*
X96749159Y-131699655D01*
X96749414Y-131703239D01*
X96756420Y-131721547D01*
X96827042Y-131859087D01*
X96830416Y-131869207D01*
X96834883Y-131874358D01*
X96838292Y-131880996D01*
X96847767Y-131889213D01*
X96855981Y-131898684D01*
X96865852Y-131904897D01*
X96867769Y-131906560D01*
X96869307Y-131907073D01*
X96872571Y-131909127D01*
X97002874Y-131972541D01*
X97004592Y-131974259D01*
X97016765Y-131979301D01*
X97033737Y-131987561D01*
X97037319Y-131987815D01*
X97040640Y-131989191D01*
X97060149Y-131991112D01*
X97222515Y-131989191D01*
X97258563Y-131974259D01*
X97286153Y-131946669D01*
X97301085Y-131910621D01*
X97301085Y-131871603D01*
X97286153Y-131835555D01*
X97258563Y-131807965D01*
X97222515Y-131793033D01*
X97203006Y-131791112D01*
X97086021Y-131792496D01*
X96992323Y-131746896D01*
X96945832Y-131656353D01*
X96944852Y-130990093D01*
X97222515Y-130989191D01*
X97258563Y-130974259D01*
X97286153Y-130946669D01*
X97301085Y-130910621D01*
X97301085Y-130891112D01*
X97603006Y-130891112D01*
X97604927Y-131910621D01*
X97619859Y-131946669D01*
X97647449Y-131974259D01*
X97683497Y-131989191D01*
X97722515Y-131989191D01*
X97758563Y-131974259D01*
X97786153Y-131946669D01*
X97801085Y-131910621D01*
X97803006Y-131891112D01*
X97801470Y-131076027D01*
X97830303Y-131046260D01*
X97938038Y-130990941D01*
X98105372Y-130989566D01*
X98199402Y-131035328D01*
X98245912Y-131125907D01*
X98247785Y-131910621D01*
X98262717Y-131946669D01*
X98290307Y-131974259D01*
X98326355Y-131989191D01*
X98365373Y-131989191D01*
X98401421Y-131974259D01*
X98429011Y-131946669D01*
X98443943Y-131910621D01*
X98445864Y-131891112D01*
X98444671Y-131391217D01*
X98888721Y-131391217D01*
X98889665Y-131395939D01*
X98890527Y-131661252D01*
X98889506Y-131664318D01*
X98890587Y-131679534D01*
X98890642Y-131696335D01*
X98892017Y-131699655D01*
X98892272Y-131703238D01*
X98899278Y-131721547D01*
X98969898Y-131859085D01*
X98973273Y-131869208D01*
X98977742Y-131874360D01*
X98981149Y-131880996D01*
X98990623Y-131889212D01*
X98998838Y-131898684D01*
X99008709Y-131904897D01*
X99010626Y-131906560D01*
X99012165Y-131907073D01*
X99015428Y-131909127D01*
X99145733Y-131972542D01*
X99147450Y-131974259D01*
X99159610Y-131979296D01*
X99176595Y-131987562D01*
X99180180Y-131987816D01*
X99183498Y-131989191D01*
X99203007Y-131991112D01*
X99473461Y-131989409D01*
X99476213Y-131990327D01*
X99490640Y-131989301D01*
X99508230Y-131989191D01*
X99511550Y-131987815D01*
X99515134Y-131987561D01*
X99533442Y-131980555D01*
X99692890Y-131898684D01*
X99718454Y-131869207D01*
X99730793Y-131832191D01*
X99728028Y-131793271D01*
X99710578Y-131758372D01*
X99681102Y-131732808D01*
X99644086Y-131720469D01*
X99605166Y-131723235D01*
X99586857Y-131730241D01*
X99468055Y-131791242D01*
X99229389Y-131792744D01*
X99135180Y-131746896D01*
X99088654Y-131656283D01*
X99088058Y-131473011D01*
X99713095Y-131346334D01*
X99722516Y-131346334D01*
X99731541Y-131342595D01*
X99741372Y-131340603D01*
X99749512Y-131335151D01*
X99758564Y-131331402D01*
X99765563Y-131324402D01*
X99773792Y-131318892D01*
X99779227Y-131310738D01*
X99786154Y-131303812D01*
X99789944Y-131294663D01*
X99795435Y-131286427D01*
X99797336Y-131276815D01*
X99801086Y-131267764D01*
X99803007Y-131248255D01*
X99803005Y-131248160D01*
X99803008Y-131248150D01*
X99803005Y-131248138D01*
X99801490Y-131120098D01*
X99802222Y-131117905D01*
X99801333Y-131105398D01*
X100174435Y-131105398D01*
X100175652Y-131163021D01*
X100175220Y-131164318D01*
X100175874Y-131173521D01*
X100176356Y-131196335D01*
X100177731Y-131199655D01*
X100177986Y-131203238D01*
X100184992Y-131221547D01*
X100255612Y-131359085D01*
X100258987Y-131369208D01*
X100263456Y-131374360D01*
X100266863Y-131380996D01*
X100276337Y-131389212D01*
X100284552Y-131398684D01*
X100294423Y-131404897D01*
X100296340Y-131406560D01*
X100297879Y-131407073D01*
X100301142Y-131409127D01*
X100431447Y-131472542D01*
X100433164Y-131474259D01*
X100445324Y-131479296D01*
X100462309Y-131487562D01*
X100465894Y-131487816D01*
X100469212Y-131489191D01*
X100488721Y-131491112D01*
X100676800Y-131489566D01*
X100770830Y-131535328D01*
X100817741Y-131626688D01*
X100818271Y-131651783D01*
X100773075Y-131744652D01*
X100682340Y-131791242D01*
X100443674Y-131792744D01*
X100300848Y-131723235D01*
X100261927Y-131720469D01*
X100224912Y-131732808D01*
X100195435Y-131758373D01*
X100177986Y-131793271D01*
X100175220Y-131832192D01*
X100187559Y-131869207D01*
X100213124Y-131898684D01*
X100229714Y-131909127D01*
X100360017Y-131972541D01*
X100361735Y-131974259D01*
X100373908Y-131979301D01*
X100390880Y-131987561D01*
X100394462Y-131987815D01*
X100397783Y-131989191D01*
X100417292Y-131991112D01*
X100687746Y-131989409D01*
X100690498Y-131990327D01*
X100704925Y-131989301D01*
X100722515Y-131989191D01*
X100725835Y-131987815D01*
X100729419Y-131987561D01*
X100747727Y-131980555D01*
X100885266Y-131909933D01*
X100895386Y-131906560D01*
X100900538Y-131902091D01*
X100907175Y-131898684D01*
X100915390Y-131889211D01*
X100924863Y-131880996D01*
X100931077Y-131871122D01*
X100932739Y-131869207D01*
X100933251Y-131867668D01*
X100935306Y-131864405D01*
X100998721Y-131734100D01*
X101000439Y-131732383D01*
X101005479Y-131720214D01*
X101013741Y-131703239D01*
X101013995Y-131699655D01*
X101015371Y-131696335D01*
X101017292Y-131676826D01*
X101016074Y-131619201D01*
X101016507Y-131617905D01*
X101015852Y-131608701D01*
X101015371Y-131585889D01*
X101013995Y-131582568D01*
X101013741Y-131578985D01*
X101006735Y-131560676D01*
X100936111Y-131423136D01*
X100932739Y-131413018D01*
X100928270Y-131407866D01*
X100924863Y-131401229D01*
X100915390Y-131393013D01*
X100907175Y-131383541D01*
X100897301Y-131377326D01*
X100895386Y-131375665D01*
X100893847Y-131375152D01*
X100890584Y-131373098D01*
X100760280Y-131309682D01*
X100758563Y-131307965D01*
X100746393Y-131302924D01*
X100729419Y-131294663D01*
X100725835Y-131294408D01*
X100722515Y-131293033D01*
X100703006Y-131291112D01*
X100514924Y-131292657D01*
X100420894Y-131246896D01*
X100373985Y-131155537D01*
X100373455Y-131130439D01*
X100385642Y-131105398D01*
X101388721Y-131105398D01*
X101389938Y-131163021D01*
X101389506Y-131164318D01*
X101390160Y-131173521D01*
X101390642Y-131196335D01*
X101392017Y-131199655D01*
X101392272Y-131203238D01*
X101399278Y-131221547D01*
X101469898Y-131359085D01*
X101473273Y-131369208D01*
X101477742Y-131374360D01*
X101481149Y-131380996D01*
X101490623Y-131389212D01*
X101498838Y-131398684D01*
X101508709Y-131404897D01*
X101510626Y-131406560D01*
X101512165Y-131407073D01*
X101515428Y-131409127D01*
X101645733Y-131472542D01*
X101647450Y-131474259D01*
X101659610Y-131479296D01*
X101676595Y-131487562D01*
X101680180Y-131487816D01*
X101683498Y-131489191D01*
X101703007Y-131491112D01*
X101891086Y-131489566D01*
X101985116Y-131535328D01*
X102032027Y-131626688D01*
X102032557Y-131651783D01*
X101987361Y-131744652D01*
X101896626Y-131791242D01*
X101657960Y-131792744D01*
X101515134Y-131723235D01*
X101476213Y-131720469D01*
X101439198Y-131732808D01*
X101409721Y-131758373D01*
X101392272Y-131793271D01*
X101389506Y-131832192D01*
X101401845Y-131869207D01*
X101427410Y-131898684D01*
X101444000Y-131909127D01*
X101574303Y-131972541D01*
X101576021Y-131974259D01*
X101588194Y-131979301D01*
X101605166Y-131987561D01*
X101608748Y-131987815D01*
X101612069Y-131989191D01*
X101631578Y-131991112D01*
X101902032Y-131989409D01*
X101904784Y-131990327D01*
X101919211Y-131989301D01*
X101936801Y-131989191D01*
X101940121Y-131987815D01*
X101943705Y-131987561D01*
X101962013Y-131980555D01*
X102099552Y-131909933D01*
X102109672Y-131906560D01*
X102114824Y-131902091D01*
X102121461Y-131898684D01*
X102129676Y-131889211D01*
X102139149Y-131880996D01*
X102145363Y-131871122D01*
X102147025Y-131869207D01*
X102147537Y-131867668D01*
X102149592Y-131864405D01*
X102213007Y-131734100D01*
X102214725Y-131732383D01*
X102219765Y-131720214D01*
X102228027Y-131703239D01*
X102228281Y-131699655D01*
X102229657Y-131696335D01*
X102231578Y-131676826D01*
X102230360Y-131619201D01*
X102230793Y-131617905D01*
X102230138Y-131608701D01*
X102229657Y-131585889D01*
X102228281Y-131582568D01*
X102228027Y-131578985D01*
X102221021Y-131560676D01*
X102150397Y-131423136D01*
X102147025Y-131413018D01*
X102142556Y-131407866D01*
X102139149Y-131401229D01*
X102129676Y-131393013D01*
X102121461Y-131383541D01*
X102111587Y-131377326D01*
X102109672Y-131375665D01*
X102108133Y-131375152D01*
X102104870Y-131373098D01*
X101974566Y-131309682D01*
X101972849Y-131307965D01*
X101960679Y-131302924D01*
X101943705Y-131294663D01*
X101940121Y-131294408D01*
X101936801Y-131293033D01*
X101917292Y-131291112D01*
X101729210Y-131292657D01*
X101635180Y-131246896D01*
X101588271Y-131155537D01*
X101587741Y-131130439D01*
X101632936Y-131037572D01*
X101723752Y-130990941D01*
X101891086Y-130989566D01*
X102033736Y-131058990D01*
X102072656Y-131061756D01*
X102109672Y-131049417D01*
X102139148Y-131023853D01*
X102156598Y-130988954D01*
X102159364Y-130950034D01*
X102147025Y-130913018D01*
X102121461Y-130883541D01*
X102104870Y-130873098D01*
X101974566Y-130809682D01*
X101972849Y-130807965D01*
X101960679Y-130802924D01*
X101943705Y-130794663D01*
X101940121Y-130794408D01*
X101936801Y-130793033D01*
X101917292Y-130791112D01*
X101718069Y-130792748D01*
X101715514Y-130791897D01*
X101701625Y-130792884D01*
X101683498Y-130793033D01*
X101680177Y-130794408D01*
X101676594Y-130794663D01*
X101658286Y-130801669D01*
X101520745Y-130872291D01*
X101510626Y-130875665D01*
X101505473Y-130880133D01*
X101498837Y-130883541D01*
X101490621Y-130893013D01*
X101481149Y-130901229D01*
X101474934Y-130911102D01*
X101473273Y-130913018D01*
X101472760Y-130914556D01*
X101470706Y-130917820D01*
X101407291Y-131048123D01*
X101405574Y-131049841D01*
X101400533Y-131062008D01*
X101392272Y-131078985D01*
X101392017Y-131082568D01*
X101390642Y-131085889D01*
X101388721Y-131105398D01*
X100385642Y-131105398D01*
X100418650Y-131037572D01*
X100509466Y-130990941D01*
X100676800Y-130989566D01*
X100819450Y-131058990D01*
X100858370Y-131061756D01*
X100895386Y-131049417D01*
X100924862Y-131023853D01*
X100942312Y-130988954D01*
X100945078Y-130950034D01*
X100932739Y-130913018D01*
X100907175Y-130883541D01*
X100890584Y-130873098D01*
X100760280Y-130809682D01*
X100758563Y-130807965D01*
X100746393Y-130802924D01*
X100729419Y-130794663D01*
X100725835Y-130794408D01*
X100722515Y-130793033D01*
X100703006Y-130791112D01*
X100503783Y-130792748D01*
X100501228Y-130791897D01*
X100487339Y-130792884D01*
X100469212Y-130793033D01*
X100465891Y-130794408D01*
X100462308Y-130794663D01*
X100444000Y-130801669D01*
X100306459Y-130872291D01*
X100296340Y-130875665D01*
X100291187Y-130880133D01*
X100284551Y-130883541D01*
X100276335Y-130893013D01*
X100266863Y-130901229D01*
X100260648Y-130911102D01*
X100258987Y-130913018D01*
X100258474Y-130914556D01*
X100256420Y-130917820D01*
X100193005Y-131048123D01*
X100191288Y-131049841D01*
X100186247Y-131062008D01*
X100177986Y-131078985D01*
X100177731Y-131082568D01*
X100176356Y-131085889D01*
X100174435Y-131105398D01*
X99801333Y-131105398D01*
X99801313Y-131105122D01*
X99801086Y-131085889D01*
X99799710Y-131082568D01*
X99799456Y-131078985D01*
X99792450Y-131060676D01*
X99721826Y-130923136D01*
X99718454Y-130913018D01*
X99713985Y-130907866D01*
X99710578Y-130901229D01*
X99701105Y-130893013D01*
X99692890Y-130883541D01*
X99683016Y-130877326D01*
X99681101Y-130875665D01*
X99679562Y-130875152D01*
X99676299Y-130873098D01*
X99545995Y-130809682D01*
X99544278Y-130807965D01*
X99532108Y-130802924D01*
X99515134Y-130794663D01*
X99511550Y-130794408D01*
X99508230Y-130793033D01*
X99488721Y-130791112D01*
X99218265Y-130792814D01*
X99215514Y-130791897D01*
X99201087Y-130792922D01*
X99183498Y-130793033D01*
X99180177Y-130794408D01*
X99176594Y-130794663D01*
X99158286Y-130801669D01*
X99020745Y-130872291D01*
X99010626Y-130875665D01*
X99005473Y-130880133D01*
X98998837Y-130883541D01*
X98990621Y-130893013D01*
X98981149Y-130901229D01*
X98974934Y-130911102D01*
X98973273Y-130913018D01*
X98972760Y-130914556D01*
X98970706Y-130917820D01*
X98907291Y-131048123D01*
X98905574Y-131049841D01*
X98900533Y-131062008D01*
X98892272Y-131078985D01*
X98892017Y-131082568D01*
X98890642Y-131085889D01*
X98888721Y-131105398D01*
X98889635Y-131386596D01*
X98888721Y-131391217D01*
X98444671Y-131391217D01*
X98444026Y-131121061D01*
X98445079Y-131117905D01*
X98443982Y-131102477D01*
X98443943Y-131085889D01*
X98442567Y-131082568D01*
X98442313Y-131078985D01*
X98435307Y-131060676D01*
X98364683Y-130923136D01*
X98361311Y-130913018D01*
X98356842Y-130907866D01*
X98353435Y-130901229D01*
X98343962Y-130893013D01*
X98335747Y-130883541D01*
X98325873Y-130877326D01*
X98323958Y-130875665D01*
X98322419Y-130875152D01*
X98319156Y-130873098D01*
X98188852Y-130809682D01*
X98187135Y-130807965D01*
X98174965Y-130802924D01*
X98157991Y-130794663D01*
X98154407Y-130794408D01*
X98151087Y-130793033D01*
X98131578Y-130791112D01*
X97932354Y-130792748D01*
X97929799Y-130791897D01*
X97915910Y-130792884D01*
X97897783Y-130793033D01*
X97894462Y-130794408D01*
X97890879Y-130794663D01*
X97872570Y-130801669D01*
X97789735Y-130844202D01*
X97786153Y-130835555D01*
X97758563Y-130807965D01*
X97722515Y-130793033D01*
X97683497Y-130793033D01*
X97647449Y-130807965D01*
X97619859Y-130835555D01*
X97604927Y-130871603D01*
X97603006Y-130891112D01*
X97301085Y-130891112D01*
X97301085Y-130871603D01*
X97286153Y-130835555D01*
X97258563Y-130807965D01*
X97222515Y-130793033D01*
X97203006Y-130791112D01*
X96944560Y-130791952D01*
X96943942Y-130371603D01*
X96929010Y-130335555D01*
X96901420Y-130307965D01*
X96865372Y-130293033D01*
X96826354Y-130293033D01*
X96790306Y-130307965D01*
X96762716Y-130335555D01*
X96747784Y-130371603D01*
X96745863Y-130391112D01*
X96746453Y-130792596D01*
X96612069Y-130793033D01*
X96576021Y-130807965D01*
X96548431Y-130835555D01*
X96533499Y-130871603D01*
X96533499Y-130910621D01*
X96144946Y-130910621D01*
X96142556Y-130907866D01*
X96139149Y-130901229D01*
X96129676Y-130893013D01*
X96121461Y-130883541D01*
X96111587Y-130877326D01*
X96109672Y-130875665D01*
X96108133Y-130875152D01*
X96104870Y-130873098D01*
X95974566Y-130809682D01*
X95972849Y-130807965D01*
X95960679Y-130802924D01*
X95943705Y-130794663D01*
X95940121Y-130794408D01*
X95936801Y-130793033D01*
X95917292Y-130791112D01*
X95718068Y-130792748D01*
X95715513Y-130791897D01*
X95701624Y-130792884D01*
X95683497Y-130793033D01*
X95680176Y-130794408D01*
X95676593Y-130794663D01*
X95658284Y-130801669D01*
X95587388Y-130838071D01*
X95586799Y-130371603D01*
X95571867Y-130335555D01*
X95544277Y-130307965D01*
X95508229Y-130293033D01*
X95469211Y-130293033D01*
X95433163Y-130307965D01*
X95405573Y-130335555D01*
X95390641Y-130371603D01*
X95388720Y-130391112D01*
X93558690Y-130391112D01*
X93472879Y-130307995D01*
X93472848Y-130307964D01*
X93447357Y-130297406D01*
X93436800Y-130293033D01*
X93397782Y-130293033D01*
X93376665Y-130301780D01*
X93361733Y-130307965D01*
X93346580Y-130320402D01*
X93262715Y-130406984D01*
X93252157Y-130432474D01*
X93247784Y-130443032D01*
X93247784Y-130482050D01*
X91787660Y-130482050D01*
X91786153Y-130478411D01*
X91782967Y-130474530D01*
X91782006Y-130472657D01*
X91780008Y-130470924D01*
X91773716Y-130463258D01*
X91700628Y-130392464D01*
X91692890Y-130383541D01*
X91688681Y-130380892D01*
X91687135Y-130379394D01*
X91684697Y-130378384D01*
X91676299Y-130373098D01*
X91545994Y-130309682D01*
X91544277Y-130307965D01*
X91532108Y-130302924D01*
X91515133Y-130294663D01*
X91511549Y-130294408D01*
X91508229Y-130293033D01*
X91488720Y-130291112D01*
X90969211Y-130293033D01*
X90933163Y-130307965D01*
X90905573Y-130335555D01*
X90890641Y-130371603D01*
X90888720Y-130391112D01*
X90650625Y-130391112D01*
X90650625Y-130053017D01*
X104112531Y-130053017D01*
X104112531Y-135071910D01*
G37*
X117488720Y-131105398D02*
X117703006Y-131176826D01*
X117703006Y-131176826D02*
X117774435Y-131248255D01*
X117774435Y-131248255D02*
X117845863Y-131391112D01*
X117845863Y-131391112D02*
X117845863Y-131605398D01*
X117845863Y-131605398D02*
X117774435Y-131748255D01*
X117774435Y-131748255D02*
X117703006Y-131819684D01*
X117703006Y-131819684D02*
X117560149Y-131891112D01*
X117560149Y-131891112D02*
X116988720Y-131891112D01*
X116988720Y-131891112D02*
X116988720Y-130391112D01*
X116988720Y-130391112D02*
X117488720Y-130391112D01*
X117488720Y-130391112D02*
X117631578Y-130462541D01*
X117631578Y-130462541D02*
X117703006Y-130533969D01*
X117703006Y-130533969D02*
X117774435Y-130676826D01*
X117774435Y-130676826D02*
X117774435Y-130819684D01*
X117774435Y-130819684D02*
X117703006Y-130962541D01*
X117703006Y-130962541D02*
X117631578Y-131033969D01*
X117631578Y-131033969D02*
X117488720Y-131105398D01*
X117488720Y-131105398D02*
X116988720Y-131105398D01*
X119131578Y-131891112D02*
X119131578Y-131105398D01*
X119131578Y-131105398D02*
X119060149Y-130962541D01*
X119060149Y-130962541D02*
X118917292Y-130891112D01*
X118917292Y-130891112D02*
X118631578Y-130891112D01*
X118631578Y-130891112D02*
X118488720Y-130962541D01*
X119131578Y-131819684D02*
X118988720Y-131891112D01*
X118988720Y-131891112D02*
X118631578Y-131891112D01*
X118631578Y-131891112D02*
X118488720Y-131819684D01*
X118488720Y-131819684D02*
X118417292Y-131676826D01*
X118417292Y-131676826D02*
X118417292Y-131533969D01*
X118417292Y-131533969D02*
X118488720Y-131391112D01*
X118488720Y-131391112D02*
X118631578Y-131319684D01*
X118631578Y-131319684D02*
X118988720Y-131319684D01*
X118988720Y-131319684D02*
X119131578Y-131248255D01*
X120488721Y-131819684D02*
X120345863Y-131891112D01*
X120345863Y-131891112D02*
X120060149Y-131891112D01*
X120060149Y-131891112D02*
X119917292Y-131819684D01*
X119917292Y-131819684D02*
X119845863Y-131748255D01*
X119845863Y-131748255D02*
X119774435Y-131605398D01*
X119774435Y-131605398D02*
X119774435Y-131176826D01*
X119774435Y-131176826D02*
X119845863Y-131033969D01*
X119845863Y-131033969D02*
X119917292Y-130962541D01*
X119917292Y-130962541D02*
X120060149Y-130891112D01*
X120060149Y-130891112D02*
X120345863Y-130891112D01*
X120345863Y-130891112D02*
X120488721Y-130962541D01*
X121131577Y-131891112D02*
X121131577Y-130391112D01*
X121274435Y-131319684D02*
X121703006Y-131891112D01*
X121703006Y-130891112D02*
X121131577Y-131462541D01*
X123417292Y-130319684D02*
X122131578Y-132248255D01*
X116988720Y-134306028D02*
X116988720Y-132806028D01*
X116988720Y-133520314D02*
X117845863Y-133520314D01*
X117845863Y-134306028D02*
X117845863Y-132806028D01*
X118774435Y-134306028D02*
X118631578Y-134234600D01*
X118631578Y-134234600D02*
X118560149Y-134163171D01*
X118560149Y-134163171D02*
X118488721Y-134020314D01*
X118488721Y-134020314D02*
X118488721Y-133591742D01*
X118488721Y-133591742D02*
X118560149Y-133448885D01*
X118560149Y-133448885D02*
X118631578Y-133377457D01*
X118631578Y-133377457D02*
X118774435Y-133306028D01*
X118774435Y-133306028D02*
X118988721Y-133306028D01*
X118988721Y-133306028D02*
X119131578Y-133377457D01*
X119131578Y-133377457D02*
X119203007Y-133448885D01*
X119203007Y-133448885D02*
X119274435Y-133591742D01*
X119274435Y-133591742D02*
X119274435Y-134020314D01*
X119274435Y-134020314D02*
X119203007Y-134163171D01*
X119203007Y-134163171D02*
X119131578Y-134234600D01*
X119131578Y-134234600D02*
X118988721Y-134306028D01*
X118988721Y-134306028D02*
X118774435Y-134306028D01*
X119917292Y-134306028D02*
X119917292Y-133306028D01*
X119917292Y-133448885D02*
X119988721Y-133377457D01*
X119988721Y-133377457D02*
X120131578Y-133306028D01*
X120131578Y-133306028D02*
X120345864Y-133306028D01*
X120345864Y-133306028D02*
X120488721Y-133377457D01*
X120488721Y-133377457D02*
X120560150Y-133520314D01*
X120560150Y-133520314D02*
X120560150Y-134306028D01*
X120560150Y-133520314D02*
X120631578Y-133377457D01*
X120631578Y-133377457D02*
X120774435Y-133306028D01*
X120774435Y-133306028D02*
X120988721Y-133306028D01*
X120988721Y-133306028D02*
X121131578Y-133377457D01*
X121131578Y-133377457D02*
X121203007Y-133520314D01*
X121203007Y-133520314D02*
X121203007Y-134306028D01*
X122488721Y-134234600D02*
X122345864Y-134306028D01*
X122345864Y-134306028D02*
X122060150Y-134306028D01*
X122060150Y-134306028D02*
X121917292Y-134234600D01*
X121917292Y-134234600D02*
X121845864Y-134091742D01*
X121845864Y-134091742D02*
X121845864Y-133520314D01*
X121845864Y-133520314D02*
X121917292Y-133377457D01*
X121917292Y-133377457D02*
X122060150Y-133306028D01*
X122060150Y-133306028D02*
X122345864Y-133306028D01*
X122345864Y-133306028D02*
X122488721Y-133377457D01*
X122488721Y-133377457D02*
X122560150Y-133520314D01*
X122560150Y-133520314D02*
X122560150Y-133663171D01*
X122560150Y-133663171D02*
X121845864Y-133806028D01*
G36*
X103721960Y-145450244D02*
G01*
X103768669Y-145541209D01*
X103769143Y-145581259D01*
X103252816Y-145685904D01*
X103252365Y-145546981D01*
X103298351Y-145452488D01*
X103389088Y-145405897D01*
X103627752Y-145404395D01*
X103721960Y-145450244D01*
G37*
G36*
X104020669Y-143041652D02*
G01*
X104070417Y-143089839D01*
X104125652Y-143197411D01*
X104127287Y-143578828D01*
X104075024Y-143686216D01*
X104026837Y-143735965D01*
X103919105Y-143791282D01*
X103751768Y-143792657D01*
X103644745Y-143740572D01*
X103594996Y-143692385D01*
X103539761Y-143584813D01*
X103538126Y-143203395D01*
X103590389Y-143096006D01*
X103638575Y-143046260D01*
X103746310Y-142990941D01*
X103913644Y-142989566D01*
X104020669Y-143041652D01*
G37*
G36*
X105412078Y-143023566D02*
G01*
X105413006Y-143757737D01*
X105347755Y-143791242D01*
X105109089Y-143792744D01*
X105001888Y-143740572D01*
X104952139Y-143692385D01*
X104896904Y-143584813D01*
X104895269Y-143203395D01*
X104947532Y-143096006D01*
X104995718Y-143046260D01*
X105103374Y-142990981D01*
X105342038Y-142989479D01*
X105412078Y-143023566D01*
G37*
G36*
X105990310Y-146572695D02*
G01*
X101458898Y-146572695D01*
X101458898Y-145091742D01*
X101625565Y-145091742D01*
X101627081Y-145219898D01*
X101626350Y-145222092D01*
X101627258Y-145234874D01*
X101627486Y-145254109D01*
X101628861Y-145257429D01*
X101629116Y-145261013D01*
X101636122Y-145279321D01*
X101708870Y-145421001D01*
X101713846Y-145433015D01*
X101717031Y-145436895D01*
X101717993Y-145438769D01*
X101719990Y-145440501D01*
X101726283Y-145448168D01*
X101799376Y-145518967D01*
X101807110Y-145527885D01*
X101811315Y-145530532D01*
X101812865Y-145532033D01*
X101815305Y-145533043D01*
X101823700Y-145538328D01*
X101961080Y-145605187D01*
X101968565Y-145610733D01*
X101983269Y-145615986D01*
X101984866Y-145616763D01*
X101985588Y-145616814D01*
X101987026Y-145617328D01*
X102255285Y-145682651D01*
X102377813Y-145742282D01*
X102427559Y-145790468D01*
X102482955Y-145898352D01*
X102484092Y-145994441D01*
X102432167Y-146101133D01*
X102383980Y-146150881D01*
X102276375Y-146206133D01*
X101960944Y-146207741D01*
X101738072Y-146135385D01*
X101699152Y-146138151D01*
X101664253Y-146155601D01*
X101638688Y-146185077D01*
X101626350Y-146222093D01*
X101629116Y-146261013D01*
X101646566Y-146295912D01*
X101676042Y-146321477D01*
X101693942Y-146329468D01*
X101907645Y-146398847D01*
X101920342Y-146404107D01*
X101925369Y-146404602D01*
X101927344Y-146405243D01*
X101929977Y-146405055D01*
X101939851Y-146406028D01*
X102281610Y-146404284D01*
X102284485Y-146405243D01*
X102299229Y-146404195D01*
X102316502Y-146404107D01*
X102319822Y-146402731D01*
X102323405Y-146402477D01*
X102341714Y-146395471D01*
X102483395Y-146322723D01*
X102495409Y-146317747D01*
X102499289Y-146314561D01*
X102501163Y-146313600D01*
X102502895Y-146311602D01*
X102510562Y-146305310D01*
X102581361Y-146232216D01*
X102590279Y-146224483D01*
X102592926Y-146220277D01*
X102594427Y-146218728D01*
X102595437Y-146216287D01*
X102600722Y-146207893D01*
X102664137Y-146077588D01*
X102665855Y-146075871D01*
X102670895Y-146063702D01*
X102679157Y-146046727D01*
X102679411Y-146043143D01*
X102680787Y-146039823D01*
X102682708Y-146020314D01*
X102681191Y-145892157D01*
X102681923Y-145889964D01*
X102681014Y-145877181D01*
X102680787Y-145857948D01*
X102679411Y-145854627D01*
X102679157Y-145851044D01*
X102672151Y-145832735D01*
X102658491Y-145806133D01*
X103054136Y-145806133D01*
X103055080Y-145810855D01*
X103055942Y-146076168D01*
X103054921Y-146079234D01*
X103056002Y-146094450D01*
X103056057Y-146111251D01*
X103057432Y-146114571D01*
X103057687Y-146118154D01*
X103064693Y-146136463D01*
X103135313Y-146274001D01*
X103138688Y-146284124D01*
X103143157Y-146289276D01*
X103146564Y-146295912D01*
X103156038Y-146304128D01*
X103164253Y-146313600D01*
X103174124Y-146319813D01*
X103176041Y-146321476D01*
X103177580Y-146321989D01*
X103180843Y-146324043D01*
X103311148Y-146387458D01*
X103312865Y-146389175D01*
X103325025Y-146394212D01*
X103342010Y-146402478D01*
X103345595Y-146402732D01*
X103348913Y-146404107D01*
X103368422Y-146406028D01*
X103638876Y-146404325D01*
X103641628Y-146405243D01*
X103656055Y-146404217D01*
X103673645Y-146404107D01*
X103676965Y-146402731D01*
X103680549Y-146402477D01*
X103698857Y-146395471D01*
X103858305Y-146313600D01*
X103883869Y-146284123D01*
X103896208Y-146247107D01*
X103893443Y-146208187D01*
X103875993Y-146173288D01*
X103846517Y-146147724D01*
X103809501Y-146135385D01*
X103770581Y-146138151D01*
X103752272Y-146145157D01*
X103633470Y-146206158D01*
X103394804Y-146207660D01*
X103300595Y-146161812D01*
X103254069Y-146071199D01*
X103253473Y-145887927D01*
X103878510Y-145761250D01*
X103887931Y-145761250D01*
X103896956Y-145757511D01*
X103906787Y-145755519D01*
X103914927Y-145750067D01*
X103923979Y-145746318D01*
X103930978Y-145739318D01*
X103939207Y-145733808D01*
X103944642Y-145725654D01*
X103951569Y-145718728D01*
X103955357Y-145709581D01*
X103960850Y-145701343D01*
X103962751Y-145691731D01*
X103966501Y-145682680D01*
X103968422Y-145663171D01*
X103968420Y-145663076D01*
X103968423Y-145663066D01*
X103968420Y-145663054D01*
X103966905Y-145535014D01*
X103967637Y-145532821D01*
X103966728Y-145520038D01*
X103966501Y-145500805D01*
X103965125Y-145497484D01*
X103964871Y-145493901D01*
X103957865Y-145475592D01*
X103887241Y-145338052D01*
X103883869Y-145327934D01*
X103881790Y-145325537D01*
X104198914Y-145325537D01*
X104213846Y-145361585D01*
X104241436Y-145389175D01*
X104277484Y-145404107D01*
X104296993Y-145406028D01*
X104412160Y-145405653D01*
X104413147Y-146075982D01*
X104412063Y-146079235D01*
X104413174Y-146094880D01*
X104413199Y-146111251D01*
X104414574Y-146114571D01*
X104414829Y-146118155D01*
X104421835Y-146136463D01*
X104492457Y-146274003D01*
X104495831Y-146284123D01*
X104500298Y-146289274D01*
X104503707Y-146295912D01*
X104513182Y-146304129D01*
X104521396Y-146313600D01*
X104531267Y-146319813D01*
X104533184Y-146321476D01*
X104534722Y-146321989D01*
X104537986Y-146324043D01*
X104668289Y-146387457D01*
X104670007Y-146389175D01*
X104682180Y-146394217D01*
X104699152Y-146402477D01*
X104702734Y-146402731D01*
X104706055Y-146404107D01*
X104725564Y-146406028D01*
X104887930Y-146404107D01*
X104923978Y-146389175D01*
X104951568Y-146361585D01*
X104966500Y-146325537D01*
X104966500Y-146286519D01*
X104951568Y-146250471D01*
X104923978Y-146222881D01*
X104887930Y-146207949D01*
X104868421Y-146206028D01*
X104751436Y-146207412D01*
X104657738Y-146161812D01*
X104611247Y-146071269D01*
X104610267Y-145405009D01*
X104887930Y-145404107D01*
X104923978Y-145389175D01*
X104951568Y-145361585D01*
X104966500Y-145325537D01*
X105056057Y-145325537D01*
X105070989Y-145361585D01*
X105098579Y-145389175D01*
X105134627Y-145404107D01*
X105154136Y-145406028D01*
X105269303Y-145405653D01*
X105270290Y-146075982D01*
X105269206Y-146079235D01*
X105270317Y-146094880D01*
X105270342Y-146111251D01*
X105271717Y-146114571D01*
X105271972Y-146118155D01*
X105278978Y-146136463D01*
X105349600Y-146274003D01*
X105352974Y-146284123D01*
X105357441Y-146289274D01*
X105360850Y-146295912D01*
X105370325Y-146304129D01*
X105378539Y-146313600D01*
X105388410Y-146319813D01*
X105390327Y-146321476D01*
X105391865Y-146321989D01*
X105395129Y-146324043D01*
X105525432Y-146387457D01*
X105527150Y-146389175D01*
X105539323Y-146394217D01*
X105556295Y-146402477D01*
X105559877Y-146402731D01*
X105563198Y-146404107D01*
X105582707Y-146406028D01*
X105745073Y-146404107D01*
X105781121Y-146389175D01*
X105808711Y-146361585D01*
X105823643Y-146325537D01*
X105823643Y-146286519D01*
X105808711Y-146250471D01*
X105781121Y-146222881D01*
X105745073Y-146207949D01*
X105725564Y-146206028D01*
X105608579Y-146207412D01*
X105514881Y-146161812D01*
X105468390Y-146071269D01*
X105467410Y-145405009D01*
X105745073Y-145404107D01*
X105781121Y-145389175D01*
X105808711Y-145361585D01*
X105823643Y-145325537D01*
X105823643Y-145286519D01*
X105808711Y-145250471D01*
X105781121Y-145222881D01*
X105745073Y-145207949D01*
X105725564Y-145206028D01*
X105467118Y-145206868D01*
X105466500Y-144786519D01*
X105451568Y-144750471D01*
X105423978Y-144722881D01*
X105387930Y-144707949D01*
X105348912Y-144707949D01*
X105312864Y-144722881D01*
X105285274Y-144750471D01*
X105270342Y-144786519D01*
X105268421Y-144806028D01*
X105269011Y-145207512D01*
X105134627Y-145207949D01*
X105098579Y-145222881D01*
X105070989Y-145250471D01*
X105056057Y-145286519D01*
X105056057Y-145325537D01*
X104966500Y-145325537D01*
X104966500Y-145286519D01*
X104951568Y-145250471D01*
X104923978Y-145222881D01*
X104887930Y-145207949D01*
X104868421Y-145206028D01*
X104609975Y-145206868D01*
X104609357Y-144786519D01*
X104594425Y-144750471D01*
X104566835Y-144722881D01*
X104530787Y-144707949D01*
X104491769Y-144707949D01*
X104455721Y-144722881D01*
X104428131Y-144750471D01*
X104413199Y-144786519D01*
X104411278Y-144806028D01*
X104411868Y-145207512D01*
X104277484Y-145207949D01*
X104241436Y-145222881D01*
X104213846Y-145250471D01*
X104198914Y-145286519D01*
X104198914Y-145325537D01*
X103881790Y-145325537D01*
X103879400Y-145322782D01*
X103875993Y-145316145D01*
X103866520Y-145307929D01*
X103858305Y-145298457D01*
X103848431Y-145292242D01*
X103846516Y-145290581D01*
X103844977Y-145290068D01*
X103841714Y-145288014D01*
X103711410Y-145224598D01*
X103709693Y-145222881D01*
X103697523Y-145217840D01*
X103680549Y-145209579D01*
X103676965Y-145209324D01*
X103673645Y-145207949D01*
X103654136Y-145206028D01*
X103383680Y-145207730D01*
X103380929Y-145206813D01*
X103366502Y-145207838D01*
X103348913Y-145207949D01*
X103345592Y-145209324D01*
X103342009Y-145209579D01*
X103323701Y-145216585D01*
X103186160Y-145287207D01*
X103176041Y-145290581D01*
X103170888Y-145295049D01*
X103164252Y-145298457D01*
X103156036Y-145307929D01*
X103146564Y-145316145D01*
X103140349Y-145326018D01*
X103138688Y-145327934D01*
X103138175Y-145329472D01*
X103136121Y-145332736D01*
X103072706Y-145463039D01*
X103070989Y-145464757D01*
X103065948Y-145476924D01*
X103057687Y-145493901D01*
X103057432Y-145497484D01*
X103056057Y-145500805D01*
X103054136Y-145520314D01*
X103055050Y-145801512D01*
X103054136Y-145806133D01*
X102658491Y-145806133D01*
X102599403Y-145691058D01*
X102594427Y-145679043D01*
X102591240Y-145675160D01*
X102590279Y-145673288D01*
X102588282Y-145671556D01*
X102581990Y-145663890D01*
X102508898Y-145593090D01*
X102501163Y-145584171D01*
X102496957Y-145581523D01*
X102495409Y-145580024D01*
X102492968Y-145579013D01*
X102484572Y-145573728D01*
X102347191Y-145506868D01*
X102339707Y-145501323D01*
X102325002Y-145496069D01*
X102323406Y-145495293D01*
X102322683Y-145495241D01*
X102321246Y-145494728D01*
X102052986Y-145429404D01*
X101930459Y-145369773D01*
X101880710Y-145321586D01*
X101825317Y-145213705D01*
X101824180Y-145117614D01*
X101876104Y-145010922D01*
X101924290Y-144961176D01*
X102031897Y-144905922D01*
X102347327Y-144904314D01*
X102570200Y-144976672D01*
X102609120Y-144973906D01*
X102644019Y-144956456D01*
X102669584Y-144926980D01*
X102681923Y-144889964D01*
X102679157Y-144851044D01*
X102661707Y-144816145D01*
X102632231Y-144790580D01*
X102614331Y-144782589D01*
X102400625Y-144713207D01*
X102387931Y-144707949D01*
X102382904Y-144707454D01*
X102380930Y-144706813D01*
X102378295Y-144707000D01*
X102368422Y-144706028D01*
X102026660Y-144707771D01*
X102023786Y-144706813D01*
X102009040Y-144707860D01*
X101991770Y-144707949D01*
X101988449Y-144709324D01*
X101984866Y-144709579D01*
X101966557Y-144716585D01*
X101824880Y-144789332D01*
X101812865Y-144794309D01*
X101808982Y-144797495D01*
X101807110Y-144798457D01*
X101805378Y-144800453D01*
X101797712Y-144806746D01*
X101726912Y-144879837D01*
X101717993Y-144887573D01*
X101715345Y-144891778D01*
X101713846Y-144893327D01*
X101712835Y-144895767D01*
X101707550Y-144904164D01*
X101644135Y-145034467D01*
X101642418Y-145036185D01*
X101637377Y-145048352D01*
X101629116Y-145065329D01*
X101628861Y-145068912D01*
X101627486Y-145072233D01*
X101625565Y-145091742D01*
X101458898Y-145091742D01*
X101458898Y-142391112D01*
X101696992Y-142391112D01*
X101698913Y-143910621D01*
X101713845Y-143946669D01*
X101741435Y-143974259D01*
X101777483Y-143989191D01*
X101816501Y-143989191D01*
X101852549Y-143974259D01*
X101880139Y-143946669D01*
X101895071Y-143910621D01*
X101896992Y-143891112D01*
X101895659Y-142837327D01*
X102206438Y-143500513D01*
X102211486Y-143514393D01*
X102214469Y-143517650D01*
X102216365Y-143521696D01*
X102227575Y-143531962D01*
X102237837Y-143543168D01*
X102241862Y-143545046D01*
X102245140Y-143548048D01*
X102259422Y-143553241D01*
X102273195Y-143559669D01*
X102277634Y-143559864D01*
X102281809Y-143561382D01*
X102296992Y-143560714D01*
X102312175Y-143561382D01*
X102316348Y-143559864D01*
X102320790Y-143559669D01*
X102334574Y-143553236D01*
X102348844Y-143548047D01*
X102352117Y-143545049D01*
X102356147Y-143543169D01*
X102366419Y-143531952D01*
X102377619Y-143521696D01*
X102380928Y-143516108D01*
X102382499Y-143514394D01*
X102383380Y-143511969D01*
X102387610Y-143504830D01*
X102697556Y-142837878D01*
X102698913Y-143910621D01*
X102713845Y-143946669D01*
X102741435Y-143974259D01*
X102777483Y-143989191D01*
X102816501Y-143989191D01*
X102852549Y-143974259D01*
X102880139Y-143946669D01*
X102895071Y-143910621D01*
X102896992Y-143891112D01*
X102896089Y-143176826D01*
X103339850Y-143176826D01*
X103341621Y-143589931D01*
X103340635Y-143592890D01*
X103341697Y-143607845D01*
X103341771Y-143624907D01*
X103343146Y-143628227D01*
X103343401Y-143631811D01*
X103350407Y-143650119D01*
X103423155Y-143791800D01*
X103428131Y-143803812D01*
X103431315Y-143807692D01*
X103432278Y-143809567D01*
X103434275Y-143811299D01*
X103440567Y-143818966D01*
X103513661Y-143889765D01*
X103521396Y-143898684D01*
X103525601Y-143901331D01*
X103527150Y-143902831D01*
X103529589Y-143903841D01*
X103537986Y-143909127D01*
X103668289Y-143972541D01*
X103670007Y-143974259D01*
X103682180Y-143979301D01*
X103699152Y-143987561D01*
X103702734Y-143987815D01*
X103706055Y-143989191D01*
X103725564Y-143991112D01*
X103924786Y-143989475D01*
X103927342Y-143990327D01*
X103941230Y-143989339D01*
X103959359Y-143989191D01*
X103962679Y-143987815D01*
X103966263Y-143987561D01*
X103984571Y-143980555D01*
X104126252Y-143907806D01*
X104138264Y-143902831D01*
X104142144Y-143899646D01*
X104144019Y-143898684D01*
X104145751Y-143896686D01*
X104153418Y-143890395D01*
X104224217Y-143817300D01*
X104233136Y-143809566D01*
X104235783Y-143805360D01*
X104237283Y-143803812D01*
X104238293Y-143801372D01*
X104243579Y-143792976D01*
X104306993Y-143662672D01*
X104308711Y-143660955D01*
X104313753Y-143648781D01*
X104322013Y-143631810D01*
X104322267Y-143628227D01*
X104323643Y-143624907D01*
X104325564Y-143605398D01*
X104323792Y-143192292D01*
X104324779Y-143189334D01*
X104323890Y-143176826D01*
X104696993Y-143176826D01*
X104698764Y-143589931D01*
X104697778Y-143592890D01*
X104698840Y-143607845D01*
X104698914Y-143624907D01*
X104700289Y-143628227D01*
X104700544Y-143631811D01*
X104707550Y-143650119D01*
X104780298Y-143791800D01*
X104785274Y-143803812D01*
X104788458Y-143807692D01*
X104789421Y-143809567D01*
X104791418Y-143811299D01*
X104797710Y-143818966D01*
X104870804Y-143889765D01*
X104878539Y-143898684D01*
X104882744Y-143901331D01*
X104884293Y-143902831D01*
X104886732Y-143903841D01*
X104895129Y-143909127D01*
X105025432Y-143972541D01*
X105027150Y-143974259D01*
X105039323Y-143979301D01*
X105056295Y-143987561D01*
X105059877Y-143987815D01*
X105063198Y-143989191D01*
X105082707Y-143991112D01*
X105353161Y-143989409D01*
X105355913Y-143990327D01*
X105370339Y-143989301D01*
X105387930Y-143989191D01*
X105391250Y-143987815D01*
X105394833Y-143987561D01*
X105413142Y-143980555D01*
X105445436Y-143963973D01*
X105455722Y-143974259D01*
X105491770Y-143989191D01*
X105530788Y-143989191D01*
X105566836Y-143974259D01*
X105594426Y-143946669D01*
X105609358Y-143910621D01*
X105611279Y-143891112D01*
X105610096Y-142955629D01*
X105610494Y-142950034D01*
X105610087Y-142948815D01*
X105609358Y-142371603D01*
X105594426Y-142335555D01*
X105566836Y-142307965D01*
X105530788Y-142293033D01*
X105491770Y-142293033D01*
X105455722Y-142307965D01*
X105428132Y-142335555D01*
X105413200Y-142371603D01*
X105411279Y-142391112D01*
X105411799Y-142802919D01*
X105394834Y-142794663D01*
X105391250Y-142794408D01*
X105387930Y-142793033D01*
X105368421Y-142791112D01*
X105097965Y-142792814D01*
X105095214Y-142791897D01*
X105080787Y-142792922D01*
X105063198Y-142793033D01*
X105059877Y-142794408D01*
X105056294Y-142794663D01*
X105037985Y-142801669D01*
X104896308Y-142874416D01*
X104884293Y-142879393D01*
X104880410Y-142882579D01*
X104878538Y-142883541D01*
X104876806Y-142885537D01*
X104869140Y-142891830D01*
X104798340Y-142964921D01*
X104789421Y-142972657D01*
X104786773Y-142976862D01*
X104785274Y-142978411D01*
X104784263Y-142980851D01*
X104778978Y-142989248D01*
X104715563Y-143119551D01*
X104713846Y-143121269D01*
X104708805Y-143133436D01*
X104700544Y-143150413D01*
X104700289Y-143153996D01*
X104698914Y-143157317D01*
X104696993Y-143176826D01*
X104323890Y-143176826D01*
X104323716Y-143174378D01*
X104323643Y-143157317D01*
X104322267Y-143153996D01*
X104322013Y-143150414D01*
X104315007Y-143132105D01*
X104242260Y-142990428D01*
X104237283Y-142978411D01*
X104234096Y-142974528D01*
X104233136Y-142972658D01*
X104231141Y-142970927D01*
X104224846Y-142963258D01*
X104151752Y-142892458D01*
X104144019Y-142883541D01*
X104139813Y-142880893D01*
X104138264Y-142879393D01*
X104135822Y-142878381D01*
X104127428Y-142873098D01*
X103997124Y-142809682D01*
X103995407Y-142807965D01*
X103983237Y-142802924D01*
X103966263Y-142794663D01*
X103962679Y-142794408D01*
X103959359Y-142793033D01*
X103939850Y-142791112D01*
X103740626Y-142792748D01*
X103738071Y-142791897D01*
X103724182Y-142792884D01*
X103706055Y-142793033D01*
X103702734Y-142794408D01*
X103699151Y-142794663D01*
X103680842Y-142801669D01*
X103539165Y-142874416D01*
X103527150Y-142879393D01*
X103523267Y-142882579D01*
X103521395Y-142883541D01*
X103519663Y-142885537D01*
X103511997Y-142891830D01*
X103441197Y-142964921D01*
X103432278Y-142972657D01*
X103429630Y-142976862D01*
X103428131Y-142978411D01*
X103427120Y-142980851D01*
X103421835Y-142989248D01*
X103358420Y-143119551D01*
X103356703Y-143121269D01*
X103351662Y-143133436D01*
X103343401Y-143150413D01*
X103343146Y-143153996D01*
X103341771Y-143157317D01*
X103339850Y-143176826D01*
X102896089Y-143176826D01*
X102895097Y-142392662D01*
X102895833Y-142375928D01*
X102895073Y-142373840D01*
X102895071Y-142371603D01*
X102888433Y-142355579D01*
X102882499Y-142339259D01*
X102880991Y-142337612D01*
X102880139Y-142335555D01*
X102867881Y-142323297D01*
X102856147Y-142310484D01*
X102854123Y-142309539D01*
X102852549Y-142307965D01*
X102836533Y-142301330D01*
X102820790Y-142293984D01*
X102818560Y-142293886D01*
X102816501Y-142293033D01*
X102799149Y-142293033D01*
X102781809Y-142292271D01*
X102779713Y-142293033D01*
X102777483Y-142293033D01*
X102761452Y-142299673D01*
X102745140Y-142305605D01*
X102743494Y-142307111D01*
X102741435Y-142307965D01*
X102729167Y-142320232D01*
X102716365Y-142331957D01*
X102714798Y-142334601D01*
X102713845Y-142335555D01*
X102712941Y-142337736D01*
X102706374Y-142348823D01*
X102297660Y-143228304D01*
X101886490Y-142350887D01*
X101880139Y-142335555D01*
X101878569Y-142333985D01*
X101877619Y-142331957D01*
X101864822Y-142320238D01*
X101852549Y-142307965D01*
X101850487Y-142307111D01*
X101848844Y-142305606D01*
X101832542Y-142299677D01*
X101816501Y-142293033D01*
X101814270Y-142293033D01*
X101812175Y-142292271D01*
X101794835Y-142293033D01*
X101777483Y-142293033D01*
X101775423Y-142293886D01*
X101773195Y-142293984D01*
X101757464Y-142301325D01*
X101741435Y-142307965D01*
X101739858Y-142309541D01*
X101737837Y-142310485D01*
X101726118Y-142323281D01*
X101713845Y-142335555D01*
X101712991Y-142337616D01*
X101711486Y-142339260D01*
X101705557Y-142355561D01*
X101698913Y-142371603D01*
X101698611Y-142374661D01*
X101698151Y-142375929D01*
X101698254Y-142378288D01*
X101696992Y-142391112D01*
X101458898Y-142391112D01*
X101458898Y-142125604D01*
X105990310Y-142125604D01*
X105990310Y-146572695D01*
G37*
D11*
X133491666Y-36554819D02*
X133491666Y-37269104D01*
X133491666Y-37269104D02*
X133444047Y-37411961D01*
X133444047Y-37411961D02*
X133348809Y-37507200D01*
X133348809Y-37507200D02*
X133205952Y-37554819D01*
X133205952Y-37554819D02*
X133110714Y-37554819D01*
X134444047Y-36554819D02*
X133967857Y-36554819D01*
X133967857Y-36554819D02*
X133920238Y-37031009D01*
X133920238Y-37031009D02*
X133967857Y-36983390D01*
X133967857Y-36983390D02*
X134063095Y-36935771D01*
X134063095Y-36935771D02*
X134301190Y-36935771D01*
X134301190Y-36935771D02*
X134396428Y-36983390D01*
X134396428Y-36983390D02*
X134444047Y-37031009D01*
X134444047Y-37031009D02*
X134491666Y-37126247D01*
X134491666Y-37126247D02*
X134491666Y-37364342D01*
X134491666Y-37364342D02*
X134444047Y-37459580D01*
X134444047Y-37459580D02*
X134396428Y-37507200D01*
X134396428Y-37507200D02*
X134301190Y-37554819D01*
X134301190Y-37554819D02*
X134063095Y-37554819D01*
X134063095Y-37554819D02*
X133967857Y-37507200D01*
X133967857Y-37507200D02*
X133920238Y-37459580D01*
X146954819Y-151290475D02*
X145954819Y-151290475D01*
X145954819Y-151290475D02*
X145954819Y-151052380D01*
X145954819Y-151052380D02*
X146002438Y-150909523D01*
X146002438Y-150909523D02*
X146097676Y-150814285D01*
X146097676Y-150814285D02*
X146192914Y-150766666D01*
X146192914Y-150766666D02*
X146383390Y-150719047D01*
X146383390Y-150719047D02*
X146526247Y-150719047D01*
X146526247Y-150719047D02*
X146716723Y-150766666D01*
X146716723Y-150766666D02*
X146811961Y-150814285D01*
X146811961Y-150814285D02*
X146907200Y-150909523D01*
X146907200Y-150909523D02*
X146954819Y-151052380D01*
X146954819Y-151052380D02*
X146954819Y-151290475D01*
X146954819Y-149766666D02*
X146954819Y-150338094D01*
X146954819Y-150052380D02*
X145954819Y-150052380D01*
X145954819Y-150052380D02*
X146097676Y-150147618D01*
X146097676Y-150147618D02*
X146192914Y-150242856D01*
X146192914Y-150242856D02*
X146240533Y-150338094D01*
X145954819Y-148909523D02*
X145954819Y-149099999D01*
X145954819Y-149099999D02*
X146002438Y-149195237D01*
X146002438Y-149195237D02*
X146050057Y-149242856D01*
X146050057Y-149242856D02*
X146192914Y-149338094D01*
X146192914Y-149338094D02*
X146383390Y-149385713D01*
X146383390Y-149385713D02*
X146764342Y-149385713D01*
X146764342Y-149385713D02*
X146859580Y-149338094D01*
X146859580Y-149338094D02*
X146907200Y-149290475D01*
X146907200Y-149290475D02*
X146954819Y-149195237D01*
X146954819Y-149195237D02*
X146954819Y-149004761D01*
X146954819Y-149004761D02*
X146907200Y-148909523D01*
X146907200Y-148909523D02*
X146859580Y-148861904D01*
X146859580Y-148861904D02*
X146764342Y-148814285D01*
X146764342Y-148814285D02*
X146526247Y-148814285D01*
X146526247Y-148814285D02*
X146431009Y-148861904D01*
X146431009Y-148861904D02*
X146383390Y-148909523D01*
X146383390Y-148909523D02*
X146335771Y-149004761D01*
X146335771Y-149004761D02*
X146335771Y-149195237D01*
X146335771Y-149195237D02*
X146383390Y-149290475D01*
X146383390Y-149290475D02*
X146431009Y-149338094D01*
X146431009Y-149338094D02*
X146526247Y-149385713D01*
X145954819Y-148195237D02*
X145954819Y-148099999D01*
X145954819Y-148099999D02*
X146002438Y-148004761D01*
X146002438Y-148004761D02*
X146050057Y-147957142D01*
X146050057Y-147957142D02*
X146145295Y-147909523D01*
X146145295Y-147909523D02*
X146335771Y-147861904D01*
X146335771Y-147861904D02*
X146573866Y-147861904D01*
X146573866Y-147861904D02*
X146764342Y-147909523D01*
X146764342Y-147909523D02*
X146859580Y-147957142D01*
X146859580Y-147957142D02*
X146907200Y-148004761D01*
X146907200Y-148004761D02*
X146954819Y-148099999D01*
X146954819Y-148099999D02*
X146954819Y-148195237D01*
X146954819Y-148195237D02*
X146907200Y-148290475D01*
X146907200Y-148290475D02*
X146859580Y-148338094D01*
X146859580Y-148338094D02*
X146764342Y-148385713D01*
X146764342Y-148385713D02*
X146573866Y-148433332D01*
X146573866Y-148433332D02*
X146335771Y-148433332D01*
X146335771Y-148433332D02*
X146145295Y-148385713D01*
X146145295Y-148385713D02*
X146050057Y-148338094D01*
X146050057Y-148338094D02*
X146002438Y-148290475D01*
X146002438Y-148290475D02*
X145954819Y-148195237D01*
X91166669Y-123407200D02*
X91309526Y-123454819D01*
X91309526Y-123454819D02*
X91547621Y-123454819D01*
X91547621Y-123454819D02*
X91642859Y-123407200D01*
X91642859Y-123407200D02*
X91690478Y-123359580D01*
X91690478Y-123359580D02*
X91738097Y-123264342D01*
X91738097Y-123264342D02*
X91738097Y-123169104D01*
X91738097Y-123169104D02*
X91690478Y-123073866D01*
X91690478Y-123073866D02*
X91642859Y-123026247D01*
X91642859Y-123026247D02*
X91547621Y-122978628D01*
X91547621Y-122978628D02*
X91357145Y-122931009D01*
X91357145Y-122931009D02*
X91261907Y-122883390D01*
X91261907Y-122883390D02*
X91214288Y-122835771D01*
X91214288Y-122835771D02*
X91166669Y-122740533D01*
X91166669Y-122740533D02*
X91166669Y-122645295D01*
X91166669Y-122645295D02*
X91214288Y-122550057D01*
X91214288Y-122550057D02*
X91261907Y-122502438D01*
X91261907Y-122502438D02*
X91357145Y-122454819D01*
X91357145Y-122454819D02*
X91595240Y-122454819D01*
X91595240Y-122454819D02*
X91738097Y-122502438D01*
X92071431Y-122454819D02*
X92309526Y-123454819D01*
X92309526Y-123454819D02*
X92500002Y-122740533D01*
X92500002Y-122740533D02*
X92690478Y-123454819D01*
X92690478Y-123454819D02*
X92928574Y-122454819D01*
X93214288Y-122454819D02*
X93833335Y-122454819D01*
X93833335Y-122454819D02*
X93500002Y-122835771D01*
X93500002Y-122835771D02*
X93642859Y-122835771D01*
X93642859Y-122835771D02*
X93738097Y-122883390D01*
X93738097Y-122883390D02*
X93785716Y-122931009D01*
X93785716Y-122931009D02*
X93833335Y-123026247D01*
X93833335Y-123026247D02*
X93833335Y-123264342D01*
X93833335Y-123264342D02*
X93785716Y-123359580D01*
X93785716Y-123359580D02*
X93738097Y-123407200D01*
X93738097Y-123407200D02*
X93642859Y-123454819D01*
X93642859Y-123454819D02*
X93357145Y-123454819D01*
X93357145Y-123454819D02*
X93261907Y-123407200D01*
X93261907Y-123407200D02*
X93214288Y-123359580D01*
X112954821Y-155761904D02*
X113764344Y-155761904D01*
X113764344Y-155761904D02*
X113859582Y-155714285D01*
X113859582Y-155714285D02*
X113907202Y-155666666D01*
X113907202Y-155666666D02*
X113954821Y-155571428D01*
X113954821Y-155571428D02*
X113954821Y-155380952D01*
X113954821Y-155380952D02*
X113907202Y-155285714D01*
X113907202Y-155285714D02*
X113859582Y-155238095D01*
X113859582Y-155238095D02*
X113764344Y-155190476D01*
X113764344Y-155190476D02*
X112954821Y-155190476D01*
X112954821Y-154285714D02*
X112954821Y-154476190D01*
X112954821Y-154476190D02*
X113002440Y-154571428D01*
X113002440Y-154571428D02*
X113050059Y-154619047D01*
X113050059Y-154619047D02*
X113192916Y-154714285D01*
X113192916Y-154714285D02*
X113383392Y-154761904D01*
X113383392Y-154761904D02*
X113764344Y-154761904D01*
X113764344Y-154761904D02*
X113859582Y-154714285D01*
X113859582Y-154714285D02*
X113907202Y-154666666D01*
X113907202Y-154666666D02*
X113954821Y-154571428D01*
X113954821Y-154571428D02*
X113954821Y-154380952D01*
X113954821Y-154380952D02*
X113907202Y-154285714D01*
X113907202Y-154285714D02*
X113859582Y-154238095D01*
X113859582Y-154238095D02*
X113764344Y-154190476D01*
X113764344Y-154190476D02*
X113526249Y-154190476D01*
X113526249Y-154190476D02*
X113431011Y-154238095D01*
X113431011Y-154238095D02*
X113383392Y-154285714D01*
X113383392Y-154285714D02*
X113335773Y-154380952D01*
X113335773Y-154380952D02*
X113335773Y-154571428D01*
X113335773Y-154571428D02*
X113383392Y-154666666D01*
X113383392Y-154666666D02*
X113431011Y-154714285D01*
X113431011Y-154714285D02*
X113526249Y-154761904D01*
X109983021Y-158499999D02*
X110221116Y-158499999D01*
X110125878Y-158738094D02*
X110221116Y-158499999D01*
X110221116Y-158499999D02*
X110125878Y-158261904D01*
X110411592Y-158642856D02*
X110221116Y-158499999D01*
X110221116Y-158499999D02*
X110411592Y-158357142D01*
X109983021Y-158499999D02*
X110221116Y-158499999D01*
X110125878Y-158738094D02*
X110221116Y-158499999D01*
X110221116Y-158499999D02*
X110125878Y-158261904D01*
X110411592Y-158642856D02*
X110221116Y-158499999D01*
X110221116Y-158499999D02*
X110411592Y-158357142D01*
X109859582Y-155942857D02*
X109907202Y-155990476D01*
X109907202Y-155990476D02*
X109954821Y-156133333D01*
X109954821Y-156133333D02*
X109954821Y-156228571D01*
X109954821Y-156228571D02*
X109907202Y-156371428D01*
X109907202Y-156371428D02*
X109811963Y-156466666D01*
X109811963Y-156466666D02*
X109716725Y-156514285D01*
X109716725Y-156514285D02*
X109526249Y-156561904D01*
X109526249Y-156561904D02*
X109383392Y-156561904D01*
X109383392Y-156561904D02*
X109192916Y-156514285D01*
X109192916Y-156514285D02*
X109097678Y-156466666D01*
X109097678Y-156466666D02*
X109002440Y-156371428D01*
X109002440Y-156371428D02*
X108954821Y-156228571D01*
X108954821Y-156228571D02*
X108954821Y-156133333D01*
X108954821Y-156133333D02*
X109002440Y-155990476D01*
X109002440Y-155990476D02*
X109050059Y-155942857D01*
X108954821Y-155085714D02*
X108954821Y-155276190D01*
X108954821Y-155276190D02*
X109002440Y-155371428D01*
X109002440Y-155371428D02*
X109050059Y-155419047D01*
X109050059Y-155419047D02*
X109192916Y-155514285D01*
X109192916Y-155514285D02*
X109383392Y-155561904D01*
X109383392Y-155561904D02*
X109764344Y-155561904D01*
X109764344Y-155561904D02*
X109859582Y-155514285D01*
X109859582Y-155514285D02*
X109907202Y-155466666D01*
X109907202Y-155466666D02*
X109954821Y-155371428D01*
X109954821Y-155371428D02*
X109954821Y-155180952D01*
X109954821Y-155180952D02*
X109907202Y-155085714D01*
X109907202Y-155085714D02*
X109859582Y-155038095D01*
X109859582Y-155038095D02*
X109764344Y-154990476D01*
X109764344Y-154990476D02*
X109526249Y-154990476D01*
X109526249Y-154990476D02*
X109431011Y-155038095D01*
X109431011Y-155038095D02*
X109383392Y-155085714D01*
X109383392Y-155085714D02*
X109335773Y-155180952D01*
X109335773Y-155180952D02*
X109335773Y-155371428D01*
X109335773Y-155371428D02*
X109383392Y-155466666D01*
X109383392Y-155466666D02*
X109431011Y-155514285D01*
X109431011Y-155514285D02*
X109526249Y-155561904D01*
X108954821Y-154371428D02*
X108954821Y-154276190D01*
X108954821Y-154276190D02*
X109002440Y-154180952D01*
X109002440Y-154180952D02*
X109050059Y-154133333D01*
X109050059Y-154133333D02*
X109145297Y-154085714D01*
X109145297Y-154085714D02*
X109335773Y-154038095D01*
X109335773Y-154038095D02*
X109573868Y-154038095D01*
X109573868Y-154038095D02*
X109764344Y-154085714D01*
X109764344Y-154085714D02*
X109859582Y-154133333D01*
X109859582Y-154133333D02*
X109907202Y-154180952D01*
X109907202Y-154180952D02*
X109954821Y-154276190D01*
X109954821Y-154276190D02*
X109954821Y-154371428D01*
X109954821Y-154371428D02*
X109907202Y-154466666D01*
X109907202Y-154466666D02*
X109859582Y-154514285D01*
X109859582Y-154514285D02*
X109764344Y-154561904D01*
X109764344Y-154561904D02*
X109573868Y-154609523D01*
X109573868Y-154609523D02*
X109335773Y-154609523D01*
X109335773Y-154609523D02*
X109145297Y-154561904D01*
X109145297Y-154561904D02*
X109050059Y-154514285D01*
X109050059Y-154514285D02*
X109002440Y-154466666D01*
X109002440Y-154466666D02*
X108954821Y-154371428D01*
X116666666Y-45784819D02*
X116666666Y-46499104D01*
X116666666Y-46499104D02*
X116619047Y-46641961D01*
X116619047Y-46641961D02*
X116523809Y-46737200D01*
X116523809Y-46737200D02*
X116380952Y-46784819D01*
X116380952Y-46784819D02*
X116285714Y-46784819D01*
X117047619Y-45784819D02*
X117714285Y-45784819D01*
X117714285Y-45784819D02*
X117285714Y-46784819D01*
X115666666Y-145854819D02*
X115666666Y-146569104D01*
X115666666Y-146569104D02*
X115619047Y-146711961D01*
X115619047Y-146711961D02*
X115523809Y-146807200D01*
X115523809Y-146807200D02*
X115380952Y-146854819D01*
X115380952Y-146854819D02*
X115285714Y-146854819D01*
X116095238Y-145950057D02*
X116142857Y-145902438D01*
X116142857Y-145902438D02*
X116238095Y-145854819D01*
X116238095Y-145854819D02*
X116476190Y-145854819D01*
X116476190Y-145854819D02*
X116571428Y-145902438D01*
X116571428Y-145902438D02*
X116619047Y-145950057D01*
X116619047Y-145950057D02*
X116666666Y-146045295D01*
X116666666Y-146045295D02*
X116666666Y-146140533D01*
X116666666Y-146140533D02*
X116619047Y-146283390D01*
X116619047Y-146283390D02*
X116047619Y-146854819D01*
X116047619Y-146854819D02*
X116666666Y-146854819D01*
X150554819Y-145538094D02*
X149554819Y-145538094D01*
X149554819Y-145538094D02*
X149554819Y-145299999D01*
X149554819Y-145299999D02*
X149602438Y-145157142D01*
X149602438Y-145157142D02*
X149697676Y-145061904D01*
X149697676Y-145061904D02*
X149792914Y-145014285D01*
X149792914Y-145014285D02*
X149983390Y-144966666D01*
X149983390Y-144966666D02*
X150126247Y-144966666D01*
X150126247Y-144966666D02*
X150316723Y-145014285D01*
X150316723Y-145014285D02*
X150411961Y-145061904D01*
X150411961Y-145061904D02*
X150507200Y-145157142D01*
X150507200Y-145157142D02*
X150554819Y-145299999D01*
X150554819Y-145299999D02*
X150554819Y-145538094D01*
X149554819Y-144633332D02*
X149554819Y-144014285D01*
X149554819Y-144014285D02*
X149935771Y-144347618D01*
X149935771Y-144347618D02*
X149935771Y-144204761D01*
X149935771Y-144204761D02*
X149983390Y-144109523D01*
X149983390Y-144109523D02*
X150031009Y-144061904D01*
X150031009Y-144061904D02*
X150126247Y-144014285D01*
X150126247Y-144014285D02*
X150364342Y-144014285D01*
X150364342Y-144014285D02*
X150459580Y-144061904D01*
X150459580Y-144061904D02*
X150507200Y-144109523D01*
X150507200Y-144109523D02*
X150554819Y-144204761D01*
X150554819Y-144204761D02*
X150554819Y-144490475D01*
X150554819Y-144490475D02*
X150507200Y-144585713D01*
X150507200Y-144585713D02*
X150459580Y-144633332D01*
X103166669Y-135407200D02*
X103309526Y-135454819D01*
X103309526Y-135454819D02*
X103547621Y-135454819D01*
X103547621Y-135454819D02*
X103642859Y-135407200D01*
X103642859Y-135407200D02*
X103690478Y-135359580D01*
X103690478Y-135359580D02*
X103738097Y-135264342D01*
X103738097Y-135264342D02*
X103738097Y-135169104D01*
X103738097Y-135169104D02*
X103690478Y-135073866D01*
X103690478Y-135073866D02*
X103642859Y-135026247D01*
X103642859Y-135026247D02*
X103547621Y-134978628D01*
X103547621Y-134978628D02*
X103357145Y-134931009D01*
X103357145Y-134931009D02*
X103261907Y-134883390D01*
X103261907Y-134883390D02*
X103214288Y-134835771D01*
X103214288Y-134835771D02*
X103166669Y-134740533D01*
X103166669Y-134740533D02*
X103166669Y-134645295D01*
X103166669Y-134645295D02*
X103214288Y-134550057D01*
X103214288Y-134550057D02*
X103261907Y-134502438D01*
X103261907Y-134502438D02*
X103357145Y-134454819D01*
X103357145Y-134454819D02*
X103595240Y-134454819D01*
X103595240Y-134454819D02*
X103738097Y-134502438D01*
X104071431Y-134454819D02*
X104309526Y-135454819D01*
X104309526Y-135454819D02*
X104500002Y-134740533D01*
X104500002Y-134740533D02*
X104690478Y-135454819D01*
X104690478Y-135454819D02*
X104928574Y-134454819D01*
X105833335Y-135454819D02*
X105261907Y-135454819D01*
X105547621Y-135454819D02*
X105547621Y-134454819D01*
X105547621Y-134454819D02*
X105452383Y-134597676D01*
X105452383Y-134597676D02*
X105357145Y-134692914D01*
X105357145Y-134692914D02*
X105261907Y-134740533D01*
X101148602Y-134299818D02*
X101148602Y-134537913D01*
X100910507Y-134442675D02*
X101148602Y-134537913D01*
X101148602Y-134537913D02*
X101386697Y-134442675D01*
X101005745Y-134728389D02*
X101148602Y-134537913D01*
X101148602Y-134537913D02*
X101291459Y-134728389D01*
X101148602Y-134299818D02*
X101148602Y-134537913D01*
X100910507Y-134442675D02*
X101148602Y-134537913D01*
X101148602Y-134537913D02*
X101386697Y-134442675D01*
X101005745Y-134728389D02*
X101148602Y-134537913D01*
X101148602Y-134537913D02*
X101291459Y-134728389D01*
X141604818Y-129740474D02*
X140604818Y-129740474D01*
X140604818Y-129740474D02*
X140604818Y-129502379D01*
X140604818Y-129502379D02*
X140652437Y-129359522D01*
X140652437Y-129359522D02*
X140747675Y-129264284D01*
X140747675Y-129264284D02*
X140842913Y-129216665D01*
X140842913Y-129216665D02*
X141033389Y-129169046D01*
X141033389Y-129169046D02*
X141176246Y-129169046D01*
X141176246Y-129169046D02*
X141366722Y-129216665D01*
X141366722Y-129216665D02*
X141461960Y-129264284D01*
X141461960Y-129264284D02*
X141557199Y-129359522D01*
X141557199Y-129359522D02*
X141604818Y-129502379D01*
X141604818Y-129502379D02*
X141604818Y-129740474D01*
X141604818Y-128216665D02*
X141604818Y-128788093D01*
X141604818Y-128502379D02*
X140604818Y-128502379D01*
X140604818Y-128502379D02*
X140747675Y-128597617D01*
X140747675Y-128597617D02*
X140842913Y-128692855D01*
X140842913Y-128692855D02*
X140890532Y-128788093D01*
X140604818Y-127359522D02*
X140604818Y-127549998D01*
X140604818Y-127549998D02*
X140652437Y-127645236D01*
X140652437Y-127645236D02*
X140700056Y-127692855D01*
X140700056Y-127692855D02*
X140842913Y-127788093D01*
X140842913Y-127788093D02*
X141033389Y-127835712D01*
X141033389Y-127835712D02*
X141414341Y-127835712D01*
X141414341Y-127835712D02*
X141509579Y-127788093D01*
X141509579Y-127788093D02*
X141557199Y-127740474D01*
X141557199Y-127740474D02*
X141604818Y-127645236D01*
X141604818Y-127645236D02*
X141604818Y-127454760D01*
X141604818Y-127454760D02*
X141557199Y-127359522D01*
X141557199Y-127359522D02*
X141509579Y-127311903D01*
X141509579Y-127311903D02*
X141414341Y-127264284D01*
X141414341Y-127264284D02*
X141176246Y-127264284D01*
X141176246Y-127264284D02*
X141081008Y-127311903D01*
X141081008Y-127311903D02*
X141033389Y-127359522D01*
X141033389Y-127359522D02*
X140985770Y-127454760D01*
X140985770Y-127454760D02*
X140985770Y-127645236D01*
X140985770Y-127645236D02*
X141033389Y-127740474D01*
X141033389Y-127740474D02*
X141081008Y-127788093D01*
X141081008Y-127788093D02*
X141176246Y-127835712D01*
X141604818Y-126311903D02*
X141604818Y-126883331D01*
X141604818Y-126597617D02*
X140604818Y-126597617D01*
X140604818Y-126597617D02*
X140747675Y-126692855D01*
X140747675Y-126692855D02*
X140842913Y-126788093D01*
X140842913Y-126788093D02*
X140890532Y-126883331D01*
X88624819Y-34833333D02*
X89339104Y-34833333D01*
X89339104Y-34833333D02*
X89481961Y-34880952D01*
X89481961Y-34880952D02*
X89577200Y-34976190D01*
X89577200Y-34976190D02*
X89624819Y-35119047D01*
X89624819Y-35119047D02*
X89624819Y-35214285D01*
X88958152Y-33928571D02*
X89624819Y-33928571D01*
X88577200Y-34166666D02*
X89291485Y-34404761D01*
X89291485Y-34404761D02*
X89291485Y-33785714D01*
X119854821Y-154442857D02*
X119378630Y-154776190D01*
X119854821Y-155014285D02*
X118854821Y-155014285D01*
X118854821Y-155014285D02*
X118854821Y-154633333D01*
X118854821Y-154633333D02*
X118902440Y-154538095D01*
X118902440Y-154538095D02*
X118950059Y-154490476D01*
X118950059Y-154490476D02*
X119045297Y-154442857D01*
X119045297Y-154442857D02*
X119188154Y-154442857D01*
X119188154Y-154442857D02*
X119283392Y-154490476D01*
X119283392Y-154490476D02*
X119331011Y-154538095D01*
X119331011Y-154538095D02*
X119378630Y-154633333D01*
X119378630Y-154633333D02*
X119378630Y-155014285D01*
X118854821Y-153585714D02*
X118854821Y-153776190D01*
X118854821Y-153776190D02*
X118902440Y-153871428D01*
X118902440Y-153871428D02*
X118950059Y-153919047D01*
X118950059Y-153919047D02*
X119092916Y-154014285D01*
X119092916Y-154014285D02*
X119283392Y-154061904D01*
X119283392Y-154061904D02*
X119664344Y-154061904D01*
X119664344Y-154061904D02*
X119759582Y-154014285D01*
X119759582Y-154014285D02*
X119807202Y-153966666D01*
X119807202Y-153966666D02*
X119854821Y-153871428D01*
X119854821Y-153871428D02*
X119854821Y-153680952D01*
X119854821Y-153680952D02*
X119807202Y-153585714D01*
X119807202Y-153585714D02*
X119759582Y-153538095D01*
X119759582Y-153538095D02*
X119664344Y-153490476D01*
X119664344Y-153490476D02*
X119426249Y-153490476D01*
X119426249Y-153490476D02*
X119331011Y-153538095D01*
X119331011Y-153538095D02*
X119283392Y-153585714D01*
X119283392Y-153585714D02*
X119235773Y-153680952D01*
X119235773Y-153680952D02*
X119235773Y-153871428D01*
X119235773Y-153871428D02*
X119283392Y-153966666D01*
X119283392Y-153966666D02*
X119331011Y-154014285D01*
X119331011Y-154014285D02*
X119426249Y-154061904D01*
X119854821Y-152538095D02*
X119854821Y-153109523D01*
X119854821Y-152823809D02*
X118854821Y-152823809D01*
X118854821Y-152823809D02*
X118997678Y-152919047D01*
X118997678Y-152919047D02*
X119092916Y-153014285D01*
X119092916Y-153014285D02*
X119140535Y-153109523D01*
X75666668Y-46004819D02*
X75666668Y-46719104D01*
X75666668Y-46719104D02*
X75619049Y-46861961D01*
X75619049Y-46861961D02*
X75523811Y-46957200D01*
X75523811Y-46957200D02*
X75380954Y-47004819D01*
X75380954Y-47004819D02*
X75285716Y-47004819D01*
X76047621Y-46004819D02*
X76666668Y-46004819D01*
X76666668Y-46004819D02*
X76333335Y-46385771D01*
X76333335Y-46385771D02*
X76476192Y-46385771D01*
X76476192Y-46385771D02*
X76571430Y-46433390D01*
X76571430Y-46433390D02*
X76619049Y-46481009D01*
X76619049Y-46481009D02*
X76666668Y-46576247D01*
X76666668Y-46576247D02*
X76666668Y-46814342D01*
X76666668Y-46814342D02*
X76619049Y-46909580D01*
X76619049Y-46909580D02*
X76571430Y-46957200D01*
X76571430Y-46957200D02*
X76476192Y-47004819D01*
X76476192Y-47004819D02*
X76190478Y-47004819D01*
X76190478Y-47004819D02*
X76095240Y-46957200D01*
X76095240Y-46957200D02*
X76047621Y-46909580D01*
X142357142Y-144554819D02*
X142023809Y-144078628D01*
X141785714Y-144554819D02*
X141785714Y-143554819D01*
X141785714Y-143554819D02*
X142166666Y-143554819D01*
X142166666Y-143554819D02*
X142261904Y-143602438D01*
X142261904Y-143602438D02*
X142309523Y-143650057D01*
X142309523Y-143650057D02*
X142357142Y-143745295D01*
X142357142Y-143745295D02*
X142357142Y-143888152D01*
X142357142Y-143888152D02*
X142309523Y-143983390D01*
X142309523Y-143983390D02*
X142261904Y-144031009D01*
X142261904Y-144031009D02*
X142166666Y-144078628D01*
X142166666Y-144078628D02*
X141785714Y-144078628D01*
X142738095Y-143650057D02*
X142785714Y-143602438D01*
X142785714Y-143602438D02*
X142880952Y-143554819D01*
X142880952Y-143554819D02*
X143119047Y-143554819D01*
X143119047Y-143554819D02*
X143214285Y-143602438D01*
X143214285Y-143602438D02*
X143261904Y-143650057D01*
X143261904Y-143650057D02*
X143309523Y-143745295D01*
X143309523Y-143745295D02*
X143309523Y-143840533D01*
X143309523Y-143840533D02*
X143261904Y-143983390D01*
X143261904Y-143983390D02*
X142690476Y-144554819D01*
X142690476Y-144554819D02*
X143309523Y-144554819D01*
X143785714Y-144554819D02*
X143976190Y-144554819D01*
X143976190Y-144554819D02*
X144071428Y-144507200D01*
X144071428Y-144507200D02*
X144119047Y-144459580D01*
X144119047Y-144459580D02*
X144214285Y-144316723D01*
X144214285Y-144316723D02*
X144261904Y-144126247D01*
X144261904Y-144126247D02*
X144261904Y-143745295D01*
X144261904Y-143745295D02*
X144214285Y-143650057D01*
X144214285Y-143650057D02*
X144166666Y-143602438D01*
X144166666Y-143602438D02*
X144071428Y-143554819D01*
X144071428Y-143554819D02*
X143880952Y-143554819D01*
X143880952Y-143554819D02*
X143785714Y-143602438D01*
X143785714Y-143602438D02*
X143738095Y-143650057D01*
X143738095Y-143650057D02*
X143690476Y-143745295D01*
X143690476Y-143745295D02*
X143690476Y-143983390D01*
X143690476Y-143983390D02*
X143738095Y-144078628D01*
X143738095Y-144078628D02*
X143785714Y-144126247D01*
X143785714Y-144126247D02*
X143880952Y-144173866D01*
X143880952Y-144173866D02*
X144071428Y-144173866D01*
X144071428Y-144173866D02*
X144166666Y-144126247D01*
X144166666Y-144126247D02*
X144214285Y-144078628D01*
X144214285Y-144078628D02*
X144261904Y-143983390D01*
D13*
%TO.C,J5*%
X132170000Y-35830000D02*
X132170000Y-34500000D01*
X133500000Y-35830000D02*
X132170000Y-35830000D01*
X134770000Y-33170000D02*
X139910000Y-33170000D01*
X134770000Y-35830000D02*
X134770000Y-33170000D01*
X134770000Y-35830000D02*
X139910000Y-35830000D01*
X139910000Y-35830000D02*
X139910000Y-33170000D01*
D14*
%TO.C,D112*%
X113785002Y-62000000D02*
G75*
G02*
X113685002Y-62000000I-50000J0D01*
G01*
X113685002Y-62000000D02*
G75*
G02*
X113785002Y-62000000I50000J0D01*
G01*
%TO.C,D21*%
X134785002Y-59000000D02*
G75*
G02*
X134685002Y-59000000I-50000J0D01*
G01*
X134685002Y-59000000D02*
G75*
G02*
X134785002Y-59000000I50000J0D01*
G01*
%TO.C,D22*%
X137785002Y-59000000D02*
G75*
G02*
X137685002Y-59000000I-50000J0D01*
G01*
X137685002Y-59000000D02*
G75*
G02*
X137785002Y-59000000I50000J0D01*
G01*
%TO.C,D124*%
X119785002Y-65000000D02*
G75*
G02*
X119685002Y-65000000I-50000J0D01*
G01*
X119685002Y-65000000D02*
G75*
G02*
X119785002Y-65000000I50000J0D01*
G01*
D13*
%TO.C,D160*%
X142400000Y-147600000D02*
X142400000Y-151500000D01*
X142400000Y-151500000D02*
X145600000Y-151500000D01*
X145600000Y-147600000D02*
X145600000Y-151500000D01*
D14*
%TO.C,D157*%
X128785002Y-74000000D02*
G75*
G02*
X128685002Y-74000000I-50000J0D01*
G01*
X128685002Y-74000000D02*
G75*
G02*
X128785002Y-74000000I50000J0D01*
G01*
%TO.C,D143*%
X116785002Y-71000000D02*
G75*
G02*
X116685002Y-71000000I-50000J0D01*
G01*
X116685002Y-71000000D02*
G75*
G02*
X116785002Y-71000000I50000J0D01*
G01*
%TO.C,D55*%
X146785002Y-68000000D02*
G75*
G02*
X146685002Y-68000000I-50000J0D01*
G01*
X146685002Y-68000000D02*
G75*
G02*
X146785002Y-68000000I50000J0D01*
G01*
D15*
%TO.C,SW3*%
X90875802Y-123875800D02*
X90875802Y-130124200D01*
X90875802Y-130124200D02*
X97124202Y-130124200D01*
X97124202Y-123875800D02*
X90875802Y-123875800D01*
X97124202Y-130124200D02*
X97124202Y-123875800D01*
D14*
%TO.C,D147*%
X128785002Y-71000000D02*
G75*
G02*
X128685002Y-71000000I-50000J0D01*
G01*
X128685002Y-71000000D02*
G75*
G02*
X128785002Y-71000000I50000J0D01*
G01*
%TO.C,D96*%
X125785002Y-56000000D02*
G75*
G02*
X125685002Y-56000000I-50000J0D01*
G01*
X125685002Y-56000000D02*
G75*
G02*
X125785002Y-56000000I50000J0D01*
G01*
%TO.C,D33*%
X140785002Y-62000000D02*
G75*
G02*
X140685002Y-62000000I-50000J0D01*
G01*
X140685002Y-62000000D02*
G75*
G02*
X140785002Y-62000000I50000J0D01*
G01*
%TO.C,D104*%
X119785002Y-59000000D02*
G75*
G02*
X119685002Y-59000000I-50000J0D01*
G01*
X119685002Y-59000000D02*
G75*
G02*
X119785002Y-59000000I50000J0D01*
G01*
%TO.C,D150*%
X107785002Y-74000000D02*
G75*
G02*
X107685002Y-74000000I-50000J0D01*
G01*
X107685002Y-74000000D02*
G75*
G02*
X107785002Y-74000000I50000J0D01*
G01*
%TO.C,D152*%
X113785002Y-74000000D02*
G75*
G02*
X113685002Y-74000000I-50000J0D01*
G01*
X113685002Y-74000000D02*
G75*
G02*
X113785002Y-74000000I50000J0D01*
G01*
%TO.C,D51*%
X134785002Y-68000000D02*
G75*
G02*
X134685002Y-68000000I-50000J0D01*
G01*
X134685002Y-68000000D02*
G75*
G02*
X134785002Y-68000000I50000J0D01*
G01*
%TO.C,D71*%
X134785002Y-74000000D02*
G75*
G02*
X134685002Y-74000000I-50000J0D01*
G01*
X134685002Y-74000000D02*
G75*
G02*
X134785002Y-74000000I50000J0D01*
G01*
%TO.C,D113*%
X116785002Y-62000000D02*
G75*
G02*
X116685002Y-62000000I-50000J0D01*
G01*
X116685002Y-62000000D02*
G75*
G02*
X116785002Y-62000000I50000J0D01*
G01*
%TO.C,D77*%
X152785002Y-74000000D02*
G75*
G02*
X152685002Y-74000000I-50000J0D01*
G01*
X152685002Y-74000000D02*
G75*
G02*
X152785002Y-74000000I50000J0D01*
G01*
%TO.C,D43*%
X140785002Y-65000000D02*
G75*
G02*
X140685002Y-65000000I-50000J0D01*
G01*
X140685002Y-65000000D02*
G75*
G02*
X140785002Y-65000000I50000J0D01*
G01*
%TO.C,D153*%
X116785002Y-74000000D02*
G75*
G02*
X116685002Y-74000000I-50000J0D01*
G01*
X116685002Y-74000000D02*
G75*
G02*
X116785002Y-74000000I50000J0D01*
G01*
%TO.C,D110*%
X107785002Y-62000000D02*
G75*
G02*
X107685002Y-62000000I-50000J0D01*
G01*
X107685002Y-62000000D02*
G75*
G02*
X107785002Y-62000000I50000J0D01*
G01*
D15*
%TO.C,U6*%
X110871102Y-152879100D02*
X110871102Y-157120900D01*
X110871102Y-157120900D02*
X111835772Y-157120900D01*
X111835772Y-152879100D02*
X110871102Y-152879100D01*
X112624232Y-157120900D02*
X114375772Y-157120900D01*
X114375772Y-152879100D02*
X112624232Y-152879100D01*
X115164232Y-157120900D02*
X116128902Y-157120900D01*
X116128902Y-152879100D02*
X115164232Y-152879100D01*
X116128902Y-157120900D02*
X116128902Y-152879100D01*
D14*
%TO.C,D01*%
X134785002Y-53000000D02*
G75*
G02*
X134685002Y-53000000I-50000J0D01*
G01*
X134685002Y-53000000D02*
G75*
G02*
X134785002Y-53000000I50000J0D01*
G01*
%TO.C,D136*%
X125785002Y-68000000D02*
G75*
G02*
X125685002Y-68000000I-50000J0D01*
G01*
X125685002Y-68000000D02*
G75*
G02*
X125785002Y-68000000I50000J0D01*
G01*
%TO.C,D56*%
X149785002Y-68000000D02*
G75*
G02*
X149685002Y-68000000I-50000J0D01*
G01*
X149685002Y-68000000D02*
G75*
G02*
X149785002Y-68000000I50000J0D01*
G01*
%TO.C,D05*%
X146785002Y-53000000D02*
G75*
G02*
X146685002Y-53000000I-50000J0D01*
G01*
X146685002Y-53000000D02*
G75*
G02*
X146785002Y-53000000I50000J0D01*
G01*
%TO.C,D154*%
X119785002Y-74000000D02*
G75*
G02*
X119685002Y-74000000I-50000J0D01*
G01*
X119685002Y-74000000D02*
G75*
G02*
X119785002Y-74000000I50000J0D01*
G01*
%TO.C,D16*%
X149785002Y-56000000D02*
G75*
G02*
X149685002Y-56000000I-50000J0D01*
G01*
X149685002Y-56000000D02*
G75*
G02*
X149785002Y-56000000I50000J0D01*
G01*
%TO.C,D151*%
X110785002Y-74000000D02*
G75*
G02*
X110685002Y-74000000I-50000J0D01*
G01*
X110685002Y-74000000D02*
G75*
G02*
X110785002Y-74000000I50000J0D01*
G01*
%TO.C,D66*%
X149785002Y-71000000D02*
G75*
G02*
X149685002Y-71000000I-50000J0D01*
G01*
X149685002Y-71000000D02*
G75*
G02*
X149785002Y-71000000I50000J0D01*
G01*
%TO.C,D12*%
X137785002Y-56000000D02*
G75*
G02*
X137685002Y-56000000I-50000J0D01*
G01*
X137685002Y-56000000D02*
G75*
G02*
X137785002Y-56000000I50000J0D01*
G01*
%TO.C,D76*%
X149785002Y-74000000D02*
G75*
G02*
X149685002Y-74000000I-50000J0D01*
G01*
X149685002Y-74000000D02*
G75*
G02*
X149785002Y-74000000I50000J0D01*
G01*
%TO.C,D155*%
X122785002Y-74000000D02*
G75*
G02*
X122685002Y-74000000I-50000J0D01*
G01*
X122685002Y-74000000D02*
G75*
G02*
X122785002Y-74000000I50000J0D01*
G01*
D13*
%TO.C,C60*%
X108990002Y-151853733D02*
X108990002Y-152146267D01*
X110010002Y-151853733D02*
X110010002Y-152146267D01*
D14*
%TO.C,D75*%
X146785002Y-74000000D02*
G75*
G02*
X146685002Y-74000000I-50000J0D01*
G01*
X146685002Y-74000000D02*
G75*
G02*
X146785002Y-74000000I50000J0D01*
G01*
%TO.C,D67*%
X152785002Y-71000000D02*
G75*
G02*
X152685002Y-71000000I-50000J0D01*
G01*
X152685002Y-71000000D02*
G75*
G02*
X152785002Y-71000000I50000J0D01*
G01*
D13*
%TO.C,J7*%
X115670000Y-42730000D02*
X115670000Y-40130000D01*
X118330000Y-40130000D02*
X115670000Y-40130000D01*
X118330000Y-42730000D02*
X115670000Y-42730000D01*
X118330000Y-42730000D02*
X118330000Y-40130000D01*
X118330000Y-44000000D02*
X118330000Y-45330000D01*
X118330000Y-45330000D02*
X117000000Y-45330000D01*
%TO.C,J2*%
X117092500Y-144050000D02*
X117092500Y-146250000D01*
X117432500Y-144340000D02*
X117432500Y-146250000D01*
X117432500Y-144340000D02*
X125562500Y-144340000D01*
X117432500Y-146250000D02*
X117432500Y-151080000D01*
X118392500Y-144050000D02*
X117092500Y-144050000D01*
X118702500Y-142950000D02*
X124292500Y-142950000D01*
X118702500Y-143200000D02*
X124292500Y-143200000D01*
X118702500Y-144090000D02*
X124292500Y-144090000D01*
X118702500Y-144340000D02*
X118702500Y-142950000D01*
X121112500Y-150820000D02*
X121882500Y-150820000D01*
X121112500Y-151080000D02*
X117432500Y-151080000D01*
X121112500Y-151080000D02*
X121112500Y-150820000D01*
X121882500Y-150820000D02*
X121882500Y-151080000D01*
X121882500Y-151080000D02*
X125562500Y-151080000D01*
X124292500Y-144340000D02*
X124292500Y-142950000D01*
X125562500Y-144340000D02*
X125562500Y-146250000D01*
X125562500Y-151080000D02*
X125562500Y-146250000D01*
D14*
%TO.C,D95*%
X122785002Y-56000000D02*
G75*
G02*
X122685002Y-56000000I-50000J0D01*
G01*
X122685002Y-56000000D02*
G75*
G02*
X122785002Y-56000000I50000J0D01*
G01*
%TO.C,D134*%
X119785002Y-68000000D02*
G75*
G02*
X119685002Y-68000000I-50000J0D01*
G01*
X119685002Y-68000000D02*
G75*
G02*
X119785002Y-68000000I50000J0D01*
G01*
%TO.C,D145*%
X122785002Y-71000000D02*
G75*
G02*
X122685002Y-71000000I-50000J0D01*
G01*
X122685002Y-71000000D02*
G75*
G02*
X122785002Y-71000000I50000J0D01*
G01*
%TO.C,D125*%
X122785002Y-65000000D02*
G75*
G02*
X122685002Y-65000000I-50000J0D01*
G01*
X122685002Y-65000000D02*
G75*
G02*
X122785002Y-65000000I50000J0D01*
G01*
%TO.C,D13*%
X140785002Y-56000000D02*
G75*
G02*
X140685002Y-56000000I-50000J0D01*
G01*
X140685002Y-56000000D02*
G75*
G02*
X140785002Y-56000000I50000J0D01*
G01*
%TO.C,D44*%
X143785002Y-65000000D02*
G75*
G02*
X143685002Y-65000000I-50000J0D01*
G01*
X143685002Y-65000000D02*
G75*
G02*
X143785002Y-65000000I50000J0D01*
G01*
%TO.C,D34*%
X143785002Y-62000000D02*
G75*
G02*
X143685002Y-62000000I-50000J0D01*
G01*
X143685002Y-62000000D02*
G75*
G02*
X143785002Y-62000000I50000J0D01*
G01*
%TO.C,D114*%
X119785002Y-62000000D02*
G75*
G02*
X119685002Y-62000000I-50000J0D01*
G01*
X119685002Y-62000000D02*
G75*
G02*
X119785002Y-62000000I50000J0D01*
G01*
%TO.C,D14*%
X143785002Y-56000000D02*
G75*
G02*
X143685002Y-56000000I-50000J0D01*
G01*
X143685002Y-56000000D02*
G75*
G02*
X143785002Y-56000000I50000J0D01*
G01*
%TO.C,D103*%
X116785002Y-59000000D02*
G75*
G02*
X116685002Y-59000000I-50000J0D01*
G01*
X116685002Y-59000000D02*
G75*
G02*
X116785002Y-59000000I50000J0D01*
G01*
%TO.C,D53*%
X140785002Y-68000000D02*
G75*
G02*
X140685002Y-68000000I-50000J0D01*
G01*
X140685002Y-68000000D02*
G75*
G02*
X140785002Y-68000000I50000J0D01*
G01*
%TO.C,D90*%
X107785002Y-56000000D02*
G75*
G02*
X107685002Y-56000000I-50000J0D01*
G01*
X107685002Y-56000000D02*
G75*
G02*
X107785002Y-56000000I50000J0D01*
G01*
%TO.C,D156*%
X125785002Y-74000000D02*
G75*
G02*
X125685002Y-74000000I-50000J0D01*
G01*
X125685002Y-74000000D02*
G75*
G02*
X125785002Y-74000000I50000J0D01*
G01*
D13*
%TO.C,D3*%
X144562500Y-143642500D02*
X144562500Y-145112500D01*
X144562500Y-145112500D02*
X147022500Y-145112500D01*
X147022500Y-143642500D02*
X144562500Y-143642500D01*
D14*
%TO.C,D62*%
X137785002Y-71000000D02*
G75*
G02*
X137685002Y-71000000I-50000J0D01*
G01*
X137685002Y-71000000D02*
G75*
G02*
X137785002Y-71000000I50000J0D01*
G01*
%TO.C,D20*%
X131785002Y-59000000D02*
G75*
G02*
X131685002Y-59000000I-50000J0D01*
G01*
X131685002Y-59000000D02*
G75*
G02*
X131785002Y-59000000I50000J0D01*
G01*
%TO.C,D36*%
X149785002Y-62000000D02*
G75*
G02*
X149685002Y-62000000I-50000J0D01*
G01*
X149685002Y-62000000D02*
G75*
G02*
X149785002Y-62000000I50000J0D01*
G01*
%TO.C,D93*%
X116785002Y-56000000D02*
G75*
G02*
X116685002Y-56000000I-50000J0D01*
G01*
X116685002Y-56000000D02*
G75*
G02*
X116785002Y-56000000I50000J0D01*
G01*
%TO.C,D60*%
X131785002Y-71000000D02*
G75*
G02*
X131685002Y-71000000I-50000J0D01*
G01*
X131685002Y-71000000D02*
G75*
G02*
X131785002Y-71000000I50000J0D01*
G01*
%TO.C,D111*%
X110785002Y-62000000D02*
G75*
G02*
X110685002Y-62000000I-50000J0D01*
G01*
X110685002Y-62000000D02*
G75*
G02*
X110785002Y-62000000I50000J0D01*
G01*
%TO.C,D32*%
X137785002Y-62000000D02*
G75*
G02*
X137685002Y-62000000I-50000J0D01*
G01*
X137685002Y-62000000D02*
G75*
G02*
X137785002Y-62000000I50000J0D01*
G01*
%TO.C,D115*%
X122785002Y-62000000D02*
G75*
G02*
X122685002Y-62000000I-50000J0D01*
G01*
X122685002Y-62000000D02*
G75*
G02*
X122785002Y-62000000I50000J0D01*
G01*
%TO.C,D30*%
X131785002Y-62000000D02*
G75*
G02*
X131685002Y-62000000I-50000J0D01*
G01*
X131685002Y-62000000D02*
G75*
G02*
X131785002Y-62000000I50000J0D01*
G01*
%TO.C,D37*%
X152785002Y-62000000D02*
G75*
G02*
X152685002Y-62000000I-50000J0D01*
G01*
X152685002Y-62000000D02*
G75*
G02*
X152785002Y-62000000I50000J0D01*
G01*
%TO.C,D27*%
X152785002Y-59000000D02*
G75*
G02*
X152685002Y-59000000I-50000J0D01*
G01*
X152685002Y-59000000D02*
G75*
G02*
X152785002Y-59000000I50000J0D01*
G01*
%TO.C,D07*%
X152785002Y-53000000D02*
G75*
G02*
X152685002Y-53000000I-50000J0D01*
G01*
X152685002Y-53000000D02*
G75*
G02*
X152785002Y-53000000I50000J0D01*
G01*
%TO.C,D65*%
X146785002Y-71000000D02*
G75*
G02*
X146685002Y-71000000I-50000J0D01*
G01*
X146685002Y-71000000D02*
G75*
G02*
X146785002Y-71000000I50000J0D01*
G01*
%TO.C,D97*%
X128785002Y-56000000D02*
G75*
G02*
X128685002Y-56000000I-50000J0D01*
G01*
X128685002Y-56000000D02*
G75*
G02*
X128785002Y-56000000I50000J0D01*
G01*
%TO.C,D02*%
X137785002Y-53000000D02*
G75*
G02*
X137685002Y-53000000I-50000J0D01*
G01*
X137685002Y-53000000D02*
G75*
G02*
X137785002Y-53000000I50000J0D01*
G01*
%TO.C,D141*%
X110785002Y-71000000D02*
G75*
G02*
X110685002Y-71000000I-50000J0D01*
G01*
X110685002Y-71000000D02*
G75*
G02*
X110785002Y-71000000I50000J0D01*
G01*
D15*
%TO.C,SW6*%
X140875802Y-135875800D02*
X140875802Y-142124200D01*
X140875802Y-142124200D02*
X147124202Y-142124200D01*
X147124202Y-135875800D02*
X140875802Y-135875800D01*
X147124202Y-142124200D02*
X147124202Y-135875800D01*
D14*
%TO.C,D133*%
X116785002Y-68000000D02*
G75*
G02*
X116685002Y-68000000I-50000J0D01*
G01*
X116685002Y-68000000D02*
G75*
G02*
X116785002Y-68000000I50000J0D01*
G01*
D15*
%TO.C,SW1*%
X102875802Y-135875800D02*
X102875802Y-142124200D01*
X102875802Y-142124200D02*
X109124202Y-142124200D01*
X109124202Y-135875800D02*
X102875802Y-135875800D01*
X109124202Y-142124200D02*
X109124202Y-135875800D01*
D14*
%TO.C,D126*%
X125785002Y-65000000D02*
G75*
G02*
X125685002Y-65000000I-50000J0D01*
G01*
X125685002Y-65000000D02*
G75*
G02*
X125785002Y-65000000I50000J0D01*
G01*
%TO.C,D06*%
X149785002Y-53000000D02*
G75*
G02*
X149685002Y-53000000I-50000J0D01*
G01*
X149685002Y-53000000D02*
G75*
G02*
X149785002Y-53000000I50000J0D01*
G01*
%TO.C,D84*%
X119785002Y-53000000D02*
G75*
G02*
X119685002Y-53000000I-50000J0D01*
G01*
X119685002Y-53000000D02*
G75*
G02*
X119785002Y-53000000I50000J0D01*
G01*
%TO.C,D91*%
X110785002Y-56000000D02*
G75*
G02*
X110685002Y-56000000I-50000J0D01*
G01*
X110685002Y-56000000D02*
G75*
G02*
X110785002Y-56000000I50000J0D01*
G01*
%TO.C,D130*%
X107785002Y-68000000D02*
G75*
G02*
X107685002Y-68000000I-50000J0D01*
G01*
X107685002Y-68000000D02*
G75*
G02*
X107785002Y-68000000I50000J0D01*
G01*
%TO.C,D17*%
X152785002Y-56000000D02*
G75*
G02*
X152685002Y-56000000I-50000J0D01*
G01*
X152685002Y-56000000D02*
G75*
G02*
X152785002Y-56000000I50000J0D01*
G01*
%TO.C,D24*%
X143785002Y-59000000D02*
G75*
G02*
X143685002Y-59000000I-50000J0D01*
G01*
X143685002Y-59000000D02*
G75*
G02*
X143785002Y-59000000I50000J0D01*
G01*
D15*
%TO.C,SW2*%
X128875802Y-147875800D02*
X128875802Y-154124200D01*
X128875802Y-154124200D02*
X135124202Y-154124200D01*
X135124202Y-147875800D02*
X128875802Y-147875800D01*
X135124202Y-154124200D02*
X135124202Y-147875800D01*
D14*
%TO.C,D35*%
X146785002Y-62000000D02*
G75*
G02*
X146685002Y-62000000I-50000J0D01*
G01*
X146685002Y-62000000D02*
G75*
G02*
X146785002Y-62000000I50000J0D01*
G01*
%TO.C,D04*%
X143785002Y-53000000D02*
G75*
G02*
X143685002Y-53000000I-50000J0D01*
G01*
X143685002Y-53000000D02*
G75*
G02*
X143785002Y-53000000I50000J0D01*
G01*
%TO.C,D100*%
X107785002Y-59000000D02*
G75*
G02*
X107685002Y-59000000I-50000J0D01*
G01*
X107685002Y-59000000D02*
G75*
G02*
X107785002Y-59000000I50000J0D01*
G01*
%TO.C,D74*%
X143785002Y-74000000D02*
G75*
G02*
X143685002Y-74000000I-50000J0D01*
G01*
X143685002Y-74000000D02*
G75*
G02*
X143785002Y-74000000I50000J0D01*
G01*
%TO.C,D70*%
X131785002Y-74000000D02*
G75*
G02*
X131685002Y-74000000I-50000J0D01*
G01*
X131685002Y-74000000D02*
G75*
G02*
X131785002Y-74000000I50000J0D01*
G01*
%TO.C,D106*%
X125785002Y-59000000D02*
G75*
G02*
X125685002Y-59000000I-50000J0D01*
G01*
X125685002Y-59000000D02*
G75*
G02*
X125785002Y-59000000I50000J0D01*
G01*
%TO.C,D101*%
X110785002Y-59000000D02*
G75*
G02*
X110685002Y-59000000I-50000J0D01*
G01*
X110685002Y-59000000D02*
G75*
G02*
X110785002Y-59000000I50000J0D01*
G01*
%TO.C,D132*%
X113785002Y-68000000D02*
G75*
G02*
X113685002Y-68000000I-50000J0D01*
G01*
X113685002Y-68000000D02*
G75*
G02*
X113785002Y-68000000I50000J0D01*
G01*
%TO.C,D23*%
X140785002Y-59000000D02*
G75*
G02*
X140685002Y-59000000I-50000J0D01*
G01*
X140685002Y-59000000D02*
G75*
G02*
X140785002Y-59000000I50000J0D01*
G01*
%TO.C,D57*%
X152785002Y-68000000D02*
G75*
G02*
X152685002Y-68000000I-50000J0D01*
G01*
X152685002Y-68000000D02*
G75*
G02*
X152785002Y-68000000I50000J0D01*
G01*
%TO.C,D107*%
X128785002Y-59000000D02*
G75*
G02*
X128685002Y-59000000I-50000J0D01*
G01*
X128685002Y-59000000D02*
G75*
G02*
X128785002Y-59000000I50000J0D01*
G01*
%TO.C,D123*%
X116785002Y-65000000D02*
G75*
G02*
X116685002Y-65000000I-50000J0D01*
G01*
X116685002Y-65000000D02*
G75*
G02*
X116785002Y-65000000I50000J0D01*
G01*
%TO.C,D102*%
X113785002Y-59000000D02*
G75*
G02*
X113685002Y-59000000I-50000J0D01*
G01*
X113685002Y-59000000D02*
G75*
G02*
X113785002Y-59000000I50000J0D01*
G01*
%TO.C,D64*%
X143785002Y-71000000D02*
G75*
G02*
X143685002Y-71000000I-50000J0D01*
G01*
X143685002Y-71000000D02*
G75*
G02*
X143785002Y-71000000I50000J0D01*
G01*
%TO.C,D26*%
X149785002Y-59000000D02*
G75*
G02*
X149685002Y-59000000I-50000J0D01*
G01*
X149685002Y-59000000D02*
G75*
G02*
X149785002Y-59000000I50000J0D01*
G01*
%TO.C,D42*%
X137785002Y-65000000D02*
G75*
G02*
X137685002Y-65000000I-50000J0D01*
G01*
X137685002Y-65000000D02*
G75*
G02*
X137785002Y-65000000I50000J0D01*
G01*
%TO.C,D46*%
X149785002Y-65000000D02*
G75*
G02*
X149685002Y-65000000I-50000J0D01*
G01*
X149685002Y-65000000D02*
G75*
G02*
X149785002Y-65000000I50000J0D01*
G01*
%TO.C,D131*%
X110785002Y-68000000D02*
G75*
G02*
X110685002Y-68000000I-50000J0D01*
G01*
X110685002Y-68000000D02*
G75*
G02*
X110785002Y-68000000I50000J0D01*
G01*
%TO.C,D50*%
X131785002Y-68000000D02*
G75*
G02*
X131685002Y-68000000I-50000J0D01*
G01*
X131685002Y-68000000D02*
G75*
G02*
X131785002Y-68000000I50000J0D01*
G01*
D13*
%TO.C,D161*%
X143100000Y-125900000D02*
X147000000Y-125900000D01*
X143100000Y-129100000D02*
X147000000Y-129100000D01*
X147000000Y-129100000D02*
X147000000Y-125900000D01*
D14*
%TO.C,D144*%
X119785002Y-71000000D02*
G75*
G02*
X119685002Y-71000000I-50000J0D01*
G01*
X119685002Y-71000000D02*
G75*
G02*
X119785002Y-71000000I50000J0D01*
G01*
%TO.C,D105*%
X122785002Y-59000000D02*
G75*
G02*
X122685002Y-59000000I-50000J0D01*
G01*
X122685002Y-59000000D02*
G75*
G02*
X122785002Y-59000000I50000J0D01*
G01*
%TO.C,D116*%
X125785002Y-62000000D02*
G75*
G02*
X125685002Y-62000000I-50000J0D01*
G01*
X125685002Y-62000000D02*
G75*
G02*
X125785002Y-62000000I50000J0D01*
G01*
%TO.C,D52*%
X137785002Y-68000000D02*
G75*
G02*
X137685002Y-68000000I-50000J0D01*
G01*
X137685002Y-68000000D02*
G75*
G02*
X137785002Y-68000000I50000J0D01*
G01*
D13*
%TO.C,J4*%
X90170000Y-35830000D02*
X90170000Y-34500000D01*
X91500000Y-35830000D02*
X90170000Y-35830000D01*
X92770000Y-33170000D02*
X97910000Y-33170000D01*
X92770000Y-35830000D02*
X92770000Y-33170000D01*
X92770000Y-35830000D02*
X97910000Y-35830000D01*
X97910000Y-35830000D02*
X97910000Y-33170000D01*
D14*
%TO.C,D00*%
X131785002Y-53000000D02*
G75*
G02*
X131685002Y-53000000I-50000J0D01*
G01*
X131685002Y-53000000D02*
G75*
G02*
X131785002Y-53000000I50000J0D01*
G01*
%TO.C,D85*%
X122785002Y-53000000D02*
G75*
G02*
X122685002Y-53000000I-50000J0D01*
G01*
X122685002Y-53000000D02*
G75*
G02*
X122785002Y-53000000I50000J0D01*
G01*
D15*
%TO.C,SW8*%
X128875802Y-123875800D02*
X128875802Y-130124200D01*
X128875802Y-130124200D02*
X135124202Y-130124200D01*
X135124202Y-123875800D02*
X128875802Y-123875800D01*
X135124202Y-130124200D02*
X135124202Y-123875800D01*
D14*
%TO.C,D142*%
X113785002Y-71000000D02*
G75*
G02*
X113685002Y-71000000I-50000J0D01*
G01*
X113685002Y-71000000D02*
G75*
G02*
X113785002Y-71000000I50000J0D01*
G01*
%TO.C,D63*%
X140785002Y-71000000D02*
G75*
G02*
X140685002Y-71000000I-50000J0D01*
G01*
X140685002Y-71000000D02*
G75*
G02*
X140785002Y-71000000I50000J0D01*
G01*
%TO.C,D140*%
X107785002Y-71000000D02*
G75*
G02*
X107685002Y-71000000I-50000J0D01*
G01*
X107685002Y-71000000D02*
G75*
G02*
X107785002Y-71000000I50000J0D01*
G01*
D15*
%TO.C,SW5*%
X128875802Y-135875800D02*
X128875802Y-142124200D01*
X128875802Y-142124200D02*
X135124202Y-142124200D01*
X135124202Y-135875800D02*
X128875802Y-135875800D01*
X135124202Y-142124200D02*
X135124202Y-135875800D01*
D14*
%TO.C,D82*%
X113785002Y-53000000D02*
G75*
G02*
X113685002Y-53000000I-50000J0D01*
G01*
X113685002Y-53000000D02*
G75*
G02*
X113785002Y-53000000I50000J0D01*
G01*
%TO.C,D47*%
X152785002Y-65000000D02*
G75*
G02*
X152685002Y-65000000I-50000J0D01*
G01*
X152685002Y-65000000D02*
G75*
G02*
X152785002Y-65000000I50000J0D01*
G01*
%TO.C,D83*%
X116785002Y-53000000D02*
G75*
G02*
X116685002Y-53000000I-50000J0D01*
G01*
X116685002Y-53000000D02*
G75*
G02*
X116785002Y-53000000I50000J0D01*
G01*
%TO.C,D15*%
X146785002Y-56000000D02*
G75*
G02*
X146685002Y-56000000I-50000J0D01*
G01*
X146685002Y-56000000D02*
G75*
G02*
X146785002Y-56000000I50000J0D01*
G01*
%TO.C,D92*%
X113785002Y-56000000D02*
G75*
G02*
X113685002Y-56000000I-50000J0D01*
G01*
X113685002Y-56000000D02*
G75*
G02*
X113785002Y-56000000I50000J0D01*
G01*
%TO.C,D41*%
X134785002Y-65000000D02*
G75*
G02*
X134685002Y-65000000I-50000J0D01*
G01*
X134685002Y-65000000D02*
G75*
G02*
X134785002Y-65000000I50000J0D01*
G01*
%TO.C,D122*%
X113785002Y-65000000D02*
G75*
G02*
X113685002Y-65000000I-50000J0D01*
G01*
X113685002Y-65000000D02*
G75*
G02*
X113785002Y-65000000I50000J0D01*
G01*
%TO.C,D94*%
X119785002Y-56000000D02*
G75*
G02*
X119685002Y-56000000I-50000J0D01*
G01*
X119685002Y-56000000D02*
G75*
G02*
X119785002Y-56000000I50000J0D01*
G01*
D15*
%TO.C,SW4*%
X116875802Y-135875800D02*
X116875802Y-142124200D01*
X116875802Y-142124200D02*
X123124202Y-142124200D01*
X123124202Y-135875800D02*
X116875802Y-135875800D01*
X123124202Y-142124200D02*
X123124202Y-135875800D01*
D14*
%TO.C,D25*%
X146785002Y-59000000D02*
G75*
G02*
X146685002Y-59000000I-50000J0D01*
G01*
X146685002Y-59000000D02*
G75*
G02*
X146785002Y-59000000I50000J0D01*
G01*
D13*
%TO.C,R61*%
X117670002Y-154067621D02*
X117670002Y-153732379D01*
X118430002Y-154067621D02*
X118430002Y-153732379D01*
D14*
%TO.C,D80*%
X107785002Y-53000000D02*
G75*
G02*
X107685002Y-53000000I-50000J0D01*
G01*
X107685002Y-53000000D02*
G75*
G02*
X107785002Y-53000000I50000J0D01*
G01*
%TO.C,D135*%
X122785002Y-68000000D02*
G75*
G02*
X122685002Y-68000000I-50000J0D01*
G01*
X122685002Y-68000000D02*
G75*
G02*
X122785002Y-68000000I50000J0D01*
G01*
D13*
%TO.C,J3*%
X74670002Y-47670000D02*
X76000002Y-47670000D01*
X74670002Y-49000000D02*
X74670002Y-47670000D01*
X74670002Y-50270000D02*
X74670002Y-57950000D01*
X74670002Y-50270000D02*
X77330002Y-50270000D01*
X74670002Y-57950000D02*
X77330002Y-57950000D01*
X77330002Y-50270000D02*
X77330002Y-57950000D01*
%TO.C,R29*%
X148420000Y-145267621D02*
X148420000Y-144932379D01*
X149180000Y-145267621D02*
X149180000Y-144932379D01*
D14*
%TO.C,D40*%
X131785002Y-65000000D02*
G75*
G02*
X131685002Y-65000000I-50000J0D01*
G01*
X131685002Y-65000000D02*
G75*
G02*
X131785002Y-65000000I50000J0D01*
G01*
%TO.C,D120*%
X107785002Y-65000000D02*
G75*
G02*
X107685002Y-65000000I-50000J0D01*
G01*
X107685002Y-65000000D02*
G75*
G02*
X107785002Y-65000000I50000J0D01*
G01*
%TO.C,D11*%
X134785002Y-56000000D02*
G75*
G02*
X134685002Y-56000000I-50000J0D01*
G01*
X134685002Y-56000000D02*
G75*
G02*
X134785002Y-56000000I50000J0D01*
G01*
%TO.C,D87*%
X128785002Y-53000000D02*
G75*
G02*
X128685002Y-53000000I-50000J0D01*
G01*
X128685002Y-53000000D02*
G75*
G02*
X128785002Y-53000000I50000J0D01*
G01*
%TO.C,D81*%
X110785002Y-53000000D02*
G75*
G02*
X110685002Y-53000000I-50000J0D01*
G01*
X110685002Y-53000000D02*
G75*
G02*
X110785002Y-53000000I50000J0D01*
G01*
%TO.C,D127*%
X128785002Y-65000000D02*
G75*
G02*
X128685002Y-65000000I-50000J0D01*
G01*
X128685002Y-65000000D02*
G75*
G02*
X128785002Y-65000000I50000J0D01*
G01*
%TO.C,D72*%
X137785002Y-74000000D02*
G75*
G02*
X137685002Y-74000000I-50000J0D01*
G01*
X137685002Y-74000000D02*
G75*
G02*
X137785002Y-74000000I50000J0D01*
G01*
%TO.C,D137*%
X128785002Y-68000000D02*
G75*
G02*
X128685002Y-68000000I-50000J0D01*
G01*
X128685002Y-68000000D02*
G75*
G02*
X128785002Y-68000000I50000J0D01*
G01*
%TO.C,D54*%
X143785002Y-68000000D02*
G75*
G02*
X143685002Y-68000000I-50000J0D01*
G01*
X143685002Y-68000000D02*
G75*
G02*
X143785002Y-68000000I50000J0D01*
G01*
%TO.C,D03*%
X140785002Y-53000000D02*
G75*
G02*
X140685002Y-53000000I-50000J0D01*
G01*
X140685002Y-53000000D02*
G75*
G02*
X140785002Y-53000000I50000J0D01*
G01*
%TO.C,D10*%
X131785002Y-56000000D02*
G75*
G02*
X131685002Y-56000000I-50000J0D01*
G01*
X131685002Y-56000000D02*
G75*
G02*
X131785002Y-56000000I50000J0D01*
G01*
%TO.C,D117*%
X128785002Y-62000000D02*
G75*
G02*
X128685002Y-62000000I-50000J0D01*
G01*
X128685002Y-62000000D02*
G75*
G02*
X128785002Y-62000000I50000J0D01*
G01*
%TO.C,D45*%
X146785002Y-65000000D02*
G75*
G02*
X146685002Y-65000000I-50000J0D01*
G01*
X146685002Y-65000000D02*
G75*
G02*
X146785002Y-65000000I50000J0D01*
G01*
%TO.C,D61*%
X134785002Y-71000000D02*
G75*
G02*
X134685002Y-71000000I-50000J0D01*
G01*
X134685002Y-71000000D02*
G75*
G02*
X134785002Y-71000000I50000J0D01*
G01*
D15*
%TO.C,SW7*%
X116875802Y-123875800D02*
X116875802Y-130124200D01*
X116875802Y-130124200D02*
X123124202Y-130124200D01*
X123124202Y-123875800D02*
X116875802Y-123875800D01*
X123124202Y-130124200D02*
X123124202Y-123875800D01*
D14*
%TO.C,D146*%
X125785002Y-71000000D02*
G75*
G02*
X125685002Y-71000000I-50000J0D01*
G01*
X125685002Y-71000000D02*
G75*
G02*
X125785002Y-71000000I50000J0D01*
G01*
%TO.C,D86*%
X125785002Y-53000000D02*
G75*
G02*
X125685002Y-53000000I-50000J0D01*
G01*
X125685002Y-53000000D02*
G75*
G02*
X125785002Y-53000000I50000J0D01*
G01*
%TO.C,D121*%
X110785002Y-65000000D02*
G75*
G02*
X110685002Y-65000000I-50000J0D01*
G01*
X110685002Y-65000000D02*
G75*
G02*
X110785002Y-65000000I50000J0D01*
G01*
%TO.C,D31*%
X134785002Y-62000000D02*
G75*
G02*
X134685002Y-62000000I-50000J0D01*
G01*
X134685002Y-62000000D02*
G75*
G02*
X134785002Y-62000000I50000J0D01*
G01*
%TO.C,D73*%
X140785002Y-74000000D02*
G75*
G02*
X140685002Y-74000000I-50000J0D01*
G01*
X140685002Y-74000000D02*
G75*
G02*
X140785002Y-74000000I50000J0D01*
G01*
%TD*%
M02*
