M48
; DRILL file {KiCad 8.0.0-8.0.0-1~ubuntu20.04.1} date 2024-03-13T13:13:28+0800
; FORMAT={-:-/ absolute / inch / decimal}
; #@! TF.CreationDate,2024-03-13T13:13:28+08:00
; #@! TF.GenerationSoftware,Kicad,Pcbnew,8.0.0-8.0.0-1~ubuntu20.04.1
; #@! TF.FileFunction,Plated,1,2,PTH
FMAT,2
INCH
; #@! TA.AperFunction,Plated,PTH,ViaDrill
T1C0.0118
; #@! TA.AperFunction,Plated,PTH,ComponentDrill
T2C0.0300
; #@! TA.AperFunction,Plated,PTH,ComponentDrill
T3C0.0394
; #@! TA.AperFunction,Plated,PTH,ComponentDrill
T4C0.0402
; #@! TA.AperFunction,Plated,PTH,ComponentDrill
T5C0.0689
%
G90
G05
T1
X4.0256Y-2.8051
X4.0256Y-4.252
X4.0354Y-4.9409
X4.0445Y-3.248
X4.0445Y-3.4252
X4.065Y-2.8051
X4.065Y-4.252
X4.1142Y-2.8051
X4.1142Y-4.7835
X4.1535Y-2.8051
X4.2126Y-2.8051
X4.2126Y-3.5039
X4.2323Y-1.7717
X4.2323Y-4.3898
X4.2421Y-3.6713
X4.2815Y-1.7224
X4.3012Y-4.4193
X4.3307Y-2.8051
X4.3406Y-2.1161
X4.3425Y-2.1964
X4.3878Y-3.6594
X4.3898Y-2.5886
X4.3898Y-3.248
X4.4094Y-3.878
X4.4488Y-2.6772
X4.4488Y-3.6122
X4.4749Y-2.0113
X4.4783Y-1.8898
X4.5866Y-1.7913
X4.6161Y-3.878
X4.626Y-3.9862
X4.7014Y-4.0199
X4.7047Y-1.4764
X4.7047Y-2.5984
X4.7539Y-2.313
X4.8031Y-4.2028
X4.8228Y-1.6929
X4.8228Y-1.7913
X4.8819Y-2.4582
X4.9606Y-1.7913
X4.9803Y-2.5492
X4.9902Y-4.685
X5.0295Y-2.5492
X5.0295Y-4.9409
X5.0591Y-2.5984
X5.0984Y-2.6772
X5.0984Y-4.9409
X5.2165Y-5.0
X5.2205Y-2.126
X5.248Y-1.8543
X5.248Y-2.0551
X5.248Y-2.1732
X5.248Y-2.2913
X5.248Y-2.4094
X5.248Y-2.5276
X5.248Y-2.6457
X5.248Y-2.7638
X5.248Y-2.8819
X5.2598Y-1.8858
X5.2638Y-1.685
X5.2953Y-1.2283
X5.2953Y-1.6693
X5.3189Y-1.8543
X5.3228Y-1.6496
X5.3333Y-2.2346
X5.3346Y-1.6181
X5.3425Y-1.2165
X5.3661Y-1.5551
X5.3661Y-2.0551
X5.3661Y-2.1732
X5.3661Y-2.2913
X5.3661Y-2.4094
X5.3661Y-2.5276
X5.3661Y-2.6457
X5.3661Y-2.7638
X5.3661Y-2.8819
X5.3937Y-1.622
X5.4016Y-1.2165
X5.4016Y-1.8858
X5.4252Y-1.6732
X5.4291Y-1.6142
X5.4449Y-1.5827
X5.4528Y-1.8543
X5.4567Y-2.3622
X5.4843Y-2.0551
X5.4843Y-2.1732
X5.4843Y-2.2913
X5.4843Y-2.4094
X5.4843Y-2.5276
X5.4843Y-2.6457
X5.4843Y-2.7638
X5.4843Y-2.8819
X5.5173Y-1.348
X5.5276Y-1.8858
X5.5433Y-1.6299
X5.5748Y-2.4803
X5.5866Y-1.8504
X5.6024Y-1.6142
X5.6024Y-2.0551
X5.6024Y-2.1732
X5.6024Y-2.2913
X5.6024Y-2.4094
X5.6024Y-2.5276
X5.6024Y-2.6457
X5.6024Y-2.7638
X5.6024Y-2.8819
X5.6179Y-1.4014
X5.6654Y-1.5866
X5.6693Y-1.8858
X5.6929Y-2.5984
X5.7205Y-2.0551
X5.7205Y-2.1732
X5.7205Y-2.2913
X5.7205Y-2.4094
X5.7205Y-2.5276
X5.7205Y-2.6457
X5.7205Y-2.7638
X5.7205Y-2.8819
X5.7244Y-1.8504
X5.7677Y-1.3504
X5.7677Y-1.9291
X5.7717Y-1.6575
X5.811Y-2.7165
X5.8386Y-2.0551
X5.8386Y-2.1732
X5.8386Y-2.2913
X5.8386Y-2.4094
X5.8386Y-2.5276
X5.8386Y-2.6457
X5.8386Y-2.7638
X5.8386Y-2.8819
X5.8504Y-1.8504
X5.8622Y-1.6378
X5.8661Y-1.8858
X5.9291Y-2.8346
X5.9528Y-1.6299
X5.9567Y-2.0551
X5.9567Y-2.1732
X5.9567Y-2.2913
X5.9567Y-2.4094
X5.9567Y-2.5276
X5.9567Y-2.6457
X5.9567Y-2.7638
X5.9567Y-2.8819
X5.9882Y-1.6031
X5.9961Y-1.8858
X6.0Y-1.8504
X6.0236Y-1.4075
X6.0433Y-1.7756
X6.0472Y-2.9528
X6.0591Y-1.7104
X6.0748Y-2.0551
X6.0748Y-2.1732
X6.0748Y-2.2913
X6.0748Y-2.4094
X6.0748Y-2.5276
X6.0748Y-2.6457
X6.0748Y-2.7638
X6.0748Y-2.8819
X6.1063Y-1.7165
T2
X4.6025Y-4.9237
X4.7025Y-4.9237
X4.8025Y-4.9237
T3
X4.1526Y-5.0394
X4.2526Y-5.0394
X4.3526Y-5.0394
X5.4321Y-5.0394
X5.5321Y-5.0394
X5.6321Y-5.0394
T4
X4.5937Y-2.8661
X4.6937Y-2.8661
X4.7937Y-2.8661
X4.8937Y-2.8661
T5
X4.1437Y-3.9381
X4.1437Y-4.0908
M30
