%TF.GenerationSoftware,KiCad,Pcbnew,8.0.0-8.0.0-1~ubuntu20.04.1*%
%TF.CreationDate,2024-04-01T04:19:55+08:00*%
%TF.ProjectId,pcb_badge,7063625f-6261-4646-9765-2e6b69636164,rev?*%
%TF.SameCoordinates,Original*%
%TF.FileFunction,Soldermask,Bot*%
%TF.FilePolarity,Negative*%
%FSLAX46Y46*%
G04 Gerber Fmt 4.6, Leading zero omitted, Abs format (unit mm)*
G04 Created by KiCad (PCBNEW 8.0.0-8.0.0-1~ubuntu20.04.1) date 2024-04-01 04:19:55*
%MOMM*%
%LPD*%
G01*
G04 APERTURE LIST*
G04 Aperture macros list*
%AMRoundRect*
0 Rectangle with rounded corners*
0 $1 Rounding radius*
0 $2 $3 $4 $5 $6 $7 $8 $9 X,Y pos of 4 corners*
0 Add a 4 corners polygon primitive as box body*
4,1,4,$2,$3,$4,$5,$6,$7,$8,$9,$2,$3,0*
0 Add four circle primitives for the rounded corners*
1,1,$1+$1,$2,$3*
1,1,$1+$1,$4,$5*
1,1,$1+$1,$6,$7*
1,1,$1+$1,$8,$9*
0 Add four rect primitives between the rounded corners*
20,1,$1+$1,$2,$3,$4,$5,0*
20,1,$1+$1,$4,$5,$6,$7,0*
20,1,$1+$1,$6,$7,$8,$9,0*
20,1,$1+$1,$8,$9,$2,$3,0*%
G04 Aperture macros list end*
%ADD10R,1.700000X1.700000*%
%ADD11O,1.700000X1.700000*%
%ADD12C,1.270000*%
%ADD13R,3.000000X3.000000*%
%ADD14C,3.000000*%
%ADD15O,1.274000X2.344000*%
%ADD16C,1.504000*%
%ADD17C,1.701800*%
%ADD18RoundRect,0.102000X1.500000X2.100000X-1.500000X2.100000X-1.500000X-2.100000X1.500000X-2.100000X0*%
G04 APERTURE END LIST*
D10*
%TO.C,J5*%
X123475000Y-157500000D03*
D11*
X126015000Y-157500000D03*
X128555000Y-157500000D03*
%TD*%
D10*
%TO.C,J7*%
X126000000Y-60225000D03*
D11*
X126000000Y-62765000D03*
%TD*%
D12*
%TO.C,U5*%
X101904500Y-155060900D03*
X104444500Y-155060900D03*
X106984500Y-155060900D03*
%TD*%
D13*
%TO.C,J2*%
X104607500Y-43950000D03*
D14*
X100727500Y-43950000D03*
%TD*%
D15*
%TO.C,J6*%
X122573250Y-31975000D03*
D16*
X123748250Y-34625000D03*
X128598250Y-34625000D03*
D15*
X129773250Y-31975000D03*
%TD*%
D12*
%TO.C,LED1*%
X77985800Y-55110000D03*
X77985800Y-57650000D03*
X77985800Y-60190000D03*
X77985800Y-62730000D03*
X77985800Y-65270000D03*
X77985800Y-67810000D03*
X77985800Y-70350000D03*
X77985800Y-72890000D03*
X102014200Y-72890000D03*
X102014200Y-70350000D03*
X102014200Y-67810000D03*
X102014200Y-65270000D03*
X102014200Y-62730000D03*
X102014200Y-60190000D03*
X102014200Y-57650000D03*
X102014200Y-55110000D03*
%TD*%
D10*
%TO.C,J4*%
X90975000Y-157500000D03*
D11*
X93515000Y-157500000D03*
X96055000Y-157500000D03*
%TD*%
D10*
%TO.C,J3*%
X121800000Y-63000000D03*
D11*
X119260000Y-63000000D03*
X116720000Y-63000000D03*
X114180000Y-63000000D03*
%TD*%
D17*
%TO.C,BT1*%
X81299990Y-133000000D03*
X100549994Y-133000000D03*
%TD*%
D18*
%TO.C,BT2*%
X147500000Y-133000000D03*
X118500000Y-133000000D03*
%TD*%
M02*
