M48
; DRILL file {KiCad 8.0.0-8.0.0-1~ubuntu20.04.1} date 2024-04-01T04:19:57+0800
; FORMAT={-:-/ absolute / inch / decimal}
; #@! TF.CreationDate,2024-04-01T04:19:57+08:00
; #@! TF.GenerationSoftware,Kicad,Pcbnew,8.0.0-8.0.0-1~ubuntu20.04.1
; #@! TF.FileFunction,Plated,1,2,PTH
FMAT,2
INCH
; #@! TA.AperFunction,Plated,PTH,ViaDrill
T1C0.0079
; #@! TA.AperFunction,Plated,PTH,ViaDrill
T2C0.0118
; #@! TA.AperFunction,Plated,PTH,ComponentDrill
T3C0.0197
; #@! TA.AperFunction,Plated,PTH,ComponentDrill
T4C0.0276
; #@! TA.AperFunction,Plated,PTH,ComponentDrill
T5C0.0300
; #@! TA.AperFunction,Plated,PTH,ComponentDrill
T6C0.0394
; #@! TA.AperFunction,Plated,PTH,ComponentDrill
T7C0.0472
; #@! TA.AperFunction,Plated,PTH,ComponentDrill
T8C0.0689
%
G90
G05
T1
X3.4291Y-6.1378
X3.6909Y-2.7067
X3.7776Y-2.7362
X3.8228Y-2.7146
X3.876Y-2.7776
X3.876Y-2.876
X3.8898Y-2.937
X3.935Y-2.7795
X3.9429Y-2.6949
X3.9469Y-2.7343
X3.9488Y-2.6417
X4.0394Y-5.6339
X4.0689Y-2.8602
X4.0709Y-2.8228
X4.1457Y-5.0787
X4.2047Y-3.0433
X4.2283Y-3.063
X4.2559Y-3.0866
X4.2795Y-3.1102
X4.315Y-3.1102
X4.3386Y-3.0827
X4.3504Y-1.7756
X4.3661Y-3.0591
X4.3898Y-3.0315
X4.4606Y-1.3819
X4.4606Y-5.5236
X4.4646Y-5.0866
X4.4882Y-2.126
X4.7776Y-1.4665
X4.9449Y-5.9606
X4.9921Y-1.311
X5.0197Y-1.4429
X5.0512Y-5.622
X5.126Y-1.8543
X5.189Y-6.1299
X5.3346Y-1.2795
X5.4606Y-5.0512
X5.4921Y-5.6142
T2
X3.1791Y-1.5748
X3.248Y-1.5945
X3.2972Y-1.437
X3.3858Y-1.4272
X3.4528Y-6.2717
X3.4961Y-1.7008
X3.5512Y-1.6929
X4.3898Y-2.0551
X4.3976Y-2.0945
X4.4114Y-1.6457
X4.4173Y-1.7047
X4.5039Y-1.7992
X4.5394Y-5.1772
X4.5536Y-2.0113
X4.5571Y-1.8898
X4.6024Y-1.7953
X4.6181Y-1.9843
X4.6181Y-2.3661
X4.6299Y-6.2087
X4.7677Y-1.6929
X4.7717Y-2.2953
X4.8858Y-1.748
X4.8858Y-2.1378
X4.9449Y-2.1339
X5.2126Y-1.7205
X5.2205Y-2.126
X5.2244Y-1.6811
X5.248Y-1.8543
X5.248Y-2.0551
X5.248Y-2.1732
X5.248Y-2.2913
X5.248Y-2.4094
X5.248Y-2.5276
X5.248Y-2.6457
X5.248Y-2.7638
X5.248Y-2.8819
X5.2598Y-1.8858
X5.2953Y-1.6693
X5.3189Y-1.8543
X5.3228Y-1.6496
X5.3333Y-2.2346
X5.3346Y-1.6181
X5.3386Y-5.2362
X5.3425Y-1.2165
X5.3661Y-1.5551
X5.3661Y-2.0551
X5.3661Y-2.1732
X5.3661Y-2.2913
X5.3661Y-2.4094
X5.3661Y-2.5276
X5.3661Y-2.6457
X5.3661Y-2.7638
X5.3661Y-2.8819
X5.3937Y-1.622
X5.4016Y-1.2165
X5.4016Y-1.8858
X5.4252Y-1.6732
X5.4291Y-1.6142
X5.4449Y-1.5827
X5.4528Y-1.8543
X5.4567Y-2.3622
X5.4843Y-2.0551
X5.4843Y-2.1732
X5.4843Y-2.2913
X5.4843Y-2.4094
X5.4843Y-2.5276
X5.4843Y-2.6457
X5.4843Y-2.7638
X5.4843Y-2.8819
X5.5173Y-1.348
X5.5276Y-1.8858
X5.5315Y-5.8268
X5.5433Y-1.6299
X5.5748Y-2.4803
X5.5866Y-1.8504
X5.6024Y-1.6142
X5.6024Y-2.0551
X5.6024Y-2.1732
X5.6024Y-2.2913
X5.6024Y-2.4094
X5.6024Y-2.5276
X5.6024Y-2.6457
X5.6024Y-2.7638
X5.6024Y-2.8819
X5.6181Y-1.4016
X5.6535Y-1.3622
X5.6654Y-1.5866
X5.6693Y-1.8858
X5.6929Y-2.5984
X5.7205Y-2.0551
X5.7205Y-2.1732
X5.7205Y-2.2913
X5.7205Y-2.4094
X5.7205Y-2.5276
X5.7205Y-2.6457
X5.7205Y-2.7638
X5.7205Y-2.8819
X5.7244Y-1.8504
X5.7677Y-1.3504
X5.7677Y-1.9291
X5.7717Y-1.6575
X5.811Y-2.7165
X5.8386Y-2.0551
X5.8386Y-2.1732
X5.8386Y-2.2913
X5.8386Y-2.4094
X5.8386Y-2.5276
X5.8386Y-2.6457
X5.8386Y-2.7638
X5.8386Y-2.8819
X5.8504Y-1.8504
X5.8622Y-1.6378
X5.8661Y-1.8858
X5.9291Y-2.8346
X5.9528Y-1.6299
X5.9567Y-2.0551
X5.9567Y-2.1732
X5.9567Y-2.2913
X5.9567Y-2.4094
X5.9567Y-2.5276
X5.9567Y-2.6457
X5.9567Y-2.7638
X5.9567Y-2.8819
X5.9882Y-1.6031
X5.9961Y-1.8858
X5.9961Y-4.626
X6.0Y-1.8504
X6.0236Y-1.4075
X6.0433Y-1.7756
X6.0472Y-2.9528
X6.0591Y-1.7104
X6.0748Y-2.0551
X6.0748Y-2.1732
X6.0748Y-2.2913
X6.0748Y-2.4094
X6.0748Y-2.5276
X6.0748Y-2.6457
X6.0748Y-2.7638
X6.0748Y-2.8819
X6.1063Y-1.7165
T4
X4.872Y-1.3632
X5.0629Y-1.3632
T5
X3.0703Y-2.1697
X3.0703Y-2.2697
X3.0703Y-2.3697
X3.0703Y-2.4697
X3.0703Y-2.5697
X3.0703Y-2.6697
X3.0703Y-2.7697
X3.0703Y-2.8697
X4.012Y-6.1048
X4.0163Y-2.1697
X4.0163Y-2.2697
X4.0163Y-2.3697
X4.0163Y-2.4697
X4.0163Y-2.5697
X4.0163Y-2.6697
X4.0163Y-2.7697
X4.0163Y-2.8697
X4.112Y-6.1048
X4.212Y-6.1048
T6
X3.5817Y-6.2008
X3.6817Y-6.2008
X3.7817Y-6.2008
X4.4953Y-2.4803
X4.5953Y-2.4803
X4.6953Y-2.4803
X4.7953Y-2.4803
X4.8612Y-6.2008
X4.9606Y-2.3711
X4.9606Y-2.4711
X4.9612Y-6.2008
X5.0612Y-6.2008
T7
X3.2008Y-5.2362
X3.9587Y-5.2362
T8
X3.9656Y-1.7303
X4.1184Y-1.7303
T3
G00X4.8257Y-1.2431
M15
G01X4.8257Y-1.2746
M16
G05
G00X5.1092Y-1.2431
M15
G01X5.1092Y-1.2746
M16
G05
M30
