%TF.GenerationSoftware,KiCad,Pcbnew,8.0.0-8.0.0-1~ubuntu20.04.1*%
%TF.CreationDate,2024-04-01T04:19:54+08:00*%
%TF.ProjectId,pcb_badge,7063625f-6261-4646-9765-2e6b69636164,rev?*%
%TF.SameCoordinates,Original*%
%TF.FileFunction,Copper,L1,Top*%
%TF.FilePolarity,Positive*%
%FSLAX46Y46*%
G04 Gerber Fmt 4.6, Leading zero omitted, Abs format (unit mm)*
G04 Created by KiCad (PCBNEW 8.0.0-8.0.0-1~ubuntu20.04.1) date 2024-04-01 04:19:54*
%MOMM*%
%LPD*%
G01*
G04 APERTURE LIST*
G04 Aperture macros list*
%AMRoundRect*
0 Rectangle with rounded corners*
0 $1 Rounding radius*
0 $2 $3 $4 $5 $6 $7 $8 $9 X,Y pos of 4 corners*
0 Add a 4 corners polygon primitive as box body*
4,1,4,$2,$3,$4,$5,$6,$7,$8,$9,$2,$3,0*
0 Add four circle primitives for the rounded corners*
1,1,$1+$1,$2,$3*
1,1,$1+$1,$4,$5*
1,1,$1+$1,$6,$7*
1,1,$1+$1,$8,$9*
0 Add four rect primitives between the rounded corners*
20,1,$1+$1,$2,$3,$4,$5,0*
20,1,$1+$1,$4,$5,$6,$7,0*
20,1,$1+$1,$6,$7,$8,$9,0*
20,1,$1+$1,$8,$9,$2,$3,0*%
G04 Aperture macros list end*
%ADD10C,0.300000*%
%TA.AperFunction,NonConductor*%
%ADD11C,0.300000*%
%TD*%
%TA.AperFunction,SMDPad,CuDef*%
%ADD12RoundRect,0.155000X0.155000X-0.212500X0.155000X0.212500X-0.155000X0.212500X-0.155000X-0.212500X0*%
%TD*%
%TA.AperFunction,ComponentPad*%
%ADD13R,1.700000X1.700000*%
%TD*%
%TA.AperFunction,ComponentPad*%
%ADD14O,1.700000X1.700000*%
%TD*%
%TA.AperFunction,SMDPad,CuDef*%
%ADD15RoundRect,0.150000X-0.150000X0.587500X-0.150000X-0.587500X0.150000X-0.587500X0.150000X0.587500X0*%
%TD*%
%TA.AperFunction,SMDPad,CuDef*%
%ADD16RoundRect,0.075000X0.075000X-0.662500X0.075000X0.662500X-0.075000X0.662500X-0.075000X-0.662500X0*%
%TD*%
%TA.AperFunction,SMDPad,CuDef*%
%ADD17RoundRect,0.075000X0.662500X-0.075000X0.662500X0.075000X-0.662500X0.075000X-0.662500X-0.075000X0*%
%TD*%
%TA.AperFunction,SMDPad,CuDef*%
%ADD18RoundRect,0.160000X-0.222500X-0.160000X0.222500X-0.160000X0.222500X0.160000X-0.222500X0.160000X0*%
%TD*%
%TA.AperFunction,SMDPad,CuDef*%
%ADD19RoundRect,0.250000X-0.250000X-0.250000X0.250000X-0.250000X0.250000X0.250000X-0.250000X0.250000X0*%
%TD*%
%TA.AperFunction,SMDPad,CuDef*%
%ADD20RoundRect,0.160000X-0.197500X-0.160000X0.197500X-0.160000X0.197500X0.160000X-0.197500X0.160000X0*%
%TD*%
%TA.AperFunction,SMDPad,CuDef*%
%ADD21RoundRect,0.160000X-0.160000X0.197500X-0.160000X-0.197500X0.160000X-0.197500X0.160000X0.197500X0*%
%TD*%
%TA.AperFunction,SMDPad,CuDef*%
%ADD22R,1.524000X0.762000*%
%TD*%
%TA.AperFunction,SMDPad,CuDef*%
%ADD23RoundRect,0.155000X-0.155000X0.212500X-0.155000X-0.212500X0.155000X-0.212500X0.155000X0.212500X0*%
%TD*%
%TA.AperFunction,SMDPad,CuDef*%
%ADD24RoundRect,0.237500X0.237500X-0.300000X0.237500X0.300000X-0.237500X0.300000X-0.237500X-0.300000X0*%
%TD*%
%TA.AperFunction,SMDPad,CuDef*%
%ADD25RoundRect,0.155000X-0.212500X-0.155000X0.212500X-0.155000X0.212500X0.155000X-0.212500X0.155000X0*%
%TD*%
%TA.AperFunction,SMDPad,CuDef*%
%ADD26RoundRect,0.155000X0.212500X0.155000X-0.212500X0.155000X-0.212500X-0.155000X0.212500X-0.155000X0*%
%TD*%
%TA.AperFunction,ComponentPad*%
%ADD27C,1.270000*%
%TD*%
%TA.AperFunction,ComponentPad*%
%ADD28R,3.000000X3.000000*%
%TD*%
%TA.AperFunction,ComponentPad*%
%ADD29C,3.000000*%
%TD*%
%TA.AperFunction,SMDPad,CuDef*%
%ADD30RoundRect,0.160000X0.160000X-0.197500X0.160000X0.197500X-0.160000X0.197500X-0.160000X-0.197500X0*%
%TD*%
%TA.AperFunction,SMDPad,CuDef*%
%ADD31RoundRect,0.237500X-0.287500X-0.237500X0.287500X-0.237500X0.287500X0.237500X-0.287500X0.237500X0*%
%TD*%
%TA.AperFunction,SMDPad,CuDef*%
%ADD32R,0.400000X1.600000*%
%TD*%
%TA.AperFunction,ComponentPad*%
%ADD33O,1.070000X2.140000*%
%TD*%
%TA.AperFunction,ComponentPad*%
%ADD34C,1.300000*%
%TD*%
%TA.AperFunction,SMDPad,CuDef*%
%ADD35RoundRect,0.150000X-0.150000X0.850000X-0.150000X-0.850000X0.150000X-0.850000X0.150000X0.850000X0*%
%TD*%
%TA.AperFunction,SMDPad,CuDef*%
%ADD36RoundRect,0.160000X0.197500X0.160000X-0.197500X0.160000X-0.197500X-0.160000X0.197500X-0.160000X0*%
%TD*%
%TA.AperFunction,SMDPad,CuDef*%
%ADD37RoundRect,0.250000X0.250000X0.250000X-0.250000X0.250000X-0.250000X-0.250000X0.250000X-0.250000X0*%
%TD*%
%TA.AperFunction,SMDPad,CuDef*%
%ADD38R,1.805236X0.612132*%
%TD*%
%TA.AperFunction,SMDPad,CuDef*%
%ADD39RoundRect,0.237500X-0.300000X-0.237500X0.300000X-0.237500X0.300000X0.237500X-0.300000X0.237500X0*%
%TD*%
%TA.AperFunction,SMDPad,CuDef*%
%ADD40R,1.800000X1.000000*%
%TD*%
%TA.AperFunction,SMDPad,CuDef*%
%ADD41R,1.500000X2.000000*%
%TD*%
%TA.AperFunction,SMDPad,CuDef*%
%ADD42R,3.800000X2.000000*%
%TD*%
%TA.AperFunction,SMDPad,CuDef*%
%ADD43R,1.100000X1.300000*%
%TD*%
%TA.AperFunction,SMDPad,CuDef*%
%ADD44RoundRect,0.150000X-0.587500X-0.150000X0.587500X-0.150000X0.587500X0.150000X-0.587500X0.150000X0*%
%TD*%
%TA.AperFunction,SMDPad,CuDef*%
%ADD45R,0.406400X1.346200*%
%TD*%
%TA.AperFunction,SMDPad,CuDef*%
%ADD46R,1.600200X2.108200*%
%TD*%
%TA.AperFunction,SMDPad,CuDef*%
%ADD47R,1.905000X1.803400*%
%TD*%
%TA.AperFunction,SMDPad,CuDef*%
%ADD48R,1.905000X1.905000*%
%TD*%
%TA.AperFunction,SMDPad,CuDef*%
%ADD49RoundRect,0.237500X-0.237500X0.300000X-0.237500X-0.300000X0.237500X-0.300000X0.237500X0.300000X0*%
%TD*%
%TA.AperFunction,ComponentPad*%
%ADD50C,1.701800*%
%TD*%
%TA.AperFunction,ViaPad*%
%ADD51C,0.700000*%
%TD*%
%TA.AperFunction,ViaPad*%
%ADD52C,0.600000*%
%TD*%
%TA.AperFunction,ViaPad*%
%ADD53C,0.500000*%
%TD*%
%TA.AperFunction,Conductor*%
%ADD54C,0.350000*%
%TD*%
%TA.AperFunction,Conductor*%
%ADD55C,0.250000*%
%TD*%
%TA.AperFunction,Conductor*%
%ADD56C,0.180000*%
%TD*%
%TA.AperFunction,Conductor*%
%ADD57C,0.254000*%
%TD*%
G04 APERTURE END LIST*
D10*
D11*
X87340225Y-146372257D02*
X87197368Y-146300828D01*
X87197368Y-146300828D02*
X86983082Y-146300828D01*
X86983082Y-146300828D02*
X86768796Y-146372257D01*
X86768796Y-146372257D02*
X86625939Y-146515114D01*
X86625939Y-146515114D02*
X86554510Y-146657971D01*
X86554510Y-146657971D02*
X86483082Y-146943685D01*
X86483082Y-146943685D02*
X86483082Y-147157971D01*
X86483082Y-147157971D02*
X86554510Y-147443685D01*
X86554510Y-147443685D02*
X86625939Y-147586542D01*
X86625939Y-147586542D02*
X86768796Y-147729400D01*
X86768796Y-147729400D02*
X86983082Y-147800828D01*
X86983082Y-147800828D02*
X87125939Y-147800828D01*
X87125939Y-147800828D02*
X87340225Y-147729400D01*
X87340225Y-147729400D02*
X87411653Y-147657971D01*
X87411653Y-147657971D02*
X87411653Y-147157971D01*
X87411653Y-147157971D02*
X87125939Y-147157971D01*
X88054510Y-147800828D02*
X88054510Y-146800828D01*
X88054510Y-146300828D02*
X87983082Y-146372257D01*
X87983082Y-146372257D02*
X88054510Y-146443685D01*
X88054510Y-146443685D02*
X88125939Y-146372257D01*
X88125939Y-146372257D02*
X88054510Y-146300828D01*
X88054510Y-146300828D02*
X88054510Y-146443685D01*
X88554511Y-146800828D02*
X89125939Y-146800828D01*
X88768796Y-146300828D02*
X88768796Y-147586542D01*
X88768796Y-147586542D02*
X88840225Y-147729400D01*
X88840225Y-147729400D02*
X88983082Y-147800828D01*
X88983082Y-147800828D02*
X89125939Y-147800828D01*
X91625939Y-147800828D02*
X91125939Y-147086542D01*
X90768796Y-147800828D02*
X90768796Y-146300828D01*
X90768796Y-146300828D02*
X91340225Y-146300828D01*
X91340225Y-146300828D02*
X91483082Y-146372257D01*
X91483082Y-146372257D02*
X91554511Y-146443685D01*
X91554511Y-146443685D02*
X91625939Y-146586542D01*
X91625939Y-146586542D02*
X91625939Y-146800828D01*
X91625939Y-146800828D02*
X91554511Y-146943685D01*
X91554511Y-146943685D02*
X91483082Y-147015114D01*
X91483082Y-147015114D02*
X91340225Y-147086542D01*
X91340225Y-147086542D02*
X90768796Y-147086542D01*
X92840225Y-147729400D02*
X92697368Y-147800828D01*
X92697368Y-147800828D02*
X92411654Y-147800828D01*
X92411654Y-147800828D02*
X92268796Y-147729400D01*
X92268796Y-147729400D02*
X92197368Y-147586542D01*
X92197368Y-147586542D02*
X92197368Y-147015114D01*
X92197368Y-147015114D02*
X92268796Y-146872257D01*
X92268796Y-146872257D02*
X92411654Y-146800828D01*
X92411654Y-146800828D02*
X92697368Y-146800828D01*
X92697368Y-146800828D02*
X92840225Y-146872257D01*
X92840225Y-146872257D02*
X92911654Y-147015114D01*
X92911654Y-147015114D02*
X92911654Y-147157971D01*
X92911654Y-147157971D02*
X92197368Y-147300828D01*
X93411653Y-146800828D02*
X93768796Y-147800828D01*
X93768796Y-147800828D02*
X94125939Y-146800828D01*
X94697367Y-147657971D02*
X94768796Y-147729400D01*
X94768796Y-147729400D02*
X94697367Y-147800828D01*
X94697367Y-147800828D02*
X94625939Y-147729400D01*
X94625939Y-147729400D02*
X94697367Y-147657971D01*
X94697367Y-147657971D02*
X94697367Y-147800828D01*
X94697367Y-146872257D02*
X94768796Y-146943685D01*
X94768796Y-146943685D02*
X94697367Y-147015114D01*
X94697367Y-147015114D02*
X94625939Y-146943685D01*
X94625939Y-146943685D02*
X94697367Y-146872257D01*
X94697367Y-146872257D02*
X94697367Y-147015114D01*
X97197368Y-147729400D02*
X97054510Y-147800828D01*
X97054510Y-147800828D02*
X96768796Y-147800828D01*
X96768796Y-147800828D02*
X96625939Y-147729400D01*
X96625939Y-147729400D02*
X96554510Y-147657971D01*
X96554510Y-147657971D02*
X96483082Y-147515114D01*
X96483082Y-147515114D02*
X96483082Y-147086542D01*
X96483082Y-147086542D02*
X96554510Y-146943685D01*
X96554510Y-146943685D02*
X96625939Y-146872257D01*
X96625939Y-146872257D02*
X96768796Y-146800828D01*
X96768796Y-146800828D02*
X97054510Y-146800828D01*
X97054510Y-146800828D02*
X97197368Y-146872257D01*
X98125939Y-146300828D02*
X98268796Y-146300828D01*
X98268796Y-146300828D02*
X98411653Y-146372257D01*
X98411653Y-146372257D02*
X98483082Y-146443685D01*
X98483082Y-146443685D02*
X98554510Y-146586542D01*
X98554510Y-146586542D02*
X98625939Y-146872257D01*
X98625939Y-146872257D02*
X98625939Y-147229400D01*
X98625939Y-147229400D02*
X98554510Y-147515114D01*
X98554510Y-147515114D02*
X98483082Y-147657971D01*
X98483082Y-147657971D02*
X98411653Y-147729400D01*
X98411653Y-147729400D02*
X98268796Y-147800828D01*
X98268796Y-147800828D02*
X98125939Y-147800828D01*
X98125939Y-147800828D02*
X97983082Y-147729400D01*
X97983082Y-147729400D02*
X97911653Y-147657971D01*
X97911653Y-147657971D02*
X97840224Y-147515114D01*
X97840224Y-147515114D02*
X97768796Y-147229400D01*
X97768796Y-147229400D02*
X97768796Y-146872257D01*
X97768796Y-146872257D02*
X97840224Y-146586542D01*
X97840224Y-146586542D02*
X97911653Y-146443685D01*
X97911653Y-146443685D02*
X97983082Y-146372257D01*
X97983082Y-146372257D02*
X98125939Y-146300828D01*
X99125938Y-146300828D02*
X100054510Y-146300828D01*
X100054510Y-146300828D02*
X99554510Y-146872257D01*
X99554510Y-146872257D02*
X99768795Y-146872257D01*
X99768795Y-146872257D02*
X99911653Y-146943685D01*
X99911653Y-146943685D02*
X99983081Y-147015114D01*
X99983081Y-147015114D02*
X100054510Y-147157971D01*
X100054510Y-147157971D02*
X100054510Y-147515114D01*
X100054510Y-147515114D02*
X99983081Y-147657971D01*
X99983081Y-147657971D02*
X99911653Y-147729400D01*
X99911653Y-147729400D02*
X99768795Y-147800828D01*
X99768795Y-147800828D02*
X99340224Y-147800828D01*
X99340224Y-147800828D02*
X99197367Y-147729400D01*
X99197367Y-147729400D02*
X99125938Y-147657971D01*
X101411652Y-146300828D02*
X100697366Y-146300828D01*
X100697366Y-146300828D02*
X100625938Y-147015114D01*
X100625938Y-147015114D02*
X100697366Y-146943685D01*
X100697366Y-146943685D02*
X100840224Y-146872257D01*
X100840224Y-146872257D02*
X101197366Y-146872257D01*
X101197366Y-146872257D02*
X101340224Y-146943685D01*
X101340224Y-146943685D02*
X101411652Y-147015114D01*
X101411652Y-147015114D02*
X101483081Y-147157971D01*
X101483081Y-147157971D02*
X101483081Y-147515114D01*
X101483081Y-147515114D02*
X101411652Y-147657971D01*
X101411652Y-147657971D02*
X101340224Y-147729400D01*
X101340224Y-147729400D02*
X101197366Y-147800828D01*
X101197366Y-147800828D02*
X100840224Y-147800828D01*
X100840224Y-147800828D02*
X100697366Y-147729400D01*
X100697366Y-147729400D02*
X100625938Y-147657971D01*
X102697366Y-147729400D02*
X102554509Y-147800828D01*
X102554509Y-147800828D02*
X102268795Y-147800828D01*
X102268795Y-147800828D02*
X102125937Y-147729400D01*
X102125937Y-147729400D02*
X102054509Y-147586542D01*
X102054509Y-147586542D02*
X102054509Y-147015114D01*
X102054509Y-147015114D02*
X102125937Y-146872257D01*
X102125937Y-146872257D02*
X102268795Y-146800828D01*
X102268795Y-146800828D02*
X102554509Y-146800828D01*
X102554509Y-146800828D02*
X102697366Y-146872257D01*
X102697366Y-146872257D02*
X102768795Y-147015114D01*
X102768795Y-147015114D02*
X102768795Y-147157971D01*
X102768795Y-147157971D02*
X102054509Y-147300828D01*
X103197366Y-146800828D02*
X103768794Y-146800828D01*
X103411651Y-147800828D02*
X103411651Y-146515114D01*
X103411651Y-146515114D02*
X103483080Y-146372257D01*
X103483080Y-146372257D02*
X103625937Y-146300828D01*
X103625937Y-146300828D02*
X103768794Y-146300828D01*
X104911652Y-146800828D02*
X104911652Y-147800828D01*
X104554509Y-146229400D02*
X104197366Y-147300828D01*
X104197366Y-147300828D02*
X105125937Y-147300828D01*
X105911651Y-146943685D02*
X105768794Y-146872257D01*
X105768794Y-146872257D02*
X105697365Y-146800828D01*
X105697365Y-146800828D02*
X105625937Y-146657971D01*
X105625937Y-146657971D02*
X105625937Y-146586542D01*
X105625937Y-146586542D02*
X105697365Y-146443685D01*
X105697365Y-146443685D02*
X105768794Y-146372257D01*
X105768794Y-146372257D02*
X105911651Y-146300828D01*
X105911651Y-146300828D02*
X106197365Y-146300828D01*
X106197365Y-146300828D02*
X106340223Y-146372257D01*
X106340223Y-146372257D02*
X106411651Y-146443685D01*
X106411651Y-146443685D02*
X106483080Y-146586542D01*
X106483080Y-146586542D02*
X106483080Y-146657971D01*
X106483080Y-146657971D02*
X106411651Y-146800828D01*
X106411651Y-146800828D02*
X106340223Y-146872257D01*
X106340223Y-146872257D02*
X106197365Y-146943685D01*
X106197365Y-146943685D02*
X105911651Y-146943685D01*
X105911651Y-146943685D02*
X105768794Y-147015114D01*
X105768794Y-147015114D02*
X105697365Y-147086542D01*
X105697365Y-147086542D02*
X105625937Y-147229400D01*
X105625937Y-147229400D02*
X105625937Y-147515114D01*
X105625937Y-147515114D02*
X105697365Y-147657971D01*
X105697365Y-147657971D02*
X105768794Y-147729400D01*
X105768794Y-147729400D02*
X105911651Y-147800828D01*
X105911651Y-147800828D02*
X106197365Y-147800828D01*
X106197365Y-147800828D02*
X106340223Y-147729400D01*
X106340223Y-147729400D02*
X106411651Y-147657971D01*
X106411651Y-147657971D02*
X106483080Y-147515114D01*
X106483080Y-147515114D02*
X106483080Y-147229400D01*
X106483080Y-147229400D02*
X106411651Y-147086542D01*
X106411651Y-147086542D02*
X106340223Y-147015114D01*
X106340223Y-147015114D02*
X106197365Y-146943685D01*
X106983079Y-146300828D02*
X107911651Y-146300828D01*
X107911651Y-146300828D02*
X107411651Y-146872257D01*
X107411651Y-146872257D02*
X107625936Y-146872257D01*
X107625936Y-146872257D02*
X107768794Y-146943685D01*
X107768794Y-146943685D02*
X107840222Y-147015114D01*
X107840222Y-147015114D02*
X107911651Y-147157971D01*
X107911651Y-147157971D02*
X107911651Y-147515114D01*
X107911651Y-147515114D02*
X107840222Y-147657971D01*
X107840222Y-147657971D02*
X107768794Y-147729400D01*
X107768794Y-147729400D02*
X107625936Y-147800828D01*
X107625936Y-147800828D02*
X107197365Y-147800828D01*
X107197365Y-147800828D02*
X107054508Y-147729400D01*
X107054508Y-147729400D02*
X106983079Y-147657971D01*
X109197365Y-146800828D02*
X109197365Y-147800828D01*
X108840222Y-146229400D02*
X108483079Y-147300828D01*
X108483079Y-147300828D02*
X109411650Y-147300828D01*
X109768793Y-146800828D02*
X110340221Y-146800828D01*
X109983078Y-147800828D02*
X109983078Y-146515114D01*
X109983078Y-146515114D02*
X110054507Y-146372257D01*
X110054507Y-146372257D02*
X110197364Y-146300828D01*
X110197364Y-146300828D02*
X110340221Y-146300828D01*
X111483079Y-147800828D02*
X111483079Y-146300828D01*
X111483079Y-147729400D02*
X111340221Y-147800828D01*
X111340221Y-147800828D02*
X111054507Y-147800828D01*
X111054507Y-147800828D02*
X110911650Y-147729400D01*
X110911650Y-147729400D02*
X110840221Y-147657971D01*
X110840221Y-147657971D02*
X110768793Y-147515114D01*
X110768793Y-147515114D02*
X110768793Y-147086542D01*
X110768793Y-147086542D02*
X110840221Y-146943685D01*
X110840221Y-146943685D02*
X110911650Y-146872257D01*
X110911650Y-146872257D02*
X111054507Y-146800828D01*
X111054507Y-146800828D02*
X111340221Y-146800828D01*
X111340221Y-146800828D02*
X111483079Y-146872257D01*
X112840222Y-147729400D02*
X112697364Y-147800828D01*
X112697364Y-147800828D02*
X112411650Y-147800828D01*
X112411650Y-147800828D02*
X112268793Y-147729400D01*
X112268793Y-147729400D02*
X112197364Y-147657971D01*
X112197364Y-147657971D02*
X112125936Y-147515114D01*
X112125936Y-147515114D02*
X112125936Y-147086542D01*
X112125936Y-147086542D02*
X112197364Y-146943685D01*
X112197364Y-146943685D02*
X112268793Y-146872257D01*
X112268793Y-146872257D02*
X112411650Y-146800828D01*
X112411650Y-146800828D02*
X112697364Y-146800828D01*
X112697364Y-146800828D02*
X112840222Y-146872257D01*
X114125936Y-146800828D02*
X114125936Y-147800828D01*
X113768793Y-146229400D02*
X113411650Y-147300828D01*
X113411650Y-147300828D02*
X114340221Y-147300828D01*
X115125935Y-146943685D02*
X114983078Y-146872257D01*
X114983078Y-146872257D02*
X114911649Y-146800828D01*
X114911649Y-146800828D02*
X114840221Y-146657971D01*
X114840221Y-146657971D02*
X114840221Y-146586542D01*
X114840221Y-146586542D02*
X114911649Y-146443685D01*
X114911649Y-146443685D02*
X114983078Y-146372257D01*
X114983078Y-146372257D02*
X115125935Y-146300828D01*
X115125935Y-146300828D02*
X115411649Y-146300828D01*
X115411649Y-146300828D02*
X115554507Y-146372257D01*
X115554507Y-146372257D02*
X115625935Y-146443685D01*
X115625935Y-146443685D02*
X115697364Y-146586542D01*
X115697364Y-146586542D02*
X115697364Y-146657971D01*
X115697364Y-146657971D02*
X115625935Y-146800828D01*
X115625935Y-146800828D02*
X115554507Y-146872257D01*
X115554507Y-146872257D02*
X115411649Y-146943685D01*
X115411649Y-146943685D02*
X115125935Y-146943685D01*
X115125935Y-146943685D02*
X114983078Y-147015114D01*
X114983078Y-147015114D02*
X114911649Y-147086542D01*
X114911649Y-147086542D02*
X114840221Y-147229400D01*
X114840221Y-147229400D02*
X114840221Y-147515114D01*
X114840221Y-147515114D02*
X114911649Y-147657971D01*
X114911649Y-147657971D02*
X114983078Y-147729400D01*
X114983078Y-147729400D02*
X115125935Y-147800828D01*
X115125935Y-147800828D02*
X115411649Y-147800828D01*
X115411649Y-147800828D02*
X115554507Y-147729400D01*
X115554507Y-147729400D02*
X115625935Y-147657971D01*
X115625935Y-147657971D02*
X115697364Y-147515114D01*
X115697364Y-147515114D02*
X115697364Y-147229400D01*
X115697364Y-147229400D02*
X115625935Y-147086542D01*
X115625935Y-147086542D02*
X115554507Y-147015114D01*
X115554507Y-147015114D02*
X115411649Y-146943685D01*
X117125935Y-147800828D02*
X116268792Y-147800828D01*
X116697363Y-147800828D02*
X116697363Y-146300828D01*
X116697363Y-146300828D02*
X116554506Y-146515114D01*
X116554506Y-146515114D02*
X116411649Y-146657971D01*
X116411649Y-146657971D02*
X116268792Y-146729400D01*
X118554506Y-147800828D02*
X117697363Y-147800828D01*
X118125934Y-147800828D02*
X118125934Y-146300828D01*
X118125934Y-146300828D02*
X117983077Y-146515114D01*
X117983077Y-146515114D02*
X117840220Y-146657971D01*
X117840220Y-146657971D02*
X117697363Y-146729400D01*
D12*
%TO.P,C40,1*%
%TO.N,VCC*%
X150600000Y-36867500D03*
%TO.P,C40,2*%
%TO.N,GND*%
X150600000Y-35732500D03*
%TD*%
D13*
%TO.P,J5,1,Pin_1*%
%TO.N,unconnected-(J5-Pin_1-Pad1)*%
X123475000Y-157500000D03*
D14*
%TO.P,J5,2,Pin_2*%
%TO.N,Net-(J5-Pin_2)*%
X126015000Y-157500000D03*
%TO.P,J5,3,Pin_3*%
%TO.N,GND*%
X128555000Y-157500000D03*
%TD*%
D15*
%TO.P,Q1,1,G*%
%TO.N,/LED Matrix/Y7D*%
X133450000Y-45562500D03*
%TO.P,Q1,2,S*%
%TO.N,GND*%
X131550000Y-45562500D03*
%TO.P,Q1,3,D*%
%TO.N,/LED Matrix/MAT_RA*%
X132500000Y-47437500D03*
%TD*%
D16*
%TO.P,U3,1,VBAT*%
%TO.N,/MCU/STM_VBATT*%
X114500000Y-52500000D03*
%TO.P,U3,2,PC13*%
%TO.N,unconnected-(U3-PC13-Pad2)*%
X115000000Y-52500000D03*
%TO.P,U3,3,PC14*%
%TO.N,/MCU/PC14*%
X115500000Y-52500000D03*
%TO.P,U3,4,PC15*%
%TO.N,/MCU/PC15*%
X116000000Y-52500000D03*
%TO.P,U3,5,PD0*%
%TO.N,/MCU/PD0*%
X116500000Y-52500000D03*
%TO.P,U3,6,PD1*%
%TO.N,/MCU/PD1*%
X117000000Y-52500000D03*
%TO.P,U3,7,NRST*%
%TO.N,Net-(U3-NRST)*%
X117500000Y-52500000D03*
%TO.P,U3,8,VSSA*%
%TO.N,GND*%
X118000000Y-52500000D03*
%TO.P,U3,9,VDDA*%
%TO.N,VCC*%
X118500000Y-52500000D03*
%TO.P,U3,10,PA0*%
%TO.N,/MCU/PA0*%
X119000000Y-52500000D03*
%TO.P,U3,11,PA1*%
%TO.N,/MCU/PA1*%
X119500000Y-52500000D03*
%TO.P,U3,12,PA2*%
%TO.N,/MCU/PA2*%
X120000000Y-52500000D03*
D17*
%TO.P,U3,13,PA3*%
%TO.N,/MCU/PA3*%
X121412500Y-51087500D03*
%TO.P,U3,14,PA4*%
%TO.N,/MCU/PA4*%
X121412500Y-50587500D03*
%TO.P,U3,15,PA5*%
%TO.N,/MCU/PA5*%
X121412500Y-50087500D03*
%TO.P,U3,16,PA6*%
%TO.N,/MCU/PA6*%
X121412500Y-49587500D03*
%TO.P,U3,17,PA7*%
%TO.N,/MCU/PA7*%
X121412500Y-49087500D03*
%TO.P,U3,18,PB0*%
%TO.N,/LED Matrix/C_{D}*%
X121412500Y-48587500D03*
%TO.P,U3,19,PB1*%
%TO.N,/LED Matrix/C_{C}*%
X121412500Y-48087500D03*
%TO.P,U3,20,PB2*%
%TO.N,/LED Matrix/C_{B}*%
X121412500Y-47587500D03*
%TO.P,U3,21,PB10*%
%TO.N,/LED Matrix/C_{A}*%
X121412500Y-47087500D03*
%TO.P,U3,22,PB11*%
%TO.N,/LED Matrix/Y0D*%
X121412500Y-46587500D03*
%TO.P,U3,23,VSS*%
%TO.N,GND*%
X121412500Y-46087500D03*
%TO.P,U3,24,VDD*%
%TO.N,VCC*%
X121412500Y-45587500D03*
D16*
%TO.P,U3,25,PB12*%
%TO.N,/LED Matrix/Y1D*%
X120000000Y-44175000D03*
%TO.P,U3,26,PB13*%
%TO.N,/LED Matrix/Y2D*%
X119500000Y-44175000D03*
%TO.P,U3,27,PB14*%
%TO.N,/LED Matrix/Y3D*%
X119000000Y-44175000D03*
%TO.P,U3,28,PB15*%
%TO.N,/LED Matrix/Y4D*%
X118500000Y-44175000D03*
%TO.P,U3,29,PA8*%
%TO.N,/MCU/PA8*%
X118000000Y-44175000D03*
%TO.P,U3,30,PA9*%
%TO.N,/MCU/PA9*%
X117500000Y-44175000D03*
%TO.P,U3,31,PA10*%
%TO.N,/MCU/PA10*%
X117000000Y-44175000D03*
%TO.P,U3,32,PA11*%
%TO.N,/MCU/PA11*%
X116500000Y-44175000D03*
%TO.P,U3,33,PA12*%
%TO.N,/MCU/PA12*%
X116000000Y-44175000D03*
%TO.P,U3,34,PA13*%
%TO.N,/MCU/PA13*%
X115500000Y-44175000D03*
%TO.P,U3,35,VSS*%
%TO.N,GND*%
X115000000Y-44175000D03*
%TO.P,U3,36,VDD*%
%TO.N,VCC*%
X114500000Y-44175000D03*
D17*
%TO.P,U3,37,PA14*%
%TO.N,/MCU/PA14*%
X113087500Y-45587500D03*
%TO.P,U3,38,PA15*%
%TO.N,/MCU/PA15*%
X113087500Y-46087500D03*
%TO.P,U3,39,PB3*%
%TO.N,/MCU/PB3*%
X113087500Y-46587500D03*
%TO.P,U3,40,PB4*%
%TO.N,/MCU/PB4*%
X113087500Y-47087500D03*
%TO.P,U3,41,PB5*%
%TO.N,/MCU/PB5*%
X113087500Y-47587500D03*
%TO.P,U3,42,PB6*%
%TO.N,/MCU/PB6*%
X113087500Y-48087500D03*
%TO.P,U3,43,PB7*%
%TO.N,/MCU/PB7*%
X113087500Y-48587500D03*
%TO.P,U3,44,BOOT0*%
%TO.N,GND*%
X113087500Y-49087500D03*
%TO.P,U3,45,PB8*%
%TO.N,/MCU/PB8*%
X113087500Y-49587500D03*
%TO.P,U3,46,PB9*%
%TO.N,/MCU/PB9*%
X113087500Y-50087500D03*
%TO.P,U3,47,VSS*%
%TO.N,GND*%
X113087500Y-50587500D03*
%TO.P,U3,48,VDD*%
%TO.N,VCC*%
X113087500Y-51087500D03*
%TD*%
D18*
%TO.P,D21,1,K*%
%TO.N,/LED Matrix/MAT_RC*%
X135427500Y-59000000D03*
%TO.P,D21,2,A*%
%TO.N,/LED Matrix/MAT_CB*%
X136572500Y-59000000D03*
%TD*%
%TO.P,D22,1,K*%
%TO.N,/LED Matrix/MAT_RC*%
X138427500Y-59000000D03*
%TO.P,D22,2,A*%
%TO.N,/LED Matrix/MAT_CC*%
X139572500Y-59000000D03*
%TD*%
D19*
%TO.P,D2,1,K*%
%TO.N,/Power/PWR_IN_MIXED*%
X94950000Y-31200000D03*
%TO.P,D2,2,A*%
%TO.N,/Power/USB_5V*%
X97450000Y-31200000D03*
%TD*%
D20*
%TO.P,R48,1*%
%TO.N,Net-(U4-Y5)*%
X140602500Y-43600000D03*
%TO.P,R48,2*%
%TO.N,/LED Matrix/Y5D*%
X141797500Y-43600000D03*
%TD*%
%TO.P,R410,1*%
%TO.N,Net-(U4-Y7)*%
X135602500Y-43600000D03*
%TO.P,R410,2*%
%TO.N,/LED Matrix/Y7D*%
X136797500Y-43600000D03*
%TD*%
D21*
%TO.P,R40,1*%
%TO.N,/MCU/PA10*%
X136500000Y-31802500D03*
%TO.P,R40,2*%
%TO.N,/LED Matrix/Y7D*%
X136500000Y-32997500D03*
%TD*%
D18*
%TO.P,D55,1,K*%
%TO.N,/LED Matrix/MAT_RF*%
X147427500Y-68000000D03*
%TO.P,D55,2,A*%
%TO.N,/LED Matrix/MAT_CF*%
X148572500Y-68000000D03*
%TD*%
D22*
%TO.P,SW3,1,1*%
%TO.N,GND*%
X89402600Y-124749999D03*
%TO.P,SW3,2,2*%
X98597400Y-124749999D03*
%TO.P,SW3,3,K*%
%TO.N,/MCU/PB4*%
X89402600Y-129250001D03*
%TO.P,SW3,4,A*%
X98597400Y-129250001D03*
%TD*%
D23*
%TO.P,C32,1*%
%TO.N,VCC*%
X113100000Y-53032500D03*
%TO.P,C32,2*%
%TO.N,GND*%
X113100000Y-54167500D03*
%TD*%
D18*
%TO.P,D33,1,K*%
%TO.N,/LED Matrix/MAT_RD*%
X141427500Y-62000000D03*
%TO.P,D33,2,A*%
%TO.N,/LED Matrix/MAT_CD*%
X142572500Y-62000000D03*
%TD*%
D20*
%TO.P,R10,1*%
%TO.N,/Power/TLV_OUT*%
X85802500Y-43800000D03*
%TO.P,R10,2*%
%TO.N,VCC*%
X86997500Y-43800000D03*
%TD*%
D24*
%TO.P,C11,1*%
%TO.N,/Power/TLV_OUT*%
X88900000Y-46362500D03*
%TO.P,C11,2*%
%TO.N,GND*%
X88900000Y-44637500D03*
%TD*%
D15*
%TO.P,Q9,1,G*%
%TO.N,/MCU/IRDRV_G*%
X112862500Y-154475000D03*
%TO.P,Q9,2,S*%
%TO.N,GND*%
X110962500Y-154475000D03*
%TO.P,Q9,3,D*%
%TO.N,/MCU/IRD_N*%
X111912500Y-156350000D03*
%TD*%
D18*
%TO.P,D51,1,K*%
%TO.N,/LED Matrix/MAT_RF*%
X135427500Y-68000000D03*
%TO.P,D51,2,A*%
%TO.N,/LED Matrix/MAT_CB*%
X136572500Y-68000000D03*
%TD*%
%TO.P,D71,1,K*%
%TO.N,/LED Matrix/MAT_RH*%
X135427500Y-74000000D03*
%TO.P,D71,2,A*%
%TO.N,/LED Matrix/MAT_CB*%
X136572500Y-74000000D03*
%TD*%
%TO.P,D77,1,K*%
%TO.N,/LED Matrix/MAT_RH*%
X153427500Y-74000000D03*
%TO.P,D77,2,A*%
%TO.N,/LED Matrix/MAT_CH*%
X154572500Y-74000000D03*
%TD*%
%TO.P,D43,1,K*%
%TO.N,/LED Matrix/MAT_RE*%
X141427500Y-65000000D03*
%TO.P,D43,2,A*%
%TO.N,/LED Matrix/MAT_CD*%
X142572500Y-65000000D03*
%TD*%
D20*
%TO.P,R87,1*%
%TO.N,/MCU/PA4*%
X153902500Y-49000000D03*
%TO.P,R87,2*%
%TO.N,/LED Matrix/MAT_CH*%
X155097500Y-49000000D03*
%TD*%
D25*
%TO.P,C30,1*%
%TO.N,VCC*%
X121832500Y-44387500D03*
%TO.P,C30,2*%
%TO.N,GND*%
X122967500Y-44387500D03*
%TD*%
D23*
%TO.P,C38,1*%
%TO.N,/MCU/PC15*%
X116200000Y-58932500D03*
%TO.P,C38,2*%
%TO.N,GND*%
X116200000Y-60067500D03*
%TD*%
D18*
%TO.P,D01,1,K*%
%TO.N,/LED Matrix/MAT_RA*%
X135427500Y-53000000D03*
%TO.P,D01,2,A*%
%TO.N,/LED Matrix/MAT_CB*%
X136572500Y-53000000D03*
%TD*%
%TO.P,D56,1,K*%
%TO.N,/LED Matrix/MAT_RF*%
X150427500Y-68000000D03*
%TO.P,D56,2,A*%
%TO.N,/LED Matrix/MAT_CG*%
X151572500Y-68000000D03*
%TD*%
D20*
%TO.P,R5,1*%
%TO.N,+BATT*%
X83402500Y-42250000D03*
%TO.P,R5,2*%
%TO.N,VCC*%
X84597500Y-42250000D03*
%TD*%
D18*
%TO.P,D05,1,K*%
%TO.N,/LED Matrix/MAT_RA*%
X147427500Y-53000000D03*
%TO.P,D05,2,A*%
%TO.N,/LED Matrix/MAT_CF*%
X148572500Y-53000000D03*
%TD*%
%TO.P,D16,1,K*%
%TO.N,/LED Matrix/MAT_RB*%
X150427500Y-56000000D03*
%TO.P,D16,2,A*%
%TO.N,/LED Matrix/MAT_CG*%
X151572500Y-56000000D03*
%TD*%
D26*
%TO.P,C51,1*%
%TO.N,VCC*%
X107067500Y-152000000D03*
%TO.P,C51,2*%
%TO.N,GND*%
X105932500Y-152000000D03*
%TD*%
D18*
%TO.P,D66,1,K*%
%TO.N,/LED Matrix/MAT_RG*%
X150427500Y-71000000D03*
%TO.P,D66,2,A*%
%TO.N,/LED Matrix/MAT_CG*%
X151572500Y-71000000D03*
%TD*%
%TO.P,D12,1,K*%
%TO.N,/LED Matrix/MAT_RB*%
X138427500Y-56000000D03*
%TO.P,D12,2,A*%
%TO.N,/LED Matrix/MAT_CC*%
X139572500Y-56000000D03*
%TD*%
%TO.P,D76,1,K*%
%TO.N,/LED Matrix/MAT_RH*%
X150427500Y-74000000D03*
%TO.P,D76,2,A*%
%TO.N,/LED Matrix/MAT_CG*%
X151572500Y-74000000D03*
%TD*%
%TO.P,D75,1,K*%
%TO.N,/LED Matrix/MAT_RH*%
X147427500Y-74000000D03*
%TO.P,D75,2,A*%
%TO.N,/LED Matrix/MAT_CF*%
X148572500Y-74000000D03*
%TD*%
%TO.P,D67,1,K*%
%TO.N,/LED Matrix/MAT_RG*%
X153427500Y-71000000D03*
%TO.P,D67,2,A*%
%TO.N,/LED Matrix/MAT_CH*%
X154572500Y-71000000D03*
%TD*%
D13*
%TO.P,J7,1,Pin_1*%
%TO.N,VCC*%
X126000000Y-60225000D03*
D14*
%TO.P,J7,2,Pin_2*%
%TO.N,GND*%
X126000000Y-62765000D03*
%TD*%
D21*
%TO.P,R42,1*%
%TO.N,/MCU/PA8*%
X138700000Y-31802500D03*
%TO.P,R42,2*%
%TO.N,/LED Matrix/Y5D*%
X138700000Y-32997500D03*
%TD*%
D27*
%TO.P,U5,1,OUTPUT*%
%TO.N,Net-(U5-OUTPUT)*%
X101904500Y-155060900D03*
%TO.P,U5,2,GND*%
%TO.N,GND*%
X104444500Y-155060900D03*
%TO.P,U5,3,VCC*%
%TO.N,VCC*%
X106984500Y-155060900D03*
%TD*%
D28*
%TO.P,J2,1,Pin_1*%
%TO.N,+BATT*%
X104607500Y-43950000D03*
D29*
%TO.P,J2,2,Pin_2*%
%TO.N,GND*%
X100727500Y-43950000D03*
%TD*%
D20*
%TO.P,R47,1*%
%TO.N,Net-(U4-Y4)*%
X143102500Y-43600000D03*
%TO.P,R47,2*%
%TO.N,/LED Matrix/Y4D*%
X144297500Y-43600000D03*
%TD*%
D18*
%TO.P,D13,1,K*%
%TO.N,/LED Matrix/MAT_RB*%
X141427500Y-56000000D03*
%TO.P,D13,2,A*%
%TO.N,/LED Matrix/MAT_CD*%
X142572500Y-56000000D03*
%TD*%
%TO.P,D44,1,K*%
%TO.N,/LED Matrix/MAT_RE*%
X144427500Y-65000000D03*
%TO.P,D44,2,A*%
%TO.N,/LED Matrix/MAT_CE*%
X145572500Y-65000000D03*
%TD*%
%TO.P,D34,1,K*%
%TO.N,/LED Matrix/MAT_RD*%
X144427500Y-62000000D03*
%TO.P,D34,2,A*%
%TO.N,/LED Matrix/MAT_CE*%
X145572500Y-62000000D03*
%TD*%
%TO.P,D14,1,K*%
%TO.N,/LED Matrix/MAT_RB*%
X144427500Y-56000000D03*
%TO.P,D14,2,A*%
%TO.N,/LED Matrix/MAT_CE*%
X145572500Y-56000000D03*
%TD*%
%TO.P,D53,1,K*%
%TO.N,/LED Matrix/MAT_RF*%
X141427500Y-68000000D03*
%TO.P,D53,2,A*%
%TO.N,/LED Matrix/MAT_CD*%
X142572500Y-68000000D03*
%TD*%
D30*
%TO.P,R6,1*%
%TO.N,Net-(J4-Pin_2)*%
X88500000Y-158097500D03*
%TO.P,R6,2*%
%TO.N,GND*%
X88500000Y-156902500D03*
%TD*%
D21*
%TO.P,R41,1*%
%TO.N,/MCU/PA9*%
X137600000Y-31802500D03*
%TO.P,R41,2*%
%TO.N,/LED Matrix/Y6D*%
X137600000Y-32997500D03*
%TD*%
D31*
%TO.P,D3,1,K*%
%TO.N,/MCU/IRD_N*%
X112125000Y-158500000D03*
%TO.P,D3,2,A*%
%TO.N,/MCU/IRD_P*%
X113875000Y-158500000D03*
%TD*%
D20*
%TO.P,R15,1*%
%TO.N,GND*%
X109402500Y-158500000D03*
%TO.P,R15,2*%
%TO.N,/MCU/IRD_N*%
X110597500Y-158500000D03*
%TD*%
D18*
%TO.P,D62,1,K*%
%TO.N,/LED Matrix/MAT_RG*%
X138427500Y-71000000D03*
%TO.P,D62,2,A*%
%TO.N,/LED Matrix/MAT_CC*%
X139572500Y-71000000D03*
%TD*%
%TO.P,D20,1,K*%
%TO.N,/LED Matrix/MAT_RC*%
X132427500Y-59000000D03*
%TO.P,D20,2,A*%
%TO.N,/LED Matrix/MAT_CA*%
X133572500Y-59000000D03*
%TD*%
%TO.P,D36,1,K*%
%TO.N,/LED Matrix/MAT_RD*%
X150427500Y-62000000D03*
%TO.P,D36,2,A*%
%TO.N,/LED Matrix/MAT_CG*%
X151572500Y-62000000D03*
%TD*%
D15*
%TO.P,Q2,1,G*%
%TO.N,/LED Matrix/Y6D*%
X136950000Y-45562500D03*
%TO.P,Q2,2,S*%
%TO.N,GND*%
X135050000Y-45562500D03*
%TO.P,Q2,3,D*%
%TO.N,/LED Matrix/MAT_RB*%
X136000000Y-47437500D03*
%TD*%
%TO.P,Q5,1,G*%
%TO.N,/LED Matrix/Y3D*%
X147450000Y-45562500D03*
%TO.P,Q5,2,S*%
%TO.N,GND*%
X145550000Y-45562500D03*
%TO.P,Q5,3,D*%
%TO.N,/LED Matrix/MAT_RE*%
X146500000Y-47437500D03*
%TD*%
D21*
%TO.P,R20,1*%
%TO.N,/Power/AMS_OUT*%
X88000000Y-41000000D03*
%TO.P,R20,2*%
%TO.N,VCC*%
X88000000Y-42195000D03*
%TD*%
D23*
%TO.P,C37,1*%
%TO.N,/MCU/PC14*%
X115200000Y-58932500D03*
%TO.P,C37,2*%
%TO.N,GND*%
X115200000Y-60067500D03*
%TD*%
D20*
%TO.P,R4,1*%
%TO.N,VCC*%
X118302500Y-60100000D03*
%TO.P,R4,2*%
%TO.N,Net-(Y1-EN)*%
X119497500Y-60100000D03*
%TD*%
D18*
%TO.P,D60,1,K*%
%TO.N,/LED Matrix/MAT_RG*%
X132427500Y-71000000D03*
%TO.P,D60,2,A*%
%TO.N,/LED Matrix/MAT_CA*%
X133572500Y-71000000D03*
%TD*%
%TO.P,D32,1,K*%
%TO.N,/LED Matrix/MAT_RD*%
X138427500Y-62000000D03*
%TO.P,D32,2,A*%
%TO.N,/LED Matrix/MAT_CC*%
X139572500Y-62000000D03*
%TD*%
%TO.P,D30,1,K*%
%TO.N,/LED Matrix/MAT_RD*%
X132427500Y-62000000D03*
%TO.P,D30,2,A*%
%TO.N,/LED Matrix/MAT_CA*%
X133572500Y-62000000D03*
%TD*%
D20*
%TO.P,R12,1*%
%TO.N,+BATT*%
X108402500Y-45000000D03*
%TO.P,R12,2*%
%TO.N,/MCU/STM_VBATT*%
X109597500Y-45000000D03*
%TD*%
D18*
%TO.P,D37,1,K*%
%TO.N,/LED Matrix/MAT_RD*%
X153427500Y-62000000D03*
%TO.P,D37,2,A*%
%TO.N,/LED Matrix/MAT_CH*%
X154572500Y-62000000D03*
%TD*%
D23*
%TO.P,C33,1*%
%TO.N,VCC*%
X122500000Y-53432500D03*
%TO.P,C33,2*%
%TO.N,GND*%
X122500000Y-54567500D03*
%TD*%
D18*
%TO.P,D27,1,K*%
%TO.N,/LED Matrix/MAT_RC*%
X153427500Y-59000000D03*
%TO.P,D27,2,A*%
%TO.N,/LED Matrix/MAT_CH*%
X154572500Y-59000000D03*
%TD*%
%TO.P,D07,1,K*%
%TO.N,/LED Matrix/MAT_RA*%
X153427500Y-53000000D03*
%TO.P,D07,2,A*%
%TO.N,/LED Matrix/MAT_CH*%
X154572500Y-53000000D03*
%TD*%
D24*
%TO.P,C10,1*%
%TO.N,/Power/PWR_IN_MIXED*%
X95600000Y-45162500D03*
%TO.P,C10,2*%
%TO.N,GND*%
X95600000Y-43437500D03*
%TD*%
D18*
%TO.P,D65,1,K*%
%TO.N,/LED Matrix/MAT_RG*%
X147427500Y-71000000D03*
%TO.P,D65,2,A*%
%TO.N,/LED Matrix/MAT_CF*%
X148572500Y-71000000D03*
%TD*%
%TO.P,D02,1,K*%
%TO.N,/LED Matrix/MAT_RA*%
X138427500Y-53000000D03*
%TO.P,D02,2,A*%
%TO.N,/LED Matrix/MAT_CC*%
X139572500Y-53000000D03*
%TD*%
D32*
%TO.P,J6,1,VCC*%
%TO.N,/Power/USB_5V*%
X127473250Y-35125000D03*
%TO.P,J6,2,D-*%
%TO.N,Net-(J1-Pin_2)*%
X126823250Y-35125000D03*
%TO.P,J6,3,D+*%
%TO.N,Net-(J1-Pin_3)*%
X126173250Y-35125000D03*
%TO.P,J6,4,ID*%
%TO.N,unconnected-(J6-ID-Pad4)*%
X125523250Y-35125000D03*
%TO.P,J6,5,GND*%
%TO.N,GND*%
X124873250Y-35125000D03*
D33*
%TO.P,J6,S3*%
%TO.N,N/C*%
X122573250Y-31975000D03*
D34*
%TO.P,J6,S4*%
X123748250Y-34625000D03*
%TO.P,J6,S5*%
X128598250Y-34625000D03*
D33*
%TO.P,J6,S6*%
X129773250Y-31975000D03*
%TD*%
D22*
%TO.P,SW6,1,1*%
%TO.N,GND*%
X139402600Y-136749999D03*
%TO.P,SW6,2,2*%
X148597400Y-136749999D03*
%TO.P,SW6,3,K*%
%TO.N,/MCU/PB7*%
X139402600Y-141250001D03*
%TO.P,SW6,4,A*%
X148597400Y-141250001D03*
%TD*%
D30*
%TO.P,R9,1*%
%TO.N,Net-(J5-Pin_2)*%
X119500000Y-158097500D03*
%TO.P,R9,2*%
%TO.N,/MCU/PA3*%
X119500000Y-156902500D03*
%TD*%
D22*
%TO.P,SW1,1,1*%
%TO.N,GND*%
X101402600Y-136749999D03*
%TO.P,SW1,2,2*%
X110597400Y-136749999D03*
%TO.P,SW1,3,K*%
%TO.N,/MCU/PA15*%
X101402600Y-141250001D03*
%TO.P,SW1,4,A*%
X110597400Y-141250001D03*
%TD*%
D18*
%TO.P,D06,1,K*%
%TO.N,/LED Matrix/MAT_RA*%
X150427500Y-53000000D03*
%TO.P,D06,2,A*%
%TO.N,/LED Matrix/MAT_CG*%
X151572500Y-53000000D03*
%TD*%
D35*
%TO.P,U4,1,A0*%
%TO.N,/MCU/PA10*%
X149045000Y-32500000D03*
%TO.P,U4,2,A1*%
%TO.N,/MCU/PA9*%
X147775000Y-32500000D03*
%TO.P,U4,3,A2*%
%TO.N,/MCU/PA8*%
X146505000Y-32500000D03*
%TO.P,U4,4,~{E1}*%
%TO.N,GND*%
X145235000Y-32500000D03*
%TO.P,U4,5,~{E2}*%
X143965000Y-32500000D03*
%TO.P,U4,6,E3*%
%TO.N,VCC*%
X142695000Y-32500000D03*
%TO.P,U4,7,Y7*%
%TO.N,Net-(U4-Y7)*%
X141425000Y-32500000D03*
%TO.P,U4,8,GND*%
%TO.N,GND*%
X140155000Y-32500000D03*
%TO.P,U4,9,Y6*%
%TO.N,Net-(U4-Y6)*%
X140155000Y-37500000D03*
%TO.P,U4,10,Y5*%
%TO.N,Net-(U4-Y5)*%
X141425000Y-37500000D03*
%TO.P,U4,11,Y4*%
%TO.N,Net-(U4-Y4)*%
X142695000Y-37500000D03*
%TO.P,U4,12,Y3*%
%TO.N,Net-(U4-Y3)*%
X143965000Y-37500000D03*
%TO.P,U4,13,Y2*%
%TO.N,Net-(U4-Y2)*%
X145235000Y-37500000D03*
%TO.P,U4,14,Y1*%
%TO.N,Net-(U4-Y1)*%
X146505000Y-37500000D03*
%TO.P,U4,15,Y0*%
%TO.N,Net-(U4-Y0)*%
X147775000Y-37500000D03*
%TO.P,U4,16,VCC*%
%TO.N,VCC*%
X149045000Y-37500000D03*
%TD*%
D21*
%TO.P,R11,1*%
%TO.N,/MCU/PA1*%
X115400000Y-157402500D03*
%TO.P,R11,2*%
%TO.N,/MCU/IRD_P*%
X115400000Y-158597500D03*
%TD*%
D18*
%TO.P,D17,1,K*%
%TO.N,/LED Matrix/MAT_RB*%
X153427500Y-56000000D03*
%TO.P,D17,2,A*%
%TO.N,/LED Matrix/MAT_CH*%
X154572500Y-56000000D03*
%TD*%
D12*
%TO.P,C31,1*%
%TO.N,VCC*%
X113300000Y-43655000D03*
%TO.P,C31,2*%
%TO.N,GND*%
X113300000Y-42520000D03*
%TD*%
D18*
%TO.P,D24,1,K*%
%TO.N,/LED Matrix/MAT_RC*%
X144427500Y-59000000D03*
%TO.P,D24,2,A*%
%TO.N,/LED Matrix/MAT_CE*%
X145572500Y-59000000D03*
%TD*%
D22*
%TO.P,SW2,1,1*%
%TO.N,GND*%
X127402600Y-148749999D03*
%TO.P,SW2,2,2*%
X136597400Y-148749999D03*
%TO.P,SW2,3,K*%
%TO.N,/MCU/PB3*%
X127402600Y-153250001D03*
%TO.P,SW2,4,A*%
X136597400Y-153250001D03*
%TD*%
D18*
%TO.P,D35,1,K*%
%TO.N,/LED Matrix/MAT_RD*%
X147427500Y-62000000D03*
%TO.P,D35,2,A*%
%TO.N,/LED Matrix/MAT_CF*%
X148572500Y-62000000D03*
%TD*%
%TO.P,D04,1,K*%
%TO.N,/LED Matrix/MAT_RA*%
X144427500Y-53000000D03*
%TO.P,D04,2,A*%
%TO.N,/LED Matrix/MAT_CE*%
X145572500Y-53000000D03*
%TD*%
D21*
%TO.P,R3,1*%
%TO.N,/MCU/PA12*%
X122300000Y-36852500D03*
%TO.P,R3,2*%
%TO.N,/Power/USB_5V*%
X122300000Y-38047500D03*
%TD*%
D24*
%TO.P,C21,1*%
%TO.N,/Power/AMS_OUT*%
X84500000Y-40362500D03*
%TO.P,C21,2*%
%TO.N,GND*%
X84500000Y-38637500D03*
%TD*%
D18*
%TO.P,D74,1,K*%
%TO.N,/LED Matrix/MAT_RH*%
X144427500Y-74000000D03*
%TO.P,D74,2,A*%
%TO.N,/LED Matrix/MAT_CE*%
X145572500Y-74000000D03*
%TD*%
D25*
%TO.P,C34,1*%
%TO.N,Net-(U3-NRST)*%
X121282500Y-56750000D03*
%TO.P,C34,2*%
%TO.N,GND*%
X122417500Y-56750000D03*
%TD*%
D18*
%TO.P,D70,1,K*%
%TO.N,/LED Matrix/MAT_RH*%
X132427500Y-74000000D03*
%TO.P,D70,2,A*%
%TO.N,/LED Matrix/MAT_CA*%
X133572500Y-74000000D03*
%TD*%
D36*
%TO.P,R50,1*%
%TO.N,/MCU/PA0*%
X107097500Y-150900000D03*
%TO.P,R50,2*%
%TO.N,Net-(U5-OUTPUT)*%
X105902500Y-150900000D03*
%TD*%
D20*
%TO.P,R85,1*%
%TO.N,/MCU/PA6*%
X147902500Y-49000000D03*
%TO.P,R85,2*%
%TO.N,/LED Matrix/MAT_CF*%
X149097500Y-49000000D03*
%TD*%
D37*
%TO.P,D1,1,K*%
%TO.N,/Power/PWR_IN_MIXED*%
X92750000Y-31200000D03*
%TO.P,D1,2,A*%
%TO.N,+BATT*%
X90250000Y-31200000D03*
%TD*%
D36*
%TO.P,R2,1*%
%TO.N,Net-(J1-Pin_3)*%
X125797500Y-36800000D03*
%TO.P,R2,2*%
%TO.N,/MCU/PA12*%
X124602500Y-36800000D03*
%TD*%
D18*
%TO.P,D23,1,K*%
%TO.N,/LED Matrix/MAT_RC*%
X141427500Y-59000000D03*
%TO.P,D23,2,A*%
%TO.N,/LED Matrix/MAT_CD*%
X142572500Y-59000000D03*
%TD*%
%TO.P,D57,1,K*%
%TO.N,/LED Matrix/MAT_RF*%
X153427500Y-68000000D03*
%TO.P,D57,2,A*%
%TO.N,/LED Matrix/MAT_CH*%
X154572500Y-68000000D03*
%TD*%
%TO.P,D64,1,K*%
%TO.N,/LED Matrix/MAT_RG*%
X144427500Y-71000000D03*
%TO.P,D64,2,A*%
%TO.N,/LED Matrix/MAT_CE*%
X145572500Y-71000000D03*
%TD*%
D36*
%TO.P,R1,1*%
%TO.N,Net-(J1-Pin_2)*%
X125797500Y-37850000D03*
%TO.P,R1,2*%
%TO.N,/MCU/PA11*%
X124602500Y-37850000D03*
%TD*%
D38*
%TO.P,U1,1,IN*%
%TO.N,/Power/PWR_IN_MIXED*%
X93450483Y-46350001D03*
%TO.P,U1,2,GND*%
%TO.N,GND*%
X93450483Y-45400000D03*
%TO.P,U1,3,EN*%
%TO.N,/Power/PWR_IN_MIXED*%
X93450483Y-44449999D03*
%TO.P,U1,4,NC*%
%TO.N,GND*%
X91149517Y-44449999D03*
%TO.P,U1,5,OUT*%
%TO.N,/Power/TLV_OUT*%
X91149517Y-46350001D03*
%TD*%
D18*
%TO.P,D26,1,K*%
%TO.N,/LED Matrix/MAT_RC*%
X150427500Y-59000000D03*
%TO.P,D26,2,A*%
%TO.N,/LED Matrix/MAT_CG*%
X151572500Y-59000000D03*
%TD*%
D30*
%TO.P,R21,1*%
%TO.N,/Power/AMS_ADJ*%
X88000000Y-39195000D03*
%TO.P,R21,2*%
%TO.N,/Power/AMS_OUT*%
X88000000Y-38000000D03*
%TD*%
D18*
%TO.P,D42,1,K*%
%TO.N,/LED Matrix/MAT_RE*%
X138427500Y-65000000D03*
%TO.P,D42,2,A*%
%TO.N,/LED Matrix/MAT_CC*%
X139572500Y-65000000D03*
%TD*%
%TO.P,D46,1,K*%
%TO.N,/LED Matrix/MAT_RE*%
X150427500Y-65000000D03*
%TO.P,D46,2,A*%
%TO.N,/LED Matrix/MAT_CG*%
X151572500Y-65000000D03*
%TD*%
D20*
%TO.P,R82,1*%
%TO.N,/LED Matrix/C_{C}*%
X138402500Y-49000000D03*
%TO.P,R82,2*%
%TO.N,/LED Matrix/MAT_CC*%
X139597500Y-49000000D03*
%TD*%
D18*
%TO.P,D50,1,K*%
%TO.N,/LED Matrix/MAT_RF*%
X132427500Y-68000000D03*
%TO.P,D50,2,A*%
%TO.N,/LED Matrix/MAT_CA*%
X133572500Y-68000000D03*
%TD*%
D39*
%TO.P,C50,1*%
%TO.N,Net-(U5-OUTPUT)*%
X102137500Y-152000000D03*
%TO.P,C50,2*%
%TO.N,GND*%
X103862500Y-152000000D03*
%TD*%
D27*
%TO.P,LED1,1,ROW5*%
%TO.N,/LED Matrix/MAT_RE*%
X77985800Y-55110000D03*
%TO.P,LED1,2,ROW7*%
%TO.N,/LED Matrix/MAT_RG*%
X77985800Y-57650000D03*
%TO.P,LED1,3,COL2*%
%TO.N,/LED Matrix/MAT_CB*%
X77985800Y-60190000D03*
%TO.P,LED1,4,COL3*%
%TO.N,/LED Matrix/MAT_CC*%
X77985800Y-62730000D03*
%TO.P,LED1,5,ROW8*%
%TO.N,/LED Matrix/MAT_RH*%
X77985800Y-65270000D03*
%TO.P,LED1,6,COL5*%
%TO.N,/LED Matrix/MAT_CE*%
X77985800Y-67810000D03*
%TO.P,LED1,7,ROW6*%
%TO.N,/LED Matrix/MAT_RF*%
X77985800Y-70350000D03*
%TO.P,LED1,8,ROW3*%
%TO.N,/LED Matrix/MAT_RC*%
X77985800Y-72890000D03*
%TO.P,LED1,9,ROW1*%
%TO.N,/LED Matrix/MAT_RA*%
X102014200Y-72890000D03*
%TO.P,LED1,10,COL4*%
%TO.N,/LED Matrix/MAT_CD*%
X102014200Y-70350000D03*
%TO.P,LED1,11,COL6*%
%TO.N,/LED Matrix/MAT_CF*%
X102014200Y-67810000D03*
%TO.P,LED1,12,ROW4*%
%TO.N,/LED Matrix/MAT_RD*%
X102014200Y-65270000D03*
%TO.P,LED1,13,COL1*%
%TO.N,/LED Matrix/MAT_CA*%
X102014200Y-62730000D03*
%TO.P,LED1,14,ROW2*%
%TO.N,/LED Matrix/MAT_RB*%
X102014200Y-60190000D03*
%TO.P,LED1,15,COL7*%
%TO.N,/LED Matrix/MAT_CG*%
X102014200Y-57650000D03*
%TO.P,LED1,16,COL8*%
%TO.N,/LED Matrix/MAT_CH*%
X102014200Y-55110000D03*
%TD*%
D20*
%TO.P,R45,1*%
%TO.N,Net-(U4-Y2)*%
X148102500Y-43600000D03*
%TO.P,R45,2*%
%TO.N,/LED Matrix/Y2D*%
X149297500Y-43600000D03*
%TD*%
D18*
%TO.P,D52,1,K*%
%TO.N,/LED Matrix/MAT_RF*%
X138427500Y-68000000D03*
%TO.P,D52,2,A*%
%TO.N,/LED Matrix/MAT_CC*%
X139572500Y-68000000D03*
%TD*%
D30*
%TO.P,R13,1*%
%TO.N,/MCU/IRD_P*%
X116600000Y-158597500D03*
%TO.P,R13,2*%
%TO.N,VCC*%
X116600000Y-157402500D03*
%TD*%
D13*
%TO.P,J4,1,Pin_1*%
%TO.N,GND*%
X90975000Y-157500000D03*
D14*
%TO.P,J4,2,Pin_2*%
%TO.N,Net-(J4-Pin_2)*%
X93515000Y-157500000D03*
%TO.P,J4,3,Pin_3*%
%TO.N,unconnected-(J4-Pin_3-Pad3)*%
X96055000Y-157500000D03*
%TD*%
D20*
%TO.P,R84,1*%
%TO.N,/MCU/PA7*%
X144302500Y-49000000D03*
%TO.P,R84,2*%
%TO.N,/LED Matrix/MAT_CE*%
X145497500Y-49000000D03*
%TD*%
D40*
%TO.P,Y2,1,1*%
%TO.N,/MCU/PC14*%
X115600000Y-55050000D03*
%TO.P,Y2,2,2*%
%TO.N,/MCU/PC15*%
X115600000Y-57550000D03*
%TD*%
D30*
%TO.P,R7,1*%
%TO.N,Net-(J5-Pin_2)*%
X121000000Y-158097500D03*
%TO.P,R7,2*%
%TO.N,GND*%
X121000000Y-156902500D03*
%TD*%
D18*
%TO.P,D00,1,K*%
%TO.N,/LED Matrix/MAT_RA*%
X132427500Y-53000000D03*
%TO.P,D00,2,A*%
%TO.N,/LED Matrix/MAT_CA*%
X133572500Y-53000000D03*
%TD*%
D15*
%TO.P,Q3,1,G*%
%TO.N,/LED Matrix/Y5D*%
X140450000Y-45562500D03*
%TO.P,Q3,2,S*%
%TO.N,GND*%
X138550000Y-45562500D03*
%TO.P,Q3,3,D*%
%TO.N,/LED Matrix/MAT_RC*%
X139500000Y-47437500D03*
%TD*%
D41*
%TO.P,U2,1,ADJ*%
%TO.N,/Power/AMS_ADJ*%
X94800000Y-34850000D03*
%TO.P,U2,2,VO*%
%TO.N,/Power/AMS_OUT*%
X92500000Y-34850000D03*
D42*
X92500000Y-41150000D03*
D41*
%TO.P,U2,3,VI*%
%TO.N,/Power/PWR_IN_MIXED*%
X90200000Y-34850000D03*
%TD*%
D22*
%TO.P,SW8,1,1*%
%TO.N,GND*%
X127402600Y-124749999D03*
%TO.P,SW8,2,2*%
X136597400Y-124749999D03*
%TO.P,SW8,3,K*%
%TO.N,/MCU/PB9*%
X127402600Y-129250001D03*
%TO.P,SW8,4,A*%
X136597400Y-129250001D03*
%TD*%
D18*
%TO.P,D63,1,K*%
%TO.N,/LED Matrix/MAT_RG*%
X141427500Y-71000000D03*
%TO.P,D63,2,A*%
%TO.N,/LED Matrix/MAT_CD*%
X142572500Y-71000000D03*
%TD*%
D22*
%TO.P,SW5,1,1*%
%TO.N,GND*%
X127402600Y-136749999D03*
%TO.P,SW5,2,2*%
X136597400Y-136749999D03*
%TO.P,SW5,3,K*%
%TO.N,/MCU/PB6*%
X127402600Y-141250001D03*
%TO.P,SW5,4,A*%
X136597400Y-141250001D03*
%TD*%
D18*
%TO.P,D47,1,K*%
%TO.N,/LED Matrix/MAT_RE*%
X153427500Y-65000000D03*
%TO.P,D47,2,A*%
%TO.N,/LED Matrix/MAT_CH*%
X154572500Y-65000000D03*
%TD*%
%TO.P,D15,1,K*%
%TO.N,/LED Matrix/MAT_RB*%
X147427500Y-56000000D03*
%TO.P,D15,2,A*%
%TO.N,/LED Matrix/MAT_CF*%
X148572500Y-56000000D03*
%TD*%
%TO.P,D41,1,K*%
%TO.N,/LED Matrix/MAT_RE*%
X135427500Y-65000000D03*
%TO.P,D41,2,A*%
%TO.N,/LED Matrix/MAT_CB*%
X136572500Y-65000000D03*
%TD*%
D15*
%TO.P,Q7,1,G*%
%TO.N,/LED Matrix/Y1D*%
X154450000Y-45562500D03*
%TO.P,Q7,2,S*%
%TO.N,GND*%
X152550000Y-45562500D03*
%TO.P,Q7,3,D*%
%TO.N,/LED Matrix/MAT_RG*%
X153500000Y-47437500D03*
%TD*%
D21*
%TO.P,R44,1*%
%TO.N,Net-(U4-Y1)*%
X150600000Y-42402500D03*
%TO.P,R44,2*%
%TO.N,/LED Matrix/Y1D*%
X150600000Y-43597500D03*
%TD*%
D22*
%TO.P,SW4,1,1*%
%TO.N,GND*%
X115402600Y-136749999D03*
%TO.P,SW4,2,2*%
X124597400Y-136749999D03*
%TO.P,SW4,3,K*%
%TO.N,/MCU/PB5*%
X115402600Y-141250001D03*
%TO.P,SW4,4,A*%
X124597400Y-141250001D03*
%TD*%
D18*
%TO.P,D25,1,K*%
%TO.N,/LED Matrix/MAT_RC*%
X147427500Y-59000000D03*
%TO.P,D25,2,A*%
%TO.N,/LED Matrix/MAT_CF*%
X148572500Y-59000000D03*
%TD*%
D20*
%TO.P,R83,1*%
%TO.N,/LED Matrix/C_{D}*%
X141402500Y-49000000D03*
%TO.P,R83,2*%
%TO.N,/LED Matrix/MAT_CD*%
X142597500Y-49000000D03*
%TD*%
D30*
%TO.P,R8,1*%
%TO.N,Net-(J4-Pin_2)*%
X87000000Y-158097500D03*
%TO.P,R8,2*%
%TO.N,/MCU/PA2*%
X87000000Y-156902500D03*
%TD*%
D20*
%TO.P,R46,1*%
%TO.N,Net-(U4-Y3)*%
X145602500Y-43600000D03*
%TO.P,R46,2*%
%TO.N,/LED Matrix/Y3D*%
X146797500Y-43600000D03*
%TD*%
%TO.P,R43,1*%
%TO.N,Net-(U4-Y0)*%
X153502500Y-40200000D03*
%TO.P,R43,2*%
%TO.N,/LED Matrix/Y0D*%
X154697500Y-40200000D03*
%TD*%
%TO.P,R86,1*%
%TO.N,/MCU/PA5*%
X150902500Y-49000000D03*
%TO.P,R86,2*%
%TO.N,/LED Matrix/MAT_CG*%
X152097500Y-49000000D03*
%TD*%
D43*
%TO.P,Y1,1,EN*%
%TO.N,Net-(Y1-EN)*%
X119625000Y-58550000D03*
%TO.P,Y1,2,GND*%
%TO.N,GND*%
X119625000Y-56450000D03*
%TO.P,Y1,3,OUT*%
%TO.N,/MCU/PD0*%
X117975000Y-56450000D03*
%TO.P,Y1,4,Vdd*%
%TO.N,VCC*%
X117975000Y-58550000D03*
%TD*%
D13*
%TO.P,J3,1,Pin_1*%
%TO.N,GND*%
X121800000Y-63000000D03*
D14*
%TO.P,J3,2,Pin_2*%
%TO.N,/MCU/PA14*%
X119260000Y-63000000D03*
%TO.P,J3,3,Pin_3*%
%TO.N,/MCU/PA13*%
X116720000Y-63000000D03*
%TO.P,J3,4,Pin_4*%
%TO.N,VCC*%
X114180000Y-63000000D03*
%TD*%
D15*
%TO.P,Q4,1,G*%
%TO.N,/LED Matrix/Y4D*%
X143950000Y-45562500D03*
%TO.P,Q4,2,S*%
%TO.N,GND*%
X142050000Y-45562500D03*
%TO.P,Q4,3,D*%
%TO.N,/LED Matrix/MAT_RD*%
X143000000Y-47437500D03*
%TD*%
D18*
%TO.P,D40,1,K*%
%TO.N,/LED Matrix/MAT_RE*%
X132427500Y-65000000D03*
%TO.P,D40,2,A*%
%TO.N,/LED Matrix/MAT_CA*%
X133572500Y-65000000D03*
%TD*%
%TO.P,D11,1,K*%
%TO.N,/LED Matrix/MAT_RB*%
X135427500Y-56000000D03*
%TO.P,D11,2,A*%
%TO.N,/LED Matrix/MAT_CB*%
X136572500Y-56000000D03*
%TD*%
D44*
%TO.P,Q8,1,G*%
%TO.N,/LED Matrix/Y0D*%
X152562500Y-41550000D03*
%TO.P,Q8,2,S*%
%TO.N,GND*%
X152562500Y-43450000D03*
%TO.P,Q8,3,D*%
%TO.N,/LED Matrix/MAT_RH*%
X154437500Y-42500000D03*
%TD*%
D18*
%TO.P,D72,1,K*%
%TO.N,/LED Matrix/MAT_RH*%
X138427500Y-74000000D03*
%TO.P,D72,2,A*%
%TO.N,/LED Matrix/MAT_CC*%
X139572500Y-74000000D03*
%TD*%
D36*
%TO.P,R30,1*%
%TO.N,VCC*%
X122447500Y-55700000D03*
%TO.P,R30,2*%
%TO.N,Net-(U3-NRST)*%
X121252500Y-55700000D03*
%TD*%
D20*
%TO.P,R49,1*%
%TO.N,Net-(U4-Y6)*%
X138102500Y-43600000D03*
%TO.P,R49,2*%
%TO.N,/LED Matrix/Y6D*%
X139297500Y-43600000D03*
%TD*%
D45*
%TO.P,J1,1,Pin_1*%
%TO.N,/Power/USB_5V*%
X105300000Y-35203900D03*
%TO.P,J1,2,Pin_2*%
%TO.N,Net-(J1-Pin_2)*%
X104649999Y-35203900D03*
%TO.P,J1,3,Pin_3*%
%TO.N,Net-(J1-Pin_3)*%
X104000000Y-35203900D03*
%TO.P,J1,4,Pin_4*%
%TO.N,unconnected-(J1-Pin_4-Pad4)*%
X103350001Y-35203900D03*
%TO.P,J1,5,Pin_5*%
%TO.N,GND*%
X102700000Y-35203900D03*
D46*
%TO.P,J1,6,Pin_6*%
%TO.N,/Power/USB_PADS*%
X107099999Y-35078899D03*
%TO.P,J1,7,Pin_7*%
X100900001Y-35078899D03*
D47*
%TO.P,J1,8,Pin_8*%
X107800000Y-32528899D03*
%TO.P,J1,9,Pin_9*%
X100200000Y-32528899D03*
D48*
%TO.P,J1,10,Pin_10*%
X105200000Y-32528899D03*
%TO.P,J1,11,Pin_11*%
X102800000Y-32528899D03*
%TD*%
D20*
%TO.P,R81,1*%
%TO.N,/LED Matrix/C_{B}*%
X135402500Y-49000000D03*
%TO.P,R81,2*%
%TO.N,/LED Matrix/MAT_CB*%
X136597500Y-49000000D03*
%TD*%
D18*
%TO.P,D54,1,K*%
%TO.N,/LED Matrix/MAT_RF*%
X144427500Y-68000000D03*
%TO.P,D54,2,A*%
%TO.N,/LED Matrix/MAT_CE*%
X145572500Y-68000000D03*
%TD*%
%TO.P,D03,1,K*%
%TO.N,/LED Matrix/MAT_RA*%
X141427500Y-53000000D03*
%TO.P,D03,2,A*%
%TO.N,/LED Matrix/MAT_CD*%
X142572500Y-53000000D03*
%TD*%
D15*
%TO.P,Q6,1,G*%
%TO.N,/LED Matrix/Y2D*%
X150950000Y-45562500D03*
%TO.P,Q6,2,S*%
%TO.N,GND*%
X149050000Y-45562500D03*
%TO.P,Q6,3,D*%
%TO.N,/LED Matrix/MAT_RF*%
X150000000Y-47437500D03*
%TD*%
D12*
%TO.P,C01,1*%
%TO.N,+BATT*%
X82500000Y-39067500D03*
%TO.P,C01,2*%
%TO.N,GND*%
X82500000Y-37932500D03*
%TD*%
D18*
%TO.P,D10,1,K*%
%TO.N,/LED Matrix/MAT_RB*%
X132427500Y-56000000D03*
%TO.P,D10,2,A*%
%TO.N,/LED Matrix/MAT_CA*%
X133572500Y-56000000D03*
%TD*%
%TO.P,D45,1,K*%
%TO.N,/LED Matrix/MAT_RE*%
X147427500Y-65000000D03*
%TO.P,D45,2,A*%
%TO.N,/LED Matrix/MAT_CF*%
X148572500Y-65000000D03*
%TD*%
D21*
%TO.P,R22,1*%
%TO.N,GND*%
X86500000Y-37902500D03*
%TO.P,R22,2*%
%TO.N,/Power/AMS_ADJ*%
X86500000Y-39097500D03*
%TD*%
D18*
%TO.P,D61,1,K*%
%TO.N,/LED Matrix/MAT_RG*%
X135427500Y-71000000D03*
%TO.P,D61,2,A*%
%TO.N,/LED Matrix/MAT_CB*%
X136572500Y-71000000D03*
%TD*%
D30*
%TO.P,R14,1*%
%TO.N,/MCU/PA1*%
X115400000Y-156197500D03*
%TO.P,R14,2*%
%TO.N,/MCU/IRDRV_G*%
X115400000Y-155002500D03*
%TD*%
D22*
%TO.P,SW7,1,1*%
%TO.N,GND*%
X115402600Y-124749999D03*
%TO.P,SW7,2,2*%
X124597400Y-124749999D03*
%TO.P,SW7,3,K*%
%TO.N,/MCU/PB8*%
X115402600Y-129250001D03*
%TO.P,SW7,4,A*%
X124597400Y-129250001D03*
%TD*%
D49*
%TO.P,C20,1*%
%TO.N,/Power/PWR_IN_MIXED*%
X87700000Y-34487500D03*
%TO.P,C20,2*%
%TO.N,GND*%
X87700000Y-36212500D03*
%TD*%
D18*
%TO.P,D31,1,K*%
%TO.N,/LED Matrix/MAT_RD*%
X135427500Y-62000000D03*
%TO.P,D31,2,A*%
%TO.N,/LED Matrix/MAT_CB*%
X136572500Y-62000000D03*
%TD*%
%TO.P,D73,1,K*%
%TO.N,/LED Matrix/MAT_RH*%
X141427500Y-74000000D03*
%TO.P,D73,2,A*%
%TO.N,/LED Matrix/MAT_CD*%
X142572500Y-74000000D03*
%TD*%
D20*
%TO.P,R80,1*%
%TO.N,/LED Matrix/C_{A}*%
X132402500Y-49000000D03*
%TO.P,R80,2*%
%TO.N,/LED Matrix/MAT_CA*%
X133597500Y-49000000D03*
%TD*%
D50*
%TO.P,BT1,1,+*%
%TO.N,+BATT*%
X81299990Y-133000000D03*
%TO.P,BT1,2,-*%
%TO.N,GND*%
X100549994Y-133000000D03*
%TD*%
D51*
%TO.N,GND*%
X86000000Y-36250000D03*
X121200000Y-58300000D03*
X132400000Y-43700000D03*
X140500000Y-148000000D03*
X112050000Y-41800000D03*
D52*
X140138842Y-34239182D03*
D51*
X115300000Y-131500000D03*
D52*
X153500000Y-45100000D03*
D51*
X125600000Y-54200000D03*
X80750000Y-40000000D03*
X88800000Y-43200000D03*
X117300000Y-50400000D03*
D52*
X153000000Y-35750000D03*
X153900000Y-43445307D03*
D51*
X124100000Y-44400000D03*
X143600000Y-34600000D03*
%TO.N,VCC*%
X132700000Y-42700000D03*
X121100000Y-43000000D03*
X124100000Y-54300000D03*
X112200000Y-43300000D03*
X152300000Y-117500000D03*
D52*
X115662500Y-51087500D03*
X117300000Y-60100000D03*
D51*
X142700000Y-35600000D03*
X117600000Y-157700000D03*
D52*
X115750000Y-48000000D03*
D51*
X90200000Y-43000000D03*
D52*
%TO.N,/LED Matrix/MAT_RA*%
X133300000Y-47100000D03*
X132600000Y-54000000D03*
%TO.N,/LED Matrix/MAT_CA*%
X133300000Y-61200000D03*
X133300000Y-58200000D03*
X133300000Y-64200000D03*
X133600000Y-47900000D03*
X133300000Y-55200000D03*
X133300000Y-67200000D03*
X133300000Y-52200000D03*
X133300000Y-70200000D03*
X133300000Y-73200000D03*
D53*
X103400000Y-71700000D03*
D51*
%TO.N,+BATT*%
X135600000Y-133000000D03*
X82500000Y-40500000D03*
X83750000Y-36500000D03*
D52*
%TO.N,/LED Matrix/MAT_CB*%
X136300000Y-67200000D03*
D53*
X99950000Y-70600000D03*
D52*
X136300000Y-73200000D03*
X136300000Y-52200000D03*
X136300000Y-70200000D03*
X136300000Y-58200000D03*
X136300000Y-64200000D03*
X136300000Y-55200000D03*
X137200000Y-47900000D03*
X136300000Y-61200000D03*
D53*
%TO.N,/Power/USB_5V*%
X121350000Y-37250000D03*
X127500000Y-36650000D03*
%TO.N,/LED Matrix/MAT_CC*%
X98450000Y-73050000D03*
D52*
X140400000Y-47900000D03*
X139300000Y-73200000D03*
X139300000Y-61200000D03*
X139300000Y-52200000D03*
X139300000Y-64200000D03*
X139300000Y-70200000D03*
X139300000Y-55200000D03*
X139300000Y-67200000D03*
X139300000Y-58200000D03*
%TO.N,/MCU/PA9*%
X135700000Y-30900000D03*
X137200000Y-30900000D03*
%TO.N,/LED Matrix/MAT_CD*%
X142300000Y-70200000D03*
X142300000Y-64200000D03*
X142300000Y-55200000D03*
X142300000Y-73200000D03*
X142300000Y-58200000D03*
X142300000Y-67200000D03*
D53*
X98800000Y-74600000D03*
D52*
X142300000Y-52200000D03*
X144000000Y-47900000D03*
X142300000Y-61200000D03*
D53*
%TO.N,/LED Matrix/MAT_CE*%
X97100000Y-68950000D03*
D52*
X146500000Y-49000000D03*
X145300000Y-58200000D03*
X145300000Y-70200000D03*
X145300000Y-61200000D03*
X145300000Y-64200000D03*
X145300000Y-67200000D03*
X145300000Y-52200000D03*
X145300000Y-55200000D03*
X145300000Y-73200000D03*
%TO.N,/LED Matrix/MAT_CF*%
X149000000Y-47900000D03*
X148300000Y-73200000D03*
X148300000Y-55200000D03*
X148300000Y-70200000D03*
X148300000Y-61200000D03*
X148300000Y-64200000D03*
X148300000Y-67200000D03*
X148300000Y-52200000D03*
X148300000Y-58200000D03*
%TO.N,/LED Matrix/MAT_CG*%
X151300000Y-58200000D03*
X151300000Y-73200000D03*
X151300000Y-52200000D03*
X151300000Y-64200000D03*
X151300000Y-70200000D03*
X151300000Y-55200000D03*
X151300000Y-61200000D03*
X152300000Y-47900000D03*
X151300000Y-67200000D03*
%TO.N,/LED Matrix/MAT_CH*%
X154300000Y-64200000D03*
X154300000Y-70200000D03*
X154300000Y-73200000D03*
X154300000Y-67200000D03*
X154300000Y-58200000D03*
X154300000Y-52200000D03*
X154300000Y-55200000D03*
X154300000Y-61200000D03*
D53*
%TO.N,/LED Matrix/MAT_RB*%
X103350000Y-72650000D03*
D52*
X135465399Y-56758048D03*
X135100000Y-47100000D03*
%TO.N,/LED Matrix/MAT_RC*%
X138500000Y-47100000D03*
D53*
X98450000Y-70550000D03*
D52*
X138600000Y-60000000D03*
D53*
%TO.N,/LED Matrix/MAT_RD*%
X100250000Y-69450000D03*
D52*
X141600000Y-63000000D03*
X141900000Y-47000000D03*
D53*
%TO.N,/LED Matrix/MAT_RE*%
X100150000Y-68450000D03*
D52*
X145400000Y-47000000D03*
X144600000Y-66000000D03*
%TO.N,/LED Matrix/MAT_RF*%
X147600000Y-69000000D03*
D53*
X95950000Y-69500000D03*
D52*
X148600000Y-47000000D03*
%TO.N,/LED Matrix/MAT_RG*%
X150600000Y-72000000D03*
X152400000Y-47000000D03*
D53*
X100300000Y-67100000D03*
D52*
%TO.N,/LED Matrix/MAT_RH*%
X155100000Y-43600000D03*
X153600000Y-75000000D03*
D53*
X93750000Y-68750000D03*
D52*
%TO.N,/MCU/PA14*%
X111700000Y-53200000D03*
X114400000Y-45700000D03*
%TO.N,/MCU/PA13*%
X111500000Y-52200000D03*
X116900000Y-45600000D03*
D53*
%TO.N,/MCU/PA2*%
X131800000Y-155700000D03*
X87100000Y-155900000D03*
D51*
%TO.N,Net-(J4-Pin_2)*%
X87700000Y-159300000D03*
D53*
%TO.N,/MCU/PA15*%
X102600000Y-143100000D03*
X106800000Y-77300000D03*
D52*
%TO.N,/LED Matrix/Y7D*%
X137000000Y-41200000D03*
X137800000Y-42500000D03*
%TO.N,/LED Matrix/Y6D*%
X137900000Y-41000000D03*
X140800000Y-41400000D03*
%TO.N,/LED Matrix/Y5D*%
X142300000Y-41000000D03*
X138300000Y-40200000D03*
%TO.N,/LED Matrix/Y4D*%
X136300000Y-39500000D03*
X143900000Y-40300000D03*
%TO.N,/LED Matrix/Y3D*%
X146600000Y-42100000D03*
X135500000Y-41100000D03*
%TO.N,/LED Matrix/Y2D*%
X135200000Y-41900000D03*
X148900000Y-41600000D03*
%TO.N,/LED Matrix/Y1D*%
X151200000Y-41400000D03*
X134500000Y-42400000D03*
%TO.N,/LED Matrix/Y0D*%
X152100000Y-40720000D03*
D53*
X130200000Y-47100000D03*
%TO.N,/MCU/PB3*%
X107400000Y-77800000D03*
X125600000Y-151400000D03*
D52*
%TO.N,/MCU/PA8*%
X146500000Y-34300000D03*
D53*
X135500000Y-32500000D03*
%TO.N,/MCU/PB4*%
X105300000Y-129000000D03*
X108100000Y-78400000D03*
%TO.N,/MCU/PB5*%
X113300000Y-140300000D03*
X108700000Y-79000000D03*
%TO.N,/MCU/PB6*%
X128300000Y-142800000D03*
X109600000Y-79000000D03*
%TO.N,/MCU/PB7*%
X110200000Y-78300000D03*
X139500000Y-142600000D03*
%TO.N,/MCU/PB8*%
X110900000Y-77700000D03*
X113400000Y-129200000D03*
%TO.N,/MCU/PB9*%
X111500000Y-77000000D03*
X138700000Y-128300000D03*
%TO.N,/MCU/STM_VBATT*%
X114000000Y-54000000D03*
X110500000Y-45100000D03*
%TO.N,Net-(J1-Pin_2)*%
X126800000Y-33300000D03*
X113300000Y-35100000D03*
%TD*%
D54*
%TO.N,/Power/PWR_IN_MIXED*%
X87700000Y-34487500D02*
X89837500Y-34487500D01*
X94000000Y-31200000D02*
X94000000Y-32500000D01*
X95600000Y-45900000D02*
X95600000Y-45162500D01*
X92250000Y-32500000D02*
X94000000Y-32500000D01*
X95362500Y-45162500D02*
X95600000Y-45162500D01*
X95149999Y-46350001D02*
X95600000Y-45900000D01*
X96437500Y-45162500D02*
X96700000Y-44900000D01*
X97000000Y-32500000D02*
X97250000Y-32750000D01*
X92750000Y-31200000D02*
X94000000Y-31200000D01*
X93450483Y-44449999D02*
X94649999Y-44449999D01*
X94649999Y-44449999D02*
X95362500Y-45162500D01*
X94000000Y-31200000D02*
X94950000Y-31200000D01*
X89837500Y-34487500D02*
X90200000Y-34850000D01*
X93450483Y-46350001D02*
X95149999Y-46350001D01*
X90200000Y-34550000D02*
X92250000Y-32500000D01*
X97250000Y-32750000D02*
X97250000Y-38500000D01*
X96700000Y-39050000D02*
X97250000Y-38500000D01*
X95600000Y-45162500D02*
X96437500Y-45162500D01*
X90200000Y-34850000D02*
X90125000Y-34775000D01*
X94000000Y-32500000D02*
X97000000Y-32500000D01*
X96700000Y-44900000D02*
X96700000Y-39050000D01*
X90200000Y-34850000D02*
X90200000Y-34550000D01*
%TO.N,GND*%
X82500000Y-37932500D02*
X83795000Y-37932500D01*
X121800000Y-62100000D02*
X121800000Y-63000000D01*
D55*
X115000000Y-44175000D02*
X115000000Y-45100000D01*
D54*
X128555000Y-159245000D02*
X128200000Y-159600000D01*
D56*
X139046186Y-45562500D02*
X138550000Y-45562500D01*
X144463304Y-46649196D02*
X143649196Y-46649196D01*
X143649196Y-46649196D02*
X142562500Y-45562500D01*
D54*
X109402500Y-158500000D02*
X108300000Y-158500000D01*
X82500000Y-37932500D02*
X82067500Y-37932500D01*
X91149517Y-44449999D02*
X89087501Y-44449999D01*
X140500000Y-148000000D02*
X140500000Y-148749999D01*
X110597400Y-136749999D02*
X115402600Y-136749999D01*
X143965000Y-34865000D02*
X144300000Y-35200000D01*
D56*
X121200000Y-58300000D02*
X121200000Y-58025000D01*
D54*
X124100000Y-43700000D02*
X123800000Y-43700000D01*
D56*
X147909842Y-46702658D02*
X147202658Y-46702658D01*
D54*
X113000000Y-36450000D02*
X111250000Y-38200000D01*
X85235000Y-37902500D02*
X84500000Y-38637500D01*
X150549999Y-136749999D02*
X151400000Y-137600000D01*
X153800000Y-77700000D02*
X153800000Y-117500000D01*
D56*
X119300000Y-54800000D02*
X121150000Y-54800000D01*
D54*
X104444500Y-155060900D02*
X104444500Y-152582000D01*
X91600000Y-45400000D02*
X91149517Y-44949517D01*
D56*
X153900000Y-43445307D02*
X153895307Y-43450000D01*
X122417500Y-56750000D02*
X122417500Y-57182500D01*
D54*
X90377500Y-156902500D02*
X90975000Y-157500000D01*
X127155000Y-156100000D02*
X128555000Y-157500000D01*
X124250000Y-35900000D02*
X121250000Y-35900000D01*
D56*
X113100000Y-54167500D02*
X112667500Y-54167500D01*
D54*
X101600000Y-131500000D02*
X100549994Y-132550006D01*
D56*
X112300000Y-53800000D02*
X112300000Y-52000000D01*
X133112717Y-46542273D02*
X132132944Y-45562500D01*
D57*
X122967500Y-45515029D02*
X122967500Y-44387500D01*
D56*
X149490132Y-45562500D02*
X149050000Y-45562500D01*
D54*
X110050000Y-38200000D02*
X104650000Y-38200000D01*
X111700000Y-131500000D02*
X101600000Y-131500000D01*
X108300000Y-159100000D02*
X108300000Y-158500000D01*
D56*
X142562500Y-45562500D02*
X142050000Y-45562500D01*
X134070227Y-46542273D02*
X133112717Y-46542273D01*
D54*
X132400000Y-43700000D02*
X131500000Y-43700000D01*
X123800000Y-43700000D02*
X123112500Y-44387500D01*
X108800000Y-159600000D02*
X91400000Y-159600000D01*
X141100000Y-124749999D02*
X136597400Y-124749999D01*
X113550000Y-36450000D02*
X113000000Y-36450000D01*
X110050000Y-38200000D02*
X110050000Y-41800000D01*
X147050001Y-148749999D02*
X140500000Y-148749999D01*
X87700000Y-36212500D02*
X87287500Y-36212500D01*
D56*
X140159613Y-46675927D02*
X139046186Y-45562500D01*
D54*
X104400000Y-157800000D02*
X104444500Y-157755500D01*
X110050000Y-41800000D02*
X101800000Y-41800000D01*
X129222600Y-74922600D02*
X131900000Y-77600000D01*
X141100000Y-136749999D02*
X148597400Y-136749999D01*
D57*
X122395029Y-46087500D02*
X122967500Y-45515029D01*
X121412500Y-46087500D02*
X122395029Y-46087500D01*
D56*
X121450000Y-54500000D02*
X121600000Y-54500000D01*
D54*
X101800000Y-41800000D02*
X100727500Y-42872500D01*
X123112500Y-44387500D02*
X122967500Y-44387500D01*
X86037500Y-36212500D02*
X86000000Y-36250000D01*
X136597400Y-136749999D02*
X139402600Y-136749999D01*
D56*
X152550000Y-45562500D02*
X151498945Y-46613555D01*
X140155000Y-34223024D02*
X140138842Y-34239182D01*
D54*
X115402600Y-131602600D02*
X115402600Y-136749999D01*
D57*
X114412500Y-50587500D02*
X115000000Y-50000000D01*
D54*
X139402600Y-136749999D02*
X141100000Y-136749999D01*
X105100000Y-158500000D02*
X104400000Y-157800000D01*
X151400000Y-137600000D02*
X151400000Y-144400000D01*
X121000000Y-156900000D02*
X121800000Y-156100000D01*
D56*
X112667500Y-54167500D02*
X112300000Y-53800000D01*
D54*
X82067500Y-37932500D02*
X80750000Y-39250000D01*
X131550000Y-45562500D02*
X131550000Y-43750000D01*
X109402500Y-156035000D02*
X110962500Y-154475000D01*
D56*
X116500000Y-61000000D02*
X120800000Y-61000000D01*
D54*
X128200000Y-159600000D02*
X108800000Y-159600000D01*
X124597400Y-136749999D02*
X127402600Y-136749999D01*
X111250000Y-38200000D02*
X110050000Y-38200000D01*
X121800000Y-63000000D02*
X125765000Y-63000000D01*
X140500000Y-148749999D02*
X136597400Y-148749999D01*
D56*
X142050000Y-45562500D02*
X140936573Y-46675927D01*
D54*
X151400000Y-144400000D02*
X147050001Y-148749999D01*
X124873250Y-35125000D02*
X124873250Y-35276750D01*
D56*
X135572305Y-45562500D02*
X135050000Y-45562500D01*
D54*
X124597400Y-124749999D02*
X127402600Y-124749999D01*
X98597400Y-124749999D02*
X89402600Y-124749999D01*
X87287500Y-36212500D02*
X86500000Y-37000000D01*
D55*
X118000000Y-50000000D02*
X117700000Y-50000000D01*
D54*
X120900000Y-60900000D02*
X120900000Y-61200000D01*
D55*
X114670000Y-42520000D02*
X115000000Y-42850000D01*
D54*
X88900000Y-44637500D02*
X88900000Y-43300000D01*
X121250000Y-35900000D02*
X121150000Y-35800000D01*
D56*
X135050000Y-45562500D02*
X134070227Y-46542273D01*
D54*
X104444500Y-152582000D02*
X103862500Y-152000000D01*
D56*
X121300000Y-58300000D02*
X121200000Y-58300000D01*
D54*
X93450483Y-45400000D02*
X91600000Y-45400000D01*
X125600000Y-54200000D02*
X129000000Y-54200000D01*
X143965000Y-32500000D02*
X143965000Y-34200000D01*
D55*
X113300000Y-42520000D02*
X114670000Y-42520000D01*
D54*
X129222600Y-54422600D02*
X129222600Y-74922600D01*
D56*
X120800000Y-61000000D02*
X120900000Y-60900000D01*
X121200000Y-58025000D02*
X119625000Y-56450000D01*
D55*
X115000000Y-48545000D02*
X115000000Y-48300000D01*
D56*
X146062500Y-45562500D02*
X145550000Y-45562500D01*
X118000000Y-53500000D02*
X119300000Y-54800000D01*
D54*
X120900000Y-60900000D02*
X120900000Y-58600000D01*
X153700000Y-77600000D02*
X153800000Y-77700000D01*
D56*
X132132944Y-45562500D02*
X131550000Y-45562500D01*
D57*
X153037500Y-45562500D02*
X153500000Y-45100000D01*
X117077004Y-49077004D02*
X118000000Y-50000000D01*
D54*
X146550001Y-124749999D02*
X141100000Y-124749999D01*
X114200000Y-35800000D02*
X113550000Y-36450000D01*
D56*
X112300000Y-52000000D02*
X111800000Y-51500000D01*
D54*
X104650000Y-38200000D02*
X102700000Y-36250000D01*
X131900000Y-77600000D02*
X153700000Y-77600000D01*
X125765000Y-63000000D02*
X126000000Y-62765000D01*
D56*
X111800000Y-51500000D02*
X111800000Y-50700000D01*
X118000000Y-52500000D02*
X118000000Y-53500000D01*
D54*
X144300000Y-35200000D02*
X150067500Y-35200000D01*
D56*
X121600000Y-54500000D02*
X122432500Y-54500000D01*
D54*
X145235000Y-32500000D02*
X143965000Y-32500000D01*
X124100000Y-43700000D02*
X124100000Y-44400000D01*
X128555000Y-157500000D02*
X128555000Y-159245000D01*
X80750000Y-39250000D02*
X80750000Y-40000000D01*
X104444500Y-157755500D02*
X104444500Y-155060900D01*
X86500000Y-37902500D02*
X85235000Y-37902500D01*
X148597400Y-136749999D02*
X150549999Y-136749999D01*
X108800000Y-159600000D02*
X108700000Y-159500000D01*
D56*
X150541187Y-46613555D02*
X149490132Y-45562500D01*
X111800000Y-50700000D02*
X111912500Y-50587500D01*
D54*
X121150000Y-35800000D02*
X114200000Y-35800000D01*
X91400000Y-159600000D02*
X90975000Y-159175000D01*
D56*
X116200000Y-60067500D02*
X115200000Y-60067500D01*
D57*
X115000000Y-50000000D02*
X115000000Y-49077004D01*
D54*
X136597400Y-124749999D02*
X127402600Y-124749999D01*
X124873250Y-35276750D02*
X124250000Y-35900000D01*
D57*
X140155000Y-32500000D02*
X140155000Y-34223024D01*
D54*
X121000000Y-156902500D02*
X121000000Y-156900000D01*
D56*
X151498945Y-46613555D02*
X150541187Y-46613555D01*
X122432500Y-54500000D02*
X122500000Y-54567500D01*
D54*
X100549994Y-132550006D02*
X100549994Y-133000000D01*
D57*
X115000000Y-49077004D02*
X117077004Y-49077004D01*
D54*
X89087501Y-44449999D02*
X88900000Y-44637500D01*
X91149517Y-44949517D02*
X91149517Y-44449999D01*
X95600000Y-43437500D02*
X92162016Y-43437500D01*
X143600000Y-34600000D02*
X143865000Y-34600000D01*
X108700000Y-159500000D02*
X108300000Y-159100000D01*
D56*
X145550000Y-45562500D02*
X144463304Y-46649196D01*
X111912500Y-50587500D02*
X113087500Y-50587500D01*
X122417500Y-57182500D02*
X121300000Y-58300000D01*
D54*
X131550000Y-43750000D02*
X131500000Y-43700000D01*
D55*
X118512500Y-46087500D02*
X118000000Y-46600000D01*
D57*
X113087500Y-49087500D02*
X114989504Y-49087500D01*
D54*
X88500000Y-156902500D02*
X90377500Y-156902500D01*
D56*
X137543496Y-46569004D02*
X136578809Y-46569004D01*
X140936573Y-46675927D02*
X140159613Y-46675927D01*
D54*
X127402600Y-148749999D02*
X136597400Y-148749999D01*
X153800000Y-117500000D02*
X146550001Y-124749999D01*
X108300000Y-158500000D02*
X105100000Y-158500000D01*
D56*
X119550000Y-56050000D02*
X119550000Y-56575000D01*
D54*
X143865000Y-34600000D02*
X143965000Y-34500000D01*
X124597400Y-124749999D02*
X115402600Y-124749999D01*
X111700000Y-124849999D02*
X111800000Y-124749999D01*
D56*
X138550000Y-45562500D02*
X137543496Y-46569004D01*
D54*
X121800000Y-156100000D02*
X127155000Y-156100000D01*
D56*
X114989504Y-49087500D02*
X115000000Y-49077004D01*
D54*
X86500000Y-37000000D02*
X86500000Y-37902500D01*
X115402600Y-124749999D02*
X111800000Y-124749999D01*
D55*
X116500000Y-46600000D02*
X118000000Y-46600000D01*
D54*
X115402600Y-136749999D02*
X124597400Y-136749999D01*
D57*
X152550000Y-45562500D02*
X153037500Y-45562500D01*
D54*
X87700000Y-36212500D02*
X86037500Y-36212500D01*
X120900000Y-58600000D02*
X121200000Y-58300000D01*
X90975000Y-159175000D02*
X90975000Y-157500000D01*
D57*
X150600000Y-35732500D02*
X152982500Y-35732500D01*
D56*
X147202658Y-46702658D02*
X146062500Y-45562500D01*
X121150000Y-54800000D02*
X121450000Y-54500000D01*
D54*
X100727500Y-42872500D02*
X100727500Y-43950000D01*
X112050000Y-41800000D02*
X110050000Y-41800000D01*
D55*
X117700000Y-50000000D02*
X117300000Y-50400000D01*
X115000000Y-48300000D02*
X114600000Y-47900000D01*
D57*
X152982500Y-35732500D02*
X153000000Y-35750000D01*
D55*
X115950000Y-46050000D02*
X116500000Y-46600000D01*
D57*
X113087500Y-50587500D02*
X114412500Y-50587500D01*
X118000000Y-50000000D02*
X118000000Y-52500000D01*
X115000000Y-49077004D02*
X115000000Y-48545000D01*
D55*
X124873250Y-35125000D02*
X124873250Y-35426750D01*
D54*
X131500000Y-43700000D02*
X124100000Y-43700000D01*
X115300000Y-131500000D02*
X111700000Y-131500000D01*
D55*
X114600000Y-47400000D02*
X115950000Y-46050000D01*
X115000000Y-42850000D02*
X115000000Y-44175000D01*
D54*
X105932500Y-152000000D02*
X103862500Y-152000000D01*
X83795000Y-37932500D02*
X84500000Y-38637500D01*
D56*
X136578809Y-46569004D02*
X135572305Y-45562500D01*
D54*
X92162016Y-43437500D02*
X91149517Y-44449999D01*
D55*
X121412500Y-46087500D02*
X118512500Y-46087500D01*
D56*
X149050000Y-45562500D02*
X147909842Y-46702658D01*
D54*
X111800000Y-124749999D02*
X98597400Y-124749999D01*
X102700000Y-36250000D02*
X102700000Y-35203900D01*
X109402500Y-158500000D02*
X109402500Y-156035000D01*
D56*
X119625000Y-56450000D02*
X119625000Y-56625000D01*
X116200000Y-60067500D02*
X116200000Y-60700000D01*
D54*
X101402600Y-136749999D02*
X110597400Y-136749999D01*
X127402600Y-136749999D02*
X136597400Y-136749999D01*
X120900000Y-61200000D02*
X121800000Y-62100000D01*
D56*
X153895307Y-43450000D02*
X152562500Y-43450000D01*
D54*
X141100000Y-124749999D02*
X141100000Y-136749999D01*
X129000000Y-54200000D02*
X129222600Y-54422600D01*
D56*
X116200000Y-60700000D02*
X116500000Y-61000000D01*
D54*
X143965000Y-34500000D02*
X143965000Y-34865000D01*
D55*
X114600000Y-47900000D02*
X114600000Y-47400000D01*
D54*
X143965000Y-34200000D02*
X143965000Y-34500000D01*
D55*
X115000000Y-45100000D02*
X115950000Y-46050000D01*
D54*
X115300000Y-131500000D02*
X115402600Y-131602600D01*
X150067500Y-35200000D02*
X150600000Y-35732500D01*
X88900000Y-43300000D02*
X88800000Y-43200000D01*
%TO.N,/Power/TLV_OUT*%
X88162500Y-46362500D02*
X88900000Y-46362500D01*
X87800000Y-45300000D02*
X87800000Y-46000000D01*
X88900000Y-46362500D02*
X91137018Y-46362500D01*
X87800000Y-46000000D02*
X88162500Y-46362500D01*
X85802500Y-43800000D02*
X85802500Y-44402500D01*
X91137018Y-46362500D02*
X91149517Y-46350001D01*
X87400000Y-44900000D02*
X87800000Y-45300000D01*
X85802500Y-44402500D02*
X86300000Y-44900000D01*
X86300000Y-44900000D02*
X87400000Y-44900000D01*
%TO.N,/Power/AMS_OUT*%
X96250000Y-33250000D02*
X96500000Y-33500000D01*
X93000000Y-33250000D02*
X96250000Y-33250000D01*
X92350000Y-41000000D02*
X92500000Y-41150000D01*
X88000000Y-38000000D02*
X92500000Y-38000000D01*
X92500000Y-33750000D02*
X93000000Y-33250000D01*
X96500000Y-38000000D02*
X93350000Y-41150000D01*
X88000000Y-41000000D02*
X85137500Y-41000000D01*
X93350000Y-41150000D02*
X92500000Y-41150000D01*
X92500000Y-38000000D02*
X92500000Y-34850000D01*
X96500000Y-33500000D02*
X96500000Y-38000000D01*
X92500000Y-34850000D02*
X92500000Y-33750000D01*
X88000000Y-41000000D02*
X92350000Y-41000000D01*
X85137500Y-41000000D02*
X84500000Y-40362500D01*
D57*
%TO.N,VCC*%
X116750000Y-48000000D02*
X118500000Y-49750000D01*
D54*
X112555000Y-43655000D02*
X112200000Y-43300000D01*
X142700000Y-35600000D02*
X142900000Y-35800000D01*
D56*
X121617500Y-53432500D02*
X120600000Y-54450000D01*
D54*
X126400000Y-55200000D02*
X128200000Y-55200000D01*
X116600000Y-157402500D02*
X117302500Y-157402500D01*
X128600000Y-74100000D02*
X128600000Y-75600000D01*
X117302500Y-157402500D02*
X117600000Y-157700000D01*
D56*
X123150000Y-55550000D02*
X122950000Y-55750000D01*
X122632500Y-53432500D02*
X123150000Y-53950000D01*
D54*
X121100000Y-43000000D02*
X132400000Y-43000000D01*
D57*
X113804125Y-44159125D02*
X114484125Y-44159125D01*
D54*
X149045000Y-36245000D02*
X148700000Y-35900000D01*
X149045000Y-37500000D02*
X149045000Y-36245000D01*
D56*
X117975000Y-59772500D02*
X118302500Y-60100000D01*
D54*
X128600000Y-60000000D02*
X128600000Y-74100000D01*
X128600000Y-75200000D02*
X129600000Y-76200000D01*
X107067500Y-152000000D02*
X107067500Y-154977900D01*
X88000000Y-42195000D02*
X89395000Y-42195000D01*
X121100000Y-43000000D02*
X121832500Y-43732500D01*
D57*
X118500000Y-49750000D02*
X118500000Y-52500000D01*
D54*
X128600000Y-74100000D02*
X128600000Y-75200000D01*
X113300000Y-43655000D02*
X112555000Y-43655000D01*
X128375000Y-60225000D02*
X128600000Y-60000000D01*
D56*
X114484125Y-44159125D02*
X114500000Y-44175000D01*
D54*
X153200000Y-113000000D02*
X153200000Y-116600000D01*
D56*
X122500000Y-53432500D02*
X122632500Y-53432500D01*
D57*
X121412500Y-44807500D02*
X121832500Y-44387500D01*
D56*
X122800000Y-55700000D02*
X122447500Y-55700000D01*
D57*
X121412500Y-45587500D02*
X121412500Y-44807500D01*
D56*
X119479916Y-54450000D02*
X118500000Y-53470084D01*
D54*
X132400000Y-43000000D02*
X132700000Y-42700000D01*
D56*
X122850000Y-55750000D02*
X122800000Y-55700000D01*
D54*
X88000000Y-42195000D02*
X87000000Y-42195000D01*
D57*
X149967500Y-37500000D02*
X149045000Y-37500000D01*
D54*
X148600000Y-35800000D02*
X148700000Y-35900000D01*
X153200000Y-79300000D02*
X153200000Y-113000000D01*
X135000000Y-78200000D02*
X153000000Y-78200000D01*
X142400000Y-34100000D02*
X142400000Y-35300000D01*
D56*
X118302500Y-60100000D02*
X117300000Y-60100000D01*
D54*
X153000000Y-78200000D02*
X153100000Y-78300000D01*
D56*
X123150000Y-53950000D02*
X123150000Y-55550000D01*
D54*
X86997500Y-43800000D02*
X86997500Y-42197500D01*
X124100000Y-54300000D02*
X125000000Y-55200000D01*
X125000000Y-55200000D02*
X126400000Y-55200000D01*
X107067500Y-154977900D02*
X106984500Y-155060900D01*
X153200000Y-116600000D02*
X152300000Y-117500000D01*
X142695000Y-32500000D02*
X142695000Y-33805000D01*
D56*
X118500000Y-53470084D02*
X118500000Y-52500000D01*
X117975000Y-58550000D02*
X117975000Y-59772500D01*
D54*
X128200000Y-55200000D02*
X128600000Y-55600000D01*
D56*
X122950000Y-55750000D02*
X122850000Y-55750000D01*
D57*
X113300000Y-43655000D02*
X113804125Y-44159125D01*
D54*
X153100000Y-78300000D02*
X153200000Y-78400000D01*
X86997500Y-42197500D02*
X87000000Y-42195000D01*
X153200000Y-78400000D02*
X153200000Y-79300000D01*
D56*
X120600000Y-54450000D02*
X119479916Y-54450000D01*
D54*
X128600000Y-55600000D02*
X128600000Y-60000000D01*
D56*
X122500000Y-53432500D02*
X121617500Y-53432500D01*
D54*
X87000000Y-42195000D02*
X84652500Y-42195000D01*
X131600000Y-78200000D02*
X135000000Y-78200000D01*
D56*
X113087500Y-53020000D02*
X113100000Y-53032500D01*
D54*
X121832500Y-43732500D02*
X121832500Y-44387500D01*
D57*
X150600000Y-36867500D02*
X149967500Y-37500000D01*
D54*
X142900000Y-35800000D02*
X148600000Y-35800000D01*
X84652500Y-42195000D02*
X84597500Y-42250000D01*
X129600000Y-76200000D02*
X131600000Y-78200000D01*
X89395000Y-42195000D02*
X90200000Y-43000000D01*
D57*
X115662500Y-51087500D02*
X113087500Y-51087500D01*
D54*
X142400000Y-35300000D02*
X142700000Y-35600000D01*
X142695000Y-33805000D02*
X142400000Y-34100000D01*
X126000000Y-60225000D02*
X128375000Y-60225000D01*
D56*
X113087500Y-51087500D02*
X113087500Y-53020000D01*
D57*
X115750000Y-48000000D02*
X116750000Y-48000000D01*
D56*
%TO.N,Net-(U3-NRST)*%
X121200000Y-55150000D02*
X121252500Y-55202500D01*
X119150000Y-55150000D02*
X121200000Y-55150000D01*
X121282500Y-55730000D02*
X121252500Y-55700000D01*
X121252500Y-55202500D02*
X121252500Y-55700000D01*
X117500000Y-52500000D02*
X117500000Y-53500000D01*
X121282500Y-56750000D02*
X121282500Y-55730000D01*
X117500000Y-53500000D02*
X119150000Y-55150000D01*
%TO.N,/MCU/PD0*%
X116500000Y-52500000D02*
X116500000Y-53300000D01*
X117000000Y-53800000D02*
X117200000Y-53800000D01*
X116500000Y-53300000D02*
X117000000Y-53800000D01*
X117975000Y-54575000D02*
X117975000Y-56450000D01*
X117200000Y-53800000D02*
X117975000Y-54575000D01*
%TO.N,/MCU/PC14*%
X114732500Y-58932500D02*
X114300000Y-58500000D01*
X115200000Y-58932500D02*
X114732500Y-58932500D01*
X115500000Y-52500000D02*
X115500000Y-54950000D01*
X114300000Y-58500000D02*
X114300000Y-56350000D01*
X115500000Y-54950000D02*
X115600000Y-55050000D01*
X114300000Y-56350000D02*
X115600000Y-55050000D01*
%TO.N,/MCU/PC15*%
X116000000Y-53565200D02*
X116900000Y-54465200D01*
X116900000Y-57000000D02*
X116350000Y-57550000D01*
X116200000Y-58150000D02*
X115600000Y-57550000D01*
X116000000Y-52500000D02*
X116000000Y-53565200D01*
X116350000Y-57550000D02*
X115600000Y-57550000D01*
X116900000Y-54465200D02*
X116900000Y-57000000D01*
X116200000Y-58932500D02*
X116200000Y-58150000D01*
D54*
%TO.N,Net-(U5-OUTPUT)*%
X102700000Y-150900000D02*
X102137500Y-151462500D01*
X105902500Y-150900000D02*
X102700000Y-150900000D01*
X101904500Y-155060900D02*
X101904500Y-152233000D01*
X101904500Y-152233000D02*
X102137500Y-152000000D01*
X102137500Y-151462500D02*
X102137500Y-152000000D01*
D56*
%TO.N,/LED Matrix/MAT_RA*%
X135427500Y-53672500D02*
X135400000Y-53700000D01*
X153300000Y-53700000D02*
X150400000Y-53700000D01*
X141400000Y-53700000D02*
X138400000Y-53700000D01*
X132427500Y-53527500D02*
X132427500Y-53000000D01*
X141427500Y-53672500D02*
X141400000Y-53700000D01*
X135400000Y-53700000D02*
X132600000Y-53700000D01*
X144427500Y-53672500D02*
X144400000Y-53700000D01*
X138400000Y-53700000D02*
X135400000Y-53700000D01*
X132600000Y-53700000D02*
X132600000Y-54000000D01*
X147427500Y-53000000D02*
X147400000Y-53000000D01*
X150427500Y-53000000D02*
X150427500Y-53672500D01*
X135427500Y-53000000D02*
X135427500Y-53672500D01*
X153427500Y-53000000D02*
X153427500Y-53572500D01*
X132837500Y-47100000D02*
X132500000Y-47437500D01*
X147400000Y-53700000D02*
X144400000Y-53700000D01*
X144400000Y-53700000D02*
X141400000Y-53700000D01*
X144427500Y-53000000D02*
X144427500Y-53672500D01*
X138427500Y-53672500D02*
X138400000Y-53700000D01*
X153427500Y-53572500D02*
X153300000Y-53700000D01*
X147400000Y-53000000D02*
X147400000Y-53700000D01*
X150427500Y-53672500D02*
X150400000Y-53700000D01*
X141427500Y-53000000D02*
X141427500Y-53672500D01*
X132600000Y-53700000D02*
X132427500Y-53527500D01*
X150400000Y-53700000D02*
X147400000Y-53700000D01*
X132662500Y-47600000D02*
X132500000Y-47437500D01*
X138427500Y-53000000D02*
X138427500Y-53672500D01*
X133300000Y-47100000D02*
X132837500Y-47100000D01*
%TO.N,/LED Matrix/MAT_CA*%
X102980000Y-62730000D02*
X103400000Y-63150000D01*
X133597500Y-47902500D02*
X133600000Y-47900000D01*
X133572500Y-71000000D02*
X133572500Y-70472500D01*
X133572500Y-68000000D02*
X133572500Y-67472500D01*
X133572500Y-62000000D02*
X133572500Y-61472500D01*
X133572500Y-67472500D02*
X133300000Y-67200000D01*
X133572500Y-64472500D02*
X133300000Y-64200000D01*
X133572500Y-56000000D02*
X133572500Y-55472500D01*
X133572500Y-70472500D02*
X133300000Y-70200000D01*
X133597500Y-52975000D02*
X133572500Y-53000000D01*
X133572500Y-65000000D02*
X133572500Y-64472500D01*
X102014200Y-62730000D02*
X102980000Y-62730000D01*
X133572500Y-55472500D02*
X133300000Y-55200000D01*
X133572500Y-59000000D02*
X133572500Y-58472500D01*
X133572500Y-74000000D02*
X133572500Y-73472500D01*
X133572500Y-52472500D02*
X133300000Y-52200000D01*
X103400000Y-71700000D02*
X103400000Y-63150000D01*
X133572500Y-58472500D02*
X133300000Y-58200000D01*
X133597500Y-49000000D02*
X133597500Y-47902500D01*
X133572500Y-61472500D02*
X133300000Y-61200000D01*
X133572500Y-73472500D02*
X133300000Y-73200000D01*
X133572500Y-53000000D02*
X133572500Y-52472500D01*
D54*
%TO.N,+BATT*%
X98100000Y-131900000D02*
X97000000Y-133000000D01*
X90250000Y-31200000D02*
X89050000Y-31200000D01*
X108402500Y-45000000D02*
X105657500Y-45000000D01*
X78500000Y-41200000D02*
X74500000Y-45200000D01*
X93250000Y-47200000D02*
X93222600Y-47227400D01*
X125400000Y-133000000D02*
X122600000Y-130200000D01*
X85627400Y-47227400D02*
X83402500Y-45002500D01*
X82500000Y-41347500D02*
X83402500Y-42250000D01*
X89050000Y-31200000D02*
X83750000Y-36500000D01*
X82500000Y-39067500D02*
X82500000Y-41200000D01*
X105657500Y-45000000D02*
X104607500Y-43950000D01*
X75300000Y-133000000D02*
X81299990Y-133000000D01*
X83402500Y-45002500D02*
X83402500Y-42250000D01*
X99700000Y-130600000D02*
X98400000Y-131900000D01*
X104607500Y-44742500D02*
X102150000Y-47200000D01*
X93222600Y-47227400D02*
X85627400Y-47227400D01*
X116200000Y-130200000D02*
X115800000Y-130600000D01*
X82500000Y-41200000D02*
X78500000Y-41200000D01*
X98400000Y-131900000D02*
X98100000Y-131900000D01*
X102150000Y-47200000D02*
X93250000Y-47200000D01*
X82500000Y-41200000D02*
X82500000Y-41347500D01*
X115800000Y-130600000D02*
X99700000Y-130600000D01*
X104607500Y-43950000D02*
X104607500Y-44742500D01*
X97000000Y-133000000D02*
X81299990Y-133000000D01*
X122600000Y-130200000D02*
X116200000Y-130200000D01*
X74500000Y-45200000D02*
X74500000Y-132200000D01*
X74500000Y-132200000D02*
X75300000Y-133000000D01*
X135600000Y-133000000D02*
X125400000Y-133000000D01*
D56*
%TO.N,/LED Matrix/MAT_CB*%
X136597500Y-49000000D02*
X137197500Y-48400000D01*
X136597500Y-52975000D02*
X136572500Y-53000000D01*
X136572500Y-67472500D02*
X136300000Y-67200000D01*
X99600000Y-61350000D02*
X98440000Y-60190000D01*
X136572500Y-68000000D02*
X136572500Y-67472500D01*
X136572500Y-64472500D02*
X136300000Y-64200000D01*
X136572500Y-65000000D02*
X136572500Y-64472500D01*
X136572500Y-59000000D02*
X136572500Y-58472500D01*
X136572500Y-73472500D02*
X136300000Y-73200000D01*
X99950000Y-70600000D02*
X99600000Y-70250000D01*
X99600000Y-70250000D02*
X99600000Y-61350000D01*
X136572500Y-70472500D02*
X136300000Y-70200000D01*
X136572500Y-53000000D02*
X136572500Y-52472500D01*
X136572500Y-55472500D02*
X136300000Y-55200000D01*
X137197500Y-48400000D02*
X137200000Y-48400000D01*
X136572500Y-71000000D02*
X136572500Y-70472500D01*
X136572500Y-52472500D02*
X136300000Y-52200000D01*
X136572500Y-58472500D02*
X136300000Y-58200000D01*
X136572500Y-61472500D02*
X136300000Y-61200000D01*
X136572500Y-56000000D02*
X136572500Y-55472500D01*
X136572500Y-62000000D02*
X136572500Y-61472500D01*
X136597500Y-49000000D02*
X136800000Y-49000000D01*
X98440000Y-60190000D02*
X77985800Y-60190000D01*
X136572500Y-74000000D02*
X136572500Y-73472500D01*
X137200000Y-48400000D02*
X137200000Y-47900000D01*
D54*
%TO.N,/Power/USB_5V*%
X97450000Y-31100000D02*
X97450000Y-31200000D01*
X120800000Y-33900000D02*
X120800000Y-31200000D01*
X127473250Y-30823250D02*
X127473250Y-35125000D01*
X121600000Y-30400000D02*
X98150000Y-30400000D01*
X105300000Y-35203900D02*
X105300000Y-36150000D01*
D56*
X127473250Y-35125000D02*
X127473250Y-36623250D01*
D54*
X127050000Y-30400000D02*
X127473250Y-30823250D01*
X110350000Y-36550000D02*
X112500000Y-34400000D01*
D56*
X127473250Y-36623250D02*
X127500000Y-36650000D01*
D54*
X121600000Y-30400000D02*
X127050000Y-30400000D01*
X105700000Y-36550000D02*
X110350000Y-36550000D01*
D56*
X122147500Y-38047500D02*
X121350000Y-37250000D01*
D54*
X112500000Y-34400000D02*
X120300000Y-34400000D01*
X120300000Y-34400000D02*
X120800000Y-33900000D01*
X98150000Y-30400000D02*
X97450000Y-31100000D01*
D56*
X122300000Y-38047500D02*
X122147500Y-38047500D01*
D54*
X105300000Y-36150000D02*
X105700000Y-36550000D01*
X120800000Y-31200000D02*
X121600000Y-30400000D01*
D56*
%TO.N,/LED Matrix/MAT_CC*%
X139572500Y-55472500D02*
X139300000Y-55200000D01*
X139572500Y-65000000D02*
X139572500Y-64472500D01*
X139597500Y-55975000D02*
X139572500Y-56000000D01*
X139572500Y-74000000D02*
X139572500Y-73472500D01*
X139572500Y-68000000D02*
X139572500Y-67472500D01*
X139572500Y-53000000D02*
X139572500Y-52472500D01*
X139597500Y-73975000D02*
X139572500Y-74000000D01*
X139597500Y-58975000D02*
X139572500Y-59000000D01*
X139597500Y-49000000D02*
X140100000Y-49000000D01*
X139597500Y-70975000D02*
X139572500Y-71000000D01*
X139572500Y-71000000D02*
X139572500Y-70472500D01*
X139572500Y-56000000D02*
X139572500Y-55472500D01*
X139597500Y-64975000D02*
X139572500Y-65000000D01*
X139597500Y-61975000D02*
X139572500Y-62000000D01*
X140300000Y-48800000D02*
X140400000Y-48700000D01*
X99250000Y-63350000D02*
X99250000Y-63750000D01*
X140400000Y-48700000D02*
X140400000Y-47900000D01*
X139597500Y-52975000D02*
X139572500Y-53000000D01*
X99250000Y-71650000D02*
X99250000Y-72250000D01*
X140100000Y-49000000D02*
X140300000Y-48800000D01*
X98630000Y-62730000D02*
X99250000Y-63350000D01*
X99250000Y-63750000D02*
X99250000Y-71650000D01*
X139572500Y-73472500D02*
X139300000Y-73200000D01*
X139572500Y-61472500D02*
X139300000Y-61200000D01*
X139572500Y-52472500D02*
X139300000Y-52200000D01*
X77985800Y-62730000D02*
X98630000Y-62730000D01*
X139572500Y-67472500D02*
X139300000Y-67200000D01*
X139572500Y-58472500D02*
X139300000Y-58200000D01*
X139572500Y-70472500D02*
X139300000Y-70200000D01*
X139597500Y-67975000D02*
X139572500Y-68000000D01*
X99250000Y-72250000D02*
X98450000Y-73050000D01*
X139572500Y-64472500D02*
X139300000Y-64200000D01*
X139572500Y-62000000D02*
X139572500Y-61472500D01*
X139572500Y-59000000D02*
X139572500Y-58472500D01*
%TO.N,/MCU/PA9*%
X118800000Y-40000000D02*
X134300000Y-40000000D01*
X147400000Y-30700000D02*
X138200000Y-30700000D01*
X117500000Y-41500000D02*
X117500000Y-41800000D01*
X135500000Y-34800000D02*
X134800000Y-34100000D01*
X135500000Y-38800000D02*
X135500000Y-34800000D01*
X147775000Y-32500000D02*
X147775000Y-31075000D01*
X117500000Y-41300000D02*
X118800000Y-40000000D01*
X117500000Y-41800000D02*
X117500000Y-44175000D01*
X134800000Y-34100000D02*
X134800000Y-32300000D01*
X137600000Y-31300000D02*
X137200000Y-30900000D01*
X137400000Y-30700000D02*
X137200000Y-30900000D01*
X134300000Y-40000000D02*
X135500000Y-38800000D01*
X137600000Y-31802500D02*
X137600000Y-31300000D01*
X117500000Y-41800000D02*
X117500000Y-41300000D01*
X138200000Y-30700000D02*
X137400000Y-30700000D01*
X135700000Y-31400000D02*
X135700000Y-30900000D01*
X134800000Y-32300000D02*
X135700000Y-31400000D01*
X147775000Y-31075000D02*
X147400000Y-30700000D01*
%TO.N,/LED Matrix/MAT_CD*%
X142572500Y-55472500D02*
X142300000Y-55200000D01*
X142572500Y-68000000D02*
X142572500Y-67472500D01*
X142597500Y-58975000D02*
X142572500Y-59000000D01*
X142597500Y-61975000D02*
X142572500Y-62000000D01*
X142572500Y-65000000D02*
X142572500Y-64472500D01*
X142572500Y-59000000D02*
X142572500Y-58472500D01*
X142597500Y-73975000D02*
X142572500Y-74000000D01*
X98800000Y-74600000D02*
X100550000Y-72850000D01*
X142597500Y-55975000D02*
X142572500Y-56000000D01*
X142597500Y-70975000D02*
X142572500Y-71000000D01*
X142572500Y-70472500D02*
X142300000Y-70200000D01*
X142572500Y-52472500D02*
X142300000Y-52200000D01*
X142572500Y-73472500D02*
X142300000Y-73200000D01*
X100550000Y-71814200D02*
X102014200Y-70350000D01*
X142572500Y-56000000D02*
X142572500Y-55472500D01*
X142572500Y-58472500D02*
X142300000Y-58200000D01*
X142572500Y-62000000D02*
X142572500Y-61472500D01*
X142900000Y-49000000D02*
X144000000Y-47900000D01*
X142597500Y-52975000D02*
X142572500Y-53000000D01*
X142572500Y-64472500D02*
X142300000Y-64200000D01*
X142572500Y-53000000D02*
X142572500Y-52472500D01*
X142572500Y-67472500D02*
X142300000Y-67200000D01*
X142572500Y-74000000D02*
X142572500Y-73472500D01*
X142597500Y-64975000D02*
X142572500Y-65000000D01*
X142597500Y-49000000D02*
X142900000Y-49000000D01*
X142572500Y-61472500D02*
X142300000Y-61200000D01*
X142597500Y-67975000D02*
X142572500Y-68000000D01*
X100550000Y-72850000D02*
X100550000Y-71814200D01*
X142572500Y-71000000D02*
X142572500Y-70472500D01*
%TO.N,/LED Matrix/MAT_CE*%
X82860000Y-67810000D02*
X83250000Y-68200000D01*
X85250000Y-68200000D02*
X86550000Y-69500000D01*
X145572500Y-56000000D02*
X145572500Y-55472500D01*
X95150000Y-68850000D02*
X97000000Y-68850000D01*
X145572500Y-59000000D02*
X145572500Y-58472500D01*
X83250000Y-68200000D02*
X85250000Y-68200000D01*
X145597500Y-58975000D02*
X145572500Y-59000000D01*
X145572500Y-61472500D02*
X145300000Y-61200000D01*
X145597500Y-67975000D02*
X145572500Y-68000000D01*
X145572500Y-68000000D02*
X145572500Y-67472500D01*
X97000000Y-68850000D02*
X97100000Y-68950000D01*
X145572500Y-65000000D02*
X145572500Y-64472500D01*
X145572500Y-71000000D02*
X145572500Y-70472500D01*
X145572500Y-73472500D02*
X145300000Y-73200000D01*
X145572500Y-58472500D02*
X145300000Y-58200000D01*
X145572500Y-62000000D02*
X145572500Y-61472500D01*
X145572500Y-64472500D02*
X145300000Y-64200000D01*
X145597500Y-61975000D02*
X145572500Y-62000000D01*
X86550000Y-69500000D02*
X94500000Y-69500000D01*
X145572500Y-53000000D02*
X145572500Y-52472500D01*
X145597500Y-73975000D02*
X145572500Y-74000000D01*
X145497500Y-49000000D02*
X146500000Y-49000000D01*
X145572500Y-70472500D02*
X145300000Y-70200000D01*
X145597500Y-70975000D02*
X145572500Y-71000000D01*
X145572500Y-52472500D02*
X145300000Y-52200000D01*
X145597500Y-55975000D02*
X145572500Y-56000000D01*
X77985800Y-67810000D02*
X82860000Y-67810000D01*
X94500000Y-69500000D02*
X95150000Y-68850000D01*
X145572500Y-67472500D02*
X145300000Y-67200000D01*
X145597500Y-64975000D02*
X145572500Y-65000000D01*
X145572500Y-55472500D02*
X145300000Y-55200000D01*
X145572500Y-74000000D02*
X145572500Y-73472500D01*
X145597500Y-52975000D02*
X145572500Y-53000000D01*
%TO.N,/LED Matrix/MAT_CF*%
X148572500Y-55472500D02*
X148300000Y-55200000D01*
X148572500Y-65000000D02*
X148572500Y-64472500D01*
X148572500Y-59000000D02*
X148572500Y-58472500D01*
X148572500Y-61472500D02*
X148300000Y-61200000D01*
X148572500Y-58472500D02*
X148300000Y-58200000D01*
X148572500Y-52472500D02*
X148300000Y-52200000D01*
X148572500Y-68000000D02*
X148572500Y-67472500D01*
X148572500Y-62000000D02*
X148572500Y-61472500D01*
X148572500Y-56000000D02*
X148572500Y-55472500D01*
X148572500Y-74000000D02*
X148572500Y-73472500D01*
X148572500Y-64472500D02*
X148300000Y-64200000D01*
X149097500Y-49000000D02*
X149097500Y-47997500D01*
X148597500Y-55975000D02*
X148572500Y-56000000D01*
X148597500Y-64975000D02*
X148572500Y-65000000D01*
X148572500Y-70472500D02*
X148300000Y-70200000D01*
X149097500Y-47997500D02*
X149000000Y-47900000D01*
X148597500Y-67975000D02*
X148572500Y-68000000D01*
X148572500Y-71000000D02*
X148572500Y-70472500D01*
X148597500Y-52975000D02*
X148572500Y-53000000D01*
X148597500Y-61975000D02*
X148572500Y-62000000D01*
X148572500Y-73472500D02*
X148300000Y-73200000D01*
X148572500Y-53000000D02*
X148572500Y-52472500D01*
X148597500Y-70975000D02*
X148572500Y-71000000D01*
X148572500Y-67472500D02*
X148300000Y-67200000D01*
X148597500Y-58975000D02*
X148572500Y-59000000D01*
X148597500Y-73975000D02*
X148572500Y-74000000D01*
%TO.N,/LED Matrix/MAT_CG*%
X151572500Y-65000000D02*
X151572500Y-64472500D01*
X151597500Y-70975000D02*
X151572500Y-71000000D01*
X151572500Y-52472500D02*
X151300000Y-52200000D01*
X151572500Y-59000000D02*
X151572500Y-58472500D01*
X151572500Y-58472500D02*
X151300000Y-58200000D01*
X151572500Y-68000000D02*
X151572500Y-67472500D01*
X151572500Y-55472500D02*
X151300000Y-55200000D01*
X151597500Y-52975000D02*
X151572500Y-53000000D01*
X152097500Y-48102500D02*
X152300000Y-47900000D01*
X151572500Y-56000000D02*
X151572500Y-55472500D01*
X151597500Y-55975000D02*
X151572500Y-56000000D01*
X151572500Y-62000000D02*
X151572500Y-61472500D01*
X151572500Y-61472500D02*
X151300000Y-61200000D01*
X151572500Y-73472500D02*
X151300000Y-73200000D01*
X151572500Y-67472500D02*
X151300000Y-67200000D01*
X151572500Y-70472500D02*
X151300000Y-70200000D01*
X151597500Y-58975000D02*
X151572500Y-59000000D01*
X151597500Y-67975000D02*
X151572500Y-68000000D01*
X151597500Y-61975000D02*
X151572500Y-62000000D01*
X151597500Y-73975000D02*
X151572500Y-74000000D01*
X151572500Y-74000000D02*
X151572500Y-73472500D01*
X151572500Y-64472500D02*
X151300000Y-64200000D01*
X151572500Y-53000000D02*
X151572500Y-52472500D01*
X151597500Y-64975000D02*
X151572500Y-65000000D01*
X152097500Y-49000000D02*
X152097500Y-48102500D01*
X151572500Y-71000000D02*
X151572500Y-70472500D01*
%TO.N,/LED Matrix/MAT_CH*%
X154572500Y-53000000D02*
X154572500Y-52472500D01*
X154572500Y-73472500D02*
X154300000Y-73200000D01*
X154597500Y-70975000D02*
X154572500Y-71000000D01*
X154572500Y-74000000D02*
X154572500Y-73472500D01*
X154572500Y-67472500D02*
X154300000Y-67200000D01*
X154572500Y-68000000D02*
X154572500Y-67472500D01*
X154597500Y-58975000D02*
X154572500Y-59000000D01*
X154572500Y-65000000D02*
X154572500Y-64472500D01*
X154572500Y-58472500D02*
X154300000Y-58200000D01*
X155097500Y-52475000D02*
X154572500Y-53000000D01*
X154597500Y-73975000D02*
X154572500Y-74000000D01*
X154572500Y-70472500D02*
X154300000Y-70200000D01*
X154597500Y-55975000D02*
X154572500Y-56000000D01*
X155097500Y-49000000D02*
X155097500Y-52475000D01*
X154597500Y-64975000D02*
X154572500Y-65000000D01*
X154572500Y-59000000D02*
X154572500Y-58472500D01*
X154572500Y-64472500D02*
X154300000Y-64200000D01*
X154572500Y-52472500D02*
X154300000Y-52200000D01*
X154597500Y-61975000D02*
X154572500Y-62000000D01*
X154572500Y-56000000D02*
X154572500Y-55472500D01*
X154572500Y-55472500D02*
X154300000Y-55200000D01*
X154572500Y-61472500D02*
X154300000Y-61200000D01*
X154572500Y-71000000D02*
X154572500Y-70472500D01*
X154572500Y-62000000D02*
X154572500Y-61472500D01*
X154597500Y-67975000D02*
X154572500Y-68000000D01*
%TO.N,/LED Matrix/MAT_RB*%
X144427500Y-56730548D02*
X144400000Y-56758048D01*
X141427500Y-56730548D02*
X141400000Y-56758048D01*
X144427500Y-56000000D02*
X144427500Y-56730548D01*
X138427500Y-56000000D02*
X138427500Y-56730548D01*
X132427500Y-56000000D02*
X132427500Y-56427500D01*
X104000000Y-72000000D02*
X104000000Y-60900000D01*
X132427500Y-56427500D02*
X132758048Y-56758048D01*
X150400000Y-56758048D02*
X153241952Y-56758048D01*
X153427500Y-56572500D02*
X153427500Y-56000000D01*
X144400000Y-56758048D02*
X147400000Y-56758048D01*
X150427500Y-56730548D02*
X150400000Y-56758048D01*
X135437500Y-47437500D02*
X135100000Y-47100000D01*
X153241952Y-56758048D02*
X153427500Y-56572500D01*
X135407351Y-56700000D02*
X135400000Y-56700000D01*
X135427500Y-56672500D02*
X135427500Y-56000000D01*
X135465399Y-56758048D02*
X138400000Y-56758048D01*
X147400000Y-56758048D02*
X150400000Y-56758048D01*
X150427500Y-56000000D02*
X150427500Y-56730548D01*
X141427500Y-56000000D02*
X141427500Y-56730548D01*
X138400000Y-56758048D02*
X141400000Y-56758048D01*
X103290000Y-60190000D02*
X104000000Y-60900000D01*
X135465399Y-56758048D02*
X135407351Y-56700000D01*
X147427500Y-56000000D02*
X147427500Y-56730548D01*
X147427500Y-56730548D02*
X147400000Y-56758048D01*
X141400000Y-56758048D02*
X144400000Y-56758048D01*
X132758048Y-56758048D02*
X135465399Y-56758048D01*
X103350000Y-72650000D02*
X104000000Y-72000000D01*
X102014200Y-60190000D02*
X103290000Y-60190000D01*
X135400000Y-56700000D02*
X135427500Y-56672500D01*
X136000000Y-47437500D02*
X135437500Y-47437500D01*
X138427500Y-56730548D02*
X138400000Y-56758048D01*
%TO.N,/LED Matrix/MAT_RC*%
X153427500Y-59472500D02*
X153427500Y-59000000D01*
X144427500Y-59000000D02*
X144427500Y-59627500D01*
X144500000Y-59700000D02*
X147250000Y-59700000D01*
X144250000Y-59700000D02*
X144500000Y-59700000D01*
X135400000Y-59700000D02*
X138400000Y-59700000D01*
X132700000Y-59700000D02*
X135400000Y-59700000D01*
X138427500Y-59672500D02*
X138400000Y-59700000D01*
X147427500Y-59000000D02*
X147427500Y-59627500D01*
X135427500Y-59672500D02*
X135400000Y-59700000D01*
X141427500Y-59000000D02*
X141427500Y-59672500D01*
X135427500Y-59000000D02*
X135427500Y-59672500D01*
X141427500Y-59672500D02*
X141400000Y-59700000D01*
X147250000Y-59700000D02*
X147500000Y-59700000D01*
X85960000Y-72890000D02*
X88650000Y-70200000D01*
X132427500Y-59000000D02*
X132427500Y-59427500D01*
X77985800Y-72890000D02*
X85960000Y-72890000D01*
X138600000Y-59700000D02*
X141400000Y-59700000D01*
X88650000Y-70200000D02*
X98100000Y-70200000D01*
X153200000Y-59700000D02*
X153427500Y-59472500D01*
X139500000Y-47437500D02*
X138837500Y-47437500D01*
X147500000Y-59700000D02*
X150500000Y-59700000D01*
X141400000Y-59700000D02*
X144250000Y-59700000D01*
X98100000Y-70200000D02*
X98450000Y-70550000D01*
X144427500Y-59627500D02*
X144500000Y-59700000D01*
X147427500Y-59627500D02*
X147500000Y-59700000D01*
X138427500Y-59000000D02*
X138427500Y-59672500D01*
X138400000Y-59700000D02*
X138600000Y-59700000D01*
X150500000Y-59700000D02*
X153200000Y-59700000D01*
X150427500Y-59627500D02*
X150500000Y-59700000D01*
X138600000Y-59700000D02*
X138600000Y-60000000D01*
X132427500Y-59427500D02*
X132700000Y-59700000D01*
X150427500Y-59000000D02*
X150427500Y-59627500D01*
X138837500Y-47437500D02*
X138500000Y-47100000D01*
%TO.N,/LED Matrix/MAT_RD*%
X142337500Y-47437500D02*
X141900000Y-47000000D01*
X147427500Y-62000000D02*
X147427500Y-62627500D01*
X144427500Y-62000000D02*
X144427500Y-62627500D01*
X153427500Y-62572500D02*
X153300000Y-62700000D01*
X135500000Y-62700000D02*
X132600000Y-62700000D01*
X100250000Y-69450000D02*
X101200000Y-69450000D01*
X101200000Y-69450000D02*
X101600000Y-69050000D01*
X150500000Y-62700000D02*
X147500000Y-62700000D01*
X144427500Y-62627500D02*
X144500000Y-62700000D01*
X143000000Y-47437500D02*
X142337500Y-47437500D01*
X132600000Y-62700000D02*
X132427500Y-62527500D01*
X141600000Y-62700000D02*
X141500000Y-62700000D01*
X132427500Y-62527500D02*
X132427500Y-62000000D01*
X141600000Y-62700000D02*
X141600000Y-63000000D01*
X138427500Y-62627500D02*
X138500000Y-62700000D01*
X101600000Y-69050000D02*
X102650000Y-69050000D01*
X103050000Y-68650000D02*
X103050000Y-66305800D01*
X141427500Y-62000000D02*
X141427500Y-62627500D01*
X102650000Y-69050000D02*
X103050000Y-68650000D01*
X147427500Y-62627500D02*
X147500000Y-62700000D01*
X138427500Y-62000000D02*
X138427500Y-62627500D01*
X153427500Y-62000000D02*
X153427500Y-62572500D01*
X103050000Y-66305800D02*
X102014200Y-65270000D01*
X150427500Y-62000000D02*
X150427500Y-62627500D01*
X138250000Y-62700000D02*
X135500000Y-62700000D01*
X147500000Y-62700000D02*
X144500000Y-62700000D01*
X138500000Y-62700000D02*
X138250000Y-62700000D01*
X135427500Y-62627500D02*
X135500000Y-62700000D01*
X144500000Y-62700000D02*
X144250000Y-62700000D01*
X141427500Y-62627500D02*
X141500000Y-62700000D01*
X141500000Y-62700000D02*
X138500000Y-62700000D01*
X153300000Y-62700000D02*
X150500000Y-62700000D01*
X135427500Y-62000000D02*
X135427500Y-62627500D01*
X150427500Y-62627500D02*
X150500000Y-62700000D01*
X144250000Y-62700000D02*
X141600000Y-62700000D01*
%TO.N,/LED Matrix/MAT_RE*%
X144500000Y-65700000D02*
X144600000Y-65700000D01*
X99250000Y-55100000D02*
X100225000Y-56075000D01*
X146500000Y-47437500D02*
X145837500Y-47437500D01*
X99240000Y-55110000D02*
X99250000Y-55100000D01*
X150427500Y-65672500D02*
X150400000Y-65700000D01*
X138427500Y-65627500D02*
X138500000Y-65700000D01*
X141427500Y-65627500D02*
X141500000Y-65700000D01*
X145837500Y-47437500D02*
X145400000Y-47000000D01*
X100150000Y-68450000D02*
X100900000Y-67700000D01*
X132427500Y-65627500D02*
X132500000Y-65700000D01*
X100900000Y-66500000D02*
X100300000Y-65900000D01*
X138500000Y-65700000D02*
X141500000Y-65700000D01*
X150400000Y-65700000D02*
X153200000Y-65700000D01*
X135427500Y-65627500D02*
X135500000Y-65700000D01*
X144600000Y-65700000D02*
X144600000Y-66000000D01*
X147400000Y-65700000D02*
X150400000Y-65700000D01*
X132500000Y-65700000D02*
X135500000Y-65700000D01*
X77985800Y-55110000D02*
X99240000Y-55110000D01*
X141427500Y-65000000D02*
X141427500Y-65627500D01*
X100300000Y-56150000D02*
X100225000Y-56075000D01*
X144427500Y-65627500D02*
X144500000Y-65700000D01*
X144600000Y-65700000D02*
X147400000Y-65700000D01*
X100900000Y-67700000D02*
X100900000Y-66500000D01*
X141500000Y-65700000D02*
X144500000Y-65700000D01*
X147427500Y-65672500D02*
X147400000Y-65700000D01*
X144427500Y-65000000D02*
X144427500Y-65627500D01*
X150427500Y-65000000D02*
X150427500Y-65672500D01*
X135427500Y-65000000D02*
X135427500Y-65627500D01*
X147427500Y-65000000D02*
X147427500Y-65672500D01*
X132427500Y-65000000D02*
X132427500Y-65627500D01*
X153427500Y-65472500D02*
X153427500Y-65000000D01*
X153200000Y-65700000D02*
X153427500Y-65472500D01*
X100300000Y-65900000D02*
X100300000Y-56150000D01*
X135500000Y-65700000D02*
X138500000Y-65700000D01*
X138427500Y-65000000D02*
X138427500Y-65627500D01*
%TO.N,/LED Matrix/MAT_RF*%
X141427500Y-68672500D02*
X141400000Y-68700000D01*
X147400000Y-68700000D02*
X147600000Y-68700000D01*
X85650000Y-70350000D02*
X77985800Y-70350000D01*
X150427500Y-68672500D02*
X150400000Y-68700000D01*
X150427500Y-68000000D02*
X150427500Y-68672500D01*
X144427500Y-68672500D02*
X144400000Y-68700000D01*
X141427500Y-68000000D02*
X141427500Y-68672500D01*
X138427500Y-68672500D02*
X138400000Y-68700000D01*
X149338655Y-47437500D02*
X148901155Y-47000000D01*
X95950000Y-69500000D02*
X95600000Y-69850000D01*
X138427500Y-68000000D02*
X138427500Y-68672500D01*
X147427500Y-68000000D02*
X147427500Y-68672500D01*
X135427500Y-68672500D02*
X135400000Y-68700000D01*
X138400000Y-68700000D02*
X141400000Y-68700000D01*
X141400000Y-68700000D02*
X144400000Y-68700000D01*
X147427500Y-68672500D02*
X147400000Y-68700000D01*
X86150000Y-69850000D02*
X85650000Y-70350000D01*
X144400000Y-68700000D02*
X147400000Y-68700000D01*
X153427500Y-68472500D02*
X153427500Y-68000000D01*
X135400000Y-68700000D02*
X138400000Y-68700000D01*
X147600000Y-68700000D02*
X150400000Y-68700000D01*
X95600000Y-69850000D02*
X86150000Y-69850000D01*
X132427500Y-68527500D02*
X132600000Y-68700000D01*
X147600000Y-68700000D02*
X147600000Y-69000000D01*
X153200000Y-68700000D02*
X153427500Y-68472500D01*
X148901155Y-47000000D02*
X148600000Y-47000000D01*
X132600000Y-68700000D02*
X135400000Y-68700000D01*
X150000000Y-47437500D02*
X149338655Y-47437500D01*
X135427500Y-68000000D02*
X135427500Y-68672500D01*
X132427500Y-68000000D02*
X132427500Y-68527500D01*
X150400000Y-68700000D02*
X153200000Y-68700000D01*
X144427500Y-68000000D02*
X144427500Y-68672500D01*
%TO.N,/LED Matrix/MAT_RG*%
X144400000Y-71700000D02*
X147400000Y-71700000D01*
X141427500Y-71000000D02*
X141427500Y-71627500D01*
X152900000Y-47500000D02*
X152400000Y-47000000D01*
X147400000Y-71700000D02*
X150400000Y-71700000D01*
X141427500Y-71627500D02*
X141500000Y-71700000D01*
X150600000Y-71700000D02*
X153300000Y-71700000D01*
X153437500Y-47500000D02*
X152900000Y-47500000D01*
X153427500Y-71572500D02*
X153427500Y-71000000D01*
X132600000Y-71700000D02*
X135500000Y-71700000D01*
X150400000Y-71700000D02*
X150600000Y-71700000D01*
X135427500Y-71627500D02*
X135500000Y-71700000D01*
X132427500Y-71000000D02*
X132427500Y-71527500D01*
X150600000Y-71700000D02*
X150600000Y-72000000D01*
X147427500Y-71000000D02*
X147427500Y-71672500D01*
X99950000Y-60500000D02*
X97100000Y-57650000D01*
X138427500Y-71000000D02*
X138427500Y-71627500D01*
X153500000Y-47437500D02*
X153437500Y-47500000D01*
X99950000Y-66750000D02*
X99950000Y-60500000D01*
X141500000Y-71700000D02*
X144400000Y-71700000D01*
X138427500Y-71627500D02*
X138500000Y-71700000D01*
X144427500Y-71000000D02*
X144427500Y-71672500D01*
X150427500Y-71672500D02*
X150400000Y-71700000D01*
X135500000Y-71700000D02*
X138500000Y-71700000D01*
X138500000Y-71700000D02*
X141500000Y-71700000D01*
X97100000Y-57650000D02*
X96600000Y-57650000D01*
X144427500Y-71672500D02*
X144400000Y-71700000D01*
X147427500Y-71672500D02*
X147400000Y-71700000D01*
X100300000Y-67100000D02*
X99950000Y-66750000D01*
X150427500Y-71000000D02*
X150427500Y-71672500D01*
X96600000Y-57650000D02*
X77985800Y-57650000D01*
X135427500Y-71000000D02*
X135427500Y-71627500D01*
X132427500Y-71527500D02*
X132600000Y-71700000D01*
X153300000Y-71700000D02*
X153427500Y-71572500D01*
%TO.N,/LED Matrix/MAT_RH*%
X141500000Y-74700000D02*
X144500000Y-74700000D01*
X153427500Y-74472500D02*
X153427500Y-74000000D01*
X141427500Y-74000000D02*
X141427500Y-74627500D01*
X144500000Y-74700000D02*
X147500000Y-74700000D01*
X150427500Y-74627500D02*
X150500000Y-74700000D01*
X153500000Y-75000000D02*
X153600000Y-75000000D01*
X82870000Y-65270000D02*
X86700000Y-69100000D01*
X135427500Y-74000000D02*
X135427500Y-74627500D01*
X144427500Y-74627500D02*
X144500000Y-74700000D01*
X154437500Y-42937500D02*
X155100000Y-43600000D01*
X150427500Y-74000000D02*
X150427500Y-74627500D01*
X141427500Y-74627500D02*
X141500000Y-74700000D01*
X86700000Y-69100000D02*
X93400000Y-69100000D01*
X77985800Y-65270000D02*
X82870000Y-65270000D01*
X150500000Y-74700000D02*
X153200000Y-74700000D01*
X153200000Y-74700000D02*
X153427500Y-74472500D01*
X93400000Y-69100000D02*
X93750000Y-68750000D01*
X147427500Y-74627500D02*
X147500000Y-74700000D01*
X132427500Y-74527500D02*
X132600000Y-74700000D01*
X147427500Y-74000000D02*
X147427500Y-74627500D01*
X135500000Y-74700000D02*
X138500000Y-74700000D01*
X138500000Y-74700000D02*
X141500000Y-74700000D01*
X138427500Y-74000000D02*
X138427500Y-74627500D01*
X153200000Y-74700000D02*
X153500000Y-75000000D01*
X154437500Y-42500000D02*
X154437500Y-42937500D01*
X144427500Y-74000000D02*
X144427500Y-74627500D01*
X147500000Y-74700000D02*
X150500000Y-74700000D01*
X138427500Y-74627500D02*
X138500000Y-74700000D01*
X132600000Y-74700000D02*
X135500000Y-74700000D01*
X135427500Y-74627500D02*
X135500000Y-74700000D01*
X132427500Y-74000000D02*
X132427500Y-74527500D01*
%TO.N,/MCU/PA14*%
X113087500Y-45587500D02*
X114287500Y-45587500D01*
X113900000Y-57000000D02*
X113900000Y-57100000D01*
X111700000Y-53200000D02*
X111700000Y-54800000D01*
X114600000Y-60800000D02*
X114400000Y-60600000D01*
X117660000Y-61400000D02*
X116400000Y-61400000D01*
X114400000Y-59700000D02*
X113900000Y-59200000D01*
X116100000Y-61400000D02*
X115600000Y-60900000D01*
X116400000Y-61400000D02*
X116300000Y-61400000D01*
X116400000Y-61400000D02*
X116100000Y-61400000D01*
X114800000Y-60800000D02*
X114600000Y-60800000D01*
X115500000Y-60800000D02*
X114800000Y-60800000D01*
X115600000Y-60900000D02*
X115500000Y-60800000D01*
X111700000Y-54800000D02*
X113900000Y-57000000D01*
X113900000Y-59200000D02*
X113900000Y-57100000D01*
X114287500Y-45587500D02*
X114400000Y-45700000D01*
X119260000Y-63000000D02*
X117660000Y-61400000D01*
X114400000Y-60600000D02*
X114400000Y-59700000D01*
%TO.N,/MCU/PA13*%
X113500000Y-57100000D02*
X113500000Y-59500000D01*
X115500000Y-44912499D02*
X116087501Y-45500000D01*
X111000000Y-52700000D02*
X111000000Y-54600000D01*
X116800000Y-45500000D02*
X116900000Y-45600000D01*
X114500000Y-61300000D02*
X115020000Y-61300000D01*
X111000000Y-54600000D02*
X113500000Y-57100000D01*
X114000000Y-60000000D02*
X114000000Y-60800000D01*
X115500000Y-44175000D02*
X115500000Y-44912499D01*
X114000000Y-60800000D02*
X114500000Y-61300000D01*
X115020000Y-61300000D02*
X116720000Y-63000000D01*
X113500000Y-59500000D02*
X114000000Y-60000000D01*
X111500000Y-52200000D02*
X111000000Y-52700000D01*
X116087501Y-45500000D02*
X116800000Y-45500000D01*
%TO.N,/MCU/PA0*%
X129800000Y-53300000D02*
X129800000Y-74100000D01*
X119400000Y-150900000D02*
X107097500Y-150900000D01*
X125900000Y-153700000D02*
X122200000Y-153700000D01*
X129800000Y-53300000D02*
X124000000Y-53300000D01*
X154300000Y-144300000D02*
X140400000Y-158200000D01*
X119600000Y-54100000D02*
X120400000Y-54100000D01*
X120400000Y-54100000D02*
X122000000Y-52500000D01*
X132100000Y-77100000D02*
X133500000Y-77100000D01*
X129800000Y-74800000D02*
X131500000Y-76500000D01*
X133500000Y-77100000D02*
X154300000Y-77100000D01*
X126800000Y-154600000D02*
X125900000Y-153700000D01*
X154300000Y-113100000D02*
X154300000Y-144300000D01*
X154300000Y-77200000D02*
X154300000Y-113100000D01*
X154300000Y-77100000D02*
X154300000Y-77200000D01*
X123200000Y-52500000D02*
X124000000Y-53300000D01*
X136400000Y-158200000D02*
X132800000Y-154600000D01*
X122200000Y-153700000D02*
X119400000Y-150900000D01*
X119000000Y-52500000D02*
X119000000Y-53500000D01*
X140400000Y-158200000D02*
X136400000Y-158200000D01*
X154300000Y-113100000D02*
X154300000Y-113200000D01*
X122000000Y-52500000D02*
X123200000Y-52500000D01*
X132800000Y-154600000D02*
X126800000Y-154600000D01*
X129800000Y-74100000D02*
X129800000Y-74800000D01*
X131500000Y-76500000D02*
X132100000Y-77100000D01*
X119000000Y-53500000D02*
X119600000Y-54100000D01*
%TO.N,/MCU/PA1*%
X132500000Y-155000000D02*
X117200000Y-155000000D01*
X123300000Y-52100000D02*
X124100000Y-52900000D01*
D54*
X115400000Y-156197500D02*
X115400000Y-156800000D01*
D56*
X124100000Y-52900000D02*
X130100000Y-52900000D01*
X154700000Y-144400000D02*
X140500000Y-158600000D01*
X130200000Y-74700000D02*
X132200000Y-76700000D01*
X115400000Y-156197500D02*
X116002500Y-156197500D01*
X140500000Y-158600000D02*
X136100000Y-158600000D01*
X130200000Y-53000000D02*
X130200000Y-74700000D01*
X119800000Y-53700000D02*
X120200000Y-53700000D01*
X121800000Y-52100000D02*
X123300000Y-52100000D01*
X132200000Y-76700000D02*
X154700000Y-76700000D01*
X130100000Y-52900000D02*
X130200000Y-53000000D01*
X116002500Y-156197500D02*
X117200000Y-155000000D01*
X136100000Y-158600000D02*
X132500000Y-155000000D01*
X119500000Y-53400000D02*
X119800000Y-53700000D01*
X154700000Y-76700000D02*
X154700000Y-144400000D01*
X120200000Y-53700000D02*
X121800000Y-52100000D01*
D54*
X115400000Y-156800000D02*
X115400000Y-157402500D01*
D56*
X119500000Y-52500000D02*
X119500000Y-53400000D01*
%TO.N,/MCU/PA2*%
X132000000Y-155700000D02*
X131800000Y-155700000D01*
X130600000Y-74600000D02*
X132300000Y-76300000D01*
X155100000Y-76520084D02*
X155100000Y-144600000D01*
X132300000Y-76300000D02*
X154879916Y-76300000D01*
X135300000Y-159000000D02*
X132100000Y-155800000D01*
X155100000Y-144600000D02*
X140700000Y-159000000D01*
X132100000Y-155800000D02*
X132000000Y-155700000D01*
X130400000Y-52500000D02*
X130600000Y-52700000D01*
X124400000Y-52500000D02*
X130400000Y-52500000D01*
X87000000Y-156000000D02*
X87100000Y-155900000D01*
X120000000Y-52500000D02*
X120800000Y-51700000D01*
X120800000Y-51700000D02*
X123600000Y-51700000D01*
X130600000Y-52700000D02*
X130600000Y-74600000D01*
X123600000Y-51700000D02*
X124400000Y-52500000D01*
X140700000Y-159000000D02*
X135300000Y-159000000D01*
X87000000Y-156902500D02*
X87000000Y-156000000D01*
X154879916Y-76300000D02*
X155100000Y-76520084D01*
D54*
%TO.N,Net-(J4-Pin_2)*%
X87700000Y-159300000D02*
X87700000Y-158797500D01*
X87000000Y-158097500D02*
X88500000Y-158097500D01*
X87700000Y-158797500D02*
X87000000Y-158097500D01*
D56*
%TO.N,/MCU/PA4*%
X153902500Y-49000000D02*
X153902500Y-50097500D01*
X124837771Y-51637771D02*
X152362229Y-51637771D01*
X123787500Y-50587500D02*
X121412500Y-50587500D01*
X153902500Y-50097500D02*
X152362229Y-51637771D01*
X124837771Y-51637771D02*
X123787500Y-50587500D01*
%TO.N,/MCU/PA5*%
X123887500Y-50087500D02*
X121412500Y-50087500D01*
X125064711Y-51264711D02*
X123887500Y-50087500D01*
X125064711Y-51264711D02*
X149735289Y-51264711D01*
X150902500Y-50097500D02*
X149735289Y-51264711D01*
X150902500Y-49000000D02*
X150902500Y-50097500D01*
%TO.N,/MCU/PA6*%
X147902500Y-49000000D02*
X145972900Y-50929600D01*
X125429600Y-50929600D02*
X124087500Y-49587500D01*
X124087500Y-49587500D02*
X121412500Y-49587500D01*
X145972900Y-50929600D02*
X125429600Y-50929600D01*
%TO.N,/MCU/PA7*%
X121412500Y-49087500D02*
X124287500Y-49087500D01*
X144302500Y-49600000D02*
X144302500Y-49000000D01*
X125797200Y-50597200D02*
X143305300Y-50597200D01*
X143305300Y-50597200D02*
X144302500Y-49600000D01*
X124287500Y-49087500D02*
X125797200Y-50597200D01*
%TO.N,/MCU/PA10*%
X118600000Y-39600000D02*
X134100000Y-39600000D01*
X135000000Y-30300000D02*
X136500000Y-30300000D01*
X148600000Y-30300000D02*
X136800000Y-30300000D01*
X149045000Y-30745000D02*
X148600000Y-30300000D01*
X149045000Y-32500000D02*
X149045000Y-30745000D01*
X135000000Y-38700000D02*
X135000000Y-34800000D01*
X117000000Y-41200000D02*
X118600000Y-39600000D01*
X134400000Y-30900000D02*
X135000000Y-30300000D01*
X117000000Y-41500000D02*
X117000000Y-44175000D01*
X136800000Y-30300000D02*
X136500000Y-30300000D01*
X134100000Y-39600000D02*
X135000000Y-38700000D01*
X117000000Y-41500000D02*
X117000000Y-41200000D01*
X134400000Y-34200000D02*
X134400000Y-30900000D01*
X136500000Y-31802500D02*
X136500000Y-30300000D01*
X135000000Y-34800000D02*
X134400000Y-34200000D01*
%TO.N,/MCU/PA11*%
X116500000Y-40600000D02*
X118000000Y-39100000D01*
X123352500Y-39100000D02*
X124602500Y-37850000D01*
X116500000Y-44175000D02*
X116500000Y-40600000D01*
X118000000Y-39100000D02*
X123352500Y-39100000D01*
D54*
%TO.N,/MCU/PA12*%
X122352500Y-36800000D02*
X122300000Y-36852500D01*
X124602500Y-36800000D02*
X122352500Y-36800000D01*
D56*
X119742400Y-36757600D02*
X122205100Y-36757600D01*
X116000000Y-40500000D02*
X119742400Y-36757600D01*
X122205100Y-36757600D02*
X122300000Y-36852500D01*
X116000000Y-44175000D02*
X116000000Y-40500000D01*
%TO.N,/MCU/PA15*%
X107800000Y-76300000D02*
X106800000Y-77300000D01*
X113087500Y-46087500D02*
X108012500Y-46087500D01*
D54*
X101402600Y-141250001D02*
X110597400Y-141250001D01*
D56*
X102600000Y-143100000D02*
X101402600Y-141902600D01*
X107800000Y-46300000D02*
X107800000Y-76300000D01*
X108012500Y-46087500D02*
X107800000Y-46300000D01*
X101402600Y-141902600D02*
X101402600Y-141250001D01*
%TO.N,/LED Matrix/Y7D*%
X136797500Y-43002500D02*
X137300000Y-42500000D01*
X136500000Y-32997500D02*
X136500000Y-33600000D01*
X137300000Y-42500000D02*
X137800000Y-42500000D01*
X137090000Y-41110000D02*
X137000000Y-41200000D01*
X133450000Y-44550000D02*
X133450000Y-45562500D01*
X136797500Y-43600000D02*
X136797500Y-43002500D01*
X137090000Y-34190000D02*
X137090000Y-41110000D01*
X136500000Y-44300000D02*
X133700000Y-44300000D01*
X136797500Y-43600000D02*
X136797500Y-44002500D01*
X133700000Y-44300000D02*
X133450000Y-44550000D01*
X136797500Y-44002500D02*
X136500000Y-44300000D01*
X136500000Y-33600000D02*
X137090000Y-34190000D01*
%TO.N,/LED Matrix/Y6D*%
X136950000Y-45562500D02*
X138112500Y-44400000D01*
X137600000Y-32997500D02*
X137600000Y-33600000D01*
X140800000Y-41500000D02*
X140800000Y-41400000D01*
X139297500Y-43600000D02*
X139297500Y-43002500D01*
X140500000Y-41800000D02*
X140800000Y-41500000D01*
X137600000Y-33600000D02*
X138000000Y-34000000D01*
X138112500Y-44400000D02*
X138600000Y-44400000D01*
X139297500Y-43600000D02*
X139297500Y-43902500D01*
X137500000Y-39700000D02*
X137500000Y-40600000D01*
X138000000Y-39200000D02*
X137500000Y-39700000D01*
X139297500Y-43902500D02*
X138900000Y-44300000D01*
X139297500Y-43002500D02*
X140500000Y-41800000D01*
X138000000Y-34000000D02*
X138000000Y-39200000D01*
X137500000Y-40600000D02*
X137900000Y-41000000D01*
X138800000Y-44400000D02*
X138600000Y-44400000D01*
X138900000Y-44300000D02*
X138800000Y-44400000D01*
%TO.N,/LED Matrix/Y5D*%
X141797500Y-41502500D02*
X142300000Y-41000000D01*
X140450000Y-44650000D02*
X140450000Y-45562500D01*
X141797500Y-44102500D02*
X141600000Y-44300000D01*
X138700000Y-32997500D02*
X138700000Y-39800000D01*
X141600000Y-44300000D02*
X140800000Y-44300000D01*
X141797500Y-43600000D02*
X141797500Y-44102500D01*
X140800000Y-44300000D02*
X140450000Y-44650000D01*
X138700000Y-39800000D02*
X138300000Y-40200000D01*
X141797500Y-43600000D02*
X141797500Y-41502500D01*
%TO.N,/LED Matrix/Y4D*%
X144300000Y-44300000D02*
X144297500Y-44297500D01*
X144297500Y-40697500D02*
X143900000Y-40300000D01*
X143950000Y-44650000D02*
X144300000Y-44300000D01*
X135032400Y-40767600D02*
X119232400Y-40767600D01*
X144297500Y-44297500D02*
X144297500Y-43600000D01*
X144297500Y-43600000D02*
X144297500Y-40697500D01*
X135032400Y-40767600D02*
X136300000Y-39500000D01*
X118500000Y-41500000D02*
X119232400Y-40767600D01*
X136300000Y-39500000D02*
X136400000Y-39400000D01*
X118500000Y-44175000D02*
X118500000Y-41500000D01*
X143950000Y-45562500D02*
X143950000Y-44650000D01*
%TO.N,/LED Matrix/Y3D*%
X146797500Y-42297500D02*
X146600000Y-42100000D01*
X119000000Y-41500000D02*
X119400000Y-41100000D01*
X146797500Y-44497500D02*
X146797500Y-43600000D01*
X147450000Y-45562500D02*
X146800000Y-44912500D01*
X146800000Y-44912500D02*
X146800000Y-44500000D01*
X146797500Y-43600000D02*
X146797500Y-42297500D01*
X119400000Y-41100000D02*
X135500000Y-41100000D01*
X146800000Y-44500000D02*
X146797500Y-44497500D01*
X119000000Y-44175000D02*
X119000000Y-41500000D01*
%TO.N,/LED Matrix/Y2D*%
X119622400Y-41587600D02*
X119500000Y-41710000D01*
X119500000Y-41710000D02*
X119500000Y-44175000D01*
X149297500Y-41997500D02*
X148900000Y-41600000D01*
X149297500Y-43600000D02*
X149297500Y-41997500D01*
X134887600Y-41587600D02*
X119622400Y-41587600D01*
X135200000Y-41900000D02*
X134887600Y-41587600D01*
X149297500Y-43910000D02*
X149297500Y-43600000D01*
X150950000Y-45562500D02*
X149297500Y-43910000D01*
%TO.N,/LED Matrix/Y1D*%
X151300000Y-43200000D02*
X151400000Y-43100000D01*
X120180000Y-41920000D02*
X134020000Y-41920000D01*
X120180000Y-41920000D02*
X120000000Y-42100000D01*
X151400000Y-44400000D02*
X151400000Y-44397500D01*
X120000000Y-42100000D02*
X120000000Y-44175000D01*
X151400000Y-43100000D02*
X151400000Y-41600000D01*
X154450000Y-45562500D02*
X154450000Y-44550000D01*
X154300000Y-44400000D02*
X151400000Y-44400000D01*
X151400000Y-41600000D02*
X151200000Y-41400000D01*
X150600000Y-43597500D02*
X150902500Y-43597500D01*
X151400000Y-44397500D02*
X150600000Y-43597500D01*
X134500000Y-42400000D02*
X134020000Y-41920000D01*
X154450000Y-44550000D02*
X154300000Y-44400000D01*
X150902500Y-43597500D02*
X151300000Y-43200000D01*
%TO.N,/LED Matrix/Y0D*%
X154697500Y-40200000D02*
X154697500Y-41302500D01*
X152562500Y-41182500D02*
X152100000Y-40720000D01*
X124612500Y-46587500D02*
X129687500Y-46587500D01*
X154697500Y-41302500D02*
X154450000Y-41550000D01*
X152562500Y-41550000D02*
X152562500Y-41182500D01*
X124612500Y-46587500D02*
X121412500Y-46587500D01*
X152562500Y-41550000D02*
X154450000Y-41550000D01*
X129687500Y-46587500D02*
X130200000Y-47100000D01*
D54*
%TO.N,/Power/AMS_ADJ*%
X95350000Y-34300000D02*
X94800000Y-34850000D01*
X88000000Y-39195000D02*
X93555000Y-39195000D01*
X93555000Y-39195000D02*
X94500000Y-38250000D01*
X86500000Y-39097500D02*
X86500000Y-39400000D01*
X88000000Y-39195000D02*
X86597500Y-39195000D01*
X86597500Y-39195000D02*
X86500000Y-39097500D01*
X94500000Y-38250000D02*
X94500000Y-37250000D01*
X94800000Y-36950000D02*
X94800000Y-34850000D01*
X94500000Y-37250000D02*
X94800000Y-36950000D01*
D56*
%TO.N,/MCU/PB3*%
X108200000Y-58200000D02*
X108200000Y-77000000D01*
X125600000Y-151447401D02*
X127402600Y-153250001D01*
X108512500Y-46587500D02*
X108300000Y-46800000D01*
X108200000Y-46900000D02*
X108200000Y-48000000D01*
X108200000Y-48000000D02*
X108200000Y-58200000D01*
X113087500Y-46587500D02*
X108512500Y-46587500D01*
X108300000Y-46800000D02*
X108200000Y-46900000D01*
X108200000Y-77000000D02*
X107400000Y-77800000D01*
X125600000Y-151400000D02*
X125600000Y-151447401D01*
X108200000Y-58200000D02*
X108200000Y-58800000D01*
D54*
X127402600Y-153250001D02*
X136597400Y-153250001D01*
D56*
%TO.N,/MCU/PA8*%
X146300000Y-31100000D02*
X139100000Y-31100000D01*
X119000000Y-40400000D02*
X134500000Y-40400000D01*
X146505000Y-32500000D02*
X146505000Y-34295000D01*
X118000000Y-41400000D02*
X119000000Y-40400000D01*
X118000000Y-44175000D02*
X118000000Y-41400000D01*
X146505000Y-34295000D02*
X146500000Y-34300000D01*
X146505000Y-31305000D02*
X146300000Y-31100000D01*
X134500000Y-40400000D02*
X135937600Y-38962400D01*
X146505000Y-32500000D02*
X146505000Y-31305000D01*
X135300000Y-32700000D02*
X135500000Y-32500000D01*
X135937600Y-38962400D02*
X135937600Y-34537600D01*
X138700000Y-31500000D02*
X138700000Y-31802500D01*
X139100000Y-31100000D02*
X138700000Y-31500000D01*
X135937600Y-34537600D02*
X135300000Y-33900000D01*
X135300000Y-33900000D02*
X135300000Y-32700000D01*
%TO.N,Net-(U4-Y0)*%
X147775000Y-39137499D02*
X147775000Y-37500000D01*
X148137501Y-39500000D02*
X147775000Y-39137499D01*
X152802500Y-39500000D02*
X148137501Y-39500000D01*
X153502500Y-40200000D02*
X152802500Y-39500000D01*
%TO.N,Net-(U4-Y1)*%
X150200000Y-40600000D02*
X147600000Y-40600000D01*
X147600000Y-40600000D02*
X146500000Y-39500000D01*
X150600000Y-41000000D02*
X150200000Y-40600000D01*
X150600000Y-42402500D02*
X150600000Y-41000000D01*
X146500000Y-39500000D02*
X146505000Y-39495000D01*
X146505000Y-39495000D02*
X146505000Y-37500000D01*
%TO.N,Net-(U4-Y2)*%
X148102500Y-43600000D02*
X148102500Y-42202500D01*
X148102500Y-42202500D02*
X145235000Y-39335000D01*
X145235000Y-39335000D02*
X145235000Y-37500000D01*
%TO.N,Net-(U4-Y3)*%
X145602500Y-41002500D02*
X145602500Y-43600000D01*
X143965000Y-37500000D02*
X143965000Y-39365000D01*
X143965000Y-39365000D02*
X145602500Y-41002500D01*
%TO.N,Net-(U4-Y4)*%
X143102500Y-39902500D02*
X143102500Y-43600000D01*
X142695000Y-39495000D02*
X143102500Y-39902500D01*
X142695000Y-37500000D02*
X142695000Y-39495000D01*
%TO.N,Net-(U4-Y5)*%
X140602500Y-42497500D02*
X140602500Y-43600000D01*
X141425000Y-37500000D02*
X141425000Y-41675000D01*
X141425000Y-41675000D02*
X140602500Y-42497500D01*
%TO.N,Net-(U4-Y6)*%
X140155000Y-37500000D02*
X140155000Y-41445000D01*
X138102500Y-43497500D02*
X138102500Y-43600000D01*
X140155000Y-41445000D02*
X138102500Y-43497500D01*
%TO.N,/LED Matrix/C_{A}*%
X121412500Y-47087500D02*
X125187500Y-47087500D01*
X125187500Y-47087500D02*
X127100000Y-49000000D01*
X127100000Y-49000000D02*
X132402500Y-49000000D01*
%TO.N,/LED Matrix/C_{B}*%
X135402500Y-49000000D02*
X135402500Y-49497500D01*
X135402500Y-49497500D02*
X135300000Y-49600000D01*
X127050074Y-49600000D02*
X135300000Y-49600000D01*
X125037574Y-47587500D02*
X121412500Y-47587500D01*
X127050074Y-49600000D02*
X125037574Y-47587500D01*
%TO.N,/LED Matrix/C_{C}*%
X126732400Y-49932400D02*
X137470100Y-49932400D01*
X137470100Y-49932400D02*
X138402500Y-49000000D01*
X124887500Y-48087500D02*
X126732400Y-49932400D01*
X121412500Y-48087500D02*
X124887500Y-48087500D01*
%TO.N,/LED Matrix/C_{D}*%
X126264800Y-50264800D02*
X124587500Y-48587500D01*
X141402500Y-49000000D02*
X140137700Y-50264800D01*
X124587500Y-48587500D02*
X121412500Y-48587500D01*
X140137700Y-50264800D02*
X126264800Y-50264800D01*
%TO.N,/MCU/PB4*%
X108812500Y-47087500D02*
X108600000Y-47300000D01*
D54*
X89402600Y-129250001D02*
X98597400Y-129250001D01*
D56*
X104900000Y-129000000D02*
X104649999Y-129250001D01*
X108600000Y-47500000D02*
X108600000Y-58500000D01*
X108600000Y-77900000D02*
X108100000Y-78400000D01*
X108600000Y-58500000D02*
X108600000Y-77900000D01*
X108600000Y-47300000D02*
X108600000Y-47500000D01*
X104649999Y-129250001D02*
X98597400Y-129250001D01*
X113087500Y-47087500D02*
X108812500Y-47087500D01*
X105300000Y-129000000D02*
X104900000Y-129000000D01*
X108600000Y-58500000D02*
X108600000Y-58800000D01*
%TO.N,/MCU/PB5*%
X113300000Y-140300000D02*
X114250001Y-141250001D01*
X109000000Y-78700000D02*
X108700000Y-79000000D01*
D54*
X115402600Y-141250001D02*
X124597400Y-141250001D01*
D56*
X109000000Y-47700000D02*
X109000000Y-78700000D01*
X114250001Y-141250001D02*
X115402600Y-141250001D01*
X109112500Y-47587500D02*
X109000000Y-47700000D01*
X113087500Y-47587500D02*
X109112500Y-47587500D01*
D54*
%TO.N,/MCU/PB6*%
X127402600Y-141250001D02*
X136597400Y-141250001D01*
D56*
X109400000Y-48300000D02*
X109400000Y-49300000D01*
X109612500Y-48087500D02*
X109400000Y-48300000D01*
X109400000Y-49500000D02*
X109400000Y-58800000D01*
X128300000Y-142147401D02*
X127402600Y-141250001D01*
X109400000Y-78800000D02*
X109600000Y-79000000D01*
X109400000Y-58800000D02*
X109400000Y-78800000D01*
X109400000Y-49300000D02*
X109400000Y-49500000D01*
X113087500Y-48087500D02*
X109612500Y-48087500D01*
X128300000Y-142800000D02*
X128300000Y-142147401D01*
%TO.N,/MCU/PB7*%
X109800000Y-48900000D02*
X109800000Y-51400000D01*
X139500000Y-141347401D02*
X139402600Y-141250001D01*
X109800000Y-51600000D02*
X109800000Y-58600000D01*
X109800000Y-58600000D02*
X109800000Y-77900000D01*
X113087500Y-48587500D02*
X110112500Y-48587500D01*
D54*
X139402600Y-141250001D02*
X148597400Y-141250001D01*
D56*
X109800000Y-77900000D02*
X110200000Y-78300000D01*
X109800000Y-58600000D02*
X109800000Y-58800000D01*
X109800000Y-51400000D02*
X109800000Y-51600000D01*
X139500000Y-142600000D02*
X139500000Y-141347401D01*
X110112500Y-48587500D02*
X109800000Y-48900000D01*
%TO.N,Net-(U4-Y7)*%
X138600000Y-41800000D02*
X136300000Y-41800000D01*
X135602500Y-42497500D02*
X135602500Y-43600000D01*
X141425000Y-32500000D02*
X141425000Y-34075000D01*
X139100000Y-36400000D02*
X139100000Y-41300000D01*
X136300000Y-41800000D02*
X135602500Y-42497500D01*
X141425000Y-34075000D02*
X139100000Y-36400000D01*
X139100000Y-41300000D02*
X138600000Y-41800000D01*
%TO.N,Net-(Y1-EN)*%
X119497500Y-60100000D02*
X119497500Y-58677500D01*
X119497500Y-58677500D02*
X119625000Y-58550000D01*
%TO.N,/MCU/PB8*%
X110300000Y-50100000D02*
X110200000Y-50200000D01*
X110812500Y-49587500D02*
X110300000Y-50100000D01*
D54*
X124597400Y-129250001D02*
X115402600Y-129250001D01*
D56*
X110200000Y-77000000D02*
X110900000Y-77700000D01*
X110200000Y-50600000D02*
X110200000Y-58800000D01*
X115402600Y-129250001D02*
X113450001Y-129250001D01*
X113087500Y-49587500D02*
X110812500Y-49587500D01*
X110200000Y-50200000D02*
X110200000Y-50600000D01*
X113450001Y-129250001D02*
X113400000Y-129200000D01*
X110200000Y-58800000D02*
X110200000Y-77000000D01*
%TO.N,/MCU/PB9*%
X110812500Y-50087500D02*
X110600000Y-50300000D01*
X113087500Y-50087500D02*
X110812500Y-50087500D01*
X110600000Y-58800000D02*
X110600000Y-76100000D01*
X137749999Y-129250001D02*
X138700000Y-128300000D01*
X110600000Y-76100000D02*
X111500000Y-77000000D01*
X110600000Y-50300000D02*
X110600000Y-58800000D01*
X136597400Y-129250001D02*
X137749999Y-129250001D01*
D54*
X136597400Y-129250001D02*
X127402600Y-129250001D01*
%TO.N,Net-(J5-Pin_2)*%
X121000000Y-158600000D02*
X121000000Y-158097500D01*
X121300000Y-158900000D02*
X121000000Y-158600000D01*
X126015000Y-157500000D02*
X126015000Y-158485000D01*
X125600000Y-158900000D02*
X121300000Y-158900000D01*
X119500000Y-158097500D02*
X121000000Y-158097500D01*
X126015000Y-158485000D02*
X125600000Y-158900000D01*
D56*
%TO.N,/MCU/PA3*%
X121412500Y-51087500D02*
X123687500Y-51087500D01*
X140900000Y-159400000D02*
X134100000Y-159400000D01*
X120400000Y-155500000D02*
X119500000Y-156400000D01*
X131000000Y-52400000D02*
X131000000Y-74500000D01*
X123687500Y-51087500D02*
X124700000Y-52100000D01*
X119500000Y-156400000D02*
X119500000Y-156902500D01*
X131000000Y-74500000D02*
X132400000Y-75900000D01*
X130200000Y-155500000D02*
X120400000Y-155500000D01*
X124700000Y-52100000D02*
X130700000Y-52100000D01*
X132400000Y-75900000D02*
X154950000Y-75900000D01*
X130700000Y-52100000D02*
X131000000Y-52400000D01*
X134100000Y-159400000D02*
X130200000Y-155500000D01*
X155450000Y-76400000D02*
X155450000Y-144850000D01*
X154950000Y-75900000D02*
X155450000Y-76400000D01*
X155450000Y-144850000D02*
X140900000Y-159400000D01*
%TO.N,/MCU/STM_VBATT*%
X114500000Y-52500000D02*
X114500000Y-53500000D01*
X110500000Y-45100000D02*
X109697500Y-45100000D01*
X114500000Y-53500000D02*
X114000000Y-54000000D01*
X109697500Y-45100000D02*
X109597500Y-45000000D01*
D54*
%TO.N,/MCU/IRD_P*%
X113972500Y-158597500D02*
X113875000Y-158500000D01*
X115400000Y-158597500D02*
X116600000Y-158597500D01*
X115400000Y-158597500D02*
X113972500Y-158597500D01*
%TO.N,/MCU/IRD_N*%
X111912500Y-157412500D02*
X111912500Y-156350000D01*
X110597500Y-158500000D02*
X112125000Y-158500000D01*
X112125000Y-157625000D02*
X111912500Y-157412500D01*
X112125000Y-158500000D02*
X112125000Y-157625000D01*
%TO.N,/MCU/IRDRV_G*%
X113390000Y-155002500D02*
X112862500Y-154475000D01*
X115400000Y-155002500D02*
X113390000Y-155002500D01*
D55*
%TO.N,Net-(J1-Pin_3)*%
X123500000Y-33100000D02*
X125800000Y-33100000D01*
D54*
X126173250Y-36424250D02*
X125797500Y-36800000D01*
X126173250Y-35125000D02*
X126173250Y-36424250D01*
D55*
X114100000Y-35100000D02*
X121500000Y-35100000D01*
X110900000Y-37650000D02*
X112700000Y-35850000D01*
X126173250Y-33473250D02*
X126173250Y-35125000D01*
X104000000Y-35203900D02*
X104000000Y-36400000D01*
X104000000Y-36400000D02*
X105250000Y-37650000D01*
X112700000Y-35850000D02*
X113350000Y-35850000D01*
X105250000Y-37650000D02*
X110900000Y-37650000D01*
X113350000Y-35850000D02*
X114100000Y-35100000D01*
X121500000Y-35100000D02*
X123500000Y-33100000D01*
X125800000Y-33100000D02*
X126173250Y-33473250D01*
D54*
%TO.N,/Power/USB_PADS*%
X107099999Y-33228900D02*
X107800000Y-32528899D01*
D56*
X105200000Y-32528899D02*
X102800000Y-32528899D01*
X105200000Y-32528899D02*
X107800000Y-32528899D01*
D54*
X100900001Y-33228900D02*
X100200000Y-32528899D01*
X100900001Y-35078899D02*
X100900001Y-33228900D01*
X107099999Y-35078899D02*
X107099999Y-33228900D01*
D56*
X100200000Y-32528899D02*
X102800000Y-32528899D01*
D55*
%TO.N,Net-(J1-Pin_2)*%
X104649999Y-35203900D02*
X104649999Y-36449999D01*
X126823250Y-35125000D02*
X126823250Y-33323250D01*
X105100000Y-36900000D02*
X105400000Y-37200000D01*
X105400000Y-37200000D02*
X108500000Y-37200000D01*
D54*
X126823250Y-36824250D02*
X125797500Y-37850000D01*
D55*
X108500000Y-37200000D02*
X110700000Y-37200000D01*
X104649999Y-36449999D02*
X105100000Y-36900000D01*
X112800000Y-35100000D02*
X113300000Y-35100000D01*
X112500000Y-35400000D02*
X112800000Y-35100000D01*
X110700000Y-37200000D02*
X112500000Y-35400000D01*
D54*
X126823250Y-35125000D02*
X126823250Y-36824250D01*
D55*
X126823250Y-33323250D02*
X126800000Y-33300000D01*
%TD*%
%TA.AperFunction,Conductor*%
%TO.N,/Power/USB_PADS*%
G36*
X98855238Y-31095185D02*
G01*
X98900993Y-31147989D01*
X98910937Y-31217147D01*
X98887465Y-31273811D01*
X98804149Y-31385105D01*
X98804145Y-31385112D01*
X98753903Y-31519819D01*
X98753901Y-31519826D01*
X98747500Y-31579354D01*
X98747500Y-31878899D01*
X109252500Y-31878899D01*
X109252500Y-31579371D01*
X109252499Y-31579354D01*
X109246098Y-31519826D01*
X109246096Y-31519819D01*
X109195854Y-31385112D01*
X109195850Y-31385105D01*
X109112535Y-31273811D01*
X109088117Y-31208347D01*
X109102968Y-31140074D01*
X109152373Y-31090668D01*
X109211801Y-31075500D01*
X109876000Y-31075500D01*
X109943039Y-31095185D01*
X109988794Y-31147989D01*
X110000000Y-31199500D01*
X110000000Y-35750500D01*
X109980315Y-35817539D01*
X109927511Y-35863294D01*
X109876000Y-35874500D01*
X108524099Y-35874500D01*
X108457060Y-35854815D01*
X108411305Y-35802011D01*
X108400099Y-35750500D01*
X108400099Y-35728899D01*
X106573999Y-35728899D01*
X106506960Y-35709214D01*
X106461205Y-35656410D01*
X106449999Y-35604899D01*
X106449999Y-34552899D01*
X106469684Y-34485860D01*
X106522488Y-34440105D01*
X106573999Y-34428899D01*
X108400099Y-34428899D01*
X108400099Y-34054599D01*
X108419784Y-33987560D01*
X108472588Y-33941805D01*
X108524099Y-33930599D01*
X108800328Y-33930599D01*
X108800344Y-33930598D01*
X108859872Y-33924197D01*
X108859879Y-33924195D01*
X108994586Y-33873953D01*
X108994593Y-33873949D01*
X109109687Y-33787789D01*
X109109690Y-33787786D01*
X109195850Y-33672692D01*
X109195854Y-33672685D01*
X109246096Y-33537978D01*
X109246098Y-33537971D01*
X109252499Y-33478443D01*
X109252500Y-33478426D01*
X109252500Y-33178899D01*
X98747500Y-33178899D01*
X98747500Y-33478443D01*
X98753901Y-33537971D01*
X98753903Y-33537978D01*
X98804145Y-33672685D01*
X98804149Y-33672692D01*
X98890309Y-33787786D01*
X98890312Y-33787789D01*
X99005406Y-33873949D01*
X99005413Y-33873953D01*
X99140120Y-33924195D01*
X99140127Y-33924197D01*
X99199655Y-33930598D01*
X99199672Y-33930599D01*
X99475901Y-33930599D01*
X99542940Y-33950284D01*
X99588695Y-34003088D01*
X99599901Y-34054599D01*
X99599901Y-34428899D01*
X101426001Y-34428899D01*
X101493040Y-34448584D01*
X101538795Y-34501388D01*
X101550001Y-34552899D01*
X101550001Y-36632999D01*
X101747929Y-36632999D01*
X101747945Y-36632998D01*
X101807473Y-36626597D01*
X101807480Y-36626595D01*
X101942187Y-36576353D01*
X101942188Y-36576352D01*
X101946409Y-36573193D01*
X102011872Y-36548772D01*
X102080146Y-36563621D01*
X102123827Y-36603565D01*
X102175304Y-36680605D01*
X102175307Y-36680609D01*
X102283017Y-36788319D01*
X102316502Y-36849642D01*
X102311518Y-36919334D01*
X102269646Y-36975267D01*
X102204182Y-36999684D01*
X102195336Y-37000000D01*
X98124000Y-37000000D01*
X98056961Y-36980315D01*
X98011206Y-36927511D01*
X98000000Y-36876000D01*
X98000000Y-35728899D01*
X99599901Y-35728899D01*
X99599901Y-36180843D01*
X99606302Y-36240371D01*
X99606304Y-36240378D01*
X99656546Y-36375085D01*
X99656550Y-36375092D01*
X99742710Y-36490186D01*
X99742713Y-36490189D01*
X99857807Y-36576349D01*
X99857814Y-36576353D01*
X99992521Y-36626595D01*
X99992528Y-36626597D01*
X100052056Y-36632998D01*
X100052073Y-36632999D01*
X100250001Y-36632999D01*
X100250001Y-35728899D01*
X99599901Y-35728899D01*
X98000000Y-35728899D01*
X98000000Y-32215946D01*
X98019685Y-32148907D01*
X98058904Y-32110407D01*
X98168656Y-32042712D01*
X98292712Y-31918656D01*
X98384814Y-31769334D01*
X98439999Y-31602797D01*
X98450500Y-31500009D01*
X98450499Y-31199499D01*
X98470183Y-31132461D01*
X98522987Y-31086706D01*
X98574499Y-31075500D01*
X98788199Y-31075500D01*
X98855238Y-31095185D01*
G37*
%TD.AperFunction*%
%TD*%
M02*
