%TF.GenerationSoftware,KiCad,Pcbnew,8.0.1*%
%TF.CreationDate,2024-06-26T22:32:36+08:00*%
%TF.ProjectId,pcb_badge,7063625f-6261-4646-9765-2e6b69636164,rev?*%
%TF.SameCoordinates,Original*%
%TF.FileFunction,Legend,Bot*%
%TF.FilePolarity,Positive*%
%FSLAX46Y46*%
G04 Gerber Fmt 4.6, Leading zero omitted, Abs format (unit mm)*
G04 Created by KiCad (PCBNEW 8.0.1) date 2024-06-26 22:32:36*
%MOMM*%
%LPD*%
G01*
G04 APERTURE LIST*
%ADD10C,0.000000*%
%ADD11C,0.300000*%
%ADD12C,0.150000*%
%ADD13C,0.120000*%
%ADD14C,0.250000*%
%ADD15C,0.127000*%
G04 APERTURE END LIST*
D10*
G36*
X143104999Y-102245002D02*
G01*
X141834999Y-102245002D01*
X141834999Y-102880002D01*
X140583521Y-102880002D01*
X140583521Y-102263523D01*
X141218520Y-102263523D01*
X141218520Y-101628523D01*
X143104999Y-101628523D01*
X143104999Y-102245002D01*
G37*
G36*
X132310000Y-99088523D02*
G01*
X133580000Y-99088523D01*
X133580000Y-99705002D01*
X132310000Y-99705002D01*
X132310000Y-100358523D01*
X133580000Y-100358523D01*
X133580000Y-100975001D01*
X131693520Y-100975001D01*
X131693520Y-98453523D01*
X132310000Y-98453523D01*
X132310000Y-99088523D01*
G37*
G36*
X128500000Y-110500000D02*
G01*
X127883521Y-110500000D01*
X127883521Y-109883523D01*
X128500000Y-109883523D01*
X128500000Y-110500000D01*
G37*
G36*
X139295000Y-104150001D02*
G01*
X138678520Y-104150001D01*
X138678520Y-102898523D01*
X139295000Y-102898523D01*
X139295000Y-104150001D01*
G37*
G36*
X141199998Y-99070002D02*
G01*
X139948520Y-99070002D01*
X139948520Y-98453523D01*
X141199998Y-98453523D01*
X141199998Y-99070002D01*
G37*
G36*
X142470000Y-99070002D02*
G01*
X141853520Y-99070002D01*
X141853520Y-98453523D01*
X142470000Y-98453523D01*
X142470000Y-99070002D01*
G37*
G36*
X131040000Y-100975001D02*
G01*
X130423521Y-100975001D01*
X130423521Y-100358523D01*
X131040000Y-100358523D01*
X131040000Y-100975001D01*
G37*
G36*
X140564999Y-100975001D02*
G01*
X139948520Y-100975001D01*
X139948520Y-100358523D01*
X140564999Y-100358523D01*
X140564999Y-100975001D01*
G37*
G36*
X139929999Y-102880002D02*
G01*
X139313521Y-102880002D01*
X139313521Y-102263523D01*
X139929999Y-102263523D01*
X139929999Y-102880002D01*
G37*
G36*
X139295000Y-107325000D02*
G01*
X138678520Y-107325000D01*
X138678520Y-106708523D01*
X139295000Y-106708523D01*
X139295000Y-107325000D01*
G37*
G36*
X141199998Y-104150001D02*
G01*
X140583521Y-104150001D01*
X140583521Y-103533523D01*
X141199998Y-103533523D01*
X141199998Y-104150001D01*
G37*
G36*
X140564999Y-104785001D02*
G01*
X139948520Y-104785001D01*
X139948520Y-104168522D01*
X140564999Y-104168522D01*
X140564999Y-104785001D01*
G37*
G36*
X138024999Y-94625002D02*
G01*
X137408521Y-94625002D01*
X137408521Y-94008523D01*
X138024999Y-94008523D01*
X138024999Y-94625002D01*
G37*
G36*
X133580000Y-104150001D02*
G01*
X132963521Y-104150001D01*
X132963521Y-103533523D01*
X133580000Y-103533523D01*
X133580000Y-104150001D01*
G37*
G36*
X138659999Y-107960001D02*
G01*
X138043520Y-107960001D01*
X138043520Y-107343522D01*
X138659999Y-107343522D01*
X138659999Y-107960001D01*
G37*
G36*
X129770000Y-109230001D02*
G01*
X129153521Y-109230001D01*
X129153521Y-108613523D01*
X129770000Y-108613523D01*
X129770000Y-109230001D01*
G37*
G36*
X129770000Y-99705002D02*
G01*
X129135000Y-99705002D01*
X129135000Y-100358523D01*
X129770000Y-100358523D01*
X129770000Y-100975001D01*
X128518521Y-100975001D01*
X128518521Y-100340001D01*
X127883521Y-100340001D01*
X127883521Y-99723523D01*
X128518521Y-99723523D01*
X128518521Y-99088523D01*
X129770000Y-99088523D01*
X129770000Y-99705002D01*
G37*
G36*
X139929999Y-101610001D02*
G01*
X139313521Y-101610001D01*
X139313521Y-100993522D01*
X139929999Y-100993522D01*
X139929999Y-101610001D01*
G37*
G36*
X134849999Y-107325000D02*
G01*
X134233521Y-107325000D01*
X134233521Y-106708523D01*
X134849999Y-106708523D01*
X134849999Y-107325000D01*
G37*
G36*
X136755000Y-109230001D02*
G01*
X136138521Y-109230001D01*
X136138521Y-108613523D01*
X136755000Y-108613523D01*
X136755000Y-109230001D01*
G37*
G36*
X133580000Y-96530002D02*
G01*
X132945000Y-96530002D01*
X132945000Y-97165002D01*
X132328521Y-97165002D01*
X132328521Y-95913522D01*
X133580000Y-95913522D01*
X133580000Y-96530002D01*
G37*
G36*
X134214999Y-108595002D02*
G01*
X132328521Y-108595002D01*
X132328521Y-107978522D01*
X134214999Y-107978522D01*
X134214999Y-108595002D01*
G37*
G36*
X139295000Y-100340001D02*
G01*
X138678520Y-100340001D01*
X138678520Y-99723523D01*
X139295000Y-99723523D01*
X139295000Y-100340001D01*
G37*
G36*
X139295000Y-102245002D02*
G01*
X138678520Y-102245002D01*
X138678520Y-101628523D01*
X139295000Y-101628523D01*
X139295000Y-102245002D01*
G37*
G36*
X144393520Y-96530002D02*
G01*
X141218520Y-96530002D01*
X141218520Y-93990002D01*
X141853520Y-93990002D01*
X141853520Y-95895002D01*
X143758521Y-95895002D01*
X143758521Y-93990002D01*
X141853520Y-93990002D01*
X141218520Y-93990002D01*
X141218520Y-93355002D01*
X144393520Y-93355002D01*
X144393520Y-96530002D01*
G37*
G36*
X141199998Y-100340001D02*
G01*
X140583521Y-100340001D01*
X140583521Y-99723523D01*
X141199998Y-99723523D01*
X141199998Y-100340001D01*
G37*
G36*
X144393520Y-110500000D02*
G01*
X141218520Y-110500000D01*
X141218520Y-107960001D01*
X141853520Y-107960001D01*
X141853520Y-109865001D01*
X143758521Y-109865001D01*
X143758521Y-107960001D01*
X141853520Y-107960001D01*
X141218520Y-107960001D01*
X141218520Y-107325000D01*
X144393520Y-107325000D01*
X144393520Y-110500000D01*
G37*
G36*
X131675000Y-107960001D02*
G01*
X129788520Y-107960001D01*
X129788520Y-106690001D01*
X130405000Y-106690001D01*
X130405000Y-107343522D01*
X131058521Y-107343522D01*
X131058521Y-106690001D01*
X130405000Y-106690001D01*
X129788520Y-106690001D01*
X129788520Y-106073522D01*
X131675000Y-106073522D01*
X131675000Y-107960001D01*
G37*
G36*
X130405000Y-105420002D02*
G01*
X129788520Y-105420002D01*
X129788520Y-104785001D01*
X128518521Y-104785001D01*
X128518521Y-104168522D01*
X130405000Y-104168522D01*
X130405000Y-105420002D01*
G37*
G36*
X138024999Y-95895002D02*
G01*
X137408521Y-95895002D01*
X137408521Y-95278523D01*
X138024999Y-95278523D01*
X138024999Y-95895002D01*
G37*
G36*
X146279999Y-112405001D02*
G01*
X125325000Y-112405001D01*
X125325000Y-107978522D01*
X126595000Y-107978522D01*
X127230000Y-107978522D01*
X127230000Y-108613523D01*
X127865000Y-108613523D01*
X127865000Y-109230001D01*
X127230000Y-109230001D01*
X127230000Y-110518522D01*
X127865000Y-110518522D01*
X127865000Y-111153522D01*
X129788520Y-111153522D01*
X129788520Y-109883523D01*
X131040000Y-109883523D01*
X131040000Y-110500000D01*
X130405000Y-110500000D01*
X130405000Y-111153522D01*
X131693520Y-111153522D01*
X131693520Y-110518522D01*
X132963521Y-110518522D01*
X132963521Y-109883523D01*
X133598521Y-109883523D01*
X133598521Y-109248522D01*
X134214999Y-109248522D01*
X134214999Y-109883523D01*
X134849999Y-109883523D01*
X134849999Y-110500000D01*
X133580000Y-110500000D01*
X133580000Y-111153522D01*
X135503521Y-111153522D01*
X135503521Y-110518522D01*
X136120000Y-110518522D01*
X136120000Y-111153522D01*
X136773521Y-111153522D01*
X136773521Y-110518522D01*
X137408521Y-110518522D01*
X137408521Y-108595002D01*
X136773521Y-108595002D01*
X136773521Y-107978522D01*
X138024999Y-107978522D01*
X138024999Y-108613523D01*
X138659999Y-108613523D01*
X138659999Y-109248522D01*
X139295000Y-109248522D01*
X139295000Y-109865001D01*
X138024999Y-109865001D01*
X138024999Y-110518522D01*
X139948520Y-110518522D01*
X139948520Y-106690001D01*
X140583521Y-106690001D01*
X140583521Y-111135001D01*
X145028520Y-111135001D01*
X145028520Y-106690001D01*
X140583521Y-106690001D01*
X139948520Y-106690001D01*
X139948520Y-106055001D01*
X138659999Y-106055001D01*
X138659999Y-106690001D01*
X138024999Y-106690001D01*
X138024999Y-107325000D01*
X136138521Y-107325000D01*
X136138521Y-106073522D01*
X136755000Y-106073522D01*
X136755000Y-106708523D01*
X137408521Y-106708523D01*
X137408521Y-106055001D01*
X136773521Y-106055001D01*
X136773521Y-105438523D01*
X137408521Y-105438523D01*
X137408521Y-104785001D01*
X136755000Y-104785001D01*
X136755000Y-105420002D01*
X135484999Y-105420002D01*
X135484999Y-106690001D01*
X134868520Y-106690001D01*
X134868520Y-106055001D01*
X134233521Y-106055001D01*
X134233521Y-105438523D01*
X134868520Y-105438523D01*
X134868520Y-104785001D01*
X134214999Y-104785001D01*
X134214999Y-105420002D01*
X133598521Y-105420002D01*
X133598521Y-104168522D01*
X136773521Y-104168522D01*
X136773521Y-103515001D01*
X133598521Y-103515001D01*
X133598521Y-102880002D01*
X132945000Y-102880002D01*
X132945000Y-103515001D01*
X132328521Y-103515001D01*
X132328521Y-102880002D01*
X131058521Y-102880002D01*
X131058521Y-101628523D01*
X132945000Y-101628523D01*
X132945000Y-102263523D01*
X133598521Y-102263523D01*
X133598521Y-102245002D01*
X135484999Y-102245002D01*
X135484999Y-102898523D01*
X136138521Y-102898523D01*
X136138521Y-102245002D01*
X135484999Y-102245002D01*
X133598521Y-102245002D01*
X133598521Y-100993522D01*
X134214999Y-100993522D01*
X134214999Y-101628523D01*
X134868520Y-101628523D01*
X134868520Y-100975001D01*
X135484999Y-100975001D01*
X135484999Y-101628523D01*
X136138521Y-101628523D01*
X136138521Y-100975001D01*
X135484999Y-100975001D01*
X134868520Y-100975001D01*
X134868520Y-98453523D01*
X135503521Y-98453523D01*
X135503521Y-97800002D01*
X134868520Y-97800002D01*
X134868520Y-96530002D01*
X135484999Y-96530002D01*
X135484999Y-97183523D01*
X136138521Y-97183523D01*
X136138521Y-96530002D01*
X135484999Y-96530002D01*
X134868520Y-96530002D01*
X134868520Y-95913522D01*
X136755000Y-95913522D01*
X136755000Y-97183523D01*
X137389999Y-97183523D01*
X137389999Y-97800002D01*
X136120000Y-97800002D01*
X136120000Y-98453523D01*
X136755000Y-98453523D01*
X136755000Y-99070002D01*
X135484999Y-99070002D01*
X135484999Y-100358523D01*
X136138521Y-100358523D01*
X136138521Y-99723523D01*
X136755000Y-99723523D01*
X136755000Y-101628523D01*
X137408521Y-101628523D01*
X137408521Y-99705002D01*
X136773521Y-99705002D01*
X136773521Y-99088523D01*
X137408521Y-99088523D01*
X137408521Y-97818522D01*
X138024999Y-97818522D01*
X138024999Y-99088523D01*
X138659999Y-99088523D01*
X138659999Y-99705002D01*
X138024999Y-99705002D01*
X138024999Y-100358523D01*
X138659999Y-100358523D01*
X138659999Y-100975001D01*
X138024999Y-100975001D01*
X138024999Y-102245002D01*
X137389999Y-102245002D01*
X137389999Y-104168522D01*
X138659999Y-104168522D01*
X138659999Y-105438523D01*
X139313521Y-105438523D01*
X139313521Y-104803522D01*
X139929999Y-104803522D01*
X139929999Y-105438523D01*
X140564999Y-105438523D01*
X140564999Y-106073522D01*
X141218520Y-106073522D01*
X141218520Y-105420002D01*
X141834999Y-105420002D01*
X141834999Y-106073522D01*
X142488521Y-106073522D01*
X142488521Y-105420002D01*
X141834999Y-105420002D01*
X141218520Y-105420002D01*
X140583521Y-105420002D01*
X140583521Y-104803522D01*
X141218520Y-104803522D01*
X141218520Y-104785001D01*
X143104999Y-104785001D01*
X143104999Y-105438523D01*
X143758521Y-105438523D01*
X143758521Y-104785001D01*
X143104999Y-104785001D01*
X141218520Y-104785001D01*
X141218520Y-104168522D01*
X141853520Y-104168522D01*
X141853520Y-102898523D01*
X142470000Y-102898523D01*
X142470000Y-103533523D01*
X143123520Y-103533523D01*
X143123520Y-102263523D01*
X143739999Y-102263523D01*
X143739999Y-104168522D01*
X144374998Y-104168522D01*
X144374998Y-106073522D01*
X145028520Y-106073522D01*
X145028520Y-103515001D01*
X144393520Y-103515001D01*
X144393520Y-102898523D01*
X145028520Y-102898523D01*
X145028520Y-99705002D01*
X144393520Y-99705002D01*
X144393520Y-99070002D01*
X143758521Y-99070002D01*
X143758521Y-98453523D01*
X144393520Y-98453523D01*
X144393520Y-97800002D01*
X139929999Y-97800002D01*
X139929999Y-98435002D01*
X138678520Y-98435002D01*
X138678520Y-96548523D01*
X139295000Y-96548523D01*
X139295000Y-97183523D01*
X139948520Y-97183523D01*
X139948520Y-95260002D01*
X139295000Y-95260002D01*
X139295000Y-95895002D01*
X138678520Y-95895002D01*
X138678520Y-94643523D01*
X139313521Y-94643523D01*
X139313521Y-93990002D01*
X138043520Y-93990002D01*
X138043520Y-93373523D01*
X139948520Y-93373523D01*
X139948520Y-92720002D01*
X140583521Y-92720002D01*
X140583521Y-97165002D01*
X145028520Y-97165002D01*
X145028520Y-92720002D01*
X140583521Y-92720002D01*
X139948520Y-92720002D01*
X136755000Y-92720002D01*
X136755000Y-93373523D01*
X137389999Y-93373523D01*
X137389999Y-93990002D01*
X136755000Y-93990002D01*
X136755000Y-94643523D01*
X137389999Y-94643523D01*
X137389999Y-95260002D01*
X134233521Y-95260002D01*
X134233521Y-94643523D01*
X134868520Y-94643523D01*
X134868520Y-93990002D01*
X135484999Y-93990002D01*
X135484999Y-94643523D01*
X136138521Y-94643523D01*
X136138521Y-93990002D01*
X135484999Y-93990002D01*
X134868520Y-93990002D01*
X134868520Y-92720002D01*
X135484999Y-92720002D01*
X135484999Y-93373523D01*
X136138521Y-93373523D01*
X136138521Y-92720002D01*
X135484999Y-92720002D01*
X134868520Y-92720002D01*
X134214999Y-92720002D01*
X134214999Y-93355002D01*
X133598521Y-93355002D01*
X133598521Y-92720002D01*
X132945000Y-92720002D01*
X132945000Y-95260002D01*
X131675000Y-95260002D01*
X131675000Y-97183523D01*
X132310000Y-97183523D01*
X132310000Y-97800002D01*
X131675000Y-97800002D01*
X131675000Y-98435002D01*
X130423521Y-98435002D01*
X130423521Y-97800002D01*
X129135000Y-97800002D01*
X129135000Y-98435002D01*
X127865000Y-98435002D01*
X127865000Y-99705002D01*
X127230000Y-99705002D01*
X127230000Y-100340001D01*
X126595000Y-100340001D01*
X126595000Y-101628523D01*
X127883521Y-101628523D01*
X127883521Y-100993522D01*
X128500000Y-100993522D01*
X128500000Y-101628523D01*
X129770000Y-101628523D01*
X129770000Y-102245002D01*
X128500000Y-102245002D01*
X128500000Y-102880002D01*
X127865000Y-102880002D01*
X127865000Y-103515001D01*
X127248521Y-103515001D01*
X127248521Y-102245002D01*
X126595000Y-102245002D01*
X126595000Y-104168522D01*
X127865000Y-104168522D01*
X127865000Y-104803522D01*
X128500000Y-104803522D01*
X128500000Y-105420002D01*
X127248521Y-105420002D01*
X127248521Y-104785001D01*
X126595000Y-104785001D01*
X126595000Y-106708523D01*
X127883521Y-106708523D01*
X127883521Y-106073522D01*
X128500000Y-106073522D01*
X128500000Y-106708523D01*
X129135000Y-106708523D01*
X129135000Y-107325000D01*
X128500000Y-107325000D01*
X128500000Y-107960001D01*
X127248521Y-107960001D01*
X127248521Y-107325000D01*
X126595000Y-107325000D01*
X126595000Y-107978522D01*
X125325000Y-107978522D01*
X125325000Y-97800002D01*
X126595000Y-97800002D01*
X126595000Y-99088523D01*
X127248521Y-99088523D01*
X127248521Y-97800002D01*
X126595000Y-97800002D01*
X125325000Y-97800002D01*
X125325000Y-92720002D01*
X126613521Y-92720002D01*
X126613521Y-97165002D01*
X131058521Y-97165002D01*
X131058521Y-93990002D01*
X131675000Y-93990002D01*
X131675000Y-94643523D01*
X132328521Y-94643523D01*
X132328521Y-93990002D01*
X131675000Y-93990002D01*
X131058521Y-93990002D01*
X131058521Y-92720002D01*
X126613521Y-92720002D01*
X125325000Y-92720002D01*
X125325000Y-91450002D01*
X146279999Y-91450002D01*
X146279999Y-112405001D01*
G37*
G36*
X130405000Y-99070002D02*
G01*
X129788520Y-99070002D01*
X129788520Y-98453523D01*
X130405000Y-98453523D01*
X130405000Y-99070002D01*
G37*
G36*
X143739999Y-99723523D02*
G01*
X144374998Y-99723523D01*
X144374998Y-100975001D01*
X143739999Y-100975001D01*
X143739999Y-101610001D01*
X143123520Y-101610001D01*
X143123520Y-100975001D01*
X141218520Y-100975001D01*
X141218520Y-100358523D01*
X142488521Y-100358523D01*
X142488521Y-99088523D01*
X143739999Y-99088523D01*
X143739999Y-99723523D01*
G37*
G36*
X131040000Y-109230001D02*
G01*
X130423521Y-109230001D01*
X130423521Y-108613523D01*
X131040000Y-108613523D01*
X131040000Y-109230001D01*
G37*
G36*
X138659999Y-102880002D02*
G01*
X138043520Y-102880002D01*
X138043520Y-102263523D01*
X138659999Y-102263523D01*
X138659999Y-102880002D01*
G37*
G36*
X134214999Y-100340001D02*
G01*
X133598521Y-100340001D01*
X133598521Y-99723523D01*
X134214999Y-99723523D01*
X134214999Y-100340001D01*
G37*
G36*
X133580000Y-107325000D02*
G01*
X132963521Y-107325000D01*
X132963521Y-106708523D01*
X133580000Y-106708523D01*
X133580000Y-107325000D01*
G37*
G36*
X132310000Y-104168522D02*
G01*
X132945000Y-104168522D01*
X132945000Y-105438523D01*
X133580000Y-105438523D01*
X133580000Y-106055001D01*
X132328521Y-106055001D01*
X132328521Y-105420002D01*
X131058521Y-105420002D01*
X131058521Y-103533523D01*
X132310000Y-103533523D01*
X132310000Y-104168522D01*
G37*
G36*
X134214999Y-98435002D02*
G01*
X132328521Y-98435002D01*
X132328521Y-97818522D01*
X134214999Y-97818522D01*
X134214999Y-98435002D01*
G37*
G36*
X134214999Y-97165002D02*
G01*
X133598521Y-97165002D01*
X133598521Y-96548523D01*
X134214999Y-96548523D01*
X134214999Y-97165002D01*
G37*
G36*
X141199998Y-101610001D02*
G01*
X140583521Y-101610001D01*
X140583521Y-100993522D01*
X141199998Y-100993522D01*
X141199998Y-101610001D01*
G37*
G36*
X130405000Y-102898523D02*
G01*
X131040000Y-102898523D01*
X131040000Y-103515001D01*
X129153521Y-103515001D01*
X129153521Y-102898523D01*
X129788520Y-102898523D01*
X129788520Y-102263523D01*
X130405000Y-102263523D01*
X130405000Y-102898523D01*
G37*
G36*
X134214999Y-94625002D02*
G01*
X133598521Y-94625002D01*
X133598521Y-94008523D01*
X134214999Y-94008523D01*
X134214999Y-94625002D01*
G37*
G36*
X129135000Y-106055001D02*
G01*
X128518521Y-106055001D01*
X128518521Y-105438523D01*
X129135000Y-105438523D01*
X129135000Y-106055001D01*
G37*
G36*
X138024999Y-97165002D02*
G01*
X137408521Y-97165002D01*
X137408521Y-96548523D01*
X138024999Y-96548523D01*
X138024999Y-97165002D01*
G37*
G36*
X134849999Y-109230001D02*
G01*
X134233521Y-109230001D01*
X134233521Y-108613523D01*
X134849999Y-108613523D01*
X134849999Y-109230001D01*
G37*
G36*
X130423521Y-96530002D02*
G01*
X127248521Y-96530002D01*
X127248521Y-93990002D01*
X127883521Y-93990002D01*
X127883521Y-95895002D01*
X129788520Y-95895002D01*
X129788520Y-93990002D01*
X127883521Y-93990002D01*
X127248521Y-93990002D01*
X127248521Y-93355002D01*
X130423521Y-93355002D01*
X130423521Y-96530002D01*
G37*
G36*
X130405000Y-101610001D02*
G01*
X129788520Y-101610001D01*
X129788520Y-100993522D01*
X130405000Y-100993522D01*
X130405000Y-101610001D01*
G37*
D11*
G36*
X107874528Y-49468394D02*
G01*
X107874528Y-49745000D01*
X108906210Y-49745000D01*
X108906210Y-48854002D01*
X108171650Y-48854002D01*
X108171650Y-48520976D01*
X108906210Y-48520976D01*
X108906210Y-48244371D01*
X107874528Y-48244371D01*
X107874528Y-49130607D01*
X108609089Y-49130607D01*
X108609089Y-49468394D01*
X107874528Y-49468394D01*
G37*
G36*
X107691346Y-49745000D02*
G01*
X106659665Y-49745000D01*
X106659665Y-48520976D01*
X106956786Y-48520976D01*
X106956786Y-49468394D01*
X107394225Y-49468394D01*
X107394225Y-48520976D01*
X106956786Y-48520976D01*
X106659665Y-48520976D01*
X106659665Y-48244371D01*
X107691346Y-48244371D01*
X107691346Y-49745000D01*
G37*
G36*
X105444801Y-49468394D02*
G01*
X105444801Y-49745000D01*
X106476482Y-49745000D01*
X106476482Y-48854002D01*
X105741922Y-48854002D01*
X105741922Y-48520976D01*
X106476482Y-48520976D01*
X106476482Y-48244371D01*
X105444801Y-48244371D01*
X105444801Y-49130607D01*
X106179361Y-49130607D01*
X106179361Y-49468394D01*
X105444801Y-49468394D01*
G37*
G36*
X105261618Y-49130607D02*
G01*
X105261618Y-48244371D01*
X104964497Y-48244371D01*
X104964497Y-48854002D01*
X104527058Y-48854002D01*
X104527058Y-48244371D01*
X104229937Y-48244371D01*
X104229937Y-49745000D01*
X104527058Y-49745000D01*
X104527058Y-49130607D01*
X105261618Y-49130607D01*
G37*
G36*
X102769975Y-48244371D02*
G01*
X102480181Y-48244371D01*
X102806612Y-49745000D01*
X103169678Y-49745000D01*
X103520655Y-48244371D01*
X103213642Y-48244371D01*
X103001151Y-49334305D01*
X102769975Y-48244371D01*
G37*
G36*
X102014532Y-49745000D02*
G01*
X102311653Y-49745000D01*
X102311653Y-48244371D01*
X102014532Y-48244371D01*
X102014532Y-49745000D01*
G37*
G36*
X101526535Y-49468394D02*
G01*
X101526535Y-49745000D01*
X101823656Y-49745000D01*
X101823656Y-49468394D01*
X101526535Y-49468394D01*
G37*
G36*
X101335659Y-49745000D02*
G01*
X100303977Y-49745000D01*
X100303977Y-48520976D01*
X100601099Y-48520976D01*
X100601099Y-49468394D01*
X101038538Y-49468394D01*
X101038538Y-48520976D01*
X100601099Y-48520976D01*
X100303977Y-48520976D01*
X100303977Y-48244371D01*
X101335659Y-48244371D01*
X101335659Y-49745000D01*
G37*
G36*
X100120795Y-49745000D02*
G01*
X99823674Y-49745000D01*
X99823674Y-49130607D01*
X99386235Y-49130607D01*
X99386235Y-49745000D01*
X99089113Y-49745000D01*
X99089113Y-48520976D01*
X99386235Y-48520976D01*
X99386235Y-48854002D01*
X99823674Y-48854002D01*
X99823674Y-48520976D01*
X99386235Y-48520976D01*
X99089113Y-48520976D01*
X99089113Y-48244371D01*
X100120795Y-48244371D01*
X100120795Y-49745000D01*
G37*
D12*
G36*
X77751632Y-48142464D02*
G01*
X77751632Y-48519819D01*
X78330000Y-48519819D01*
X78330000Y-47847663D01*
X77345212Y-47847663D01*
X77345212Y-48519819D01*
X77513984Y-48519819D01*
X77513984Y-48030112D01*
X78161228Y-48030112D01*
X78161228Y-48337370D01*
X77920404Y-48337370D01*
X77920404Y-48142464D01*
X77751632Y-48142464D01*
G37*
G36*
X78330000Y-48840021D02*
G01*
X78330000Y-48657572D01*
X77345212Y-48657572D01*
X77345212Y-48840021D01*
X77897201Y-49147279D01*
X77345212Y-49147279D01*
X77345212Y-49329728D01*
X78330000Y-49329728D01*
X78330000Y-49147279D01*
X77761402Y-48840021D01*
X78330000Y-48840021D01*
G37*
G36*
X78330000Y-50067097D02*
G01*
X78243538Y-50139638D01*
X77431674Y-50139638D01*
X77345212Y-50066365D01*
X77345212Y-49649931D01*
X77513984Y-49649931D01*
X77513984Y-49957188D01*
X78161228Y-49957188D01*
X78161228Y-49649931D01*
X77513984Y-49649931D01*
X77345212Y-49649931D01*
X77345212Y-49467481D01*
X78330000Y-49467481D01*
X78330000Y-50067097D01*
G37*
G36*
X77513984Y-55547663D02*
G01*
X77345212Y-55547663D01*
X77345212Y-56230321D01*
X78330000Y-56230321D01*
X78330000Y-55547663D01*
X78161228Y-55547663D01*
X78161228Y-56047872D01*
X77920404Y-56047872D01*
X77920404Y-55547663D01*
X77751632Y-55547663D01*
X77751632Y-56047872D01*
X77513984Y-56047872D01*
X77513984Y-55547663D01*
G37*
G36*
X77345212Y-56860468D02*
G01*
X77345212Y-57037544D01*
X78330000Y-56823343D01*
X78330000Y-56593755D01*
X77345212Y-56363434D01*
X77345212Y-56551989D01*
X78103098Y-56699756D01*
X77345212Y-56860468D01*
G37*
G36*
X77513984Y-57167481D02*
G01*
X77345212Y-57167481D01*
X77345212Y-57850140D01*
X78330000Y-57850140D01*
X78330000Y-57167481D01*
X78161228Y-57167481D01*
X78161228Y-57667691D01*
X77920404Y-57667691D01*
X77920404Y-57167481D01*
X77751632Y-57167481D01*
X77751632Y-57667691D01*
X77513984Y-57667691D01*
X77513984Y-57167481D01*
G37*
G36*
X78161228Y-50530112D02*
G01*
X78161228Y-51019819D01*
X78330000Y-51019819D01*
X78330000Y-50347663D01*
X77345212Y-50347663D01*
X77345212Y-51019819D01*
X77513984Y-51019819D01*
X77513984Y-50530112D01*
X78161228Y-50530112D01*
G37*
G36*
X78161228Y-51340021D02*
G01*
X78161228Y-51829728D01*
X78330000Y-51829728D01*
X78330000Y-51157572D01*
X77345212Y-51157572D01*
X77345212Y-51340021D01*
X78161228Y-51340021D01*
G37*
G36*
X78330000Y-52149931D02*
G01*
X78330000Y-51967481D01*
X77345212Y-51967481D01*
X77345212Y-52149931D01*
X77757250Y-52149931D01*
X77345212Y-52458409D01*
X77345212Y-52635485D01*
X77825150Y-52306490D01*
X78330000Y-52635485D01*
X78330000Y-52458409D01*
X77917962Y-52149931D01*
X78330000Y-52149931D01*
G37*
D11*
G36*
X138874528Y-146468394D02*
G01*
X138874528Y-146745000D01*
X139906210Y-146745000D01*
X139906210Y-145854002D01*
X139171650Y-145854002D01*
X139171650Y-145520976D01*
X139906210Y-145520976D01*
X139906210Y-145244371D01*
X138874528Y-145244371D01*
X138874528Y-146130607D01*
X139609089Y-146130607D01*
X139609089Y-146468394D01*
X138874528Y-146468394D01*
G37*
G36*
X138691346Y-146745000D02*
G01*
X137659665Y-146745000D01*
X137659665Y-145520976D01*
X137956786Y-145520976D01*
X137956786Y-146468394D01*
X138394225Y-146468394D01*
X138394225Y-145520976D01*
X137956786Y-145520976D01*
X137659665Y-145520976D01*
X137659665Y-145244371D01*
X138691346Y-145244371D01*
X138691346Y-146745000D01*
G37*
G36*
X136444801Y-146468394D02*
G01*
X136444801Y-146745000D01*
X137476482Y-146745000D01*
X137476482Y-145854002D01*
X136741922Y-145854002D01*
X136741922Y-145520976D01*
X137476482Y-145520976D01*
X137476482Y-145244371D01*
X136444801Y-145244371D01*
X136444801Y-146130607D01*
X137179361Y-146130607D01*
X137179361Y-146468394D01*
X136444801Y-146468394D01*
G37*
G36*
X136261618Y-146130607D02*
G01*
X136261618Y-145244371D01*
X135964497Y-145244371D01*
X135964497Y-145854002D01*
X135527058Y-145854002D01*
X135527058Y-145244371D01*
X135229937Y-145244371D01*
X135229937Y-146745000D01*
X135527058Y-146745000D01*
X135527058Y-146130607D01*
X136261618Y-146130607D01*
G37*
G36*
X133769975Y-145244371D02*
G01*
X133480181Y-145244371D01*
X133806612Y-146745000D01*
X134169678Y-146745000D01*
X134520655Y-145244371D01*
X134213642Y-145244371D01*
X134001151Y-146334305D01*
X133769975Y-145244371D01*
G37*
G36*
X133014532Y-146745000D02*
G01*
X133311653Y-146745000D01*
X133311653Y-145244371D01*
X133014532Y-145244371D01*
X133014532Y-146745000D01*
G37*
G36*
X132526535Y-146468394D02*
G01*
X132526535Y-146745000D01*
X132823656Y-146745000D01*
X132823656Y-146468394D01*
X132526535Y-146468394D01*
G37*
G36*
X132335659Y-146745000D02*
G01*
X131303977Y-146745000D01*
X131303977Y-145520976D01*
X131601099Y-145520976D01*
X131601099Y-146468394D01*
X132038538Y-146468394D01*
X132038538Y-145520976D01*
X131601099Y-145520976D01*
X131303977Y-145520976D01*
X131303977Y-145244371D01*
X132335659Y-145244371D01*
X132335659Y-146745000D01*
G37*
G36*
X131120795Y-146745000D02*
G01*
X130823674Y-146745000D01*
X130823674Y-146130607D01*
X130386235Y-146130607D01*
X130386235Y-146745000D01*
X130089113Y-146745000D01*
X130089113Y-145520976D01*
X130386235Y-145520976D01*
X130386235Y-145854002D01*
X130823674Y-145854002D01*
X130823674Y-145520976D01*
X130386235Y-145520976D01*
X130089113Y-145520976D01*
X130089113Y-145244371D01*
X131120795Y-145244371D01*
X131120795Y-146745000D01*
G37*
D12*
G36*
X78161228Y-53130112D02*
G01*
X78161228Y-53619819D01*
X78330000Y-53619819D01*
X78330000Y-52947663D01*
X77345212Y-52947663D01*
X77345212Y-53619819D01*
X77513984Y-53619819D01*
X77513984Y-53130112D01*
X78161228Y-53130112D01*
G37*
G36*
X78161228Y-53940021D02*
G01*
X78161228Y-54429728D01*
X78330000Y-54429728D01*
X78330000Y-53757572D01*
X77345212Y-53757572D01*
X77345212Y-53940021D01*
X78161228Y-53940021D01*
G37*
G36*
X78330000Y-54749931D02*
G01*
X78330000Y-54567481D01*
X77345212Y-54567481D01*
X77345212Y-54749931D01*
X77757250Y-54749931D01*
X77345212Y-55058409D01*
X77345212Y-55235485D01*
X77825150Y-54906490D01*
X78330000Y-55235485D01*
X78330000Y-55058409D01*
X77917962Y-54749931D01*
X78330000Y-54749931D01*
G37*
G36*
X146374947Y-86800000D02*
G01*
X145175715Y-86800000D01*
X145030635Y-86627076D01*
X145030635Y-85167969D01*
X145395533Y-85167969D01*
X145395533Y-86462456D01*
X146010048Y-86462456D01*
X146010048Y-85167969D01*
X145395533Y-85167969D01*
X145030635Y-85167969D01*
X145030635Y-85003349D01*
X145177180Y-84830425D01*
X146374947Y-84830425D01*
X146374947Y-86800000D01*
G37*
G36*
X144755129Y-86800000D02*
G01*
X143410816Y-86800000D01*
X143410816Y-85167969D01*
X143775715Y-85167969D01*
X143775715Y-86462456D01*
X144390230Y-86462456D01*
X144390230Y-85167969D01*
X143775715Y-85167969D01*
X143410816Y-85167969D01*
X143410816Y-84830425D01*
X144755129Y-84830425D01*
X144755129Y-86800000D01*
G37*
G36*
X142770411Y-86800000D02*
G01*
X143135310Y-86800000D01*
X143135310Y-84830425D01*
X142770411Y-84830425D01*
X142155896Y-85934403D01*
X142155896Y-84830425D01*
X141790997Y-84830425D01*
X141790997Y-86800000D01*
X142155896Y-86800000D01*
X142770411Y-85662805D01*
X142770411Y-86800000D01*
G37*
G36*
X141234124Y-84830425D02*
G01*
X141234124Y-85393161D01*
X141515491Y-85393161D01*
X141515491Y-84830425D01*
X141234124Y-84830425D01*
G37*
G36*
X140461828Y-85167969D02*
G01*
X140972295Y-85167969D01*
X140972295Y-84830425D01*
X139627983Y-84830425D01*
X139627983Y-85167969D01*
X140096929Y-85167969D01*
X140096929Y-86800000D01*
X140461828Y-86800000D01*
X140461828Y-85167969D01*
G37*
G36*
X138293928Y-86800000D02*
G01*
X138658827Y-86800000D01*
X138658827Y-84830425D01*
X138293928Y-84830425D01*
X138293928Y-85654501D01*
X137676971Y-84830425D01*
X137322819Y-84830425D01*
X137980809Y-85790300D01*
X137322819Y-86800000D01*
X137676971Y-86800000D01*
X138293928Y-85975924D01*
X138293928Y-86800000D01*
G37*
G36*
X136674110Y-86800000D02*
G01*
X137039009Y-86800000D01*
X137039009Y-84830425D01*
X136674110Y-84830425D01*
X136059595Y-85934403D01*
X136059595Y-84830425D01*
X135694696Y-84830425D01*
X135694696Y-86800000D01*
X136059595Y-86800000D01*
X136674110Y-85662805D01*
X136674110Y-86800000D01*
G37*
G36*
X135419190Y-86800000D02*
G01*
X134074877Y-86800000D01*
X134074877Y-85167969D01*
X134439776Y-85167969D01*
X134439776Y-86462456D01*
X135054291Y-86462456D01*
X135054291Y-85167969D01*
X134439776Y-85167969D01*
X134074877Y-85167969D01*
X134074877Y-84830425D01*
X135419190Y-84830425D01*
X135419190Y-86800000D01*
G37*
G36*
X132830704Y-85900209D02*
G01*
X132990439Y-86800000D01*
X133437892Y-86800000D01*
X133787648Y-84830425D01*
X133402233Y-84830425D01*
X133216120Y-86146894D01*
X133017794Y-84830425D01*
X132644591Y-84830425D01*
X132446266Y-86146894D01*
X132260642Y-84830425D01*
X131875226Y-84830425D01*
X132224982Y-86800000D01*
X132671946Y-86800000D01*
X132830704Y-85900209D01*
G37*
G36*
X130556315Y-86800000D02*
G01*
X130921214Y-86800000D01*
X130921214Y-84830425D01*
X130556315Y-84830425D01*
X130556315Y-85643265D01*
X129941800Y-85643265D01*
X129941800Y-84830425D01*
X129576901Y-84830425D01*
X129576901Y-86800000D01*
X129941800Y-86800000D01*
X129941800Y-85980809D01*
X130556315Y-85980809D01*
X130556315Y-86800000D01*
G37*
G36*
X129301395Y-86800000D02*
G01*
X127957083Y-86800000D01*
X127957083Y-85167969D01*
X128321981Y-85167969D01*
X128321981Y-86462456D01*
X128936496Y-86462456D01*
X128936496Y-85167969D01*
X128321981Y-85167969D01*
X127957083Y-85167969D01*
X127957083Y-84830425D01*
X129301395Y-84830425D01*
X129301395Y-86800000D01*
G37*
G36*
X126712909Y-85900209D02*
G01*
X126872644Y-86800000D01*
X127320097Y-86800000D01*
X127669853Y-84830425D01*
X127284438Y-84830425D01*
X127098325Y-86146894D01*
X126900000Y-84830425D01*
X126526796Y-84830425D01*
X126328471Y-86146894D01*
X126142847Y-84830425D01*
X125757431Y-84830425D01*
X126107187Y-86800000D01*
X126554152Y-86800000D01*
X126712909Y-85900209D01*
G37*
G36*
X124292951Y-85167969D02*
G01*
X124803419Y-85167969D01*
X124803419Y-84830425D01*
X123459106Y-84830425D01*
X123459106Y-85167969D01*
X123928053Y-85167969D01*
X123928053Y-86800000D01*
X124292951Y-86800000D01*
X124292951Y-85167969D01*
G37*
G36*
X123183600Y-86800000D02*
G01*
X121839288Y-86800000D01*
X121839288Y-85167969D01*
X122204187Y-85167969D01*
X122204187Y-86462456D01*
X122818702Y-86462456D01*
X122818702Y-85167969D01*
X122204187Y-85167969D01*
X121839288Y-85167969D01*
X121839288Y-84830425D01*
X123183600Y-84830425D01*
X123183600Y-86800000D01*
G37*
G36*
X119890718Y-84830425D02*
G01*
X119525819Y-84830425D01*
X119525819Y-86800000D01*
X120870132Y-86800000D01*
X120870132Y-84830425D01*
X120505233Y-84830425D01*
X120505233Y-86462456D01*
X119890718Y-86462456D01*
X119890718Y-84830425D01*
G37*
G36*
X119250314Y-85980809D02*
G01*
X119250314Y-84830425D01*
X117906001Y-84830425D01*
X117906001Y-85167969D01*
X118885415Y-85167969D01*
X118885415Y-85643265D01*
X117906001Y-85643265D01*
X117906001Y-86800000D01*
X119250314Y-86800000D01*
X119250314Y-86462456D01*
X118270900Y-86462456D01*
X118270900Y-85980809D01*
X119250314Y-85980809D01*
G37*
G36*
X117265596Y-85167969D02*
G01*
X117265596Y-85643265D01*
X116286182Y-85643265D01*
X116286182Y-85980809D01*
X117265596Y-85980809D01*
X117265596Y-86462456D01*
X116286182Y-86462456D01*
X116286182Y-86800000D01*
X117630495Y-86800000D01*
X117630495Y-84830425D01*
X116286182Y-84830425D01*
X116286182Y-85167969D01*
X117265596Y-85167969D01*
G37*
G36*
X114952128Y-86800000D02*
G01*
X115317027Y-86800000D01*
X115317027Y-84830425D01*
X114952128Y-84830425D01*
X114952128Y-86800000D01*
G37*
G36*
X114155896Y-85167969D02*
G01*
X114666364Y-85167969D01*
X114666364Y-84830425D01*
X113322051Y-84830425D01*
X113322051Y-85167969D01*
X113790997Y-85167969D01*
X113790997Y-86800000D01*
X114155896Y-86800000D01*
X114155896Y-85167969D01*
G37*
G36*
X113046545Y-86301256D02*
G01*
X113046545Y-85643265D01*
X112067131Y-85643265D01*
X112067131Y-85167969D01*
X113046545Y-85167969D01*
X113046545Y-84830425D01*
X111702233Y-84830425D01*
X111702233Y-85980809D01*
X112681646Y-85980809D01*
X112681646Y-86301256D01*
X113046545Y-86301256D01*
G37*
G36*
X112681646Y-86462456D02*
G01*
X112681646Y-86800000D01*
X113046545Y-86800000D01*
X113046545Y-86462456D01*
X112681646Y-86462456D01*
G37*
G36*
X146374947Y-89340809D02*
G01*
X146374947Y-88190425D01*
X145030635Y-88190425D01*
X145030635Y-88527969D01*
X146010048Y-88527969D01*
X146010048Y-89003265D01*
X145030635Y-89003265D01*
X145030635Y-90160000D01*
X146374947Y-90160000D01*
X146374947Y-89822456D01*
X145395533Y-89822456D01*
X145395533Y-89340809D01*
X146374947Y-89340809D01*
G37*
G36*
X144390230Y-89822456D02*
G01*
X143410816Y-89822456D01*
X143410816Y-90160000D01*
X144755129Y-90160000D01*
X144755129Y-88190425D01*
X143410816Y-88190425D01*
X143410816Y-88527969D01*
X144390230Y-88527969D01*
X144390230Y-89822456D01*
G37*
G36*
X143135310Y-90160000D02*
G01*
X142770411Y-90160000D01*
X142770411Y-89340809D01*
X142155896Y-89340809D01*
X142155896Y-90160000D01*
X141790997Y-90160000D01*
X141790997Y-88527969D01*
X142155896Y-88527969D01*
X142155896Y-89003265D01*
X142770411Y-89003265D01*
X142770411Y-88527969D01*
X142155896Y-88527969D01*
X141790997Y-88527969D01*
X141790997Y-88190425D01*
X143135310Y-88190425D01*
X143135310Y-90160000D01*
G37*
G36*
X141150593Y-90160000D02*
G01*
X141515491Y-90160000D01*
X141515491Y-88190425D01*
X141150593Y-88190425D01*
X140536078Y-89294403D01*
X140536078Y-88190425D01*
X140171179Y-88190425D01*
X140171179Y-90160000D01*
X140536078Y-90160000D01*
X141150593Y-89022805D01*
X141150593Y-90160000D01*
G37*
G36*
X138837124Y-90160000D02*
G01*
X139202023Y-90160000D01*
X139202023Y-88190425D01*
X138837124Y-88190425D01*
X138448778Y-89269979D01*
X138045289Y-88190425D01*
X137680390Y-88190425D01*
X137680390Y-90160000D01*
X138045289Y-90160000D01*
X138045289Y-89335924D01*
X138324214Y-90160000D01*
X138548918Y-90160000D01*
X138837124Y-89335924D01*
X138837124Y-90160000D01*
G37*
G36*
X137053175Y-88527969D02*
G01*
X137053175Y-89003265D01*
X136073761Y-89003265D01*
X136073761Y-89340809D01*
X137053175Y-89340809D01*
X137053175Y-89822456D01*
X136073761Y-89822456D01*
X136073761Y-90160000D01*
X137418073Y-90160000D01*
X137418073Y-88190425D01*
X136073761Y-88190425D01*
X136073761Y-88527969D01*
X137053175Y-88527969D01*
G37*
G36*
X135433356Y-88884563D02*
G01*
X135433356Y-89222107D01*
X135798255Y-89222107D01*
X135798255Y-88884563D01*
X135433356Y-88884563D01*
G37*
G36*
X135433356Y-89822456D02*
G01*
X135433356Y-90160000D01*
X135798255Y-90160000D01*
X135798255Y-89822456D01*
X135433356Y-89822456D01*
G37*
G36*
X88257675Y-55430212D02*
G01*
X88075226Y-55430212D01*
X88075226Y-56415000D01*
X88747382Y-56415000D01*
X88747382Y-55430212D01*
X88564933Y-55430212D01*
X88564933Y-56246228D01*
X88257675Y-56246228D01*
X88257675Y-55430212D01*
G37*
G36*
X87937473Y-55598984D02*
G01*
X87937473Y-55430212D01*
X87254814Y-55430212D01*
X87254814Y-56415000D01*
X87937473Y-56415000D01*
X87937473Y-56246228D01*
X87437264Y-56246228D01*
X87437264Y-56005404D01*
X87937473Y-56005404D01*
X87937473Y-55836632D01*
X87437264Y-55836632D01*
X87437264Y-55598984D01*
X87937473Y-55598984D01*
G37*
G36*
X112315002Y-32595000D02*
G01*
X112132553Y-32595000D01*
X112132553Y-32185404D01*
X112066363Y-32185404D01*
X111825295Y-32595000D01*
X111642846Y-32595000D01*
X111878540Y-32185404D01*
X111642846Y-32185404D01*
X111642846Y-31778984D01*
X111825295Y-31778984D01*
X111825295Y-32016632D01*
X112132553Y-32016632D01*
X112132553Y-31778984D01*
X111825295Y-31778984D01*
X111642846Y-31778984D01*
X111642846Y-31610212D01*
X112315002Y-31610212D01*
X112315002Y-32595000D01*
G37*
G36*
X111322644Y-32595000D02*
G01*
X111505093Y-32595000D01*
X111505093Y-31610212D01*
X111322644Y-31610212D01*
X111322644Y-32595000D01*
G37*
G36*
X111179762Y-32595000D02*
G01*
X110507605Y-32595000D01*
X110507605Y-32185404D01*
X110690055Y-32185404D01*
X110690055Y-32426228D01*
X110997312Y-32426228D01*
X110997312Y-32185404D01*
X110690055Y-32185404D01*
X110507605Y-32185404D01*
X110507605Y-32016632D01*
X110997312Y-32016632D01*
X110997312Y-31778984D01*
X110507605Y-31778984D01*
X110507605Y-31610212D01*
X111179762Y-31610212D01*
X111179762Y-32595000D01*
G37*
G36*
X110369852Y-32185404D02*
G01*
X110369852Y-31610212D01*
X110187403Y-31610212D01*
X110187403Y-32016632D01*
X109880145Y-32016632D01*
X109880145Y-31610212D01*
X109697696Y-31610212D01*
X109697696Y-32595000D01*
X109880145Y-32595000D01*
X109880145Y-32185404D01*
X110369852Y-32185404D01*
G37*
G36*
X80322644Y-65990505D02*
G01*
X80322644Y-66246228D01*
X80015386Y-66246228D01*
X80015386Y-65430212D01*
X79832937Y-65430212D01*
X79832937Y-66415000D01*
X80505093Y-66415000D01*
X80505093Y-65990505D01*
X80322644Y-65990505D01*
G37*
G36*
X79512735Y-66415000D02*
G01*
X79695184Y-66415000D01*
X79695184Y-65430212D01*
X79512735Y-65430212D01*
X79512735Y-66415000D01*
G37*
G36*
X153315002Y-112595000D02*
G01*
X153132553Y-112595000D01*
X153132553Y-112185404D01*
X153066363Y-112185404D01*
X152825295Y-112595000D01*
X152642846Y-112595000D01*
X152878540Y-112185404D01*
X152642846Y-112185404D01*
X152642846Y-111778984D01*
X152825295Y-111778984D01*
X152825295Y-112016632D01*
X153132553Y-112016632D01*
X153132553Y-111778984D01*
X152825295Y-111778984D01*
X152642846Y-111778984D01*
X152642846Y-111610212D01*
X153315002Y-111610212D01*
X153315002Y-112595000D01*
G37*
G36*
X152322644Y-112595000D02*
G01*
X152505093Y-112595000D01*
X152505093Y-111610212D01*
X152322644Y-111610212D01*
X152322644Y-112595000D01*
G37*
G36*
X152179762Y-112595000D02*
G01*
X151507605Y-112595000D01*
X151507605Y-112185404D01*
X151690055Y-112185404D01*
X151690055Y-112426228D01*
X151997312Y-112426228D01*
X151997312Y-112185404D01*
X151690055Y-112185404D01*
X151507605Y-112185404D01*
X151507605Y-112016632D01*
X151997312Y-112016632D01*
X151997312Y-111778984D01*
X151507605Y-111778984D01*
X151507605Y-111610212D01*
X152179762Y-111610212D01*
X152179762Y-112595000D01*
G37*
G36*
X151369852Y-112185404D02*
G01*
X151369852Y-111610212D01*
X150697696Y-111610212D01*
X150697696Y-111778984D01*
X151187403Y-111778984D01*
X151187403Y-112016632D01*
X150697696Y-112016632D01*
X150697696Y-112595000D01*
X151369852Y-112595000D01*
X151369852Y-112426228D01*
X150880145Y-112426228D01*
X150880145Y-112185404D01*
X151369852Y-112185404D01*
G37*
G36*
X143410048Y-119915000D02*
G01*
X142737892Y-119915000D01*
X142737892Y-119551566D01*
X142768874Y-119505404D01*
X142920341Y-119505404D01*
X142920341Y-119746228D01*
X143227599Y-119746228D01*
X143227599Y-119505404D01*
X142920341Y-119505404D01*
X142768874Y-119505404D01*
X142823133Y-119424560D01*
X142737892Y-119298531D01*
X142737892Y-119098984D01*
X142920341Y-119098984D01*
X142920341Y-119336632D01*
X143227599Y-119336632D01*
X143227599Y-119098984D01*
X142920341Y-119098984D01*
X142737892Y-119098984D01*
X142737892Y-118930212D01*
X143410048Y-118930212D01*
X143410048Y-119915000D01*
G37*
G36*
X142344905Y-119098984D02*
G01*
X142600139Y-119098984D01*
X142600139Y-118930212D01*
X141927983Y-118930212D01*
X141927983Y-119098984D01*
X142162456Y-119098984D01*
X142162456Y-119915000D01*
X142344905Y-119915000D01*
X142344905Y-119098984D01*
G37*
G36*
X141607780Y-119915000D02*
G01*
X141790230Y-119915000D01*
X141790230Y-118930212D01*
X141607780Y-118930212D01*
X141607780Y-119915000D01*
G37*
G36*
X126315002Y-32595000D02*
G01*
X126132553Y-32595000D01*
X126132553Y-32185404D01*
X126066363Y-32185404D01*
X125825295Y-32595000D01*
X125642846Y-32595000D01*
X125878540Y-32185404D01*
X125642846Y-32185404D01*
X125642846Y-31778984D01*
X125825295Y-31778984D01*
X125825295Y-32016632D01*
X126132553Y-32016632D01*
X126132553Y-31778984D01*
X125825295Y-31778984D01*
X125642846Y-31778984D01*
X125642846Y-31610212D01*
X126315002Y-31610212D01*
X126315002Y-32595000D01*
G37*
G36*
X125322644Y-32595000D02*
G01*
X125505093Y-32595000D01*
X125505093Y-31610212D01*
X125322644Y-31610212D01*
X125322644Y-32595000D01*
G37*
G36*
X125179762Y-32595000D02*
G01*
X124507605Y-32595000D01*
X124507605Y-32185404D01*
X124690055Y-32185404D01*
X124690055Y-32426228D01*
X124997312Y-32426228D01*
X124997312Y-32185404D01*
X124690055Y-32185404D01*
X124507605Y-32185404D01*
X124507605Y-32016632D01*
X124997312Y-32016632D01*
X124997312Y-31778984D01*
X124507605Y-31778984D01*
X124507605Y-31610212D01*
X125179762Y-31610212D01*
X125179762Y-32595000D01*
G37*
G36*
X124369852Y-32595000D02*
G01*
X123697696Y-32595000D01*
X123697696Y-32185404D01*
X123880145Y-32185404D01*
X123880145Y-32426228D01*
X124187403Y-32426228D01*
X124187403Y-32185404D01*
X123880145Y-32185404D01*
X123697696Y-32185404D01*
X123697696Y-32016632D01*
X124187403Y-32016632D01*
X124187403Y-31778984D01*
X123697696Y-31778984D01*
X123697696Y-31610212D01*
X124369852Y-31610212D01*
X124369852Y-32595000D01*
G37*
G36*
X141757675Y-42330212D02*
G01*
X141575226Y-42330212D01*
X141575226Y-43315000D01*
X142247382Y-43315000D01*
X142247382Y-42330212D01*
X142064933Y-42330212D01*
X142064933Y-43146228D01*
X141757675Y-43146228D01*
X141757675Y-42330212D01*
G37*
G36*
X141437473Y-42905404D02*
G01*
X141437473Y-42330212D01*
X141255024Y-42330212D01*
X141255024Y-42736632D01*
X140947766Y-42736632D01*
X140947766Y-42330212D01*
X140765317Y-42330212D01*
X140765317Y-43315000D01*
X140947766Y-43315000D01*
X140947766Y-42905404D01*
X141437473Y-42905404D01*
G37*
G36*
X121530212Y-41242324D02*
G01*
X121530212Y-41424773D01*
X122515000Y-41424773D01*
X122515000Y-40752617D01*
X121530212Y-40752617D01*
X121530212Y-40935066D01*
X122346228Y-40935066D01*
X122346228Y-41242324D01*
X121530212Y-41242324D01*
G37*
G36*
X122515000Y-42234682D02*
G01*
X121530212Y-42234682D01*
X121530212Y-41744975D01*
X121698984Y-41744975D01*
X121698984Y-42052233D01*
X121936632Y-42052233D01*
X121936632Y-41744975D01*
X122105404Y-41744975D01*
X122105404Y-42052233D01*
X122346228Y-42052233D01*
X122346228Y-41744975D01*
X122105404Y-41744975D01*
X121936632Y-41744975D01*
X121698984Y-41744975D01*
X121530212Y-41744975D01*
X121530212Y-41562526D01*
X122515000Y-41562526D01*
X122515000Y-42234682D01*
G37*
G36*
X151315002Y-120595000D02*
G01*
X151132553Y-120595000D01*
X151132553Y-120185404D01*
X151066363Y-120185404D01*
X150825295Y-120595000D01*
X150642846Y-120595000D01*
X150878540Y-120185404D01*
X150642846Y-120185404D01*
X150642846Y-119778984D01*
X150825295Y-119778984D01*
X150825295Y-120016632D01*
X151132553Y-120016632D01*
X151132553Y-119778984D01*
X150825295Y-119778984D01*
X150642846Y-119778984D01*
X150642846Y-119610212D01*
X151315002Y-119610212D01*
X151315002Y-120595000D01*
G37*
G36*
X150322644Y-120595000D02*
G01*
X150505093Y-120595000D01*
X150505093Y-119610212D01*
X150322644Y-119610212D01*
X150322644Y-120595000D01*
G37*
G36*
X150179762Y-120595000D02*
G01*
X149507605Y-120595000D01*
X149507605Y-120185404D01*
X149690055Y-120185404D01*
X149690055Y-120426228D01*
X149997312Y-120426228D01*
X149997312Y-120185404D01*
X149690055Y-120185404D01*
X149507605Y-120185404D01*
X149507605Y-120016632D01*
X149997312Y-120016632D01*
X149997312Y-119778984D01*
X149507605Y-119778984D01*
X149507605Y-119610212D01*
X150179762Y-119610212D01*
X150179762Y-120595000D01*
G37*
G36*
X148697696Y-120426228D02*
G01*
X148697696Y-120595000D01*
X149369852Y-120595000D01*
X149369852Y-120016632D01*
X148880145Y-120016632D01*
X148880145Y-119778984D01*
X149369852Y-119778984D01*
X149369852Y-119610212D01*
X148697696Y-119610212D01*
X148697696Y-120185404D01*
X149187403Y-120185404D01*
X149187403Y-120426228D01*
X148697696Y-120426228D01*
G37*
G36*
X119315002Y-32595000D02*
G01*
X119132553Y-32595000D01*
X119132553Y-32185404D01*
X119066363Y-32185404D01*
X118825295Y-32595000D01*
X118642846Y-32595000D01*
X118878540Y-32185404D01*
X118642846Y-32185404D01*
X118642846Y-31778984D01*
X118825295Y-31778984D01*
X118825295Y-32016632D01*
X119132553Y-32016632D01*
X119132553Y-31778984D01*
X118825295Y-31778984D01*
X118642846Y-31778984D01*
X118642846Y-31610212D01*
X119315002Y-31610212D01*
X119315002Y-32595000D01*
G37*
G36*
X118322644Y-32595000D02*
G01*
X118505093Y-32595000D01*
X118505093Y-31610212D01*
X118322644Y-31610212D01*
X118322644Y-32595000D01*
G37*
G36*
X118179762Y-32595000D02*
G01*
X117507605Y-32595000D01*
X117507605Y-32185404D01*
X117690055Y-32185404D01*
X117690055Y-32426228D01*
X117997312Y-32426228D01*
X117997312Y-32185404D01*
X117690055Y-32185404D01*
X117507605Y-32185404D01*
X117507605Y-32016632D01*
X117997312Y-32016632D01*
X117997312Y-31778984D01*
X117507605Y-31778984D01*
X117507605Y-31610212D01*
X118179762Y-31610212D01*
X118179762Y-32595000D01*
G37*
G36*
X116869643Y-31778984D02*
G01*
X117369852Y-31778984D01*
X117369852Y-31610212D01*
X116687194Y-31610212D01*
X116687194Y-32595000D01*
X116869643Y-32595000D01*
X116869643Y-31778984D01*
G37*
G36*
X153315002Y-116595000D02*
G01*
X153132553Y-116595000D01*
X153132553Y-116185404D01*
X153066363Y-116185404D01*
X152825295Y-116595000D01*
X152642846Y-116595000D01*
X152878540Y-116185404D01*
X152642846Y-116185404D01*
X152642846Y-115778984D01*
X152825295Y-115778984D01*
X152825295Y-116016632D01*
X153132553Y-116016632D01*
X153132553Y-115778984D01*
X152825295Y-115778984D01*
X152642846Y-115778984D01*
X152642846Y-115610212D01*
X153315002Y-115610212D01*
X153315002Y-116595000D01*
G37*
G36*
X152322644Y-116595000D02*
G01*
X152505093Y-116595000D01*
X152505093Y-115610212D01*
X152322644Y-115610212D01*
X152322644Y-116595000D01*
G37*
G36*
X152179762Y-116595000D02*
G01*
X151507605Y-116595000D01*
X151507605Y-116185404D01*
X151690055Y-116185404D01*
X151690055Y-116426228D01*
X151997312Y-116426228D01*
X151997312Y-116185404D01*
X151690055Y-116185404D01*
X151507605Y-116185404D01*
X151507605Y-116016632D01*
X151997312Y-116016632D01*
X151997312Y-115778984D01*
X151507605Y-115778984D01*
X151507605Y-115610212D01*
X152179762Y-115610212D01*
X152179762Y-116595000D01*
G37*
G36*
X151369852Y-115778984D02*
G01*
X151369852Y-115610212D01*
X150687194Y-115610212D01*
X150687194Y-116595000D01*
X151369852Y-116595000D01*
X151369852Y-116426228D01*
X150869643Y-116426228D01*
X150869643Y-116185404D01*
X151369852Y-116185404D01*
X151369852Y-116016632D01*
X150869643Y-116016632D01*
X150869643Y-115778984D01*
X151369852Y-115778984D01*
G37*
D13*
%TO.C,C40*%
X146384167Y-42640000D02*
X146615837Y-42640000D01*
X146384167Y-43360000D02*
X146615837Y-43360000D01*
%TO.C,Q90*%
X139440002Y-46825000D02*
X139440002Y-48500000D01*
X139440002Y-49150000D02*
X139440002Y-48500000D01*
X142560002Y-47850000D02*
X142560002Y-48500000D01*
X142560002Y-49150000D02*
X142560002Y-48500000D01*
%TO.C,R24*%
X83320000Y-63032379D02*
X83320000Y-63367621D01*
X84080000Y-63032379D02*
X84080000Y-63367621D01*
%TO.C,U3*%
X84390002Y-46390000D02*
X84390002Y-46840000D01*
X84390002Y-53610000D02*
X84390002Y-53160000D01*
X84840002Y-45100000D02*
X84840002Y-46390000D01*
X84840002Y-46390000D02*
X84390002Y-46390000D01*
X84840002Y-53610000D02*
X84390002Y-53610000D01*
X91160002Y-46390000D02*
X91610002Y-46390000D01*
X91160002Y-53610000D02*
X91610002Y-53610000D01*
X91610002Y-46390000D02*
X91610002Y-46840000D01*
X91610002Y-53610000D02*
X91610002Y-53160000D01*
%TO.C,C24*%
X94846269Y-145590000D02*
X94553735Y-145590000D01*
X94846269Y-146610000D02*
X94553735Y-146610000D01*
D12*
%TO.C,U1*%
X80600000Y-153300001D02*
X83400000Y-153300001D01*
X80600000Y-156699999D02*
X83400000Y-156699999D01*
D14*
X85028102Y-154025001D02*
G75*
G02*
X84778100Y-154025001I-125001J0D01*
G01*
X84778100Y-154025001D02*
G75*
G02*
X85028102Y-154025001I125001J0D01*
G01*
D13*
%TO.C,D9*%
X78550002Y-150650000D02*
X78550002Y-147390000D01*
X80250002Y-147390000D02*
X78550002Y-147390000D01*
X80250002Y-150650000D02*
X80250002Y-147390000D01*
%TO.C,R97*%
X130920002Y-53467621D02*
X130920002Y-53132379D01*
X131680002Y-53467621D02*
X131680002Y-53132379D01*
%TO.C,R164*%
X110272936Y-33090000D02*
X111727064Y-33090000D01*
X110272936Y-34910000D02*
X111727064Y-34910000D01*
%TO.C,C32*%
X82784167Y-45740000D02*
X83015837Y-45740000D01*
X82784167Y-46460000D02*
X83015837Y-46460000D01*
D14*
%TO.C,J1*%
X74500000Y-70470000D02*
X74500000Y-61530000D01*
X75980000Y-61530000D02*
X74500000Y-61530000D01*
X75980000Y-70470000D02*
X74500000Y-70470000D01*
X80080000Y-61530000D02*
X78220000Y-61530000D01*
X80080000Y-70470000D02*
X78220000Y-70470000D01*
D13*
%TO.C,R32*%
X148120000Y-131332379D02*
X148120000Y-131667621D01*
X148880000Y-131332379D02*
X148880000Y-131667621D01*
%TO.C,R10*%
X85767623Y-151220000D02*
X85432381Y-151220000D01*
X85767623Y-151980000D02*
X85432381Y-151980000D01*
%TO.C,C11*%
X77490000Y-154646267D02*
X77490000Y-154353733D01*
X78510000Y-154646267D02*
X78510000Y-154353733D01*
%TO.C,R36*%
X150320000Y-131332379D02*
X150320000Y-131667621D01*
X151080000Y-131332379D02*
X151080000Y-131667621D01*
%TO.C,Q9*%
X150850002Y-124940000D02*
X151500002Y-124940000D01*
X150850002Y-128060000D02*
X151500002Y-128060000D01*
X152150002Y-124940000D02*
X151500002Y-124940000D01*
X152150002Y-128060000D02*
X151500002Y-128060000D01*
X150577502Y-128340000D02*
X150097502Y-128340000D01*
X150337502Y-128010000D01*
X150577502Y-128340000D01*
G36*
X150577502Y-128340000D02*
G01*
X150097502Y-128340000D01*
X150337502Y-128010000D01*
X150577502Y-128340000D01*
G37*
%TO.C,R4*%
X92920000Y-41732379D02*
X92920000Y-42067621D01*
X93680000Y-41732379D02*
X93680000Y-42067621D01*
%TO.C,R35*%
X151420000Y-131332379D02*
X151420000Y-131667621D01*
X152180000Y-131332379D02*
X152180000Y-131667621D01*
%TO.C,R165*%
X149772936Y-113090000D02*
X151227064Y-113090000D01*
X149772936Y-114910000D02*
X151227064Y-114910000D01*
%TO.C,C25*%
X94846269Y-143890000D02*
X94553735Y-143890000D01*
X94846269Y-144910000D02*
X94553735Y-144910000D01*
%TO.C,R17*%
X82132381Y-57920000D02*
X82467623Y-57920000D01*
X82132381Y-58680000D02*
X82467623Y-58680000D01*
%TO.C,C30*%
X93215837Y-53540000D02*
X92984167Y-53540000D01*
X93215837Y-54260000D02*
X92984167Y-54260000D01*
%TO.C,C38*%
X86415837Y-43440000D02*
X86184167Y-43440000D01*
X86415837Y-44160000D02*
X86184167Y-44160000D01*
%TO.C,R19*%
X85132381Y-149620000D02*
X85467623Y-149620000D01*
X85132381Y-150380000D02*
X85467623Y-150380000D01*
%TO.C,R21*%
X89220000Y-41132379D02*
X89220000Y-41467621D01*
X89980000Y-41132379D02*
X89980000Y-41467621D01*
%TO.C,Q99*%
X114940002Y-48350000D02*
X114940002Y-49000000D01*
X114940002Y-49650000D02*
X114940002Y-49000000D01*
X118060002Y-48350000D02*
X118060002Y-49000000D01*
X118060002Y-49650000D02*
X118060002Y-49000000D01*
X114990002Y-47837500D02*
X114660002Y-48077500D01*
X114660002Y-47597500D01*
X114990002Y-47837500D01*
G36*
X114990002Y-47837500D02*
G01*
X114660002Y-48077500D01*
X114660002Y-47597500D01*
X114990002Y-47837500D01*
G37*
%TO.C,R34*%
X152520000Y-131332379D02*
X152520000Y-131667621D01*
X153280000Y-131332379D02*
X153280000Y-131667621D01*
%TO.C,R31*%
X149220000Y-131332379D02*
X149220000Y-131667621D01*
X149980000Y-131332379D02*
X149980000Y-131667621D01*
%TO.C,R20*%
X82732381Y-44420000D02*
X83067623Y-44420000D01*
X82732381Y-45180000D02*
X83067623Y-45180000D01*
%TO.C,R96*%
X127920002Y-56467621D02*
X127920002Y-56132379D01*
X128680002Y-56467621D02*
X128680002Y-56132379D01*
%TO.C,C20*%
X88446269Y-147290000D02*
X88153735Y-147290000D01*
X88446269Y-148310000D02*
X88153735Y-148310000D01*
%TO.C,R23*%
X92132381Y-138620000D02*
X92467623Y-138620000D01*
X92132381Y-139380000D02*
X92467623Y-139380000D01*
%TO.C,R6*%
X98720000Y-34332379D02*
X98720000Y-34667621D01*
X99480000Y-34332379D02*
X99480000Y-34667621D01*
%TO.C,R95*%
X124920002Y-59467621D02*
X124920002Y-59132379D01*
X125680002Y-59467621D02*
X125680002Y-59132379D01*
%TO.C,C21*%
X88640002Y-142415835D02*
X88640002Y-142184165D01*
X89360002Y-142415835D02*
X89360002Y-142184165D01*
%TO.C,Q91*%
X142940002Y-46825000D02*
X142940002Y-48500000D01*
X142940002Y-49150000D02*
X142940002Y-48500000D01*
X146060002Y-47850000D02*
X146060002Y-48500000D01*
X146060002Y-49150000D02*
X146060002Y-48500000D01*
%TO.C,Q94*%
X150825002Y-44060000D02*
X152500002Y-44060000D01*
X151850002Y-40940000D02*
X152500002Y-40940000D01*
X153150002Y-40940000D02*
X152500002Y-40940000D01*
X153150002Y-44060000D02*
X152500002Y-44060000D01*
%TO.C,C37*%
X88140000Y-40715835D02*
X88140000Y-40484165D01*
X88860000Y-40715835D02*
X88860000Y-40484165D01*
%TO.C,R11*%
X92467621Y-39420000D02*
X92132379Y-39420000D01*
X92467621Y-40180000D02*
X92132379Y-40180000D01*
%TO.C,Q915*%
X135940002Y-47850000D02*
X135940002Y-48500000D01*
X135940002Y-49150000D02*
X135940002Y-48500000D01*
X139060002Y-47850000D02*
X139060002Y-48500000D01*
X139060002Y-49150000D02*
X139060002Y-48500000D01*
X135990002Y-47337500D02*
X135660002Y-47577500D01*
X135660002Y-47097500D01*
X135990002Y-47337500D01*
G36*
X135990002Y-47337500D02*
G01*
X135660002Y-47577500D01*
X135660002Y-47097500D01*
X135990002Y-47337500D01*
G37*
D15*
%TO.C,BT1*%
X83500002Y-120500000D02*
X83500002Y-133500000D01*
X83500002Y-120500000D02*
X146500002Y-120500000D01*
X83500002Y-133500000D02*
X146500002Y-133500000D01*
X84576904Y-131713626D02*
X85846904Y-131713626D01*
X85211904Y-132348626D02*
X85211904Y-131078626D01*
X146500002Y-120500000D02*
X146500002Y-133500000D01*
D13*
%TO.C,R5*%
X91832381Y-137220000D02*
X92167623Y-137220000D01*
X91832381Y-137980000D02*
X92167623Y-137980000D01*
%TO.C,R90*%
X109920002Y-74467621D02*
X109920002Y-74132379D01*
X110680002Y-74467621D02*
X110680002Y-74132379D01*
%TO.C,Q98*%
X111440002Y-48350000D02*
X111440002Y-49000000D01*
X111440002Y-49650000D02*
X111440002Y-49000000D01*
X114560002Y-48350000D02*
X114560002Y-49000000D01*
X114560002Y-49650000D02*
X114560002Y-49000000D01*
X111490002Y-47837500D02*
X111160002Y-48077500D01*
X111160002Y-47597500D01*
X111490002Y-47837500D01*
G36*
X111490002Y-47837500D02*
G01*
X111160002Y-48077500D01*
X111160002Y-47597500D01*
X111490002Y-47837500D01*
G37*
%TO.C,C33*%
X90384165Y-43440000D02*
X90615835Y-43440000D01*
X90384165Y-44160000D02*
X90615835Y-44160000D01*
%TO.C,Q2*%
X95250002Y-138040000D02*
X95900002Y-138040000D01*
X95250002Y-141160000D02*
X95900002Y-141160000D01*
X96550002Y-138040000D02*
X95900002Y-138040000D01*
X96550002Y-141160000D02*
X95900002Y-141160000D01*
X97062502Y-138090000D02*
X96822502Y-137760000D01*
X97302502Y-137760000D01*
X97062502Y-138090000D01*
G36*
X97062502Y-138090000D02*
G01*
X96822502Y-137760000D01*
X97302502Y-137760000D01*
X97062502Y-138090000D01*
G37*
%TO.C,R166*%
X124272936Y-33090000D02*
X125727064Y-33090000D01*
X124272936Y-34910000D02*
X125727064Y-34910000D01*
%TO.C,C10*%
X80646267Y-157490000D02*
X80353733Y-157490000D01*
X80646267Y-158510000D02*
X80353733Y-158510000D01*
%TO.C,R92*%
X115920002Y-68467621D02*
X115920002Y-68132379D01*
X116680002Y-68467621D02*
X116680002Y-68132379D01*
%TO.C,R9*%
X129320000Y-34632379D02*
X129320000Y-34967621D01*
X130080000Y-34632379D02*
X130080000Y-34967621D01*
%TO.C,R16*%
X82467623Y-59020000D02*
X82132381Y-59020000D01*
X82467623Y-59780000D02*
X82132381Y-59780000D01*
%TO.C,Q911*%
X121940002Y-48350000D02*
X121940002Y-49000000D01*
X121940002Y-49650000D02*
X121940002Y-49000000D01*
X125060002Y-48350000D02*
X125060002Y-49000000D01*
X125060002Y-49650000D02*
X125060002Y-49000000D01*
X121990002Y-47837500D02*
X121660002Y-48077500D01*
X121660002Y-47597500D01*
X121990002Y-47837500D01*
G36*
X121990002Y-47837500D02*
G01*
X121660002Y-48077500D01*
X121660002Y-47597500D01*
X121990002Y-47837500D01*
G37*
%TO.C,Q912*%
X125440002Y-48350000D02*
X125440002Y-49000000D01*
X125440002Y-49650000D02*
X125440002Y-49000000D01*
X128560002Y-48350000D02*
X128560002Y-49000000D01*
X128560002Y-49650000D02*
X128560002Y-49000000D01*
X125490002Y-47837500D02*
X125160002Y-48077500D01*
X125160002Y-47597500D01*
X125490002Y-47837500D01*
G36*
X125490002Y-47837500D02*
G01*
X125160002Y-48077500D01*
X125160002Y-47597500D01*
X125490002Y-47837500D01*
G37*
%TO.C,U4*%
X141000000Y-42060000D02*
X144500000Y-42060000D01*
X142550000Y-31940000D02*
X144500000Y-31940000D01*
X146450000Y-31940000D02*
X144500000Y-31940000D01*
X146450000Y-42060000D02*
X144500000Y-42060000D01*
%TO.C,C1*%
X88415837Y-148890000D02*
X88184167Y-148890000D01*
X88415837Y-149610000D02*
X88184167Y-149610000D01*
%TO.C,C31*%
X83840002Y-55115835D02*
X83840002Y-54884165D01*
X84560002Y-55115835D02*
X84560002Y-54884165D01*
%TO.C,D2*%
X88890002Y-134750000D02*
X88890002Y-136750000D01*
X92750002Y-134750000D02*
X88890002Y-134750000D01*
X92750002Y-136750000D02*
X88890002Y-136750000D01*
%TO.C,Q914*%
X132440002Y-47850000D02*
X132440002Y-48500000D01*
X132440002Y-49150000D02*
X132440002Y-48500000D01*
X135560002Y-47850000D02*
X135560002Y-48500000D01*
X135560002Y-49150000D02*
X135560002Y-48500000D01*
X132490002Y-47337500D02*
X132160002Y-47577500D01*
X132160002Y-47097500D01*
X132490002Y-47337500D01*
G36*
X132490002Y-47337500D02*
G01*
X132160002Y-47577500D01*
X132160002Y-47097500D01*
X132490002Y-47337500D01*
G37*
%TO.C,U8*%
X122940000Y-39550000D02*
X122940000Y-41500000D01*
X122940000Y-43450000D02*
X122940000Y-41500000D01*
X133060000Y-39550000D02*
X133060000Y-41500000D01*
X133060000Y-43450000D02*
X133060000Y-41500000D01*
X122995000Y-38775000D02*
X122665000Y-39015000D01*
X122665000Y-38535000D01*
X122995000Y-38775000D01*
G36*
X122995000Y-38775000D02*
G01*
X122665000Y-39015000D01*
X122665000Y-38535000D01*
X122995000Y-38775000D01*
G37*
%TO.C,R3*%
X79532379Y-59620000D02*
X79867621Y-59620000D01*
X79532379Y-60380000D02*
X79867621Y-60380000D01*
%TO.C,C34*%
X90740000Y-42215835D02*
X90740000Y-41984165D01*
X91460000Y-42215835D02*
X91460000Y-41984165D01*
%TO.C,R162*%
X149772936Y-121090000D02*
X151227064Y-121090000D01*
X149772936Y-122910000D02*
X151227064Y-122910000D01*
D12*
%TO.C,U2*%
X90200002Y-139800001D02*
X93000002Y-139800001D01*
X90200002Y-143199999D02*
X93000002Y-143199999D01*
D14*
X94628104Y-140525001D02*
G75*
G02*
X94378102Y-140525001I-125001J0D01*
G01*
X94378102Y-140525001D02*
G75*
G02*
X94628104Y-140525001I125001J0D01*
G01*
D13*
%TO.C,R2*%
X83620000Y-65767621D02*
X83620000Y-65432379D01*
X84380000Y-65767621D02*
X84380000Y-65432379D01*
%TO.C,C22*%
X90953735Y-143890000D02*
X91246269Y-143890000D01*
X90953735Y-144910000D02*
X91246269Y-144910000D01*
%TO.C,C92*%
X152653733Y-128690000D02*
X152946267Y-128690000D01*
X152653733Y-129710000D02*
X152946267Y-129710000D01*
%TO.C,R1*%
X83620000Y-68267621D02*
X83620000Y-67932379D01*
X84380000Y-68267621D02*
X84380000Y-67932379D01*
%TO.C,R7*%
X130620002Y-34632379D02*
X130620002Y-34967621D01*
X131380002Y-34632379D02*
X131380002Y-34967621D01*
%TO.C,Q92*%
X146440002Y-46825000D02*
X146440002Y-48500000D01*
X146440002Y-49150000D02*
X146440002Y-48500000D01*
X149560002Y-47850000D02*
X149560002Y-48500000D01*
X149560002Y-49150000D02*
X149560002Y-48500000D01*
%TO.C,R18*%
X85467623Y-148520000D02*
X85132381Y-148520000D01*
X85467623Y-149280000D02*
X85132381Y-149280000D01*
%TO.C,R33*%
X153620000Y-131332379D02*
X153620000Y-131667621D01*
X154380000Y-131332379D02*
X154380000Y-131667621D01*
%TO.C,Q910*%
X118440002Y-48350000D02*
X118440002Y-49000000D01*
X118440002Y-49650000D02*
X118440002Y-49000000D01*
X121560002Y-48350000D02*
X121560002Y-49000000D01*
X121560002Y-49650000D02*
X121560002Y-49000000D01*
X118490002Y-47837500D02*
X118160002Y-48077500D01*
X118160002Y-47597500D01*
X118490002Y-47837500D01*
G36*
X118490002Y-47837500D02*
G01*
X118160002Y-48077500D01*
X118160002Y-47597500D01*
X118490002Y-47837500D01*
G37*
%TO.C,R93*%
X118920002Y-65467621D02*
X118920002Y-65132379D01*
X119680002Y-65467621D02*
X119680002Y-65132379D01*
%TO.C,C26*%
X90953735Y-145590000D02*
X91246269Y-145590000D01*
X90953735Y-146610000D02*
X91246269Y-146610000D01*
%TO.C,L20*%
X77200002Y-136200000D02*
X87800002Y-136200000D01*
X77200002Y-139400000D02*
X77200002Y-136200000D01*
X77200002Y-146800000D02*
X77200002Y-143600000D01*
X87800002Y-136200000D02*
X87800002Y-139400000D01*
X87800002Y-143600000D02*
X87800002Y-146800000D01*
X87800002Y-146800000D02*
X77200002Y-146800000D01*
%TO.C,R25*%
X83620000Y-70332379D02*
X83620000Y-70667621D01*
X84380000Y-70332379D02*
X84380000Y-70667621D01*
%TO.C,Q96*%
X151325002Y-37060000D02*
X153000002Y-37060000D01*
X152350002Y-33940000D02*
X153000002Y-33940000D01*
X153650002Y-33940000D02*
X153000002Y-33940000D01*
X153650002Y-37060000D02*
X153000002Y-37060000D01*
%TO.C,R167*%
X117272936Y-33090000D02*
X118727064Y-33090000D01*
X117272936Y-34910000D02*
X118727064Y-34910000D01*
%TO.C,R8*%
X99920000Y-34332379D02*
X99920000Y-34667621D01*
X100680000Y-34332379D02*
X100680000Y-34667621D01*
%TO.C,C80*%
X121540000Y-43884165D02*
X121540000Y-44115835D01*
X122260000Y-43884165D02*
X122260000Y-44115835D01*
%TO.C,C23*%
X94846269Y-147290000D02*
X94553735Y-147290000D01*
X94846269Y-148310000D02*
X94553735Y-148310000D01*
%TO.C,R22*%
X90067623Y-138620000D02*
X89732381Y-138620000D01*
X90067623Y-139380000D02*
X89732381Y-139380000D01*
%TO.C,R91*%
X112920002Y-71467621D02*
X112920002Y-71132379D01*
X113680002Y-71467621D02*
X113680002Y-71132379D01*
%TO.C,R163*%
X149772936Y-117090000D02*
X151227064Y-117090000D01*
X149772936Y-118910000D02*
X151227064Y-118910000D01*
%TO.C,Y1*%
X87775000Y-39300000D02*
X84625000Y-39300000D01*
X87775000Y-43100000D02*
X87775000Y-39300000D01*
%TO.C,R94*%
X121920002Y-62467621D02*
X121920002Y-62132379D01*
X122680002Y-62467621D02*
X122680002Y-62132379D01*
%TO.C,Q1*%
X80602502Y-148650000D02*
X80602502Y-149300000D01*
X80602502Y-149950000D02*
X80602502Y-149300000D01*
X83722502Y-148650000D02*
X83722502Y-149300000D01*
X83722502Y-149950000D02*
X83722502Y-149300000D01*
X84002502Y-150702500D02*
X83672502Y-150462500D01*
X84002502Y-150222500D01*
X84002502Y-150702500D01*
G36*
X84002502Y-150702500D02*
G01*
X83672502Y-150462500D01*
X84002502Y-150222500D01*
X84002502Y-150702500D01*
G37*
%TO.C,D1*%
X94750002Y-141650000D02*
X98010002Y-141650000D01*
X94750002Y-143350000D02*
X98010002Y-143350000D01*
X98010002Y-143350000D02*
X98010002Y-141650000D01*
%TO.C,Q93*%
X150325002Y-47560000D02*
X152000002Y-47560000D01*
X151350002Y-44440000D02*
X152000002Y-44440000D01*
X152650002Y-44440000D02*
X152000002Y-44440000D01*
X152650002Y-47560000D02*
X152000002Y-47560000D01*
%TO.C,Q97*%
X151825002Y-33560000D02*
X153500002Y-33560000D01*
X152850002Y-30440000D02*
X153500002Y-30440000D01*
X154150002Y-30440000D02*
X153500002Y-30440000D01*
X154150002Y-33560000D02*
X153500002Y-33560000D01*
%TO.C,R30*%
X91820000Y-43032379D02*
X91820000Y-43367621D01*
X92580000Y-43032379D02*
X92580000Y-43367621D01*
%TO.C,Q913*%
X128940002Y-47850000D02*
X128940002Y-48500000D01*
X128940002Y-49150000D02*
X128940002Y-48500000D01*
X132060002Y-47850000D02*
X132060002Y-48500000D01*
X132060002Y-49150000D02*
X132060002Y-48500000D01*
X128990002Y-47337500D02*
X128660002Y-47577500D01*
X128660002Y-47097500D01*
X128990002Y-47337500D01*
G36*
X128990002Y-47337500D02*
G01*
X128660002Y-47577500D01*
X128660002Y-47097500D01*
X128990002Y-47337500D01*
G37*
%TO.C,Q95*%
X151325002Y-40560000D02*
X153000002Y-40560000D01*
X152350002Y-37440000D02*
X153000002Y-37440000D01*
X153650002Y-37440000D02*
X153000002Y-37440000D01*
X153650002Y-40560000D02*
X153000002Y-40560000D01*
%TO.C,R14*%
X149867621Y-128720000D02*
X149532379Y-128720000D01*
X149867621Y-129480000D02*
X149532379Y-129480000D01*
%TO.C,D18*%
X93950002Y-135500000D02*
X97810002Y-135500000D01*
X93950002Y-137500000D02*
X97810002Y-137500000D01*
X97810002Y-137500000D02*
X97810002Y-135500000D01*
%TD*%
M02*
